<?xml version="1.0" encoding="UTF-8" standalone="no"?>
<!DOCTYPE svg PUBLIC "-//W3C//DTD SVG 1.1//EN" "http://www.w3.org/Graphics/SVG/1.1/DTD/svg11.dtd">
<svg xmlns="http://www.w3.org/2000/svg" version="1.1" viewBox="0.00 0.00 1773.00 1773.00">
<g stroke-width="2.00" fill="none" stroke-linecap="butt">
<path stroke="#fdcdd5" vector-effect="non-scaling-stroke" d="
  M 140.01 0.00
  Q 98.99 2.24 65.91 26.17
  C 26.44 54.72 3.38 96.61 0.00 145.51"
/>
<path stroke="#fdcdd5" vector-effect="non-scaling-stroke" d="
  M 154.79 0.00
  Q 206.79 3.13 244.65 38.37
  Q 284.31 75.28 293.51 129.13
  C 294.49 134.84 294.93 142.16 295.40 147.75
  A 0.16 0.16 0.0 0 0 295.57 147.90
  L 295.58 147.90
  A 0.15 0.14 -87.8 0 0 295.72 147.76
  C 298.04 93.38 328.20 43.54 375.61 17.08
  Q 403.19 1.68 436.22 0.00"
/>
<path stroke="#fdcdd5" vector-effect="non-scaling-stroke" d="
  M 450.22 0.00
  Q 485.84 1.70 515.92 20.07
  Q 546.06 38.47 565.24 67.99
  Q 588.80 104.26 590.63 147.62
  L 590.63 147.63
  Q 590.63 147.53 590.64 147.44
  Q 591.08 144.40 591.31 141.31
  C 595.85 79.84 640.28 21.69 700.48 5.12
  Q 715.72 0.92 731.76 0.00"
/>
<path stroke="#fdcdd5" vector-effect="non-scaling-stroke" d="
  M 745.22 0.00
  Q 782.02 1.67 811.57 19.90
  C 855.21 46.84 884.36 94.34 886.24 146.80
  A 0.02 0.02 0.0 0 0 886.28 146.82
  Q 886.30 146.81 886.32 146.80
  A 0.26 0.13 -27.2 0 0 886.42 146.66
  Q 887.12 138.27 888.21 130.98
  C 895.07 84.79 922.35 43.68 962.51 19.53
  C 982.66 7.42 1003.51 1.54 1026.97 0.00"
/>
<path stroke="#fdcdd5" vector-effect="non-scaling-stroke" d="
  M 1040.48 0.00
  C 1082.32 2.05 1119.13 21.43 1145.70 53.53
  Q 1179.52 94.40 1182.22 147.70
  A 0.03 0.02 65.3 0 0 1182.26 147.72
  Q 1182.28 147.70 1182.30 147.69
  A 0.28 0.12 -30.0 0 0 1182.41 147.54
  C 1183.17 141.17 1183.46 134.12 1184.64 127.34
  Q 1190.51 93.64 1209.84 65.08
  C 1229.39 36.22 1260.12 12.50 1294.43 4.18
  Q 1307.28 1.06 1322.25 0.00"
/>
<path stroke="#fdcdd5" vector-effect="non-scaling-stroke" d="
  M 1336.20 0.00
  Q 1373.83 1.70 1404.71 21.26
  C 1447.85 48.58 1475.07 96.06 1477.51 147.24
  Q 1477.51 147.31 1477.57 147.35
  A 0.10 0.09 20.8 0 0 1477.72 147.29
  Q 1480.08 97.87 1510.05 58.53
  C 1531.44 30.45 1562.58 9.16 1597.62 2.66
  Q 1607.75 0.78 1618.00 0.00"
/>
<path stroke="#fdcdd5" vector-effect="non-scaling-stroke" d="
  M 1631.72 0.00
  Q 1669.92 1.66 1700.94 21.55
  C 1744.03 49.17 1771.09 96.69 1773.00 148.13"
/>
<path stroke="#fdcdd5" vector-effect="non-scaling-stroke" d="
  M 1773.00 221.59
  L 1714.94 221.62
  A 0.89 0.89 0.0 0 1 1714.05 220.73
  Q 1714.16 165.88 1714.03 147.51
  Q 1713.80 115.86 1695.91 90.84
  C 1682.85 72.57 1662.67 59.40 1640.59 55.42
  C 1603.70 48.77 1566.02 67.81 1548.41 100.91
  Q 1536.36 123.56 1536.36 149.75
  Q 1536.37 208.92 1536.37 220.80
  A 0.79 0.78 -90.0 0 1 1535.59 221.59
  L 1419.38 221.59
  A 0.82 0.81 -90.0 0 1 1418.57 220.77
  Q 1418.59 175.68 1418.53 149.74
  Q 1418.45 112.26 1396.44 85.85
  C 1379.33 65.32 1354.91 53.60 1328.22 54.16
  C 1303.62 54.68 1280.31 66.15 1264.42 84.67
  Q 1241.61 111.28 1241.14 147.52
  Q 1240.84 170.27 1241.03 220.87
  A 0.74 0.73 -90.0 0 1 1240.30 221.61
  L 828.50 221.61
  A 0.99 0.99 0.0 0 1 827.51 220.62
  Q 827.55 157.09 827.46 147.02
  C 827.23 121.83 817.68 96.88 799.34 79.19
  Q 785.91 66.23 770.43 60.16
  C 735.60 46.50 697.60 56.65 673.15 84.60
  C 657.88 102.07 650.03 125.18 650.04 148.51
  Q 650.07 204.67 649.99 220.67
  A 0.98 0.98 0.0 0 1 649.01 221.64
  L 533.09 221.64
  A 1.09 1.09 0.0 0 1 532.00 220.56
  Q 531.79 183.00 531.99 163.28
  Q 532.22 140.07 530.50 130.83
  C 524.44 98.46 503.61 70.77 473.10 59.39
  C 434.35 44.93 391.38 61.09 369.63 95.62
  C 358.34 113.54 354.37 131.86 354.38 152.25
  Q 354.39 164.24 354.47 220.79
  A 0.80 0.79 -90.0 0 1 353.68 221.59
  L 237.78 221.59
  A 1.03 1.03 0.0 0 1 236.75 220.57
  Q 236.55 192.78 236.56 148.02
  C 236.56 120.84 224.87 93.11 203.98 75.24
  C 156.61 34.69 87.66 55.57 65.60 112.02
  Q 59.08 128.69 59.06 148.75
  Q 59.03 185.16 59.07 220.92
  A 0.75 0.75 0.0 0 1 58.32 221.67
  L 0.00 221.61"
/>
<path stroke="#fdcdd5" vector-effect="non-scaling-stroke" d="
  M 1773.00 224.71
  C 1709.46 224.81 1657.62 268.18 1636.75 326.46
  Q 1632.79 337.50 1630.74 349.80
  Q 1628.18 365.05 1628.18 373.75
  Q 1628.18 426.16 1627.94 438.50
  Q 1627.90 440.50 1627.88 442.26
  A 0.94 0.94 0.0 0 0 1628.82 443.21
  L 1773.00 443.26"
/>
<path stroke="#fdcdd5" vector-effect="non-scaling-stroke" d="
  M 1773.00 689.78
  Q 1734.88 690.55 1702.78 711.05
  C 1658.08 739.61 1632.16 788.58 1631.16 841.54
  Q 1630.75 863.70 1631.06 886.00
  A 0.60 0.59 -0.5 0 0 1631.66 886.58
  L 1773.00 886.53"
/>
<path stroke="#fdcdd5" vector-effect="non-scaling-stroke" d="
  M 1773.00 1133.01
  Q 1736.27 1133.62 1705.10 1152.59
  C 1658.76 1180.80 1631.51 1231.42 1630.92 1285.25
  Q 1630.70 1305.47 1630.81 1329.16
  A 0.58 0.58 0.0 0 0 1631.39 1329.73
  L 1773.00 1329.71"
/>
<path stroke="#fdcdd5" vector-effect="non-scaling-stroke" d="
  M 1773.00 1576.42
  Q 1736.90 1576.94 1706.57 1594.56
  Q 1675.50 1612.62 1655.87 1643.30
  Q 1637.50 1672.00 1632.37 1706.42
  Q 1630.74 1717.38 1630.69 1739.66
  Q 1630.65 1756.33 1630.81 1773.00"
/>
<path stroke="#fdcdd5" vector-effect="non-scaling-stroke" d="
  M 1471.82 1773.00
  Q 1472.12 1742.36 1471.85 1726.25
  Q 1471.30 1692.14 1455.90 1659.81
  Q 1439.42 1625.22 1408.15 1602.37
  C 1362.57 1569.05 1301.62 1567.74 1254.77 1600.00
  C 1213.75 1628.25 1190.05 1673.74 1187.74 1723.11
  Q 1187.58 1726.57 1187.58 1748.01
  Q 1187.58 1760.51 1187.69 1773.00"
/>
<path stroke="#fdcdd5" vector-effect="non-scaling-stroke" d="
  M 1028.56 1773.00
  Q 1028.78 1738.14 1028.62 1727.78
  C 1027.87 1678.65 1005.12 1632.08 965.49 1602.82
  C 937.14 1581.88 901.02 1572.43 865.74 1578.26
  C 794.05 1590.09 744.97 1657.05 744.38 1728.00
  Q 744.25 1744.22 744.45 1773.00"
/>
<path stroke="#fdcdd5" vector-effect="non-scaling-stroke" d="
  M 585.35 1773.00
  Q 585.70 1734.04 585.32 1722.50
  Q 584.18 1688.03 566.68 1654.51
  C 545.91 1614.71 507.53 1584.63 462.74 1578.00
  C 427.73 1572.82 392.78 1581.73 364.27 1602.80
  C 323.68 1632.81 301.07 1680.46 301.08 1730.55
  Q 301.09 1751.78 301.20 1773.00"
/>
<path stroke="#fdcdd5" vector-effect="non-scaling-stroke" d="
  M 142.33 1773.00
  Q 142.31 1757.58 142.32 1742.15
  Q 142.33 1719.66 141.34 1711.36
  Q 137.78 1681.81 123.72 1654.75
  Q 107.75 1624.02 78.45 1602.51
  Q 48.46 1580.50 11.62 1577.14
  Q 3.61 1576.41 0.00 1576.54"
/>
<path stroke="#fdcdd5" vector-effect="non-scaling-stroke" d="
  M 0.00 1329.69
  L 141.48 1329.72
  A 0.74 0.74 0.0 0 0 142.22 1328.98
  Q 142.16 1311.77 142.19 1300.71
  Q 142.25 1279.86 141.54 1272.46
  C 136.04 1215.29 100.74 1163.14 46.62 1141.87
  Q 24.97 1133.36 0.00 1133.09"
/>
<path stroke="#fdcdd5" vector-effect="non-scaling-stroke" d="
  M 0.00 886.54
  L 141.40 886.57
  A 0.67 0.67 0.0 0 0 142.07 885.89
  Q 141.98 871.54 141.94 843.50
  Q 141.92 826.01 137.42 806.89
  Q 124.62 752.56 80.70 718.39
  C 57.30 700.18 29.56 690.31 0.00 689.83"
/>
<path stroke="#fdcdd5" vector-effect="non-scaling-stroke" d="
  M 0.00 443.19
  L 144.50 443.24
  A 0.39 0.38 -0.7 0 0 144.89 442.85
  Q 144.63 417.10 144.85 393.23
  Q 145.07 368.89 143.37 355.85
  C 137.86 313.36 111.81 272.19 76.66 248.10
  Q 42.59 224.75 0.00 224.78"
/>
<path stroke="#fdcdd5" vector-effect="non-scaling-stroke" d="
  M 443.11 443.18
  Q 473.82 443.20 501.62 443.30
  A 0.88 0.87 -0.0 0 0 502.49 442.43
  Q 502.16 397.71 502.53 370.04
  C 503.05 331.35 526.22 295.39 563.97 283.16
  Q 592.22 274.01 619.50 284.75
  Q 646.63 295.43 661.14 318.34
  Q 676.84 343.11 676.96 374.27
  Q 677.13 417.48 676.97 442.19
  A 1.11 1.11 0.0 0 0 678.08 443.31
  L 735.57 443.31
  A 0.73 0.72 -1.1 0 0 736.30 442.56
  Q 736.07 437.04 736.07 436.25
  Q 736.30 401.83 736.09 377.52
  Q 735.78 341.78 719.84 309.12
  C 705.89 280.55 681.44 254.18 652.15 239.91
  Q 629.32 228.79 608.23 225.95
  C 562.76 219.83 516.57 236.98 485.50 270.56
  Q 445.79 313.48 443.37 372.95
  Q 443.35 373.37 443.14 373.37
  Q 442.94 373.37 442.92 372.95
  Q 440.56 313.48 400.89 270.52
  C 369.85 236.91 323.68 219.71 278.20 225.79
  Q 257.11 228.61 234.27 239.71
  C 204.97 253.95 180.49 280.30 166.51 308.85
  Q 150.54 341.50 150.20 377.24
  Q 149.96 401.55 150.16 435.97
  Q 150.16 436.76 149.92 442.28
  A 0.73 0.72 1.2 0 0 150.65 443.03
  L 208.14 443.08
  A 1.11 1.11 0.0 0 0 209.25 441.96
  Q 209.12 417.25 209.33 374.04
  Q 209.48 342.88 225.20 318.13
  Q 239.74 295.23 266.88 284.58
  Q 294.17 273.87 322.41 283.04
  C 360.15 295.31 383.28 331.29 383.76 369.98
  Q 384.11 397.65 383.73 442.37
  A 0.88 0.87 0.1 0 0 384.61 443.24
  Q 412.41 443.17 443.11 443.18"
/>
<path stroke="#fdcdd5" vector-effect="non-scaling-stroke" d="
  M 1329.92 443.14
  Q 1360.62 443.14 1388.42 443.22
  A 0.88 0.87 -0.1 0 0 1389.29 442.35
  Q 1388.93 397.64 1389.28 369.97
  C 1389.78 331.28 1412.92 295.31 1450.66 283.05
  Q 1478.91 273.88 1506.19 284.61
  Q 1533.33 295.27 1547.85 318.17
  Q 1563.57 342.93 1563.71 374.08
  Q 1563.90 417.29 1563.76 442.00
  A 1.11 1.11 0.0 0 0 1564.87 443.12
  L 1622.36 443.08
  A 0.73 0.72 -1.2 0 0 1623.09 442.33
  Q 1622.85 436.81 1622.85 436.02
  Q 1623.06 401.60 1622.84 377.29
  Q 1622.50 341.56 1606.54 308.91
  C 1592.57 280.35 1568.11 254.00 1538.81 239.75
  Q 1515.97 228.64 1494.88 225.82
  C 1449.41 219.73 1403.24 236.91 1372.19 270.50
  Q 1332.51 313.45 1330.13 372.92
  Q 1330.11 373.34 1329.91 373.34
  Q 1329.70 373.34 1329.68 372.92
  Q 1327.28 313.45 1287.58 270.52
  C 1256.53 236.93 1210.35 219.77 1164.88 225.87
  Q 1143.79 228.70 1120.95 239.82
  C 1091.66 254.08 1067.20 280.44 1053.25 309.00
  Q 1037.30 341.65 1036.97 377.39
  Q 1036.76 401.70 1036.98 436.12
  Q 1036.98 436.91 1036.74 442.43
  A 0.73 0.72 1.1 0 0 1037.47 443.18
  L 1094.96 443.20
  A 1.11 1.11 0.0 0 0 1096.07 442.08
  Q 1095.92 417.37 1096.10 374.16
  Q 1096.23 343.00 1111.94 318.24
  Q 1126.46 295.33 1153.59 284.66
  Q 1180.87 273.93 1209.11 283.09
  C 1246.86 295.33 1270.02 331.30 1270.52 369.99
  Q 1270.88 397.66 1270.54 442.37
  A 0.88 0.87 0.0 0 0 1271.41 443.24
  Q 1299.21 443.15 1329.92 443.14"
/>
<path stroke="#fdcdd5" vector-effect="non-scaling-stroke" d="
  M 741.93 443.20
  L 1031.19 443.20
  A 0.64 0.64 0.0 0 0 1031.83 442.56
  L 1031.83 381.00
  A 156.28 145.27 90.0 0 0 886.56 224.72
  A 156.28 145.27 90.0 0 0 741.29 381.00
  L 741.29 442.56
  A 0.64 0.64 0.0 0 0 741.93 443.20"
/>
<path stroke="#fdcdd5" vector-effect="non-scaling-stroke" d="
  M 276.54 763.18
  A 0.52 0.52 0.0 0 0 277.55 763.35
  Q 284.09 743.62 295.21 728.41
  Q 302.00 719.12 313.38 707.13
  C 327.58 692.18 344.18 679.68 362.61 670.89
  A 1.84 1.82 77.6 0 0 363.65 669.25
  Q 363.78 644.13 363.44 623.76
  C 362.82 586.27 350.96 551.48 327.47 522.26
  C 305.41 494.82 275.60 475.88 240.69 470.29
  C 208.99 465.22 176.54 473.38 149.74 490.84
  Q 130.79 503.19 115.12 522.76
  Q 86.08 559.03 80.74 606.26
  Q 79.54 616.84 79.64 635.28
  Q 79.69 644.44 79.66 664.34
  A 0.57 0.57 0.0 0 0 80.23 664.91
  L 276.27 664.91
  A 0.27 0.27 0.0 0 1 276.54 665.18
  L 276.54 763.18"
/>
<path stroke="#fdcdd5" vector-effect="non-scaling-stroke" d="
  M 720.23 763.18
  A 0.36 0.36 0.0 0 0 720.88 763.12
  Q 725.06 751.12 730.85 740.25
  Q 735.21 732.04 745.28 720.02
  Q 753.89 709.73 764.36 699.33
  C 768.82 694.89 774.94 689.84 778.85 687.10
  Q 791.57 678.20 806.19 670.83
  A 1.32 1.30 -13.2 0 0 806.91 669.68
  Q 807.00 649.43 806.68 623.59
  Q 805.92 562.86 766.55 517.30
  C 739.31 485.78 699.50 466.45 658.02 469.05
  Q 620.37 471.41 589.41 493.44
  C 548.97 522.21 524.12 569.99 523.06 620.03
  Q 522.51 646.02 522.79 669.23
  A 1.92 1.91 -77.1 0 0 523.83 670.90
  C 532.44 675.26 540.71 679.40 548.30 685.16
  C 554.48 689.86 559.75 693.26 564.43 698.29
  Q 568.04 702.19 569.79 703.82
  Q 580.91 714.22 591.35 728.45
  Q 602.96 744.28 609.46 763.62
  A 0.52 0.52 0.0 0 0 610.46 763.52
  Q 610.63 762.06 610.57 760.27
  Q 609.64 732.08 610.29 702.75
  Q 610.75 682.24 610.31 665.84
  A 0.86 0.86 0.0 0 1 611.17 664.95
  L 719.83 664.95
  A 0.42 0.41 -90.0 0 1 720.24 665.37
  Q 720.08 689.52 720.36 722.62
  C 720.48 736.44 720.25 745.47 720.12 762.13
  Q 720.11 762.97 720.23 763.18"
/>
<path stroke="#fdcdd5" vector-effect="non-scaling-stroke" d="
  M 1163.47 763.11
  A 0.36 0.36 0.0 0 0 1164.12 763.05
  Q 1168.30 751.06 1174.09 740.19
  Q 1178.45 731.98 1188.52 719.97
  Q 1197.13 709.68 1207.60 699.28
  C 1212.06 694.84 1218.18 689.79 1222.08 687.06
  Q 1234.80 678.16 1249.42 670.79
  A 1.32 1.30 -13.2 0 0 1250.14 669.64
  Q 1250.23 649.40 1249.91 623.56
  Q 1249.16 562.85 1209.80 517.30
  C 1182.57 485.78 1142.77 466.46 1101.30 469.05
  Q 1063.66 471.41 1032.70 493.43
  C 992.27 522.19 967.43 569.96 966.36 619.99
  Q 965.81 645.97 966.09 669.17
  A 1.91 1.90 -77.1 0 0 967.13 670.84
  C 975.74 675.20 984.00 679.34 991.59 685.10
  C 997.77 689.80 1003.04 693.20 1007.72 698.23
  Q 1011.33 702.13 1013.08 703.76
  Q 1024.19 714.16 1034.63 728.38
  Q 1046.23 744.21 1052.73 763.55
  A 0.52 0.51 -50.7 0 0 1053.73 763.45
  Q 1053.90 761.99 1053.84 760.20
  Q 1052.91 732.01 1053.57 702.69
  Q 1054.03 682.19 1053.59 665.79
  A 0.86 0.86 0.0 0 1 1054.45 664.90
  L 1163.08 664.91
  A 0.42 0.41 -90.0 0 1 1163.49 665.33
  Q 1163.33 689.47 1163.61 722.56
  C 1163.73 736.38 1163.50 745.41 1163.36 762.06
  Q 1163.35 762.90 1163.47 763.11"
/>
<path stroke="#fdcdd5" vector-effect="non-scaling-stroke" d="
  M 1496.90 764.03
  Q 1497.13 763.58 1497.12 762.98
  C 1496.72 737.10 1496.85 715.24 1496.94 665.59
  A 0.68 0.68 0.0 0 1 1497.62 664.91
  L 1692.77 664.91
  A 0.58 0.58 0.0 0 0 1693.35 664.33
  Q 1693.37 632.24 1693.19 625.75
  Q 1692.72 608.65 1691.54 600.70
  Q 1684.14 550.95 1650.97 514.75
  C 1630.87 492.82 1606.45 477.96 1577.55 471.69
  C 1532.26 461.85 1486.28 478.29 1454.76 511.72
  Q 1409.96 559.21 1409.52 624.53
  Q 1409.28 659.39 1409.39 669.53
  A 1.56 1.56 0.0 0 0 1410.27 670.92
  Q 1428.09 679.55 1443.22 691.54
  C 1454.25 700.27 1459.70 706.93 1471.02 719.74
  Q 1484.44 734.91 1492.29 753.70
  Q 1494.43 758.81 1496.50 764.01
  A 0.22 0.22 0.0 0 0 1496.90 764.03"
/>
<path stroke="#fdcdd5" vector-effect="non-scaling-stroke" d="
  M 886.51 886.51
  Q 1023.59 886.52 1027.83 886.56
  A 0.73 0.73 0.0 0 0 1028.56 885.82
  Q 1028.40 870.31 1028.47 844.75
  C 1028.55 818.05 1022.38 792.31 1009.83 768.91
  Q 1005.55 760.94 1001.78 755.04
  Q 988.80 734.69 968.58 719.65
  Q 958.37 712.04 950.85 707.39
  C 932.48 696.01 908.06 689.99 886.52 689.99
  C 864.98 689.99 840.56 696.01 822.19 707.39
  Q 814.67 712.03 804.46 719.64
  Q 784.24 734.68 771.26 755.03
  Q 767.49 760.93 763.21 768.90
  C 750.65 792.30 744.48 818.04 744.56 844.74
  Q 744.63 870.30 744.47 885.81
  A 0.73 0.73 0.0 0 0 745.20 886.55
  Q 749.44 886.51 886.51 886.51"
/>
<path stroke="#fdcdd5" vector-effect="non-scaling-stroke" d="
  M 1188.30 886.54
  L 1471.28 886.54
  A 0.71 0.71 0.0 0 0 1471.99 885.83
  L 1471.99 847.45
  A 157.31 142.10 90.0 0 0 1329.89 690.14
  L 1329.69 690.14
  A 157.31 142.10 90.0 0 0 1187.59 847.45
  L 1187.59 885.83
  A 0.71 0.71 0.0 0 0 1188.30 886.54"
/>
<path stroke="#fdcdd5" vector-effect="non-scaling-stroke" d="
  M 301.98 886.79
  L 584.72 886.29
  A 0.83 0.83 0.0 0 0 585.55 885.46
  L 585.48 847.23
  A 157.34 142.12 89.9 0 0 443.09 690.14
  L 442.93 690.14
  A 157.34 142.12 89.9 0 0 301.08 847.73
  L 301.15 885.96
  A 0.83 0.83 0.0 0 0 301.98 886.79"
/>
<path stroke="#fdcdd5" vector-effect="non-scaling-stroke" d="
  M 221.62 1108.06
  Q 253.22 1108.07 256.14 1107.98
  Q 258.13 1107.92 259.35 1109.36
  Q 273.85 1126.60 275.70 1149.57
  C 277.13 1167.31 276.29 1185.71 276.10 1205.38
  A 0.28 0.27 75.0 0 0 276.51 1205.63
  Q 276.95 1205.37 277.23 1204.57
  C 282.94 1188.26 291.12 1174.37 302.99 1160.86
  Q 312.96 1149.49 319.78 1142.88
  C 332.29 1130.74 347.14 1121.31 362.91 1113.54
  A 1.94 1.91 76.4 0 0 363.98 1111.76
  Q 363.70 1102.20 363.86 1080.08
  Q 364.00 1059.19 362.71 1048.32
  C 354.21 976.89 296.56 912.16 221.69 912.13
  C 146.81 912.11 89.12 976.80 80.57 1048.22
  Q 79.27 1059.09 79.40 1079.98
  Q 79.55 1102.11 79.26 1111.67
  A 1.94 1.91 -76.4 0 0 80.33 1113.45
  C 96.09 1121.23 110.93 1130.66 123.44 1142.81
  Q 130.25 1149.43 140.22 1160.80
  C 152.07 1174.32 160.24 1188.21 165.95 1204.53
  Q 166.23 1205.33 166.67 1205.59
  A 0.28 0.27 -75.0 0 0 167.08 1205.35
  C 166.90 1185.68 166.07 1167.28 167.52 1149.54
  Q 169.38 1126.57 183.89 1109.33
  Q 185.11 1107.89 187.10 1107.95
  Q 190.02 1108.05 221.62 1108.06"
/>
<path stroke="#fdcdd5" vector-effect="non-scaling-stroke" d="
  M 664.92 1108.10
  Q 696.52 1108.10 699.44 1108.01
  Q 701.43 1107.95 702.65 1109.39
  Q 717.15 1126.63 719.00 1149.61
  C 720.44 1167.35 719.60 1185.75 719.41 1205.42
  A 0.28 0.27 75.0 0 0 719.82 1205.66
  Q 720.26 1205.40 720.54 1204.60
  C 726.25 1188.29 734.44 1174.40 746.30 1160.89
  Q 756.27 1149.52 763.09 1142.91
  C 775.60 1130.77 790.45 1121.33 806.22 1113.56
  A 1.94 1.91 76.4 0 0 807.29 1111.78
  Q 807.01 1102.22 807.17 1080.10
  Q 807.31 1059.21 806.01 1048.34
  C 797.50 976.91 739.85 912.17 664.96 912.16
  C 590.08 912.14 532.40 976.85 523.85 1048.27
  Q 522.55 1059.14 522.68 1080.04
  Q 522.83 1102.16 522.55 1111.72
  A 1.94 1.91 -76.4 0 0 523.62 1113.50
  C 539.38 1121.28 554.23 1130.72 566.73 1142.86
  Q 573.55 1149.48 583.52 1160.85
  C 595.37 1174.37 603.55 1188.26 609.25 1204.58
  Q 609.53 1205.38 609.97 1205.64
  A 0.28 0.27 -75.0 0 0 610.38 1205.40
  C 610.20 1185.73 609.37 1167.32 610.82 1149.58
  Q 612.68 1126.61 627.18 1109.37
  Q 628.41 1107.93 630.40 1107.99
  Q 633.32 1108.09 664.92 1108.10"
/>
<path stroke="#fdcdd5" vector-effect="non-scaling-stroke" d="
  M 1108.20 1108.09
  Q 1139.79 1108.10 1142.72 1108.01
  Q 1144.71 1107.95 1145.93 1109.39
  Q 1160.43 1126.63 1162.28 1149.60
  C 1163.71 1167.34 1162.87 1185.74 1162.68 1205.41
  A 0.28 0.27 75.0 0 0 1163.09 1205.65
  Q 1163.53 1205.39 1163.81 1204.59
  C 1169.52 1188.28 1177.70 1174.39 1189.57 1160.88
  Q 1199.54 1149.52 1206.36 1142.91
  C 1218.87 1130.77 1233.72 1121.34 1249.48 1113.57
  A 1.94 1.91 76.4 0 0 1250.55 1111.79
  Q 1250.27 1102.23 1250.43 1080.11
  Q 1250.57 1059.22 1249.28 1048.35
  C 1240.77 976.93 1183.13 912.20 1108.25 912.18
  C 1033.38 912.16 975.70 976.86 967.15 1048.28
  Q 965.85 1059.14 965.98 1080.03
  Q 966.13 1102.15 965.85 1111.71
  A 1.94 1.91 -76.4 0 0 966.92 1113.49
  C 982.68 1121.27 997.52 1130.71 1010.03 1142.85
  Q 1016.84 1149.47 1026.81 1160.84
  C 1038.66 1174.36 1046.83 1188.25 1052.54 1204.56
  Q 1052.82 1205.36 1053.26 1205.62
  A 0.28 0.27 -75.0 0 0 1053.67 1205.38
  C 1053.49 1185.71 1052.65 1167.31 1054.10 1149.57
  Q 1055.96 1126.60 1070.47 1109.37
  Q 1071.69 1107.93 1073.68 1107.99
  Q 1076.61 1108.09 1108.20 1108.09"
/>
<path stroke="#fdcdd5" vector-effect="non-scaling-stroke" d="
  M 1551.48 1108.04
  Q 1583.08 1108.04 1586.00 1107.95
  Q 1587.99 1107.89 1589.21 1109.33
  Q 1603.71 1126.57 1605.56 1149.54
  C 1607.00 1167.28 1606.16 1185.68 1605.97 1205.35
  A 0.28 0.27 75.0 0 0 1606.38 1205.59
  Q 1606.82 1205.33 1607.10 1204.53
  C 1612.81 1188.22 1620.99 1174.33 1632.85 1160.82
  Q 1642.82 1149.45 1649.64 1142.84
  C 1662.15 1130.70 1677.00 1121.27 1692.76 1113.50
  A 1.94 1.91 76.4 0 0 1693.83 1111.72
  Q 1693.55 1102.16 1693.71 1080.04
  Q 1693.85 1059.15 1692.56 1048.28
  C 1684.04 976.86 1626.39 912.14 1551.52 912.12
  C 1476.65 912.11 1418.97 976.81 1410.43 1048.23
  Q 1409.13 1059.09 1409.26 1079.99
  Q 1409.41 1102.11 1409.13 1111.66
  A 1.94 1.91 -76.4 0 0 1410.20 1113.45
  C 1425.96 1121.22 1440.80 1130.66 1453.31 1142.80
  Q 1460.13 1149.41 1470.09 1160.79
  C 1481.95 1174.30 1490.12 1188.20 1495.82 1204.51
  Q 1496.10 1205.31 1496.54 1205.57
  A 0.28 0.27 -75.0 0 0 1496.95 1205.33
  C 1496.77 1185.66 1495.94 1167.26 1497.39 1149.52
  Q 1499.24 1126.55 1513.75 1109.32
  Q 1514.97 1107.88 1516.96 1107.94
  Q 1519.89 1108.03 1551.48 1108.04"
/>
<path stroke="#fdcdd5" vector-effect="non-scaling-stroke" d="
  M 302.00 1329.72
  L 584.52 1329.72
  A 1.05 1.05 0.0 0 0 585.57 1328.67
  L 585.57 1290.57
  A 157.25 142.21 -90.0 0 0 443.36 1133.32
  L 443.16 1133.32
  A 157.25 142.21 -90.0 0 0 300.95 1290.57
  L 300.95 1328.67
  A 1.05 1.05 0.0 0 0 302.00 1329.72"
/>
<path stroke="#fdcdd5" vector-effect="non-scaling-stroke" d="
  M 886.57 1329.74
  Q 1023.76 1329.70 1028.01 1329.74
  A 0.73 0.73 0.0 0 0 1028.74 1329.00
  Q 1028.57 1313.48 1028.63 1287.90
  C 1028.71 1261.17 1022.52 1235.41 1009.96 1212.00
  Q 1005.67 1204.02 1001.89 1198.12
  Q 988.90 1177.75 968.66 1162.71
  Q 958.43 1155.09 950.91 1150.44
  C 932.52 1139.06 908.07 1133.04 886.52 1133.04
  C 864.96 1133.05 840.52 1139.08 822.13 1150.48
  Q 814.61 1155.13 804.39 1162.75
  Q 784.16 1177.81 771.17 1198.18
  Q 767.40 1204.08 763.12 1212.06
  C 750.56 1235.48 744.39 1261.25 744.48 1287.97
  Q 744.56 1313.55 744.40 1329.07
  A 0.73 0.73 0.0 0 0 745.13 1329.81
  Q 749.38 1329.77 886.57 1329.74"
/>
<path stroke="#fdcdd5" vector-effect="non-scaling-stroke" d="
  M 1188.43 1329.72
  L 1471.15 1329.72
  A 0.93 0.93 0.0 0 0 1472.08 1328.79
  L 1472.08 1290.18
  A 156.82 142.21 90.0 0 0 1329.87 1133.36
  L 1329.71 1133.36
  A 156.82 142.21 90.0 0 0 1187.50 1290.18
  L 1187.50 1328.79
  A 0.93 0.93 0.0 0 0 1188.43 1329.72"
/>
<path stroke="#fdcdd5" vector-effect="non-scaling-stroke" d="
  M 1496.04 1642.40
  Q 1496.22 1641.28 1496.20 1639.50
  Q 1495.97 1606.29 1496.03 1512.24
  Q 1496.04 1495.95 1497.69 1488.88
  Q 1501.35 1473.11 1511.42 1461.23
  C 1526.76 1443.13 1551.41 1436.80 1572.57 1446.72
  C 1594.14 1456.84 1607.05 1479.74 1607.07 1503.31
  Q 1607.12 1560.35 1607.26 1617.75
  Q 1607.28 1630.16 1607.08 1641.26
  A 0.46 0.46 0.0 0 0 1607.97 1641.43
  Q 1613.17 1627.34 1620.85 1616.64
  Q 1626.22 1609.15 1640.40 1593.66
  Q 1651.09 1581.98 1667.22 1571.23
  Q 1679.76 1562.87 1689.27 1558.32
  Q 1691.26 1557.37 1693.33 1556.05
  A 1.15 1.11 75.0 0 0 1693.85 1555.11
  Q 1694.13 1535.55 1693.51 1504.87
  Q 1692.73 1466.28 1673.47 1432.33
  C 1643.36 1379.24 1588.00 1345.15 1525.82 1358.10
  Q 1489.21 1365.73 1461.62 1391.44
  Q 1445.62 1406.35 1433.39 1425.72
  Q 1409.74 1463.17 1409.26 1508.04
  Q 1409.01 1530.51 1409.14 1555.03
  A 1.60 1.60 0.0 0 0 1410.02 1556.44
  C 1416.63 1559.75 1425.15 1563.65 1431.79 1568.34
  Q 1444.06 1577.01 1455.45 1587.30
  C 1462.18 1593.37 1469.71 1599.94 1474.94 1606.79
  Q 1487.46 1623.19 1495.54 1642.46
  A 0.26 0.26 0.0 0 0 1496.04 1642.40"
/>
<path stroke="#fdcdd5" vector-effect="non-scaling-stroke" d="
  M 165.91 1641.95
  Q 165.96 1641.83 165.97 1641.50
  Q 166.19 1635.33 166.02 1508.25
  Q 166.01 1500.02 166.81 1494.30
  C 171.16 1463.13 197.70 1437.37 230.48 1442.90
  C 253.95 1446.85 270.80 1467.66 275.60 1489.88
  C 277.16 1497.11 277.06 1504.09 277.07 1512.78
  Q 277.13 1600.91 277.04 1642.40
  A 0.33 0.33 0.0 0 0 277.58 1642.65
  Q 277.95 1642.34 278.06 1642.06
  Q 289.35 1614.56 309.78 1594.78
  C 325.85 1579.22 342.87 1566.09 363.22 1556.45
  A 1.54 1.52 77.6 0 0 364.10 1555.06
  Q 364.23 1527.06 363.91 1506.81
  C 363.11 1456.88 338.13 1410.63 298.44 1380.91
  C 261.36 1353.14 211.04 1347.38 168.52 1367.06
  C 137.65 1381.34 113.77 1405.95 97.81 1435.66
  Q 83.90 1461.55 80.51 1491.33
  Q 79.17 1503.10 79.32 1523.21
  Q 79.41 1535.66 79.18 1555.03
  A 1.49 1.48 -76.1 0 0 80.00 1556.39
  Q 89.95 1561.40 99.67 1567.33
  Q 105.00 1570.58 108.28 1573.04
  Q 114.52 1577.73 116.51 1579.15
  Q 122.99 1583.75 128.20 1588.93
  C 143.89 1604.53 157.72 1621.18 165.57 1641.95
  A 0.18 0.18 0.0 0 0 165.91 1641.95"
/>
<path stroke="#fdcdd5" vector-effect="non-scaling-stroke" d="
  M 720.59 1642.22
  A 0.21 0.20 -31.8 0 0 720.98 1642.31
  Q 721.48 1641.26 722.71 1638.46
  C 728.42 1625.42 735.96 1613.33 745.99 1602.51
  Q 755.63 1592.12 756.90 1590.89
  Q 778.74 1569.86 806.28 1556.61
  A 2.43 2.42 -14.7 0 0 807.64 1554.28
  Q 807.36 1549.73 807.38 1547.00
  Q 807.62 1521.85 806.89 1502.53
  Q 805.33 1460.99 783.18 1426.08
  C 749.43 1372.88 693.69 1343.51 630.63 1360.16
  Q 614.85 1364.32 600.83 1372.65
  Q 563.59 1394.78 542.44 1433.29
  Q 527.92 1459.71 524.53 1485.43
  Q 522.65 1499.71 522.70 1520.14
  Q 522.76 1540.17 522.52 1554.71
  A 2.07 2.06 14.3 0 0 523.63 1556.57
  Q 536.54 1563.29 550.53 1571.72
  Q 552.44 1572.88 553.55 1574.01
  A 1.41 0.04 45.9 0 0 554.29 1574.73
  Q 562.36 1581.16 565.96 1584.07
  Q 571.82 1588.81 576.69 1594.35
  Q 588.24 1607.49 593.17 1613.81
  C 599.50 1621.93 602.86 1629.17 607.37 1638.24
  A 6.90 6.79 24.6 0 1 607.82 1639.42
  Q 608.41 1641.52 609.12 1642.74
  A 0.43 0.43 0.0 0 0 609.92 1642.51
  Q 609.62 1632.42 609.64 1620.00
  Q 609.76 1523.90 609.63 1512.75
  Q 609.48 1500.09 610.68 1492.91
  C 615.38 1464.75 638.15 1439.96 668.38 1442.13
  C 696.40 1444.14 716.47 1468.36 720.02 1495.06
  Q 720.62 1499.54 720.63 1517.87
  Q 720.68 1585.59 720.59 1642.22"
/>
<path stroke="#fdcdd5" vector-effect="non-scaling-stroke" d="
  M 1108.14 1442.01
  C 1122.57 1442.01 1135.92 1448.14 1145.82 1458.67
  Q 1163.55 1477.54 1163.56 1504.32
  Q 1163.62 1623.76 1163.56 1641.69
  A 0.47 0.47 0.0 0 0 1164.46 1641.86
  Q 1171.00 1625.11 1181.17 1611.96
  Q 1187.55 1603.71 1200.78 1590.21
  C 1214.12 1576.59 1232.36 1564.70 1249.53 1556.52
  A 1.89 1.88 -13.2 0 0 1250.61 1554.79
  Q 1250.40 1538.67 1250.43 1518.13
  C 1250.46 1498.10 1249.05 1481.12 1243.89 1464.29
  C 1231.41 1423.58 1202.56 1387.32 1163.99 1368.20
  C 1146.86 1359.71 1126.97 1355.43 1108.14 1355.43
  C 1089.30 1355.43 1069.42 1359.71 1052.28 1368.20
  C 1013.71 1387.32 984.86 1423.58 972.38 1464.29
  C 967.22 1481.12 965.81 1498.10 965.84 1518.13
  Q 965.87 1538.67 965.66 1554.79
  A 1.89 1.88 13.2 0 0 966.74 1556.52
  C 983.91 1564.70 1002.15 1576.59 1015.49 1590.21
  Q 1028.72 1603.71 1035.10 1611.96
  Q 1045.27 1625.11 1051.81 1641.86
  A 0.47 0.47 0.0 0 0 1052.71 1641.69
  Q 1052.65 1623.76 1052.71 1504.32
  Q 1052.72 1477.54 1070.45 1458.67
  C 1080.35 1448.14 1093.70 1442.01 1108.14 1442.01"
/>
</g>
<path fill="#fbf1ea" d="
  M 140.01 0.00
  Q 98.99 2.24 65.91 26.17
  C 26.44 54.72 3.38 96.61 0.00 145.51
  L 0.00 0.00
  L 140.01 0.00
  Z"
/>
<path fill="#fea9c0" d="
  M 154.79 0.00
  Q 206.79 3.13 244.65 38.37
  Q 284.31 75.28 293.51 129.13
  C 294.49 134.84 294.93 142.16 295.40 147.75
  A 0.16 0.16 0.0 0 0 295.57 147.90
  L 295.58 147.90
  A 0.15 0.14 -87.8 0 0 295.72 147.76
  C 298.04 93.38 328.20 43.54 375.61 17.08
  Q 403.19 1.68 436.22 0.00
  L 450.22 0.00
  Q 485.84 1.70 515.92 20.07
  Q 546.06 38.47 565.24 67.99
  Q 588.80 104.26 590.63 147.62
  L 590.63 147.63
  Q 590.63 147.53 590.64 147.44
  Q 591.08 144.40 591.31 141.31
  C 595.85 79.84 640.28 21.69 700.48 5.12
  Q 715.72 0.92 731.76 0.00
  L 745.22 0.00
  Q 782.02 1.67 811.57 19.90
  C 855.21 46.84 884.36 94.34 886.24 146.80
  A 0.02 0.02 0.0 0 0 886.28 146.82
  Q 886.30 146.81 886.32 146.80
  A 0.26 0.13 -27.2 0 0 886.42 146.66
  Q 887.12 138.27 888.21 130.98
  C 895.07 84.79 922.35 43.68 962.51 19.53
  C 982.66 7.42 1003.51 1.54 1026.97 0.00
  L 1040.48 0.00
  C 1082.32 2.05 1119.13 21.43 1145.70 53.53
  Q 1179.52 94.40 1182.22 147.70
  A 0.03 0.02 65.3 0 0 1182.26 147.72
  Q 1182.28 147.70 1182.30 147.69
  A 0.28 0.12 -30.0 0 0 1182.41 147.54
  C 1183.17 141.17 1183.46 134.12 1184.64 127.34
  Q 1190.51 93.64 1209.84 65.08
  C 1229.39 36.22 1260.12 12.50 1294.43 4.18
  Q 1307.28 1.06 1322.25 0.00
  L 1336.20 0.00
  Q 1373.83 1.70 1404.71 21.26
  C 1447.85 48.58 1475.07 96.06 1477.51 147.24
  Q 1477.51 147.31 1477.57 147.35
  A 0.10 0.09 20.8 0 0 1477.72 147.29
  Q 1480.08 97.87 1510.05 58.53
  C 1531.44 30.45 1562.58 9.16 1597.62 2.66
  Q 1607.75 0.78 1618.00 0.00
  L 1631.72 0.00
  Q 1669.92 1.66 1700.94 21.55
  C 1744.03 49.17 1771.09 96.69 1773.00 148.13
  L 1773.00 221.59
  L 1714.94 221.62
  A 0.89 0.89 0.0 0 1 1714.05 220.73
  Q 1714.16 165.88 1714.03 147.51
  Q 1713.80 115.86 1695.91 90.84
  C 1682.85 72.57 1662.67 59.40 1640.59 55.42
  C 1603.70 48.77 1566.02 67.81 1548.41 100.91
  Q 1536.36 123.56 1536.36 149.75
  Q 1536.37 208.92 1536.37 220.80
  A 0.79 0.78 -90.0 0 1 1535.59 221.59
  L 1419.38 221.59
  A 0.82 0.81 -90.0 0 1 1418.57 220.77
  Q 1418.59 175.68 1418.53 149.74
  Q 1418.45 112.26 1396.44 85.85
  C 1379.33 65.32 1354.91 53.60 1328.22 54.16
  C 1303.62 54.68 1280.31 66.15 1264.42 84.67
  Q 1241.61 111.28 1241.14 147.52
  Q 1240.84 170.27 1241.03 220.87
  A 0.74 0.73 -90.0 0 1 1240.30 221.61
  L 828.50 221.61
  A 0.99 0.99 0.0 0 1 827.51 220.62
  Q 827.55 157.09 827.46 147.02
  C 827.23 121.83 817.68 96.88 799.34 79.19
  Q 785.91 66.23 770.43 60.16
  C 735.60 46.50 697.60 56.65 673.15 84.60
  C 657.88 102.07 650.03 125.18 650.04 148.51
  Q 650.07 204.67 649.99 220.67
  A 0.98 0.98 0.0 0 1 649.01 221.64
  L 533.09 221.64
  A 1.09 1.09 0.0 0 1 532.00 220.56
  Q 531.79 183.00 531.99 163.28
  Q 532.22 140.07 530.50 130.83
  C 524.44 98.46 503.61 70.77 473.10 59.39
  C 434.35 44.93 391.38 61.09 369.63 95.62
  C 358.34 113.54 354.37 131.86 354.38 152.25
  Q 354.39 164.24 354.47 220.79
  A 0.80 0.79 -90.0 0 1 353.68 221.59
  L 237.78 221.59
  A 1.03 1.03 0.0 0 1 236.75 220.57
  Q 236.55 192.78 236.56 148.02
  C 236.56 120.84 224.87 93.11 203.98 75.24
  C 156.61 34.69 87.66 55.57 65.60 112.02
  Q 59.08 128.69 59.06 148.75
  Q 59.03 185.16 59.07 220.92
  A 0.75 0.75 0.0 0 1 58.32 221.67
  L 0.00 221.61
  L 0.00 145.51
  C 3.38 96.61 26.44 54.72 65.91 26.17
  Q 98.99 2.24 140.01 0.00
  L 154.79 0.00
  Z"
/>
<path fill="#fbf1ea" d="
  M 436.22 0.00
  Q 403.19 1.68 375.61 17.08
  C 328.20 43.54 298.04 93.38 295.72 147.76
  A 0.15 0.14 -87.8 0 1 295.58 147.90
  L 295.57 147.90
  A 0.16 0.16 0.0 0 1 295.40 147.75
  C 294.93 142.16 294.49 134.84 293.51 129.13
  Q 284.31 75.28 244.65 38.37
  Q 206.79 3.13 154.79 0.00
  L 436.22 0.00
  Z"
/>
<path fill="#fbf1ea" d="
  M 731.76 0.00
  Q 715.72 0.92 700.48 5.12
  C 640.28 21.69 595.85 79.84 591.31 141.31
  Q 591.08 144.40 590.64 147.44
  Q 590.63 147.53 590.63 147.63
  L 590.63 147.62
  Q 588.80 104.26 565.24 67.99
  Q 546.06 38.47 515.92 20.07
  Q 485.84 1.70 450.22 0.00
  L 731.76 0.00
  Z"
/>
<path fill="#fbf1ea" d="
  M 1026.97 0.00
  C 1003.51 1.54 982.66 7.42 962.51 19.53
  C 922.35 43.68 895.07 84.79 888.21 130.98
  Q 887.12 138.27 886.42 146.66
  A 0.26 0.13 -27.2 0 1 886.32 146.80
  Q 886.30 146.81 886.28 146.82
  A 0.02 0.02 0.0 0 1 886.24 146.80
  C 884.36 94.34 855.21 46.84 811.57 19.90
  Q 782.02 1.67 745.22 0.00
  L 1026.97 0.00
  Z"
/>
<path fill="#fbf1ea" d="
  M 1322.25 0.00
  Q 1307.28 1.06 1294.43 4.18
  C 1260.12 12.50 1229.39 36.22 1209.84 65.08
  Q 1190.51 93.64 1184.64 127.34
  C 1183.46 134.12 1183.17 141.17 1182.41 147.54
  A 0.28 0.12 -30.0 0 1 1182.30 147.69
  Q 1182.28 147.70 1182.26 147.72
  A 0.03 0.02 65.3 0 1 1182.22 147.70
  Q 1179.52 94.40 1145.70 53.53
  C 1119.13 21.43 1082.32 2.05 1040.48 0.00
  L 1322.25 0.00
  Z"
/>
<path fill="#fbf1ea" d="
  M 1618.00 0.00
  Q 1607.75 0.78 1597.62 2.66
  C 1562.58 9.16 1531.44 30.45 1510.05 58.53
  Q 1480.08 97.87 1477.72 147.29
  A 0.10 0.09 20.8 0 1 1477.57 147.35
  Q 1477.51 147.31 1477.51 147.24
  C 1475.07 96.06 1447.85 48.58 1404.71 21.26
  Q 1373.83 1.70 1336.20 0.00
  L 1618.00 0.00
  Z"
/>
<path fill="#fbf1ea" d="
  M 1773.00 0.00
  L 1773.00 148.13
  C 1771.09 96.69 1744.03 49.17 1700.94 21.55
  Q 1669.92 1.66 1631.72 0.00
  L 1773.00 0.00
  Z"
/>
<path fill="#fbf1ea" d="
  M 1773.00 221.59
  L 1773.00 224.71
  C 1709.46 224.81 1657.62 268.18 1636.75 326.46
  Q 1632.79 337.50 1630.74 349.80
  Q 1628.18 365.05 1628.18 373.75
  Q 1628.18 426.16 1627.94 438.50
  Q 1627.90 440.50 1627.88 442.26
  A 0.94 0.94 0.0 0 0 1628.82 443.21
  L 1773.00 443.26
  L 1773.00 689.78
  Q 1734.88 690.55 1702.78 711.05
  C 1658.08 739.61 1632.16 788.58 1631.16 841.54
  Q 1630.75 863.70 1631.06 886.00
  A 0.60 0.59 -0.5 0 0 1631.66 886.58
  L 1773.00 886.53
  L 1773.00 1133.01
  Q 1736.27 1133.62 1705.10 1152.59
  C 1658.76 1180.80 1631.51 1231.42 1630.92 1285.25
  Q 1630.70 1305.47 1630.81 1329.16
  A 0.58 0.58 0.0 0 0 1631.39 1329.73
  L 1773.00 1329.71
  L 1773.00 1576.42
  Q 1736.90 1576.94 1706.57 1594.56
  Q 1675.50 1612.62 1655.87 1643.30
  Q 1637.50 1672.00 1632.37 1706.42
  Q 1630.74 1717.38 1630.69 1739.66
  Q 1630.65 1756.33 1630.81 1773.00
  L 1471.82 1773.00
  Q 1472.12 1742.36 1471.85 1726.25
  Q 1471.30 1692.14 1455.90 1659.81
  Q 1439.42 1625.22 1408.15 1602.37
  C 1362.57 1569.05 1301.62 1567.74 1254.77 1600.00
  C 1213.75 1628.25 1190.05 1673.74 1187.74 1723.11
  Q 1187.58 1726.57 1187.58 1748.01
  Q 1187.58 1760.51 1187.69 1773.00
  L 1028.56 1773.00
  Q 1028.78 1738.14 1028.62 1727.78
  C 1027.87 1678.65 1005.12 1632.08 965.49 1602.82
  C 937.14 1581.88 901.02 1572.43 865.74 1578.26
  C 794.05 1590.09 744.97 1657.05 744.38 1728.00
  Q 744.25 1744.22 744.45 1773.00
  L 585.35 1773.00
  Q 585.70 1734.04 585.32 1722.50
  Q 584.18 1688.03 566.68 1654.51
  C 545.91 1614.71 507.53 1584.63 462.74 1578.00
  C 427.73 1572.82 392.78 1581.73 364.27 1602.80
  C 323.68 1632.81 301.07 1680.46 301.08 1730.55
  Q 301.09 1751.78 301.20 1773.00
  L 142.33 1773.00
  Q 142.31 1757.58 142.32 1742.15
  Q 142.33 1719.66 141.34 1711.36
  Q 137.78 1681.81 123.72 1654.75
  Q 107.75 1624.02 78.45 1602.51
  Q 48.46 1580.50 11.62 1577.14
  Q 3.61 1576.41 0.00 1576.54
  L 0.00 1329.69
  L 141.48 1329.72
  A 0.74 0.74 0.0 0 0 142.22 1328.98
  Q 142.16 1311.77 142.19 1300.71
  Q 142.25 1279.86 141.54 1272.46
  C 136.04 1215.29 100.74 1163.14 46.62 1141.87
  Q 24.97 1133.36 0.00 1133.09
  L 0.00 886.54
  L 141.40 886.57
  A 0.67 0.67 0.0 0 0 142.07 885.89
  Q 141.98 871.54 141.94 843.50
  Q 141.92 826.01 137.42 806.89
  Q 124.62 752.56 80.70 718.39
  C 57.30 700.18 29.56 690.31 0.00 689.83
  L 0.00 443.19
  L 144.50 443.24
  A 0.39 0.38 -0.7 0 0 144.89 442.85
  Q 144.63 417.10 144.85 393.23
  Q 145.07 368.89 143.37 355.85
  C 137.86 313.36 111.81 272.19 76.66 248.10
  Q 42.59 224.75 0.00 224.78
  L 0.00 221.61
  L 58.32 221.67
  A 0.75 0.75 0.0 0 0 59.07 220.92
  Q 59.03 185.16 59.06 148.75
  Q 59.08 128.69 65.60 112.02
  C 87.66 55.57 156.61 34.69 203.98 75.24
  C 224.87 93.11 236.56 120.84 236.56 148.02
  Q 236.55 192.78 236.75 220.57
  A 1.03 1.03 0.0 0 0 237.78 221.59
  L 353.68 221.59
  A 0.80 0.79 -90.0 0 0 354.47 220.79
  Q 354.39 164.24 354.38 152.25
  C 354.37 131.86 358.34 113.54 369.63 95.62
  C 391.38 61.09 434.35 44.93 473.10 59.39
  C 503.61 70.77 524.44 98.46 530.50 130.83
  Q 532.22 140.07 531.99 163.28
  Q 531.79 183.00 532.00 220.56
  A 1.09 1.09 0.0 0 0 533.09 221.64
  L 649.01 221.64
  A 0.98 0.98 0.0 0 0 649.99 220.67
  Q 650.07 204.67 650.04 148.51
  C 650.03 125.18 657.88 102.07 673.15 84.60
  C 697.60 56.65 735.60 46.50 770.43 60.16
  Q 785.91 66.23 799.34 79.19
  C 817.68 96.88 827.23 121.83 827.46 147.02
  Q 827.55 157.09 827.51 220.62
  A 0.99 0.99 0.0 0 0 828.50 221.61
  L 1240.30 221.61
  A 0.74 0.73 90.0 0 0 1241.03 220.87
  Q 1240.84 170.27 1241.14 147.52
  Q 1241.61 111.28 1264.42 84.67
  C 1280.31 66.15 1303.62 54.68 1328.22 54.16
  C 1354.91 53.60 1379.33 65.32 1396.44 85.85
  Q 1418.45 112.26 1418.53 149.74
  Q 1418.59 175.68 1418.57 220.77
  A 0.82 0.81 90.0 0 0 1419.38 221.59
  L 1535.59 221.59
  A 0.79 0.78 -90.0 0 0 1536.37 220.80
  Q 1536.37 208.92 1536.36 149.75
  Q 1536.36 123.56 1548.41 100.91
  C 1566.02 67.81 1603.70 48.77 1640.59 55.42
  C 1662.67 59.40 1682.85 72.57 1695.91 90.84
  Q 1713.80 115.86 1714.03 147.51
  Q 1714.16 165.88 1714.05 220.73
  A 0.89 0.89 0.0 0 0 1714.94 221.62
  L 1773.00 221.59
  Z
  M 443.11 443.18
  Q 473.82 443.20 501.62 443.30
  A 0.88 0.87 -0.0 0 0 502.49 442.43
  Q 502.16 397.71 502.53 370.04
  C 503.05 331.35 526.22 295.39 563.97 283.16
  Q 592.22 274.01 619.50 284.75
  Q 646.63 295.43 661.14 318.34
  Q 676.84 343.11 676.96 374.27
  Q 677.13 417.48 676.97 442.19
  A 1.11 1.11 0.0 0 0 678.08 443.31
  L 735.57 443.31
  A 0.73 0.72 -1.1 0 0 736.30 442.56
  Q 736.07 437.04 736.07 436.25
  Q 736.30 401.83 736.09 377.52
  Q 735.78 341.78 719.84 309.12
  C 705.89 280.55 681.44 254.18 652.15 239.91
  Q 629.32 228.79 608.23 225.95
  C 562.76 219.83 516.57 236.98 485.50 270.56
  Q 445.79 313.48 443.37 372.95
  Q 443.35 373.37 443.14 373.37
  Q 442.94 373.37 442.92 372.95
  Q 440.56 313.48 400.89 270.52
  C 369.85 236.91 323.68 219.71 278.20 225.79
  Q 257.11 228.61 234.27 239.71
  C 204.97 253.95 180.49 280.30 166.51 308.85
  Q 150.54 341.50 150.20 377.24
  Q 149.96 401.55 150.16 435.97
  Q 150.16 436.76 149.92 442.28
  A 0.73 0.72 1.2 0 0 150.65 443.03
  L 208.14 443.08
  A 1.11 1.11 0.0 0 0 209.25 441.96
  Q 209.12 417.25 209.33 374.04
  Q 209.48 342.88 225.20 318.13
  Q 239.74 295.23 266.88 284.58
  Q 294.17 273.87 322.41 283.04
  C 360.15 295.31 383.28 331.29 383.76 369.98
  Q 384.11 397.65 383.73 442.37
  A 0.88 0.87 0.1 0 0 384.61 443.24
  Q 412.41 443.17 443.11 443.18
  Z
  M 1329.92 443.14
  Q 1360.62 443.14 1388.42 443.22
  A 0.88 0.87 -0.1 0 0 1389.29 442.35
  Q 1388.93 397.64 1389.28 369.97
  C 1389.78 331.28 1412.92 295.31 1450.66 283.05
  Q 1478.91 273.88 1506.19 284.61
  Q 1533.33 295.27 1547.85 318.17
  Q 1563.57 342.93 1563.71 374.08
  Q 1563.90 417.29 1563.76 442.00
  A 1.11 1.11 0.0 0 0 1564.87 443.12
  L 1622.36 443.08
  A 0.73 0.72 -1.2 0 0 1623.09 442.33
  Q 1622.85 436.81 1622.85 436.02
  Q 1623.06 401.60 1622.84 377.29
  Q 1622.50 341.56 1606.54 308.91
  C 1592.57 280.35 1568.11 254.00 1538.81 239.75
  Q 1515.97 228.64 1494.88 225.82
  C 1449.41 219.73 1403.24 236.91 1372.19 270.50
  Q 1332.51 313.45 1330.13 372.92
  Q 1330.11 373.34 1329.91 373.34
  Q 1329.70 373.34 1329.68 372.92
  Q 1327.28 313.45 1287.58 270.52
  C 1256.53 236.93 1210.35 219.77 1164.88 225.87
  Q 1143.79 228.70 1120.95 239.82
  C 1091.66 254.08 1067.20 280.44 1053.25 309.00
  Q 1037.30 341.65 1036.97 377.39
  Q 1036.76 401.70 1036.98 436.12
  Q 1036.98 436.91 1036.74 442.43
  A 0.73 0.72 1.1 0 0 1037.47 443.18
  L 1094.96 443.20
  A 1.11 1.11 0.0 0 0 1096.07 442.08
  Q 1095.92 417.37 1096.10 374.16
  Q 1096.23 343.00 1111.94 318.24
  Q 1126.46 295.33 1153.59 284.66
  Q 1180.87 273.93 1209.11 283.09
  C 1246.86 295.33 1270.02 331.30 1270.52 369.99
  Q 1270.88 397.66 1270.54 442.37
  A 0.88 0.87 0.0 0 0 1271.41 443.24
  Q 1299.21 443.15 1329.92 443.14
  Z
  M 741.93 443.20
  L 1031.19 443.20
  A 0.64 0.64 0.0 0 0 1031.83 442.56
  L 1031.83 381.00
  A 156.28 145.27 90.0 0 0 886.56 224.72
  A 156.28 145.27 90.0 0 0 741.29 381.00
  L 741.29 442.56
  A 0.64 0.64 0.0 0 0 741.93 443.20
  Z
  M 276.54 763.18
  A 0.52 0.52 0.0 0 0 277.55 763.35
  Q 284.09 743.62 295.21 728.41
  Q 302.00 719.12 313.38 707.13
  C 327.58 692.18 344.18 679.68 362.61 670.89
  A 1.84 1.82 77.6 0 0 363.65 669.25
  Q 363.78 644.13 363.44 623.76
  C 362.82 586.27 350.96 551.48 327.47 522.26
  C 305.41 494.82 275.60 475.88 240.69 470.29
  C 208.99 465.22 176.54 473.38 149.74 490.84
  Q 130.79 503.19 115.12 522.76
  Q 86.08 559.03 80.74 606.26
  Q 79.54 616.84 79.64 635.28
  Q 79.69 644.44 79.66 664.34
  A 0.57 0.57 0.0 0 0 80.23 664.91
  L 276.27 664.91
  A 0.27 0.27 0.0 0 1 276.54 665.18
  L 276.54 763.18
  Z
  M 720.23 763.18
  A 0.36 0.36 0.0 0 0 720.88 763.12
  Q 725.06 751.12 730.85 740.25
  Q 735.21 732.04 745.28 720.02
  Q 753.89 709.73 764.36 699.33
  C 768.82 694.89 774.94 689.84 778.85 687.10
  Q 791.57 678.20 806.19 670.83
  A 1.32 1.30 -13.2 0 0 806.91 669.68
  Q 807.00 649.43 806.68 623.59
  Q 805.92 562.86 766.55 517.30
  C 739.31 485.78 699.50 466.45 658.02 469.05
  Q 620.37 471.41 589.41 493.44
  C 548.97 522.21 524.12 569.99 523.06 620.03
  Q 522.51 646.02 522.79 669.23
  A 1.92 1.91 -77.1 0 0 523.83 670.90
  C 532.44 675.26 540.71 679.40 548.30 685.16
  C 554.48 689.86 559.75 693.26 564.43 698.29
  Q 568.04 702.19 569.79 703.82
  Q 580.91 714.22 591.35 728.45
  Q 602.96 744.28 609.46 763.62
  A 0.52 0.52 0.0 0 0 610.46 763.52
  Q 610.63 762.06 610.57 760.27
  Q 609.64 732.08 610.29 702.75
  Q 610.75 682.24 610.31 665.84
  A 0.86 0.86 0.0 0 1 611.17 664.95
  L 719.83 664.95
  A 0.42 0.41 -90.0 0 1 720.24 665.37
  Q 720.08 689.52 720.36 722.62
  C 720.48 736.44 720.25 745.47 720.12 762.13
  Q 720.11 762.97 720.23 763.18
  Z
  M 1163.47 763.11
  A 0.36 0.36 0.0 0 0 1164.12 763.05
  Q 1168.30 751.06 1174.09 740.19
  Q 1178.45 731.98 1188.52 719.97
  Q 1197.13 709.68 1207.60 699.28
  C 1212.06 694.84 1218.18 689.79 1222.08 687.06
  Q 1234.80 678.16 1249.42 670.79
  A 1.32 1.30 -13.2 0 0 1250.14 669.64
  Q 1250.23 649.40 1249.91 623.56
  Q 1249.16 562.85 1209.80 517.30
  C 1182.57 485.78 1142.77 466.46 1101.30 469.05
  Q 1063.66 471.41 1032.70 493.43
  C 992.27 522.19 967.43 569.96 966.36 619.99
  Q 965.81 645.97 966.09 669.17
  A 1.91 1.90 -77.1 0 0 967.13 670.84
  C 975.74 675.20 984.00 679.34 991.59 685.10
  C 997.77 689.80 1003.04 693.20 1007.72 698.23
  Q 1011.33 702.13 1013.08 703.76
  Q 1024.19 714.16 1034.63 728.38
  Q 1046.23 744.21 1052.73 763.55
  A 0.52 0.51 -50.7 0 0 1053.73 763.45
  Q 1053.90 761.99 1053.84 760.20
  Q 1052.91 732.01 1053.57 702.69
  Q 1054.03 682.19 1053.59 665.79
  A 0.86 0.86 0.0 0 1 1054.45 664.90
  L 1163.08 664.91
  A 0.42 0.41 -90.0 0 1 1163.49 665.33
  Q 1163.33 689.47 1163.61 722.56
  C 1163.73 736.38 1163.50 745.41 1163.36 762.06
  Q 1163.35 762.90 1163.47 763.11
  Z
  M 1496.90 764.03
  Q 1497.13 763.58 1497.12 762.98
  C 1496.72 737.10 1496.85 715.24 1496.94 665.59
  A 0.68 0.68 0.0 0 1 1497.62 664.91
  L 1692.77 664.91
  A 0.58 0.58 0.0 0 0 1693.35 664.33
  Q 1693.37 632.24 1693.19 625.75
  Q 1692.72 608.65 1691.54 600.70
  Q 1684.14 550.95 1650.97 514.75
  C 1630.87 492.82 1606.45 477.96 1577.55 471.69
  C 1532.26 461.85 1486.28 478.29 1454.76 511.72
  Q 1409.96 559.21 1409.52 624.53
  Q 1409.28 659.39 1409.39 669.53
  A 1.56 1.56 0.0 0 0 1410.27 670.92
  Q 1428.09 679.55 1443.22 691.54
  C 1454.25 700.27 1459.70 706.93 1471.02 719.74
  Q 1484.44 734.91 1492.29 753.70
  Q 1494.43 758.81 1496.50 764.01
  A 0.22 0.22 0.0 0 0 1496.90 764.03
  Z
  M 886.51 886.51
  Q 1023.59 886.52 1027.83 886.56
  A 0.73 0.73 0.0 0 0 1028.56 885.82
  Q 1028.40 870.31 1028.47 844.75
  C 1028.55 818.05 1022.38 792.31 1009.83 768.91
  Q 1005.55 760.94 1001.78 755.04
  Q 988.80 734.69 968.58 719.65
  Q 958.37 712.04 950.85 707.39
  C 932.48 696.01 908.06 689.99 886.52 689.99
  C 864.98 689.99 840.56 696.01 822.19 707.39
  Q 814.67 712.03 804.46 719.64
  Q 784.24 734.68 771.26 755.03
  Q 767.49 760.93 763.21 768.90
  C 750.65 792.30 744.48 818.04 744.56 844.74
  Q 744.63 870.30 744.47 885.81
  A 0.73 0.73 0.0 0 0 745.20 886.55
  Q 749.44 886.51 886.51 886.51
  Z
  M 1188.30 886.54
  L 1471.28 886.54
  A 0.71 0.71 0.0 0 0 1471.99 885.83
  L 1471.99 847.45
  A 157.31 142.10 90.0 0 0 1329.89 690.14
  L 1329.69 690.14
  A 157.31 142.10 90.0 0 0 1187.59 847.45
  L 1187.59 885.83
  A 0.71 0.71 0.0 0 0 1188.30 886.54
  Z
  M 301.98 886.79
  L 584.72 886.29
  A 0.83 0.83 0.0 0 0 585.55 885.46
  L 585.48 847.23
  A 157.34 142.12 89.9 0 0 443.09 690.14
  L 442.93 690.14
  A 157.34 142.12 89.9 0 0 301.08 847.73
  L 301.15 885.96
  A 0.83 0.83 0.0 0 0 301.98 886.79
  Z
  M 221.62 1108.06
  Q 253.22 1108.07 256.14 1107.98
  Q 258.13 1107.92 259.35 1109.36
  Q 273.85 1126.60 275.70 1149.57
  C 277.13 1167.31 276.29 1185.71 276.10 1205.38
  A 0.28 0.27 75.0 0 0 276.51 1205.63
  Q 276.95 1205.37 277.23 1204.57
  C 282.94 1188.26 291.12 1174.37 302.99 1160.86
  Q 312.96 1149.49 319.78 1142.88
  C 332.29 1130.74 347.14 1121.31 362.91 1113.54
  A 1.94 1.91 76.4 0 0 363.98 1111.76
  Q 363.70 1102.20 363.86 1080.08
  Q 364.00 1059.19 362.71 1048.32
  C 354.21 976.89 296.56 912.16 221.69 912.13
  C 146.81 912.11 89.12 976.80 80.57 1048.22
  Q 79.27 1059.09 79.40 1079.98
  Q 79.55 1102.11 79.26 1111.67
  A 1.94 1.91 -76.4 0 0 80.33 1113.45
  C 96.09 1121.23 110.93 1130.66 123.44 1142.81
  Q 130.25 1149.43 140.22 1160.80
  C 152.07 1174.32 160.24 1188.21 165.95 1204.53
  Q 166.23 1205.33 166.67 1205.59
  A 0.28 0.27 -75.0 0 0 167.08 1205.35
  C 166.90 1185.68 166.07 1167.28 167.52 1149.54
  Q 169.38 1126.57 183.89 1109.33
  Q 185.11 1107.89 187.10 1107.95
  Q 190.02 1108.05 221.62 1108.06
  Z
  M 664.92 1108.10
  Q 696.52 1108.10 699.44 1108.01
  Q 701.43 1107.95 702.65 1109.39
  Q 717.15 1126.63 719.00 1149.61
  C 720.44 1167.35 719.60 1185.75 719.41 1205.42
  A 0.28 0.27 75.0 0 0 719.82 1205.66
  Q 720.26 1205.40 720.54 1204.60
  C 726.25 1188.29 734.44 1174.40 746.30 1160.89
  Q 756.27 1149.52 763.09 1142.91
  C 775.60 1130.77 790.45 1121.33 806.22 1113.56
  A 1.94 1.91 76.4 0 0 807.29 1111.78
  Q 807.01 1102.22 807.17 1080.10
  Q 807.31 1059.21 806.01 1048.34
  C 797.50 976.91 739.85 912.17 664.96 912.16
  C 590.08 912.14 532.40 976.85 523.85 1048.27
  Q 522.55 1059.14 522.68 1080.04
  Q 522.83 1102.16 522.55 1111.72
  A 1.94 1.91 -76.4 0 0 523.62 1113.50
  C 539.38 1121.28 554.23 1130.72 566.73 1142.86
  Q 573.55 1149.48 583.52 1160.85
  C 595.37 1174.37 603.55 1188.26 609.25 1204.58
  Q 609.53 1205.38 609.97 1205.64
  A 0.28 0.27 -75.0 0 0 610.38 1205.40
  C 610.20 1185.73 609.37 1167.32 610.82 1149.58
  Q 612.68 1126.61 627.18 1109.37
  Q 628.41 1107.93 630.40 1107.99
  Q 633.32 1108.09 664.92 1108.10
  Z
  M 1108.20 1108.09
  Q 1139.79 1108.10 1142.72 1108.01
  Q 1144.71 1107.95 1145.93 1109.39
  Q 1160.43 1126.63 1162.28 1149.60
  C 1163.71 1167.34 1162.87 1185.74 1162.68 1205.41
  A 0.28 0.27 75.0 0 0 1163.09 1205.65
  Q 1163.53 1205.39 1163.81 1204.59
  C 1169.52 1188.28 1177.70 1174.39 1189.57 1160.88
  Q 1199.54 1149.52 1206.36 1142.91
  C 1218.87 1130.77 1233.72 1121.34 1249.48 1113.57
  A 1.94 1.91 76.4 0 0 1250.55 1111.79
  Q 1250.27 1102.23 1250.43 1080.11
  Q 1250.57 1059.22 1249.28 1048.35
  C 1240.77 976.93 1183.13 912.20 1108.25 912.18
  C 1033.38 912.16 975.70 976.86 967.15 1048.28
  Q 965.85 1059.14 965.98 1080.03
  Q 966.13 1102.15 965.85 1111.71
  A 1.94 1.91 -76.4 0 0 966.92 1113.49
  C 982.68 1121.27 997.52 1130.71 1010.03 1142.85
  Q 1016.84 1149.47 1026.81 1160.84
  C 1038.66 1174.36 1046.83 1188.25 1052.54 1204.56
  Q 1052.82 1205.36 1053.26 1205.62
  A 0.28 0.27 -75.0 0 0 1053.67 1205.38
  C 1053.49 1185.71 1052.65 1167.31 1054.10 1149.57
  Q 1055.96 1126.60 1070.47 1109.37
  Q 1071.69 1107.93 1073.68 1107.99
  Q 1076.61 1108.09 1108.20 1108.09
  Z
  M 1551.48 1108.04
  Q 1583.08 1108.04 1586.00 1107.95
  Q 1587.99 1107.89 1589.21 1109.33
  Q 1603.71 1126.57 1605.56 1149.54
  C 1607.00 1167.28 1606.16 1185.68 1605.97 1205.35
  A 0.28 0.27 75.0 0 0 1606.38 1205.59
  Q 1606.82 1205.33 1607.10 1204.53
  C 1612.81 1188.22 1620.99 1174.33 1632.85 1160.82
  Q 1642.82 1149.45 1649.64 1142.84
  C 1662.15 1130.70 1677.00 1121.27 1692.76 1113.50
  A 1.94 1.91 76.4 0 0 1693.83 1111.72
  Q 1693.55 1102.16 1693.71 1080.04
  Q 1693.85 1059.15 1692.56 1048.28
  C 1684.04 976.86 1626.39 912.14 1551.52 912.12
  C 1476.65 912.11 1418.97 976.81 1410.43 1048.23
  Q 1409.13 1059.09 1409.26 1079.99
  Q 1409.41 1102.11 1409.13 1111.66
  A 1.94 1.91 -76.4 0 0 1410.20 1113.45
  C 1425.96 1121.22 1440.80 1130.66 1453.31 1142.80
  Q 1460.13 1149.41 1470.09 1160.79
  C 1481.95 1174.30 1490.12 1188.20 1495.82 1204.51
  Q 1496.10 1205.31 1496.54 1205.57
  A 0.28 0.27 -75.0 0 0 1496.95 1205.33
  C 1496.77 1185.66 1495.94 1167.26 1497.39 1149.52
  Q 1499.24 1126.55 1513.75 1109.32
  Q 1514.97 1107.88 1516.96 1107.94
  Q 1519.89 1108.03 1551.48 1108.04
  Z
  M 302.00 1329.72
  L 584.52 1329.72
  A 1.05 1.05 0.0 0 0 585.57 1328.67
  L 585.57 1290.57
  A 157.25 142.21 -90.0 0 0 443.36 1133.32
  L 443.16 1133.32
  A 157.25 142.21 -90.0 0 0 300.95 1290.57
  L 300.95 1328.67
  A 1.05 1.05 0.0 0 0 302.00 1329.72
  Z
  M 886.57 1329.74
  Q 1023.76 1329.70 1028.01 1329.74
  A 0.73 0.73 0.0 0 0 1028.74 1329.00
  Q 1028.57 1313.48 1028.63 1287.90
  C 1028.71 1261.17 1022.52 1235.41 1009.96 1212.00
  Q 1005.67 1204.02 1001.89 1198.12
  Q 988.90 1177.75 968.66 1162.71
  Q 958.43 1155.09 950.91 1150.44
  C 932.52 1139.06 908.07 1133.04 886.52 1133.04
  C 864.96 1133.05 840.52 1139.08 822.13 1150.48
  Q 814.61 1155.13 804.39 1162.75
  Q 784.16 1177.81 771.17 1198.18
  Q 767.40 1204.08 763.12 1212.06
  C 750.56 1235.48 744.39 1261.25 744.48 1287.97
  Q 744.56 1313.55 744.40 1329.07
  A 0.73 0.73 0.0 0 0 745.13 1329.81
  Q 749.38 1329.77 886.57 1329.74
  Z
  M 1188.43 1329.72
  L 1471.15 1329.72
  A 0.93 0.93 0.0 0 0 1472.08 1328.79
  L 1472.08 1290.18
  A 156.82 142.21 90.0 0 0 1329.87 1133.36
  L 1329.71 1133.36
  A 156.82 142.21 90.0 0 0 1187.50 1290.18
  L 1187.50 1328.79
  A 0.93 0.93 0.0 0 0 1188.43 1329.72
  Z
  M 1496.04 1642.40
  Q 1496.22 1641.28 1496.20 1639.50
  Q 1495.97 1606.29 1496.03 1512.24
  Q 1496.04 1495.95 1497.69 1488.88
  Q 1501.35 1473.11 1511.42 1461.23
  C 1526.76 1443.13 1551.41 1436.80 1572.57 1446.72
  C 1594.14 1456.84 1607.05 1479.74 1607.07 1503.31
  Q 1607.12 1560.35 1607.26 1617.75
  Q 1607.28 1630.16 1607.08 1641.26
  A 0.46 0.46 0.0 0 0 1607.97 1641.43
  Q 1613.17 1627.34 1620.85 1616.64
  Q 1626.22 1609.15 1640.40 1593.66
  Q 1651.09 1581.98 1667.22 1571.23
  Q 1679.76 1562.87 1689.27 1558.32
  Q 1691.26 1557.37 1693.33 1556.05
  A 1.15 1.11 75.0 0 0 1693.85 1555.11
  Q 1694.13 1535.55 1693.51 1504.87
  Q 1692.73 1466.28 1673.47 1432.33
  C 1643.36 1379.24 1588.00 1345.15 1525.82 1358.10
  Q 1489.21 1365.73 1461.62 1391.44
  Q 1445.62 1406.35 1433.39 1425.72
  Q 1409.74 1463.17 1409.26 1508.04
  Q 1409.01 1530.51 1409.14 1555.03
  A 1.60 1.60 0.0 0 0 1410.02 1556.44
  C 1416.63 1559.75 1425.15 1563.65 1431.79 1568.34
  Q 1444.06 1577.01 1455.45 1587.30
  C 1462.18 1593.37 1469.71 1599.94 1474.94 1606.79
  Q 1487.46 1623.19 1495.54 1642.46
  A 0.26 0.26 0.0 0 0 1496.04 1642.40
  Z
  M 165.91 1641.95
  Q 165.96 1641.83 165.97 1641.50
  Q 166.19 1635.33 166.02 1508.25
  Q 166.01 1500.02 166.81 1494.30
  C 171.16 1463.13 197.70 1437.37 230.48 1442.90
  C 253.95 1446.85 270.80 1467.66 275.60 1489.88
  C 277.16 1497.11 277.06 1504.09 277.07 1512.78
  Q 277.13 1600.91 277.04 1642.40
  A 0.33 0.33 0.0 0 0 277.58 1642.65
  Q 277.95 1642.34 278.06 1642.06
  Q 289.35 1614.56 309.78 1594.78
  C 325.85 1579.22 342.87 1566.09 363.22 1556.45
  A 1.54 1.52 77.6 0 0 364.10 1555.06
  Q 364.23 1527.06 363.91 1506.81
  C 363.11 1456.88 338.13 1410.63 298.44 1380.91
  C 261.36 1353.14 211.04 1347.38 168.52 1367.06
  C 137.65 1381.34 113.77 1405.95 97.81 1435.66
  Q 83.90 1461.55 80.51 1491.33
  Q 79.17 1503.10 79.32 1523.21
  Q 79.41 1535.66 79.18 1555.03
  A 1.49 1.48 -76.1 0 0 80.00 1556.39
  Q 89.95 1561.40 99.67 1567.33
  Q 105.00 1570.58 108.28 1573.04
  Q 114.52 1577.73 116.51 1579.15
  Q 122.99 1583.75 128.20 1588.93
  C 143.89 1604.53 157.72 1621.18 165.57 1641.95
  A 0.18 0.18 0.0 0 0 165.91 1641.95
  Z
  M 720.59 1642.22
  A 0.21 0.20 -31.8 0 0 720.98 1642.31
  Q 721.48 1641.26 722.71 1638.46
  C 728.42 1625.42 735.96 1613.33 745.99 1602.51
  Q 755.63 1592.12 756.90 1590.89
  Q 778.74 1569.86 806.28 1556.61
  A 2.43 2.42 -14.7 0 0 807.64 1554.28
  Q 807.36 1549.73 807.38 1547.00
  Q 807.62 1521.85 806.89 1502.53
  Q 805.33 1460.99 783.18 1426.08
  C 749.43 1372.88 693.69 1343.51 630.63 1360.16
  Q 614.85 1364.32 600.83 1372.65
  Q 563.59 1394.78 542.44 1433.29
  Q 527.92 1459.71 524.53 1485.43
  Q 522.65 1499.71 522.70 1520.14
  Q 522.76 1540.17 522.52 1554.71
  A 2.07 2.06 14.3 0 0 523.63 1556.57
  Q 536.54 1563.29 550.53 1571.72
  Q 552.44 1572.88 553.55 1574.01
  A 1.41 0.04 45.9 0 0 554.29 1574.73
  Q 562.36 1581.16 565.96 1584.07
  Q 571.82 1588.81 576.69 1594.35
  Q 588.24 1607.49 593.17 1613.81
  C 599.50 1621.93 602.86 1629.17 607.37 1638.24
  A 6.90 6.79 24.6 0 1 607.82 1639.42
  Q 608.41 1641.52 609.12 1642.74
  A 0.43 0.43 0.0 0 0 609.92 1642.51
  Q 609.62 1632.42 609.64 1620.00
  Q 609.76 1523.90 609.63 1512.75
  Q 609.48 1500.09 610.68 1492.91
  C 615.38 1464.75 638.15 1439.96 668.38 1442.13
  C 696.40 1444.14 716.47 1468.36 720.02 1495.06
  Q 720.62 1499.54 720.63 1517.87
  Q 720.68 1585.59 720.59 1642.22
  Z
  M 1108.14 1442.01
  C 1122.57 1442.01 1135.92 1448.14 1145.82 1458.67
  Q 1163.55 1477.54 1163.56 1504.32
  Q 1163.62 1623.76 1163.56 1641.69
  A 0.47 0.47 0.0 0 0 1164.46 1641.86
  Q 1171.00 1625.11 1181.17 1611.96
  Q 1187.55 1603.71 1200.78 1590.21
  C 1214.12 1576.59 1232.36 1564.70 1249.53 1556.52
  A 1.89 1.88 -13.2 0 0 1250.61 1554.79
  Q 1250.40 1538.67 1250.43 1518.13
  C 1250.46 1498.10 1249.05 1481.12 1243.89 1464.29
  C 1231.41 1423.58 1202.56 1387.32 1163.99 1368.20
  C 1146.86 1359.71 1126.97 1355.43 1108.14 1355.43
  C 1089.30 1355.43 1069.42 1359.71 1052.28 1368.20
  C 1013.71 1387.32 984.86 1423.58 972.38 1464.29
  C 967.22 1481.12 965.81 1498.10 965.84 1518.13
  Q 965.87 1538.67 965.66 1554.79
  A 1.89 1.88 13.2 0 0 966.74 1556.52
  C 983.91 1564.70 1002.15 1576.59 1015.49 1590.21
  Q 1028.72 1603.71 1035.10 1611.96
  Q 1045.27 1625.11 1051.81 1641.86
  A 0.47 0.47 0.0 0 0 1052.71 1641.69
  Q 1052.65 1623.76 1052.71 1504.32
  Q 1052.72 1477.54 1070.45 1458.67
  C 1080.35 1448.14 1093.70 1442.01 1108.14 1442.01
  Z"
/>
<path fill="#fea9c0" d="
  M 443.14 373.37
  Q 443.35 373.37 443.37 372.95
  Q 445.79 313.48 485.50 270.56
  C 516.57 236.98 562.76 219.83 608.23 225.95
  Q 629.32 228.79 652.15 239.91
  C 681.44 254.18 705.89 280.55 719.84 309.12
  Q 735.78 341.78 736.09 377.52
  Q 736.30 401.83 736.07 436.25
  Q 736.07 437.04 736.30 442.56
  A 0.73 0.72 -1.1 0 1 735.57 443.31
  L 678.08 443.31
  A 1.11 1.11 0.0 0 1 676.97 442.19
  Q 677.13 417.48 676.96 374.27
  Q 676.84 343.11 661.14 318.34
  Q 646.63 295.43 619.50 284.75
  Q 592.22 274.01 563.97 283.16
  C 526.22 295.39 503.05 331.35 502.53 370.04
  Q 502.16 397.71 502.49 442.43
  A 0.88 0.87 -0.0 0 1 501.62 443.30
  Q 473.82 443.20 443.11 443.18
  Q 412.41 443.17 384.61 443.24
  A 0.88 0.87 0.1 0 1 383.73 442.37
  Q 384.11 397.65 383.76 369.98
  C 383.28 331.29 360.15 295.31 322.41 283.04
  Q 294.17 273.87 266.88 284.58
  Q 239.74 295.23 225.20 318.13
  Q 209.48 342.88 209.33 374.04
  Q 209.12 417.25 209.25 441.96
  A 1.11 1.11 0.0 0 1 208.14 443.08
  L 150.65 443.03
  A 0.73 0.72 1.2 0 1 149.92 442.28
  Q 150.16 436.76 150.16 435.97
  Q 149.96 401.55 150.20 377.24
  Q 150.54 341.50 166.51 308.85
  C 180.49 280.30 204.97 253.95 234.27 239.71
  Q 257.11 228.61 278.20 225.79
  C 323.68 219.71 369.85 236.91 400.89 270.52
  Q 440.56 313.48 442.92 372.95
  Q 442.94 373.37 443.14 373.37
  Z"
/>
<path fill="#fea9c0" d="
  M 1329.92 443.14
  Q 1299.21 443.15 1271.41 443.24
  A 0.88 0.87 0.0 0 1 1270.54 442.37
  Q 1270.88 397.66 1270.52 369.99
  C 1270.02 331.30 1246.86 295.33 1209.11 283.09
  Q 1180.87 273.93 1153.59 284.66
  Q 1126.46 295.33 1111.94 318.24
  Q 1096.23 343.00 1096.10 374.16
  Q 1095.92 417.37 1096.07 442.08
  A 1.11 1.11 0.0 0 1 1094.96 443.20
  L 1037.47 443.18
  A 0.73 0.72 1.1 0 1 1036.74 442.43
  Q 1036.98 436.91 1036.98 436.12
  Q 1036.76 401.70 1036.97 377.39
  Q 1037.30 341.65 1053.25 309.00
  C 1067.20 280.44 1091.66 254.08 1120.95 239.82
  Q 1143.79 228.70 1164.88 225.87
  C 1210.35 219.77 1256.53 236.93 1287.58 270.52
  Q 1327.28 313.45 1329.68 372.92
  Q 1329.70 373.34 1329.91 373.34
  Q 1330.11 373.34 1330.13 372.92
  Q 1332.51 313.45 1372.19 270.50
  C 1403.24 236.91 1449.41 219.73 1494.88 225.82
  Q 1515.97 228.64 1538.81 239.75
  C 1568.11 254.00 1592.57 280.35 1606.54 308.91
  Q 1622.50 341.56 1622.84 377.29
  Q 1623.06 401.60 1622.85 436.02
  Q 1622.85 436.81 1623.09 442.33
  A 0.73 0.72 -1.2 0 1 1622.36 443.08
  L 1564.87 443.12
  A 1.11 1.11 0.0 0 1 1563.76 442.00
  Q 1563.90 417.29 1563.71 374.08
  Q 1563.57 342.93 1547.85 318.17
  Q 1533.33 295.27 1506.19 284.61
  Q 1478.91 273.88 1450.66 283.05
  C 1412.92 295.31 1389.78 331.28 1389.28 369.97
  Q 1388.93 397.64 1389.29 442.35
  A 0.88 0.87 -0.1 0 1 1388.42 443.22
  Q 1360.62 443.14 1329.92 443.14
  Z"
/>
<path fill="#fea9c0" d="
  M 0.00 443.19
  L 0.00 224.78
  Q 42.59 224.75 76.66 248.10
  C 111.81 272.19 137.86 313.36 143.37 355.85
  Q 145.07 368.89 144.85 393.23
  Q 144.63 417.10 144.89 442.85
  A 0.39 0.38 -0.7 0 1 144.50 443.24
  L 0.00 443.19
  Z"
/>
<path fill="#fea9c0" d="
  M 741.93 443.20
  A 0.64 0.64 0.0 0 1 741.29 442.56
  L 741.29 381.00
  A 156.28 145.27 -90.0 0 1 886.56 224.72
  A 156.28 145.27 -90.0 0 1 1031.83 381.00
  L 1031.83 442.56
  A 0.64 0.64 0.0 0 1 1031.19 443.20
  L 741.93 443.20
  Z"
/>
<path fill="#fea9c0" d="
  M 1773.00 224.71
  L 1773.00 443.26
  L 1628.82 443.21
  A 0.94 0.94 0.0 0 1 1627.88 442.26
  Q 1627.90 440.50 1627.94 438.50
  Q 1628.18 426.16 1628.18 373.75
  Q 1628.18 365.05 1630.74 349.80
  Q 1632.79 337.50 1636.75 326.46
  C 1657.62 268.18 1709.46 224.81 1773.00 224.71
  Z"
/>
<path fill="#fea9c0" d="
  M 276.54 763.18
  L 276.54 665.18
  A 0.27 0.27 0.0 0 0 276.27 664.91
  L 80.23 664.91
  A 0.57 0.57 0.0 0 1 79.66 664.34
  Q 79.69 644.44 79.64 635.28
  Q 79.54 616.84 80.74 606.26
  Q 86.08 559.03 115.12 522.76
  Q 130.79 503.19 149.74 490.84
  C 176.54 473.38 208.99 465.22 240.69 470.29
  C 275.60 475.88 305.41 494.82 327.47 522.26
  C 350.96 551.48 362.82 586.27 363.44 623.76
  Q 363.78 644.13 363.65 669.25
  A 1.84 1.82 77.6 0 1 362.61 670.89
  C 344.18 679.68 327.58 692.18 313.38 707.13
  Q 302.00 719.12 295.21 728.41
  Q 284.09 743.62 277.55 763.35
  A 0.52 0.52 0.0 0 1 276.54 763.18
  Z"
/>
<path fill="#fea9c0" d="
  M 720.23 763.18
  Q 720.11 762.97 720.12 762.13
  C 720.25 745.47 720.48 736.44 720.36 722.62
  Q 720.08 689.52 720.24 665.37
  A 0.42 0.41 90.0 0 0 719.83 664.95
  L 611.17 664.95
  A 0.86 0.86 0.0 0 0 610.31 665.84
  Q 610.75 682.24 610.29 702.75
  Q 609.64 732.08 610.57 760.27
  Q 610.63 762.06 610.46 763.52
  A 0.52 0.52 0.0 0 1 609.46 763.62
  Q 602.96 744.28 591.35 728.45
  Q 580.91 714.22 569.79 703.82
  Q 568.04 702.19 564.43 698.29
  C 559.75 693.26 554.48 689.86 548.30 685.16
  C 540.71 679.40 532.44 675.26 523.83 670.90
  A 1.92 1.91 -77.1 0 1 522.79 669.23
  Q 522.51 646.02 523.06 620.03
  C 524.12 569.99 548.97 522.21 589.41 493.44
  Q 620.37 471.41 658.02 469.05
  C 699.50 466.45 739.31 485.78 766.55 517.30
  Q 805.92 562.86 806.68 623.59
  Q 807.00 649.43 806.91 669.68
  A 1.32 1.30 -13.2 0 1 806.19 670.83
  Q 791.57 678.20 778.85 687.10
  C 774.94 689.84 768.82 694.89 764.36 699.33
  Q 753.89 709.73 745.28 720.02
  Q 735.21 732.04 730.85 740.25
  Q 725.06 751.12 720.88 763.12
  A 0.36 0.36 0.0 0 1 720.23 763.18
  Z"
/>
<path fill="#fea9c0" d="
  M 1163.47 763.11
  Q 1163.35 762.90 1163.36 762.06
  C 1163.50 745.41 1163.73 736.38 1163.61 722.56
  Q 1163.33 689.47 1163.49 665.33
  A 0.42 0.41 -90.0 0 0 1163.08 664.91
  L 1054.45 664.90
  A 0.86 0.86 0.0 0 0 1053.59 665.79
  Q 1054.03 682.19 1053.57 702.69
  Q 1052.91 732.01 1053.84 760.20
  Q 1053.90 761.99 1053.73 763.45
  A 0.52 0.51 -50.7 0 1 1052.73 763.55
  Q 1046.23 744.21 1034.63 728.38
  Q 1024.19 714.16 1013.08 703.76
  Q 1011.33 702.13 1007.72 698.23
  C 1003.04 693.20 997.77 689.80 991.59 685.10
  C 984.00 679.34 975.74 675.20 967.13 670.84
  A 1.91 1.90 -77.1 0 1 966.09 669.17
  Q 965.81 645.97 966.36 619.99
  C 967.43 569.96 992.27 522.19 1032.70 493.43
  Q 1063.66 471.41 1101.30 469.05
  C 1142.77 466.46 1182.57 485.78 1209.80 517.30
  Q 1249.16 562.85 1249.91 623.56
  Q 1250.23 649.40 1250.14 669.64
  A 1.32 1.30 -13.2 0 1 1249.42 670.79
  Q 1234.80 678.16 1222.08 687.06
  C 1218.18 689.79 1212.06 694.84 1207.60 699.28
  Q 1197.13 709.68 1188.52 719.97
  Q 1178.45 731.98 1174.09 740.19
  Q 1168.30 751.06 1164.12 763.05
  A 0.36 0.36 0.0 0 1 1163.47 763.11
  Z"
/>
<path fill="#fea9c0" d="
  M 1496.90 764.03
  A 0.22 0.22 0.0 0 1 1496.50 764.01
  Q 1494.43 758.81 1492.29 753.70
  Q 1484.44 734.91 1471.02 719.74
  C 1459.70 706.93 1454.25 700.27 1443.22 691.54
  Q 1428.09 679.55 1410.27 670.92
  A 1.56 1.56 0.0 0 1 1409.39 669.53
  Q 1409.28 659.39 1409.52 624.53
  Q 1409.96 559.21 1454.76 511.72
  C 1486.28 478.29 1532.26 461.85 1577.55 471.69
  C 1606.45 477.96 1630.87 492.82 1650.97 514.75
  Q 1684.14 550.95 1691.54 600.70
  Q 1692.72 608.65 1693.19 625.75
  Q 1693.37 632.24 1693.35 664.33
  A 0.58 0.58 0.0 0 1 1692.77 664.91
  L 1497.62 664.91
  A 0.68 0.68 0.0 0 0 1496.94 665.59
  C 1496.85 715.24 1496.72 737.10 1497.12 762.98
  Q 1497.13 763.58 1496.90 764.03
  Z"
/>
<path fill="#fea9c0" d="
  M 0.00 886.54
  L 0.00 689.83
  C 29.56 690.31 57.30 700.18 80.70 718.39
  Q 124.62 752.56 137.42 806.89
  Q 141.92 826.01 141.94 843.50
  Q 141.98 871.54 142.07 885.89
  A 0.67 0.67 0.0 0 1 141.40 886.57
  L 0.00 886.54
  Z"
/>
<path fill="#fea9c0" d="
  M 886.52 689.99
  C 908.06 689.99 932.48 696.01 950.85 707.39
  Q 958.37 712.04 968.58 719.65
  Q 988.80 734.69 1001.78 755.04
  Q 1005.55 760.94 1009.83 768.91
  C 1022.38 792.31 1028.55 818.05 1028.47 844.75
  Q 1028.40 870.31 1028.56 885.82
  A 0.73 0.73 0.0 0 1 1027.83 886.56
  Q 1023.59 886.52 886.51 886.51
  Q 749.44 886.51 745.20 886.55
  A 0.73 0.73 0.0 0 1 744.47 885.81
  Q 744.63 870.30 744.56 844.74
  C 744.48 818.04 750.65 792.30 763.21 768.90
  Q 767.49 760.93 771.26 755.03
  Q 784.24 734.68 804.46 719.64
  Q 814.67 712.03 822.19 707.39
  C 840.56 696.01 864.98 689.99 886.52 689.99
  Z"
/>
<path fill="#fea9c0" d="
  M 1188.30 886.54
  A 0.71 0.71 0.0 0 1 1187.59 885.83
  L 1187.59 847.45
  A 157.31 142.10 -90.0 0 1 1329.69 690.14
  L 1329.89 690.14
  A 157.31 142.10 -90.0 0 1 1471.99 847.45
  L 1471.99 885.83
  A 0.71 0.71 0.0 0 1 1471.28 886.54
  L 1188.30 886.54
  Z"
/>
<path fill="#fea9c0" d="
  M 1773.00 689.78
  L 1773.00 886.53
  L 1631.66 886.58
  A 0.60 0.59 -0.5 0 1 1631.06 886.00
  Q 1630.75 863.70 1631.16 841.54
  C 1632.16 788.58 1658.08 739.61 1702.78 711.05
  Q 1734.88 690.55 1773.00 689.78
  Z"
/>
<path fill="#fea9c0" d="
  M 301.98 886.79
  A 0.83 0.83 0.0 0 1 301.15 885.96
  L 301.08 847.73
  A 157.34 142.12 89.9 0 1 442.93 690.14
  L 443.09 690.14
  A 157.34 142.12 89.9 0 1 585.48 847.23
  L 585.55 885.46
  A 0.83 0.83 0.0 0 1 584.72 886.29
  L 301.98 886.79
  Z"
/>
<path fill="#fea9c0" d="
  M 221.62 1108.06
  Q 190.02 1108.05 187.10 1107.95
  Q 185.11 1107.89 183.89 1109.33
  Q 169.38 1126.57 167.52 1149.54
  C 166.07 1167.28 166.90 1185.68 167.08 1205.35
  A 0.28 0.27 -75.0 0 1 166.67 1205.59
  Q 166.23 1205.33 165.95 1204.53
  C 160.24 1188.21 152.07 1174.32 140.22 1160.80
  Q 130.25 1149.43 123.44 1142.81
  C 110.93 1130.66 96.09 1121.23 80.33 1113.45
  A 1.94 1.91 -76.4 0 1 79.26 1111.67
  Q 79.55 1102.11 79.40 1079.98
  Q 79.27 1059.09 80.57 1048.22
  C 89.12 976.80 146.81 912.11 221.69 912.13
  C 296.56 912.16 354.21 976.89 362.71 1048.32
  Q 364.00 1059.19 363.86 1080.08
  Q 363.70 1102.20 363.98 1111.76
  A 1.94 1.91 76.4 0 1 362.91 1113.54
  C 347.14 1121.31 332.29 1130.74 319.78 1142.88
  Q 312.96 1149.49 302.99 1160.86
  C 291.12 1174.37 282.94 1188.26 277.23 1204.57
  Q 276.95 1205.37 276.51 1205.63
  A 0.28 0.27 75.0 0 1 276.10 1205.38
  C 276.29 1185.71 277.13 1167.31 275.70 1149.57
  Q 273.85 1126.60 259.35 1109.36
  Q 258.13 1107.92 256.14 1107.98
  Q 253.22 1108.07 221.62 1108.06
  Z"
/>
<path fill="#fea9c0" d="
  M 664.92 1108.10
  Q 633.32 1108.09 630.40 1107.99
  Q 628.41 1107.93 627.18 1109.37
  Q 612.68 1126.61 610.82 1149.58
  C 609.37 1167.32 610.20 1185.73 610.38 1205.40
  A 0.28 0.27 -75.0 0 1 609.97 1205.64
  Q 609.53 1205.38 609.25 1204.58
  C 603.55 1188.26 595.37 1174.37 583.52 1160.85
  Q 573.55 1149.48 566.73 1142.86
  C 554.23 1130.72 539.38 1121.28 523.62 1113.50
  A 1.94 1.91 -76.4 0 1 522.55 1111.72
  Q 522.83 1102.16 522.68 1080.04
  Q 522.55 1059.14 523.85 1048.27
  C 532.40 976.85 590.08 912.14 664.96 912.16
  C 739.85 912.17 797.50 976.91 806.01 1048.34
  Q 807.31 1059.21 807.17 1080.10
  Q 807.01 1102.22 807.29 1111.78
  A 1.94 1.91 76.4 0 1 806.22 1113.56
  C 790.45 1121.33 775.60 1130.77 763.09 1142.91
  Q 756.27 1149.52 746.30 1160.89
  C 734.44 1174.40 726.25 1188.29 720.54 1204.60
  Q 720.26 1205.40 719.82 1205.66
  A 0.28 0.27 75.0 0 1 719.41 1205.42
  C 719.60 1185.75 720.44 1167.35 719.00 1149.61
  Q 717.15 1126.63 702.65 1109.39
  Q 701.43 1107.95 699.44 1108.01
  Q 696.52 1108.10 664.92 1108.10
  Z"
/>
<path fill="#fea9c0" d="
  M 1108.20 1108.09
  Q 1076.61 1108.09 1073.68 1107.99
  Q 1071.69 1107.93 1070.47 1109.37
  Q 1055.96 1126.60 1054.10 1149.57
  C 1052.65 1167.31 1053.49 1185.71 1053.67 1205.38
  A 0.28 0.27 -75.0 0 1 1053.26 1205.62
  Q 1052.82 1205.36 1052.54 1204.56
  C 1046.83 1188.25 1038.66 1174.36 1026.81 1160.84
  Q 1016.84 1149.47 1010.03 1142.85
  C 997.52 1130.71 982.68 1121.27 966.92 1113.49
  A 1.94 1.91 -76.4 0 1 965.85 1111.71
  Q 966.13 1102.15 965.98 1080.03
  Q 965.85 1059.14 967.15 1048.28
  C 975.70 976.86 1033.38 912.16 1108.25 912.18
  C 1183.13 912.20 1240.77 976.93 1249.28 1048.35
  Q 1250.57 1059.22 1250.43 1080.11
  Q 1250.27 1102.23 1250.55 1111.79
  A 1.94 1.91 76.4 0 1 1249.48 1113.57
  C 1233.72 1121.34 1218.87 1130.77 1206.36 1142.91
  Q 1199.54 1149.52 1189.57 1160.88
  C 1177.70 1174.39 1169.52 1188.28 1163.81 1204.59
  Q 1163.53 1205.39 1163.09 1205.65
  A 0.28 0.27 75.0 0 1 1162.68 1205.41
  C 1162.87 1185.74 1163.71 1167.34 1162.28 1149.60
  Q 1160.43 1126.63 1145.93 1109.39
  Q 1144.71 1107.95 1142.72 1108.01
  Q 1139.79 1108.10 1108.20 1108.09
  Z"
/>
<path fill="#fea9c0" d="
  M 1551.52 912.12
  C 1626.39 912.14 1684.04 976.86 1692.56 1048.28
  Q 1693.85 1059.15 1693.71 1080.04
  Q 1693.55 1102.16 1693.83 1111.72
  A 1.94 1.91 76.4 0 1 1692.76 1113.50
  C 1677.00 1121.27 1662.15 1130.70 1649.64 1142.84
  Q 1642.82 1149.45 1632.85 1160.82
  C 1620.99 1174.33 1612.81 1188.22 1607.10 1204.53
  Q 1606.82 1205.33 1606.38 1205.59
  A 0.28 0.27 75.0 0 1 1605.97 1205.35
  C 1606.16 1185.68 1607.00 1167.28 1605.56 1149.54
  Q 1603.71 1126.57 1589.21 1109.33
  Q 1587.99 1107.89 1586.00 1107.95
  Q 1583.08 1108.04 1551.48 1108.04
  Q 1519.89 1108.03 1516.96 1107.94
  Q 1514.97 1107.88 1513.75 1109.32
  Q 1499.24 1126.55 1497.39 1149.52
  C 1495.94 1167.26 1496.77 1185.66 1496.95 1205.33
  A 0.28 0.27 -75.0 0 1 1496.54 1205.57
  Q 1496.10 1205.31 1495.82 1204.51
  C 1490.12 1188.20 1481.95 1174.30 1470.09 1160.79
  Q 1460.13 1149.41 1453.31 1142.80
  C 1440.80 1130.66 1425.96 1121.22 1410.20 1113.45
  A 1.94 1.91 -76.4 0 1 1409.13 1111.66
  Q 1409.41 1102.11 1409.26 1079.99
  Q 1409.13 1059.09 1410.43 1048.23
  C 1418.97 976.81 1476.65 912.11 1551.52 912.12
  Z"
/>
<path fill="#fea9c0" d="
  M 0.00 1329.69
  L 0.00 1133.09
  Q 24.97 1133.36 46.62 1141.87
  C 100.74 1163.14 136.04 1215.29 141.54 1272.46
  Q 142.25 1279.86 142.19 1300.71
  Q 142.16 1311.77 142.22 1328.98
  A 0.74 0.74 0.0 0 1 141.48 1329.72
  L 0.00 1329.69
  Z"
/>
<path fill="#fea9c0" d="
  M 1773.00 1133.01
  L 1773.00 1329.71
  L 1631.39 1329.73
  A 0.58 0.58 0.0 0 1 1630.81 1329.16
  Q 1630.70 1305.47 1630.92 1285.25
  C 1631.51 1231.42 1658.76 1180.80 1705.10 1152.59
  Q 1736.27 1133.62 1773.00 1133.01
  Z"
/>
<path fill="#fea9c0" d="
  M 302.00 1329.72
  A 1.05 1.05 0.0 0 1 300.95 1328.67
  L 300.95 1290.57
  A 157.25 142.21 -90.0 0 1 443.16 1133.32
  L 443.36 1133.32
  A 157.25 142.21 90.0 0 1 585.57 1290.57
  L 585.57 1328.67
  A 1.05 1.05 0.0 0 1 584.52 1329.72
  L 302.00 1329.72
  Z"
/>
<path fill="#fea9c0" d="
  M 886.57 1329.74
  Q 749.38 1329.77 745.13 1329.81
  A 0.73 0.73 0.0 0 1 744.40 1329.07
  Q 744.56 1313.55 744.48 1287.97
  C 744.39 1261.25 750.56 1235.48 763.12 1212.06
  Q 767.40 1204.08 771.17 1198.18
  Q 784.16 1177.81 804.39 1162.75
  Q 814.61 1155.13 822.13 1150.48
  C 840.52 1139.08 864.96 1133.05 886.52 1133.04
  C 908.07 1133.04 932.52 1139.06 950.91 1150.44
  Q 958.43 1155.09 968.66 1162.71
  Q 988.90 1177.75 1001.89 1198.12
  Q 1005.67 1204.02 1009.96 1212.00
  C 1022.52 1235.41 1028.71 1261.17 1028.63 1287.90
  Q 1028.57 1313.48 1028.74 1329.00
  A 0.73 0.73 0.0 0 1 1028.01 1329.74
  Q 1023.76 1329.70 886.57 1329.74
  Z"
/>
<path fill="#fea9c0" d="
  M 1188.43 1329.72
  A 0.93 0.93 0.0 0 1 1187.50 1328.79
  L 1187.50 1290.18
  A 156.82 142.21 -90.0 0 1 1329.71 1133.36
  L 1329.87 1133.36
  A 156.82 142.21 -90.0 0 1 1472.08 1290.18
  L 1472.08 1328.79
  A 0.93 0.93 0.0 0 1 1471.15 1329.72
  L 1188.43 1329.72
  Z"
/>
<path fill="#fea9c0" d="
  M 1496.04 1642.40
  A 0.26 0.26 0.0 0 1 1495.54 1642.46
  Q 1487.46 1623.19 1474.94 1606.79
  C 1469.71 1599.94 1462.18 1593.37 1455.45 1587.30
  Q 1444.06 1577.01 1431.79 1568.34
  C 1425.15 1563.65 1416.63 1559.75 1410.02 1556.44
  A 1.60 1.60 0.0 0 1 1409.14 1555.03
  Q 1409.01 1530.51 1409.26 1508.04
  Q 1409.74 1463.17 1433.39 1425.72
  Q 1445.62 1406.35 1461.62 1391.44
  Q 1489.21 1365.73 1525.82 1358.10
  C 1588.00 1345.15 1643.36 1379.24 1673.47 1432.33
  Q 1692.73 1466.28 1693.51 1504.87
  Q 1694.13 1535.55 1693.85 1555.11
  A 1.15 1.11 75.0 0 1 1693.33 1556.05
  Q 1691.26 1557.37 1689.27 1558.32
  Q 1679.76 1562.87 1667.22 1571.23
  Q 1651.09 1581.98 1640.40 1593.66
  Q 1626.22 1609.15 1620.85 1616.64
  Q 1613.17 1627.34 1607.97 1641.43
  A 0.46 0.46 0.0 0 1 1607.08 1641.26
  Q 1607.28 1630.16 1607.26 1617.75
  Q 1607.12 1560.35 1607.07 1503.31
  C 1607.05 1479.74 1594.14 1456.84 1572.57 1446.72
  C 1551.41 1436.80 1526.76 1443.13 1511.42 1461.23
  Q 1501.35 1473.11 1497.69 1488.88
  Q 1496.04 1495.95 1496.03 1512.24
  Q 1495.97 1606.29 1496.20 1639.50
  Q 1496.22 1641.28 1496.04 1642.40
  Z"
/>
<path fill="#fea9c0" d="
  M 165.91 1641.95
  A 0.18 0.18 0.0 0 1 165.57 1641.95
  C 157.72 1621.18 143.89 1604.53 128.20 1588.93
  Q 122.99 1583.75 116.51 1579.15
  Q 114.52 1577.73 108.28 1573.04
  Q 105.00 1570.58 99.67 1567.33
  Q 89.95 1561.40 80.00 1556.39
  A 1.49 1.48 -76.1 0 1 79.18 1555.03
  Q 79.41 1535.66 79.32 1523.21
  Q 79.17 1503.10 80.51 1491.33
  Q 83.90 1461.55 97.81 1435.66
  C 113.77 1405.95 137.65 1381.34 168.52 1367.06
  C 211.04 1347.38 261.36 1353.14 298.44 1380.91
  C 338.13 1410.63 363.11 1456.88 363.91 1506.81
  Q 364.23 1527.06 364.10 1555.06
  A 1.54 1.52 77.6 0 1 363.22 1556.45
  C 342.87 1566.09 325.85 1579.22 309.78 1594.78
  Q 289.35 1614.56 278.06 1642.06
  Q 277.95 1642.34 277.58 1642.65
  A 0.33 0.33 0.0 0 1 277.04 1642.40
  Q 277.13 1600.91 277.07 1512.78
  C 277.06 1504.09 277.16 1497.11 275.60 1489.88
  C 270.80 1467.66 253.95 1446.85 230.48 1442.90
  C 197.70 1437.37 171.16 1463.13 166.81 1494.30
  Q 166.01 1500.02 166.02 1508.25
  Q 166.19 1635.33 165.97 1641.50
  Q 165.96 1641.83 165.91 1641.95
  Z"
/>
<path fill="#fea9c0" d="
  M 720.59 1642.22
  Q 720.68 1585.59 720.63 1517.87
  Q 720.62 1499.54 720.02 1495.06
  C 716.47 1468.36 696.40 1444.14 668.38 1442.13
  C 638.15 1439.96 615.38 1464.75 610.68 1492.91
  Q 609.48 1500.09 609.63 1512.75
  Q 609.76 1523.90 609.64 1620.00
  Q 609.62 1632.42 609.92 1642.51
  A 0.43 0.43 0.0 0 1 609.12 1642.74
  Q 608.41 1641.52 607.82 1639.42
  A 6.90 6.79 24.6 0 0 607.37 1638.24
  C 602.86 1629.17 599.50 1621.93 593.17 1613.81
  Q 588.24 1607.49 576.69 1594.35
  Q 571.82 1588.81 565.96 1584.07
  Q 562.36 1581.16 554.29 1574.73
  A 1.41 0.04 45.9 0 1 553.55 1574.01
  Q 552.44 1572.88 550.53 1571.72
  Q 536.54 1563.29 523.63 1556.57
  A 2.07 2.06 14.3 0 1 522.52 1554.71
  Q 522.76 1540.17 522.70 1520.14
  Q 522.65 1499.71 524.53 1485.43
  Q 527.92 1459.71 542.44 1433.29
  Q 563.59 1394.78 600.83 1372.65
  Q 614.85 1364.32 630.63 1360.16
  C 693.69 1343.51 749.43 1372.88 783.18 1426.08
  Q 805.33 1460.99 806.89 1502.53
  Q 807.62 1521.85 807.38 1547.00
  Q 807.36 1549.73 807.64 1554.28
  A 2.43 2.42 -14.7 0 1 806.28 1556.61
  Q 778.74 1569.86 756.90 1590.89
  Q 755.63 1592.12 745.99 1602.51
  C 735.96 1613.33 728.42 1625.42 722.71 1638.46
  Q 721.48 1641.26 720.98 1642.31
  A 0.21 0.20 -31.8 0 1 720.59 1642.22
  Z"
/>
<path fill="#fea9c0" d="
  M 1108.14 1355.43
  C 1126.97 1355.43 1146.86 1359.71 1163.99 1368.20
  C 1202.56 1387.32 1231.41 1423.58 1243.89 1464.29
  C 1249.05 1481.12 1250.46 1498.10 1250.43 1518.13
  Q 1250.40 1538.67 1250.61 1554.79
  A 1.89 1.88 -13.2 0 1 1249.53 1556.52
  C 1232.36 1564.70 1214.12 1576.59 1200.78 1590.21
  Q 1187.55 1603.71 1181.17 1611.96
  Q 1171.00 1625.11 1164.46 1641.86
  A 0.47 0.47 0.0 0 1 1163.56 1641.69
  Q 1163.62 1623.76 1163.56 1504.32
  Q 1163.55 1477.54 1145.82 1458.67
  C 1135.92 1448.14 1122.57 1442.01 1108.14 1442.01
  C 1093.70 1442.01 1080.35 1448.14 1070.45 1458.67
  Q 1052.72 1477.54 1052.71 1504.32
  Q 1052.65 1623.76 1052.71 1641.69
  A 0.47 0.47 0.0 0 1 1051.81 1641.86
  Q 1045.27 1625.11 1035.10 1611.96
  Q 1028.72 1603.71 1015.49 1590.21
  C 1002.15 1576.59 983.91 1564.70 966.74 1556.52
  A 1.89 1.88 13.2 0 1 965.66 1554.79
  Q 965.87 1538.67 965.84 1518.13
  C 965.81 1498.10 967.22 1481.12 972.38 1464.29
  C 984.86 1423.58 1013.71 1387.32 1052.28 1368.20
  C 1069.42 1359.71 1089.30 1355.43 1108.14 1355.43
  Z"
/>
<path fill="#fea9c0" d="
  M 142.33 1773.00
  L 0.00 1773.00
  L 0.00 1576.54
  Q 3.61 1576.41 11.62 1577.14
  Q 48.46 1580.50 78.45 1602.51
  Q 107.75 1624.02 123.72 1654.75
  Q 137.78 1681.81 141.34 1711.36
  Q 142.33 1719.66 142.32 1742.15
  Q 142.31 1757.58 142.33 1773.00
  Z"
/>
<path fill="#fea9c0" d="
  M 1773.00 1576.42
  L 1773.00 1773.00
  L 1630.81 1773.00
  Q 1630.65 1756.33 1630.69 1739.66
  Q 1630.74 1717.38 1632.37 1706.42
  Q 1637.50 1672.00 1655.87 1643.30
  Q 1675.50 1612.62 1706.57 1594.56
  Q 1736.90 1576.94 1773.00 1576.42
  Z"
/>
<path fill="#fea9c0" d="
  M 585.35 1773.00
  L 301.20 1773.00
  Q 301.09 1751.78 301.08 1730.55
  C 301.07 1680.46 323.68 1632.81 364.27 1602.80
  C 392.78 1581.73 427.73 1572.82 462.74 1578.00
  C 507.53 1584.63 545.91 1614.71 566.68 1654.51
  Q 584.18 1688.03 585.32 1722.50
  Q 585.70 1734.04 585.35 1773.00
  Z"
/>
<path fill="#fea9c0" d="
  M 1028.56 1773.00
  L 744.45 1773.00
  Q 744.25 1744.22 744.38 1728.00
  C 744.97 1657.05 794.05 1590.09 865.74 1578.26
  C 901.02 1572.43 937.14 1581.88 965.49 1602.82
  C 1005.12 1632.08 1027.87 1678.65 1028.62 1727.78
  Q 1028.78 1738.14 1028.56 1773.00
  Z"
/>
<path fill="#fea9c0" d="
  M 1471.82 1773.00
  L 1187.69 1773.00
  Q 1187.58 1760.51 1187.58 1748.01
  Q 1187.58 1726.57 1187.74 1723.11
  C 1190.05 1673.74 1213.75 1628.25 1254.77 1600.00
  C 1301.62 1567.74 1362.57 1569.05 1408.15 1602.37
  Q 1439.42 1625.22 1455.90 1659.81
  Q 1471.30 1692.14 1471.85 1726.25
  Q 1472.12 1742.36 1471.82 1773.00
  Z"
/>
</svg>
