<?xml version="1.0" encoding="UTF-8" standalone="no"?>
<!DOCTYPE svg PUBLIC "-//W3C//DTD SVG 1.1//EN" "http://www.w3.org/Graphics/SVG/1.1/DTD/svg11.dtd">
<svg xmlns="http://www.w3.org/2000/svg" version="1.1" viewBox="0.00 0.00 1254.00 1254.00">
<g stroke-width="2.00" fill="none" stroke-linecap="butt">
<path stroke="#fccdd3" vector-effect="non-scaling-stroke" d="
  M 22.49 0.00
  Q 26.17 0.79 29.26 0.00"
/>
<path stroke="#fccdd3" vector-effect="non-scaling-stroke" d="
  M 66.05 0.00
  Q 71.11 7.97 69.99 17.74
  C 67.75 37.36 52.89 51.35 36.36 60.07
  C 34.26 61.18 31.15 62.26 29.19 61.84
  Q 13.60 58.50 0.00 50.31"
/>
<path stroke="#fccdd3" vector-effect="non-scaling-stroke" d="
  M 304.66 0.00
  Q 305.02 10.13 308.47 20.81
  Q 314.44 39.28 325.37 56.24
  Q 327.35 59.31 329.85 59.42
  Q 335.21 59.65 342.01 57.75
  Q 352.49 54.82 358.59 52.58
  Q 372.64 47.41 384.20 39.16
  C 397.38 29.75 403.40 14.85 394.88 0.00"
/>
<path stroke="#fccdd3" vector-effect="non-scaling-stroke" d="
  M 638.66 0.00
  Q 642.35 8.21 651.05 13.69
  Q 663.40 21.47 676.19 25.78
  Q 692.28 31.20 709.97 33.43
  Q 711.84 33.66 713.57 33.05
  Q 714.88 32.59 716.27 30.73
  Q 726.63 16.85 729.86 0.00"
/>
<path stroke="#fccdd3" vector-effect="non-scaling-stroke" d="
  M 976.41 0.00
  Q 975.81 8.40 981.37 14.90
  Q 990.89 26.03 1005.11 31.37
  Q 1008.19 32.52 1010.65 31.37
  Q 1017.34 28.21 1022.89 23.90
  Q 1029.38 18.85 1031.16 13.09
  Q 1033.24 6.36 1028.66 0.00"
/>
<path stroke="#fccdd3" vector-effect="non-scaling-stroke" d="
  M 1221.67 0.00
  Q 1217.41 8.31 1219.50 17.76
  C 1221.88 28.55 1229.15 36.41 1238.02 42.48
  Q 1245.64 47.69 1254.00 51.89"
/>
<path stroke="#fccdd3" vector-effect="non-scaling-stroke" d="
  M 1254.00 246.42
  L 1253.86 246.00
  A 0.37 0.36 -41.3 0 0 1253.19 245.96
  C 1245.53 261.10 1246.94 279.30 1253.22 294.60
  A 0.30 0.30 0.0 0 0 1253.79 294.54
  L 1254.00 293.50"
/>
<path stroke="#fccdd3" vector-effect="non-scaling-stroke" d="
  M 1254.00 524.41
  Q 1239.15 524.52 1233.33 536.48
  C 1227.18 549.11 1232.20 562.98 1240.95 572.80
  Q 1246.71 579.27 1254.00 583.84"
/>
<path stroke="#fccdd3" vector-effect="non-scaling-stroke" d="
  M 1254.00 801.27
  Q 1240.13 806.94 1238.65 820.83
  C 1237.76 829.20 1240.39 837.28 1245.72 843.78
  Q 1249.33 848.19 1254.00 850.87"
/>
<path stroke="#fccdd3" vector-effect="non-scaling-stroke" d="
  M 1254.00 1080.57
  Q 1252.24 1078.92 1249.79 1078.18
  Q 1234.74 1073.64 1225.49 1084.71
  C 1222.99 1087.70 1221.53 1091.37 1221.19 1095.25
  C 1220.40 1104.31 1222.44 1112.26 1227.88 1119.83
  Q 1232.50 1126.27 1238.89 1131.86
  Q 1246.29 1138.33 1254.00 1142.59"
/>
<path stroke="#fccdd3" vector-effect="non-scaling-stroke" d="
  M 1191.54 1254.00
  C 1195.80 1238.61 1195.54 1218.06 1181.35 1207.57
  C 1173.95 1202.10 1163.08 1201.96 1155.40 1207.04
  C 1147.26 1212.42 1145.00 1220.03 1143.88 1229.32
  A 0.47 0.47 0.0 0 1 1143.16 1229.66
  Q 1140.83 1228.18 1137.55 1226.48
  C 1126.72 1220.86 1114.89 1223.39 1107.69 1232.70
  Q 1100.70 1241.76 1103.55 1254.00"
/>
<path stroke="#fccdd3" vector-effect="non-scaling-stroke" d="
  M 855.35 1254.00
  Q 861.25 1245.39 862.15 1235.81
  Q 863.73 1218.95 848.99 1210.52
  C 838.65 1204.60 825.37 1209.35 818.41 1218.14
  A 0.67 0.66 53.3 0 1 817.27 1217.97
  C 814.00 1209.87 810.39 1204.40 802.39 1200.40
  C 794.78 1196.60 784.04 1199.05 778.08 1204.25
  C 768.59 1212.53 766.63 1226.43 770.42 1238.37
  Q 773.17 1247.03 776.94 1254.00"
/>
<path stroke="#fccdd3" vector-effect="non-scaling-stroke" d="
  M 518.73 1254.00
  Q 519.75 1247.88 519.12 1240.78
  C 517.95 1227.57 510.55 1213.15 496.49 1210.68
  C 492.25 1209.94 487.63 1209.74 483.94 1211.46
  C 472.74 1216.66 468.54 1226.54 468.81 1238.72
  A 0.49 0.49 0.0 0 1 468.04 1239.14
  C 458.94 1233.01 446.15 1232.39 437.62 1240.11
  Q 431.20 1245.93 429.94 1254.00"
/>
<path stroke="#fccdd3" vector-effect="non-scaling-stroke" d="
  M 188.23 1254.00
  C 196.75 1238.93 205.45 1217.01 196.72 1200.24
  C 192.13 1191.43 185.06 1185.20 174.82 1185.37
  Q 166.89 1185.51 162.03 1189.58
  Q 153.79 1196.48 151.85 1207.41
  A 0.45 0.44 -62.7 0 1 151.10 1207.65
  C 144.84 1201.59 137.81 1198.19 128.69 1199.48
  C 118.67 1200.91 111.32 1209.79 110.26 1219.51
  Q 109.15 1229.60 114.39 1238.61
  Q 119.60 1247.58 127.71 1254.00"
/>
<path stroke="#fccdd3" vector-effect="non-scaling-stroke" d="
  M 0.00 1141.25
  Q 8.42 1146.53 17.81 1149.62
  C 21.87 1150.96 23.93 1149.13 26.93 1146.18
  Q 32.66 1140.53 39.08 1131.85
  Q 47.33 1120.67 50.90 1108.73
  C 53.94 1098.56 53.89 1088.92 48.13 1079.88
  Q 41.31 1069.19 29.40 1069.62
  C 18.72 1070.00 12.56 1077.35 9.31 1086.75
  A 0.34 0.34 0.0 0 1 8.72 1086.84
  Q 5.06 1082.12 0.00 1080.31"
/>
<path stroke="#fccdd3" vector-effect="non-scaling-stroke" d="
  M 0.00 849.60
  Q 5.99 854.45 11.58 857.17
  Q 30.89 866.57 54.67 869.47
  Q 57.93 869.87 59.39 867.79
  Q 71.05 851.13 76.65 830.94
  Q 79.11 822.08 78.82 811.20
  C 78.58 802.17 76.31 796.15 70.89 789.78
  C 61.25 778.44 46.35 777.32 36.06 788.18
  Q 31.73 792.76 29.89 798.43
  Q 29.58 799.37 28.74 806.88
  A 0.32 0.32 0.0 0 1 28.24 807.10
  Q 25.85 805.34 23.69 804.08
  Q 11.88 797.14 0.00 802.32"
/>
<path stroke="#fccdd3" vector-effect="non-scaling-stroke" d="
  M 0.00 582.70
  Q 16.73 593.32 35.94 598.45
  C 39.75 599.46 42.89 600.66 45.39 597.62
  Q 50.72 591.15 56.36 582.27
  Q 60.65 575.49 62.79 570.22
  C 66.72 560.52 69.26 553.52 70.05 545.06
  Q 70.66 538.61 68.68 530.72
  C 66.76 523.06 60.06 514.95 52.40 512.32
  C 36.65 506.93 22.87 518.30 21.01 533.85
  A 0.30 0.29 27.3 0 1 20.50 534.01
  Q 11.86 524.83 0.00 524.33"
/>
<path stroke="#fccdd3" vector-effect="non-scaling-stroke" d="
  M 0.00 288.80
  Q 5.05 304.54 13.80 318.69
  A 3.42 3.41 -12.6 0 0 16.31 320.28
  Q 20.09 320.71 24.76 320.25
  Q 44.99 318.25 61.04 311.41
  C 71.85 306.81 82.62 299.20 86.84 287.36
  C 90.16 278.03 89.08 267.12 81.37 260.37
  Q 70.09 250.51 56.18 255.96
  Q 52.35 257.46 49.23 259.46
  A 0.61 0.61 0.0 0 1 48.29 258.94
  C 48.65 244.21 39.42 231.57 24.00 231.74
  C 13.35 231.86 4.05 238.77 0.00 248.23"
/>
<path stroke="#fccdd3" vector-effect="non-scaling-stroke" d="
  M 831.83 147.28
  Q 832.61 147.75 833.75 147.78
  Q 852.18 148.20 870.74 142.80
  Q 882.30 139.44 891.41 133.40
  C 901.84 126.48 909.56 113.92 906.38 101.33
  C 903.05 88.14 892.29 82.71 879.43 83.61
  C 875.92 83.85 870.76 86.46 868.34 87.91
  Q 868.19 88.00 867.94 87.85
  Q 867.68 87.69 867.69 87.52
  C 867.86 84.70 867.80 78.92 866.40 75.69
  C 861.27 63.86 851.50 56.82 838.26 59.94
  C 825.62 62.92 818.03 75.56 816.69 88.00
  Q 815.53 98.87 817.87 110.68
  Q 821.63 129.64 830.50 145.80
  Q 831.05 146.80 831.83 147.28"
/>
<path stroke="#fccdd3" vector-effect="non-scaling-stroke" d="
  M 1125.85 118.45
  Q 1125.30 116.47 1124.43 112.33
  C 1123.09 106.02 1118.55 102.11 1113.12 98.46
  Q 1109.17 95.81 1105.54 95.50
  Q 1090.75 94.25 1082.76 104.27
  C 1073.41 115.99 1075.36 133.02 1080.14 146.13
  Q 1086.56 163.77 1098.28 178.86
  C 1101.60 183.12 1102.87 185.64 1108.34 184.37
  C 1127.05 180.04 1147.13 171.20 1160.05 157.12
  Q 1169.37 146.97 1168.93 133.26
  C 1168.53 120.83 1160.00 112.17 1147.66 110.86
  Q 1135.92 109.61 1127.00 118.75
  A 0.69 0.68 -30.3 0 1 1125.85 118.45"
/>
<path stroke="#fccdd3" vector-effect="non-scaling-stroke" d="
  M 516.44 130.19
  A 0.53 0.53 0.0 0 1 515.59 130.51
  Q 511.55 127.30 507.32 125.18
  C 502.45 122.74 495.02 123.81 490.12 125.13
  C 479.49 128.01 473.53 138.32 474.02 149.02
  Q 474.46 159.00 480.22 166.64
  Q 483.43 170.90 490.41 176.41
  C 497.95 182.36 509.37 187.11 518.56 189.65
  C 528.46 192.37 535.15 194.38 543.58 194.50
  A 3.63 3.63 0.0 0 0 546.57 193.01
  Q 561.48 172.66 566.67 147.61
  Q 569.07 136.02 565.47 124.01
  C 561.71 111.47 550.48 103.25 537.28 105.00
  Q 530.28 105.92 525.31 110.67
  C 519.47 116.24 517.75 122.77 516.44 130.19"
/>
<path stroke="#fccdd3" vector-effect="non-scaling-stroke" d="
  M 179.28 123.09
  A 0.49 0.48 45.3 0 1 178.46 123.08
  C 175.16 117.82 171.33 113.33 165.14 111.13
  C 144.52 103.79 128.98 120.92 132.63 140.92
  C 134.71 152.37 141.76 161.71 149.64 169.60
  Q 162.22 182.17 179.91 191.65
  Q 185.33 194.55 190.21 190.74
  Q 206.74 177.86 218.14 160.41
  Q 227.08 146.73 227.08 132.99
  C 227.08 124.09 224.96 118.78 219.14 112.35
  C 211.25 103.62 196.66 103.46 188.02 111.27
  C 183.99 114.91 181.89 119.04 179.28 123.09"
/>
<path stroke="#fccdd3" vector-effect="non-scaling-stroke" d="
  M 702.42 239.22
  Q 702.26 239.24 702.11 239.19
  A 0.34 0.32 -6.1 0 1 701.94 239.06
  C 695.91 230.74 685.17 224.11 674.49 227.41
  Q 657.16 232.76 656.59 251.28
  C 656.02 269.37 669.79 283.27 683.06 293.33
  Q 695.50 302.75 710.07 308.55
  Q 710.64 308.77 712.13 308.56
  Q 713.63 308.35 714.12 307.98
  Q 726.53 298.40 735.91 285.93
  C 745.90 272.61 755.32 255.46 749.81 238.23
  Q 744.17 220.57 726.04 220.19
  C 714.86 219.95 706.36 229.28 702.84 238.93
  A 0.34 0.32 -9.9 0 1 702.72 239.10
  Q 702.59 239.20 702.42 239.22"
/>
<path stroke="#fccdd3" vector-effect="non-scaling-stroke" d="
  M 373.36 257.98
  C 373.28 256.78 373.69 255.47 373.57 254.06
  C 372.86 245.32 372.64 238.97 365.69 233.20
  C 360.64 229.01 355.97 226.03 349.04 226.76
  C 345.33 227.15 340.32 227.92 337.18 229.92
  C 329.65 234.70 324.50 241.79 322.39 250.75
  C 317.65 270.84 322.73 292.32 330.34 311.96
  Q 331.41 314.72 333.78 314.91
  C 352.89 316.49 374.17 315.12 391.52 306.78
  C 402.63 301.43 410.92 290.52 410.85 277.72
  C 410.81 270.07 404.03 260.18 396.81 257.46
  Q 386.33 253.50 374.03 258.40
  A 0.49 0.49 0.0 0 1 373.36 257.98"
/>
<path stroke="#fccdd3" vector-effect="non-scaling-stroke" d="
  M 963.68 267.95
  C 956.35 263.76 949.71 260.59 941.50 262.79
  C 930.08 265.86 923.35 275.30 923.48 287.04
  C 923.56 295.28 927.80 303.66 933.80 309.20
  C 940.78 315.63 948.77 319.41 957.94 322.91
  Q 971.72 328.18 987.00 329.49
  C 989.58 329.71 995.16 330.61 997.01 328.02
  Q 1000.49 323.14 1003.23 317.25
  C 1008.96 304.99 1013.15 293.08 1014.62 280.34
  C 1015.96 268.69 1013.33 254.63 1004.07 246.71
  C 993.81 237.93 977.81 238.55 969.65 250.20
  Q 964.25 257.91 964.49 267.46
  A 0.54 0.54 0.0 0 1 963.68 267.95"
/>
<path stroke="#fccdd3" vector-effect="non-scaling-stroke" d="
  M 529.39 383.75
  C 528.17 380.56 526.31 374.99 524.03 372.02
  Q 519.60 366.27 513.41 364.12
  Q 508.72 362.49 500.22 363.42
  C 486.57 364.91 479.72 379.71 479.87 391.76
  Q 479.97 400.09 482.36 406.98
  C 484.47 413.06 487.85 420.56 492.36 427.44
  Q 493.71 429.49 498.53 436.97
  Q 499.90 439.08 509.91 449.67
  C 511.15 450.98 512.99 452.28 514.63 451.91
  Q 525.50 449.46 535.53 444.08
  C 543.29 439.91 548.86 436.77 555.47 431.21
  Q 563.80 424.22 565.62 422.11
  Q 567.57 419.85 571.09 412.39
  Q 574.09 406.02 574.26 401.76
  C 574.54 394.60 572.79 385.86 567.15 381.03
  C 562.15 376.74 557.44 374.03 550.77 374.24
  C 543.09 374.49 535.13 377.53 530.48 383.90
  A 0.63 0.62 52.7 0 1 529.39 383.75"
/>
<path stroke="#fccdd3" vector-effect="non-scaling-stroke" d="
  M 1142.65 388.39
  Q 1141.61 387.28 1140.38 385.57
  Q 1132.47 374.61 1118.20 375.42
  Q 1109.70 375.91 1103.91 382.18
  C 1095.79 390.97 1095.00 403.37 1099.63 414.17
  Q 1102.84 421.63 1105.29 424.73
  Q 1121.02 444.57 1143.91 455.59
  C 1147.01 457.09 1149.39 458.37 1151.63 457.60
  Q 1154.03 456.77 1157.14 454.14
  Q 1160.29 451.48 1165.87 445.86
  Q 1177.98 433.67 1185.14 420.62
  Q 1187.00 417.21 1188.87 411.84
  Q 1192.90 400.21 1189.84 388.26
  Q 1188.06 381.33 1181.53 375.85
  Q 1175.02 370.39 1166.44 370.87
  C 1155.33 371.50 1147.05 378.30 1143.30 388.26
  A 0.39 0.39 0.0 0 1 1142.65 388.39"
/>
<path stroke="#fccdd3" vector-effect="non-scaling-stroke" d="
  M 844.33 407.05
  C 846.06 393.29 844.29 384.49 831.84 377.15
  Q 827.18 374.40 822.04 374.53
  C 812.27 374.76 804.69 379.23 799.25 387.28
  Q 792.86 396.76 791.80 408.32
  Q 790.45 423.26 792.69 436.92
  Q 794.65 448.83 797.14 456.96
  Q 798.04 459.91 800.04 460.47
  Q 805.51 462.02 813.25 462.20
  Q 818.70 462.32 833.24 461.80
  Q 841.46 461.50 851.50 458.74
  Q 861.49 455.99 869.01 449.75
  Q 880.38 440.33 879.44 425.29
  C 878.90 416.47 871.83 409.67 863.95 406.83
  C 857.42 404.47 851.19 405.20 844.78 407.41
  A 0.34 0.34 0.0 0 1 844.33 407.05"
/>
<path stroke="#fccdd3" vector-effect="non-scaling-stroke" d="
  M 190.94 413.26
  A 0.68 0.68 0.0 0 1 190.08 414.14
  C 175.90 409.20 161.13 416.20 157.16 430.90
  C 154.41 441.10 159.18 452.86 167.42 458.81
  Q 175.45 464.61 185.80 466.45
  C 203.21 469.53 221.67 467.48 238.70 462.21
  Q 241.09 461.47 241.55 459.45
  Q 244.22 447.67 244.89 436.60
  C 245.31 429.52 244.48 421.26 244.02 415.29
  Q 243.59 409.63 240.83 401.17
  Q 237.76 391.71 230.36 384.56
  Q 224.20 378.60 215.13 377.59
  C 206.81 376.67 200.15 379.50 194.84 385.91
  Q 185.09 397.65 190.94 413.26"
/>
<path stroke="#fccdd3" vector-effect="non-scaling-stroke" d="
  M 971.87 534.79
  Q 962.41 530.84 954.64 532.94
  C 940.54 536.76 933.58 548.77 937.12 563.46
  Q 938.63 569.72 942.19 573.63
  C 948.67 580.75 956.53 585.41 966.17 587.41
  Q 973.90 589.01 977.69 589.33
  C 989.09 590.31 1002.66 590.23 1015.38 587.60
  Q 1017.67 587.13 1018.18 585.38
  C 1020.26 578.23 1021.67 574.12 1022.64 569.09
  Q 1025.79 552.65 1024.29 536.09
  Q 1022.94 521.10 1013.27 509.99
  C 1007.80 503.70 1001.77 502.42 993.94 502.08
  C 985.62 501.71 978.60 506.99 974.79 513.93
  C 971.65 519.63 970.78 528.68 972.48 534.23
  A 0.46 0.46 0.0 0 1 971.87 534.79"
/>
<path stroke="#fccdd3" vector-effect="non-scaling-stroke" d="
  M 390.49 531.51
  A 0.57 0.57 0.0 0 1 389.58 531.15
  C 388.79 526.32 388.33 522.26 386.67 519.03
  C 383.80 513.42 376.10 505.57 369.24 505.53
  C 358.60 505.47 349.92 507.08 344.15 516.94
  C 335.69 531.39 338.34 544.96 342.50 560.33
  Q 343.43 563.76 348.59 575.38
  C 351.09 580.99 354.05 585.31 357.76 591.70
  Q 359.39 594.51 362.04 594.33
  Q 382.53 592.97 403.85 583.10
  C 407.28 581.51 410.24 579.20 412.86 577.81
  C 416.81 575.70 421.41 571.04 423.61 568.34
  Q 425.67 565.80 428.40 559.65
  C 431.48 552.72 431.98 545.47 428.50 538.86
  C 420.71 524.07 403.43 521.24 390.49 531.51"
/>
<path stroke="#fccdd3" vector-effect="non-scaling-stroke" d="
  M 677.36 532.41
  C 675.64 527.85 672.88 525.05 669.04 520.80
  C 666.85 518.38 664.58 517.06 661.73 516.28
  Q 644.43 511.52 633.74 525.53
  Q 631.97 527.84 631.07 530.82
  Q 628.01 540.93 630.09 551.13
  Q 631.42 557.62 636.45 566.22
  Q 640.49 573.13 645.66 579.85
  Q 647.45 582.18 649.71 584.32
  C 655.93 590.18 661.66 596.54 668.96 601.21
  C 672.87 603.72 676.68 600.74 681.35 598.37
  C 686.31 595.84 688.77 593.79 694.64 589.62
  Q 705.28 582.05 714.84 570.36
  C 719.60 564.53 724.79 552.81 724.07 544.00
  C 723.38 535.55 722.11 530.02 715.32 524.39
  Q 710.09 520.05 702.47 519.21
  C 692.61 518.13 683.08 524.45 678.05 532.48
  A 0.39 0.39 0.0 0 1 677.36 532.41"
/>
<path stroke="#fccdd3" vector-effect="non-scaling-stroke" d="
  M 203.06 655.79
  C 202.32 648.37 198.18 638.59 191.58 634.62
  C 175.86 625.15 158.88 634.48 154.27 651.05
  C 148.25 672.74 160.54 698.76 172.61 716.55
  C 174.90 719.91 175.98 720.51 180.12 719.98
  C 202.68 717.08 242.75 703.01 244.44 675.41
  C 245.42 659.41 233.41 647.67 217.34 649.82
  C 212.50 650.46 207.49 653.30 203.76 656.10
  A 0.44 0.44 0.0 0 1 203.06 655.79"
/>
<path stroke="#fccdd3" vector-effect="non-scaling-stroke" d="
  M 1136.08 672.39
  C 1134.66 665.08 1129.64 655.74 1122.70 652.41
  C 1106.20 644.46 1090.19 655.30 1087.15 672.20
  C 1083.17 694.31 1097.79 719.04 1111.45 735.61
  C 1114.03 738.74 1115.16 739.23 1119.23 738.32
  C 1141.39 733.35 1179.91 715.65 1179.03 688.06
  C 1178.52 672.06 1165.50 661.51 1149.72 665.13
  C 1144.97 666.22 1140.26 669.51 1136.81 672.63
  A 0.44 0.44 0.0 0 1 1136.08 672.39"
/>
<path stroke="#fccdd3" vector-effect="non-scaling-stroke" d="
  M 536.26 688.17
  C 535.15 680.78 530.51 671.23 523.71 667.60
  C 507.52 658.95 491.04 669.13 487.28 685.92
  C 482.37 707.89 495.98 733.26 508.95 750.42
  C 511.40 753.66 512.52 754.20 516.63 753.45
  C 539.02 749.41 578.32 733.30 578.60 705.65
  C 578.76 689.61 566.17 678.50 550.22 681.46
  C 545.42 682.36 540.56 685.45 536.98 688.43
  A 0.44 0.44 0.0 0 1 536.26 688.17"
/>
<path stroke="#fccdd3" vector-effect="non-scaling-stroke" d="
  M 806.48 694.29
  Q 803.32 691.84 798.56 690.21
  Q 785.56 685.78 775.65 693.61
  C 769.06 698.82 766.32 706.68 767.08 715.26
  Q 767.68 721.92 770.28 726.54
  Q 775.11 735.12 783.86 740.89
  Q 793.33 747.15 805.30 750.89
  Q 819.20 755.22 835.29 756.68
  Q 839.36 757.05 841.56 753.37
  C 844.89 747.78 847.78 740.70 850.18 734.98
  Q 854.74 724.08 856.75 712.72
  Q 857.96 705.88 857.41 696.30
  Q 856.99 689.03 854.29 684.10
  Q 849.15 674.69 840.23 669.52
  A 5.76 5.52 -19.7 0 0 839.11 669.02
  C 830.81 666.37 820.79 667.98 814.89 675.00
  Q 811.01 679.61 810.26 681.06
  Q 807.31 686.75 807.43 693.81
  A 0.59 0.59 0.0 0 1 806.48 694.29"
/>
<path stroke="#fccdd3" vector-effect="non-scaling-stroke" d="
  M 376.16 793.36
  A 0.44 0.44 0.0 0 1 375.61 792.89
  C 376.50 783.75 375.58 774.89 368.99 767.71
  Q 363.69 761.95 355.27 761.64
  C 346.06 761.32 339.48 762.86 333.51 770.04
  C 324.80 780.51 323.19 790.84 323.11 804.47
  C 323.03 818.18 326.81 831.76 330.06 844.45
  C 331.03 848.22 333.76 847.66 336.75 848.00
  Q 355.60 850.20 374.35 846.73
  Q 384.32 844.88 390.44 842.27
  Q 406.96 835.22 410.83 817.44
  Q 412.11 811.55 409.41 805.80
  Q 403.30 792.81 389.67 791.70
  C 385.70 791.38 380.14 792.31 376.16 793.36"
/>
<path stroke="#fccdd3" vector-effect="non-scaling-stroke" d="
  M 975.67 825.04
  C 972.31 809.72 955.26 797.97 940.35 807.35
  C 929.07 814.44 926.04 824.38 927.03 837.56
  Q 927.57 844.67 930.61 852.19
  Q 936.49 866.67 946.13 879.12
  C 948.71 882.46 953.35 888.96 958.18 892.21
  A 2.29 2.22 62.7 0 0 959.34 892.60
  Q 962.19 892.73 962.55 892.62
  Q 971.35 890.06 976.28 887.76
  Q 983.14 884.57 993.14 878.40
  C 1003.05 872.29 1012.02 864.39 1016.88 853.80
  C 1019.21 848.74 1019.59 844.80 1019.75 838.99
  C 1020.13 825.38 1009.05 814.98 995.71 815.41
  C 988.36 815.64 981.29 819.81 976.64 825.28
  A 0.56 0.56 0.0 0 1 975.67 825.04"
/>
<path stroke="#fccdd3" vector-effect="non-scaling-stroke" d="
  M 692.47 848.32
  Q 692.29 845.96 692.57 843.27
  C 693.37 835.75 688.98 827.64 682.45 823.17
  Q 671.16 815.43 658.82 821.71
  C 655.66 823.32 651.27 825.46 649.19 828.46
  Q 646.40 832.50 643.27 840.48
  Q 641.49 845.00 641.29 849.50
  Q 640.84 859.16 641.60 867.92
  Q 641.80 870.29 645.49 885.40
  Q 646.42 889.20 648.67 894.64
  Q 652.39 903.61 652.40 903.68
  Q 653.07 906.17 656.73 906.36
  Q 682.77 907.69 706.37 898.16
  Q 716.65 894.01 723.71 885.74
  Q 729.37 879.12 729.96 870.00
  C 730.35 863.95 729.94 859.52 726.46 855.12
  C 722.83 850.52 718.20 846.48 712.32 845.46
  C 706.36 844.43 698.66 845.28 693.12 848.66
  A 0.43 0.43 0.0 0 1 692.47 848.32"
/>
<path stroke="#fccdd3" vector-effect="non-scaling-stroke" d="
  M 189.67 937.96
  A 0.41 0.41 0.0 0 1 189.02 938.31
  C 180.18 932.07 166.57 931.42 158.50 939.49
  C 146.03 951.95 149.62 970.50 162.75 981.03
  Q 171.36 987.93 181.18 991.05
  C 190.06 993.87 199.96 995.82 209.88 996.91
  Q 214.29 997.39 222.31 997.12
  Q 225.43 997.02 226.70 994.46
  Q 235.21 977.33 238.91 957.48
  C 242.02 940.84 239.47 919.78 222.41 911.32
  C 209.59 904.96 197.20 911.85 191.29 923.84
  C 189.22 928.03 189.49 932.43 189.67 937.96"
/>
<path stroke="#fccdd3" vector-effect="non-scaling-stroke" d="
  M 1124.85 942.02
  C 1119.49 940.42 1113.94 938.98 1108.74 939.93
  Q 1094.03 942.63 1090.10 957.60
  C 1086.56 971.13 1095.97 984.23 1107.56 990.18
  C 1117.73 995.39 1128.77 996.91 1140.89 997.59
  Q 1155.12 998.39 1166.14 996.55
  Q 1168.49 996.16 1169.03 994.76
  Q 1175.23 978.48 1176.70 962.00
  Q 1178.08 946.67 1175.22 935.16
  Q 1171.80 921.41 1160.12 913.82
  C 1151.60 908.29 1139.12 909.29 1132.11 916.87
  C 1125.45 924.07 1124.66 932.07 1125.51 941.47
  A 0.52 0.51 -84.4 0 1 1124.85 942.02"
/>
<path stroke="#fccdd3" vector-effect="non-scaling-stroke" d="
  M 497.71 966.16
  C 494.56 961.28 490.84 956.96 485.34 954.66
  C 473.51 949.73 461.39 953.68 455.67 965.02
  C 449.26 977.74 452.94 990.91 460.42 1002.13
  C 466.02 1010.54 473.99 1017.76 482.15 1024.43
  C 487.02 1028.40 492.82 1031.44 498.35 1034.65
  Q 501.68 1036.58 504.53 1035.30
  C 507.88 1033.81 511.50 1030.47 514.19 1028.23
  Q 529.46 1015.50 538.94 999.20
  Q 545.42 988.05 545.04 974.74
  C 544.83 967.35 542.10 961.79 537.19 956.79
  C 529.92 949.38 521.13 948.88 511.87 952.17
  C 507.66 953.67 504.89 956.99 501.87 960.87
  Q 499.86 963.44 498.87 966.04
  A 0.65 0.65 0.0 0 1 497.71 966.16"
/>
<path stroke="#fccdd3" vector-effect="non-scaling-stroke" d="
  M 806.65 998.27
  A 0.40 0.40 0.0 0 1 806.04 998.66
  Q 797.52 993.34 787.26 994.59
  Q 783.08 995.10 780.69 996.48
  C 768.52 1003.51 764.88 1017.73 770.86 1030.11
  Q 774.57 1037.80 781.53 1042.79
  Q 788.73 1047.96 794.76 1050.25
  C 808.95 1055.66 824.45 1057.26 839.73 1057.32
  Q 842.43 1057.33 843.34 1055.86
  Q 845.35 1052.61 849.97 1041.35
  C 852.61 1034.92 853.33 1029.56 855.45 1020.47
  Q 857.22 1012.93 856.64 1000.75
  C 856.36 994.90 854.33 988.40 851.96 983.76
  Q 848.21 976.40 839.57 971.82
  C 831.02 967.28 822.49 969.28 815.10 974.94
  C 808.48 980.02 805.83 990.34 806.65 998.27"
/>
<path stroke="#fccdd3" vector-effect="non-scaling-stroke" d="
  M 353.93 1097.64
  C 352.62 1090.28 347.73 1080.84 340.83 1077.39
  C 324.41 1069.15 308.18 1079.77 304.86 1096.67
  C 300.52 1118.78 314.79 1143.81 328.22 1160.64
  C 330.76 1163.82 331.89 1164.33 335.98 1163.48
  C 358.28 1158.85 397.19 1141.71 396.75 1114.03
  C 396.49 1097.98 383.60 1087.19 367.72 1090.57
  C 362.94 1091.59 358.16 1094.81 354.65 1097.89
  A 0.44 0.44 0.0 0 1 353.93 1097.64"
/>
<path stroke="#fccdd3" vector-effect="non-scaling-stroke" d="
  M 1009.73 1098.35
  A 0.48 0.48 0.0 0 1 1008.88 1098.47
  C 1005.58 1093.61 1000.39 1088.82 994.53 1087.65
  C 974.36 1083.62 965.55 1103.43 970.57 1119.76
  Q 973.85 1130.42 981.44 1138.10
  C 985.09 1141.80 991.22 1147.70 996.67 1151.24
  Q 1006.54 1157.65 1015.23 1161.76
  Q 1017.09 1162.64 1019.02 1162.37
  A 2.11 2.09 24.5 0 0 1019.92 1162.04
  Q 1022.90 1160.07 1025.51 1157.51
  C 1035.93 1147.33 1044.90 1136.03 1049.97 1122.25
  Q 1053.43 1112.85 1052.16 1103.56
  Q 1050.90 1094.34 1043.91 1087.40
  C 1038.88 1082.41 1032.70 1080.75 1026.00 1082.25
  C 1017.67 1084.12 1012.30 1090.67 1009.73 1098.35"
/>
<path stroke="#fccdd3" vector-effect="non-scaling-stroke" d="
  M 643.90 1118.73
  A 0.40 0.40 0.0 0 1 643.26 1118.55
  C 641.44 1112.64 637.41 1105.42 631.64 1102.53
  Q 627.70 1100.55 626.54 1100.22
  C 616.36 1097.28 605.37 1102.57 600.68 1111.85
  C 599.71 1113.77 597.73 1117.90 597.47 1120.50
  C 596.34 1131.60 598.09 1140.97 603.27 1151.27
  Q 608.12 1160.91 610.65 1164.17
  Q 618.70 1174.55 622.93 1179.38
  C 626.18 1183.11 629.85 1187.37 634.28 1185.76
  C 651.30 1179.55 667.75 1168.81 678.91 1154.05
  Q 682.76 1148.97 684.13 1143.94
  C 685.98 1137.17 687.36 1129.64 684.58 1123.04
  Q 682.88 1119.03 679.10 1114.89
  C 670.04 1104.99 655.95 1106.88 647.00 1115.77
  Q 644.72 1118.02 643.90 1118.73"
/>
</g>
<path fill="#fca6bc" d="
  M 22.49 0.00
  Q 26.17 0.79 29.26 0.00
  L 66.05 0.00
  Q 71.11 7.97 69.99 17.74
  C 67.75 37.36 52.89 51.35 36.36 60.07
  C 34.26 61.18 31.15 62.26 29.19 61.84
  Q 13.60 58.50 0.00 50.31
  L 0.00 0.00
  L 22.49 0.00
  Z"
/>
<path fill="#fbf4e9" d="
  M 29.26 0.00
  Q 26.17 0.79 22.49 0.00
  L 29.26 0.00
  Z"
/>
<path fill="#fbf4e9" d="
  M 304.66 0.00
  Q 305.02 10.13 308.47 20.81
  Q 314.44 39.28 325.37 56.24
  Q 327.35 59.31 329.85 59.42
  Q 335.21 59.65 342.01 57.75
  Q 352.49 54.82 358.59 52.58
  Q 372.64 47.41 384.20 39.16
  C 397.38 29.75 403.40 14.85 394.88 0.00
  L 638.66 0.00
  Q 642.35 8.21 651.05 13.69
  Q 663.40 21.47 676.19 25.78
  Q 692.28 31.20 709.97 33.43
  Q 711.84 33.66 713.57 33.05
  Q 714.88 32.59 716.27 30.73
  Q 726.63 16.85 729.86 0.00
  L 976.41 0.00
  Q 975.81 8.40 981.37 14.90
  Q 990.89 26.03 1005.11 31.37
  Q 1008.19 32.52 1010.65 31.37
  Q 1017.34 28.21 1022.89 23.90
  Q 1029.38 18.85 1031.16 13.09
  Q 1033.24 6.36 1028.66 0.00
  L 1221.67 0.00
  Q 1217.41 8.31 1219.50 17.76
  C 1221.88 28.55 1229.15 36.41 1238.02 42.48
  Q 1245.64 47.69 1254.00 51.89
  L 1254.00 246.42
  L 1253.86 246.00
  A 0.37 0.36 -41.3 0 0 1253.19 245.96
  C 1245.53 261.10 1246.94 279.30 1253.22 294.60
  A 0.30 0.30 0.0 0 0 1253.79 294.54
  L 1254.00 293.50
  L 1254.00 524.41
  Q 1239.15 524.52 1233.33 536.48
  C 1227.18 549.11 1232.20 562.98 1240.95 572.80
  Q 1246.71 579.27 1254.00 583.84
  L 1254.00 801.27
  Q 1240.13 806.94 1238.65 820.83
  C 1237.76 829.20 1240.39 837.28 1245.72 843.78
  Q 1249.33 848.19 1254.00 850.87
  L 1254.00 1080.57
  Q 1252.24 1078.92 1249.79 1078.18
  Q 1234.74 1073.64 1225.49 1084.71
  C 1222.99 1087.70 1221.53 1091.37 1221.19 1095.25
  C 1220.40 1104.31 1222.44 1112.26 1227.88 1119.83
  Q 1232.50 1126.27 1238.89 1131.86
  Q 1246.29 1138.33 1254.00 1142.59
  L 1254.00 1254.00
  L 1191.54 1254.00
  C 1195.80 1238.61 1195.54 1218.06 1181.35 1207.57
  C 1173.95 1202.10 1163.08 1201.96 1155.40 1207.04
  C 1147.26 1212.42 1145.00 1220.03 1143.88 1229.32
  A 0.47 0.47 0.0 0 1 1143.16 1229.66
  Q 1140.83 1228.18 1137.55 1226.48
  C 1126.72 1220.86 1114.89 1223.39 1107.69 1232.70
  Q 1100.70 1241.76 1103.55 1254.00
  L 855.35 1254.00
  Q 861.25 1245.39 862.15 1235.81
  Q 863.73 1218.95 848.99 1210.52
  C 838.65 1204.60 825.37 1209.35 818.41 1218.14
  A 0.67 0.66 53.3 0 1 817.27 1217.97
  C 814.00 1209.87 810.39 1204.40 802.39 1200.40
  C 794.78 1196.60 784.04 1199.05 778.08 1204.25
  C 768.59 1212.53 766.63 1226.43 770.42 1238.37
  Q 773.17 1247.03 776.94 1254.00
  L 518.73 1254.00
  Q 519.75 1247.88 519.12 1240.78
  C 517.95 1227.57 510.55 1213.15 496.49 1210.68
  C 492.25 1209.94 487.63 1209.74 483.94 1211.46
  C 472.74 1216.66 468.54 1226.54 468.81 1238.72
  A 0.49 0.49 0.0 0 1 468.04 1239.14
  C 458.94 1233.01 446.15 1232.39 437.62 1240.11
  Q 431.20 1245.93 429.94 1254.00
  L 188.23 1254.00
  C 196.75 1238.93 205.45 1217.01 196.72 1200.24
  C 192.13 1191.43 185.06 1185.20 174.82 1185.37
  Q 166.89 1185.51 162.03 1189.58
  Q 153.79 1196.48 151.85 1207.41
  A 0.45 0.44 -62.7 0 1 151.10 1207.65
  C 144.84 1201.59 137.81 1198.19 128.69 1199.48
  C 118.67 1200.91 111.32 1209.79 110.26 1219.51
  Q 109.15 1229.60 114.39 1238.61
  Q 119.60 1247.58 127.71 1254.00
  L 0.00 1254.00
  L 0.00 1141.25
  Q 8.42 1146.53 17.81 1149.62
  C 21.87 1150.96 23.93 1149.13 26.93 1146.18
  Q 32.66 1140.53 39.08 1131.85
  Q 47.33 1120.67 50.90 1108.73
  C 53.94 1098.56 53.89 1088.92 48.13 1079.88
  Q 41.31 1069.19 29.40 1069.62
  C 18.72 1070.00 12.56 1077.35 9.31 1086.75
  A 0.34 0.34 0.0 0 1 8.72 1086.84
  Q 5.06 1082.12 0.00 1080.31
  L 0.00 849.60
  Q 5.99 854.45 11.58 857.17
  Q 30.89 866.57 54.67 869.47
  Q 57.93 869.87 59.39 867.79
  Q 71.05 851.13 76.65 830.94
  Q 79.11 822.08 78.82 811.20
  C 78.58 802.17 76.31 796.15 70.89 789.78
  C 61.25 778.44 46.35 777.32 36.06 788.18
  Q 31.73 792.76 29.89 798.43
  Q 29.58 799.37 28.74 806.88
  A 0.32 0.32 0.0 0 1 28.24 807.10
  Q 25.85 805.34 23.69 804.08
  Q 11.88 797.14 0.00 802.32
  L 0.00 582.70
  Q 16.73 593.32 35.94 598.45
  C 39.75 599.46 42.89 600.66 45.39 597.62
  Q 50.72 591.15 56.36 582.27
  Q 60.65 575.49 62.79 570.22
  C 66.72 560.52 69.26 553.52 70.05 545.06
  Q 70.66 538.61 68.68 530.72
  C 66.76 523.06 60.06 514.95 52.40 512.32
  C 36.65 506.93 22.87 518.30 21.01 533.85
  A 0.30 0.29 27.3 0 1 20.50 534.01
  Q 11.86 524.83 0.00 524.33
  L 0.00 288.80
  Q 5.05 304.54 13.80 318.69
  A 3.42 3.41 -12.6 0 0 16.31 320.28
  Q 20.09 320.71 24.76 320.25
  Q 44.99 318.25 61.04 311.41
  C 71.85 306.81 82.62 299.20 86.84 287.36
  C 90.16 278.03 89.08 267.12 81.37 260.37
  Q 70.09 250.51 56.18 255.96
  Q 52.35 257.46 49.23 259.46
  A 0.61 0.61 0.0 0 1 48.29 258.94
  C 48.65 244.21 39.42 231.57 24.00 231.74
  C 13.35 231.86 4.05 238.77 0.00 248.23
  L 0.00 50.31
  Q 13.60 58.50 29.19 61.84
  C 31.15 62.26 34.26 61.18 36.36 60.07
  C 52.89 51.35 67.75 37.36 69.99 17.74
  Q 71.11 7.97 66.05 0.00
  L 304.66 0.00
  Z
  M 831.83 147.28
  Q 832.61 147.75 833.75 147.78
  Q 852.18 148.20 870.74 142.80
  Q 882.30 139.44 891.41 133.40
  C 901.84 126.48 909.56 113.92 906.38 101.33
  C 903.05 88.14 892.29 82.71 879.43 83.61
  C 875.92 83.85 870.76 86.46 868.34 87.91
  Q 868.19 88.00 867.94 87.85
  Q 867.68 87.69 867.69 87.52
  C 867.86 84.70 867.80 78.92 866.40 75.69
  C 861.27 63.86 851.50 56.82 838.26 59.94
  C 825.62 62.92 818.03 75.56 816.69 88.00
  Q 815.53 98.87 817.87 110.68
  Q 821.63 129.64 830.50 145.80
  Q 831.05 146.80 831.83 147.28
  Z
  M 1125.85 118.45
  Q 1125.30 116.47 1124.43 112.33
  C 1123.09 106.02 1118.55 102.11 1113.12 98.46
  Q 1109.17 95.81 1105.54 95.50
  Q 1090.75 94.25 1082.76 104.27
  C 1073.41 115.99 1075.36 133.02 1080.14 146.13
  Q 1086.56 163.77 1098.28 178.86
  C 1101.60 183.12 1102.87 185.64 1108.34 184.37
  C 1127.05 180.04 1147.13 171.20 1160.05 157.12
  Q 1169.37 146.97 1168.93 133.26
  C 1168.53 120.83 1160.00 112.17 1147.66 110.86
  Q 1135.92 109.61 1127.00 118.75
  A 0.69 0.68 -30.3 0 1 1125.85 118.45
  Z
  M 516.44 130.19
  A 0.53 0.53 0.0 0 1 515.59 130.51
  Q 511.55 127.30 507.32 125.18
  C 502.45 122.74 495.02 123.81 490.12 125.13
  C 479.49 128.01 473.53 138.32 474.02 149.02
  Q 474.46 159.00 480.22 166.64
  Q 483.43 170.90 490.41 176.41
  C 497.95 182.36 509.37 187.11 518.56 189.65
  C 528.46 192.37 535.15 194.38 543.58 194.50
  A 3.63 3.63 0.0 0 0 546.57 193.01
  Q 561.48 172.66 566.67 147.61
  Q 569.07 136.02 565.47 124.01
  C 561.71 111.47 550.48 103.25 537.28 105.00
  Q 530.28 105.92 525.31 110.67
  C 519.47 116.24 517.75 122.77 516.44 130.19
  Z
  M 179.28 123.09
  A 0.49 0.48 45.3 0 1 178.46 123.08
  C 175.16 117.82 171.33 113.33 165.14 111.13
  C 144.52 103.79 128.98 120.92 132.63 140.92
  C 134.71 152.37 141.76 161.71 149.64 169.60
  Q 162.22 182.17 179.91 191.65
  Q 185.33 194.55 190.21 190.74
  Q 206.74 177.86 218.14 160.41
  Q 227.08 146.73 227.08 132.99
  C 227.08 124.09 224.96 118.78 219.14 112.35
  C 211.25 103.62 196.66 103.46 188.02 111.27
  C 183.99 114.91 181.89 119.04 179.28 123.09
  Z
  M 702.42 239.22
  Q 702.26 239.24 702.11 239.19
  A 0.34 0.32 -6.1 0 1 701.94 239.06
  C 695.91 230.74 685.17 224.11 674.49 227.41
  Q 657.16 232.76 656.59 251.28
  C 656.02 269.37 669.79 283.27 683.06 293.33
  Q 695.50 302.75 710.07 308.55
  Q 710.64 308.77 712.13 308.56
  Q 713.63 308.35 714.12 307.98
  Q 726.53 298.40 735.91 285.93
  C 745.90 272.61 755.32 255.46 749.81 238.23
  Q 744.17 220.57 726.04 220.19
  C 714.86 219.95 706.36 229.28 702.84 238.93
  A 0.34 0.32 -9.9 0 1 702.72 239.10
  Q 702.59 239.20 702.42 239.22
  Z
  M 373.36 257.98
  C 373.28 256.78 373.69 255.47 373.57 254.06
  C 372.86 245.32 372.64 238.97 365.69 233.20
  C 360.64 229.01 355.97 226.03 349.04 226.76
  C 345.33 227.15 340.32 227.92 337.18 229.92
  C 329.65 234.70 324.50 241.79 322.39 250.75
  C 317.65 270.84 322.73 292.32 330.34 311.96
  Q 331.41 314.72 333.78 314.91
  C 352.89 316.49 374.17 315.12 391.52 306.78
  C 402.63 301.43 410.92 290.52 410.85 277.72
  C 410.81 270.07 404.03 260.18 396.81 257.46
  Q 386.33 253.50 374.03 258.40
  A 0.49 0.49 0.0 0 1 373.36 257.98
  Z
  M 963.68 267.95
  C 956.35 263.76 949.71 260.59 941.50 262.79
  C 930.08 265.86 923.35 275.30 923.48 287.04
  C 923.56 295.28 927.80 303.66 933.80 309.20
  C 940.78 315.63 948.77 319.41 957.94 322.91
  Q 971.72 328.18 987.00 329.49
  C 989.58 329.71 995.16 330.61 997.01 328.02
  Q 1000.49 323.14 1003.23 317.25
  C 1008.96 304.99 1013.15 293.08 1014.62 280.34
  C 1015.96 268.69 1013.33 254.63 1004.07 246.71
  C 993.81 237.93 977.81 238.55 969.65 250.20
  Q 964.25 257.91 964.49 267.46
  A 0.54 0.54 0.0 0 1 963.68 267.95
  Z
  M 529.39 383.75
  C 528.17 380.56 526.31 374.99 524.03 372.02
  Q 519.60 366.27 513.41 364.12
  Q 508.72 362.49 500.22 363.42
  C 486.57 364.91 479.72 379.71 479.87 391.76
  Q 479.97 400.09 482.36 406.98
  C 484.47 413.06 487.85 420.56 492.36 427.44
  Q 493.71 429.49 498.53 436.97
  Q 499.90 439.08 509.91 449.67
  C 511.15 450.98 512.99 452.28 514.63 451.91
  Q 525.50 449.46 535.53 444.08
  C 543.29 439.91 548.86 436.77 555.47 431.21
  Q 563.80 424.22 565.62 422.11
  Q 567.57 419.85 571.09 412.39
  Q 574.09 406.02 574.26 401.76
  C 574.54 394.60 572.79 385.86 567.15 381.03
  C 562.15 376.74 557.44 374.03 550.77 374.24
  C 543.09 374.49 535.13 377.53 530.48 383.90
  A 0.63 0.62 52.7 0 1 529.39 383.75
  Z
  M 1142.65 388.39
  Q 1141.61 387.28 1140.38 385.57
  Q 1132.47 374.61 1118.20 375.42
  Q 1109.70 375.91 1103.91 382.18
  C 1095.79 390.97 1095.00 403.37 1099.63 414.17
  Q 1102.84 421.63 1105.29 424.73
  Q 1121.02 444.57 1143.91 455.59
  C 1147.01 457.09 1149.39 458.37 1151.63 457.60
  Q 1154.03 456.77 1157.14 454.14
  Q 1160.29 451.48 1165.87 445.86
  Q 1177.98 433.67 1185.14 420.62
  Q 1187.00 417.21 1188.87 411.84
  Q 1192.90 400.21 1189.84 388.26
  Q 1188.06 381.33 1181.53 375.85
  Q 1175.02 370.39 1166.44 370.87
  C 1155.33 371.50 1147.05 378.30 1143.30 388.26
  A 0.39 0.39 0.0 0 1 1142.65 388.39
  Z
  M 844.33 407.05
  C 846.06 393.29 844.29 384.49 831.84 377.15
  Q 827.18 374.40 822.04 374.53
  C 812.27 374.76 804.69 379.23 799.25 387.28
  Q 792.86 396.76 791.80 408.32
  Q 790.45 423.26 792.69 436.92
  Q 794.65 448.83 797.14 456.96
  Q 798.04 459.91 800.04 460.47
  Q 805.51 462.02 813.25 462.20
  Q 818.70 462.32 833.24 461.80
  Q 841.46 461.50 851.50 458.74
  Q 861.49 455.99 869.01 449.75
  Q 880.38 440.33 879.44 425.29
  C 878.90 416.47 871.83 409.67 863.95 406.83
  C 857.42 404.47 851.19 405.20 844.78 407.41
  A 0.34 0.34 0.0 0 1 844.33 407.05
  Z
  M 190.94 413.26
  A 0.68 0.68 0.0 0 1 190.08 414.14
  C 175.90 409.20 161.13 416.20 157.16 430.90
  C 154.41 441.10 159.18 452.86 167.42 458.81
  Q 175.45 464.61 185.80 466.45
  C 203.21 469.53 221.67 467.48 238.70 462.21
  Q 241.09 461.47 241.55 459.45
  Q 244.22 447.67 244.89 436.60
  C 245.31 429.52 244.48 421.26 244.02 415.29
  Q 243.59 409.63 240.83 401.17
  Q 237.76 391.71 230.36 384.56
  Q 224.20 378.60 215.13 377.59
  C 206.81 376.67 200.15 379.50 194.84 385.91
  Q 185.09 397.65 190.94 413.26
  Z
  M 971.87 534.79
  Q 962.41 530.84 954.64 532.94
  C 940.54 536.76 933.58 548.77 937.12 563.46
  Q 938.63 569.72 942.19 573.63
  C 948.67 580.75 956.53 585.41 966.17 587.41
  Q 973.90 589.01 977.69 589.33
  C 989.09 590.31 1002.66 590.23 1015.38 587.60
  Q 1017.67 587.13 1018.18 585.38
  C 1020.26 578.23 1021.67 574.12 1022.64 569.09
  Q 1025.79 552.65 1024.29 536.09
  Q 1022.94 521.10 1013.27 509.99
  C 1007.80 503.70 1001.77 502.42 993.94 502.08
  C 985.62 501.71 978.60 506.99 974.79 513.93
  C 971.65 519.63 970.78 528.68 972.48 534.23
  A 0.46 0.46 0.0 0 1 971.87 534.79
  Z
  M 390.49 531.51
  A 0.57 0.57 0.0 0 1 389.58 531.15
  C 388.79 526.32 388.33 522.26 386.67 519.03
  C 383.80 513.42 376.10 505.57 369.24 505.53
  C 358.60 505.47 349.92 507.08 344.15 516.94
  C 335.69 531.39 338.34 544.96 342.50 560.33
  Q 343.43 563.76 348.59 575.38
  C 351.09 580.99 354.05 585.31 357.76 591.70
  Q 359.39 594.51 362.04 594.33
  Q 382.53 592.97 403.85 583.10
  C 407.28 581.51 410.24 579.20 412.86 577.81
  C 416.81 575.70 421.41 571.04 423.61 568.34
  Q 425.67 565.80 428.40 559.65
  C 431.48 552.72 431.98 545.47 428.50 538.86
  C 420.71 524.07 403.43 521.24 390.49 531.51
  Z
  M 677.36 532.41
  C 675.64 527.85 672.88 525.05 669.04 520.80
  C 666.85 518.38 664.58 517.06 661.73 516.28
  Q 644.43 511.52 633.74 525.53
  Q 631.97 527.84 631.07 530.82
  Q 628.01 540.93 630.09 551.13
  Q 631.42 557.62 636.45 566.22
  Q 640.49 573.13 645.66 579.85
  Q 647.45 582.18 649.71 584.32
  C 655.93 590.18 661.66 596.54 668.96 601.21
  C 672.87 603.72 676.68 600.74 681.35 598.37
  C 686.31 595.84 688.77 593.79 694.64 589.62
  Q 705.28 582.05 714.84 570.36
  C 719.60 564.53 724.79 552.81 724.07 544.00
  C 723.38 535.55 722.11 530.02 715.32 524.39
  Q 710.09 520.05 702.47 519.21
  C 692.61 518.13 683.08 524.45 678.05 532.48
  A 0.39 0.39 0.0 0 1 677.36 532.41
  Z
  M 203.06 655.79
  C 202.32 648.37 198.18 638.59 191.58 634.62
  C 175.86 625.15 158.88 634.48 154.27 651.05
  C 148.25 672.74 160.54 698.76 172.61 716.55
  C 174.90 719.91 175.98 720.51 180.12 719.98
  C 202.68 717.08 242.75 703.01 244.44 675.41
  C 245.42 659.41 233.41 647.67 217.34 649.82
  C 212.50 650.46 207.49 653.30 203.76 656.10
  A 0.44 0.44 0.0 0 1 203.06 655.79
  Z
  M 1136.08 672.39
  C 1134.66 665.08 1129.64 655.74 1122.70 652.41
  C 1106.20 644.46 1090.19 655.30 1087.15 672.20
  C 1083.17 694.31 1097.79 719.04 1111.45 735.61
  C 1114.03 738.74 1115.16 739.23 1119.23 738.32
  C 1141.39 733.35 1179.91 715.65 1179.03 688.06
  C 1178.52 672.06 1165.50 661.51 1149.72 665.13
  C 1144.97 666.22 1140.26 669.51 1136.81 672.63
  A 0.44 0.44 0.0 0 1 1136.08 672.39
  Z
  M 536.26 688.17
  C 535.15 680.78 530.51 671.23 523.71 667.60
  C 507.52 658.95 491.04 669.13 487.28 685.92
  C 482.37 707.89 495.98 733.26 508.95 750.42
  C 511.40 753.66 512.52 754.20 516.63 753.45
  C 539.02 749.41 578.32 733.30 578.60 705.65
  C 578.76 689.61 566.17 678.50 550.22 681.46
  C 545.42 682.36 540.56 685.45 536.98 688.43
  A 0.44 0.44 0.0 0 1 536.26 688.17
  Z
  M 806.48 694.29
  Q 803.32 691.84 798.56 690.21
  Q 785.56 685.78 775.65 693.61
  C 769.06 698.82 766.32 706.68 767.08 715.26
  Q 767.68 721.92 770.28 726.54
  Q 775.11 735.12 783.86 740.89
  Q 793.33 747.15 805.30 750.89
  Q 819.20 755.22 835.29 756.68
  Q 839.36 757.05 841.56 753.37
  C 844.89 747.78 847.78 740.70 850.18 734.98
  Q 854.74 724.08 856.75 712.72
  Q 857.96 705.88 857.41 696.30
  Q 856.99 689.03 854.29 684.10
  Q 849.15 674.69 840.23 669.52
  A 5.76 5.52 -19.7 0 0 839.11 669.02
  C 830.81 666.37 820.79 667.98 814.89 675.00
  Q 811.01 679.61 810.26 681.06
  Q 807.31 686.75 807.43 693.81
  A 0.59 0.59 0.0 0 1 806.48 694.29
  Z
  M 376.16 793.36
  A 0.44 0.44 0.0 0 1 375.61 792.89
  C 376.50 783.75 375.58 774.89 368.99 767.71
  Q 363.69 761.95 355.27 761.64
  C 346.06 761.32 339.48 762.86 333.51 770.04
  C 324.80 780.51 323.19 790.84 323.11 804.47
  C 323.03 818.18 326.81 831.76 330.06 844.45
  C 331.03 848.22 333.76 847.66 336.75 848.00
  Q 355.60 850.20 374.35 846.73
  Q 384.32 844.88 390.44 842.27
  Q 406.96 835.22 410.83 817.44
  Q 412.11 811.55 409.41 805.80
  Q 403.30 792.81 389.67 791.70
  C 385.70 791.38 380.14 792.31 376.16 793.36
  Z
  M 975.67 825.04
  C 972.31 809.72 955.26 797.97 940.35 807.35
  C 929.07 814.44 926.04 824.38 927.03 837.56
  Q 927.57 844.67 930.61 852.19
  Q 936.49 866.67 946.13 879.12
  C 948.71 882.46 953.35 888.96 958.18 892.21
  A 2.29 2.22 62.7 0 0 959.34 892.60
  Q 962.19 892.73 962.55 892.62
  Q 971.35 890.06 976.28 887.76
  Q 983.14 884.57 993.14 878.40
  C 1003.05 872.29 1012.02 864.39 1016.88 853.80
  C 1019.21 848.74 1019.59 844.80 1019.75 838.99
  C 1020.13 825.38 1009.05 814.98 995.71 815.41
  C 988.36 815.64 981.29 819.81 976.64 825.28
  A 0.56 0.56 0.0 0 1 975.67 825.04
  Z
  M 692.47 848.32
  Q 692.29 845.96 692.57 843.27
  C 693.37 835.75 688.98 827.64 682.45 823.17
  Q 671.16 815.43 658.82 821.71
  C 655.66 823.32 651.27 825.46 649.19 828.46
  Q 646.40 832.50 643.27 840.48
  Q 641.49 845.00 641.29 849.50
  Q 640.84 859.16 641.60 867.92
  Q 641.80 870.29 645.49 885.40
  Q 646.42 889.20 648.67 894.64
  Q 652.39 903.61 652.40 903.68
  Q 653.07 906.17 656.73 906.36
  Q 682.77 907.69 706.37 898.16
  Q 716.65 894.01 723.71 885.74
  Q 729.37 879.12 729.96 870.00
  C 730.35 863.95 729.94 859.52 726.46 855.12
  C 722.83 850.52 718.20 846.48 712.32 845.46
  C 706.36 844.43 698.66 845.28 693.12 848.66
  A 0.43 0.43 0.0 0 1 692.47 848.32
  Z
  M 189.67 937.96
  A 0.41 0.41 0.0 0 1 189.02 938.31
  C 180.18 932.07 166.57 931.42 158.50 939.49
  C 146.03 951.95 149.62 970.50 162.75 981.03
  Q 171.36 987.93 181.18 991.05
  C 190.06 993.87 199.96 995.82 209.88 996.91
  Q 214.29 997.39 222.31 997.12
  Q 225.43 997.02 226.70 994.46
  Q 235.21 977.33 238.91 957.48
  C 242.02 940.84 239.47 919.78 222.41 911.32
  C 209.59 904.96 197.20 911.85 191.29 923.84
  C 189.22 928.03 189.49 932.43 189.67 937.96
  Z
  M 1124.85 942.02
  C 1119.49 940.42 1113.94 938.98 1108.74 939.93
  Q 1094.03 942.63 1090.10 957.60
  C 1086.56 971.13 1095.97 984.23 1107.56 990.18
  C 1117.73 995.39 1128.77 996.91 1140.89 997.59
  Q 1155.12 998.39 1166.14 996.55
  Q 1168.49 996.16 1169.03 994.76
  Q 1175.23 978.48 1176.70 962.00
  Q 1178.08 946.67 1175.22 935.16
  Q 1171.80 921.41 1160.12 913.82
  C 1151.60 908.29 1139.12 909.29 1132.11 916.87
  C 1125.45 924.07 1124.66 932.07 1125.51 941.47
  A 0.52 0.51 -84.4 0 1 1124.85 942.02
  Z
  M 497.71 966.16
  C 494.56 961.28 490.84 956.96 485.34 954.66
  C 473.51 949.73 461.39 953.68 455.67 965.02
  C 449.26 977.74 452.94 990.91 460.42 1002.13
  C 466.02 1010.54 473.99 1017.76 482.15 1024.43
  C 487.02 1028.40 492.82 1031.44 498.35 1034.65
  Q 501.68 1036.58 504.53 1035.30
  C 507.88 1033.81 511.50 1030.47 514.19 1028.23
  Q 529.46 1015.50 538.94 999.20
  Q 545.42 988.05 545.04 974.74
  C 544.83 967.35 542.10 961.79 537.19 956.79
  C 529.92 949.38 521.13 948.88 511.87 952.17
  C 507.66 953.67 504.89 956.99 501.87 960.87
  Q 499.86 963.44 498.87 966.04
  A 0.65 0.65 0.0 0 1 497.71 966.16
  Z
  M 806.65 998.27
  A 0.40 0.40 0.0 0 1 806.04 998.66
  Q 797.52 993.34 787.26 994.59
  Q 783.08 995.10 780.69 996.48
  C 768.52 1003.51 764.88 1017.73 770.86 1030.11
  Q 774.57 1037.80 781.53 1042.79
  Q 788.73 1047.96 794.76 1050.25
  C 808.95 1055.66 824.45 1057.26 839.73 1057.32
  Q 842.43 1057.33 843.34 1055.86
  Q 845.35 1052.61 849.97 1041.35
  C 852.61 1034.92 853.33 1029.56 855.45 1020.47
  Q 857.22 1012.93 856.64 1000.75
  C 856.36 994.90 854.33 988.40 851.96 983.76
  Q 848.21 976.40 839.57 971.82
  C 831.02 967.28 822.49 969.28 815.10 974.94
  C 808.48 980.02 805.83 990.34 806.65 998.27
  Z
  M 353.93 1097.64
  C 352.62 1090.28 347.73 1080.84 340.83 1077.39
  C 324.41 1069.15 308.18 1079.77 304.86 1096.67
  C 300.52 1118.78 314.79 1143.81 328.22 1160.64
  C 330.76 1163.82 331.89 1164.33 335.98 1163.48
  C 358.28 1158.85 397.19 1141.71 396.75 1114.03
  C 396.49 1097.98 383.60 1087.19 367.72 1090.57
  C 362.94 1091.59 358.16 1094.81 354.65 1097.89
  A 0.44 0.44 0.0 0 1 353.93 1097.64
  Z
  M 1009.73 1098.35
  A 0.48 0.48 0.0 0 1 1008.88 1098.47
  C 1005.58 1093.61 1000.39 1088.82 994.53 1087.65
  C 974.36 1083.62 965.55 1103.43 970.57 1119.76
  Q 973.85 1130.42 981.44 1138.10
  C 985.09 1141.80 991.22 1147.70 996.67 1151.24
  Q 1006.54 1157.65 1015.23 1161.76
  Q 1017.09 1162.64 1019.02 1162.37
  A 2.11 2.09 24.5 0 0 1019.92 1162.04
  Q 1022.90 1160.07 1025.51 1157.51
  C 1035.93 1147.33 1044.90 1136.03 1049.97 1122.25
  Q 1053.43 1112.85 1052.16 1103.56
  Q 1050.90 1094.34 1043.91 1087.40
  C 1038.88 1082.41 1032.70 1080.75 1026.00 1082.25
  C 1017.67 1084.12 1012.30 1090.67 1009.73 1098.35
  Z
  M 643.90 1118.73
  A 0.40 0.40 0.0 0 1 643.26 1118.55
  C 641.44 1112.64 637.41 1105.42 631.64 1102.53
  Q 627.70 1100.55 626.54 1100.22
  C 616.36 1097.28 605.37 1102.57 600.68 1111.85
  C 599.71 1113.77 597.73 1117.90 597.47 1120.50
  C 596.34 1131.60 598.09 1140.97 603.27 1151.27
  Q 608.12 1160.91 610.65 1164.17
  Q 618.70 1174.55 622.93 1179.38
  C 626.18 1183.11 629.85 1187.37 634.28 1185.76
  C 651.30 1179.55 667.75 1168.81 678.91 1154.05
  Q 682.76 1148.97 684.13 1143.94
  C 685.98 1137.17 687.36 1129.64 684.58 1123.04
  Q 682.88 1119.03 679.10 1114.89
  C 670.04 1104.99 655.95 1106.88 647.00 1115.77
  Q 644.72 1118.02 643.90 1118.73
  Z"
/>
<path fill="#fca6bc" d="
  M 394.88 0.00
  C 403.40 14.85 397.38 29.75 384.20 39.16
  Q 372.64 47.41 358.59 52.58
  Q 352.49 54.82 342.01 57.75
  Q 335.21 59.65 329.85 59.42
  Q 327.35 59.31 325.37 56.24
  Q 314.44 39.28 308.47 20.81
  Q 305.02 10.13 304.66 0.00
  L 394.88 0.00
  Z"
/>
<path fill="#fca6bc" d="
  M 729.86 0.00
  Q 726.63 16.85 716.27 30.73
  Q 714.88 32.59 713.57 33.05
  Q 711.84 33.66 709.97 33.43
  Q 692.28 31.20 676.19 25.78
  Q 663.40 21.47 651.05 13.69
  Q 642.35 8.21 638.66 0.00
  L 729.86 0.00
  Z"
/>
<path fill="#fca6bc" d="
  M 1028.66 0.00
  Q 1033.24 6.36 1031.16 13.09
  Q 1029.38 18.85 1022.89 23.90
  Q 1017.34 28.21 1010.65 31.37
  Q 1008.19 32.52 1005.11 31.37
  Q 990.89 26.03 981.37 14.90
  Q 975.81 8.40 976.41 0.00
  L 1028.66 0.00
  Z"
/>
<path fill="#fca6bc" d="
  M 1254.00 0.00
  L 1254.00 51.89
  Q 1245.64 47.69 1238.02 42.48
  C 1229.15 36.41 1221.88 28.55 1219.50 17.76
  Q 1217.41 8.31 1221.67 0.00
  L 1254.00 0.00
  Z"
/>
<path fill="#fca6bc" d="
  M 867.94 87.85
  Q 868.19 88.00 868.34 87.91
  C 870.76 86.46 875.92 83.85 879.43 83.61
  C 892.29 82.71 903.05 88.14 906.38 101.33
  C 909.56 113.92 901.84 126.48 891.41 133.40
  Q 882.30 139.44 870.74 142.80
  Q 852.18 148.20 833.75 147.78
  Q 832.61 147.75 831.83 147.28
  Q 831.05 146.80 830.50 145.80
  Q 821.63 129.64 817.87 110.68
  Q 815.53 98.87 816.69 88.00
  C 818.03 75.56 825.62 62.92 838.26 59.94
  C 851.50 56.82 861.27 63.86 866.40 75.69
  C 867.80 78.92 867.86 84.70 867.69 87.52
  Q 867.68 87.69 867.94 87.85
  Z"
/>
<path fill="#fca6bc" d="
  M 1125.85 118.45
  A 0.69 0.68 -30.3 0 0 1127.00 118.75
  Q 1135.92 109.61 1147.66 110.86
  C 1160.00 112.17 1168.53 120.83 1168.93 133.26
  Q 1169.37 146.97 1160.05 157.12
  C 1147.13 171.20 1127.05 180.04 1108.34 184.37
  C 1102.87 185.64 1101.60 183.12 1098.28 178.86
  Q 1086.56 163.77 1080.14 146.13
  C 1075.36 133.02 1073.41 115.99 1082.76 104.27
  Q 1090.75 94.25 1105.54 95.50
  Q 1109.17 95.81 1113.12 98.46
  C 1118.55 102.11 1123.09 106.02 1124.43 112.33
  Q 1125.30 116.47 1125.85 118.45
  Z"
/>
<path fill="#fca6bc" d="
  M 516.44 130.19
  C 517.75 122.77 519.47 116.24 525.31 110.67
  Q 530.28 105.92 537.28 105.00
  C 550.48 103.25 561.71 111.47 565.47 124.01
  Q 569.07 136.02 566.67 147.61
  Q 561.48 172.66 546.57 193.01
  A 3.63 3.63 0.0 0 1 543.58 194.50
  C 535.15 194.38 528.46 192.37 518.56 189.65
  C 509.37 187.11 497.95 182.36 490.41 176.41
  Q 483.43 170.90 480.22 166.64
  Q 474.46 159.00 474.02 149.02
  C 473.53 138.32 479.49 128.01 490.12 125.13
  C 495.02 123.81 502.45 122.74 507.32 125.18
  Q 511.55 127.30 515.59 130.51
  A 0.53 0.53 0.0 0 0 516.44 130.19
  Z"
/>
<path fill="#fca6bc" d="
  M 179.28 123.09
  C 181.89 119.04 183.99 114.91 188.02 111.27
  C 196.66 103.46 211.25 103.62 219.14 112.35
  C 224.96 118.78 227.08 124.09 227.08 132.99
  Q 227.08 146.73 218.14 160.41
  Q 206.74 177.86 190.21 190.74
  Q 185.33 194.55 179.91 191.65
  Q 162.22 182.17 149.64 169.60
  C 141.76 161.71 134.71 152.37 132.63 140.92
  C 128.98 120.92 144.52 103.79 165.14 111.13
  C 171.33 113.33 175.16 117.82 178.46 123.08
  A 0.49 0.48 45.3 0 0 179.28 123.09
  Z"
/>
<path fill="#fca6bc" d="
  M 712.13 308.56
  Q 710.64 308.77 710.07 308.55
  Q 695.50 302.75 683.06 293.33
  C 669.79 283.27 656.02 269.37 656.59 251.28
  Q 657.16 232.76 674.49 227.41
  C 685.17 224.11 695.91 230.74 701.94 239.06
  A 0.34 0.32 -6.1 0 0 702.11 239.19
  Q 702.26 239.24 702.42 239.22
  Q 702.59 239.20 702.72 239.10
  A 0.34 0.32 -9.9 0 0 702.84 238.93
  C 706.36 229.28 714.86 219.95 726.04 220.19
  Q 744.17 220.57 749.81 238.23
  C 755.32 255.46 745.90 272.61 735.91 285.93
  Q 726.53 298.40 714.12 307.98
  Q 713.63 308.35 712.13 308.56
  Z"
/>
<path fill="#fca6bc" d="
  M 374.03 258.40
  Q 386.33 253.50 396.81 257.46
  C 404.03 260.18 410.81 270.07 410.85 277.72
  C 410.92 290.52 402.63 301.43 391.52 306.78
  C 374.17 315.12 352.89 316.49 333.78 314.91
  Q 331.41 314.72 330.34 311.96
  C 322.73 292.32 317.65 270.84 322.39 250.75
  C 324.50 241.79 329.65 234.70 337.18 229.92
  C 340.32 227.92 345.33 227.15 349.04 226.76
  C 355.97 226.03 360.64 229.01 365.69 233.20
  C 372.64 238.97 372.86 245.32 373.57 254.06
  C 373.69 255.47 373.28 256.78 373.36 257.98
  A 0.49 0.49 0.0 0 0 374.03 258.40
  Z"
/>
<path fill="#fca6bc" d="
  M 0.00 288.80
  L 0.00 248.23
  C 4.05 238.77 13.35 231.86 24.00 231.74
  C 39.42 231.57 48.65 244.21 48.29 258.94
  A 0.61 0.61 0.0 0 0 49.23 259.46
  Q 52.35 257.46 56.18 255.96
  Q 70.09 250.51 81.37 260.37
  C 89.08 267.12 90.16 278.03 86.84 287.36
  C 82.62 299.20 71.85 306.81 61.04 311.41
  Q 44.99 318.25 24.76 320.25
  Q 20.09 320.71 16.31 320.28
  A 3.42 3.41 -12.6 0 1 13.80 318.69
  Q 5.05 304.54 0.00 288.80
  Z"
/>
<path fill="#fca6bc" d="
  M 963.68 267.95
  A 0.54 0.54 0.0 0 0 964.49 267.46
  Q 964.25 257.91 969.65 250.20
  C 977.81 238.55 993.81 237.93 1004.07 246.71
  C 1013.33 254.63 1015.96 268.69 1014.62 280.34
  C 1013.15 293.08 1008.96 304.99 1003.23 317.25
  Q 1000.49 323.14 997.01 328.02
  C 995.16 330.61 989.58 329.71 987.00 329.49
  Q 971.72 328.18 957.94 322.91
  C 948.77 319.41 940.78 315.63 933.80 309.20
  C 927.80 303.66 923.56 295.28 923.48 287.04
  C 923.35 275.30 930.08 265.86 941.50 262.79
  C 949.71 260.59 956.35 263.76 963.68 267.95
  Z"
/>
<path fill="#fca6bc" d="
  M 1254.00 246.42
  L 1254.00 293.50
  L 1253.79 294.54
  A 0.30 0.30 0.0 0 1 1253.22 294.60
  C 1246.94 279.30 1245.53 261.10 1253.19 245.96
  A 0.37 0.36 -41.3 0 1 1253.86 246.00
  L 1254.00 246.42
  Z"
/>
<path fill="#fca6bc" d="
  M 529.39 383.75
  A 0.63 0.62 52.7 0 0 530.48 383.90
  C 535.13 377.53 543.09 374.49 550.77 374.24
  C 557.44 374.03 562.15 376.74 567.15 381.03
  C 572.79 385.86 574.54 394.60 574.26 401.76
  Q 574.09 406.02 571.09 412.39
  Q 567.57 419.85 565.62 422.11
  Q 563.80 424.22 555.47 431.21
  C 548.86 436.77 543.29 439.91 535.53 444.08
  Q 525.50 449.46 514.63 451.91
  C 512.99 452.28 511.15 450.98 509.91 449.67
  Q 499.90 439.08 498.53 436.97
  Q 493.71 429.49 492.36 427.44
  C 487.85 420.56 484.47 413.06 482.36 406.98
  Q 479.97 400.09 479.87 391.76
  C 479.72 379.71 486.57 364.91 500.22 363.42
  Q 508.72 362.49 513.41 364.12
  Q 519.60 366.27 524.03 372.02
  C 526.31 374.99 528.17 380.56 529.39 383.75
  Z"
/>
<path fill="#fca6bc" d="
  M 1142.65 388.39
  A 0.39 0.39 0.0 0 0 1143.30 388.26
  C 1147.05 378.30 1155.33 371.50 1166.44 370.87
  Q 1175.02 370.39 1181.53 375.85
  Q 1188.06 381.33 1189.84 388.26
  Q 1192.90 400.21 1188.87 411.84
  Q 1187.00 417.21 1185.14 420.62
  Q 1177.98 433.67 1165.87 445.86
  Q 1160.29 451.48 1157.14 454.14
  Q 1154.03 456.77 1151.63 457.60
  C 1149.39 458.37 1147.01 457.09 1143.91 455.59
  Q 1121.02 444.57 1105.29 424.73
  Q 1102.84 421.63 1099.63 414.17
  C 1095.00 403.37 1095.79 390.97 1103.91 382.18
  Q 1109.70 375.91 1118.20 375.42
  Q 1132.47 374.61 1140.38 385.57
  Q 1141.61 387.28 1142.65 388.39
  Z"
/>
<path fill="#fca6bc" d="
  M 844.33 407.05
  A 0.34 0.34 0.0 0 0 844.78 407.41
  C 851.19 405.20 857.42 404.47 863.95 406.83
  C 871.83 409.67 878.90 416.47 879.44 425.29
  Q 880.38 440.33 869.01 449.75
  Q 861.49 455.99 851.50 458.74
  Q 841.46 461.50 833.24 461.80
  Q 818.70 462.32 813.25 462.20
  Q 805.51 462.02 800.04 460.47
  Q 798.04 459.91 797.14 456.96
  Q 794.65 448.83 792.69 436.92
  Q 790.45 423.26 791.80 408.32
  Q 792.86 396.76 799.25 387.28
  C 804.69 379.23 812.27 374.76 822.04 374.53
  Q 827.18 374.40 831.84 377.15
  C 844.29 384.49 846.06 393.29 844.33 407.05
  Z"
/>
<path fill="#fca6bc" d="
  M 190.94 413.26
  Q 185.09 397.65 194.84 385.91
  C 200.15 379.50 206.81 376.67 215.13 377.59
  Q 224.20 378.60 230.36 384.56
  Q 237.76 391.71 240.83 401.17
  Q 243.59 409.63 244.02 415.29
  C 244.48 421.26 245.31 429.52 244.89 436.60
  Q 244.22 447.67 241.55 459.45
  Q 241.09 461.47 238.70 462.21
  C 221.67 467.48 203.21 469.53 185.80 466.45
  Q 175.45 464.61 167.42 458.81
  C 159.18 452.86 154.41 441.10 157.16 430.90
  C 161.13 416.20 175.90 409.20 190.08 414.14
  A 0.68 0.68 0.0 0 0 190.94 413.26
  Z"
/>
<path fill="#fca6bc" d="
  M 971.87 534.79
  A 0.46 0.46 0.0 0 0 972.48 534.23
  C 970.78 528.68 971.65 519.63 974.79 513.93
  C 978.60 506.99 985.62 501.71 993.94 502.08
  C 1001.77 502.42 1007.80 503.70 1013.27 509.99
  Q 1022.94 521.10 1024.29 536.09
  Q 1025.79 552.65 1022.64 569.09
  C 1021.67 574.12 1020.26 578.23 1018.18 585.38
  Q 1017.67 587.13 1015.38 587.60
  C 1002.66 590.23 989.09 590.31 977.69 589.33
  Q 973.90 589.01 966.17 587.41
  C 956.53 585.41 948.67 580.75 942.19 573.63
  Q 938.63 569.72 937.12 563.46
  C 933.58 548.77 940.54 536.76 954.64 532.94
  Q 962.41 530.84 971.87 534.79
  Z"
/>
<path fill="#fca6bc" d="
  M 390.49 531.51
  C 403.43 521.24 420.71 524.07 428.50 538.86
  C 431.98 545.47 431.48 552.72 428.40 559.65
  Q 425.67 565.80 423.61 568.34
  C 421.41 571.04 416.81 575.70 412.86 577.81
  C 410.24 579.20 407.28 581.51 403.85 583.10
  Q 382.53 592.97 362.04 594.33
  Q 359.39 594.51 357.76 591.70
  C 354.05 585.31 351.09 580.99 348.59 575.38
  Q 343.43 563.76 342.50 560.33
  C 338.34 544.96 335.69 531.39 344.15 516.94
  C 349.92 507.08 358.60 505.47 369.24 505.53
  C 376.10 505.57 383.80 513.42 386.67 519.03
  C 388.33 522.26 388.79 526.32 389.58 531.15
  A 0.57 0.57 0.0 0 0 390.49 531.51
  Z"
/>
<path fill="#fca6bc" d="
  M 0.00 582.70
  L 0.00 524.33
  Q 11.86 524.83 20.50 534.01
  A 0.30 0.29 27.3 0 0 21.01 533.85
  C 22.87 518.30 36.65 506.93 52.40 512.32
  C 60.06 514.95 66.76 523.06 68.68 530.72
  Q 70.66 538.61 70.05 545.06
  C 69.26 553.52 66.72 560.52 62.79 570.22
  Q 60.65 575.49 56.36 582.27
  Q 50.72 591.15 45.39 597.62
  C 42.89 600.66 39.75 599.46 35.94 598.45
  Q 16.73 593.32 0.00 582.70
  Z"
/>
<path fill="#fca6bc" d="
  M 677.36 532.41
  A 0.39 0.39 0.0 0 0 678.05 532.48
  C 683.08 524.45 692.61 518.13 702.47 519.21
  Q 710.09 520.05 715.32 524.39
  C 722.11 530.02 723.38 535.55 724.07 544.00
  C 724.79 552.81 719.60 564.53 714.84 570.36
  Q 705.28 582.05 694.64 589.62
  C 688.77 593.79 686.31 595.84 681.35 598.37
  C 676.68 600.74 672.87 603.72 668.96 601.21
  C 661.66 596.54 655.93 590.18 649.71 584.32
  Q 647.45 582.18 645.66 579.85
  Q 640.49 573.13 636.45 566.22
  Q 631.42 557.62 630.09 551.13
  Q 628.01 540.93 631.07 530.82
  Q 631.97 527.84 633.74 525.53
  Q 644.43 511.52 661.73 516.28
  C 664.58 517.06 666.85 518.38 669.04 520.80
  C 672.88 525.05 675.64 527.85 677.36 532.41
  Z"
/>
<path fill="#fca6bc" d="
  M 1254.00 524.41
  L 1254.00 583.84
  Q 1246.71 579.27 1240.95 572.80
  C 1232.20 562.98 1227.18 549.11 1233.33 536.48
  Q 1239.15 524.52 1254.00 524.41
  Z"
/>
<path fill="#fca6bc" d="
  M 203.06 655.79
  A 0.44 0.44 0.0 0 0 203.76 656.10
  C 207.49 653.30 212.50 650.46 217.34 649.82
  C 233.41 647.67 245.42 659.41 244.44 675.41
  C 242.75 703.01 202.68 717.08 180.12 719.98
  C 175.98 720.51 174.90 719.91 172.61 716.55
  C 160.54 698.76 148.25 672.74 154.27 651.05
  C 158.88 634.48 175.86 625.15 191.58 634.62
  C 198.18 638.59 202.32 648.37 203.06 655.79
  Z"
/>
<path fill="#fca6bc" d="
  M 1136.08 672.39
  A 0.44 0.44 0.0 0 0 1136.81 672.63
  C 1140.26 669.51 1144.97 666.22 1149.72 665.13
  C 1165.50 661.51 1178.52 672.06 1179.03 688.06
  C 1179.91 715.65 1141.39 733.35 1119.23 738.32
  C 1115.16 739.23 1114.03 738.74 1111.45 735.61
  C 1097.79 719.04 1083.17 694.31 1087.15 672.20
  C 1090.19 655.30 1106.20 644.46 1122.70 652.41
  C 1129.64 655.74 1134.66 665.08 1136.08 672.39
  Z"
/>
<path fill="#fca6bc" d="
  M 536.26 688.17
  A 0.44 0.44 0.0 0 0 536.98 688.43
  C 540.56 685.45 545.42 682.36 550.22 681.46
  C 566.17 678.50 578.76 689.61 578.60 705.65
  C 578.32 733.30 539.02 749.41 516.63 753.45
  C 512.52 754.20 511.40 753.66 508.95 750.42
  C 495.98 733.26 482.37 707.89 487.28 685.92
  C 491.04 669.13 507.52 658.95 523.71 667.60
  C 530.51 671.23 535.15 680.78 536.26 688.17
  Z"
/>
<path fill="#fca6bc" d="
  M 806.48 694.29
  A 0.59 0.59 0.0 0 0 807.43 693.81
  Q 807.31 686.75 810.26 681.06
  Q 811.01 679.61 814.89 675.00
  C 820.79 667.98 830.81 666.37 839.11 669.02
  A 5.76 5.52 -19.7 0 1 840.23 669.52
  Q 849.15 674.69 854.29 684.10
  Q 856.99 689.03 857.41 696.30
  Q 857.96 705.88 856.75 712.72
  Q 854.74 724.08 850.18 734.98
  C 847.78 740.70 844.89 747.78 841.56 753.37
  Q 839.36 757.05 835.29 756.68
  Q 819.20 755.22 805.30 750.89
  Q 793.33 747.15 783.86 740.89
  Q 775.11 735.12 770.28 726.54
  Q 767.68 721.92 767.08 715.26
  C 766.32 706.68 769.06 698.82 775.65 693.61
  Q 785.56 685.78 798.56 690.21
  Q 803.32 691.84 806.48 694.29
  Z"
/>
<path fill="#fca6bc" d="
  M 376.16 793.36
  C 380.14 792.31 385.70 791.38 389.67 791.70
  Q 403.30 792.81 409.41 805.80
  Q 412.11 811.55 410.83 817.44
  Q 406.96 835.22 390.44 842.27
  Q 384.32 844.88 374.35 846.73
  Q 355.60 850.20 336.75 848.00
  C 333.76 847.66 331.03 848.22 330.06 844.45
  C 326.81 831.76 323.03 818.18 323.11 804.47
  C 323.19 790.84 324.80 780.51 333.51 770.04
  C 339.48 762.86 346.06 761.32 355.27 761.64
  Q 363.69 761.95 368.99 767.71
  C 375.58 774.89 376.50 783.75 375.61 792.89
  A 0.44 0.44 0.0 0 0 376.16 793.36
  Z"
/>
<path fill="#fca6bc" d="
  M 0.00 849.60
  L 0.00 802.32
  Q 11.88 797.14 23.69 804.08
  Q 25.85 805.34 28.24 807.10
  A 0.32 0.32 0.0 0 0 28.74 806.88
  Q 29.58 799.37 29.89 798.43
  Q 31.73 792.76 36.06 788.18
  C 46.35 777.32 61.25 778.44 70.89 789.78
  C 76.31 796.15 78.58 802.17 78.82 811.20
  Q 79.11 822.08 76.65 830.94
  Q 71.05 851.13 59.39 867.79
  Q 57.93 869.87 54.67 869.47
  Q 30.89 866.57 11.58 857.17
  Q 5.99 854.45 0.00 849.60
  Z"
/>
<path fill="#fca6bc" d="
  M 1254.00 801.27
  L 1254.00 850.87
  Q 1249.33 848.19 1245.72 843.78
  C 1240.39 837.28 1237.76 829.20 1238.65 820.83
  Q 1240.13 806.94 1254.00 801.27
  Z"
/>
<path fill="#fca6bc" d="
  M 975.67 825.04
  A 0.56 0.56 0.0 0 0 976.64 825.28
  C 981.29 819.81 988.36 815.64 995.71 815.41
  C 1009.05 814.98 1020.13 825.38 1019.75 838.99
  C 1019.59 844.80 1019.21 848.74 1016.88 853.80
  C 1012.02 864.39 1003.05 872.29 993.14 878.40
  Q 983.14 884.57 976.28 887.76
  Q 971.35 890.06 962.55 892.62
  Q 962.19 892.73 959.34 892.60
  A 2.29 2.22 62.7 0 1 958.18 892.21
  C 953.35 888.96 948.71 882.46 946.13 879.12
  Q 936.49 866.67 930.61 852.19
  Q 927.57 844.67 927.03 837.56
  C 926.04 824.38 929.07 814.44 940.35 807.35
  C 955.26 797.97 972.31 809.72 975.67 825.04
  Z"
/>
<path fill="#fca6bc" d="
  M 692.47 848.32
  A 0.43 0.43 0.0 0 0 693.12 848.66
  C 698.66 845.28 706.36 844.43 712.32 845.46
  C 718.20 846.48 722.83 850.52 726.46 855.12
  C 729.94 859.52 730.35 863.95 729.96 870.00
  Q 729.37 879.12 723.71 885.74
  Q 716.65 894.01 706.37 898.16
  Q 682.77 907.69 656.73 906.36
  Q 653.07 906.17 652.40 903.68
  Q 652.39 903.61 648.67 894.64
  Q 646.42 889.20 645.49 885.40
  Q 641.80 870.29 641.60 867.92
  Q 640.84 859.16 641.29 849.50
  Q 641.49 845.00 643.27 840.48
  Q 646.40 832.50 649.19 828.46
  C 651.27 825.46 655.66 823.32 658.82 821.71
  Q 671.16 815.43 682.45 823.17
  C 688.98 827.64 693.37 835.75 692.57 843.27
  Q 692.29 845.96 692.47 848.32
  Z"
/>
<path fill="#fca6bc" d="
  M 189.67 937.96
  C 189.49 932.43 189.22 928.03 191.29 923.84
  C 197.20 911.85 209.59 904.96 222.41 911.32
  C 239.47 919.78 242.02 940.84 238.91 957.48
  Q 235.21 977.33 226.70 994.46
  Q 225.43 997.02 222.31 997.12
  Q 214.29 997.39 209.88 996.91
  C 199.96 995.82 190.06 993.87 181.18 991.05
  Q 171.36 987.93 162.75 981.03
  C 149.62 970.50 146.03 951.95 158.50 939.49
  C 166.57 931.42 180.18 932.07 189.02 938.31
  A 0.41 0.41 0.0 0 0 189.67 937.96
  Z"
/>
<path fill="#fca6bc" d="
  M 1124.85 942.02
  A 0.52 0.51 -84.4 0 0 1125.51 941.47
  C 1124.66 932.07 1125.45 924.07 1132.11 916.87
  C 1139.12 909.29 1151.60 908.29 1160.12 913.82
  Q 1171.80 921.41 1175.22 935.16
  Q 1178.08 946.67 1176.70 962.00
  Q 1175.23 978.48 1169.03 994.76
  Q 1168.49 996.16 1166.14 996.55
  Q 1155.12 998.39 1140.89 997.59
  C 1128.77 996.91 1117.73 995.39 1107.56 990.18
  C 1095.97 984.23 1086.56 971.13 1090.10 957.60
  Q 1094.03 942.63 1108.74 939.93
  C 1113.94 938.98 1119.49 940.42 1124.85 942.02
  Z"
/>
<path fill="#fca6bc" d="
  M 497.71 966.16
  A 0.65 0.65 0.0 0 0 498.87 966.04
  Q 499.86 963.44 501.87 960.87
  C 504.89 956.99 507.66 953.67 511.87 952.17
  C 521.13 948.88 529.92 949.38 537.19 956.79
  C 542.10 961.79 544.83 967.35 545.04 974.74
  Q 545.42 988.05 538.94 999.20
  Q 529.46 1015.50 514.19 1028.23
  C 511.50 1030.47 507.88 1033.81 504.53 1035.30
  Q 501.68 1036.58 498.35 1034.65
  C 492.82 1031.44 487.02 1028.40 482.15 1024.43
  C 473.99 1017.76 466.02 1010.54 460.42 1002.13
  C 452.94 990.91 449.26 977.74 455.67 965.02
  C 461.39 953.68 473.51 949.73 485.34 954.66
  C 490.84 956.96 494.56 961.28 497.71 966.16
  Z"
/>
<path fill="#fca6bc" d="
  M 806.65 998.27
  C 805.83 990.34 808.48 980.02 815.10 974.94
  C 822.49 969.28 831.02 967.28 839.57 971.82
  Q 848.21 976.40 851.96 983.76
  C 854.33 988.40 856.36 994.90 856.64 1000.75
  Q 857.22 1012.93 855.45 1020.47
  C 853.33 1029.56 852.61 1034.92 849.97 1041.35
  Q 845.35 1052.61 843.34 1055.86
  Q 842.43 1057.33 839.73 1057.32
  C 824.45 1057.26 808.95 1055.66 794.76 1050.25
  Q 788.73 1047.96 781.53 1042.79
  Q 774.57 1037.80 770.86 1030.11
  C 764.88 1017.73 768.52 1003.51 780.69 996.48
  Q 783.08 995.10 787.26 994.59
  Q 797.52 993.34 806.04 998.66
  A 0.40 0.40 0.0 0 0 806.65 998.27
  Z"
/>
<path fill="#fca6bc" d="
  M 0.00 1141.25
  L 0.00 1080.31
  Q 5.06 1082.12 8.72 1086.84
  A 0.34 0.34 0.0 0 0 9.31 1086.75
  C 12.56 1077.35 18.72 1070.00 29.40 1069.62
  Q 41.31 1069.19 48.13 1079.88
  C 53.89 1088.92 53.94 1098.56 50.90 1108.73
  Q 47.33 1120.67 39.08 1131.85
  Q 32.66 1140.53 26.93 1146.18
  C 23.93 1149.13 21.87 1150.96 17.81 1149.62
  Q 8.42 1146.53 0.00 1141.25
  Z"
/>
<path fill="#fca6bc" d="
  M 353.93 1097.64
  A 0.44 0.44 0.0 0 0 354.65 1097.89
  C 358.16 1094.81 362.94 1091.59 367.72 1090.57
  C 383.60 1087.19 396.49 1097.98 396.75 1114.03
  C 397.19 1141.71 358.28 1158.85 335.98 1163.48
  C 331.89 1164.33 330.76 1163.82 328.22 1160.64
  C 314.79 1143.81 300.52 1118.78 304.86 1096.67
  C 308.18 1079.77 324.41 1069.15 340.83 1077.39
  C 347.73 1080.84 352.62 1090.28 353.93 1097.64
  Z"
/>
<path fill="#fca6bc" d="
  M 1254.00 1080.57
  L 1254.00 1142.59
  Q 1246.29 1138.33 1238.89 1131.86
  Q 1232.50 1126.27 1227.88 1119.83
  C 1222.44 1112.26 1220.40 1104.31 1221.19 1095.25
  C 1221.53 1091.37 1222.99 1087.70 1225.49 1084.71
  Q 1234.74 1073.64 1249.79 1078.18
  Q 1252.24 1078.92 1254.00 1080.57
  Z"
/>
<path fill="#fca6bc" d="
  M 1009.73 1098.35
  C 1012.30 1090.67 1017.67 1084.12 1026.00 1082.25
  C 1032.70 1080.75 1038.88 1082.41 1043.91 1087.40
  Q 1050.90 1094.34 1052.16 1103.56
  Q 1053.43 1112.85 1049.97 1122.25
  C 1044.90 1136.03 1035.93 1147.33 1025.51 1157.51
  Q 1022.90 1160.07 1019.92 1162.04
  A 2.11 2.09 24.5 0 1 1019.02 1162.37
  Q 1017.09 1162.64 1015.23 1161.76
  Q 1006.54 1157.65 996.67 1151.24
  C 991.22 1147.70 985.09 1141.80 981.44 1138.10
  Q 973.85 1130.42 970.57 1119.76
  C 965.55 1103.43 974.36 1083.62 994.53 1087.65
  C 1000.39 1088.82 1005.58 1093.61 1008.88 1098.47
  A 0.48 0.48 0.0 0 0 1009.73 1098.35
  Z"
/>
<path fill="#fca6bc" d="
  M 643.90 1118.73
  Q 644.72 1118.02 647.00 1115.77
  C 655.95 1106.88 670.04 1104.99 679.10 1114.89
  Q 682.88 1119.03 684.58 1123.04
  C 687.36 1129.64 685.98 1137.17 684.13 1143.94
  Q 682.76 1148.97 678.91 1154.05
  C 667.75 1168.81 651.30 1179.55 634.28 1185.76
  C 629.85 1187.37 626.18 1183.11 622.93 1179.38
  Q 618.70 1174.55 610.65 1164.17
  Q 608.12 1160.91 603.27 1151.27
  C 598.09 1140.97 596.34 1131.60 597.47 1120.50
  C 597.73 1117.90 599.71 1113.77 600.68 1111.85
  C 605.37 1102.57 616.36 1097.28 626.54 1100.22
  Q 627.70 1100.55 631.64 1102.53
  C 637.41 1105.42 641.44 1112.64 643.26 1118.55
  A 0.40 0.40 0.0 0 0 643.90 1118.73
  Z"
/>
<path fill="#fca6bc" d="
  M 188.23 1254.00
  L 127.71 1254.00
  Q 119.60 1247.58 114.39 1238.61
  Q 109.15 1229.60 110.26 1219.51
  C 111.32 1209.79 118.67 1200.91 128.69 1199.48
  C 137.81 1198.19 144.84 1201.59 151.10 1207.65
  A 0.45 0.44 -62.7 0 0 151.85 1207.41
  Q 153.79 1196.48 162.03 1189.58
  Q 166.89 1185.51 174.82 1185.37
  C 185.06 1185.20 192.13 1191.43 196.72 1200.24
  C 205.45 1217.01 196.75 1238.93 188.23 1254.00
  Z"
/>
<path fill="#fca6bc" d="
  M 855.35 1254.00
  L 776.94 1254.00
  Q 773.17 1247.03 770.42 1238.37
  C 766.63 1226.43 768.59 1212.53 778.08 1204.25
  C 784.04 1199.05 794.78 1196.60 802.39 1200.40
  C 810.39 1204.40 814.00 1209.87 817.27 1217.97
  A 0.67 0.66 53.3 0 0 818.41 1218.14
  C 825.37 1209.35 838.65 1204.60 848.99 1210.52
  Q 863.73 1218.95 862.15 1235.81
  Q 861.25 1245.39 855.35 1254.00
  Z"
/>
<path fill="#fca6bc" d="
  M 1191.54 1254.00
  L 1103.55 1254.00
  Q 1100.70 1241.76 1107.69 1232.70
  C 1114.89 1223.39 1126.72 1220.86 1137.55 1226.48
  Q 1140.83 1228.18 1143.16 1229.66
  A 0.47 0.47 0.0 0 0 1143.88 1229.32
  C 1145.00 1220.03 1147.26 1212.42 1155.40 1207.04
  C 1163.08 1201.96 1173.95 1202.10 1181.35 1207.57
  C 1195.54 1218.06 1195.80 1238.61 1191.54 1254.00
  Z"
/>
<path fill="#fca6bc" d="
  M 518.73 1254.00
  L 429.94 1254.00
  Q 431.20 1245.93 437.62 1240.11
  C 446.15 1232.39 458.94 1233.01 468.04 1239.14
  A 0.49 0.49 0.0 0 0 468.81 1238.72
  C 468.54 1226.54 472.74 1216.66 483.94 1211.46
  C 487.63 1209.74 492.25 1209.94 496.49 1210.68
  C 510.55 1213.15 517.95 1227.57 519.12 1240.78
  Q 519.75 1247.88 518.73 1254.00
  Z"
/>
</svg>
