<?xml version="1.0" encoding="UTF-8" standalone="no"?>
<!DOCTYPE svg PUBLIC "-//W3C//DTD SVG 1.1//EN" "http://www.w3.org/Graphics/SVG/1.1/DTD/svg11.dtd">
<svg xmlns="http://www.w3.org/2000/svg" version="1.1" viewBox="0.00 0.00 1254.00 1254.00">
<g stroke-width="2.00" fill="none" stroke-linecap="butt">
<path stroke="#8ea58f" vector-effect="non-scaling-stroke" d="
  M 156.87 0.00
  L 156.87 156.18
  A 0.60 0.60 0.0 0 0 157.47 156.78
  L 313.18 156.78
  A 0.47 0.47 0.0 0 0 313.65 156.31
  L 313.65 0.00"
/>
<path stroke="#8ea58f" vector-effect="non-scaling-stroke" d="
  M 470.41 0.00
  L 470.36 156.30
  A 0.52 0.51 90.0 0 0 470.87 156.82
  L 626.37 156.82
  A 0.74 0.74 0.0 0 1 627.11 157.56
  L 627.03 313.55"
/>
<path stroke="#8ea58f" vector-effect="non-scaling-stroke" d="
  M 627.03 313.55
  L 470.94 313.57
  A 0.56 0.55 90.0 0 0 470.39 314.13
  L 470.39 469.56
  A 0.61 0.61 0.0 0 0 471.00 470.17
  L 626.40 470.17
  A 0.56 0.55 -0.0 0 0 626.96 469.62
  L 627.03 313.55"
/>
<path stroke="#8ea58f" vector-effect="non-scaling-stroke" d="
  M 627.03 313.55
  Q 627.19 313.21 627.41 313.36
  Q 712.30 313.45 782.71 313.44
  A 0.78 0.78 0.0 0 0 783.49 312.66
  L 783.49 157.57
  A 0.60 0.60 0.0 0 0 782.89 156.97
  L 627.83 156.97
  A 0.85 0.85 0.0 0 1 626.98 156.12
  L 627.08 0.00"
/>
<path stroke="#8ea58f" vector-effect="non-scaling-stroke" d="
  M 783.58 0.00
  L 783.61 156.32
  A 0.51 0.51 0.0 0 0 784.12 156.83
  L 939.80 156.83
  A 0.53 0.52 90.0 0 0 940.32 156.30
  L 940.34 0.00"
/>
<path stroke="#8ea58f" vector-effect="non-scaling-stroke" d="
  M 1097.26 0.00
  L 1097.26 156.26
  A 0.50 0.49 -90.0 0 0 1097.75 156.76
  L 1254.00 156.78"
/>
<path stroke="#8ea58f" vector-effect="non-scaling-stroke" d="
  M 1254.00 313.49
  L 1097.77 313.51
  A 0.53 0.53 0.0 0 0 1097.24 314.04
  L 1097.24 469.63
  A 0.55 0.54 0.0 0 0 1097.79 470.17
  L 1254.00 470.21"
/>
<path stroke="#8ea58f" vector-effect="non-scaling-stroke" d="
  M 1254.00 627.06
  L 1097.82 627.09
  A 0.54 0.54 0.0 0 0 1097.28 627.63
  L 1097.28 783.10
  A 0.55 0.55 0.0 0 0 1097.83 783.65
  L 1254.00 783.68"
/>
<path stroke="#8ea58f" vector-effect="non-scaling-stroke" d="
  M 1254.00 940.49
  L 1097.87 940.51
  A 0.54 0.54 0.0 0 0 1097.33 941.05
  L 1097.33 1096.48
  A 0.53 0.53 0.0 0 0 1097.86 1097.01
  L 1254.00 1097.03"
/>
<path stroke="#8ea58f" vector-effect="non-scaling-stroke" d="
  M 1254.00 1253.48
  Q 1253.72 1253.68 1253.60 1254.00"
/>
<path stroke="#8ea58f" vector-effect="non-scaling-stroke" d="
  M 1097.15 1254.00
  L 1097.15 1097.67
  A 0.48 0.48 0.0 0 0 1096.67 1097.19
  L 940.83 1097.19
  A 0.49 0.48 -0.0 0 0 940.34 1097.67
  L 940.34 1254.00"
/>
<path stroke="#8ea58f" vector-effect="non-scaling-stroke" d="
  M 783.59 1254.00
  L 783.59 1097.75
  A 0.51 0.50 0.0 0 0 783.08 1097.25
  L 627.43 1097.25
  A 0.51 0.51 0.0 0 0 626.92 1097.76
  L 626.92 1254.00"
/>
<path stroke="#8ea58f" vector-effect="non-scaling-stroke" d="
  M 470.37 1254.00
  L 470.33 1097.68
  A 0.50 0.50 0.0 0 0 469.83 1097.18
  L 314.11 1097.18
  A 0.51 0.51 0.0 0 0 313.60 1097.69
  L 313.58 1254.00"
/>
<path stroke="#8ea58f" vector-effect="non-scaling-stroke" d="
  M 156.73 1254.00
  L 156.71 1097.71
  A 0.55 0.55 0.0 0 0 156.16 1097.16
  L 0.00 1097.16"
/>
<path stroke="#8ea58f" vector-effect="non-scaling-stroke" d="
  M 0.00 940.48
  L 156.03 940.44
  A 0.66 0.66 0.0 0 0 156.69 939.78
  L 156.69 784.51
  A 0.65 0.65 0.0 0 0 156.04 783.86
  L 0.00 783.84"
/>
<path stroke="#8ea58f" vector-effect="non-scaling-stroke" d="
  M 0.00 626.95
  L 156.14 626.89
  A 0.52 0.52 0.0 0 0 156.66 626.37
  L 156.66 470.94
  A 0.55 0.55 0.0 0 0 156.11 470.39
  L 0.00 470.37"
/>
<path stroke="#8ea58f" vector-effect="non-scaling-stroke" d="
  M 0.00 313.45
  L 156.11 313.42
  A 0.51 0.51 0.0 0 0 156.62 312.91
  L 156.62 157.52
  A 0.53 0.52 0.0 0 0 156.09 157.00
  L 0.00 156.97"
/>
<path stroke="#8ea58f" vector-effect="non-scaling-stroke" d="
  M 313.42 313.33
  Q 313.23 313.52 313.03 313.52
  Q 247.69 313.52 157.51 313.48
  A 0.58 0.57 90.0 0 0 156.94 314.06
  Q 156.79 389.20 156.89 469.56
  Q 156.89 469.69 157.12 469.92
  Q 157.33 470.12 157.46 470.12
  Q 237.81 470.25 312.95 470.12
  A 0.58 0.57 0.0 0 0 313.53 469.56
  Q 313.52 379.38 313.55 314.04
  Q 313.55 313.84 313.74 313.65
  Q 313.91 313.48 314.12 313.48
  Q 379.45 313.47 469.63 313.51
  A 0.58 0.57 90.0 0 0 470.20 312.93
  Q 470.35 237.79 470.25 157.44
  Q 470.25 157.31 470.02 157.08
  Q 469.82 156.87 469.68 156.87
  Q 389.33 156.74 314.19 156.87
  A 0.58 0.57 0.0 0 0 313.61 157.44
  Q 313.62 247.62 313.59 312.95
  Q 313.59 313.16 313.42 313.33"
/>
<path stroke="#8ea58f" vector-effect="non-scaling-stroke" d="
  M 940.20 313.36
  Q 940.02 313.54 939.81 313.54
  Q 874.49 313.54 784.33 313.49
  A 0.58 0.57 90.0 0 0 783.76 314.07
  Q 783.60 389.20 783.69 469.54
  Q 783.69 469.67 783.93 469.90
  Q 784.13 470.10 784.26 470.11
  Q 864.60 470.24 939.73 470.12
  A 0.58 0.57 0.0 0 0 940.31 469.55
  Q 940.31 379.39 940.34 314.07
  Q 940.34 313.86 940.52 313.68
  Q 940.70 313.50 940.91 313.50
  Q 1006.23 313.50 1096.39 313.55
  A 0.58 0.57 90.0 0 0 1096.96 312.97
  Q 1097.12 237.84 1097.03 157.50
  Q 1097.03 157.37 1096.80 157.14
  Q 1096.59 156.94 1096.46 156.94
  Q 1016.12 156.80 940.99 156.92
  A 0.58 0.57 0.0 0 0 940.41 157.49
  Q 940.41 247.65 940.38 312.97
  Q 940.38 313.18 940.20 313.36"
/>
<path stroke="#8ea58f" vector-effect="non-scaling-stroke" d="
  M 470.31 470.70
  A 0.40 0.40 0.0 0 0 469.91 470.30
  L 314.01 470.30
  A 0.40 0.40 0.0 0 0 313.61 470.70
  L 313.61 626.60
  A 0.40 0.40 0.0 0 0 314.01 627.00
  L 469.91 627.00
  A 0.40 0.40 0.0 0 0 470.31 626.60
  L 470.31 470.70"
/>
<path stroke="#8ea58f" vector-effect="non-scaling-stroke" d="
  M 627.16 627.20
  Q 627.34 627.02 627.55 627.02
  Q 692.86 626.99 783.00 626.99
  A 0.58 0.57 90.0 0 0 783.57 626.40
  Q 783.69 551.29 783.55 470.97
  Q 783.55 470.83 783.34 470.63
  Q 783.11 470.40 782.98 470.40
  Q 702.66 470.31 627.54 470.47
  A 0.58 0.57 -0.0 0 0 626.96 471.04
  Q 627.02 561.18 627.02 626.50
  Q 627.02 626.70 626.84 626.88
  Q 626.66 627.06 626.45 627.06
  Q 561.14 627.10 471.00 627.10
  A 0.58 0.57 90.0 0 0 470.43 627.68
  Q 470.31 702.80 470.45 783.12
  Q 470.45 783.25 470.66 783.45
  Q 470.89 783.68 471.02 783.68
  Q 551.34 783.78 626.46 783.61
  A 0.58 0.57 -0.0 0 0 627.04 783.04
  Q 626.98 692.90 626.98 627.59
  Q 626.98 627.38 627.16 627.20"
/>
<path stroke="#8ea58f" vector-effect="non-scaling-stroke" d="
  M 1097.08 470.71
  A 0.38 0.38 0.0 0 0 1096.70 470.33
  L 940.78 470.33
  A 0.38 0.38 0.0 0 0 940.40 470.71
  L 940.40 626.63
  A 0.38 0.38 0.0 0 0 940.78 627.01
  L 1096.70 627.01
  A 0.38 0.38 0.0 0 0 1097.08 626.63
  L 1097.08 470.71"
/>
<path stroke="#8ea58f" vector-effect="non-scaling-stroke" d="
  M 313.56 627.79
  A 0.74 0.74 0.0 0 0 312.82 627.05
  L 157.62 627.05
  A 0.74 0.74 0.0 0 0 156.88 627.79
  L 156.88 782.99
  A 0.74 0.74 0.0 0 0 157.62 783.73
  L 312.82 783.73
  A 0.74 0.74 0.0 0 0 313.56 782.99
  L 313.56 627.79"
/>
<path stroke="#8ea58f" vector-effect="non-scaling-stroke" d="
  M 784.33 627.04
  A 0.70 0.70 0.0 0 0 783.63 627.74
  L 783.63 783.01
  A 0.70 0.70 0.0 0 0 784.33 783.71
  L 939.60 783.71
  A 0.70 0.70 0.0 0 0 940.30 783.01
  L 940.30 627.74
  A 0.70 0.70 0.0 0 0 939.60 627.04
  L 784.33 627.04"
/>
<path stroke="#8ea58f" vector-effect="non-scaling-stroke" d="
  M 313.75 940.63
  Q 313.94 940.45 314.14 940.45
  Q 379.46 940.44 469.62 940.48
  A 0.58 0.57 90.0 0 0 470.19 939.90
  Q 470.34 864.78 470.24 784.44
  Q 470.24 784.31 470.01 784.08
  Q 469.81 783.88 469.67 783.87
  Q 389.34 783.75 314.21 783.87
  A 0.58 0.57 0.0 0 0 313.63 784.44
  Q 313.64 874.60 313.62 939.92
  Q 313.62 940.13 313.43 940.31
  Q 313.26 940.49 313.05 940.49
  Q 247.73 940.49 157.57 940.45
  A 0.58 0.57 90.0 0 0 157.00 941.03
  Q 156.85 1016.16 156.95 1096.49
  Q 156.95 1096.63 157.18 1096.86
  Q 157.39 1097.06 157.52 1097.06
  Q 237.85 1097.19 312.98 1097.06
  A 0.58 0.57 0.0 0 0 313.56 1096.49
  Q 313.55 1006.34 313.57 941.01
  Q 313.57 940.81 313.75 940.63"
/>
<path stroke="#8ea58f" vector-effect="non-scaling-stroke" d="
  M 783.53 784.55
  A 0.68 0.68 0.0 0 0 782.85 783.87
  L 627.65 783.87
  A 0.68 0.68 0.0 0 0 626.97 784.55
  L 626.97 939.75
  A 0.68 0.68 0.0 0 0 627.65 940.43
  L 782.85 940.43
  A 0.68 0.68 0.0 0 0 783.53 939.75
  L 783.53 784.55"
/>
<path stroke="#8ea58f" vector-effect="non-scaling-stroke" d="
  M 940.52 940.63
  Q 940.70 940.44 940.91 940.44
  Q 1006.23 940.44 1096.39 940.48
  A 0.58 0.57 90.0 0 0 1096.96 939.90
  Q 1097.11 864.77 1097.01 784.44
  Q 1097.01 784.31 1096.78 784.07
  Q 1096.58 783.87 1096.45 783.87
  Q 1016.11 783.74 940.98 783.87
  A 0.58 0.57 0.0 0 0 940.40 784.44
  Q 940.41 874.60 940.38 939.92
  Q 940.38 940.12 940.20 940.31
  Q 940.02 940.49 939.82 940.49
  Q 874.49 940.49 784.33 940.45
  A 0.58 0.57 90.0 0 0 783.76 941.03
  Q 783.61 1016.16 783.71 1096.49
  Q 783.71 1096.62 783.94 1096.86
  Q 784.15 1097.06 784.28 1097.06
  Q 864.61 1097.19 939.74 1097.06
  A 0.58 0.57 0.0 0 0 940.32 1096.49
  Q 940.31 1006.33 940.34 941.01
  Q 940.34 940.81 940.52 940.63"
/>
<path stroke="#8ea58f" vector-effect="non-scaling-stroke" d="
  M 626.97 941.04
  A 0.49 0.49 0.0 0 0 626.48 940.55
  L 470.96 940.55
  A 0.49 0.49 0.0 0 0 470.47 941.04
  L 470.47 1096.56
  A 0.49 0.49 0.0 0 0 470.96 1097.05
  L 626.48 1097.05
  A 0.49 0.49 0.0 0 0 626.97 1096.56
  L 626.97 941.04"
/>
</g>
<path fill="#235636" d="
  M 156.87 0.00
  L 156.87 156.18
  A 0.60 0.60 0.0 0 0 157.47 156.78
  L 313.18 156.78
  A 0.47 0.47 0.0 0 0 313.65 156.31
  L 313.65 0.00
  L 470.41 0.00
  L 470.36 156.30
  A 0.52 0.51 90.0 0 0 470.87 156.82
  L 626.37 156.82
  A 0.74 0.74 0.0 0 1 627.11 157.56
  L 627.03 313.55
  L 470.94 313.57
  A 0.56 0.55 90.0 0 0 470.39 314.13
  L 470.39 469.56
  A 0.61 0.61 0.0 0 0 471.00 470.17
  L 626.40 470.17
  A 0.56 0.55 -0.0 0 0 626.96 469.62
  L 627.03 313.55
  Q 627.19 313.21 627.41 313.36
  Q 712.30 313.45 782.71 313.44
  A 0.78 0.78 0.0 0 0 783.49 312.66
  L 783.49 157.57
  A 0.60 0.60 0.0 0 0 782.89 156.97
  L 627.83 156.97
  A 0.85 0.85 0.0 0 1 626.98 156.12
  L 627.08 0.00
  L 783.58 0.00
  L 783.61 156.32
  A 0.51 0.51 0.0 0 0 784.12 156.83
  L 939.80 156.83
  A 0.53 0.52 90.0 0 0 940.32 156.30
  L 940.34 0.00
  L 1097.26 0.00
  L 1097.26 156.26
  A 0.50 0.49 -90.0 0 0 1097.75 156.76
  L 1254.00 156.78
  L 1254.00 313.49
  L 1097.77 313.51
  A 0.53 0.53 0.0 0 0 1097.24 314.04
  L 1097.24 469.63
  A 0.55 0.54 0.0 0 0 1097.79 470.17
  L 1254.00 470.21
  L 1254.00 627.06
  L 1097.82 627.09
  A 0.54 0.54 0.0 0 0 1097.28 627.63
  L 1097.28 783.10
  A 0.55 0.55 0.0 0 0 1097.83 783.65
  L 1254.00 783.68
  L 1254.00 940.49
  L 1097.87 940.51
  A 0.54 0.54 0.0 0 0 1097.33 941.05
  L 1097.33 1096.48
  A 0.53 0.53 0.0 0 0 1097.86 1097.01
  L 1254.00 1097.03
  L 1254.00 1253.48
  Q 1253.72 1253.68 1253.60 1254.00
  L 1097.15 1254.00
  L 1097.15 1097.67
  A 0.48 0.48 0.0 0 0 1096.67 1097.19
  L 940.83 1097.19
  A 0.49 0.48 -0.0 0 0 940.34 1097.67
  L 940.34 1254.00
  L 783.59 1254.00
  L 783.59 1097.75
  A 0.51 0.50 0.0 0 0 783.08 1097.25
  L 627.43 1097.25
  A 0.51 0.51 0.0 0 0 626.92 1097.76
  L 626.92 1254.00
  L 470.37 1254.00
  L 470.33 1097.68
  A 0.50 0.50 0.0 0 0 469.83 1097.18
  L 314.11 1097.18
  A 0.51 0.51 0.0 0 0 313.60 1097.69
  L 313.58 1254.00
  L 156.73 1254.00
  L 156.71 1097.71
  A 0.55 0.55 0.0 0 0 156.16 1097.16
  L 0.00 1097.16
  L 0.00 940.48
  L 156.03 940.44
  A 0.66 0.66 0.0 0 0 156.69 939.78
  L 156.69 784.51
  A 0.65 0.65 0.0 0 0 156.04 783.86
  L 0.00 783.84
  L 0.00 626.95
  L 156.14 626.89
  A 0.52 0.52 0.0 0 0 156.66 626.37
  L 156.66 470.94
  A 0.55 0.55 0.0 0 0 156.11 470.39
  L 0.00 470.37
  L 0.00 313.45
  L 156.11 313.42
  A 0.51 0.51 0.0 0 0 156.62 312.91
  L 156.62 157.52
  A 0.53 0.52 0.0 0 0 156.09 157.00
  L 0.00 156.97
  L 0.00 0.00
  L 156.87 0.00
  Z
  M 313.42 313.33
  Q 313.23 313.52 313.03 313.52
  Q 247.69 313.52 157.51 313.48
  A 0.58 0.57 90.0 0 0 156.94 314.06
  Q 156.79 389.20 156.89 469.56
  Q 156.89 469.69 157.12 469.92
  Q 157.33 470.12 157.46 470.12
  Q 237.81 470.25 312.95 470.12
  A 0.58 0.57 0.0 0 0 313.53 469.56
  Q 313.52 379.38 313.55 314.04
  Q 313.55 313.84 313.74 313.65
  Q 313.91 313.48 314.12 313.48
  Q 379.45 313.47 469.63 313.51
  A 0.58 0.57 90.0 0 0 470.20 312.93
  Q 470.35 237.79 470.25 157.44
  Q 470.25 157.31 470.02 157.08
  Q 469.82 156.87 469.68 156.87
  Q 389.33 156.74 314.19 156.87
  A 0.58 0.57 0.0 0 0 313.61 157.44
  Q 313.62 247.62 313.59 312.95
  Q 313.59 313.16 313.42 313.33
  Z
  M 940.20 313.36
  Q 940.02 313.54 939.81 313.54
  Q 874.49 313.54 784.33 313.49
  A 0.58 0.57 90.0 0 0 783.76 314.07
  Q 783.60 389.20 783.69 469.54
  Q 783.69 469.67 783.93 469.90
  Q 784.13 470.10 784.26 470.11
  Q 864.60 470.24 939.73 470.12
  A 0.58 0.57 0.0 0 0 940.31 469.55
  Q 940.31 379.39 940.34 314.07
  Q 940.34 313.86 940.52 313.68
  Q 940.70 313.50 940.91 313.50
  Q 1006.23 313.50 1096.39 313.55
  A 0.58 0.57 90.0 0 0 1096.96 312.97
  Q 1097.12 237.84 1097.03 157.50
  Q 1097.03 157.37 1096.80 157.14
  Q 1096.59 156.94 1096.46 156.94
  Q 1016.12 156.80 940.99 156.92
  A 0.58 0.57 0.0 0 0 940.41 157.49
  Q 940.41 247.65 940.38 312.97
  Q 940.38 313.18 940.20 313.36
  Z
  M 470.31 470.70
  A 0.40 0.40 0.0 0 0 469.91 470.30
  L 314.01 470.30
  A 0.40 0.40 0.0 0 0 313.61 470.70
  L 313.61 626.60
  A 0.40 0.40 0.0 0 0 314.01 627.00
  L 469.91 627.00
  A 0.40 0.40 0.0 0 0 470.31 626.60
  L 470.31 470.70
  Z
  M 627.16 627.20
  Q 627.34 627.02 627.55 627.02
  Q 692.86 626.99 783.00 626.99
  A 0.58 0.57 90.0 0 0 783.57 626.40
  Q 783.69 551.29 783.55 470.97
  Q 783.55 470.83 783.34 470.63
  Q 783.11 470.40 782.98 470.40
  Q 702.66 470.31 627.54 470.47
  A 0.58 0.57 -0.0 0 0 626.96 471.04
  Q 627.02 561.18 627.02 626.50
  Q 627.02 626.70 626.84 626.88
  Q 626.66 627.06 626.45 627.06
  Q 561.14 627.10 471.00 627.10
  A 0.58 0.57 90.0 0 0 470.43 627.68
  Q 470.31 702.80 470.45 783.12
  Q 470.45 783.25 470.66 783.45
  Q 470.89 783.68 471.02 783.68
  Q 551.34 783.78 626.46 783.61
  A 0.58 0.57 -0.0 0 0 627.04 783.04
  Q 626.98 692.90 626.98 627.59
  Q 626.98 627.38 627.16 627.20
  Z
  M 1097.08 470.71
  A 0.38 0.38 0.0 0 0 1096.70 470.33
  L 940.78 470.33
  A 0.38 0.38 0.0 0 0 940.40 470.71
  L 940.40 626.63
  A 0.38 0.38 0.0 0 0 940.78 627.01
  L 1096.70 627.01
  A 0.38 0.38 0.0 0 0 1097.08 626.63
  L 1097.08 470.71
  Z
  M 313.56 627.79
  A 0.74 0.74 0.0 0 0 312.82 627.05
  L 157.62 627.05
  A 0.74 0.74 0.0 0 0 156.88 627.79
  L 156.88 782.99
  A 0.74 0.74 0.0 0 0 157.62 783.73
  L 312.82 783.73
  A 0.74 0.74 0.0 0 0 313.56 782.99
  L 313.56 627.79
  Z
  M 784.33 627.04
  A 0.70 0.70 0.0 0 0 783.63 627.74
  L 783.63 783.01
  A 0.70 0.70 0.0 0 0 784.33 783.71
  L 939.60 783.71
  A 0.70 0.70 0.0 0 0 940.30 783.01
  L 940.30 627.74
  A 0.70 0.70 0.0 0 0 939.60 627.04
  L 784.33 627.04
  Z
  M 313.75 940.63
  Q 313.94 940.45 314.14 940.45
  Q 379.46 940.44 469.62 940.48
  A 0.58 0.57 90.0 0 0 470.19 939.90
  Q 470.34 864.78 470.24 784.44
  Q 470.24 784.31 470.01 784.08
  Q 469.81 783.88 469.67 783.87
  Q 389.34 783.75 314.21 783.87
  A 0.58 0.57 0.0 0 0 313.63 784.44
  Q 313.64 874.60 313.62 939.92
  Q 313.62 940.13 313.43 940.31
  Q 313.26 940.49 313.05 940.49
  Q 247.73 940.49 157.57 940.45
  A 0.58 0.57 90.0 0 0 157.00 941.03
  Q 156.85 1016.16 156.95 1096.49
  Q 156.95 1096.63 157.18 1096.86
  Q 157.39 1097.06 157.52 1097.06
  Q 237.85 1097.19 312.98 1097.06
  A 0.58 0.57 0.0 0 0 313.56 1096.49
  Q 313.55 1006.34 313.57 941.01
  Q 313.57 940.81 313.75 940.63
  Z
  M 783.53 784.55
  A 0.68 0.68 0.0 0 0 782.85 783.87
  L 627.65 783.87
  A 0.68 0.68 0.0 0 0 626.97 784.55
  L 626.97 939.75
  A 0.68 0.68 0.0 0 0 627.65 940.43
  L 782.85 940.43
  A 0.68 0.68 0.0 0 0 783.53 939.75
  L 783.53 784.55
  Z
  M 940.52 940.63
  Q 940.70 940.44 940.91 940.44
  Q 1006.23 940.44 1096.39 940.48
  A 0.58 0.57 90.0 0 0 1096.96 939.90
  Q 1097.11 864.77 1097.01 784.44
  Q 1097.01 784.31 1096.78 784.07
  Q 1096.58 783.87 1096.45 783.87
  Q 1016.11 783.74 940.98 783.87
  A 0.58 0.57 0.0 0 0 940.40 784.44
  Q 940.41 874.60 940.38 939.92
  Q 940.38 940.12 940.20 940.31
  Q 940.02 940.49 939.82 940.49
  Q 874.49 940.49 784.33 940.45
  A 0.58 0.57 90.0 0 0 783.76 941.03
  Q 783.61 1016.16 783.71 1096.49
  Q 783.71 1096.62 783.94 1096.86
  Q 784.15 1097.06 784.28 1097.06
  Q 864.61 1097.19 939.74 1097.06
  A 0.58 0.57 0.0 0 0 940.32 1096.49
  Q 940.31 1006.33 940.34 941.01
  Q 940.34 940.81 940.52 940.63
  Z
  M 626.97 941.04
  A 0.49 0.49 0.0 0 0 626.48 940.55
  L 470.96 940.55
  A 0.49 0.49 0.0 0 0 470.47 941.04
  L 470.47 1096.56
  A 0.49 0.49 0.0 0 0 470.96 1097.05
  L 626.48 1097.05
  A 0.49 0.49 0.0 0 0 626.97 1096.56
  L 626.97 941.04
  Z"
/>
<path fill="#f8f4e8" d="
  M 313.65 0.00
  L 313.65 156.31
  A 0.47 0.47 0.0 0 1 313.18 156.78
  L 157.47 156.78
  A 0.60 0.60 0.0 0 1 156.87 156.18
  L 156.87 0.00
  L 313.65 0.00
  Z"
/>
<path fill="#f8f4e8" d="
  M 627.08 0.00
  L 626.98 156.12
  A 0.85 0.85 0.0 0 0 627.83 156.97
  L 782.89 156.97
  A 0.60 0.60 0.0 0 1 783.49 157.57
  L 783.49 312.66
  A 0.78 0.78 0.0 0 1 782.71 313.44
  Q 712.30 313.45 627.41 313.36
  Q 627.19 313.21 627.03 313.55
  L 627.11 157.56
  A 0.74 0.74 0.0 0 0 626.37 156.82
  L 470.87 156.82
  A 0.52 0.51 -90.0 0 1 470.36 156.30
  L 470.41 0.00
  L 627.08 0.00
  Z"
/>
<path fill="#f8f4e8" d="
  M 940.34 0.00
  L 940.32 156.30
  A 0.53 0.52 90.0 0 1 939.80 156.83
  L 784.12 156.83
  A 0.51 0.51 0.0 0 1 783.61 156.32
  L 783.58 0.00
  L 940.34 0.00
  Z"
/>
<path fill="#f8f4e8" d="
  M 1254.00 0.00
  L 1254.00 156.78
  L 1097.75 156.76
  A 0.50 0.49 90.0 0 1 1097.26 156.26
  L 1097.26 0.00
  L 1254.00 0.00
  Z"
/>
<path fill="#f8f4e8" d="
  M 0.00 313.45
  L 0.00 156.97
  L 156.09 157.00
  A 0.53 0.52 0.0 0 1 156.62 157.52
  L 156.62 312.91
  A 0.51 0.51 0.0 0 1 156.11 313.42
  L 0.00 313.45
  Z"
/>
<path fill="#f8f4e8" d="
  M 313.42 313.33
  Q 313.59 313.16 313.59 312.95
  Q 313.62 247.62 313.61 157.44
  A 0.58 0.57 0.0 0 1 314.19 156.87
  Q 389.33 156.74 469.68 156.87
  Q 469.82 156.87 470.02 157.08
  Q 470.25 157.31 470.25 157.44
  Q 470.35 237.79 470.20 312.93
  A 0.58 0.57 90.0 0 1 469.63 313.51
  Q 379.45 313.47 314.12 313.48
  Q 313.91 313.48 313.74 313.65
  Q 313.55 313.84 313.55 314.04
  Q 313.52 379.38 313.53 469.56
  A 0.58 0.57 0.0 0 1 312.95 470.12
  Q 237.81 470.25 157.46 470.12
  Q 157.33 470.12 157.12 469.92
  Q 156.89 469.69 156.89 469.56
  Q 156.79 389.20 156.94 314.06
  A 0.58 0.57 90.0 0 1 157.51 313.48
  Q 247.69 313.52 313.03 313.52
  Q 313.23 313.52 313.42 313.33
  Z"
/>
<path fill="#f8f4e8" d="
  M 1096.80 157.14
  Q 1097.03 157.37 1097.03 157.50
  Q 1097.12 237.84 1096.96 312.97
  A 0.58 0.57 -90.0 0 1 1096.39 313.55
  Q 1006.23 313.50 940.91 313.50
  Q 940.70 313.50 940.52 313.68
  Q 940.34 313.86 940.34 314.07
  Q 940.31 379.39 940.31 469.55
  A 0.58 0.57 0.0 0 1 939.73 470.12
  Q 864.60 470.24 784.26 470.11
  Q 784.13 470.10 783.93 469.90
  Q 783.69 469.67 783.69 469.54
  Q 783.60 389.20 783.76 314.07
  A 0.58 0.57 90.0 0 1 784.33 313.49
  Q 874.49 313.54 939.81 313.54
  Q 940.02 313.54 940.20 313.36
  Q 940.38 313.18 940.38 312.97
  Q 940.41 247.65 940.41 157.49
  A 0.58 0.57 0.0 0 1 940.99 156.92
  Q 1016.12 156.80 1096.46 156.94
  Q 1096.59 156.94 1096.80 157.14
  Z"
/>
<path fill="#f8f4e8" d="
  M 627.03 313.55
  L 626.96 469.62
  A 0.56 0.55 -0.0 0 1 626.40 470.17
  L 471.00 470.17
  A 0.61 0.61 0.0 0 1 470.39 469.56
  L 470.39 314.13
  A 0.56 0.55 -90.0 0 1 470.94 313.57
  L 627.03 313.55
  Z"
/>
<path fill="#f8f4e8" d="
  M 1254.00 313.49
  L 1254.00 470.21
  L 1097.79 470.17
  A 0.55 0.54 -0.0 0 1 1097.24 469.63
  L 1097.24 314.04
  A 0.53 0.53 0.0 0 1 1097.77 313.51
  L 1254.00 313.49
  Z"
/>
<path fill="#f8f4e8" d="
  M 0.00 626.95
  L 0.00 470.37
  L 156.11 470.39
  A 0.55 0.55 0.0 0 1 156.66 470.94
  L 156.66 626.37
  A 0.52 0.52 0.0 0 1 156.14 626.89
  L 0.00 626.95
  Z"
/>
<rect fill="#f8f4e8" x="313.61" y="470.30" width="156.70" height="156.70" rx="0.40"/>
<path fill="#f8f4e8" d="
  M 627.16 627.20
  Q 626.98 627.38 626.98 627.59
  Q 626.98 692.90 627.04 783.04
  A 0.58 0.57 -0.0 0 1 626.46 783.61
  Q 551.34 783.78 471.02 783.68
  Q 470.89 783.68 470.66 783.45
  Q 470.45 783.25 470.45 783.12
  Q 470.31 702.80 470.43 627.68
  A 0.58 0.57 90.0 0 1 471.00 627.10
  Q 561.14 627.10 626.45 627.06
  Q 626.66 627.06 626.84 626.88
  Q 627.02 626.70 627.02 626.50
  Q 627.02 561.18 626.96 471.04
  A 0.58 0.57 -0.0 0 1 627.54 470.47
  Q 702.66 470.31 782.98 470.40
  Q 783.11 470.40 783.34 470.63
  Q 783.55 470.83 783.55 470.97
  Q 783.69 551.29 783.57 626.40
  A 0.58 0.57 90.0 0 1 783.00 626.99
  Q 692.86 626.99 627.55 627.02
  Q 627.34 627.02 627.16 627.20
  Z"
/>
<rect fill="#f8f4e8" x="940.40" y="470.33" width="156.68" height="156.68" rx="0.38"/>
<rect fill="#f8f4e8" x="156.88" y="627.05" width="156.68" height="156.68" rx="0.74"/>
<path fill="#f8f4e8" d="
  M 784.33 627.04
  L 939.60 627.04
  A 0.70 0.70 0.0 0 1 940.30 627.74
  L 940.30 783.01
  A 0.70 0.70 0.0 0 1 939.60 783.71
  L 784.33 783.71
  A 0.70 0.70 0.0 0 1 783.63 783.01
  L 783.63 627.74
  A 0.70 0.70 0.0 0 1 784.33 627.04
  Z"
/>
<path fill="#f8f4e8" d="
  M 1254.00 627.06
  L 1254.00 783.68
  L 1097.83 783.65
  A 0.55 0.55 0.0 0 1 1097.28 783.10
  L 1097.28 627.63
  A 0.54 0.54 0.0 0 1 1097.82 627.09
  L 1254.00 627.06
  Z"
/>
<path fill="#f8f4e8" d="
  M 0.00 940.48
  L 0.00 783.84
  L 156.04 783.86
  A 0.65 0.65 0.0 0 1 156.69 784.51
  L 156.69 939.78
  A 0.66 0.66 0.0 0 1 156.03 940.44
  L 0.00 940.48
  Z"
/>
<path fill="#f8f4e8" d="
  M 313.75 940.63
  Q 313.57 940.81 313.57 941.01
  Q 313.55 1006.34 313.56 1096.49
  A 0.58 0.57 0.0 0 1 312.98 1097.06
  Q 237.85 1097.19 157.52 1097.06
  Q 157.39 1097.06 157.18 1096.86
  Q 156.95 1096.63 156.95 1096.49
  Q 156.85 1016.16 157.00 941.03
  A 0.58 0.57 90.0 0 1 157.57 940.45
  Q 247.73 940.49 313.05 940.49
  Q 313.26 940.49 313.43 940.31
  Q 313.62 940.13 313.62 939.92
  Q 313.64 874.60 313.63 784.44
  A 0.58 0.57 0.0 0 1 314.21 783.87
  Q 389.34 783.75 469.67 783.87
  Q 469.81 783.88 470.01 784.08
  Q 470.24 784.31 470.24 784.44
  Q 470.34 864.78 470.19 939.90
  A 0.58 0.57 90.0 0 1 469.62 940.48
  Q 379.46 940.44 314.14 940.45
  Q 313.94 940.45 313.75 940.63
  Z"
/>
<rect fill="#f8f4e8" x="626.97" y="783.87" width="156.56" height="156.56" rx="0.68"/>
<path fill="#f8f4e8" d="
  M 940.52 940.63
  Q 940.34 940.81 940.34 941.01
  Q 940.31 1006.33 940.32 1096.49
  A 0.58 0.57 0.0 0 1 939.74 1097.06
  Q 864.61 1097.19 784.28 1097.06
  Q 784.15 1097.06 783.94 1096.86
  Q 783.71 1096.62 783.71 1096.49
  Q 783.61 1016.16 783.76 941.03
  A 0.58 0.57 90.0 0 1 784.33 940.45
  Q 874.49 940.49 939.82 940.49
  Q 940.02 940.49 940.20 940.31
  Q 940.38 940.12 940.38 939.92
  Q 940.41 874.60 940.40 784.44
  A 0.58 0.57 0.0 0 1 940.98 783.87
  Q 1016.11 783.74 1096.45 783.87
  Q 1096.58 783.87 1096.78 784.07
  Q 1097.01 784.31 1097.01 784.44
  Q 1097.11 864.77 1096.96 939.90
  A 0.58 0.57 90.0 0 1 1096.39 940.48
  Q 1006.23 940.44 940.91 940.44
  Q 940.70 940.44 940.52 940.63
  Z"
/>
<rect fill="#f8f4e8" x="470.47" y="940.55" width="156.50" height="156.50" rx="0.49"/>
<path fill="#f8f4e8" d="
  M 1254.00 940.49
  L 1254.00 1097.03
  L 1097.86 1097.01
  A 0.53 0.53 0.0 0 1 1097.33 1096.48
  L 1097.33 941.05
  A 0.54 0.54 0.0 0 1 1097.87 940.51
  L 1254.00 940.49
  Z"
/>
<path fill="#f8f4e8" d="
  M 156.73 1254.00
  L 0.00 1254.00
  L 0.00 1097.16
  L 156.16 1097.16
  A 0.55 0.55 0.0 0 1 156.71 1097.71
  L 156.73 1254.00
  Z"
/>
<path fill="#f8f4e8" d="
  M 470.37 1254.00
  L 313.58 1254.00
  L 313.60 1097.69
  A 0.51 0.51 0.0 0 1 314.11 1097.18
  L 469.83 1097.18
  A 0.50 0.50 0.0 0 1 470.33 1097.68
  L 470.37 1254.00
  Z"
/>
<path fill="#f8f4e8" d="
  M 783.59 1254.00
  L 626.92 1254.00
  L 626.92 1097.76
  A 0.51 0.51 0.0 0 1 627.43 1097.25
  L 783.08 1097.25
  A 0.51 0.50 0.0 0 1 783.59 1097.75
  L 783.59 1254.00
  Z"
/>
<path fill="#f8f4e8" d="
  M 1097.15 1254.00
  L 940.34 1254.00
  L 940.34 1097.67
  A 0.49 0.48 -0.0 0 1 940.83 1097.19
  L 1096.67 1097.19
  A 0.48 0.48 0.0 0 1 1097.15 1097.67
  L 1097.15 1254.00
  Z"
/>
<path fill="#f8f4e8" d="
  M 1254.00 1253.48
  L 1254.00 1254.00
  L 1253.60 1254.00
  Q 1253.72 1253.68 1254.00 1253.48
  Z"
/>
</svg>
