<?xml version="1.0" encoding="UTF-8" standalone="no"?>
<!DOCTYPE svg PUBLIC "-//W3C//DTD SVG 1.1//EN" "http://www.w3.org/Graphics/SVG/1.1/DTD/svg11.dtd">
<svg xmlns="http://www.w3.org/2000/svg" version="1.1" viewBox="0.00 0.00 1254.00 1254.00">
<g stroke-width="2.00" fill="none" stroke-linecap="butt">
<path stroke="#c59ced" vector-effect="non-scaling-stroke" d="
  M 66.48 0.00
  Q 66.43 0.25 65.99 0.66"
/>
<path stroke="#eeddf3" vector-effect="non-scaling-stroke" d="
  M 65.99 0.66
  Q 65.33 0.75 64.87 1.62
  Q 64.27 2.77 64.15 2.95
  C 53.86 19.03 42.41 35.16 32.14 50.36
  Q 15.93 74.36 0.00 98.08"
/>
<path stroke="#cfb1e4" vector-effect="non-scaling-stroke" d="
  M 68.19 0.00
  L 144.83 108.73
  A 0.74 0.74 0.0 0 0 146.04 108.72
  L 222.17 0.00"
/>
<path stroke="#c59ced" vector-effect="non-scaling-stroke" d="
  M 224.14 0.00
  Q 224.44 0.70 223.65 1.81"
/>
<path stroke="#cfb1e4" vector-effect="non-scaling-stroke" d="
  M 223.65 1.81
  L 147.45 110.50
  A 0.98 0.97 -45.4 0 0 147.45 111.63
  L 222.65 219.27"
/>
<path stroke="#c59ced" vector-effect="non-scaling-stroke" d="
  M 222.65 219.27
  L 298.34 328.48
  A 0.40 0.40 0.0 0 0 299.00 328.48
  Q 316.92 302.90 323.65 292.89
  Q 331.29 281.51 368.46 228.71
  Q 370.98 225.13 373.54 220.42"
/>
<path stroke="#cfb1e4" vector-effect="non-scaling-stroke" d="
  M 373.54 220.42
  L 448.86 111.97
  A 0.73 0.72 45.5 0 0 448.86 111.14
  L 371.22 0.45"
/>
<path stroke="#c59ced" vector-effect="non-scaling-stroke" d="
  M 371.22 0.45
  Q 371.50 0.33 371.63 0.00"
/>
<path stroke="#cfb1e4" vector-effect="non-scaling-stroke" d="
  M 373.32 0.00
  L 450.06 108.97
  A 0.64 0.64 0.0 0 0 451.10 108.97
  L 527.33 0.00"
/>
<path stroke="#c59ced" vector-effect="non-scaling-stroke" d="
  M 528.50 0.00
  Q 529.20 0.19 529.18 0.49
  Q 529.15 1.19 528.64 1.67"
/>
<path stroke="#cfb1e4" vector-effect="non-scaling-stroke" d="
  M 528.64 1.67
  L 452.34 110.97
  A 1.08 1.07 45.3 0 0 452.34 112.20
  L 526.90 219.30"
/>
<path stroke="#c59ced" vector-effect="non-scaling-stroke" d="
  M 526.90 219.30
  L 601.77 327.42
  A 0.77 0.77 0.0 0 0 603.02 327.44
  Q 603.60 326.66 607.18 321.45
  Q 640.10 273.60 670.67 229.66
  Q 672.88 226.47 677.32 219.30"
/>
<path stroke="#cfb1e4" vector-effect="non-scaling-stroke" d="
  M 677.32 219.30
  L 752.39 111.69
  A 1.05 1.04 -48.3 0 0 752.32 110.41
  C 746.46 103.56 741.82 95.79 736.94 88.89
  Q 706.02 45.14 675.17 1.36"
/>
<path stroke="#c59ced" vector-effect="non-scaling-stroke" d="
  M 675.17 1.36
  Q 674.47 1.09 675.40 0.00"
/>
<path stroke="#cfb1e4" vector-effect="non-scaling-stroke" d="
  M 676.80 0.00
  L 752.94 108.67
  A 0.79 0.79 0.0 0 0 754.23 108.67
  L 830.43 0.00"
/>
<path stroke="#c59ced" vector-effect="non-scaling-stroke" d="
  M 832.63 0.00
  Q 832.51 0.86 832.67 0.60"
/>
<path stroke="#cfb1e4" vector-effect="non-scaling-stroke" d="
  M 832.67 0.60
  L 755.37 110.42
  A 1.58 1.58 0.0 0 0 755.46 112.35
  C 760.47 118.26 764.58 124.89 769.43 131.85
  Q 792.74 165.31 829.90 218.11
  Q 830.67 219.21 831.36 219.95"
/>
<path stroke="#c59ced" vector-effect="non-scaling-stroke" d="
  M 831.36 219.95
  L 906.38 328.85
  A 0.76 0.76 0.0 0 0 907.63 328.86
  Q 917.36 315.06 927.05 300.99
  Q 933.28 291.95 943.70 276.70
  Q 956.20 258.41 977.99 228.23
  Q 980.99 224.08 983.25 219.73"
/>
<path stroke="#cfb1e4" vector-effect="non-scaling-stroke" d="
  M 983.25 219.73
  L 1059.06 111.46
  A 0.80 0.78 -45.4 0 0 1059.06 110.55
  L 981.65 0.79"
/>
<path stroke="#c59ced" vector-effect="non-scaling-stroke" d="
  M 981.65 0.79
  Q 981.92 0.35 981.99 0.00"
/>
<path stroke="#cfb1e4" vector-effect="non-scaling-stroke" d="
  M 983.51 0.00
  L 1060.17 108.31
  A 0.74 0.74 0.0 0 0 1061.38 108.31
  L 1137.56 0.00"
/>
<path stroke="#c59ced" vector-effect="non-scaling-stroke" d="
  M 1139.00 0.00
  Q 1139.82 0.67 1139.21 1.20"
/>
<path stroke="#cfb1e4" vector-effect="non-scaling-stroke" d="
  M 1139.21 1.20
  L 1062.33 110.71
  A 0.53 0.52 -45.7 0 0 1062.33 111.32
  L 1137.61 218.91"
/>
<path stroke="#c59ced" vector-effect="non-scaling-stroke" d="
  M 1137.61 218.91
  L 1214.38 328.83
  A 0.65 0.65 0.0 0 0 1215.44 328.83
  L 1254.00 274.02"
/>
<path stroke="#c59ced" vector-effect="non-scaling-stroke" d="
  M 1254.00 277.43
  L 1216.73 331.07
  A 1.02 1.02 0.0 0 0 1216.73 332.23
  L 1254.00 385.89"
/>
<path stroke="#c59ced" vector-effect="non-scaling-stroke" d="
  M 1254.00 389.15
  L 1215.59 334.09
  A 0.90 0.90 0.0 0 0 1214.12 334.09
  L 1136.99 445.25"
/>
<path stroke="#cfb1e4" vector-effect="non-scaling-stroke" d="
  M 1136.99 445.25
  L 1062.34 552.34
  A 1.40 1.39 45.3 0 0 1062.34 553.93
  L 1138.57 664.47"
/>
<path stroke="#c59ced" vector-effect="non-scaling-stroke" d="
  M 1138.57 664.47
  L 1214.21 774.23
  A 0.63 0.63 0.0 0 0 1215.25 774.23
  L 1254.00 718.97"
/>
<path stroke="#c59ced" vector-effect="non-scaling-stroke" d="
  M 1254.00 722.20
  L 1216.69 776.03
  A 1.42 1.40 45.3 0 0 1216.69 777.64
  L 1254.00 832.01"
/>
<path stroke="#c59ced" vector-effect="non-scaling-stroke" d="
  M 1254.00 835.23
  L 1215.53 779.76
  A 0.98 0.98 0.0 0 0 1213.92 779.75
  C 1189.45 814.49 1165.48 849.86 1140.89 884.63
  Q 1139.27 886.93 1136.93 890.99"
/>
<path stroke="#cfb1e4" vector-effect="non-scaling-stroke" d="
  M 1136.93 890.99
  L 1062.12 998.17
  A 1.02 1.01 -44.8 0 0 1062.11 999.33
  L 1139.14 1111.31"
/>
<path stroke="#c59ced" vector-effect="non-scaling-stroke" d="
  M 1139.14 1111.31
  L 1214.39 1220.96
  A 0.67 0.66 44.6 0 0 1215.49 1220.96
  Q 1229.49 1200.30 1244.07 1179.84
  Q 1244.10 1179.80 1248.64 1172.93
  Q 1251.02 1169.33 1254.00 1165.98"
/>
<path stroke="#c59ced" vector-effect="non-scaling-stroke" d="
  M 1254.00 1169.36
  L 1216.70 1223.04
  A 0.93 0.92 -44.7 0 0 1216.69 1224.08
  Q 1226.75 1238.77 1236.63 1253.35
  Q 1236.80 1253.61 1236.35 1254.00"
/>
<path stroke="#c59ced" vector-effect="non-scaling-stroke" d="
  M 1234.70 1254.00
  L 1215.45 1226.29
  A 0.67 0.66 -45.1 0 0 1214.36 1226.30
  L 1195.20 1254.00"
/>
<path stroke="#c59ced" vector-effect="non-scaling-stroke" d="
  M 1192.86 1254.00
  L 1213.31 1223.56
  A 0.42 0.42 0.0 0 0 1213.31 1223.10
  L 1137.87 1113.24"
/>
<path stroke="#cfb1e4" vector-effect="non-scaling-stroke" d="
  M 1137.87 1113.24
  L 1061.06 1001.31
  A 0.54 0.54 0.0 0 0 1060.17 1001.31
  L 982.15 1114.17"
/>
<path stroke="#c59ced" vector-effect="non-scaling-stroke" d="
  M 982.15 1114.17
  L 909.27 1220.62
  A 1.21 1.20 -44.8 0 0 909.26 1221.98
  L 930.38 1254.00"
/>
<path stroke="#c59ced" vector-effect="non-scaling-stroke" d="
  M 927.93 1254.00
  L 908.33 1224.28
  A 1.19 1.19 0.0 0 0 906.35 1224.28
  L 886.67 1254.00"
/>
<path stroke="#c59ced" vector-effect="non-scaling-stroke" d="
  M 884.11 1254.00
  L 905.97 1221.83
  A 0.94 0.94 0.0 0 0 905.97 1220.77
  L 832.30 1112.43"
/>
<path stroke="#cfb1e4" vector-effect="non-scaling-stroke" d="
  M 832.30 1112.43
  L 761.44 1008.16
  A 0.28 0.10 70.7 0 0 761.40 1008.11
  Q 758.31 1004.53 755.82 999.78
  A 0.96 0.95 -45.5 0 0 754.12 999.80
  Q 752.39 1003.24 749.01 1007.83
  C 743.87 1014.81 737.81 1024.46 734.28 1029.54
  Q 704.85 1071.96 676.85 1113.42"
/>
<path stroke="#c59ced" vector-effect="non-scaling-stroke" d="
  M 676.85 1113.42
  L 603.90 1220.69
  A 0.74 0.73 -44.7 0 0 603.89 1221.51
  L 625.31 1254.00"
/>
<path stroke="#c59ced" vector-effect="non-scaling-stroke" d="
  M 622.92 1254.00
  L 602.55 1224.23
  A 0.63 0.63 0.0 0 0 601.51 1224.23
  L 581.29 1254.00"
/>
<path stroke="#c59ced" vector-effect="non-scaling-stroke" d="
  M 578.94 1254.00
  L 600.48 1221.44
  A 0.94 0.93 -45.4 0 0 600.48 1220.41
  Q 554.53 1152.60 552.85 1150.11
  Q 541.31 1133.06 530.20 1116.05
  Q 528.64 1113.66 526.74 1111.75"
/>
<path stroke="#cfb1e4" vector-effect="non-scaling-stroke" d="
  M 526.74 1111.75
  Q 513.54 1091.60 499.98 1071.76
  Q 479.71 1042.10 449.87 998.63
  Q 449.53 998.14 449.44 998.10
  A 0.88 0.83 29.4 0 0 448.36 998.37
  L 370.88 1111.93"
/>
<path stroke="#c59ced" vector-effect="non-scaling-stroke" d="
  M 370.88 1111.93
  L 299.17 1218.12
  A 0.56 0.55 -44.5 0 0 299.16 1218.72
  Q 306.27 1229.97 313.91 1240.85
  Q 318.29 1247.10 322.06 1254.00"
/>
<path stroke="#c59ced" vector-effect="non-scaling-stroke" d="
  M 320.16 1254.00
  L 298.01 1220.85
  A 0.67 0.66 44.8 0 0 296.90 1220.85
  L 275.07 1254.00"
/>
<path stroke="#c59ced" vector-effect="non-scaling-stroke" d="
  M 272.83 1254.00
  L 296.11 1218.88
  A 0.87 0.87 0.0 0 0 296.10 1217.91
  L 223.63 1111.04"
/>
<path stroke="#cfb1e4" vector-effect="non-scaling-stroke" d="
  M 223.63 1111.04
  Q 212.35 1093.65 199.86 1075.38
  Q 180.07 1046.42 160.31 1017.45
  Q 153.27 1007.14 152.19 1005.03
  A 3.75 3.31 14.9 0 0 151.75 1004.37
  Q 149.28 1001.54 147.16 997.81
  A 0.63 0.63 0.0 0 0 146.09 997.77
  L 67.35 1112.44"
/>
<path stroke="#c59ced" vector-effect="non-scaling-stroke" d="
  M 67.35 1112.44
  Q 34.03 1161.32 0.73 1210.20
  Q 0.59 1210.40 0.41 1210.42
  Q 0.22 1210.44 0.00 1210.36"
/>
<path stroke="#c59ced" vector-effect="non-scaling-stroke" d="
  M 0.00 1207.33
  L 66.30 1110.30"
/>
<path stroke="#cfb1e4" vector-effect="non-scaling-stroke" d="
  M 66.30 1110.30
  L 144.86 995.50
  A 1.28 1.28 0.0 0 0 144.86 994.06
  L 70.36 886.10"
/>
<path stroke="#c59ced" vector-effect="non-scaling-stroke" d="
  M 70.36 886.10
  L 0.00 784.23"
/>
<path stroke="#c59ced" vector-effect="non-scaling-stroke" d="
  M 0.00 780.11
  L 72.15 884.78"
/>
<path stroke="#cfb1e4" vector-effect="non-scaling-stroke" d="
  M 72.15 884.78
  Q 94.42 917.32 117.21 950.30
  C 124.54 960.92 131.58 972.10 138.42 981.02
  C 141.19 984.63 143.47 988.97 145.98 992.57
  A 0.68 0.67 -45.4 0 0 147.09 992.56
  L 218.88 887.84"
/>
<path stroke="#c59ced" vector-effect="non-scaling-stroke" d="
  M 218.88 887.84
  L 297.06 773.89
  A 0.72 0.71 -44.7 0 0 297.07 773.07
  L 223.49 665.26"
/>
<path stroke="#cfb1e4" vector-effect="non-scaling-stroke" d="
  M 223.49 665.26
  L 147.40 553.79
  A 0.74 0.74 0.0 0 0 146.18 553.79
  L 68.08 667.29"
/>
<path stroke="#c59ced" vector-effect="non-scaling-stroke" d="
  M 68.08 667.29
  Q 60.98 677.03 54.45 686.68
  C 36.93 712.60 19.09 738.30 1.26 764.01
  Q 0.65 764.89 0.00 764.89"
/>
<path stroke="#c59ced" vector-effect="non-scaling-stroke" d="
  M 0.00 761.89
  L 66.56 665.46"
/>
<path stroke="#cfb1e4" vector-effect="non-scaling-stroke" d="
  M 66.56 665.46
  L 145.13 551.64
  A 1.30 1.30 0.0 0 0 145.13 550.16
  L 69.98 441.82"
/>
<path stroke="#c59ced" vector-effect="non-scaling-stroke" d="
  M 69.98 441.82
  L 0.00 340.93"
/>
<path stroke="#c59ced" vector-effect="non-scaling-stroke" d="
  M 0.00 338.51
  Q 0.13 338.30 0.30 338.19
  A 0.38 0.37 56.3 0 1 0.81 338.30
  L 71.47 440.11"
/>
<path stroke="#cfb1e4" vector-effect="non-scaling-stroke" d="
  M 71.47 440.11
  Q 103.78 486.77 136.16 533.51
  C 139.95 538.98 143.18 544.63 146.16 548.71
  A 0.72 0.72 0.0 0 0 147.34 548.70
  L 220.62 441.99"
/>
<path stroke="#c59ced" vector-effect="non-scaling-stroke" d="
  M 220.62 441.99
  Q 224.81 436.78 228.65 430.84
  Q 235.66 419.96 236.13 419.28
  Q 263.22 379.85 292.32 338.08
  Q 294.10 335.52 296.62 331.45
  A 0.87 0.86 -44.7 0 0 296.63 330.55
  C 292.37 323.24 288.38 318.29 283.76 311.21
  Q 282.62 309.46 230.92 234.89
  Q 226.16 228.03 221.46 221.30
  C 221.31 221.08 221.09 220.98 220.84 221.01"
/>
<path stroke="#cfb1e4" vector-effect="non-scaling-stroke" d="
  M 220.84 221.01
  L 145.83 113.62
  A 0.38 0.37 -44.7 0 0 145.22 113.62
  L 70.58 220.71"
/>
<path stroke="#c59ced" vector-effect="non-scaling-stroke" d="
  M 70.58 220.71
  L 0.67 321.56
  A 0.24 0.22 -77.8 0 1 0.54 321.65
  Q 0.30 321.72 0.00 321.60"
/>
<path stroke="#c59ced" vector-effect="non-scaling-stroke" d="
  M 0.00 318.59
  L 69.34 219.12"
/>
<path stroke="#cfb1e4" vector-effect="non-scaling-stroke" d="
  M 69.34 219.12
  L 143.90 111.40
  A 0.97 0.97 0.0 0 0 143.90 110.30
  L 65.99 0.66"
/>
<path stroke="#c59ced" vector-effect="non-scaling-stroke" d="
  M 678.72 221.65
  L 604.27 329.45
  A 1.31 1.30 45.3 0 0 604.27 330.94
  L 680.14 440.94"
/>
<path stroke="#cfb1e4" vector-effect="non-scaling-stroke" d="
  M 680.14 440.94
  L 754.10 548.88
  A 0.60 0.60 0.0 0 0 755.11 548.85
  C 760.50 539.96 764.06 535.43 770.32 526.13
  C 779.46 512.56 788.98 499.32 798.21 485.70
  Q 805.14 475.48 830.05 440.77"
/>
<path stroke="#c59ced" vector-effect="non-scaling-stroke" d="
  M 830.05 440.77
  L 905.41 331.74
  A 0.82 0.82 0.0 0 0 905.45 330.86
  Q 902.73 326.12 900.16 322.65
  C 895.39 316.22 893.02 312.20 888.28 305.81
  Q 885.28 301.75 882.06 296.88
  C 875.30 286.65 867.77 276.47 860.85 266.54
  Q 845.21 244.08 829.65 221.64"
/>
<path stroke="#cfb1e4" vector-effect="non-scaling-stroke" d="
  M 829.65 221.64
  Q 825.57 216.06 821.69 210.37
  Q 816.26 202.44 813.85 199.01
  Q 788.11 162.44 763.18 126.71
  C 760.08 122.28 757.03 118.69 754.68 113.92
  A 0.94 0.94 0.0 0 0 753.05 113.83
  C 749.07 120.08 746.66 124.27 743.01 128.85
  C 739.87 132.79 737.20 137.34 734.19 141.59
  Q 717.09 165.77 682.46 216.65
  Q 680.59 219.41 678.72 221.65"
/>
<path stroke="#eeddf3" vector-effect="non-scaling-stroke" d="
  M 829.65 221.64
  L 755.02 330.72
  A 0.78 0.78 0.0 0 1 753.72 330.72
  L 678.72 221.65"
/>
<path stroke="#eeddf3" vector-effect="non-scaling-stroke" d="
  M 830.05 440.77
  Q 825.61 436.21 822.96 432.29
  C 820.48 428.64 817.61 423.52 814.58 419.06
  C 797.97 394.53 773.96 360.09 754.78 331.94
  A 0.51 0.51 0.0 0 0 753.94 331.94
  L 680.14 440.94"
/>
<path stroke="#c59ced" vector-effect="non-scaling-stroke" d="
  M 984.27 222.24
  Q 980.91 226.04 978.06 230.50
  Q 972.87 238.62 972.47 239.19
  Q 951.83 268.74 930.32 299.60
  Q 924.23 308.33 912.68 324.88
  Q 909.93 328.83 908.80 330.82
  A 0.87 0.86 42.8 0 0 908.84 331.74
  L 984.80 441.50"
/>
<path stroke="#cfb1e4" vector-effect="non-scaling-stroke" d="
  M 984.80 441.50
  L 1060.07 550.79
  A 0.66 0.66 0.0 0 0 1061.16 550.79
  L 1135.99 442.83"
/>
<path stroke="#c59ced" vector-effect="non-scaling-stroke" d="
  M 1135.99 442.83
  L 1213.01 332.09
  A 0.92 0.91 -45.4 0 0 1213.01 331.04
  L 1136.42 221.14"
/>
<path stroke="#cfb1e4" vector-effect="non-scaling-stroke" d="
  M 1136.42 221.14
  Q 1107.58 179.26 1078.37 138.39
  Q 1074.17 132.52 1069.34 125.32
  C 1066.86 121.63 1063.48 118.22 1061.51 113.87
  A 0.79 0.78 50.4 0 0 1060.15 113.74
  L 984.27 222.24"
/>
<path stroke="#eeddf3" vector-effect="non-scaling-stroke" d="
  M 1136.42 221.14
  L 1060.11 331.04
  A 0.37 0.37 0.0 0 1 1059.50 331.04
  L 984.27 222.24"
/>
<path stroke="#eeddf3" vector-effect="non-scaling-stroke" d="
  M 1135.99 442.83
  Q 1132.61 436.91 1128.78 431.45
  Q 1122.67 422.76 1122.62 422.69
  Q 1085.81 368.08 1062.58 335.51
  Q 1061.35 333.80 1060.52 331.95
  A 0.51 0.51 0.0 0 0 1059.63 331.88
  L 984.80 441.50"
/>
<path stroke="#c59ced" vector-effect="non-scaling-stroke" d="
  M 375.20 222.30
  Q 372.53 225.09 371.76 226.27
  Q 362.79 240.04 353.89 252.92
  Q 305.52 322.91 303.06 326.52
  Q 300.92 329.66 300.53 330.20
  A 1.20 1.19 46.9 0 0 300.49 331.51
  Q 302.41 334.64 303.41 336.10
  Q 326.34 369.47 350.88 404.83
  C 354.38 409.88 356.63 413.78 359.87 418.03
  Q 360.77 419.21 366.57 427.95
  Q 370.97 434.58 375.85 440.61"
/>
<path stroke="#cfb1e4" vector-effect="non-scaling-stroke" d="
  M 375.85 440.61
  L 449.35 548.19
  A 1.04 1.04 0.0 0 0 451.11 548.13
  Q 456.25 539.32 462.07 531.69
  C 464.72 528.20 466.71 524.83 469.50 520.74
  Q 475.14 512.48 505.22 469.19
  Q 514.80 455.40 524.11 441.57"
/>
<path stroke="#c59ced" vector-effect="non-scaling-stroke" d="
  M 524.11 441.57
  L 600.58 330.58
  A 0.90 0.89 46.5 0 0 600.60 329.60
  Q 595.66 321.66 591.92 316.49
  C 585.28 307.30 581.10 300.38 574.57 291.32
  Q 570.16 285.20 566.01 279.11
  Q 558.17 267.62 534.80 234.42
  Q 530.38 228.15 525.36 221.08"
/>
<path stroke="#cfb1e4" vector-effect="non-scaling-stroke" d="
  M 525.36 221.08
  Q 515.36 206.56 504.70 191.28
  Q 476.99 151.54 458.66 125.66
  C 455.86 121.70 453.09 118.35 451.00 114.24
  A 0.62 0.62 0.0 0 0 449.94 114.16
  L 375.20 222.30"
/>
<path stroke="#eeddf3" vector-effect="non-scaling-stroke" d="
  M 525.36 221.08
  L 450.03 330.28
  A 0.58 0.58 0.0 0 1 449.07 330.28
  Q 417.38 283.73 390.14 244.67
  C 386.35 239.24 383.90 234.89 380.38 230.69
  C 378.34 228.25 376.80 225.18 375.20 222.30"
/>
<path stroke="#eeddf3" vector-effect="non-scaling-stroke" d="
  M 524.11 441.57
  L 449.99 332.42
  A 0.49 0.49 0.0 0 0 449.18 332.42
  L 375.85 440.61"
/>
<path stroke="#cfb1e4" vector-effect="non-scaling-stroke" d="
  M 525.66 443.20
  L 451.94 550.17
  A 1.41 1.41 0.0 0 0 451.94 551.77
  L 528.39 663.50"
/>
<path stroke="#c59ced" vector-effect="non-scaling-stroke" d="
  M 528.39 663.50
  Q 555.34 702.55 582.37 741.94
  Q 591.89 755.82 601.39 770.56
  A 0.71 0.71 0.0 0 0 602.57 770.58
  Q 613.18 755.24 621.52 742.59
  C 627.67 733.27 634.45 723.95 640.81 714.49
  C 647.39 704.70 654.12 695.76 660.92 685.78
  Q 661.00 685.66 667.86 675.95
  Q 671.94 670.17 675.44 663.99"
/>
<path stroke="#cfb1e4" vector-effect="non-scaling-stroke" d="
  M 675.44 663.99
  L 753.08 551.51
  A 0.44 0.42 45.8 0 0 753.08 551.02
  L 678.80 442.44"
/>
<path stroke="#c59ced" vector-effect="non-scaling-stroke" d="
  M 678.80 442.44
  L 603.16 332.58
  A 0.74 0.74 0.0 0 0 601.94 332.58
  L 525.66 443.20"
/>
<path stroke="#eeddf3" vector-effect="non-scaling-stroke" d="
  M 678.80 442.44
  Q 662.63 465.69 647.20 488.39
  C 644.81 491.91 642.26 494.97 640.12 498.48
  Q 638.59 500.98 634.99 506.17
  Q 625.15 520.33 617.23 532.45
  C 612.83 539.18 606.93 546.42 602.72 554.09
  A 1.09 1.09 0.0 0 1 600.85 554.16
  C 598.46 550.42 597.09 547.68 595.00 544.95
  C 589.98 538.37 584.61 529.10 579.48 521.85
  C 572.32 511.71 556.69 488.27 544.55 470.76
  C 538.01 461.33 532.57 452.49 525.66 443.20"
/>
<path stroke="#eeddf3" vector-effect="non-scaling-stroke" d="
  M 675.44 663.99
  L 602.45 556.81
  A 0.93 0.92 -44.9 0 0 600.92 556.81
  L 528.39 663.50"
/>
<path stroke="#cfb1e4" vector-effect="non-scaling-stroke" d="
  M 222.02 443.49
  Q 217.76 448.66 214.75 454.56
  A 0.55 0.31 -29.0 0 0 214.70 454.64
  L 148.50 550.19
  A 1.15 1.14 45.3 0 0 148.50 551.48
  L 224.73 663.13"
/>
<path stroke="#c59ced" vector-effect="non-scaling-stroke" d="
  M 224.73 663.13
  Q 230.49 671.45 236.30 679.98
  Q 258.03 711.89 281.55 746.51
  Q 289.10 757.63 296.20 769.33
  Q 297.11 770.84 298.03 771.51
  A 0.92 0.92 0.0 0 0 299.33 771.31
  Q 302.58 766.84 305.78 761.47
  C 309.25 755.64 312.67 751.56 316.08 745.99
  Q 317.37 743.87 320.17 739.76
  Q 340.36 710.03 346.98 700.48
  Q 361.53 679.46 370.55 665.92"
/>
<path stroke="#cfb1e4" vector-effect="non-scaling-stroke" d="
  M 370.55 665.92
  Q 372.97 662.70 374.65 659.33
  A 1.19 0.68 -29.9 0 1 374.72 659.21
  L 448.49 551.59
  A 0.91 0.91 0.0 0 0 448.49 550.55
  L 374.16 442.08"
/>
<path stroke="#c59ced" vector-effect="non-scaling-stroke" d="
  M 374.16 442.08
  L 299.06 333.36
  A 0.53 0.53 0.0 0 0 298.18 333.36
  L 222.02 443.49"
/>
<path stroke="#eeddf3" vector-effect="non-scaling-stroke" d="
  M 374.16 442.08
  Q 370.85 445.84 368.20 450.12
  Q 363.15 458.24 362.90 458.61
  Q 332.67 502.73 297.45 554.27
  A 0.53 0.53 0.0 0 1 296.56 554.24
  Q 291.08 545.12 287.94 540.54
  C 272.37 517.78 257.46 495.39 240.62 470.88
  Q 239.59 469.39 231.53 457.06
  Q 227.00 450.12 222.02 443.49"
/>
<path stroke="#eeddf3" vector-effect="non-scaling-stroke" d="
  M 370.55 665.92
  Q 366.88 658.35 365.58 656.45
  Q 305.76 569.20 300.23 561.05
  Q 298.83 558.98 297.51 556.82
  A 0.73 0.73 0.0 0 0 296.28 556.80
  Q 265.57 602.55 229.60 655.10
  Q 227.62 658.00 224.73 663.13"
/>
<path stroke="#cfb1e4" vector-effect="non-scaling-stroke" d="
  M 831.19 442.28
  C 827.31 446.69 824.10 452.73 821.38 456.37
  Q 817.60 461.42 814.61 466.23
  C 811.66 470.95 808.22 475.23 804.88 480.13
  Q 799.12 488.57 774.65 523.81
  C 767.82 533.64 762.79 541.62 756.13 550.06
  A 1.76 1.75 45.9 0 0 756.10 552.19
  Q 763.95 562.75 765.73 565.35
  Q 800.80 616.89 821.37 647.13
  Q 830.42 660.44 833.27 664.35"
/>
<path stroke="#c59ced" vector-effect="non-scaling-stroke" d="
  M 833.27 664.35
  L 906.79 773.17
  A 1.17 1.17 0.0 0 0 908.75 773.13
  Q 911.43 768.74 914.87 763.61
  Q 940.54 725.35 962.39 694.04
  Q 967.70 686.44 968.11 685.90
  C 971.61 681.34 974.15 677.10 977.89 671.92
  Q 980.16 668.78 981.73 665.95"
/>
<path stroke="#cfb1e4" vector-effect="non-scaling-stroke" d="
  M 981.73 665.95
  Q 983.27 663.27 988.52 655.78
  Q 1000.99 637.99 1046.56 571.46
  Q 1049.03 567.86 1052.58 563.10
  Q 1056.00 558.53 1058.77 553.54
  A 0.97 0.95 42.6 0 0 1058.72 552.54
  L 983.21 443.06"
/>
<path stroke="#c59ced" vector-effect="non-scaling-stroke" d="
  M 983.21 443.06
  L 908.11 333.73
  A 1.24 1.23 44.9 0 0 906.08 333.73
  L 831.19 442.28"
/>
<path stroke="#eeddf3" vector-effect="non-scaling-stroke" d="
  M 983.21 443.06
  L 907.23 554.25
  A 0.56 0.56 0.0 0 1 906.30 554.24
  Q 902.53 548.58 897.97 541.72
  Q 872.88 504.02 849.67 470.78
  C 844.34 463.15 839.68 455.18 834.39 447.49
  Q 833.93 446.82 832.98 444.77
  Q 832.29 443.29 831.19 442.28"
/>
<path stroke="#eeddf3" vector-effect="non-scaling-stroke" d="
  M 981.73 665.95
  L 907.43 557.11
  A 0.68 0.68 0.0 0 0 906.31 557.11
  L 833.27 664.35"
/>
<path stroke="#c59ced" vector-effect="non-scaling-stroke" d="
  M 676.63 666.21
  L 603.90 772.23
  A 1.56 1.56 0.0 0 0 603.90 773.99
  L 680.95 886.57"
/>
<path stroke="#cfb1e4" vector-effect="non-scaling-stroke" d="
  M 680.95 886.57
  Q 682.40 888.88 684.02 891.25
  Q 715.15 936.86 749.48 986.75
  Q 752.05 990.48 754.00 994.04
  A 1.15 1.15 0.0 0 0 755.99 994.08
  Q 759.22 988.71 762.17 984.40
  Q 778.59 960.42 823.71 895.18
  Q 826.58 891.04 828.97 887.60"
/>
<path stroke="#c59ced" vector-effect="non-scaling-stroke" d="
  M 828.97 887.60
  L 906.29 775.67
  A 0.69 0.68 -45.6 0 0 906.29 774.90
  L 831.61 666.29"
/>
<path stroke="#cfb1e4" vector-effect="non-scaling-stroke" d="
  M 831.61 666.29
  L 755.03 553.67
  A 0.70 0.70 0.0 0 0 753.87 553.67
  L 676.63 666.21"
/>
<path stroke="#eeddf3" vector-effect="non-scaling-stroke" d="
  M 831.61 666.29
  L 755.25 777.49
  A 1.60 1.58 45.2 0 0 755.25 779.28
  L 828.97 887.60"
/>
<path stroke="#eeddf3" vector-effect="non-scaling-stroke" d="
  M 680.95 886.57
  L 753.65 779.25
  A 1.33 1.33 0.0 0 0 753.65 777.75
  Q 720.66 729.06 685.56 678.77
  Q 685.52 678.70 681.63 672.62
  Q 679.40 669.14 676.63 666.21"
/>
<path stroke="#c59ced" vector-effect="non-scaling-stroke" d="
  M 372.57 666.57
  L 299.98 773.16
  A 0.87 0.87 0.0 0 0 299.98 774.12
  Q 334.81 825.71 367.83 874.08
  C 369.85 877.03 372.68 882.19 376.02 885.84"
/>
<path stroke="#cfb1e4" vector-effect="non-scaling-stroke" d="
  M 376.02 885.84
  L 448.61 992.39
  A 0.82 0.81 -44.9 0 0 449.96 992.39
  L 522.40 886.81"
/>
<path stroke="#c59ced" vector-effect="non-scaling-stroke" d="
  M 522.40 886.81
  Q 526.14 882.62 529.13 877.82
  Q 534.41 869.34 535.13 868.31
  Q 551.14 845.18 553.45 841.70
  Q 559.73 832.27 564.47 825.51
  Q 583.78 797.99 600.48 773.33
  A 0.50 0.50 0.0 0 0 600.48 772.77
  Q 580.03 742.36 538.04 680.96
  Q 533.06 673.70 531.59 671.16
  Q 530.57 669.40 526.74 664.93"
/>
<path stroke="#cfb1e4" vector-effect="non-scaling-stroke" d="
  M 526.74 664.93
  L 450.69 553.74
  A 0.69 0.68 -44.8 0 0 449.56 553.74
  L 372.57 666.57"
/>
<path stroke="#eeddf3" vector-effect="non-scaling-stroke" d="
  M 526.74 664.93
  Q 524.35 669.80 521.33 673.91
  Q 518.02 678.40 517.62 678.99
  Q 474.79 741.01 451.76 775.00
  Q 450.68 776.59 449.89 777.54
  A 0.72 0.71 47.4 0 1 448.75 777.49
  L 372.57 666.57"
/>
<path stroke="#eeddf3" vector-effect="non-scaling-stroke" d="
  M 522.40 886.81
  Q 520.48 881.58 518.04 878.47
  Q 512.98 872.01 509.62 866.84
  Q 505.67 860.74 505.50 860.49
  Q 480.15 823.07 450.00 779.57
  A 0.84 0.84 0.0 0 0 448.61 779.58
  L 376.02 885.84"
/>
<path stroke="#c59ced" vector-effect="non-scaling-stroke" d="
  M 982.78 667.69
  L 908.82 775.28
  A 0.74 0.74 0.0 0 0 908.82 776.12
  L 985.20 887.05"
/>
<path stroke="#cfb1e4" vector-effect="non-scaling-stroke" d="
  M 985.20 887.05
  L 1059.98 995.94
  A 0.72 0.72 0.0 0 0 1061.18 995.91
  C 1063.77 991.75 1066.78 988.34 1069.10 984.52
  C 1074.24 976.05 1082.68 964.87 1088.41 956.59
  Q 1114.29 919.12 1120.10 911.07
  C 1122.82 907.31 1125.64 903.53 1128.41 899.17
  Q 1131.80 893.81 1135.80 889.06"
/>
<path stroke="#c59ced" vector-effect="non-scaling-stroke" d="
  M 1135.80 889.06
  L 1212.94 777.28
  A 1.02 1.02 0.0 0 0 1212.94 776.12
  L 1137.59 666.71"
/>
<path stroke="#cfb1e4" vector-effect="non-scaling-stroke" d="
  M 1137.59 666.71
  L 1060.91 555.90
  A 0.54 0.54 0.0 0 0 1060.02 555.90
  L 982.78 667.69"
/>
<path stroke="#eeddf3" vector-effect="non-scaling-stroke" d="
  M 1137.59 666.71
  L 1060.48 777.99
  A 0.75 0.74 -42.3 0 0 1060.44 778.77
  C 1063.39 784.20 1067.58 789.37 1070.76 793.96
  Q 1099.53 835.48 1122.78 869.71
  Q 1126.71 875.49 1131.27 881.74
  C 1132.78 883.80 1133.96 886.68 1135.80 889.06"
/>
<path stroke="#eeddf3" vector-effect="non-scaling-stroke" d="
  M 985.20 887.05
  L 1059.34 779.29
  A 0.81 0.81 0.0 0 0 1059.34 778.37
  L 984.38 669.37
  A 1.65 0.16 38.8 0 0 983.65 668.66
  Q 983.25 668.33 982.78 667.69"
/>
<path stroke="#cfb1e4" vector-effect="non-scaling-stroke" d="
  M 523.81 888.56
  L 450.93 994.90
  A 0.85 0.84 -44.7 0 0 450.92 995.84
  L 528.58 1109.94"
/>
<path stroke="#c59ced" vector-effect="non-scaling-stroke" d="
  M 528.58 1109.94
  L 601.50 1218.46
  A 0.67 0.66 45.1 0 0 602.61 1218.47
  L 675.50 1111.35"
/>
<path stroke="#cfb1e4" vector-effect="non-scaling-stroke" d="
  M 675.50 1111.35
  L 753.63 997.64
  A 1.44 1.42 -45.7 0 0 753.62 996.00
  C 750.61 991.79 748.43 989.23 745.97 985.49
  Q 740.10 976.54 730.75 962.99
  Q 705.45 926.33 679.35 888.14"
/>
<path stroke="#c59ced" vector-effect="non-scaling-stroke" d="
  M 679.35 888.14
  L 602.70 775.84
  A 0.87 0.86 -45.1 0 0 601.27 775.85
  Q 588.43 794.73 577.06 811.26
  Q 556.65 840.95 536.17 870.32
  Q 536.14 870.37 530.82 877.69
  Q 526.96 883.00 523.81 888.56"
/>
<path stroke="#eeddf3" vector-effect="non-scaling-stroke" d="
  M 679.35 888.14
  L 601.98 1002.28
  A 0.37 0.37 0.0 0 1 601.36 1002.28
  Q 578.87 968.74 556.18 935.24
  C 546.91 921.56 540.92 913.47 533.95 902.20
  Q 532.26 899.47 529.02 895.28
  Q 526.44 891.95 523.81 888.56"
/>
<path stroke="#eeddf3" vector-effect="non-scaling-stroke" d="
  M 675.50 1111.35
  L 602.14 1004.03
  A 0.61 0.61 0.0 0 0 601.14 1004.03
  L 528.58 1109.94"
/>
<path stroke="#cfb1e4" vector-effect="non-scaling-stroke" d="
  M 220.33 890.10
  L 148.66 993.83
  A 1.76 1.75 45.4 0 0 148.65 995.82
  L 225.04 1108.52"
/>
<path stroke="#c59ced" vector-effect="non-scaling-stroke" d="
  M 225.04 1108.52
  L 296.90 1215.91
  A 0.76 0.75 45.2 0 0 298.16 1215.92
  L 369.61 1109.86"
/>
<path stroke="#cfb1e4" vector-effect="non-scaling-stroke" d="
  M 369.61 1109.86
  L 447.45 995.64
  A 0.88 0.88 0.0 0 0 447.45 994.66
  L 374.63 887.89"
/>
<path stroke="#c59ced" vector-effect="non-scaling-stroke" d="
  M 374.63 887.89
  Q 372.11 883.28 368.84 878.71
  Q 363.23 870.84 363.21 870.81
  Q 312.21 795.71 309.28 791.44
  Q 303.85 783.55 298.87 776.11
  A 0.60 0.60 0.0 0 0 297.85 776.14
  C 295.92 779.45 293.43 782.38 291.36 785.60
  Q 286.48 793.21 281.42 800.60
  Q 252.07 843.47 224.13 883.88
  Q 223.28 885.11 220.33 890.10"
/>
<path stroke="#eeddf3" vector-effect="non-scaling-stroke" d="
  M 374.63 887.89
  L 297.01 1001.96
  A 0.25 0.25 0.0 0 1 296.59 1001.96
  Q 266.06 956.56 237.09 913.84
  Q 236.08 912.35 231.19 904.93
  Q 226.15 897.28 220.33 890.10"
/>
<path stroke="#eeddf3" vector-effect="non-scaling-stroke" d="
  M 369.61 1109.86
  L 297.33 1004.11
  A 0.78 0.78 0.0 0 0 296.03 1004.11
  L 225.04 1108.52"
/>
<path stroke="#cfb1e4" vector-effect="non-scaling-stroke" d="
  M 830.37 889.43
  L 756.54 996.59
  A 0.93 0.93 0.0 0 0 756.58 997.70
  C 763.33 1006.13 769.79 1016.71 776.59 1026.61
  Q 788.68 1044.22 791.62 1048.64
  Q 792.78 1050.39 794.62 1053.09
  Q 813.13 1080.31 830.89 1105.90
  Q 832.20 1107.80 833.59 1110.17"
/>
<path stroke="#c59ced" vector-effect="non-scaling-stroke" d="
  M 833.59 1110.17
  Q 864.51 1155.26 895.10 1201.19
  Q 897.86 1205.32 906.52 1218.86
  A 1.07 1.07 0.0 0 0 908.31 1218.88
  C 910.97 1214.91 912.94 1211.32 915.41 1208.15
  C 918.73 1203.89 921.53 1198.88 925.15 1193.55
  Q 941.28 1169.80 976.79 1118.99
  Q 979.45 1115.19 981.57 1111.67"
/>
<path stroke="#cfb1e4" vector-effect="non-scaling-stroke" d="
  M 981.57 1111.67
  L 1058.84 999.14
  A 0.71 0.71 0.0 0 0 1058.84 998.32
  L 983.77 888.93"
/>
<path stroke="#c59ced" vector-effect="non-scaling-stroke" d="
  M 983.77 888.93
  Q 981.55 885.02 980.30 883.21
  Q 954.14 845.35 921.70 798.05
  Q 917.16 791.43 916.90 790.99
  C 914.21 786.47 910.71 782.73 908.17 778.13
  A 0.76 0.76 0.0 0 0 906.88 778.07
  L 830.37 889.43"
/>
<path stroke="#eeddf3" vector-effect="non-scaling-stroke" d="
  M 983.77 888.93
  L 907.19 1001.96
  A 0.50 0.50 0.0 0 1 906.36 1001.96
  L 830.37 889.43"
/>
<path stroke="#eeddf3" vector-effect="non-scaling-stroke" d="
  M 981.57 1111.67
  Q 980.08 1111.08 979.08 1109.31
  Q 977.54 1106.60 977.48 1106.51
  Q 939.94 1052.58 907.21 1004.10
  A 0.44 0.43 -44.5 0 0 906.49 1004.10
  L 833.59 1110.17"
/>
<path stroke="#eeddf3" vector-effect="non-scaling-stroke" d="
  M 371.22 0.45
  Q 370.34 0.15 369.87 1.26
  Q 369.35 2.51 369.12 2.86
  Q 359.42 17.35 348.15 33.65
  Q 320.90 73.03 297.20 109.08
  A 0.48 0.48 0.0 0 1 296.42 109.11
  Q 294.94 107.18 293.21 104.55
  Q 269.39 68.37 238.45 23.51
  C 233.77 16.73 230.95 11.85 226.90 6.29
  Q 226.85 6.23 225.48 3.90
  Q 224.68 2.55 223.65 1.81"
/>
<path stroke="#eeddf3" vector-effect="non-scaling-stroke" d="
  M 675.17 1.36
  Q 674.97 1.45 674.81 1.52
  A 1.35 1.34 -86.6 0 0 674.24 2.03
  Q 668.85 10.95 667.87 12.36
  Q 648.15 40.72 602.10 109.19
  A 0.48 0.48 0.0 0 1 601.31 109.19
  L 528.64 1.67"
/>
<path stroke="#eeddf3" vector-effect="non-scaling-stroke" d="
  M 981.65 0.79
  Q 981.28 0.39 980.92 0.38
  Q 980.59 0.36 980.30 0.84
  Q 975.73 8.29 973.39 11.63
  Q 939.48 60.06 910.19 104.18
  Q 908.60 106.57 907.17 109.02
  A 0.68 0.68 0.0 0 1 906.02 109.05
  Q 872.45 58.07 836.54 6.41
  Q 835.95 5.56 834.85 3.31
  Q 833.90 1.36 832.67 0.60"
/>
<path stroke="#eeddf3" vector-effect="non-scaling-stroke" d="
  M 1254.00 50.37
  L 1213.91 109.47
  A 0.32 0.32 0.0 0 1 1213.38 109.47
  L 1139.21 1.20"
/>
<path stroke="#eeddf3" vector-effect="non-scaling-stroke" d="
  M 983.25 219.73
  Q 980.47 216.77 979.45 215.30
  Q 939.07 157.12 907.15 110.64
  A 0.62 0.62 0.0 0 0 906.13 110.64
  L 831.36 219.95"
/>
<path stroke="#eeddf3" vector-effect="non-scaling-stroke" d="
  M 69.34 219.12
  Q 68.05 218.21 66.21 215.54
  Q 32.86 167.28 0.00 119.43"
/>
<path stroke="#eeddf3" vector-effect="non-scaling-stroke" d="
  M 373.54 220.42
  L 297.79 110.73
  A 0.81 0.81 0.0 0 0 296.45 110.74
  L 222.65 219.27"
/>
<path stroke="#eeddf3" vector-effect="non-scaling-stroke" d="
  M 677.32 219.30
  L 602.49 111.27
  A 0.73 0.72 44.8 0 0 601.30 111.27
  L 526.90 219.30"
/>
<path stroke="#eeddf3" vector-effect="non-scaling-stroke" d="
  M 1254.00 167.74
  L 1253.65 168.30
  A 0.18 0.17 -46.7 0 1 1253.36 168.31
  L 1213.98 111.06
  A 0.46 0.46 0.0 0 0 1213.26 111.01
  C 1208.97 115.81 1205.53 121.76 1202.01 126.76
  Q 1175.75 164.13 1139.56 216.79
  Q 1139.50 216.89 1138.96 218.13
  Q 1138.60 218.97 1137.61 218.91"
/>
<path stroke="#eeddf3" vector-effect="non-scaling-stroke" d="
  M 220.84 221.01
  Q 220.82 221.71 220.63 221.99
  Q 182.30 277.53 146.44 330.34
  A 0.86 0.85 -44.9 0 1 145.03 330.34
  Q 109.74 278.54 71.12 222.80
  Q 70.27 221.57 70.58 220.71"
/>
<path stroke="#eeddf3" vector-effect="non-scaling-stroke" d="
  M 220.62 441.99
  Q 213.98 431.90 207.07 421.62
  Q 177.60 377.74 165.05 359.43
  C 158.99 350.60 152.13 341.54 146.46 332.56
  A 0.85 0.85 0.0 0 0 145.04 332.53
  L 71.47 440.11"
/>
<path stroke="#eeddf3" vector-effect="non-scaling-stroke" d="
  M 1254.00 495.73
  L 1213.66 554.92
  A 0.46 0.45 -44.5 0 1 1212.90 554.92
  C 1197.49 531.30 1176.02 500.15 1165.72 485.24
  C 1157.87 473.88 1147.53 459.23 1138.99 445.79
  Q 1138.62 445.21 1138.13 445.12
  Q 1137.58 445.03 1136.99 445.25"
/>
<path stroke="#eeddf3" vector-effect="non-scaling-stroke" d="
  M 69.98 441.82
  L 0.00 545.00"
/>
<path stroke="#eeddf3" vector-effect="non-scaling-stroke" d="
  M 66.56 665.46
  L 0.00 567.03"
/>
<path stroke="#eeddf3" vector-effect="non-scaling-stroke" d="
  M 1254.00 614.16
  L 1253.82 614.52
  A 0.46 0.46 0.0 0 1 1253.03 614.58
  L 1213.68 556.61
  A 0.58 0.58 0.0 0 0 1212.72 556.62
  Q 1202.51 572.32 1195.21 582.69
  Q 1184.54 597.85 1143.95 657.44
  Q 1141.53 661.00 1138.57 664.47"
/>
<path stroke="#eeddf3" vector-effect="non-scaling-stroke" d="
  M 223.49 665.26
  Q 220.39 667.49 218.31 671.29
  Q 216.87 673.93 215.74 675.40
  Q 214.12 677.49 212.85 679.35
  Q 173.95 736.08 145.68 777.28
  A 2.16 2.14 -45.2 0 0 145.68 779.73
  C 165.20 807.78 184.06 835.06 202.29 862.47
  Q 208.25 871.44 214.66 880.11
  Q 216.10 882.06 218.88 887.84"
/>
<path stroke="#eeddf3" vector-effect="non-scaling-stroke" d="
  M 72.15 884.78
  L 144.22 779.00
  A 1.05 1.04 44.8 0 0 144.21 777.82
  L 68.08 667.29"
/>
<path stroke="#eeddf3" vector-effect="non-scaling-stroke" d="
  M 1254.00 943.90
  Q 1253.44 943.46 1253.25 943.75
  Q 1233.97 973.03 1213.59 1002.71
  A 0.14 0.14 0.0 0 1 1213.36 1002.71
  L 1142.77 898.73
  A 0.09 0.03 73.2 0 0 1142.75 898.70
  L 1136.93 890.99"
/>
<path stroke="#eeddf3" vector-effect="non-scaling-stroke" d="
  M 70.36 886.10
  Q 68.20 890.14 66.55 892.55
  Q 32.87 941.69 0.00 990.73"
/>
<path stroke="#eeddf3" vector-effect="non-scaling-stroke" d="
  M 66.30 1110.30
  Q 65.58 1110.35 65.43 1110.14
  Q 32.61 1062.06 0.00 1014.28"
/>
<path stroke="#eeddf3" vector-effect="non-scaling-stroke" d="
  M 1254.00 1061.73
  L 1253.84 1062.07
  A 0.52 0.52 0.0 0 1 1252.94 1062.14
  L 1213.85 1004.55
  A 0.72 0.72 0.0 0 0 1212.67 1004.55
  L 1139.14 1111.31"
/>
<path stroke="#eeddf3" vector-effect="non-scaling-stroke" d="
  M 223.63 1111.04
  Q 185.17 1166.39 147.66 1221.90
  Q 146.32 1223.88 145.26 1225.85
  A 0.48 0.47 42.1 0 1 144.45 1225.89
  Q 107.14 1170.94 67.80 1113.68
  Q 67.78 1113.65 67.57 1113.45
  Q 67.28 1113.16 67.35 1112.44"
/>
<path stroke="#eeddf3" vector-effect="non-scaling-stroke" d="
  M 526.74 1111.75
  Q 525.48 1115.13 523.72 1117.48
  C 519.65 1122.94 515.59 1129.20 512.64 1133.45
  Q 480.86 1179.28 449.67 1225.78
  A 0.39 0.39 0.0 0 1 449.02 1225.78
  L 370.88 1111.93"
/>
<path stroke="#eeddf3" vector-effect="non-scaling-stroke" d="
  M 832.30 1112.43
  L 754.53 1226.23
  A 0.73 0.71 -45.2 0 0 754.52 1227.04
  L 772.74 1254.00"
/>
<path stroke="#eeddf3" vector-effect="non-scaling-stroke" d="
  M 735.84 1254.00
  L 753.78 1227.30
  A 1.37 1.36 -45.5 0 0 753.77 1225.75
  L 676.85 1113.42"
/>
<path stroke="#eeddf3" vector-effect="non-scaling-stroke" d="
  M 1137.87 1113.24
  L 1060.26 1226.23
  A 0.76 0.75 -45.5 0 0 1060.26 1227.08
  L 1078.52 1254.00"
/>
<path stroke="#eeddf3" vector-effect="non-scaling-stroke" d="
  M 1041.46 1254.00
  L 1059.40 1226.84
  A 0.61 0.61 0.0 0 0 1059.40 1226.16
  Q 1014.90 1160.93 990.36 1125.51
  Q 989.02 1123.58 985.42 1117.90
  C 984.68 1116.75 984.05 1115.56 982.67 1114.95
  Q 982.26 1114.76 982.15 1114.17"
/>
<path stroke="#eeddf3" vector-effect="non-scaling-stroke" d="
  M 163.00 1254.00
  L 145.07 1226.86
  A 0.42 0.41 -44.7 0 0 144.38 1226.86
  L 126.23 1254.00"
/>
<path stroke="#c59ced" vector-effect="non-scaling-stroke" d="
  M 18.48 1254.00
  Q 9.98 1239.83 0.00 1226.11"
/>
<path stroke="#eeddf3" vector-effect="non-scaling-stroke" d="
  M 467.60 1254.00
  L 449.60 1227.05
  A 0.33 0.33 0.0 0 0 449.04 1227.05
  L 431.06 1254.00"
/>
<path stroke="#c59ced" vector-effect="non-scaling-stroke" d="
  M 16.22 1254.00
  L 0.00 1229.78"
/>
</g>
<path fill="#e4c8fc" d="
  M 66.48 0.00
  Q 66.43 0.25 65.99 0.66
  Q 65.33 0.75 64.87 1.62
  Q 64.27 2.77 64.15 2.95
  C 53.86 19.03 42.41 35.16 32.14 50.36
  Q 15.93 74.36 0.00 98.08
  L 0.00 0.00
  L 66.48 0.00
  Z"
/>
<path fill="#a66fdd" d="
  M 68.19 0.00
  L 144.83 108.73
  A 0.74 0.74 0.0 0 0 146.04 108.72
  L 222.17 0.00
  L 224.14 0.00
  Q 224.44 0.70 223.65 1.81
  L 147.45 110.50
  A 0.98 0.97 -45.4 0 0 147.45 111.63
  L 222.65 219.27
  L 298.34 328.48
  A 0.40 0.40 0.0 0 0 299.00 328.48
  Q 316.92 302.90 323.65 292.89
  Q 331.29 281.51 368.46 228.71
  Q 370.98 225.13 373.54 220.42
  L 448.86 111.97
  A 0.73 0.72 45.5 0 0 448.86 111.14
  L 371.22 0.45
  Q 371.50 0.33 371.63 0.00
  L 373.32 0.00
  L 450.06 108.97
  A 0.64 0.64 0.0 0 0 451.10 108.97
  L 527.33 0.00
  L 528.50 0.00
  Q 529.20 0.19 529.18 0.49
  Q 529.15 1.19 528.64 1.67
  L 452.34 110.97
  A 1.08 1.07 45.3 0 0 452.34 112.20
  L 526.90 219.30
  L 601.77 327.42
  A 0.77 0.77 0.0 0 0 603.02 327.44
  Q 603.60 326.66 607.18 321.45
  Q 640.10 273.60 670.67 229.66
  Q 672.88 226.47 677.32 219.30
  L 752.39 111.69
  A 1.05 1.04 -48.3 0 0 752.32 110.41
  C 746.46 103.56 741.82 95.79 736.94 88.89
  Q 706.02 45.14 675.17 1.36
  Q 674.47 1.09 675.40 0.00
  L 676.80 0.00
  L 752.94 108.67
  A 0.79 0.79 0.0 0 0 754.23 108.67
  L 830.43 0.00
  L 832.63 0.00
  Q 832.51 0.86 832.67 0.60
  L 755.37 110.42
  A 1.58 1.58 0.0 0 0 755.46 112.35
  C 760.47 118.26 764.58 124.89 769.43 131.85
  Q 792.74 165.31 829.90 218.11
  Q 830.67 219.21 831.36 219.95
  L 906.38 328.85
  A 0.76 0.76 0.0 0 0 907.63 328.86
  Q 917.36 315.06 927.05 300.99
  Q 933.28 291.95 943.70 276.70
  Q 956.20 258.41 977.99 228.23
  Q 980.99 224.08 983.25 219.73
  L 1059.06 111.46
  A 0.80 0.78 -45.4 0 0 1059.06 110.55
  L 981.65 0.79
  Q 981.92 0.35 981.99 0.00
  L 983.51 0.00
  L 1060.17 108.31
  A 0.74 0.74 0.0 0 0 1061.38 108.31
  L 1137.56 0.00
  L 1139.00 0.00
  Q 1139.82 0.67 1139.21 1.20
  L 1062.33 110.71
  A 0.53 0.52 -45.7 0 0 1062.33 111.32
  L 1137.61 218.91
  L 1214.38 328.83
  A 0.65 0.65 0.0 0 0 1215.44 328.83
  L 1254.00 274.02
  L 1254.00 277.43
  L 1216.73 331.07
  A 1.02 1.02 0.0 0 0 1216.73 332.23
  L 1254.00 385.89
  L 1254.00 389.15
  L 1215.59 334.09
  A 0.90 0.90 0.0 0 0 1214.12 334.09
  L 1136.99 445.25
  L 1062.34 552.34
  A 1.40 1.39 45.3 0 0 1062.34 553.93
  L 1138.57 664.47
  L 1214.21 774.23
  A 0.63 0.63 0.0 0 0 1215.25 774.23
  L 1254.00 718.97
  L 1254.00 722.20
  L 1216.69 776.03
  A 1.42 1.40 45.3 0 0 1216.69 777.64
  L 1254.00 832.01
  L 1254.00 835.23
  L 1215.53 779.76
  A 0.98 0.98 0.0 0 0 1213.92 779.75
  C 1189.45 814.49 1165.48 849.86 1140.89 884.63
  Q 1139.27 886.93 1136.93 890.99
  L 1062.12 998.17
  A 1.02 1.01 -44.8 0 0 1062.11 999.33
  L 1139.14 1111.31
  L 1214.39 1220.96
  A 0.67 0.66 44.6 0 0 1215.49 1220.96
  Q 1229.49 1200.30 1244.07 1179.84
  Q 1244.10 1179.80 1248.64 1172.93
  Q 1251.02 1169.33 1254.00 1165.98
  L 1254.00 1169.36
  L 1216.70 1223.04
  A 0.93 0.92 -44.7 0 0 1216.69 1224.08
  Q 1226.75 1238.77 1236.63 1253.35
  Q 1236.80 1253.61 1236.35 1254.00
  L 1234.70 1254.00
  L 1215.45 1226.29
  A 0.67 0.66 -45.1 0 0 1214.36 1226.30
  L 1195.20 1254.00
  L 1192.86 1254.00
  L 1213.31 1223.56
  A 0.42 0.42 0.0 0 0 1213.31 1223.10
  L 1137.87 1113.24
  L 1061.06 1001.31
  A 0.54 0.54 0.0 0 0 1060.17 1001.31
  L 982.15 1114.17
  L 909.27 1220.62
  A 1.21 1.20 -44.8 0 0 909.26 1221.98
  L 930.38 1254.00
  L 927.93 1254.00
  L 908.33 1224.28
  A 1.19 1.19 0.0 0 0 906.35 1224.28
  L 886.67 1254.00
  L 884.11 1254.00
  L 905.97 1221.83
  A 0.94 0.94 0.0 0 0 905.97 1220.77
  L 832.30 1112.43
  L 761.44 1008.16
  A 0.28 0.10 70.7 0 0 761.40 1008.11
  Q 758.31 1004.53 755.82 999.78
  A 0.96 0.95 -45.5 0 0 754.12 999.80
  Q 752.39 1003.24 749.01 1007.83
  C 743.87 1014.81 737.81 1024.46 734.28 1029.54
  Q 704.85 1071.96 676.85 1113.42
  L 603.90 1220.69
  A 0.74 0.73 -44.7 0 0 603.89 1221.51
  L 625.31 1254.00
  L 622.92 1254.00
  L 602.55 1224.23
  A 0.63 0.63 0.0 0 0 601.51 1224.23
  L 581.29 1254.00
  L 578.94 1254.00
  L 600.48 1221.44
  A 0.94 0.93 -45.4 0 0 600.48 1220.41
  Q 554.53 1152.60 552.85 1150.11
  Q 541.31 1133.06 530.20 1116.05
  Q 528.64 1113.66 526.74 1111.75
  Q 513.54 1091.60 499.98 1071.76
  Q 479.71 1042.10 449.87 998.63
  Q 449.53 998.14 449.44 998.10
  A 0.88 0.83 29.4 0 0 448.36 998.37
  L 370.88 1111.93
  L 299.17 1218.12
  A 0.56 0.55 -44.5 0 0 299.16 1218.72
  Q 306.27 1229.97 313.91 1240.85
  Q 318.29 1247.10 322.06 1254.00
  L 320.16 1254.00
  L 298.01 1220.85
  A 0.67 0.66 44.8 0 0 296.90 1220.85
  L 275.07 1254.00
  L 272.83 1254.00
  L 296.11 1218.88
  A 0.87 0.87 0.0 0 0 296.10 1217.91
  L 223.63 1111.04
  Q 212.35 1093.65 199.86 1075.38
  Q 180.07 1046.42 160.31 1017.45
  Q 153.27 1007.14 152.19 1005.03
  A 3.75 3.31 14.9 0 0 151.75 1004.37
  Q 149.28 1001.54 147.16 997.81
  A 0.63 0.63 0.0 0 0 146.09 997.77
  L 67.35 1112.44
  Q 34.03 1161.32 0.73 1210.20
  Q 0.59 1210.40 0.41 1210.42
  Q 0.22 1210.44 0.00 1210.36
  L 0.00 1207.33
  L 66.30 1110.30
  L 144.86 995.50
  A 1.28 1.28 0.0 0 0 144.86 994.06
  L 70.36 886.10
  L 0.00 784.23
  L 0.00 780.11
  L 72.15 884.78
  Q 94.42 917.32 117.21 950.30
  C 124.54 960.92 131.58 972.10 138.42 981.02
  C 141.19 984.63 143.47 988.97 145.98 992.57
  A 0.68 0.67 -45.4 0 0 147.09 992.56
  L 218.88 887.84
  L 297.06 773.89
  A 0.72 0.71 -44.7 0 0 297.07 773.07
  L 223.49 665.26
  L 147.40 553.79
  A 0.74 0.74 0.0 0 0 146.18 553.79
  L 68.08 667.29
  Q 60.98 677.03 54.45 686.68
  C 36.93 712.60 19.09 738.30 1.26 764.01
  Q 0.65 764.89 0.00 764.89
  L 0.00 761.89
  L 66.56 665.46
  L 145.13 551.64
  A 1.30 1.30 0.0 0 0 145.13 550.16
  L 69.98 441.82
  L 0.00 340.93
  L 0.00 338.51
  Q 0.13 338.30 0.30 338.19
  A 0.38 0.37 56.3 0 1 0.81 338.30
  L 71.47 440.11
  Q 103.78 486.77 136.16 533.51
  C 139.95 538.98 143.18 544.63 146.16 548.71
  A 0.72 0.72 0.0 0 0 147.34 548.70
  L 220.62 441.99
  Q 224.81 436.78 228.65 430.84
  Q 235.66 419.96 236.13 419.28
  Q 263.22 379.85 292.32 338.08
  Q 294.10 335.52 296.62 331.45
  A 0.87 0.86 -44.7 0 0 296.63 330.55
  C 292.37 323.24 288.38 318.29 283.76 311.21
  Q 282.62 309.46 230.92 234.89
  Q 226.16 228.03 221.46 221.30
  C 221.31 221.08 221.09 220.98 220.84 221.01
  L 145.83 113.62
  A 0.38 0.37 -44.7 0 0 145.22 113.62
  L 70.58 220.71
  L 0.67 321.56
  A 0.24 0.22 -77.8 0 1 0.54 321.65
  Q 0.30 321.72 0.00 321.60
  L 0.00 318.59
  L 69.34 219.12
  L 143.90 111.40
  A 0.97 0.97 0.0 0 0 143.90 110.30
  L 65.99 0.66
  Q 66.43 0.25 66.48 0.00
  L 68.19 0.00
  Z
  M 678.72 221.65
  L 604.27 329.45
  A 1.31 1.30 45.3 0 0 604.27 330.94
  L 680.14 440.94
  L 754.10 548.88
  A 0.60 0.60 0.0 0 0 755.11 548.85
  C 760.50 539.96 764.06 535.43 770.32 526.13
  C 779.46 512.56 788.98 499.32 798.21 485.70
  Q 805.14 475.48 830.05 440.77
  L 905.41 331.74
  A 0.82 0.82 0.0 0 0 905.45 330.86
  Q 902.73 326.12 900.16 322.65
  C 895.39 316.22 893.02 312.20 888.28 305.81
  Q 885.28 301.75 882.06 296.88
  C 875.30 286.65 867.77 276.47 860.85 266.54
  Q 845.21 244.08 829.65 221.64
  Q 825.57 216.06 821.69 210.37
  Q 816.26 202.44 813.85 199.01
  Q 788.11 162.44 763.18 126.71
  C 760.08 122.28 757.03 118.69 754.68 113.92
  A 0.94 0.94 0.0 0 0 753.05 113.83
  C 749.07 120.08 746.66 124.27 743.01 128.85
  C 739.87 132.79 737.20 137.34 734.19 141.59
  Q 717.09 165.77 682.46 216.65
  Q 680.59 219.41 678.72 221.65
  Z
  M 984.27 222.24
  Q 980.91 226.04 978.06 230.50
  Q 972.87 238.62 972.47 239.19
  Q 951.83 268.74 930.32 299.60
  Q 924.23 308.33 912.68 324.88
  Q 909.93 328.83 908.80 330.82
  A 0.87 0.86 42.8 0 0 908.84 331.74
  L 984.80 441.50
  L 1060.07 550.79
  A 0.66 0.66 0.0 0 0 1061.16 550.79
  L 1135.99 442.83
  L 1213.01 332.09
  A 0.92 0.91 -45.4 0 0 1213.01 331.04
  L 1136.42 221.14
  Q 1107.58 179.26 1078.37 138.39
  Q 1074.17 132.52 1069.34 125.32
  C 1066.86 121.63 1063.48 118.22 1061.51 113.87
  A 0.79 0.78 50.4 0 0 1060.15 113.74
  L 984.27 222.24
  Z
  M 375.20 222.30
  Q 372.53 225.09 371.76 226.27
  Q 362.79 240.04 353.89 252.92
  Q 305.52 322.91 303.06 326.52
  Q 300.92 329.66 300.53 330.20
  A 1.20 1.19 46.9 0 0 300.49 331.51
  Q 302.41 334.64 303.41 336.10
  Q 326.34 369.47 350.88 404.83
  C 354.38 409.88 356.63 413.78 359.87 418.03
  Q 360.77 419.21 366.57 427.95
  Q 370.97 434.58 375.85 440.61
  L 449.35 548.19
  A 1.04 1.04 0.0 0 0 451.11 548.13
  Q 456.25 539.32 462.07 531.69
  C 464.72 528.20 466.71 524.83 469.50 520.74
  Q 475.14 512.48 505.22 469.19
  Q 514.80 455.40 524.11 441.57
  L 600.58 330.58
  A 0.90 0.89 46.5 0 0 600.60 329.60
  Q 595.66 321.66 591.92 316.49
  C 585.28 307.30 581.10 300.38 574.57 291.32
  Q 570.16 285.20 566.01 279.11
  Q 558.17 267.62 534.80 234.42
  Q 530.38 228.15 525.36 221.08
  Q 515.36 206.56 504.70 191.28
  Q 476.99 151.54 458.66 125.66
  C 455.86 121.70 453.09 118.35 451.00 114.24
  A 0.62 0.62 0.0 0 0 449.94 114.16
  L 375.20 222.30
  Z
  M 525.66 443.20
  L 451.94 550.17
  A 1.41 1.41 0.0 0 0 451.94 551.77
  L 528.39 663.50
  Q 555.34 702.55 582.37 741.94
  Q 591.89 755.82 601.39 770.56
  A 0.71 0.71 0.0 0 0 602.57 770.58
  Q 613.18 755.24 621.52 742.59
  C 627.67 733.27 634.45 723.95 640.81 714.49
  C 647.39 704.70 654.12 695.76 660.92 685.78
  Q 661.00 685.66 667.86 675.95
  Q 671.94 670.17 675.44 663.99
  L 753.08 551.51
  A 0.44 0.42 45.8 0 0 753.08 551.02
  L 678.80 442.44
  L 603.16 332.58
  A 0.74 0.74 0.0 0 0 601.94 332.58
  L 525.66 443.20
  Z
  M 222.02 443.49
  Q 217.76 448.66 214.75 454.56
  A 0.55 0.31 -29.0 0 0 214.70 454.64
  L 148.50 550.19
  A 1.15 1.14 45.3 0 0 148.50 551.48
  L 224.73 663.13
  Q 230.49 671.45 236.30 679.98
  Q 258.03 711.89 281.55 746.51
  Q 289.10 757.63 296.20 769.33
  Q 297.11 770.84 298.03 771.51
  A 0.92 0.92 0.0 0 0 299.33 771.31
  Q 302.58 766.84 305.78 761.47
  C 309.25 755.64 312.67 751.56 316.08 745.99
  Q 317.37 743.87 320.17 739.76
  Q 340.36 710.03 346.98 700.48
  Q 361.53 679.46 370.55 665.92
  Q 372.97 662.70 374.65 659.33
  A 1.19 0.68 -29.9 0 1 374.72 659.21
  L 448.49 551.59
  A 0.91 0.91 0.0 0 0 448.49 550.55
  L 374.16 442.08
  L 299.06 333.36
  A 0.53 0.53 0.0 0 0 298.18 333.36
  L 222.02 443.49
  Z
  M 831.19 442.28
  C 827.31 446.69 824.10 452.73 821.38 456.37
  Q 817.60 461.42 814.61 466.23
  C 811.66 470.95 808.22 475.23 804.88 480.13
  Q 799.12 488.57 774.65 523.81
  C 767.82 533.64 762.79 541.62 756.13 550.06
  A 1.76 1.75 45.9 0 0 756.10 552.19
  Q 763.95 562.75 765.73 565.35
  Q 800.80 616.89 821.37 647.13
  Q 830.42 660.44 833.27 664.35
  L 906.79 773.17
  A 1.17 1.17 0.0 0 0 908.75 773.13
  Q 911.43 768.74 914.87 763.61
  Q 940.54 725.35 962.39 694.04
  Q 967.70 686.44 968.11 685.90
  C 971.61 681.34 974.15 677.10 977.89 671.92
  Q 980.16 668.78 981.73 665.95
  Q 983.27 663.27 988.52 655.78
  Q 1000.99 637.99 1046.56 571.46
  Q 1049.03 567.86 1052.58 563.10
  Q 1056.00 558.53 1058.77 553.54
  A 0.97 0.95 42.6 0 0 1058.72 552.54
  L 983.21 443.06
  L 908.11 333.73
  A 1.24 1.23 44.9 0 0 906.08 333.73
  L 831.19 442.28
  Z
  M 676.63 666.21
  L 603.90 772.23
  A 1.56 1.56 0.0 0 0 603.90 773.99
  L 680.95 886.57
  Q 682.40 888.88 684.02 891.25
  Q 715.15 936.86 749.48 986.75
  Q 752.05 990.48 754.00 994.04
  A 1.15 1.15 0.0 0 0 755.99 994.08
  Q 759.22 988.71 762.17 984.40
  Q 778.59 960.42 823.71 895.18
  Q 826.58 891.04 828.97 887.60
  L 906.29 775.67
  A 0.69 0.68 -45.6 0 0 906.29 774.90
  L 831.61 666.29
  L 755.03 553.67
  A 0.70 0.70 0.0 0 0 753.87 553.67
  L 676.63 666.21
  Z
  M 372.57 666.57
  L 299.98 773.16
  A 0.87 0.87 0.0 0 0 299.98 774.12
  Q 334.81 825.71 367.83 874.08
  C 369.85 877.03 372.68 882.19 376.02 885.84
  L 448.61 992.39
  A 0.82 0.81 -44.9 0 0 449.96 992.39
  L 522.40 886.81
  Q 526.14 882.62 529.13 877.82
  Q 534.41 869.34 535.13 868.31
  Q 551.14 845.18 553.45 841.70
  Q 559.73 832.27 564.47 825.51
  Q 583.78 797.99 600.48 773.33
  A 0.50 0.50 0.0 0 0 600.48 772.77
  Q 580.03 742.36 538.04 680.96
  Q 533.06 673.70 531.59 671.16
  Q 530.57 669.40 526.74 664.93
  L 450.69 553.74
  A 0.69 0.68 -44.8 0 0 449.56 553.74
  L 372.57 666.57
  Z
  M 982.78 667.69
  L 908.82 775.28
  A 0.74 0.74 0.0 0 0 908.82 776.12
  L 985.20 887.05
  L 1059.98 995.94
  A 0.72 0.72 0.0 0 0 1061.18 995.91
  C 1063.77 991.75 1066.78 988.34 1069.10 984.52
  C 1074.24 976.05 1082.68 964.87 1088.41 956.59
  Q 1114.29 919.12 1120.10 911.07
  C 1122.82 907.31 1125.64 903.53 1128.41 899.17
  Q 1131.80 893.81 1135.80 889.06
  L 1212.94 777.28
  A 1.02 1.02 0.0 0 0 1212.94 776.12
  L 1137.59 666.71
  L 1060.91 555.90
  A 0.54 0.54 0.0 0 0 1060.02 555.90
  L 982.78 667.69
  Z
  M 523.81 888.56
  L 450.93 994.90
  A 0.85 0.84 -44.7 0 0 450.92 995.84
  L 528.58 1109.94
  L 601.50 1218.46
  A 0.67 0.66 45.1 0 0 602.61 1218.47
  L 675.50 1111.35
  L 753.63 997.64
  A 1.44 1.42 -45.7 0 0 753.62 996.00
  C 750.61 991.79 748.43 989.23 745.97 985.49
  Q 740.10 976.54 730.75 962.99
  Q 705.45 926.33 679.35 888.14
  L 602.70 775.84
  A 0.87 0.86 -45.1 0 0 601.27 775.85
  Q 588.43 794.73 577.06 811.26
  Q 556.65 840.95 536.17 870.32
  Q 536.14 870.37 530.82 877.69
  Q 526.96 883.00 523.81 888.56
  Z
  M 220.33 890.10
  L 148.66 993.83
  A 1.76 1.75 45.4 0 0 148.65 995.82
  L 225.04 1108.52
  L 296.90 1215.91
  A 0.76 0.75 45.2 0 0 298.16 1215.92
  L 369.61 1109.86
  L 447.45 995.64
  A 0.88 0.88 0.0 0 0 447.45 994.66
  L 374.63 887.89
  Q 372.11 883.28 368.84 878.71
  Q 363.23 870.84 363.21 870.81
  Q 312.21 795.71 309.28 791.44
  Q 303.85 783.55 298.87 776.11
  A 0.60 0.60 0.0 0 0 297.85 776.14
  C 295.92 779.45 293.43 782.38 291.36 785.60
  Q 286.48 793.21 281.42 800.60
  Q 252.07 843.47 224.13 883.88
  Q 223.28 885.11 220.33 890.10
  Z
  M 830.37 889.43
  L 756.54 996.59
  A 0.93 0.93 0.0 0 0 756.58 997.70
  C 763.33 1006.13 769.79 1016.71 776.59 1026.61
  Q 788.68 1044.22 791.62 1048.64
  Q 792.78 1050.39 794.62 1053.09
  Q 813.13 1080.31 830.89 1105.90
  Q 832.20 1107.80 833.59 1110.17
  Q 864.51 1155.26 895.10 1201.19
  Q 897.86 1205.32 906.52 1218.86
  A 1.07 1.07 0.0 0 0 908.31 1218.88
  C 910.97 1214.91 912.94 1211.32 915.41 1208.15
  C 918.73 1203.89 921.53 1198.88 925.15 1193.55
  Q 941.28 1169.80 976.79 1118.99
  Q 979.45 1115.19 981.57 1111.67
  L 1058.84 999.14
  A 0.71 0.71 0.0 0 0 1058.84 998.32
  L 983.77 888.93
  Q 981.55 885.02 980.30 883.21
  Q 954.14 845.35 921.70 798.05
  Q 917.16 791.43 916.90 790.99
  C 914.21 786.47 910.71 782.73 908.17 778.13
  A 0.76 0.76 0.0 0 0 906.88 778.07
  L 830.37 889.43
  Z"
/>
<path fill="#f8f2ea" d="
  M 222.17 0.00
  L 146.04 108.72
  A 0.74 0.74 0.0 0 1 144.83 108.73
  L 68.19 0.00
  L 222.17 0.00
  Z"
/>
<path fill="#e4c8fc" d="
  M 371.63 0.00
  Q 371.50 0.33 371.22 0.45
  Q 370.34 0.15 369.87 1.26
  Q 369.35 2.51 369.12 2.86
  Q 359.42 17.35 348.15 33.65
  Q 320.90 73.03 297.20 109.08
  A 0.48 0.48 0.0 0 1 296.42 109.11
  Q 294.94 107.18 293.21 104.55
  Q 269.39 68.37 238.45 23.51
  C 233.77 16.73 230.95 11.85 226.90 6.29
  Q 226.85 6.23 225.48 3.90
  Q 224.68 2.55 223.65 1.81
  Q 224.44 0.70 224.14 0.00
  L 371.63 0.00
  Z"
/>
<path fill="#f8f2ea" d="
  M 527.33 0.00
  L 451.10 108.97
  A 0.64 0.64 0.0 0 1 450.06 108.97
  L 373.32 0.00
  L 527.33 0.00
  Z"
/>
<path fill="#e4c8fc" d="
  M 675.40 0.00
  Q 674.47 1.09 675.17 1.36
  Q 674.97 1.45 674.81 1.52
  A 1.35 1.34 -86.6 0 0 674.24 2.03
  Q 668.85 10.95 667.87 12.36
  Q 648.15 40.72 602.10 109.19
  A 0.48 0.48 0.0 0 1 601.31 109.19
  L 528.64 1.67
  Q 529.15 1.19 529.18 0.49
  Q 529.20 0.19 528.50 0.00
  L 675.40 0.00
  Z"
/>
<path fill="#f8f2ea" d="
  M 830.43 0.00
  L 754.23 108.67
  A 0.79 0.79 0.0 0 1 752.94 108.67
  L 676.80 0.00
  L 830.43 0.00
  Z"
/>
<path fill="#e4c8fc" d="
  M 981.99 0.00
  Q 981.92 0.35 981.65 0.79
  Q 981.28 0.39 980.92 0.38
  Q 980.59 0.36 980.30 0.84
  Q 975.73 8.29 973.39 11.63
  Q 939.48 60.06 910.19 104.18
  Q 908.60 106.57 907.17 109.02
  A 0.68 0.68 0.0 0 1 906.02 109.05
  Q 872.45 58.07 836.54 6.41
  Q 835.95 5.56 834.85 3.31
  Q 833.90 1.36 832.67 0.60
  Q 832.51 0.86 832.63 0.00
  L 981.99 0.00
  Z"
/>
<path fill="#f8f2ea" d="
  M 1137.56 0.00
  L 1061.38 108.31
  A 0.74 0.74 0.0 0 1 1060.17 108.31
  L 983.51 0.00
  L 1137.56 0.00
  Z"
/>
<path fill="#e4c8fc" d="
  M 1254.00 0.00
  L 1254.00 50.37
  L 1213.91 109.47
  A 0.32 0.32 0.0 0 1 1213.38 109.47
  L 1139.21 1.20
  Q 1139.82 0.67 1139.00 0.00
  L 1254.00 0.00
  Z"
/>
<path fill="#f8f2ea" d="
  M 981.65 0.79
  L 1059.06 110.55
  A 0.80 0.78 -45.4 0 1 1059.06 111.46
  L 983.25 219.73
  Q 980.47 216.77 979.45 215.30
  Q 939.07 157.12 907.15 110.64
  A 0.62 0.62 0.0 0 0 906.13 110.64
  L 831.36 219.95
  Q 830.67 219.21 829.90 218.11
  Q 792.74 165.31 769.43 131.85
  C 764.58 124.89 760.47 118.26 755.46 112.35
  A 1.58 1.58 0.0 0 1 755.37 110.42
  L 832.67 0.60
  Q 833.90 1.36 834.85 3.31
  Q 835.95 5.56 836.54 6.41
  Q 872.45 58.07 906.02 109.05
  A 0.68 0.68 0.0 0 0 907.17 109.02
  Q 908.60 106.57 910.19 104.18
  Q 939.48 60.06 973.39 11.63
  Q 975.73 8.29 980.30 0.84
  Q 980.59 0.36 980.92 0.38
  Q 981.28 0.39 981.65 0.79
  Z"
/>
<path fill="#f8f2ea" d="
  M 65.99 0.66
  L 143.90 110.30
  A 0.97 0.97 0.0 0 1 143.90 111.40
  L 69.34 219.12
  Q 68.05 218.21 66.21 215.54
  Q 32.86 167.28 0.00 119.43
  L 0.00 98.08
  Q 15.93 74.36 32.14 50.36
  C 42.41 35.16 53.86 19.03 64.15 2.95
  Q 64.27 2.77 64.87 1.62
  Q 65.33 0.75 65.99 0.66
  Z"
/>
<path fill="#f8f2ea" d="
  M 371.22 0.45
  L 448.86 111.14
  A 0.73 0.72 45.5 0 1 448.86 111.97
  L 373.54 220.42
  L 297.79 110.73
  A 0.81 0.81 0.0 0 0 296.45 110.74
  L 222.65 219.27
  L 147.45 111.63
  A 0.98 0.97 -45.4 0 1 147.45 110.50
  L 223.65 1.81
  Q 224.68 2.55 225.48 3.90
  Q 226.85 6.23 226.90 6.29
  C 230.95 11.85 233.77 16.73 238.45 23.51
  Q 269.39 68.37 293.21 104.55
  Q 294.94 107.18 296.42 109.11
  A 0.48 0.48 0.0 0 0 297.20 109.08
  Q 320.90 73.03 348.15 33.65
  Q 359.42 17.35 369.12 2.86
  Q 369.35 2.51 369.87 1.26
  Q 370.34 0.15 371.22 0.45
  Z"
/>
<path fill="#f8f2ea" d="
  M 675.17 1.36
  Q 706.02 45.14 736.94 88.89
  C 741.82 95.79 746.46 103.56 752.32 110.41
  A 1.05 1.04 -48.3 0 1 752.39 111.69
  L 677.32 219.30
  L 602.49 111.27
  A 0.73 0.72 44.8 0 0 601.30 111.27
  L 526.90 219.30
  L 452.34 112.20
  A 1.08 1.07 45.3 0 1 452.34 110.97
  L 528.64 1.67
  L 601.31 109.19
  A 0.48 0.48 0.0 0 0 602.10 109.19
  Q 648.15 40.72 667.87 12.36
  Q 668.85 10.95 674.24 2.03
  A 1.35 1.34 -86.6 0 1 674.81 1.52
  Q 674.97 1.45 675.17 1.36
  Z"
/>
<path fill="#f8f2ea" d="
  M 1139.21 1.20
  L 1213.38 109.47
  A 0.32 0.32 0.0 0 0 1213.91 109.47
  L 1254.00 50.37
  L 1254.00 167.74
  L 1253.65 168.30
  A 0.18 0.17 -46.7 0 1 1253.36 168.31
  L 1213.98 111.06
  A 0.46 0.46 0.0 0 0 1213.26 111.01
  C 1208.97 115.81 1205.53 121.76 1202.01 126.76
  Q 1175.75 164.13 1139.56 216.79
  Q 1139.50 216.89 1138.96 218.13
  Q 1138.60 218.97 1137.61 218.91
  L 1062.33 111.32
  A 0.53 0.52 -45.7 0 1 1062.33 110.71
  L 1139.21 1.20
  Z"
/>
<path fill="#e4c8fc" d="
  M 373.54 220.42
  Q 370.98 225.13 368.46 228.71
  Q 331.29 281.51 323.65 292.89
  Q 316.92 302.90 299.00 328.48
  A 0.40 0.40 0.0 0 1 298.34 328.48
  L 222.65 219.27
  L 296.45 110.74
  A 0.81 0.81 0.0 0 1 297.79 110.73
  L 373.54 220.42
  Z"
/>
<path fill="#e4c8fc" d="
  M 983.25 219.73
  Q 980.99 224.08 977.99 228.23
  Q 956.20 258.41 943.70 276.70
  Q 933.28 291.95 927.05 300.99
  Q 917.36 315.06 907.63 328.86
  A 0.76 0.76 0.0 0 1 906.38 328.85
  L 831.36 219.95
  L 906.13 110.64
  A 0.62 0.62 0.0 0 1 907.15 110.64
  Q 939.07 157.12 979.45 215.30
  Q 980.47 216.77 983.25 219.73
  Z"
/>
<path fill="#e4c8fc" d="
  M 1254.00 167.74
  L 1254.00 274.02
  L 1215.44 328.83
  A 0.65 0.65 0.0 0 1 1214.38 328.83
  L 1137.61 218.91
  Q 1138.60 218.97 1138.96 218.13
  Q 1139.50 216.89 1139.56 216.79
  Q 1175.75 164.13 1202.01 126.76
  C 1205.53 121.76 1208.97 115.81 1213.26 111.01
  A 0.46 0.46 0.0 0 1 1213.98 111.06
  L 1253.36 168.31
  A 0.18 0.17 -46.7 0 0 1253.65 168.30
  L 1254.00 167.74
  Z"
/>
<path fill="#e4c8fc" d="
  M 677.32 219.30
  Q 672.88 226.47 670.67 229.66
  Q 640.10 273.60 607.18 321.45
  Q 603.60 326.66 603.02 327.44
  A 0.77 0.77 0.0 0 1 601.77 327.42
  L 526.90 219.30
  L 601.30 111.27
  A 0.73 0.72 44.8 0 1 602.49 111.27
  L 677.32 219.30
  Z"
/>
<path fill="#f8f2ea" d="
  M 829.65 221.64
  L 755.02 330.72
  A 0.78 0.78 0.0 0 1 753.72 330.72
  L 678.72 221.65
  Q 680.59 219.41 682.46 216.65
  Q 717.09 165.77 734.19 141.59
  C 737.20 137.34 739.87 132.79 743.01 128.85
  C 746.66 124.27 749.07 120.08 753.05 113.83
  A 0.94 0.94 0.0 0 1 754.68 113.92
  C 757.03 118.69 760.08 122.28 763.18 126.71
  Q 788.11 162.44 813.85 199.01
  Q 816.26 202.44 821.69 210.37
  Q 825.57 216.06 829.65 221.64
  Z"
/>
<path fill="#f8f2ea" d="
  M 1136.42 221.14
  L 1060.11 331.04
  A 0.37 0.37 0.0 0 1 1059.50 331.04
  L 984.27 222.24
  L 1060.15 113.74
  A 0.79 0.78 50.4 0 1 1061.51 113.87
  C 1063.48 118.22 1066.86 121.63 1069.34 125.32
  Q 1074.17 132.52 1078.37 138.39
  Q 1107.58 179.26 1136.42 221.14
  Z"
/>
<path fill="#f8f2ea" d="
  M 220.84 221.01
  Q 220.82 221.71 220.63 221.99
  Q 182.30 277.53 146.44 330.34
  A 0.86 0.85 -44.9 0 1 145.03 330.34
  Q 109.74 278.54 71.12 222.80
  Q 70.27 221.57 70.58 220.71
  L 145.22 113.62
  A 0.38 0.37 -44.7 0 1 145.83 113.62
  L 220.84 221.01
  Z"
/>
<path fill="#f8f2ea" d="
  M 525.36 221.08
  L 450.03 330.28
  A 0.58 0.58 0.0 0 1 449.07 330.28
  Q 417.38 283.73 390.14 244.67
  C 386.35 239.24 383.90 234.89 380.38 230.69
  C 378.34 228.25 376.80 225.18 375.20 222.30
  L 449.94 114.16
  A 0.62 0.62 0.0 0 1 451.00 114.24
  C 453.09 118.35 455.86 121.70 458.66 125.66
  Q 476.99 151.54 504.70 191.28
  Q 515.36 206.56 525.36 221.08
  Z"
/>
<path fill="#e4c8fc" d="
  M 69.34 219.12
  L 0.00 318.59
  L 0.00 119.43
  Q 32.86 167.28 66.21 215.54
  Q 68.05 218.21 69.34 219.12
  Z"
/>
<path fill="#e4c8fc" d="
  M 70.58 220.71
  Q 70.27 221.57 71.12 222.80
  Q 109.74 278.54 145.03 330.34
  A 0.86 0.85 -44.9 0 0 146.44 330.34
  Q 182.30 277.53 220.63 221.99
  Q 220.82 221.71 220.84 221.01
  C 221.09 220.98 221.31 221.08 221.46 221.30
  Q 226.16 228.03 230.92 234.89
  Q 282.62 309.46 283.76 311.21
  C 288.38 318.29 292.37 323.24 296.63 330.55
  A 0.87 0.86 -44.7 0 1 296.62 331.45
  Q 294.10 335.52 292.32 338.08
  Q 263.22 379.85 236.13 419.28
  Q 235.66 419.96 228.65 430.84
  Q 224.81 436.78 220.62 441.99
  Q 213.98 431.90 207.07 421.62
  Q 177.60 377.74 165.05 359.43
  C 158.99 350.60 152.13 341.54 146.46 332.56
  A 0.85 0.85 0.0 0 0 145.04 332.53
  L 71.47 440.11
  L 0.81 338.30
  A 0.38 0.37 56.3 0 0 0.30 338.19
  Q 0.13 338.30 0.00 338.51
  L 0.00 321.60
  Q 0.30 321.72 0.54 321.65
  A 0.24 0.22 -77.8 0 0 0.67 321.56
  L 70.58 220.71
  Z"
/>
<path fill="#e4c8fc" d="
  M 1135.99 442.83
  Q 1132.61 436.91 1128.78 431.45
  Q 1122.67 422.76 1122.62 422.69
  Q 1085.81 368.08 1062.58 335.51
  Q 1061.35 333.80 1060.52 331.95
  A 0.51 0.51 0.0 0 0 1059.63 331.88
  L 984.80 441.50
  L 908.84 331.74
  A 0.87 0.86 42.8 0 1 908.80 330.82
  Q 909.93 328.83 912.68 324.88
  Q 924.23 308.33 930.32 299.60
  Q 951.83 268.74 972.47 239.19
  Q 972.87 238.62 978.06 230.50
  Q 980.91 226.04 984.27 222.24
  L 1059.50 331.04
  A 0.37 0.37 0.0 0 0 1060.11 331.04
  L 1136.42 221.14
  L 1213.01 331.04
  A 0.92 0.91 -45.4 0 1 1213.01 332.09
  L 1135.99 442.83
  Z"
/>
<path fill="#e4c8fc" d="
  M 524.11 441.57
  L 449.99 332.42
  A 0.49 0.49 0.0 0 0 449.18 332.42
  L 375.85 440.61
  Q 370.97 434.58 366.57 427.95
  Q 360.77 419.21 359.87 418.03
  C 356.63 413.78 354.38 409.88 350.88 404.83
  Q 326.34 369.47 303.41 336.10
  Q 302.41 334.64 300.49 331.51
  A 1.20 1.19 46.9 0 1 300.53 330.20
  Q 300.92 329.66 303.06 326.52
  Q 305.52 322.91 353.89 252.92
  Q 362.79 240.04 371.76 226.27
  Q 372.53 225.09 375.20 222.30
  C 376.80 225.18 378.34 228.25 380.38 230.69
  C 383.90 234.89 386.35 239.24 390.14 244.67
  Q 417.38 283.73 449.07 330.28
  A 0.58 0.58 0.0 0 0 450.03 330.28
  L 525.36 221.08
  Q 530.38 228.15 534.80 234.42
  Q 558.17 267.62 566.01 279.11
  Q 570.16 285.20 574.57 291.32
  C 581.10 300.38 585.28 307.30 591.92 316.49
  Q 595.66 321.66 600.60 329.60
  A 0.90 0.89 46.5 0 1 600.58 330.58
  L 524.11 441.57
  Z"
/>
<path fill="#e4c8fc" d="
  M 830.05 440.77
  Q 825.61 436.21 822.96 432.29
  C 820.48 428.64 817.61 423.52 814.58 419.06
  C 797.97 394.53 773.96 360.09 754.78 331.94
  A 0.51 0.51 0.0 0 0 753.94 331.94
  L 680.14 440.94
  L 604.27 330.94
  A 1.31 1.30 45.3 0 1 604.27 329.45
  L 678.72 221.65
  L 753.72 330.72
  A 0.78 0.78 0.0 0 0 755.02 330.72
  L 829.65 221.64
  Q 845.21 244.08 860.85 266.54
  C 867.77 276.47 875.30 286.65 882.06 296.88
  Q 885.28 301.75 888.28 305.81
  C 893.02 312.20 895.39 316.22 900.16 322.65
  Q 902.73 326.12 905.45 330.86
  A 0.82 0.82 0.0 0 1 905.41 331.74
  L 830.05 440.77
  Z"
/>
<path fill="#e4c8fc" d="
  M 1254.00 277.43
  L 1254.00 385.89
  L 1216.73 332.23
  A 1.02 1.02 0.0 0 1 1216.73 331.07
  L 1254.00 277.43
  Z"
/>
<path fill="#f8f2ea" d="
  M 830.05 440.77
  Q 805.14 475.48 798.21 485.70
  C 788.98 499.32 779.46 512.56 770.32 526.13
  C 764.06 535.43 760.50 539.96 755.11 548.85
  A 0.60 0.60 0.0 0 1 754.10 548.88
  L 680.14 440.94
  L 753.94 331.94
  A 0.51 0.51 0.0 0 1 754.78 331.94
  C 773.96 360.09 797.97 394.53 814.58 419.06
  C 817.61 423.52 820.48 428.64 822.96 432.29
  Q 825.61 436.21 830.05 440.77
  Z"
/>
<path fill="#f8f2ea" d="
  M 1135.99 442.83
  L 1061.16 550.79
  A 0.66 0.66 0.0 0 1 1060.07 550.79
  L 984.80 441.50
  L 1059.63 331.88
  A 0.51 0.51 0.0 0 1 1060.52 331.95
  Q 1061.35 333.80 1062.58 335.51
  Q 1085.81 368.08 1122.62 422.69
  Q 1122.67 422.76 1128.78 431.45
  Q 1132.61 436.91 1135.99 442.83
  Z"
/>
<path fill="#f8f2ea" d="
  M 220.62 441.99
  L 147.34 548.70
  A 0.72 0.72 0.0 0 1 146.16 548.71
  C 143.18 544.63 139.95 538.98 136.16 533.51
  Q 103.78 486.77 71.47 440.11
  L 145.04 332.53
  A 0.85 0.85 0.0 0 1 146.46 332.56
  C 152.13 341.54 158.99 350.60 165.05 359.43
  Q 177.60 377.74 207.07 421.62
  Q 213.98 431.90 220.62 441.99
  Z"
/>
<path fill="#f8f2ea" d="
  M 524.11 441.57
  Q 514.80 455.40 505.22 469.19
  Q 475.14 512.48 469.50 520.74
  C 466.71 524.83 464.72 528.20 462.07 531.69
  Q 456.25 539.32 451.11 548.13
  A 1.04 1.04 0.0 0 1 449.35 548.19
  L 375.85 440.61
  L 449.18 332.42
  A 0.49 0.49 0.0 0 1 449.99 332.42
  L 524.11 441.57
  Z"
/>
<path fill="#e4c8fc" d="
  M 678.80 442.44
  Q 662.63 465.69 647.20 488.39
  C 644.81 491.91 642.26 494.97 640.12 498.48
  Q 638.59 500.98 634.99 506.17
  Q 625.15 520.33 617.23 532.45
  C 612.83 539.18 606.93 546.42 602.72 554.09
  A 1.09 1.09 0.0 0 1 600.85 554.16
  C 598.46 550.42 597.09 547.68 595.00 544.95
  C 589.98 538.37 584.61 529.10 579.48 521.85
  C 572.32 511.71 556.69 488.27 544.55 470.76
  C 538.01 461.33 532.57 452.49 525.66 443.20
  L 601.94 332.58
  A 0.74 0.74 0.0 0 1 603.16 332.58
  L 678.80 442.44
  Z"
/>
<path fill="#e4c8fc" d="
  M 374.16 442.08
  Q 370.85 445.84 368.20 450.12
  Q 363.15 458.24 362.90 458.61
  Q 332.67 502.73 297.45 554.27
  A 0.53 0.53 0.0 0 1 296.56 554.24
  Q 291.08 545.12 287.94 540.54
  C 272.37 517.78 257.46 495.39 240.62 470.88
  Q 239.59 469.39 231.53 457.06
  Q 227.00 450.12 222.02 443.49
  L 298.18 333.36
  A 0.53 0.53 0.0 0 1 299.06 333.36
  L 374.16 442.08
  Z"
/>
<path fill="#e4c8fc" d="
  M 983.21 443.06
  L 907.23 554.25
  A 0.56 0.56 0.0 0 1 906.30 554.24
  Q 902.53 548.58 897.97 541.72
  Q 872.88 504.02 849.67 470.78
  C 844.34 463.15 839.68 455.18 834.39 447.49
  Q 833.93 446.82 832.98 444.77
  Q 832.29 443.29 831.19 442.28
  L 906.08 333.73
  A 1.24 1.23 44.9 0 1 908.11 333.73
  L 983.21 443.06
  Z"
/>
<path fill="#e4c8fc" d="
  M 1254.00 389.15
  L 1254.00 495.73
  L 1213.66 554.92
  A 0.46 0.45 -44.5 0 1 1212.90 554.92
  C 1197.49 531.30 1176.02 500.15 1165.72 485.24
  C 1157.87 473.88 1147.53 459.23 1138.99 445.79
  Q 1138.62 445.21 1138.13 445.12
  Q 1137.58 445.03 1136.99 445.25
  L 1214.12 334.09
  A 0.90 0.90 0.0 0 1 1215.59 334.09
  L 1254.00 389.15
  Z"
/>
<path fill="#e4c8fc" d="
  M 69.98 441.82
  L 0.00 545.00
  L 0.00 340.93
  L 69.98 441.82
  Z"
/>
<path fill="#f8f2ea" d="
  M 69.98 441.82
  L 145.13 550.16
  A 1.30 1.30 0.0 0 1 145.13 551.64
  L 66.56 665.46
  L 0.00 567.03
  L 0.00 545.00
  L 69.98 441.82
  Z"
/>
<path fill="#f8f2ea" d="
  M 374.16 442.08
  L 448.49 550.55
  A 0.91 0.91 0.0 0 1 448.49 551.59
  L 374.72 659.21
  A 1.19 0.68 -29.9 0 0 374.65 659.33
  Q 372.97 662.70 370.55 665.92
  Q 366.88 658.35 365.58 656.45
  Q 305.76 569.20 300.23 561.05
  Q 298.83 558.98 297.51 556.82
  A 0.73 0.73 0.0 0 0 296.28 556.80
  Q 265.57 602.55 229.60 655.10
  Q 227.62 658.00 224.73 663.13
  L 148.50 551.48
  A 1.15 1.14 45.3 0 1 148.50 550.19
  L 214.70 454.64
  A 0.55 0.31 -29.0 0 1 214.75 454.56
  Q 217.76 448.66 222.02 443.49
  Q 227.00 450.12 231.53 457.06
  Q 239.59 469.39 240.62 470.88
  C 257.46 495.39 272.37 517.78 287.94 540.54
  Q 291.08 545.12 296.56 554.24
  A 0.53 0.53 0.0 0 0 297.45 554.27
  Q 332.67 502.73 362.90 458.61
  Q 363.15 458.24 368.20 450.12
  Q 370.85 445.84 374.16 442.08
  Z"
/>
<path fill="#f8f2ea" d="
  M 831.19 442.28
  Q 832.29 443.29 832.98 444.77
  Q 833.93 446.82 834.39 447.49
  C 839.68 455.18 844.34 463.15 849.67 470.78
  Q 872.88 504.02 897.97 541.72
  Q 902.53 548.58 906.30 554.24
  A 0.56 0.56 0.0 0 0 907.23 554.25
  L 983.21 443.06
  L 1058.72 552.54
  A 0.97 0.95 42.6 0 1 1058.77 553.54
  Q 1056.00 558.53 1052.58 563.10
  Q 1049.03 567.86 1046.56 571.46
  Q 1000.99 637.99 988.52 655.78
  Q 983.27 663.27 981.73 665.95
  L 907.43 557.11
  A 0.68 0.68 0.0 0 0 906.31 557.11
  L 833.27 664.35
  Q 830.42 660.44 821.37 647.13
  Q 800.80 616.89 765.73 565.35
  Q 763.95 562.75 756.10 552.19
  A 1.76 1.75 45.9 0 1 756.13 550.06
  C 762.79 541.62 767.82 533.64 774.65 523.81
  Q 799.12 488.57 804.88 480.13
  C 808.22 475.23 811.66 470.95 814.61 466.23
  Q 817.60 461.42 821.38 456.37
  C 824.10 452.73 827.31 446.69 831.19 442.28
  Z"
/>
<path fill="#f8f2ea" d="
  M 678.80 442.44
  L 753.08 551.02
  A 0.44 0.42 45.8 0 1 753.08 551.51
  L 675.44 663.99
  L 602.45 556.81
  A 0.93 0.92 -44.9 0 0 600.92 556.81
  L 528.39 663.50
  L 451.94 551.77
  A 1.41 1.41 0.0 0 1 451.94 550.17
  L 525.66 443.20
  C 532.57 452.49 538.01 461.33 544.55 470.76
  C 556.69 488.27 572.32 511.71 579.48 521.85
  C 584.61 529.10 589.98 538.37 595.00 544.95
  C 597.09 547.68 598.46 550.42 600.85 554.16
  A 1.09 1.09 0.0 0 0 602.72 554.09
  C 606.93 546.42 612.83 539.18 617.23 532.45
  Q 625.15 520.33 634.99 506.17
  Q 638.59 500.98 640.12 498.48
  C 642.26 494.97 644.81 491.91 647.20 488.39
  Q 662.63 465.69 678.80 442.44
  Z"
/>
<path fill="#f8f2ea" d="
  M 1136.99 445.25
  Q 1137.58 445.03 1138.13 445.12
  Q 1138.62 445.21 1138.99 445.79
  C 1147.53 459.23 1157.87 473.88 1165.72 485.24
  C 1176.02 500.15 1197.49 531.30 1212.90 554.92
  A 0.46 0.45 -44.5 0 0 1213.66 554.92
  L 1254.00 495.73
  L 1254.00 614.16
  L 1253.82 614.52
  A 0.46 0.46 0.0 0 1 1253.03 614.58
  L 1213.68 556.61
  A 0.58 0.58 0.0 0 0 1212.72 556.62
  Q 1202.51 572.32 1195.21 582.69
  Q 1184.54 597.85 1143.95 657.44
  Q 1141.53 661.00 1138.57 664.47
  L 1062.34 553.93
  A 1.40 1.39 45.3 0 1 1062.34 552.34
  L 1136.99 445.25
  Z"
/>
<path fill="#f8f2ea" d="
  M 831.61 666.29
  L 755.25 777.49
  A 1.60 1.58 45.2 0 0 755.25 779.28
  L 828.97 887.60
  Q 826.58 891.04 823.71 895.18
  Q 778.59 960.42 762.17 984.40
  Q 759.22 988.71 755.99 994.08
  A 1.15 1.15 0.0 0 1 754.00 994.04
  Q 752.05 990.48 749.48 986.75
  Q 715.15 936.86 684.02 891.25
  Q 682.40 888.88 680.95 886.57
  L 753.65 779.25
  A 1.33 1.33 0.0 0 0 753.65 777.75
  Q 720.66 729.06 685.56 678.77
  Q 685.52 678.70 681.63 672.62
  Q 679.40 669.14 676.63 666.21
  L 753.87 553.67
  A 0.70 0.70 0.0 0 1 755.03 553.67
  L 831.61 666.29
  Z"
/>
<path fill="#f8f2ea" d="
  M 223.49 665.26
  Q 220.39 667.49 218.31 671.29
  Q 216.87 673.93 215.74 675.40
  Q 214.12 677.49 212.85 679.35
  Q 173.95 736.08 145.68 777.28
  A 2.16 2.14 -45.2 0 0 145.68 779.73
  C 165.20 807.78 184.06 835.06 202.29 862.47
  Q 208.25 871.44 214.66 880.11
  Q 216.10 882.06 218.88 887.84
  L 147.09 992.56
  A 0.68 0.67 -45.4 0 1 145.98 992.57
  C 143.47 988.97 141.19 984.63 138.42 981.02
  C 131.58 972.10 124.54 960.92 117.21 950.30
  Q 94.42 917.32 72.15 884.78
  L 144.22 779.00
  A 1.05 1.04 44.8 0 0 144.21 777.82
  L 68.08 667.29
  L 146.18 553.79
  A 0.74 0.74 0.0 0 1 147.40 553.79
  L 223.49 665.26
  Z"
/>
<path fill="#f8f2ea" d="
  M 526.74 664.93
  Q 524.35 669.80 521.33 673.91
  Q 518.02 678.40 517.62 678.99
  Q 474.79 741.01 451.76 775.00
  Q 450.68 776.59 449.89 777.54
  A 0.72 0.71 47.4 0 1 448.75 777.49
  L 372.57 666.57
  L 449.56 553.74
  A 0.69 0.68 -44.8 0 1 450.69 553.74
  L 526.74 664.93
  Z"
/>
<path fill="#f8f2ea" d="
  M 1137.59 666.71
  L 1060.48 777.99
  A 0.75 0.74 -42.3 0 0 1060.44 778.77
  C 1063.39 784.20 1067.58 789.37 1070.76 793.96
  Q 1099.53 835.48 1122.78 869.71
  Q 1126.71 875.49 1131.27 881.74
  C 1132.78 883.80 1133.96 886.68 1135.80 889.06
  Q 1131.80 893.81 1128.41 899.17
  C 1125.64 903.53 1122.82 907.31 1120.10 911.07
  Q 1114.29 919.12 1088.41 956.59
  C 1082.68 964.87 1074.24 976.05 1069.10 984.52
  C 1066.78 988.34 1063.77 991.75 1061.18 995.91
  A 0.72 0.72 0.0 0 1 1059.98 995.94
  L 985.20 887.05
  L 1059.34 779.29
  A 0.81 0.81 0.0 0 0 1059.34 778.37
  L 984.38 669.37
  A 1.65 0.16 38.8 0 0 983.65 668.66
  Q 983.25 668.33 982.78 667.69
  L 1060.02 555.90
  A 0.54 0.54 0.0 0 1 1060.91 555.90
  L 1137.59 666.71
  Z"
/>
<path fill="#e4c8fc" d="
  M 1254.00 614.16
  L 1254.00 718.97
  L 1215.25 774.23
  A 0.63 0.63 0.0 0 1 1214.21 774.23
  L 1138.57 664.47
  Q 1141.53 661.00 1143.95 657.44
  Q 1184.54 597.85 1195.21 582.69
  Q 1202.51 572.32 1212.72 556.62
  A 0.58 0.58 0.0 0 1 1213.68 556.61
  L 1253.03 614.58
  A 0.46 0.46 0.0 0 0 1253.82 614.52
  L 1254.00 614.16
  Z"
/>
<path fill="#e4c8fc" d="
  M 370.55 665.92
  Q 361.53 679.46 346.98 700.48
  Q 340.36 710.03 320.17 739.76
  Q 317.37 743.87 316.08 745.99
  C 312.67 751.56 309.25 755.64 305.78 761.47
  Q 302.58 766.84 299.33 771.31
  A 0.92 0.92 0.0 0 1 298.03 771.51
  Q 297.11 770.84 296.20 769.33
  Q 289.10 757.63 281.55 746.51
  Q 258.03 711.89 236.30 679.98
  Q 230.49 671.45 224.73 663.13
  Q 227.62 658.00 229.60 655.10
  Q 265.57 602.55 296.28 556.80
  A 0.73 0.73 0.0 0 1 297.51 556.82
  Q 298.83 558.98 300.23 561.05
  Q 305.76 569.20 365.58 656.45
  Q 366.88 658.35 370.55 665.92
  Z"
/>
<path fill="#e4c8fc" d="
  M 675.44 663.99
  Q 671.94 670.17 667.86 675.95
  Q 661.00 685.66 660.92 685.78
  C 654.12 695.76 647.39 704.70 640.81 714.49
  C 634.45 723.95 627.67 733.27 621.52 742.59
  Q 613.18 755.24 602.57 770.58
  A 0.71 0.71 0.0 0 1 601.39 770.56
  Q 591.89 755.82 582.37 741.94
  Q 555.34 702.55 528.39 663.50
  L 600.92 556.81
  A 0.93 0.92 -44.9 0 1 602.45 556.81
  L 675.44 663.99
  Z"
/>
<path fill="#e4c8fc" d="
  M 981.73 665.95
  Q 980.16 668.78 977.89 671.92
  C 974.15 677.10 971.61 681.34 968.11 685.90
  Q 967.70 686.44 962.39 694.04
  Q 940.54 725.35 914.87 763.61
  Q 911.43 768.74 908.75 773.13
  A 1.17 1.17 0.0 0 1 906.79 773.17
  L 833.27 664.35
  L 906.31 557.11
  A 0.68 0.68 0.0 0 1 907.43 557.11
  L 981.73 665.95
  Z"
/>
<path fill="#e4c8fc" d="
  M 66.56 665.46
  L 0.00 761.89
  L 0.00 567.03
  L 66.56 665.46
  Z"
/>
<path fill="#e4c8fc" d="
  M 522.40 886.81
  Q 520.48 881.58 518.04 878.47
  Q 512.98 872.01 509.62 866.84
  Q 505.67 860.74 505.50 860.49
  Q 480.15 823.07 450.00 779.57
  A 0.84 0.84 0.0 0 0 448.61 779.58
  L 376.02 885.84
  C 372.68 882.19 369.85 877.03 367.83 874.08
  Q 334.81 825.71 299.98 774.12
  A 0.87 0.87 0.0 0 1 299.98 773.16
  L 372.57 666.57
  L 448.75 777.49
  A 0.72 0.71 47.4 0 0 449.89 777.54
  Q 450.68 776.59 451.76 775.00
  Q 474.79 741.01 517.62 678.99
  Q 518.02 678.40 521.33 673.91
  Q 524.35 669.80 526.74 664.93
  Q 530.57 669.40 531.59 671.16
  Q 533.06 673.70 538.04 680.96
  Q 580.03 742.36 600.48 772.77
  A 0.50 0.50 0.0 0 1 600.48 773.33
  Q 583.78 797.99 564.47 825.51
  Q 559.73 832.27 553.45 841.70
  Q 551.14 845.18 535.13 868.31
  Q 534.41 869.34 529.13 877.82
  Q 526.14 882.62 522.40 886.81
  Z"
/>
<path fill="#e4c8fc" d="
  M 223.49 665.26
  L 297.07 773.07
  A 0.72 0.71 -44.7 0 1 297.06 773.89
  L 218.88 887.84
  Q 216.10 882.06 214.66 880.11
  Q 208.25 871.44 202.29 862.47
  C 184.06 835.06 165.20 807.78 145.68 779.73
  A 2.16 2.14 -45.2 0 1 145.68 777.28
  Q 173.95 736.08 212.85 679.35
  Q 214.12 677.49 215.74 675.40
  Q 216.87 673.93 218.31 671.29
  Q 220.39 667.49 223.49 665.26
  Z"
/>
<path fill="#e4c8fc" d="
  M 676.63 666.21
  Q 679.40 669.14 681.63 672.62
  Q 685.52 678.70 685.56 678.77
  Q 720.66 729.06 753.65 777.75
  A 1.33 1.33 0.0 0 1 753.65 779.25
  L 680.95 886.57
  L 603.90 773.99
  A 1.56 1.56 0.0 0 1 603.90 772.23
  L 676.63 666.21
  Z"
/>
<path fill="#e4c8fc" d="
  M 828.97 887.60
  L 755.25 779.28
  A 1.60 1.58 45.2 0 1 755.25 777.49
  L 831.61 666.29
  L 906.29 774.90
  A 0.69 0.68 -45.6 0 1 906.29 775.67
  L 828.97 887.60
  Z"
/>
<path fill="#e4c8fc" d="
  M 1135.80 889.06
  C 1133.96 886.68 1132.78 883.80 1131.27 881.74
  Q 1126.71 875.49 1122.78 869.71
  Q 1099.53 835.48 1070.76 793.96
  C 1067.58 789.37 1063.39 784.20 1060.44 778.77
  A 0.75 0.74 -42.3 0 1 1060.48 777.99
  L 1137.59 666.71
  L 1212.94 776.12
  A 1.02 1.02 0.0 0 1 1212.94 777.28
  L 1135.80 889.06
  Z"
/>
<path fill="#e4c8fc" d="
  M 68.08 667.29
  L 144.21 777.82
  A 1.05 1.04 44.8 0 1 144.22 779.00
  L 72.15 884.78
  L 0.00 780.11
  L 0.00 764.89
  Q 0.65 764.89 1.26 764.01
  C 19.09 738.30 36.93 712.60 54.45 686.68
  Q 60.98 677.03 68.08 667.29
  Z"
/>
<path fill="#e4c8fc" d="
  M 982.78 667.69
  Q 983.25 668.33 983.65 668.66
  A 1.65 0.16 38.8 0 1 984.38 669.37
  L 1059.34 778.37
  A 0.81 0.81 0.0 0 1 1059.34 779.29
  L 985.20 887.05
  L 908.82 776.12
  A 0.74 0.74 0.0 0 1 908.82 775.28
  L 982.78 667.69
  Z"
/>
<path fill="#e4c8fc" d="
  M 1254.00 722.20
  L 1254.00 832.01
  L 1216.69 777.64
  A 1.42 1.40 45.3 0 1 1216.69 776.03
  L 1254.00 722.20
  Z"
/>
<path fill="#e4c8fc" d="
  M 679.35 888.14
  L 601.98 1002.28
  A 0.37 0.37 0.0 0 1 601.36 1002.28
  Q 578.87 968.74 556.18 935.24
  C 546.91 921.56 540.92 913.47 533.95 902.20
  Q 532.26 899.47 529.02 895.28
  Q 526.44 891.95 523.81 888.56
  Q 526.96 883.00 530.82 877.69
  Q 536.14 870.37 536.17 870.32
  Q 556.65 840.95 577.06 811.26
  Q 588.43 794.73 601.27 775.85
  A 0.87 0.86 -45.1 0 1 602.70 775.84
  L 679.35 888.14
  Z"
/>
<path fill="#e4c8fc" d="
  M 374.63 887.89
  L 297.01 1001.96
  A 0.25 0.25 0.0 0 1 296.59 1001.96
  Q 266.06 956.56 237.09 913.84
  Q 236.08 912.35 231.19 904.93
  Q 226.15 897.28 220.33 890.10
  Q 223.28 885.11 224.13 883.88
  Q 252.07 843.47 281.42 800.60
  Q 286.48 793.21 291.36 785.60
  C 293.43 782.38 295.92 779.45 297.85 776.14
  A 0.60 0.60 0.0 0 1 298.87 776.11
  Q 303.85 783.55 309.28 791.44
  Q 312.21 795.71 363.21 870.81
  Q 363.23 870.84 368.84 878.71
  Q 372.11 883.28 374.63 887.89
  Z"
/>
<path fill="#e4c8fc" d="
  M 983.77 888.93
  L 907.19 1001.96
  A 0.50 0.50 0.0 0 1 906.36 1001.96
  L 830.37 889.43
  L 906.88 778.07
  A 0.76 0.76 0.0 0 1 908.17 778.13
  C 910.71 782.73 914.21 786.47 916.90 790.99
  Q 917.16 791.43 921.70 798.05
  Q 954.14 845.35 980.30 883.21
  Q 981.55 885.02 983.77 888.93
  Z"
/>
<path fill="#f8f2ea" d="
  M 522.40 886.81
  L 449.96 992.39
  A 0.82 0.81 -44.9 0 1 448.61 992.39
  L 376.02 885.84
  L 448.61 779.58
  A 0.84 0.84 0.0 0 1 450.00 779.57
  Q 480.15 823.07 505.50 860.49
  Q 505.67 860.74 509.62 866.84
  Q 512.98 872.01 518.04 878.47
  Q 520.48 881.58 522.40 886.81
  Z"
/>
<path fill="#e4c8fc" d="
  M 1254.00 835.23
  L 1254.00 943.90
  Q 1253.44 943.46 1253.25 943.75
  Q 1233.97 973.03 1213.59 1002.71
  A 0.14 0.14 0.0 0 1 1213.36 1002.71
  L 1142.77 898.73
  A 0.09 0.03 73.2 0 0 1142.75 898.70
  L 1136.93 890.99
  Q 1139.27 886.93 1140.89 884.63
  C 1165.48 849.86 1189.45 814.49 1213.92 779.75
  A 0.98 0.98 0.0 0 1 1215.53 779.76
  L 1254.00 835.23
  Z"
/>
<path fill="#e4c8fc" d="
  M 70.36 886.10
  Q 68.20 890.14 66.55 892.55
  Q 32.87 941.69 0.00 990.73
  L 0.00 784.23
  L 70.36 886.10
  Z"
/>
<path fill="#f8f2ea" d="
  M 70.36 886.10
  L 144.86 994.06
  A 1.28 1.28 0.0 0 1 144.86 995.50
  L 66.30 1110.30
  Q 65.58 1110.35 65.43 1110.14
  Q 32.61 1062.06 0.00 1014.28
  L 0.00 990.73
  Q 32.87 941.69 66.55 892.55
  Q 68.20 890.14 70.36 886.10
  Z"
/>
<path fill="#f8f2ea" d="
  M 374.63 887.89
  L 447.45 994.66
  A 0.88 0.88 0.0 0 1 447.45 995.64
  L 369.61 1109.86
  L 297.33 1004.11
  A 0.78 0.78 0.0 0 0 296.03 1004.11
  L 225.04 1108.52
  L 148.65 995.82
  A 1.76 1.75 45.4 0 1 148.66 993.83
  L 220.33 890.10
  Q 226.15 897.28 231.19 904.93
  Q 236.08 912.35 237.09 913.84
  Q 266.06 956.56 296.59 1001.96
  A 0.25 0.25 0.0 0 0 297.01 1001.96
  L 374.63 887.89
  Z"
/>
<path fill="#f8f2ea" d="
  M 523.81 888.56
  Q 526.44 891.95 529.02 895.28
  Q 532.26 899.47 533.95 902.20
  C 540.92 913.47 546.91 921.56 556.18 935.24
  Q 578.87 968.74 601.36 1002.28
  A 0.37 0.37 0.0 0 0 601.98 1002.28
  L 679.35 888.14
  Q 705.45 926.33 730.75 962.99
  Q 740.10 976.54 745.97 985.49
  C 748.43 989.23 750.61 991.79 753.62 996.00
  A 1.44 1.42 -45.7 0 1 753.63 997.64
  L 675.50 1111.35
  L 602.14 1004.03
  A 0.61 0.61 0.0 0 0 601.14 1004.03
  L 528.58 1109.94
  L 450.92 995.84
  A 0.85 0.84 -44.7 0 1 450.93 994.90
  L 523.81 888.56
  Z"
/>
<path fill="#f8f2ea" d="
  M 983.77 888.93
  L 1058.84 998.32
  A 0.71 0.71 0.0 0 1 1058.84 999.14
  L 981.57 1111.67
  Q 980.08 1111.08 979.08 1109.31
  Q 977.54 1106.60 977.48 1106.51
  Q 939.94 1052.58 907.21 1004.10
  A 0.44 0.43 -44.5 0 0 906.49 1004.10
  L 833.59 1110.17
  Q 832.20 1107.80 830.89 1105.90
  Q 813.13 1080.31 794.62 1053.09
  Q 792.78 1050.39 791.62 1048.64
  Q 788.68 1044.22 776.59 1026.61
  C 769.79 1016.71 763.33 1006.13 756.58 997.70
  A 0.93 0.93 0.0 0 1 756.54 996.59
  L 830.37 889.43
  L 906.36 1001.96
  A 0.50 0.50 0.0 0 0 907.19 1001.96
  L 983.77 888.93
  Z"
/>
<path fill="#f8f2ea" d="
  M 1136.93 890.99
  L 1142.75 898.70
  A 0.09 0.03 73.2 0 1 1142.77 898.73
  L 1213.36 1002.71
  A 0.14 0.14 0.0 0 0 1213.59 1002.71
  Q 1233.97 973.03 1253.25 943.75
  Q 1253.44 943.46 1254.00 943.90
  L 1254.00 1061.73
  L 1253.84 1062.07
  A 0.52 0.52 0.0 0 1 1252.94 1062.14
  L 1213.85 1004.55
  A 0.72 0.72 0.0 0 0 1212.67 1004.55
  L 1139.14 1111.31
  L 1062.11 999.33
  A 1.02 1.01 -44.8 0 1 1062.12 998.17
  L 1136.93 890.99
  Z"
/>
<path fill="#f8f2ea" d="
  M 223.63 1111.04
  Q 185.17 1166.39 147.66 1221.90
  Q 146.32 1223.88 145.26 1225.85
  A 0.48 0.47 42.1 0 1 144.45 1225.89
  Q 107.14 1170.94 67.80 1113.68
  Q 67.78 1113.65 67.57 1113.45
  Q 67.28 1113.16 67.35 1112.44
  L 146.09 997.77
  A 0.63 0.63 0.0 0 1 147.16 997.81
  Q 149.28 1001.54 151.75 1004.37
  A 3.75 3.31 14.9 0 1 152.19 1005.03
  Q 153.27 1007.14 160.31 1017.45
  Q 180.07 1046.42 199.86 1075.38
  Q 212.35 1093.65 223.63 1111.04
  Z"
/>
<path fill="#f8f2ea" d="
  M 526.74 1111.75
  Q 525.48 1115.13 523.72 1117.48
  C 519.65 1122.94 515.59 1129.20 512.64 1133.45
  Q 480.86 1179.28 449.67 1225.78
  A 0.39 0.39 0.0 0 1 449.02 1225.78
  L 370.88 1111.93
  L 448.36 998.37
  A 0.88 0.83 29.4 0 1 449.44 998.10
  Q 449.53 998.14 449.87 998.63
  Q 479.71 1042.10 499.98 1071.76
  Q 513.54 1091.60 526.74 1111.75
  Z"
/>
<path fill="#f8f2ea" d="
  M 832.30 1112.43
  L 754.53 1226.23
  A 0.73 0.71 -45.2 0 0 754.52 1227.04
  L 772.74 1254.00
  L 735.84 1254.00
  L 753.78 1227.30
  A 1.37 1.36 -45.5 0 0 753.77 1225.75
  L 676.85 1113.42
  Q 704.85 1071.96 734.28 1029.54
  C 737.81 1024.46 743.87 1014.81 749.01 1007.83
  Q 752.39 1003.24 754.12 999.80
  A 0.96 0.95 -45.5 0 1 755.82 999.78
  Q 758.31 1004.53 761.40 1008.11
  A 0.28 0.10 70.7 0 1 761.44 1008.16
  L 832.30 1112.43
  Z"
/>
<path fill="#f8f2ea" d="
  M 1137.87 1113.24
  L 1060.26 1226.23
  A 0.76 0.75 -45.5 0 0 1060.26 1227.08
  L 1078.52 1254.00
  L 1041.46 1254.00
  L 1059.40 1226.84
  A 0.61 0.61 0.0 0 0 1059.40 1226.16
  Q 1014.90 1160.93 990.36 1125.51
  Q 989.02 1123.58 985.42 1117.90
  C 984.68 1116.75 984.05 1115.56 982.67 1114.95
  Q 982.26 1114.76 982.15 1114.17
  L 1060.17 1001.31
  A 0.54 0.54 0.0 0 1 1061.06 1001.31
  L 1137.87 1113.24
  Z"
/>
<path fill="#e4c8fc" d="
  M 369.61 1109.86
  L 298.16 1215.92
  A 0.76 0.75 45.2 0 1 296.90 1215.91
  L 225.04 1108.52
  L 296.03 1004.11
  A 0.78 0.78 0.0 0 1 297.33 1004.11
  L 369.61 1109.86
  Z"
/>
<path fill="#e4c8fc" d="
  M 675.50 1111.35
  L 602.61 1218.47
  A 0.67 0.66 45.1 0 1 601.50 1218.46
  L 528.58 1109.94
  L 601.14 1004.03
  A 0.61 0.61 0.0 0 1 602.14 1004.03
  L 675.50 1111.35
  Z"
/>
<path fill="#e4c8fc" d="
  M 981.57 1111.67
  Q 979.45 1115.19 976.79 1118.99
  Q 941.28 1169.80 925.15 1193.55
  C 921.53 1198.88 918.73 1203.89 915.41 1208.15
  C 912.94 1211.32 910.97 1214.91 908.31 1218.88
  A 1.07 1.07 0.0 0 1 906.52 1218.86
  Q 897.86 1205.32 895.10 1201.19
  Q 864.51 1155.26 833.59 1110.17
  L 906.49 1004.10
  A 0.44 0.43 -44.5 0 1 907.21 1004.10
  Q 939.94 1052.58 977.48 1106.51
  Q 977.54 1106.60 979.08 1109.31
  Q 980.08 1111.08 981.57 1111.67
  Z"
/>
<path fill="#e4c8fc" d="
  M 1254.00 1061.73
  L 1254.00 1165.98
  Q 1251.02 1169.33 1248.64 1172.93
  Q 1244.10 1179.80 1244.07 1179.84
  Q 1229.49 1200.30 1215.49 1220.96
  A 0.67 0.66 44.6 0 1 1214.39 1220.96
  L 1139.14 1111.31
  L 1212.67 1004.55
  A 0.72 0.72 0.0 0 1 1213.85 1004.55
  L 1252.94 1062.14
  A 0.52 0.52 0.0 0 0 1253.84 1062.07
  L 1254.00 1061.73
  Z"
/>
<path fill="#e4c8fc" d="
  M 66.30 1110.30
  L 0.00 1207.33
  L 0.00 1014.28
  Q 32.61 1062.06 65.43 1110.14
  Q 65.58 1110.35 66.30 1110.30
  Z"
/>
<path fill="#e4c8fc" d="
  M 272.83 1254.00
  L 163.00 1254.00
  L 145.07 1226.86
  A 0.42 0.41 -44.7 0 0 144.38 1226.86
  L 126.23 1254.00
  L 18.48 1254.00
  Q 9.98 1239.83 0.00 1226.11
  L 0.00 1210.36
  Q 0.22 1210.44 0.41 1210.42
  Q 0.59 1210.40 0.73 1210.20
  Q 34.03 1161.32 67.35 1112.44
  Q 67.28 1113.16 67.57 1113.45
  Q 67.78 1113.65 67.80 1113.68
  Q 107.14 1170.94 144.45 1225.89
  A 0.48 0.47 42.1 0 0 145.26 1225.85
  Q 146.32 1223.88 147.66 1221.90
  Q 185.17 1166.39 223.63 1111.04
  L 296.10 1217.91
  A 0.87 0.87 0.0 0 1 296.11 1218.88
  L 272.83 1254.00
  Z"
/>
<path fill="#e4c8fc" d="
  M 370.88 1111.93
  L 449.02 1225.78
  A 0.39 0.39 0.0 0 0 449.67 1225.78
  Q 480.86 1179.28 512.64 1133.45
  C 515.59 1129.20 519.65 1122.94 523.72 1117.48
  Q 525.48 1115.13 526.74 1111.75
  Q 528.64 1113.66 530.20 1116.05
  Q 541.31 1133.06 552.85 1150.11
  Q 554.53 1152.60 600.48 1220.41
  A 0.94 0.93 -45.4 0 1 600.48 1221.44
  L 578.94 1254.00
  L 467.60 1254.00
  L 449.60 1227.05
  A 0.33 0.33 0.0 0 0 449.04 1227.05
  L 431.06 1254.00
  L 322.06 1254.00
  Q 318.29 1247.10 313.91 1240.85
  Q 306.27 1229.97 299.16 1218.72
  A 0.56 0.55 -44.5 0 1 299.17 1218.12
  L 370.88 1111.93
  Z"
/>
<path fill="#e4c8fc" d="
  M 884.11 1254.00
  L 772.74 1254.00
  L 754.52 1227.04
  A 0.73 0.71 -45.2 0 1 754.53 1226.23
  L 832.30 1112.43
  L 905.97 1220.77
  A 0.94 0.94 0.0 0 1 905.97 1221.83
  L 884.11 1254.00
  Z"
/>
<path fill="#e4c8fc" d="
  M 1192.86 1254.00
  L 1078.52 1254.00
  L 1060.26 1227.08
  A 0.76 0.75 -45.5 0 1 1060.26 1226.23
  L 1137.87 1113.24
  L 1213.31 1223.10
  A 0.42 0.42 0.0 0 1 1213.31 1223.56
  L 1192.86 1254.00
  Z"
/>
<path fill="#e4c8fc" d="
  M 676.85 1113.42
  L 753.77 1225.75
  A 1.37 1.36 -45.5 0 1 753.78 1227.30
  L 735.84 1254.00
  L 625.31 1254.00
  L 603.89 1221.51
  A 0.74 0.73 -44.7 0 1 603.90 1220.69
  L 676.85 1113.42
  Z"
/>
<path fill="#e4c8fc" d="
  M 982.15 1114.17
  Q 982.26 1114.76 982.67 1114.95
  C 984.05 1115.56 984.68 1116.75 985.42 1117.90
  Q 989.02 1123.58 990.36 1125.51
  Q 1014.90 1160.93 1059.40 1226.16
  A 0.61 0.61 0.0 0 1 1059.40 1226.84
  L 1041.46 1254.00
  L 930.38 1254.00
  L 909.26 1221.98
  A 1.21 1.20 -44.8 0 1 909.27 1220.62
  L 982.15 1114.17
  Z"
/>
<path fill="#e4c8fc" d="
  M 1254.00 1169.36
  L 1254.00 1254.00
  L 1236.35 1254.00
  Q 1236.80 1253.61 1236.63 1253.35
  Q 1226.75 1238.77 1216.69 1224.08
  A 0.93 0.92 -44.7 0 1 1216.70 1223.04
  L 1254.00 1169.36
  Z"
/>
<path fill="#e4c8fc" d="
  M 320.16 1254.00
  L 275.07 1254.00
  L 296.90 1220.85
  A 0.67 0.66 44.8 0 1 298.01 1220.85
  L 320.16 1254.00
  Z"
/>
<path fill="#e4c8fc" d="
  M 927.93 1254.00
  L 886.67 1254.00
  L 906.35 1224.28
  A 1.19 1.19 0.0 0 1 908.33 1224.28
  L 927.93 1254.00
  Z"
/>
<path fill="#e4c8fc" d="
  M 622.92 1254.00
  L 581.29 1254.00
  L 601.51 1224.23
  A 0.63 0.63 0.0 0 1 602.55 1224.23
  L 622.92 1254.00
  Z"
/>
<path fill="#e4c8fc" d="
  M 1234.70 1254.00
  L 1195.20 1254.00
  L 1214.36 1226.30
  A 0.67 0.66 -45.1 0 1 1215.45 1226.29
  L 1234.70 1254.00
  Z"
/>
<path fill="#a66fdd" d="
  M 18.48 1254.00
  L 16.22 1254.00
  L 0.00 1229.78
  L 0.00 1226.11
  Q 9.98 1239.83 18.48 1254.00
  Z"
/>
<path fill="#f8f2ea" d="
  M 467.60 1254.00
  L 431.06 1254.00
  L 449.04 1227.05
  A 0.33 0.33 0.0 0 1 449.60 1227.05
  L 467.60 1254.00
  Z"
/>
<path fill="#f8f2ea" d="
  M 163.00 1254.00
  L 126.23 1254.00
  L 144.38 1226.86
  A 0.42 0.41 -44.7 0 1 145.07 1226.86
  L 163.00 1254.00
  Z"
/>
<path fill="#e4c8fc" d="
  M 16.22 1254.00
  L 0.00 1254.00
  L 0.00 1229.78
  L 16.22 1254.00
  Z"
/>
</svg>
