<?xml version="1.0" encoding="UTF-8" standalone="no"?>
<!DOCTYPE svg PUBLIC "-//W3C//DTD SVG 1.1//EN" "http://www.w3.org/Graphics/SVG/1.1/DTD/svg11.dtd">
<svg xmlns="http://www.w3.org/2000/svg" version="1.1" viewBox="0.00 0.00 1254.00 1254.00">
<g stroke-width="2.00" fill="none" stroke-linecap="butt">
<path stroke="#ecd8f2" vector-effect="non-scaling-stroke" d="
  M 12.17 0.00
  Q 16.40 8.40 15.21 17.48
  Q 13.54 30.29 0.99 33.91
  A 0.40 0.31 38.0 0 1 0.82 33.91
  Q 0.22 33.77 0.00 32.62"
/>
<path stroke="#ecd8f2" vector-effect="non-scaling-stroke" d="
  M 305.53 0.00
  Q 302.48 5.31 299.10 14.79
  C 295.79 24.07 295.35 33.02 301.37 40.93
  C 306.21 47.27 315.48 48.71 322.11 44.64
  C 330.02 39.78 332.33 29.10 330.21 20.50
  Q 327.60 9.90 321.94 0.00"
/>
<path stroke="#ecd8f2" vector-effect="non-scaling-stroke" d="
  M 653.24 0.00
  Q 648.07 10.08 650.78 20.97
  C 652.91 29.57 661.57 35.81 670.38 33.68
  C 677.12 32.05 681.33 27.67 683.21 20.77
  Q 686.15 10.01 680.65 0.00"
/>
<path stroke="#ecd8f2" vector-effect="non-scaling-stroke" d="
  M 980.18 0.00
  Q 974.02 10.97 973.24 20.71
  Q 972.58 28.96 976.72 35.27
  C 981.75 42.94 991.68 45.25 999.37 40.13
  C 1010.37 32.82 1008.35 18.78 1004.33 8.01
  Q 1002.72 3.71 1000.44 0.00"
/>
<path stroke="#ecd8f2" vector-effect="non-scaling-stroke" d="
  M 1240.55 0.00
  Q 1238.05 5.47 1237.45 13.00
  Q 1236.83 20.65 1240.54 26.48
  Q 1245.47 34.24 1254.00 33.69"
/>
<path stroke="#ecd8f2" vector-effect="non-scaling-stroke" d="
  M 1254.00 857.62
  C 1251.38 850.89 1248.09 844.93 1244.78 838.52
  C 1243.79 836.61 1241.54 836.43 1240.27 838.05
  Q 1238.21 840.67 1237.31 842.80
  C 1235.29 847.62 1230.68 855.77 1228.73 861.89
  C 1225.54 871.95 1222.40 883.96 1230.79 892.58
  C 1237.03 898.99 1248.20 899.25 1254.00 892.16"
/>
<path stroke="#ecd8f2" vector-effect="non-scaling-stroke" d="
  M 0.00 891.50
  L 0.13 891.78
  A 0.55 0.55 0.0 0 0 1.03 891.93
  C 8.20 884.39 7.38 872.53 3.55 863.40
  Q 1.90 859.48 0.92 856.90
  A 0.31 0.31 0.0 0 0 0.33 856.98
  L 0.00 860.25"
/>
<path stroke="#ecd8f2" vector-effect="non-scaling-stroke" d="
  M 859.49 120.14
  Q 865.50 120.13 869.91 116.30
  C 878.08 109.20 877.67 97.40 874.07 87.72
  Q 869.08 74.28 862.14 61.77
  Q 861.09 59.88 859.40 59.88
  Q 857.73 59.88 856.69 61.77
  Q 849.78 74.30 844.83 87.76
  C 841.25 97.45 840.87 109.24 849.05 116.32
  Q 853.47 120.15 859.49 120.14"
/>
<path stroke="#ecd8f2" vector-effect="non-scaling-stroke" d="
  M 542.26 140.00
  Q 548.27 139.99 552.67 136.16
  C 560.82 129.06 560.41 117.29 556.81 107.62
  Q 551.82 94.19 544.89 81.70
  Q 543.84 79.81 542.17 79.81
  Q 540.49 79.82 539.45 81.71
  Q 532.55 94.22 527.61 107.66
  C 524.04 117.34 523.66 129.12 531.84 136.19
  Q 536.25 140.01 542.26 140.00"
/>
<path stroke="#ecd8f2" vector-effect="non-scaling-stroke" d="
  M 170.12 146.39
  Q 176.14 146.40 180.55 142.57
  C 188.73 135.47 188.34 123.68 184.76 113.99
  Q 179.79 100.53 172.87 88.01
  Q 171.83 86.12 170.14 86.12
  Q 168.47 86.11 167.42 88.01
  Q 160.49 100.53 155.51 113.98
  C 151.92 123.66 151.52 135.46 159.69 142.56
  Q 164.10 146.39 170.12 146.39"
/>
<path stroke="#ecd8f2" vector-effect="non-scaling-stroke" d="
  M 1158.48 164.13
  Q 1164.50 164.13 1168.92 160.29
  C 1177.11 153.19 1176.71 141.38 1173.12 131.68
  Q 1168.13 118.21 1161.20 105.68
  Q 1160.15 103.78 1158.46 103.78
  Q 1156.79 103.78 1155.74 105.68
  Q 1148.82 118.22 1143.84 131.68
  C 1140.24 141.38 1139.85 153.19 1148.04 160.29
  Q 1152.46 164.13 1158.48 164.13"
/>
<path stroke="#ecd8f2" vector-effect="non-scaling-stroke" d="
  M 378.60 241.66
  Q 384.62 241.68 389.05 237.86
  C 397.25 230.78 396.89 218.98 393.32 209.27
  Q 388.38 195.79 381.49 183.24
  Q 380.45 181.34 378.77 181.34
  Q 377.08 181.34 376.03 183.23
  Q 369.07 195.74 364.05 209.19
  C 360.43 218.87 360.01 230.68 368.17 237.80
  Q 372.58 241.65 378.60 241.66"
/>
<path stroke="#ecd8f2" vector-effect="non-scaling-stroke" d="
  M 702.40 267.26
  Q 708.43 267.25 712.84 263.40
  C 721.02 256.27 720.60 244.45 716.98 234.75
  Q 711.96 221.28 704.99 208.75
  Q 703.94 206.85 702.25 206.86
  Q 700.57 206.86 699.53 208.76
  Q 692.62 221.33 687.67 234.82
  C 684.09 244.54 683.73 256.36 691.94 263.45
  Q 696.37 267.28 702.40 267.26"
/>
<path stroke="#ecd8f2" vector-effect="non-scaling-stroke" d="
  M 1016.92 267.87
  Q 1022.93 267.86 1027.33 264.02
  C 1035.50 256.92 1035.08 245.14 1031.49 235.46
  Q 1026.49 222.03 1019.56 209.52
  Q 1018.51 207.63 1016.83 207.64
  Q 1015.16 207.64 1014.11 209.53
  Q 1007.21 222.05 1002.26 235.50
  C 998.69 245.19 998.31 256.97 1006.49 264.05
  Q 1010.90 267.87 1016.92 267.87"
/>
<path stroke="#ecd8f2" vector-effect="non-scaling-stroke" d="
  M 72.82 284.48
  Q 78.84 284.46 83.24 280.61
  C 91.40 273.49 90.97 261.69 87.35 252.00
  Q 82.33 238.56 75.37 226.05
  Q 74.31 224.16 72.64 224.17
  Q 70.95 224.17 69.91 226.07
  Q 63.03 238.62 58.09 252.09
  C 54.53 261.80 54.17 273.60 62.37 280.67
  Q 66.80 284.49 72.82 284.48"
/>
<path stroke="#ecd8f2" vector-effect="non-scaling-stroke" d="
  M 533.75 381.06
  Q 539.74 381.05 544.12 377.23
  C 552.23 370.16 551.81 358.43 548.22 348.81
  Q 543.24 335.44 536.33 323.01
  Q 535.28 321.13 533.62 321.13
  Q 531.94 321.14 530.91 323.02
  Q 524.05 335.49 519.14 348.88
  C 515.59 358.52 515.23 370.25 523.38 377.28
  Q 527.77 381.08 533.75 381.06"
/>
<path stroke="#ecd8f2" vector-effect="non-scaling-stroke" d="
  M 1180.60 392.66
  Q 1186.63 392.65 1191.05 388.81
  C 1199.23 381.68 1198.82 369.86 1195.20 360.15
  Q 1190.19 346.67 1183.23 334.13
  Q 1182.18 332.23 1180.49 332.24
  Q 1178.81 332.24 1177.77 334.14
  Q 1170.85 346.70 1165.88 360.20
  C 1162.30 369.92 1161.93 381.74 1170.13 388.84
  Q 1174.57 392.67 1180.60 392.66"
/>
<path stroke="#ecd8f2" vector-effect="non-scaling-stroke" d="
  M 250.62 393.16
  Q 256.63 393.17 261.05 389.35
  C 269.24 382.28 268.88 370.49 265.31 360.80
  Q 260.37 347.34 253.48 334.81
  Q 252.44 332.91 250.77 332.91
  Q 249.08 332.90 248.03 334.79
  Q 241.08 347.29 236.08 360.73
  C 232.47 370.40 232.04 382.19 240.20 389.30
  Q 244.60 393.14 250.62 393.16"
/>
<path stroke="#ecd8f2" vector-effect="non-scaling-stroke" d="
  M 894.39 393.18
  Q 900.41 393.18 904.81 389.34
  C 912.98 382.23 912.57 370.44 908.97 360.75
  Q 903.97 347.31 897.03 334.80
  Q 895.98 332.90 894.31 332.91
  Q 892.62 332.91 891.58 334.80
  Q 884.68 347.33 879.72 360.80
  C 876.14 370.49 875.77 382.28 883.95 389.37
  Q 888.37 393.19 894.39 393.18"
/>
<path stroke="#ecd8f2" vector-effect="non-scaling-stroke" d="
  M 733.01 510.73
  Q 739.02 510.72 743.44 506.89
  C 751.61 499.79 751.21 488.00 747.62 478.31
  Q 742.64 464.86 735.71 452.34
  Q 734.66 450.45 732.99 450.45
  Q 731.30 450.45 730.26 452.34
  Q 723.34 464.87 718.37 478.33
  C 714.78 488.01 714.39 499.81 722.57 506.90
  Q 726.99 510.73 733.01 510.73"
/>
<path stroke="#ecd8f2" vector-effect="non-scaling-stroke" d="
  M 102.38 521.70
  Q 108.39 521.70 112.79 517.86
  C 120.95 510.77 120.54 498.99 116.95 489.32
  Q 111.96 475.88 105.03 463.38
  Q 103.99 461.49 102.32 461.50
  Q 100.63 461.50 99.59 463.39
  Q 92.69 475.91 87.73 489.35
  C 84.16 499.03 83.78 510.81 91.96 517.89
  Q 96.37 521.71 102.38 521.70"
/>
<path stroke="#ecd8f2" vector-effect="non-scaling-stroke" d="
  M 397.24 533.03
  Q 403.24 533.00 407.63 529.16
  C 415.76 522.03 415.31 510.26 411.68 500.61
  Q 406.64 487.20 399.67 474.73
  Q 398.62 472.85 396.93 472.86
  Q 395.26 472.86 394.23 474.76
  Q 387.38 487.30 382.48 500.75
  C 378.94 510.44 378.61 522.22 386.80 529.26
  Q 391.23 533.06 397.24 533.03"
/>
<path stroke="#ecd8f2" vector-effect="non-scaling-stroke" d="
  M 1027.89 535.07
  Q 1033.89 535.04 1038.27 531.20
  C 1046.38 524.10 1045.94 512.35 1042.32 502.71
  Q 1037.30 489.33 1030.34 476.88
  Q 1029.29 475.00 1027.61 475.01
  Q 1025.94 475.01 1024.91 476.91
  Q 1018.07 489.41 1013.17 502.84
  C 1009.64 512.51 1009.30 524.27 1017.48 531.30
  Q 1021.90 535.09 1027.89 535.07"
/>
<path stroke="#ecd8f2" vector-effect="non-scaling-stroke" d="
  M 582.92 611.92
  Q 588.93 611.92 593.34 608.08
  C 601.51 600.99 601.11 589.20 597.51 579.52
  Q 592.53 566.07 585.60 553.56
  Q 584.55 551.66 582.87 551.67
  Q 581.19 551.67 580.15 553.56
  Q 573.24 566.08 568.27 579.54
  C 564.69 589.22 564.31 601.01 572.48 608.10
  Q 576.90 611.93 582.92 611.92"
/>
<path stroke="#ecd8f2" vector-effect="non-scaling-stroke" d="
  M 1192.96 643.18
  Q 1198.98 643.18 1203.40 639.34
  C 1211.58 632.24 1211.18 620.43 1207.59 610.74
  Q 1202.60 597.27 1195.66 584.74
  Q 1194.62 582.85 1192.93 582.85
  Q 1191.25 582.85 1190.21 584.74
  Q 1183.28 597.28 1178.31 610.75
  C 1174.72 620.45 1174.33 632.26 1182.52 639.35
  Q 1186.94 643.19 1192.96 643.18"
/>
<path stroke="#ecd8f2" vector-effect="non-scaling-stroke" d="
  M 893.48 644.62
  Q 899.51 644.64 903.95 640.82
  C 912.17 633.74 911.82 621.92 908.26 612.20
  Q 903.32 598.70 896.43 586.13
  Q 895.39 584.23 893.72 584.22
  Q 892.03 584.21 890.97 586.11
  Q 883.99 598.63 878.95 612.09
  C 875.32 621.78 874.88 633.60 883.04 640.74
  Q 887.45 644.59 893.48 644.62"
/>
<path stroke="#ecd8f2" vector-effect="non-scaling-stroke" d="
  M 250.33 653.71
  Q 256.32 653.73 260.72 649.93
  C 268.88 642.89 268.52 631.15 264.98 621.50
  Q 260.07 608.10 253.21 595.61
  Q 252.18 593.73 250.50 593.72
  Q 248.83 593.72 247.79 595.60
  Q 240.86 608.04 235.87 621.42
  C 232.27 631.05 231.84 642.78 239.96 649.87
  Q 244.34 653.70 250.33 653.71"
/>
<path stroke="#ecd8f2" vector-effect="non-scaling-stroke" d="
  M 445.24 753.19
  Q 451.24 753.18 455.64 749.35
  C 463.79 742.27 463.39 730.51 459.80 720.85
  Q 454.82 707.44 447.91 694.96
  Q 446.86 693.07 445.18 693.07
  Q 443.51 693.07 442.47 694.96
  Q 435.58 707.46 430.63 720.88
  C 427.06 730.54 426.68 742.31 434.84 749.37
  Q 439.24 753.19 445.24 753.19"
/>
<path stroke="#ecd8f2" vector-effect="non-scaling-stroke" d="
  M 746.48 696.43
  C 745.21 694.22 742.85 693.71 741.37 696.15
  Q 733.09 709.86 727.98 726.05
  Q 725.51 733.84 728.08 743.23
  Q 730.57 752.29 738.19 753.82
  C 743.94 754.97 750.00 754.92 754.36 750.49
  Q 761.94 742.82 760.61 733.07
  C 760.07 729.07 759.23 724.41 757.77 720.21
  C 756.31 715.97 753.27 711.41 751.37 706.73
  Q 748.91 700.68 746.48 696.43"
/>
<path stroke="#ecd8f2" vector-effect="non-scaling-stroke" d="
  M 120.77 760.22
  Q 126.79 760.22 131.20 756.39
  C 139.39 749.29 139.00 737.49 135.41 727.79
  Q 130.43 714.33 123.51 701.79
  Q 122.46 699.90 120.77 699.90
  Q 119.10 699.90 118.05 701.79
  Q 111.12 714.32 106.14 727.78
  C 102.54 737.48 102.15 749.28 110.33 756.38
  Q 114.74 760.22 120.77 760.22"
/>
<path stroke="#ecd8f2" vector-effect="non-scaling-stroke" d="
  M 1064.91 767.20
  Q 1070.93 767.18 1075.33 763.34
  C 1083.49 756.23 1083.08 744.43 1079.47 734.75
  Q 1074.46 721.31 1067.51 708.80
  Q 1066.46 706.91 1064.77 706.91
  Q 1063.10 706.91 1062.06 708.81
  Q 1055.16 721.35 1050.21 734.81
  C 1046.64 744.51 1046.27 756.31 1054.47 763.39
  Q 1058.89 767.21 1064.91 767.20"
/>
<path stroke="#ecd8f2" vector-effect="non-scaling-stroke" d="
  M 612.74 875.36
  Q 618.77 875.36 623.19 871.53
  C 631.39 864.42 630.99 852.60 627.40 842.89
  Q 622.42 829.41 615.49 816.86
  Q 614.44 814.97 612.75 814.97
  Q 611.07 814.97 610.03 816.86
  Q 603.09 829.41 598.10 842.89
  C 594.50 852.59 594.10 864.41 602.29 871.52
  Q 606.71 875.36 612.74 875.36"
/>
<path stroke="#ecd8f2" vector-effect="non-scaling-stroke" d="
  M 922.09 882.58
  Q 928.12 882.59 932.55 878.75
  C 940.76 871.65 940.39 859.82 936.80 850.10
  Q 931.83 836.61 924.91 824.04
  Q 923.87 822.14 922.18 822.14
  Q 920.50 822.13 919.45 824.03
  Q 912.49 836.58 907.48 850.06
  C 903.86 859.77 903.45 871.59 911.63 878.72
  Q 916.05 882.57 922.09 882.58"
/>
<path stroke="#ecd8f2" vector-effect="non-scaling-stroke" d="
  M 300.53 884.45
  Q 306.53 884.45 310.94 880.63
  C 319.10 873.56 318.72 861.79 315.15 852.11
  Q 310.19 838.68 303.29 826.18
  Q 302.25 824.29 300.57 824.29
  Q 298.90 824.28 297.85 826.17
  Q 290.93 838.67 285.96 852.09
  C 282.37 861.76 281.96 873.53 290.12 880.61
  Q 294.52 884.44 300.53 884.45"
/>
<path stroke="#ecd8f2" vector-effect="non-scaling-stroke" d="
  M 484.95 1002.06
  Q 490.98 1002.06 495.40 998.23
  C 503.59 991.13 503.21 979.32 499.62 969.61
  Q 494.65 956.14 487.72 943.59
  Q 486.68 941.70 484.99 941.70
  Q 483.31 941.70 482.26 943.59
  Q 475.32 956.13 470.33 969.59
  C 466.73 979.29 466.33 991.10 474.51 998.21
  Q 478.93 1002.05 484.95 1002.06"
/>
<path stroke="#ecd8f2" vector-effect="non-scaling-stroke" d="
  M 781.11 1002.06
  Q 787.13 1002.08 791.55 998.26
  C 799.74 991.19 799.37 979.40 795.81 969.71
  Q 790.87 956.25 783.98 943.72
  Q 782.94 941.82 781.27 941.82
  Q 779.58 941.82 778.53 943.71
  Q 771.58 956.20 766.58 969.64
  C 762.96 979.31 762.54 991.10 770.70 998.21
  Q 775.10 1002.05 781.11 1002.06"
/>
<path stroke="#ecd8f2" vector-effect="non-scaling-stroke" d="
  M 1105.61 1005.06
  Q 1111.62 1005.06 1116.02 1001.23
  C 1124.19 994.15 1123.79 982.37 1120.21 972.69
  Q 1115.23 959.26 1108.32 946.75
  Q 1107.27 944.86 1105.59 944.86
  Q 1103.92 944.86 1102.87 946.75
  Q 1095.96 959.26 1091.00 972.70
  C 1087.41 982.38 1087.02 994.15 1095.19 1001.24
  Q 1099.60 1005.06 1105.61 1005.06"
/>
<path stroke="#ecd8f2" vector-effect="non-scaling-stroke" d="
  M 174.83 1012.55
  Q 180.81 1012.55 185.19 1008.74
  C 193.30 1001.68 192.90 989.96 189.32 980.34
  Q 184.37 966.97 177.48 954.54
  Q 176.43 952.66 174.76 952.66
  Q 173.10 952.66 172.06 954.54
  Q 165.19 966.99 160.26 980.37
  C 156.71 990.00 156.33 1001.72 164.46 1008.76
  Q 168.85 1012.56 174.83 1012.55"
/>
<path stroke="#ecd8f2" vector-effect="non-scaling-stroke" d="
  M 332.91 1116.51
  Q 338.93 1116.51 343.35 1112.68
  C 351.54 1105.58 351.15 1093.77 347.56 1084.07
  Q 342.58 1070.60 335.66 1058.06
  Q 334.61 1056.16 332.92 1056.16
  Q 331.25 1056.16 330.20 1058.06
  Q 323.26 1070.59 318.28 1084.06
  C 314.68 1093.76 314.28 1105.56 322.46 1112.67
  Q 326.88 1116.51 332.91 1116.51"
/>
<path stroke="#ecd8f2" vector-effect="non-scaling-stroke" d="
  M 961.46 1120.29
  Q 967.47 1120.28 971.87 1116.44
  C 980.02 1109.35 979.60 1097.58 976.00 1087.91
  Q 971.01 1074.50 964.08 1062.01
  Q 963.04 1060.12 961.35 1060.12
  Q 959.68 1060.13 958.64 1062.02
  Q 951.75 1074.53 946.81 1087.97
  C 943.25 1097.64 942.87 1109.41 951.05 1116.48
  Q 955.46 1120.30 961.46 1120.29"
/>
<path stroke="#ecd8f2" vector-effect="non-scaling-stroke" d="
  M 638.86 1126.39
  Q 644.88 1126.38 649.28 1122.55
  C 657.44 1115.44 657.03 1103.66 653.43 1093.98
  Q 648.44 1080.54 641.50 1068.03
  Q 640.45 1066.14 638.76 1066.14
  Q 637.09 1066.15 636.05 1068.04
  Q 629.15 1080.57 624.20 1094.02
  C 620.62 1103.71 620.25 1115.50 628.43 1122.58
  Q 632.85 1126.40 638.86 1126.39"
/>
<path stroke="#ecd8f2" vector-effect="non-scaling-stroke" d="
  M 43.31 1141.96
  Q 49.32 1141.92 53.70 1138.07
  C 61.83 1130.95 61.37 1119.17 57.74 1109.52
  Q 52.70 1096.11 45.72 1083.64
  Q 44.67 1081.76 42.98 1081.77
  Q 41.31 1081.77 40.28 1083.67
  Q 33.43 1096.21 28.53 1109.67
  C 25.00 1119.36 24.67 1131.14 32.87 1138.18
  Q 37.30 1141.99 43.31 1141.96"
/>
<path stroke="#ecd8f2" vector-effect="non-scaling-stroke" d="
  M 1166.86 1219.43
  Q 1172.88 1219.44 1177.30 1215.62
  C 1185.50 1208.54 1185.13 1196.74 1181.56 1187.04
  Q 1176.61 1173.57 1169.71 1161.03
  Q 1168.67 1159.13 1166.98 1159.13
  Q 1165.31 1159.12 1164.26 1161.02
  Q 1157.31 1173.53 1152.30 1186.98
  C 1148.69 1196.66 1148.27 1208.46 1156.43 1215.58
  Q 1160.84 1219.42 1166.86 1219.43"
/>
<path stroke="#ecd8f2" vector-effect="non-scaling-stroke" d="
  M 203.74 1244.69
  Q 209.77 1244.70 214.20 1240.87
  C 222.40 1233.79 222.03 1221.97 218.46 1212.27
  Q 213.50 1198.78 206.59 1186.23
  Q 205.55 1184.33 203.88 1184.33
  Q 202.19 1184.33 201.14 1186.22
  Q 194.18 1198.74 189.17 1212.21
  C 185.55 1221.90 185.14 1233.71 193.31 1240.83
  Q 197.72 1244.68 203.74 1244.69"
/>
<path stroke="#ecd8f2" vector-effect="non-scaling-stroke" d="
  M 821.69 1244.66
  Q 827.71 1244.68 832.15 1240.86
  C 840.36 1233.79 840.01 1221.99 836.45 1212.28
  Q 831.52 1198.79 824.64 1186.23
  Q 823.60 1184.33 821.91 1184.32
  Q 820.24 1184.32 819.19 1186.21
  Q 812.21 1198.72 807.18 1212.16
  C 803.55 1221.85 803.11 1233.65 811.26 1240.78
  Q 815.67 1244.64 821.69 1244.66"
/>
<path stroke="#ecd8f2" vector-effect="non-scaling-stroke" d="
  M 503.73 1250.86
  Q 509.76 1250.86 514.17 1247.02
  C 522.35 1239.92 521.95 1228.12 518.35 1218.42
  Q 513.37 1204.96 506.43 1192.43
  Q 505.38 1190.54 503.71 1190.54
  Q 502.02 1190.54 500.98 1192.44
  Q 494.06 1204.97 489.08 1218.44
  C 485.50 1228.14 485.11 1239.94 493.30 1247.03
  Q 497.71 1250.86 503.73 1250.86"
/>
</g>
<path fill="#dcbbf9" d="
  M 12.17 0.00
  Q 16.40 8.40 15.21 17.48
  Q 13.54 30.29 0.99 33.91
  A 0.40 0.31 38.0 0 1 0.82 33.91
  Q 0.22 33.77 0.00 32.62
  L 0.00 0.00
  L 12.17 0.00
  Z"
/>
<path fill="#fcf4eb" d="
  M 305.53 0.00
  Q 302.48 5.31 299.10 14.79
  C 295.79 24.07 295.35 33.02 301.37 40.93
  C 306.21 47.27 315.48 48.71 322.11 44.64
  C 330.02 39.78 332.33 29.10 330.21 20.50
  Q 327.60 9.90 321.94 0.00
  L 653.24 0.00
  Q 648.07 10.08 650.78 20.97
  C 652.91 29.57 661.57 35.81 670.38 33.68
  C 677.12 32.05 681.33 27.67 683.21 20.77
  Q 686.15 10.01 680.65 0.00
  L 980.18 0.00
  Q 974.02 10.97 973.24 20.71
  Q 972.58 28.96 976.72 35.27
  C 981.75 42.94 991.68 45.25 999.37 40.13
  C 1010.37 32.82 1008.35 18.78 1004.33 8.01
  Q 1002.72 3.71 1000.44 0.00
  L 1240.55 0.00
  Q 1238.05 5.47 1237.45 13.00
  Q 1236.83 20.65 1240.54 26.48
  Q 1245.47 34.24 1254.00 33.69
  L 1254.00 857.62
  C 1251.38 850.89 1248.09 844.93 1244.78 838.52
  C 1243.79 836.61 1241.54 836.43 1240.27 838.05
  Q 1238.21 840.67 1237.31 842.80
  C 1235.29 847.62 1230.68 855.77 1228.73 861.89
  C 1225.54 871.95 1222.40 883.96 1230.79 892.58
  C 1237.03 898.99 1248.20 899.25 1254.00 892.16
  L 1254.00 1254.00
  L 0.00 1254.00
  L 0.00 891.50
  L 0.13 891.78
  A 0.55 0.55 0.0 0 0 1.03 891.93
  C 8.20 884.39 7.38 872.53 3.55 863.40
  Q 1.90 859.48 0.92 856.90
  A 0.31 0.31 0.0 0 0 0.33 856.98
  L 0.00 860.25
  L 0.00 32.62
  Q 0.22 33.77 0.82 33.91
  A 0.40 0.31 38.0 0 0 0.99 33.91
  Q 13.54 30.29 15.21 17.48
  Q 16.40 8.40 12.17 0.00
  L 305.53 0.00
  Z
  M 859.49 120.14
  Q 865.50 120.13 869.91 116.30
  C 878.08 109.20 877.67 97.40 874.07 87.72
  Q 869.08 74.28 862.14 61.77
  Q 861.09 59.88 859.40 59.88
  Q 857.73 59.88 856.69 61.77
  Q 849.78 74.30 844.83 87.76
  C 841.25 97.45 840.87 109.24 849.05 116.32
  Q 853.47 120.15 859.49 120.14
  Z
  M 542.26 140.00
  Q 548.27 139.99 552.67 136.16
  C 560.82 129.06 560.41 117.29 556.81 107.62
  Q 551.82 94.19 544.89 81.70
  Q 543.84 79.81 542.17 79.81
  Q 540.49 79.82 539.45 81.71
  Q 532.55 94.22 527.61 107.66
  C 524.04 117.34 523.66 129.12 531.84 136.19
  Q 536.25 140.01 542.26 140.00
  Z
  M 170.12 146.39
  Q 176.14 146.40 180.55 142.57
  C 188.73 135.47 188.34 123.68 184.76 113.99
  Q 179.79 100.53 172.87 88.01
  Q 171.83 86.12 170.14 86.12
  Q 168.47 86.11 167.42 88.01
  Q 160.49 100.53 155.51 113.98
  C 151.92 123.66 151.52 135.46 159.69 142.56
  Q 164.10 146.39 170.12 146.39
  Z
  M 1158.48 164.13
  Q 1164.50 164.13 1168.92 160.29
  C 1177.11 153.19 1176.71 141.38 1173.12 131.68
  Q 1168.13 118.21 1161.20 105.68
  Q 1160.15 103.78 1158.46 103.78
  Q 1156.79 103.78 1155.74 105.68
  Q 1148.82 118.22 1143.84 131.68
  C 1140.24 141.38 1139.85 153.19 1148.04 160.29
  Q 1152.46 164.13 1158.48 164.13
  Z
  M 378.60 241.66
  Q 384.62 241.68 389.05 237.86
  C 397.25 230.78 396.89 218.98 393.32 209.27
  Q 388.38 195.79 381.49 183.24
  Q 380.45 181.34 378.77 181.34
  Q 377.08 181.34 376.03 183.23
  Q 369.07 195.74 364.05 209.19
  C 360.43 218.87 360.01 230.68 368.17 237.80
  Q 372.58 241.65 378.60 241.66
  Z
  M 702.40 267.26
  Q 708.43 267.25 712.84 263.40
  C 721.02 256.27 720.60 244.45 716.98 234.75
  Q 711.96 221.28 704.99 208.75
  Q 703.94 206.85 702.25 206.86
  Q 700.57 206.86 699.53 208.76
  Q 692.62 221.33 687.67 234.82
  C 684.09 244.54 683.73 256.36 691.94 263.45
  Q 696.37 267.28 702.40 267.26
  Z
  M 1016.92 267.87
  Q 1022.93 267.86 1027.33 264.02
  C 1035.50 256.92 1035.08 245.14 1031.49 235.46
  Q 1026.49 222.03 1019.56 209.52
  Q 1018.51 207.63 1016.83 207.64
  Q 1015.16 207.64 1014.11 209.53
  Q 1007.21 222.05 1002.26 235.50
  C 998.69 245.19 998.31 256.97 1006.49 264.05
  Q 1010.90 267.87 1016.92 267.87
  Z
  M 72.82 284.48
  Q 78.84 284.46 83.24 280.61
  C 91.40 273.49 90.97 261.69 87.35 252.00
  Q 82.33 238.56 75.37 226.05
  Q 74.31 224.16 72.64 224.17
  Q 70.95 224.17 69.91 226.07
  Q 63.03 238.62 58.09 252.09
  C 54.53 261.80 54.17 273.60 62.37 280.67
  Q 66.80 284.49 72.82 284.48
  Z
  M 533.75 381.06
  Q 539.74 381.05 544.12 377.23
  C 552.23 370.16 551.81 358.43 548.22 348.81
  Q 543.24 335.44 536.33 323.01
  Q 535.28 321.13 533.62 321.13
  Q 531.94 321.14 530.91 323.02
  Q 524.05 335.49 519.14 348.88
  C 515.59 358.52 515.23 370.25 523.38 377.28
  Q 527.77 381.08 533.75 381.06
  Z
  M 1180.60 392.66
  Q 1186.63 392.65 1191.05 388.81
  C 1199.23 381.68 1198.82 369.86 1195.20 360.15
  Q 1190.19 346.67 1183.23 334.13
  Q 1182.18 332.23 1180.49 332.24
  Q 1178.81 332.24 1177.77 334.14
  Q 1170.85 346.70 1165.88 360.20
  C 1162.30 369.92 1161.93 381.74 1170.13 388.84
  Q 1174.57 392.67 1180.60 392.66
  Z
  M 250.62 393.16
  Q 256.63 393.17 261.05 389.35
  C 269.24 382.28 268.88 370.49 265.31 360.80
  Q 260.37 347.34 253.48 334.81
  Q 252.44 332.91 250.77 332.91
  Q 249.08 332.90 248.03 334.79
  Q 241.08 347.29 236.08 360.73
  C 232.47 370.40 232.04 382.19 240.20 389.30
  Q 244.60 393.14 250.62 393.16
  Z
  M 894.39 393.18
  Q 900.41 393.18 904.81 389.34
  C 912.98 382.23 912.57 370.44 908.97 360.75
  Q 903.97 347.31 897.03 334.80
  Q 895.98 332.90 894.31 332.91
  Q 892.62 332.91 891.58 334.80
  Q 884.68 347.33 879.72 360.80
  C 876.14 370.49 875.77 382.28 883.95 389.37
  Q 888.37 393.19 894.39 393.18
  Z
  M 733.01 510.73
  Q 739.02 510.72 743.44 506.89
  C 751.61 499.79 751.21 488.00 747.62 478.31
  Q 742.64 464.86 735.71 452.34
  Q 734.66 450.45 732.99 450.45
  Q 731.30 450.45 730.26 452.34
  Q 723.34 464.87 718.37 478.33
  C 714.78 488.01 714.39 499.81 722.57 506.90
  Q 726.99 510.73 733.01 510.73
  Z
  M 102.38 521.70
  Q 108.39 521.70 112.79 517.86
  C 120.95 510.77 120.54 498.99 116.95 489.32
  Q 111.96 475.88 105.03 463.38
  Q 103.99 461.49 102.32 461.50
  Q 100.63 461.50 99.59 463.39
  Q 92.69 475.91 87.73 489.35
  C 84.16 499.03 83.78 510.81 91.96 517.89
  Q 96.37 521.71 102.38 521.70
  Z
  M 397.24 533.03
  Q 403.24 533.00 407.63 529.16
  C 415.76 522.03 415.31 510.26 411.68 500.61
  Q 406.64 487.20 399.67 474.73
  Q 398.62 472.85 396.93 472.86
  Q 395.26 472.86 394.23 474.76
  Q 387.38 487.30 382.48 500.75
  C 378.94 510.44 378.61 522.22 386.80 529.26
  Q 391.23 533.06 397.24 533.03
  Z
  M 1027.89 535.07
  Q 1033.89 535.04 1038.27 531.20
  C 1046.38 524.10 1045.94 512.35 1042.32 502.71
  Q 1037.30 489.33 1030.34 476.88
  Q 1029.29 475.00 1027.61 475.01
  Q 1025.94 475.01 1024.91 476.91
  Q 1018.07 489.41 1013.17 502.84
  C 1009.64 512.51 1009.30 524.27 1017.48 531.30
  Q 1021.90 535.09 1027.89 535.07
  Z
  M 582.92 611.92
  Q 588.93 611.92 593.34 608.08
  C 601.51 600.99 601.11 589.20 597.51 579.52
  Q 592.53 566.07 585.60 553.56
  Q 584.55 551.66 582.87 551.67
  Q 581.19 551.67 580.15 553.56
  Q 573.24 566.08 568.27 579.54
  C 564.69 589.22 564.31 601.01 572.48 608.10
  Q 576.90 611.93 582.92 611.92
  Z
  M 1192.96 643.18
  Q 1198.98 643.18 1203.40 639.34
  C 1211.58 632.24 1211.18 620.43 1207.59 610.74
  Q 1202.60 597.27 1195.66 584.74
  Q 1194.62 582.85 1192.93 582.85
  Q 1191.25 582.85 1190.21 584.74
  Q 1183.28 597.28 1178.31 610.75
  C 1174.72 620.45 1174.33 632.26 1182.52 639.35
  Q 1186.94 643.19 1192.96 643.18
  Z
  M 893.48 644.62
  Q 899.51 644.64 903.95 640.82
  C 912.17 633.74 911.82 621.92 908.26 612.20
  Q 903.32 598.70 896.43 586.13
  Q 895.39 584.23 893.72 584.22
  Q 892.03 584.21 890.97 586.11
  Q 883.99 598.63 878.95 612.09
  C 875.32 621.78 874.88 633.60 883.04 640.74
  Q 887.45 644.59 893.48 644.62
  Z
  M 250.33 653.71
  Q 256.32 653.73 260.72 649.93
  C 268.88 642.89 268.52 631.15 264.98 621.50
  Q 260.07 608.10 253.21 595.61
  Q 252.18 593.73 250.50 593.72
  Q 248.83 593.72 247.79 595.60
  Q 240.86 608.04 235.87 621.42
  C 232.27 631.05 231.84 642.78 239.96 649.87
  Q 244.34 653.70 250.33 653.71
  Z
  M 445.24 753.19
  Q 451.24 753.18 455.64 749.35
  C 463.79 742.27 463.39 730.51 459.80 720.85
  Q 454.82 707.44 447.91 694.96
  Q 446.86 693.07 445.18 693.07
  Q 443.51 693.07 442.47 694.96
  Q 435.58 707.46 430.63 720.88
  C 427.06 730.54 426.68 742.31 434.84 749.37
  Q 439.24 753.19 445.24 753.19
  Z
  M 746.48 696.43
  C 745.21 694.22 742.85 693.71 741.37 696.15
  Q 733.09 709.86 727.98 726.05
  Q 725.51 733.84 728.08 743.23
  Q 730.57 752.29 738.19 753.82
  C 743.94 754.97 750.00 754.92 754.36 750.49
  Q 761.94 742.82 760.61 733.07
  C 760.07 729.07 759.23 724.41 757.77 720.21
  C 756.31 715.97 753.27 711.41 751.37 706.73
  Q 748.91 700.68 746.48 696.43
  Z
  M 120.77 760.22
  Q 126.79 760.22 131.20 756.39
  C 139.39 749.29 139.00 737.49 135.41 727.79
  Q 130.43 714.33 123.51 701.79
  Q 122.46 699.90 120.77 699.90
  Q 119.10 699.90 118.05 701.79
  Q 111.12 714.32 106.14 727.78
  C 102.54 737.48 102.15 749.28 110.33 756.38
  Q 114.74 760.22 120.77 760.22
  Z
  M 1064.91 767.20
  Q 1070.93 767.18 1075.33 763.34
  C 1083.49 756.23 1083.08 744.43 1079.47 734.75
  Q 1074.46 721.31 1067.51 708.80
  Q 1066.46 706.91 1064.77 706.91
  Q 1063.10 706.91 1062.06 708.81
  Q 1055.16 721.35 1050.21 734.81
  C 1046.64 744.51 1046.27 756.31 1054.47 763.39
  Q 1058.89 767.21 1064.91 767.20
  Z
  M 612.74 875.36
  Q 618.77 875.36 623.19 871.53
  C 631.39 864.42 630.99 852.60 627.40 842.89
  Q 622.42 829.41 615.49 816.86
  Q 614.44 814.97 612.75 814.97
  Q 611.07 814.97 610.03 816.86
  Q 603.09 829.41 598.10 842.89
  C 594.50 852.59 594.10 864.41 602.29 871.52
  Q 606.71 875.36 612.74 875.36
  Z
  M 922.09 882.58
  Q 928.12 882.59 932.55 878.75
  C 940.76 871.65 940.39 859.82 936.80 850.10
  Q 931.83 836.61 924.91 824.04
  Q 923.87 822.14 922.18 822.14
  Q 920.50 822.13 919.45 824.03
  Q 912.49 836.58 907.48 850.06
  C 903.86 859.77 903.45 871.59 911.63 878.72
  Q 916.05 882.57 922.09 882.58
  Z
  M 300.53 884.45
  Q 306.53 884.45 310.94 880.63
  C 319.10 873.56 318.72 861.79 315.15 852.11
  Q 310.19 838.68 303.29 826.18
  Q 302.25 824.29 300.57 824.29
  Q 298.90 824.28 297.85 826.17
  Q 290.93 838.67 285.96 852.09
  C 282.37 861.76 281.96 873.53 290.12 880.61
  Q 294.52 884.44 300.53 884.45
  Z
  M 484.95 1002.06
  Q 490.98 1002.06 495.40 998.23
  C 503.59 991.13 503.21 979.32 499.62 969.61
  Q 494.65 956.14 487.72 943.59
  Q 486.68 941.70 484.99 941.70
  Q 483.31 941.70 482.26 943.59
  Q 475.32 956.13 470.33 969.59
  C 466.73 979.29 466.33 991.10 474.51 998.21
  Q 478.93 1002.05 484.95 1002.06
  Z
  M 781.11 1002.06
  Q 787.13 1002.08 791.55 998.26
  C 799.74 991.19 799.37 979.40 795.81 969.71
  Q 790.87 956.25 783.98 943.72
  Q 782.94 941.82 781.27 941.82
  Q 779.58 941.82 778.53 943.71
  Q 771.58 956.20 766.58 969.64
  C 762.96 979.31 762.54 991.10 770.70 998.21
  Q 775.10 1002.05 781.11 1002.06
  Z
  M 1105.61 1005.06
  Q 1111.62 1005.06 1116.02 1001.23
  C 1124.19 994.15 1123.79 982.37 1120.21 972.69
  Q 1115.23 959.26 1108.32 946.75
  Q 1107.27 944.86 1105.59 944.86
  Q 1103.92 944.86 1102.87 946.75
  Q 1095.96 959.26 1091.00 972.70
  C 1087.41 982.38 1087.02 994.15 1095.19 1001.24
  Q 1099.60 1005.06 1105.61 1005.06
  Z
  M 174.83 1012.55
  Q 180.81 1012.55 185.19 1008.74
  C 193.30 1001.68 192.90 989.96 189.32 980.34
  Q 184.37 966.97 177.48 954.54
  Q 176.43 952.66 174.76 952.66
  Q 173.10 952.66 172.06 954.54
  Q 165.19 966.99 160.26 980.37
  C 156.71 990.00 156.33 1001.72 164.46 1008.76
  Q 168.85 1012.56 174.83 1012.55
  Z
  M 332.91 1116.51
  Q 338.93 1116.51 343.35 1112.68
  C 351.54 1105.58 351.15 1093.77 347.56 1084.07
  Q 342.58 1070.60 335.66 1058.06
  Q 334.61 1056.16 332.92 1056.16
  Q 331.25 1056.16 330.20 1058.06
  Q 323.26 1070.59 318.28 1084.06
  C 314.68 1093.76 314.28 1105.56 322.46 1112.67
  Q 326.88 1116.51 332.91 1116.51
  Z
  M 961.46 1120.29
  Q 967.47 1120.28 971.87 1116.44
  C 980.02 1109.35 979.60 1097.58 976.00 1087.91
  Q 971.01 1074.50 964.08 1062.01
  Q 963.04 1060.12 961.35 1060.12
  Q 959.68 1060.13 958.64 1062.02
  Q 951.75 1074.53 946.81 1087.97
  C 943.25 1097.64 942.87 1109.41 951.05 1116.48
  Q 955.46 1120.30 961.46 1120.29
  Z
  M 638.86 1126.39
  Q 644.88 1126.38 649.28 1122.55
  C 657.44 1115.44 657.03 1103.66 653.43 1093.98
  Q 648.44 1080.54 641.50 1068.03
  Q 640.45 1066.14 638.76 1066.14
  Q 637.09 1066.15 636.05 1068.04
  Q 629.15 1080.57 624.20 1094.02
  C 620.62 1103.71 620.25 1115.50 628.43 1122.58
  Q 632.85 1126.40 638.86 1126.39
  Z
  M 43.31 1141.96
  Q 49.32 1141.92 53.70 1138.07
  C 61.83 1130.95 61.37 1119.17 57.74 1109.52
  Q 52.70 1096.11 45.72 1083.64
  Q 44.67 1081.76 42.98 1081.77
  Q 41.31 1081.77 40.28 1083.67
  Q 33.43 1096.21 28.53 1109.67
  C 25.00 1119.36 24.67 1131.14 32.87 1138.18
  Q 37.30 1141.99 43.31 1141.96
  Z
  M 1166.86 1219.43
  Q 1172.88 1219.44 1177.30 1215.62
  C 1185.50 1208.54 1185.13 1196.74 1181.56 1187.04
  Q 1176.61 1173.57 1169.71 1161.03
  Q 1168.67 1159.13 1166.98 1159.13
  Q 1165.31 1159.12 1164.26 1161.02
  Q 1157.31 1173.53 1152.30 1186.98
  C 1148.69 1196.66 1148.27 1208.46 1156.43 1215.58
  Q 1160.84 1219.42 1166.86 1219.43
  Z
  M 203.74 1244.69
  Q 209.77 1244.70 214.20 1240.87
  C 222.40 1233.79 222.03 1221.97 218.46 1212.27
  Q 213.50 1198.78 206.59 1186.23
  Q 205.55 1184.33 203.88 1184.33
  Q 202.19 1184.33 201.14 1186.22
  Q 194.18 1198.74 189.17 1212.21
  C 185.55 1221.90 185.14 1233.71 193.31 1240.83
  Q 197.72 1244.68 203.74 1244.69
  Z
  M 821.69 1244.66
  Q 827.71 1244.68 832.15 1240.86
  C 840.36 1233.79 840.01 1221.99 836.45 1212.28
  Q 831.52 1198.79 824.64 1186.23
  Q 823.60 1184.33 821.91 1184.32
  Q 820.24 1184.32 819.19 1186.21
  Q 812.21 1198.72 807.18 1212.16
  C 803.55 1221.85 803.11 1233.65 811.26 1240.78
  Q 815.67 1244.64 821.69 1244.66
  Z
  M 503.73 1250.86
  Q 509.76 1250.86 514.17 1247.02
  C 522.35 1239.92 521.95 1228.12 518.35 1218.42
  Q 513.37 1204.96 506.43 1192.43
  Q 505.38 1190.54 503.71 1190.54
  Q 502.02 1190.54 500.98 1192.44
  Q 494.06 1204.97 489.08 1218.44
  C 485.50 1228.14 485.11 1239.94 493.30 1247.03
  Q 497.71 1250.86 503.73 1250.86
  Z"
/>
<path fill="#dcbbf9" d="
  M 321.94 0.00
  Q 327.60 9.90 330.21 20.50
  C 332.33 29.10 330.02 39.78 322.11 44.64
  C 315.48 48.71 306.21 47.27 301.37 40.93
  C 295.35 33.02 295.79 24.07 299.10 14.79
  Q 302.48 5.31 305.53 0.00
  L 321.94 0.00
  Z"
/>
<path fill="#dcbbf9" d="
  M 680.65 0.00
  Q 686.15 10.01 683.21 20.77
  C 681.33 27.67 677.12 32.05 670.38 33.68
  C 661.57 35.81 652.91 29.57 650.78 20.97
  Q 648.07 10.08 653.24 0.00
  L 680.65 0.00
  Z"
/>
<path fill="#dcbbf9" d="
  M 1000.44 0.00
  Q 1002.72 3.71 1004.33 8.01
  C 1008.35 18.78 1010.37 32.82 999.37 40.13
  C 991.68 45.25 981.75 42.94 976.72 35.27
  Q 972.58 28.96 973.24 20.71
  Q 974.02 10.97 980.18 0.00
  L 1000.44 0.00
  Z"
/>
<path fill="#dcbbf9" d="
  M 1254.00 0.00
  L 1254.00 33.69
  Q 1245.47 34.24 1240.54 26.48
  Q 1236.83 20.65 1237.45 13.00
  Q 1238.05 5.47 1240.55 0.00
  L 1254.00 0.00
  Z"
/>
<path fill="#dcbbf9" d="
  M 859.49 120.14
  Q 853.47 120.15 849.05 116.32
  C 840.87 109.24 841.25 97.45 844.83 87.76
  Q 849.78 74.30 856.69 61.77
  Q 857.73 59.88 859.40 59.88
  Q 861.09 59.88 862.14 61.77
  Q 869.08 74.28 874.07 87.72
  C 877.67 97.40 878.08 109.20 869.91 116.30
  Q 865.50 120.13 859.49 120.14
  Z"
/>
<path fill="#dcbbf9" d="
  M 542.26 140.00
  Q 536.25 140.01 531.84 136.19
  C 523.66 129.12 524.04 117.34 527.61 107.66
  Q 532.55 94.22 539.45 81.71
  Q 540.49 79.82 542.17 79.81
  Q 543.84 79.81 544.89 81.70
  Q 551.82 94.19 556.81 107.62
  C 560.41 117.29 560.82 129.06 552.67 136.16
  Q 548.27 139.99 542.26 140.00
  Z"
/>
<path fill="#dcbbf9" d="
  M 170.12 146.39
  Q 164.10 146.39 159.69 142.56
  C 151.52 135.46 151.92 123.66 155.51 113.98
  Q 160.49 100.53 167.42 88.01
  Q 168.47 86.11 170.14 86.12
  Q 171.83 86.12 172.87 88.01
  Q 179.79 100.53 184.76 113.99
  C 188.34 123.68 188.73 135.47 180.55 142.57
  Q 176.14 146.40 170.12 146.39
  Z"
/>
<path fill="#dcbbf9" d="
  M 1158.48 164.13
  Q 1152.46 164.13 1148.04 160.29
  C 1139.85 153.19 1140.24 141.38 1143.84 131.68
  Q 1148.82 118.22 1155.74 105.68
  Q 1156.79 103.78 1158.46 103.78
  Q 1160.15 103.78 1161.20 105.68
  Q 1168.13 118.21 1173.12 131.68
  C 1176.71 141.38 1177.11 153.19 1168.92 160.29
  Q 1164.50 164.13 1158.48 164.13
  Z"
/>
<path fill="#dcbbf9" d="
  M 378.60 241.66
  Q 372.58 241.65 368.17 237.80
  C 360.01 230.68 360.43 218.87 364.05 209.19
  Q 369.07 195.74 376.03 183.23
  Q 377.08 181.34 378.77 181.34
  Q 380.45 181.34 381.49 183.24
  Q 388.38 195.79 393.32 209.27
  C 396.89 218.98 397.25 230.78 389.05 237.86
  Q 384.62 241.68 378.60 241.66
  Z"
/>
<path fill="#dcbbf9" d="
  M 702.40 267.26
  Q 696.37 267.28 691.94 263.45
  C 683.73 256.36 684.09 244.54 687.67 234.82
  Q 692.62 221.33 699.53 208.76
  Q 700.57 206.86 702.25 206.86
  Q 703.94 206.85 704.99 208.75
  Q 711.96 221.28 716.98 234.75
  C 720.60 244.45 721.02 256.27 712.84 263.40
  Q 708.43 267.25 702.40 267.26
  Z"
/>
<path fill="#dcbbf9" d="
  M 1016.92 267.87
  Q 1010.90 267.87 1006.49 264.05
  C 998.31 256.97 998.69 245.19 1002.26 235.50
  Q 1007.21 222.05 1014.11 209.53
  Q 1015.16 207.64 1016.83 207.64
  Q 1018.51 207.63 1019.56 209.52
  Q 1026.49 222.03 1031.49 235.46
  C 1035.08 245.14 1035.50 256.92 1027.33 264.02
  Q 1022.93 267.86 1016.92 267.87
  Z"
/>
<path fill="#dcbbf9" d="
  M 72.82 284.48
  Q 66.80 284.49 62.37 280.67
  C 54.17 273.60 54.53 261.80 58.09 252.09
  Q 63.03 238.62 69.91 226.07
  Q 70.95 224.17 72.64 224.17
  Q 74.31 224.16 75.37 226.05
  Q 82.33 238.56 87.35 252.00
  C 90.97 261.69 91.40 273.49 83.24 280.61
  Q 78.84 284.46 72.82 284.48
  Z"
/>
<path fill="#dcbbf9" d="
  M 533.75 381.06
  Q 527.77 381.08 523.38 377.28
  C 515.23 370.25 515.59 358.52 519.14 348.88
  Q 524.05 335.49 530.91 323.02
  Q 531.94 321.14 533.62 321.13
  Q 535.28 321.13 536.33 323.01
  Q 543.24 335.44 548.22 348.81
  C 551.81 358.43 552.23 370.16 544.12 377.23
  Q 539.74 381.05 533.75 381.06
  Z"
/>
<path fill="#dcbbf9" d="
  M 1180.60 392.66
  Q 1174.57 392.67 1170.13 388.84
  C 1161.93 381.74 1162.30 369.92 1165.88 360.20
  Q 1170.85 346.70 1177.77 334.14
  Q 1178.81 332.24 1180.49 332.24
  Q 1182.18 332.23 1183.23 334.13
  Q 1190.19 346.67 1195.20 360.15
  C 1198.82 369.86 1199.23 381.68 1191.05 388.81
  Q 1186.63 392.65 1180.60 392.66
  Z"
/>
<path fill="#dcbbf9" d="
  M 250.62 393.16
  Q 244.60 393.14 240.20 389.30
  C 232.04 382.19 232.47 370.40 236.08 360.73
  Q 241.08 347.29 248.03 334.79
  Q 249.08 332.90 250.77 332.91
  Q 252.44 332.91 253.48 334.81
  Q 260.37 347.34 265.31 360.80
  C 268.88 370.49 269.24 382.28 261.05 389.35
  Q 256.63 393.17 250.62 393.16
  Z"
/>
<path fill="#dcbbf9" d="
  M 894.39 393.18
  Q 888.37 393.19 883.95 389.37
  C 875.77 382.28 876.14 370.49 879.72 360.80
  Q 884.68 347.33 891.58 334.80
  Q 892.62 332.91 894.31 332.91
  Q 895.98 332.90 897.03 334.80
  Q 903.97 347.31 908.97 360.75
  C 912.57 370.44 912.98 382.23 904.81 389.34
  Q 900.41 393.18 894.39 393.18
  Z"
/>
<path fill="#dcbbf9" d="
  M 733.01 510.73
  Q 726.99 510.73 722.57 506.90
  C 714.39 499.81 714.78 488.01 718.37 478.33
  Q 723.34 464.87 730.26 452.34
  Q 731.30 450.45 732.99 450.45
  Q 734.66 450.45 735.71 452.34
  Q 742.64 464.86 747.62 478.31
  C 751.21 488.00 751.61 499.79 743.44 506.89
  Q 739.02 510.72 733.01 510.73
  Z"
/>
<path fill="#dcbbf9" d="
  M 102.38 521.70
  Q 96.37 521.71 91.96 517.89
  C 83.78 510.81 84.16 499.03 87.73 489.35
  Q 92.69 475.91 99.59 463.39
  Q 100.63 461.50 102.32 461.50
  Q 103.99 461.49 105.03 463.38
  Q 111.96 475.88 116.95 489.32
  C 120.54 498.99 120.95 510.77 112.79 517.86
  Q 108.39 521.70 102.38 521.70
  Z"
/>
<path fill="#dcbbf9" d="
  M 397.24 533.03
  Q 391.23 533.06 386.80 529.26
  C 378.61 522.22 378.94 510.44 382.48 500.75
  Q 387.38 487.30 394.23 474.76
  Q 395.26 472.86 396.93 472.86
  Q 398.62 472.85 399.67 474.73
  Q 406.64 487.20 411.68 500.61
  C 415.31 510.26 415.76 522.03 407.63 529.16
  Q 403.24 533.00 397.24 533.03
  Z"
/>
<path fill="#dcbbf9" d="
  M 1027.89 535.07
  Q 1021.90 535.09 1017.48 531.30
  C 1009.30 524.27 1009.64 512.51 1013.17 502.84
  Q 1018.07 489.41 1024.91 476.91
  Q 1025.94 475.01 1027.61 475.01
  Q 1029.29 475.00 1030.34 476.88
  Q 1037.30 489.33 1042.32 502.71
  C 1045.94 512.35 1046.38 524.10 1038.27 531.20
  Q 1033.89 535.04 1027.89 535.07
  Z"
/>
<path fill="#dcbbf9" d="
  M 582.92 611.92
  Q 576.90 611.93 572.48 608.10
  C 564.31 601.01 564.69 589.22 568.27 579.54
  Q 573.24 566.08 580.15 553.56
  Q 581.19 551.67 582.87 551.67
  Q 584.55 551.66 585.60 553.56
  Q 592.53 566.07 597.51 579.52
  C 601.11 589.20 601.51 600.99 593.34 608.08
  Q 588.93 611.92 582.92 611.92
  Z"
/>
<path fill="#dcbbf9" d="
  M 1192.96 643.18
  Q 1186.94 643.19 1182.52 639.35
  C 1174.33 632.26 1174.72 620.45 1178.31 610.75
  Q 1183.28 597.28 1190.21 584.74
  Q 1191.25 582.85 1192.93 582.85
  Q 1194.62 582.85 1195.66 584.74
  Q 1202.60 597.27 1207.59 610.74
  C 1211.18 620.43 1211.58 632.24 1203.40 639.34
  Q 1198.98 643.18 1192.96 643.18
  Z"
/>
<path fill="#dcbbf9" d="
  M 893.48 644.62
  Q 887.45 644.59 883.04 640.74
  C 874.88 633.60 875.32 621.78 878.95 612.09
  Q 883.99 598.63 890.97 586.11
  Q 892.03 584.21 893.72 584.22
  Q 895.39 584.23 896.43 586.13
  Q 903.32 598.70 908.26 612.20
  C 911.82 621.92 912.17 633.74 903.95 640.82
  Q 899.51 644.64 893.48 644.62
  Z"
/>
<path fill="#dcbbf9" d="
  M 250.33 653.71
  Q 244.34 653.70 239.96 649.87
  C 231.84 642.78 232.27 631.05 235.87 621.42
  Q 240.86 608.04 247.79 595.60
  Q 248.83 593.72 250.50 593.72
  Q 252.18 593.73 253.21 595.61
  Q 260.07 608.10 264.98 621.50
  C 268.52 631.15 268.88 642.89 260.72 649.93
  Q 256.32 653.73 250.33 653.71
  Z"
/>
<path fill="#dcbbf9" d="
  M 445.24 753.19
  Q 439.24 753.19 434.84 749.37
  C 426.68 742.31 427.06 730.54 430.63 720.88
  Q 435.58 707.46 442.47 694.96
  Q 443.51 693.07 445.18 693.07
  Q 446.86 693.07 447.91 694.96
  Q 454.82 707.44 459.80 720.85
  C 463.39 730.51 463.79 742.27 455.64 749.35
  Q 451.24 753.18 445.24 753.19
  Z"
/>
<path fill="#dcbbf9" d="
  M 741.37 696.15
  C 742.85 693.71 745.21 694.22 746.48 696.43
  Q 748.91 700.68 751.37 706.73
  C 753.27 711.41 756.31 715.97 757.77 720.21
  C 759.23 724.41 760.07 729.07 760.61 733.07
  Q 761.94 742.82 754.36 750.49
  C 750.00 754.92 743.94 754.97 738.19 753.82
  Q 730.57 752.29 728.08 743.23
  Q 725.51 733.84 727.98 726.05
  Q 733.09 709.86 741.37 696.15
  Z"
/>
<path fill="#dcbbf9" d="
  M 120.77 760.22
  Q 114.74 760.22 110.33 756.38
  C 102.15 749.28 102.54 737.48 106.14 727.78
  Q 111.12 714.32 118.05 701.79
  Q 119.10 699.90 120.77 699.90
  Q 122.46 699.90 123.51 701.79
  Q 130.43 714.33 135.41 727.79
  C 139.00 737.49 139.39 749.29 131.20 756.39
  Q 126.79 760.22 120.77 760.22
  Z"
/>
<path fill="#dcbbf9" d="
  M 1064.91 767.20
  Q 1058.89 767.21 1054.47 763.39
  C 1046.27 756.31 1046.64 744.51 1050.21 734.81
  Q 1055.16 721.35 1062.06 708.81
  Q 1063.10 706.91 1064.77 706.91
  Q 1066.46 706.91 1067.51 708.80
  Q 1074.46 721.31 1079.47 734.75
  C 1083.08 744.43 1083.49 756.23 1075.33 763.34
  Q 1070.93 767.18 1064.91 767.20
  Z"
/>
<path fill="#dcbbf9" d="
  M 612.74 875.36
  Q 606.71 875.36 602.29 871.52
  C 594.10 864.41 594.50 852.59 598.10 842.89
  Q 603.09 829.41 610.03 816.86
  Q 611.07 814.97 612.75 814.97
  Q 614.44 814.97 615.49 816.86
  Q 622.42 829.41 627.40 842.89
  C 630.99 852.60 631.39 864.42 623.19 871.53
  Q 618.77 875.36 612.74 875.36
  Z"
/>
<path fill="#dcbbf9" d="
  M 922.09 882.58
  Q 916.05 882.57 911.63 878.72
  C 903.45 871.59 903.86 859.77 907.48 850.06
  Q 912.49 836.58 919.45 824.03
  Q 920.50 822.13 922.18 822.14
  Q 923.87 822.14 924.91 824.04
  Q 931.83 836.61 936.80 850.10
  C 940.39 859.82 940.76 871.65 932.55 878.75
  Q 928.12 882.59 922.09 882.58
  Z"
/>
<path fill="#dcbbf9" d="
  M 300.53 884.45
  Q 294.52 884.44 290.12 880.61
  C 281.96 873.53 282.37 861.76 285.96 852.09
  Q 290.93 838.67 297.85 826.17
  Q 298.90 824.28 300.57 824.29
  Q 302.25 824.29 303.29 826.18
  Q 310.19 838.68 315.15 852.11
  C 318.72 861.79 319.10 873.56 310.94 880.63
  Q 306.53 884.45 300.53 884.45
  Z"
/>
<path fill="#dcbbf9" d="
  M 1254.00 857.62
  L 1254.00 892.16
  C 1248.20 899.25 1237.03 898.99 1230.79 892.58
  C 1222.40 883.96 1225.54 871.95 1228.73 861.89
  C 1230.68 855.77 1235.29 847.62 1237.31 842.80
  Q 1238.21 840.67 1240.27 838.05
  C 1241.54 836.43 1243.79 836.61 1244.78 838.52
  C 1248.09 844.93 1251.38 850.89 1254.00 857.62
  Z"
/>
<path fill="#dcbbf9" d="
  M 0.00 891.50
  L 0.00 860.25
  L 0.33 856.98
  A 0.31 0.31 0.0 0 1 0.92 856.90
  Q 1.90 859.48 3.55 863.40
  C 7.38 872.53 8.20 884.39 1.03 891.93
  A 0.55 0.55 0.0 0 1 0.13 891.78
  L 0.00 891.50
  Z"
/>
<path fill="#dcbbf9" d="
  M 484.95 1002.06
  Q 478.93 1002.05 474.51 998.21
  C 466.33 991.10 466.73 979.29 470.33 969.59
  Q 475.32 956.13 482.26 943.59
  Q 483.31 941.70 484.99 941.70
  Q 486.68 941.70 487.72 943.59
  Q 494.65 956.14 499.62 969.61
  C 503.21 979.32 503.59 991.13 495.40 998.23
  Q 490.98 1002.06 484.95 1002.06
  Z"
/>
<path fill="#dcbbf9" d="
  M 781.11 1002.06
  Q 775.10 1002.05 770.70 998.21
  C 762.54 991.10 762.96 979.31 766.58 969.64
  Q 771.58 956.20 778.53 943.71
  Q 779.58 941.82 781.27 941.82
  Q 782.94 941.82 783.98 943.72
  Q 790.87 956.25 795.81 969.71
  C 799.37 979.40 799.74 991.19 791.55 998.26
  Q 787.13 1002.08 781.11 1002.06
  Z"
/>
<path fill="#dcbbf9" d="
  M 1105.61 1005.06
  Q 1099.60 1005.06 1095.19 1001.24
  C 1087.02 994.15 1087.41 982.38 1091.00 972.70
  Q 1095.96 959.26 1102.87 946.75
  Q 1103.92 944.86 1105.59 944.86
  Q 1107.27 944.86 1108.32 946.75
  Q 1115.23 959.26 1120.21 972.69
  C 1123.79 982.37 1124.19 994.15 1116.02 1001.23
  Q 1111.62 1005.06 1105.61 1005.06
  Z"
/>
<path fill="#dcbbf9" d="
  M 174.83 1012.55
  Q 168.85 1012.56 164.46 1008.76
  C 156.33 1001.72 156.71 990.00 160.26 980.37
  Q 165.19 966.99 172.06 954.54
  Q 173.10 952.66 174.76 952.66
  Q 176.43 952.66 177.48 954.54
  Q 184.37 966.97 189.32 980.34
  C 192.90 989.96 193.30 1001.68 185.19 1008.74
  Q 180.81 1012.55 174.83 1012.55
  Z"
/>
<path fill="#dcbbf9" d="
  M 332.91 1116.51
  Q 326.88 1116.51 322.46 1112.67
  C 314.28 1105.56 314.68 1093.76 318.28 1084.06
  Q 323.26 1070.59 330.20 1058.06
  Q 331.25 1056.16 332.92 1056.16
  Q 334.61 1056.16 335.66 1058.06
  Q 342.58 1070.60 347.56 1084.07
  C 351.15 1093.77 351.54 1105.58 343.35 1112.68
  Q 338.93 1116.51 332.91 1116.51
  Z"
/>
<path fill="#dcbbf9" d="
  M 961.46 1120.29
  Q 955.46 1120.30 951.05 1116.48
  C 942.87 1109.41 943.25 1097.64 946.81 1087.97
  Q 951.75 1074.53 958.64 1062.02
  Q 959.68 1060.13 961.35 1060.12
  Q 963.04 1060.12 964.08 1062.01
  Q 971.01 1074.50 976.00 1087.91
  C 979.60 1097.58 980.02 1109.35 971.87 1116.44
  Q 967.47 1120.28 961.46 1120.29
  Z"
/>
<path fill="#dcbbf9" d="
  M 638.86 1126.39
  Q 632.85 1126.40 628.43 1122.58
  C 620.25 1115.50 620.62 1103.71 624.20 1094.02
  Q 629.15 1080.57 636.05 1068.04
  Q 637.09 1066.15 638.76 1066.14
  Q 640.45 1066.14 641.50 1068.03
  Q 648.44 1080.54 653.43 1093.98
  C 657.03 1103.66 657.44 1115.44 649.28 1122.55
  Q 644.88 1126.38 638.86 1126.39
  Z"
/>
<path fill="#dcbbf9" d="
  M 43.31 1141.96
  Q 37.30 1141.99 32.87 1138.18
  C 24.67 1131.14 25.00 1119.36 28.53 1109.67
  Q 33.43 1096.21 40.28 1083.67
  Q 41.31 1081.77 42.98 1081.77
  Q 44.67 1081.76 45.72 1083.64
  Q 52.70 1096.11 57.74 1109.52
  C 61.37 1119.17 61.83 1130.95 53.70 1138.07
  Q 49.32 1141.92 43.31 1141.96
  Z"
/>
<path fill="#dcbbf9" d="
  M 1166.98 1159.13
  Q 1168.67 1159.13 1169.71 1161.03
  Q 1176.61 1173.57 1181.56 1187.04
  C 1185.13 1196.74 1185.50 1208.54 1177.30 1215.62
  Q 1172.88 1219.44 1166.86 1219.43
  Q 1160.84 1219.42 1156.43 1215.58
  C 1148.27 1208.46 1148.69 1196.66 1152.30 1186.98
  Q 1157.31 1173.53 1164.26 1161.02
  Q 1165.31 1159.12 1166.98 1159.13
  Z"
/>
<path fill="#dcbbf9" d="
  M 203.74 1244.69
  Q 197.72 1244.68 193.31 1240.83
  C 185.14 1233.71 185.55 1221.90 189.17 1212.21
  Q 194.18 1198.74 201.14 1186.22
  Q 202.19 1184.33 203.88 1184.33
  Q 205.55 1184.33 206.59 1186.23
  Q 213.50 1198.78 218.46 1212.27
  C 222.03 1221.97 222.40 1233.79 214.20 1240.87
  Q 209.77 1244.70 203.74 1244.69
  Z"
/>
<path fill="#dcbbf9" d="
  M 821.69 1244.66
  Q 815.67 1244.64 811.26 1240.78
  C 803.11 1233.65 803.55 1221.85 807.18 1212.16
  Q 812.21 1198.72 819.19 1186.21
  Q 820.24 1184.32 821.91 1184.32
  Q 823.60 1184.33 824.64 1186.23
  Q 831.52 1198.79 836.45 1212.28
  C 840.01 1221.99 840.36 1233.79 832.15 1240.86
  Q 827.71 1244.68 821.69 1244.66
  Z"
/>
<path fill="#dcbbf9" d="
  M 503.73 1250.86
  Q 497.71 1250.86 493.30 1247.03
  C 485.11 1239.94 485.50 1228.14 489.08 1218.44
  Q 494.06 1204.97 500.98 1192.44
  Q 502.02 1190.54 503.71 1190.54
  Q 505.38 1190.54 506.43 1192.43
  Q 513.37 1204.96 518.35 1218.42
  C 521.95 1228.12 522.35 1239.92 514.17 1247.02
  Q 509.76 1250.86 503.73 1250.86
  Z"
/>
</svg>
