<?xml version="1.0" encoding="UTF-8" standalone="no"?>
<!DOCTYPE svg PUBLIC "-//W3C//DTD SVG 1.1//EN" "http://www.w3.org/Graphics/SVG/1.1/DTD/svg11.dtd">
<svg xmlns="http://www.w3.org/2000/svg" version="1.1" viewBox="0.00 0.00 1773.00 1773.00">
<g stroke-width="2.00" fill="none" stroke-linecap="butt">
<path stroke="#cb9991" vector-effect="non-scaling-stroke" d="
  M 358.73 0.00
  Q 353.96 9.93 346.30 17.81
  C 332.04 32.47 312.59 40.56 292.10 37.56
  A 0.20 0.20 0.0 0 0 291.94 37.91
  Q 310.99 55.87 337.47 53.98
  Q 363.62 52.11 379.09 32.33
  Q 389.82 18.60 391.32 0.00"
/>
<path stroke="#cb9991" vector-effect="non-scaling-stroke" d="
  M 529.96 0.00
  Q 530.47 8.49 532.53 14.24
  Q 534.35 19.35 539.40 27.12
  C 551.02 44.99 574.22 53.13 595.15 50.06
  A 0.29 0.29 0.0 0 0 595.20 49.50
  Q 583.77 45.70 575.36 36.88
  Q 560.70 21.51 558.95 0.00"
/>
<path stroke="#cb9991" vector-effect="non-scaling-stroke" d="
  M 832.29 0.00
  Q 832.14 13.92 836.68 24.34
  C 851.57 58.55 892.69 72.93 925.93 55.31
  A 0.39 0.39 0.0 0 0 925.72 54.57
  Q 900.07 56.01 882.20 38.05
  Q 865.94 21.69 864.69 0.00"
/>
<path stroke="#cb9991" vector-effect="non-scaling-stroke" d="
  M 1231.47 0.00
  Q 1222.54 18.27 1205.02 29.05
  Q 1186.63 40.36 1164.81 37.57
  A 0.20 0.20 0.0 0 0 1164.65 37.92
  Q 1182.63 54.77 1207.60 54.12
  C 1230.20 53.53 1249.18 41.55 1258.53 21.24
  Q 1263.11 11.29 1264.04 0.00"
/>
<path stroke="#cb9991" vector-effect="non-scaling-stroke" d="
  M 1402.84 0.00
  Q 1403.15 9.80 1407.33 18.67
  C 1418.30 41.90 1442.94 54.27 1468.10 50.08
  A 0.27 0.27 0.0 0 0 1468.14 49.56
  Q 1459.37 46.77 1451.95 40.27
  Q 1433.76 24.34 1431.72 0.00"
/>
<path stroke="#cb9991" vector-effect="non-scaling-stroke" d="
  M 1718.94 0.00
  Q 1718.51 19.23 1728.78 34.46
  Q 1744.42 57.67 1773.00 62.43"
/>
<path stroke="#cb9991" vector-effect="non-scaling-stroke" d="
  M 1773.00 283.61
  C 1748.46 285.30 1727.04 301.54 1720.92 325.68
  Q 1719.09 332.90 1719.01 343.30
  C 1718.93 354.27 1722.18 364.61 1727.77 373.56
  A 0.43 0.42 -63.2 0 0 1728.55 373.30
  Q 1727.18 354.44 1738.64 339.38
  Q 1751.73 322.18 1773.00 317.55"
/>
<path stroke="#cb9991" vector-effect="non-scaling-stroke" d="
  M 1773.00 539.69
  Q 1746.74 534.41 1725.74 549.75
  Q 1711.70 560.00 1705.42 575.49
  A 0.36 0.36 0.0 0 0 1705.98 575.91
  Q 1725.53 560.66 1750.24 564.46
  Q 1762.09 566.29 1773.00 573.86"
/>
<path stroke="#cb9991" vector-effect="non-scaling-stroke" d="
  M 1773.00 822.69
  C 1719.19 832.11 1699.02 898.60 1741.39 934.62
  Q 1754.52 945.79 1773.00 948.54"
/>
<path stroke="#cb9991" vector-effect="non-scaling-stroke" d="
  M 1773.00 1169.71
  C 1744.76 1172.29 1723.35 1191.78 1719.40 1219.72
  Q 1716.29 1241.68 1727.50 1260.37
  A 0.38 0.38 0.0 0 0 1728.20 1260.16
  C 1727.93 1248.59 1730.00 1238.48 1736.58 1228.55
  Q 1742.63 1219.42 1752.47 1212.75
  Q 1761.80 1206.42 1773.00 1203.97"
/>
<path stroke="#cb9991" vector-effect="non-scaling-stroke" d="
  M 1773.00 1426.30
  Q 1764.10 1424.58 1756.76 1425.06
  C 1734.19 1426.52 1714.09 1440.40 1705.67 1461.80
  A 0.40 0.39 -8.3 0 0 1706.28 1462.25
  Q 1727.10 1446.23 1753.16 1451.59
  Q 1763.20 1453.66 1773.00 1460.57"
/>
<path stroke="#cb9991" vector-effect="non-scaling-stroke" d="
  M 1773.00 1709.33
  C 1746.16 1713.74 1725.76 1733.12 1719.68 1759.70
  Q 1718.81 1763.51 1718.53 1773.00"
/>
<path stroke="#cb9991" vector-effect="non-scaling-stroke" d="
  M 1444.97 1773.00
  Q 1441.67 1747.00 1458.06 1727.03
  Q 1463.97 1719.83 1471.49 1715.37
  A 0.30 0.30 0.0 0 0 1471.32 1714.82
  C 1449.60 1716.06 1430.06 1727.93 1421.09 1747.68
  Q 1415.77 1759.38 1416.34 1773.00"
/>
<path stroke="#cb9991" vector-effect="non-scaling-stroke" d="
  M 1262.09 1773.00
  Q 1262.50 1764.90 1261.40 1758.24
  Q 1257.46 1734.45 1238.48 1719.88
  A 0.33 0.33 0.0 0 0 1237.96 1720.24
  Q 1244.96 1743.20 1234.74 1765.03
  Q 1232.88 1769.00 1230.82 1773.00"
/>
<path stroke="#cb9991" vector-effect="non-scaling-stroke" d="
  M 865.01 1773.00
  Q 864.39 1759.79 868.87 1749.41
  Q 881.29 1720.61 913.24 1713.56
  Q 914.04 1713.39 917.19 1712.63
  A 0.43 0.42 -42.4 0 0 917.23 1711.81
  C 875.93 1698.23 831.73 1728.72 832.37 1773.00"
/>
<path stroke="#cb9991" vector-effect="non-scaling-stroke" d="
  M 558.65 1773.00
  Q 557.05 1762.38 559.35 1752.04
  Q 564.65 1728.20 585.13 1715.38
  A 0.32 0.32 0.0 0 0 584.94 1714.79
  C 570.81 1715.59 557.73 1720.76 547.28 1730.31
  Q 529.34 1746.69 529.74 1773.00"
/>
<path stroke="#cb9991" vector-effect="non-scaling-stroke" d="
  M 375.61 1773.00
  Q 375.13 1768.59 375.09 1764.17
  Q 375.03 1758.24 374.43 1755.38
  Q 369.84 1733.60 351.96 1719.83
  A 0.37 0.36 -80.0 0 0 351.39 1720.23
  Q 356.84 1737.49 351.91 1754.96
  Q 349.52 1763.42 344.27 1773.00"
/>
<path stroke="#cb9991" vector-effect="non-scaling-stroke" d="
  M 0.00 1725.72
  Q 9.94 1718.46 21.04 1715.07
  Q 26.10 1713.52 31.11 1712.60
  A 0.34 0.34 0.0 0 0 31.15 1711.94
  Q 15.77 1706.87 0.00 1709.38"
/>
<path stroke="#cb9991" vector-effect="non-scaling-stroke" d="
  M 0.00 1460.29
  Q 9.30 1468.05 13.92 1476.60
  C 26.13 1499.14 21.42 1525.00 4.19 1543.66
  A 0.39 0.39 0.0 0 0 4.59 1544.29
  C 48.87 1530.49 61.55 1476.25 30.45 1442.80
  Q 18.69 1430.15 0.00 1426.21"
/>
<path stroke="#cb9991" vector-effect="non-scaling-stroke" d="
  M 0.00 1203.69
  Q 12.42 1201.79 22.94 1204.57
  Q 48.22 1211.24 59.49 1234.94
  A 0.33 0.33 0.0 0 0 60.11 1234.83
  C 61.13 1223.21 59.58 1211.88 54.15 1201.32
  Q 45.85 1185.21 30.83 1176.64
  Q 16.96 1168.73 0.00 1169.79"
/>
<path stroke="#cb9991" vector-effect="non-scaling-stroke" d="
  M 0.00 948.47
  Q 20.08 951.07 38.32 942.30
  Q 38.80 942.07 39.02 941.74
  A 0.25 0.25 0.0 0 0 38.80 941.35
  Q 17.33 942.17 0.00 928.25"
/>
<path stroke="#cb9991" vector-effect="non-scaling-stroke" d="
  M 0.00 839.43
  Q 14.63 828.12 32.25 826.90
  A 0.41 0.41 0.0 0 0 32.36 826.10
  Q 16.37 820.57 0.00 822.62"
/>
<path stroke="#cb9991" vector-effect="non-scaling-stroke" d="
  M 0.00 574.62
  Q 15.74 587.34 19.63 606.45
  C 23.38 624.91 16.79 643.81 4.05 657.21
  A 0.34 0.34 0.0 0 0 4.40 657.77
  Q 23.97 651.80 35.82 636.32
  C 49.20 618.83 52.51 595.59 44.11 575.42
  Q 31.99 546.27 0.00 539.45"
/>
<path stroke="#cb9991" vector-effect="non-scaling-stroke" d="
  M 0.00 317.48
  Q 4.70 317.58 9.50 317.50
  Q 11.93 317.46 18.96 316.83
  C 42.49 314.73 63.46 327.26 73.17 348.54
  A 0.31 0.31 0.0 0 0 73.76 348.45
  Q 76.71 325.68 63.61 307.42
  Q 46.84 284.04 17.77 283.37
  Q 13.63 283.27 0.00 285.23"
/>
<path stroke="#cb9991" vector-effect="non-scaling-stroke" d="
  M 0.00 58.26
  Q 27.51 68.74 53.55 55.20
  A 0.32 0.32 0.0 0 0 53.39 54.60
  C 47.51 54.92 41.39 54.75 35.70 53.27
  Q 10.89 46.81 0.00 22.07"
/>
<path stroke="#cb9991" vector-effect="non-scaling-stroke" d="
  M 181.74 81.19
  C 159.83 81.25 138.86 92.09 126.48 110.37
  C 113.55 129.46 111.45 154.13 121.14 175.06
  C 140.23 216.34 193.23 226.73 226.66 195.65
  Q 234.34 188.50 239.67 179.18
  A 0.33 0.33 0.0 0 0 239.19 178.74
  C 222.83 190.50 202.75 193.61 184.00 186.63
  C 165.10 179.59 151.26 161.74 149.04 141.71
  Q 147.33 126.20 153.77 111.45
  Q 162.10 92.39 181.94 81.97
  A 0.42 0.41 30.7 0 0 181.74 81.19"
/>
<path stroke="#cb9991" vector-effect="non-scaling-stroke" d="
  M 1054.32 81.31
  C 1032.45 81.40 1011.54 92.25 999.22 110.51
  C 986.34 129.58 984.28 154.20 993.98 175.07
  C 1013.09 216.24 1065.99 226.53 1099.31 195.47
  Q 1106.96 188.32 1112.27 179.01
  A 0.33 0.33 0.0 0 0 1111.79 178.57
  C 1095.48 190.33 1075.45 193.46 1056.73 186.53
  C 1037.86 179.53 1024.02 161.73 1021.77 141.75
  Q 1020.05 126.27 1026.45 111.55
  Q 1034.74 92.51 1054.52 82.09
  A 0.41 0.41 0.0 0 0 1054.32 81.31"
/>
<path stroke="#cb9991" vector-effect="non-scaling-stroke" d="
  M 782.44 200.97
  Q 782.15 200.80 781.69 200.91
  C 763.33 205.28 743.92 201.90 729.54 189.39
  C 721.89 182.74 714.79 173.94 711.93 164.37
  C 705.16 141.60 712.03 118.03 729.87 102.44
  C 739.10 94.38 751.79 89.47 764.01 88.17
  A 0.35 0.35 0.0 0 0 764.06 87.49
  Q 760.38 86.54 756.32 85.50
  C 726.64 77.88 694.80 91.83 680.48 118.75
  C 670.58 137.38 670.72 161.47 680.97 180.00
  Q 694.93 205.23 720.10 212.87
  C 742.13 219.56 764.32 215.01 782.46 201.36
  A 0.24 0.24 0.0 0 0 782.44 200.97"
/>
<path stroke="#cb9991" vector-effect="non-scaling-stroke" d="
  M 1650.33 87.82
  Q 1649.99 87.47 1649.44 87.28
  Q 1642.33 84.82 1632.70 83.77
  C 1597.14 79.92 1562.78 106.78 1559.97 143.09
  Q 1557.85 170.66 1574.74 191.27
  C 1596.09 217.32 1630.24 222.80 1659.67 207.35
  Q 1664.90 204.60 1668.73 201.51
  A 0.39 0.39 0.0 0 0 1668.39 200.83
  Q 1648.76 205.71 1631.27 198.54
  Q 1615.05 191.90 1605.37 177.81
  C 1594.41 161.87 1592.63 139.18 1601.40 121.97
  Q 1616.34 92.62 1650.17 88.29
  A 0.28 0.28 0.0 0 0 1650.33 87.82"
/>
<path stroke="#cb9991" vector-effect="non-scaling-stroke" d="
  M 355.32 215.78
  C 356.60 219.50 358.76 224.52 359.32 228.54
  Q 362.45 251.04 348.02 267.57
  C 331.42 286.60 303.09 288.18 283.87 272.00
  A 0.44 0.44 0.0 0 0 283.16 272.47
  C 293.32 306.34 336.51 321.60 363.65 297.69
  Q 381.09 282.33 380.40 258.74
  C 379.88 240.86 370.28 225.36 355.72 215.47
  A 0.27 0.27 0.0 0 0 355.32 215.78"
/>
<path stroke="#cb9991" vector-effect="non-scaling-stroke" d="
  M 1155.65 271.98
  Q 1155.56 272.56 1155.84 273.34
  C 1163.51 294.59 1182.71 308.96 1205.40 309.32
  C 1215.18 309.48 1224.29 306.74 1232.29 301.09
  C 1248.93 289.32 1256.18 270.15 1252.29 250.28
  C 1249.54 236.23 1240.42 223.57 1228.27 215.50
  A 0.32 0.32 0.0 0 0 1227.80 215.89
  C 1232.13 226.14 1233.61 236.20 1230.96 247.30
  C 1226.19 267.31 1210.54 281.15 1190.15 282.71
  Q 1170.67 284.19 1156.14 271.80
  A 0.30 0.30 0.0 0 0 1155.65 271.98"
/>
<path stroke="#cb9991" vector-effect="non-scaling-stroke" d="
  M 574.01 372.86
  Q 578.50 372.87 583.46 371.79
  Q 609.24 366.13 623.83 343.64
  C 636.83 323.60 638.09 296.93 625.52 275.80
  C 610.71 250.88 582.18 238.66 553.93 245.36
  C 535.76 249.67 517.54 263.97 510.49 281.16
  A 0.37 0.36 -8.7 0 0 511.06 281.58
  C 530.71 265.78 558.15 262.87 579.27 277.76
  Q 598.48 291.31 601.65 315.37
  C 604.64 338.04 592.70 360.22 573.87 372.40
  A 0.26 0.25 28.3 0 0 574.01 372.86"
/>
<path stroke="#cb9991" vector-effect="non-scaling-stroke" d="
  M 1460.54 372.90
  Q 1465.04 372.91 1470.00 371.83
  Q 1495.78 366.18 1510.38 343.69
  C 1523.40 323.67 1524.67 296.99 1512.11 275.85
  C 1497.31 250.93 1468.78 238.69 1440.53 245.38
  C 1422.35 249.67 1404.12 263.97 1397.07 281.16
  A 0.37 0.36 -8.6 0 0 1397.64 281.57
  C 1417.30 265.78 1444.74 262.89 1465.85 277.79
  Q 1485.05 291.35 1488.22 315.42
  C 1491.20 338.09 1479.24 360.26 1460.40 372.43
  A 0.26 0.25 28.3 0 0 1460.54 372.90"
/>
<path stroke="#cb9991" vector-effect="non-scaling-stroke" d="
  M 946.18 348.72
  A 0.28 0.28 0.0 0 0 946.50 348.47
  C 948.93 329.19 942.51 312.00 928.65 298.56
  C 912.03 282.44 887.20 278.72 866.54 288.32
  Q 843.32 299.10 835.41 322.72
  C 829.77 339.57 831.92 358.07 840.95 373.38
  A 0.47 0.47 0.0 0 0 841.82 373.15
  Q 841.84 372.38 841.96 367.22
  C 842.19 357.55 845.85 347.70 851.31 340.25
  Q 867.10 318.73 894.21 316.79
  C 916.58 315.18 936.46 328.41 945.78 348.38
  Q 945.93 348.68 946.18 348.72"
/>
<path stroke="#cb9991" vector-effect="non-scaling-stroke" d="
  M 485.76 384.52
  A 0.22 0.22 0.0 0 0 485.80 384.09
  Q 474.19 380.44 460.98 380.74
  Q 434.70 381.35 416.57 400.84
  C 394.54 424.54 393.13 459.40 413.97 484.42
  C 424.71 497.31 439.28 505.48 456.34 506.90
  Q 475.91 508.53 492.89 499.44
  A 0.34 0.33 30.2 0 0 492.72 498.81
  C 485.99 498.94 480.22 498.62 474.03 496.78
  C 453.72 490.75 437.00 474.34 433.57 452.84
  Q 429.45 426.86 444.78 407.77
  Q 460.85 387.76 485.76 384.52"
/>
<path stroke="#cb9991" vector-effect="non-scaling-stroke" d="
  M 1344.54 384.48
  A 0.22 0.22 0.0 0 0 1344.58 384.05
  Q 1332.97 380.41 1319.76 380.73
  Q 1293.49 381.36 1275.39 400.86
  C 1253.38 424.57 1252.00 459.42 1272.86 484.42
  C 1283.61 497.29 1298.18 505.45 1315.24 506.85
  Q 1334.80 508.46 1351.77 499.36
  A 0.34 0.33 30.2 0 0 1351.60 498.73
  C 1344.87 498.87 1339.10 498.55 1332.91 496.72
  C 1312.60 490.71 1295.87 474.32 1292.43 452.83
  Q 1288.28 426.86 1303.59 407.76
  Q 1319.64 387.74 1344.54 384.48"
/>
<path stroke="#cb9991" vector-effect="non-scaling-stroke" d="
  M 783.37 491.37
  C 781.55 492.16 779.83 493.37 778.09 494.08
  C 750.07 505.57 718.83 493.73 705.95 466.35
  Q 697.05 447.45 702.57 426.19
  A 0.25 0.25 0.0 0 0 702.16 425.95
  Q 685.40 441.70 683.94 464.27
  Q 683.12 476.98 688.43 487.92
  C 699.33 510.40 720.75 523.11 745.79 518.32
  Q 770.55 513.59 783.58 491.62
  A 0.17 0.17 0.0 0 0 783.37 491.37"
/>
<path stroke="#cb9991" vector-effect="non-scaling-stroke" d="
  M 1669.86 491.43
  C 1668.04 492.22 1666.32 493.43 1664.58 494.14
  C 1636.53 505.59 1605.30 493.70 1592.45 466.29
  Q 1583.58 447.37 1589.13 426.11
  A 0.25 0.25 0.0 0 0 1588.72 425.87
  Q 1571.93 441.60 1570.44 464.17
  Q 1569.60 476.89 1574.90 487.84
  C 1585.77 510.34 1607.17 523.09 1632.23 518.34
  Q 1657.01 513.64 1670.07 491.68
  A 0.17 0.17 0.0 0 0 1669.86 491.43"
/>
<path stroke="#cb9991" vector-effect="non-scaling-stroke" d="
  M 312.18 515.57
  C 298.52 516.26 284.29 521.33 273.56 530.50
  C 260.67 541.52 251.56 555.73 249.04 572.50
  C 245.53 595.91 254.05 618.34 271.73 633.62
  Q 292.51 651.56 320.96 649.50
  C 347.23 647.59 368.99 631.44 378.89 607.27
  A 0.33 0.33 0.0 0 0 378.36 606.91
  Q 360.11 623.96 335.19 622.83
  C 310.55 621.73 291.04 606.60 284.29 582.68
  C 276.87 556.38 289.34 529.76 312.33 516.07
  A 0.27 0.27 0.0 0 0 312.18 515.57"
/>
<path stroke="#cb9991" vector-effect="non-scaling-stroke" d="
  M 1184.90 515.54
  C 1171.23 516.25 1157.00 521.34 1146.27 530.53
  C 1133.38 541.57 1124.28 555.80 1121.78 572.59
  C 1118.29 596.02 1126.85 618.46 1144.56 633.73
  Q 1165.37 651.66 1193.84 649.56
  C 1220.13 647.62 1241.89 631.43 1251.77 607.23
  A 0.33 0.33 0.0 0 0 1251.24 606.87
  Q 1232.99 623.96 1208.05 622.86
  C 1183.39 621.78 1163.85 606.67 1157.07 582.73
  C 1149.61 556.42 1162.06 529.77 1185.05 516.04
  A 0.27 0.27 0.0 0 0 1184.90 515.54"
/>
<path stroke="#cb9991" vector-effect="non-scaling-stroke" d="
  M 600.49 520.03
  C 622.53 539.47 629.52 573.44 612.08 598.45
  C 602.83 611.71 587.57 621.16 571.30 621.56
  Q 541.86 622.31 521.59 600.95
  A 0.48 0.47 -75.0 0 0 520.79 601.42
  C 531.73 639.57 575.27 660.73 612.06 644.81
  C 635.53 634.65 650.31 612.41 651.62 586.55
  C 652.87 562.24 639.18 537.99 618.03 526.19
  C 612.91 523.34 606.72 521.43 600.80 519.50
  A 0.31 0.31 0.0 0 0 600.49 520.03"
/>
<path stroke="#cb9991" vector-effect="non-scaling-stroke" d="
  M 1487.18 520.00
  C 1509.15 539.52 1516.02 573.52 1498.49 598.47
  C 1489.19 611.70 1473.90 621.09 1457.62 621.44
  Q 1428.18 622.08 1407.98 600.65
  A 0.48 0.47 -74.8 0 0 1407.18 601.11
  C 1417.99 639.31 1461.45 660.62 1498.30 644.83
  C 1521.81 634.76 1536.67 612.57 1538.08 586.71
  C 1539.41 562.40 1525.81 538.10 1504.70 526.23
  C 1499.59 523.36 1493.40 521.42 1487.49 519.47
  A 0.31 0.31 0.0 0 0 1487.18 520.00"
/>
<path stroke="#cb9991" vector-effect="non-scaling-stroke" d="
  M 819.43 576.02
  Q 839.56 560.17 865.23 564.77
  Q 878.67 567.18 887.84 575.42
  C 905.99 591.74 911.99 615.10 903.00 638.06
  Q 898.71 649.00 891.10 657.23
  A 0.31 0.31 0.0 0 0 891.42 657.74
  Q 908.14 652.55 919.21 639.29
  C 926.48 630.60 931.42 620.88 933.09 609.77
  Q 934.96 597.42 932.77 587.22
  C 929.49 571.95 920.97 557.57 907.41 548.67
  Q 888.85 536.49 868.25 538.45
  C 845.96 540.58 827.78 555.30 818.83 575.56
  A 0.39 0.39 0.0 0 0 819.43 576.02"
/>
<path stroke="#cb9991" vector-effect="non-scaling-stroke" d="
  M 472.53 774.88
  A 0.27 0.26 61.5 0 0 472.67 774.40
  Q 455.78 762.32 448.80 742.52
  C 438.77 714.06 444.37 682.84 469.73 665.62
  A 0.34 0.34 0.0 0 0 469.55 665.00
  Q 437.23 664.57 419.93 691.12
  C 410.49 705.60 409.13 725.66 415.88 741.19
  C 425.71 763.88 447.62 775.89 472.53 774.88"
/>
<path stroke="#cb9991" vector-effect="non-scaling-stroke" d="
  M 1359.06 774.80
  A 0.27 0.26 61.5 0 0 1359.20 774.32
  Q 1342.30 762.26 1335.30 742.48
  C 1325.25 714.05 1330.81 682.84 1356.14 665.60
  A 0.34 0.34 0.0 0 0 1355.96 664.98
  Q 1323.66 664.58 1306.39 691.14
  C 1296.97 705.62 1295.64 725.67 1302.40 741.19
  C 1312.25 763.85 1334.16 775.84 1359.06 774.80"
/>
<path stroke="#cb9991" vector-effect="non-scaling-stroke" d="
  M 658.15 766.50
  A 0.25 0.25 0.0 0 0 657.77 766.79
  C 666.66 787.38 686.10 803.07 708.06 807.56
  Q 730.62 812.17 752.43 802.41
  C 765.15 796.72 777.09 784.36 782.93 771.78
  Q 795.49 744.75 784.49 716.89
  Q 781.76 709.99 777.71 704.30
  C 770.94 694.79 762.04 685.86 751.07 681.14
  Q 742.87 677.62 735.87 675.92
  A 0.33 0.32 -17.9 0 0 735.58 676.48
  C 745.71 684.83 752.00 696.53 755.55 708.90
  C 759.62 723.09 756.35 739.40 749.66 752.21
  C 744.04 762.99 735.31 770.69 724.15 775.90
  Q 716.76 779.35 715.17 779.76
  Q 688.54 786.57 665.88 772.05
  Q 662.07 769.61 658.15 766.50"
/>
<path stroke="#cb9991" vector-effect="non-scaling-stroke" d="
  M 1544.24 766.82
  Q 1549.91 779.76 1560.54 789.74
  C 1582.62 810.46 1617.73 815.67 1643.91 799.70
  C 1666.90 785.67 1679.50 759.31 1675.32 732.48
  Q 1673.88 723.22 1671.04 716.71
  Q 1665.31 703.56 1654.74 693.19
  C 1645.27 683.91 1634.47 678.66 1622.07 675.91
  A 0.20 0.20 0.0 0 0 1621.89 676.26
  Q 1635.99 688.62 1641.39 706.28
  C 1647.25 725.47 1642.61 746.39 1629.38 761.76
  Q 1613.55 780.15 1589.29 781.49
  Q 1564.04 782.89 1544.83 766.39
  A 0.38 0.37 8.6 0 0 1544.24 766.82"
/>
<path stroke="#cb9991" vector-effect="non-scaling-stroke" d="
  M 165.64 823.25
  C 188.42 818.10 205.12 803.29 212.33 781.24
  C 224.85 742.94 198.90 703.64 159.73 699.44
  C 132.95 696.58 108.63 711.20 97.93 735.55
  A 0.39 0.39 0.0 0 0 98.53 736.01
  C 140.41 703.23 197.31 740.50 184.49 791.87
  Q 179.93 810.12 165.32 822.62
  A 0.36 0.36 0.0 0 0 165.64 823.25"
/>
<path stroke="#cb9991" vector-effect="non-scaling-stroke" d="
  M 1038.16 823.28
  C 1060.95 818.19 1077.68 803.42 1084.93 781.39
  C 1097.53 743.13 1071.68 703.78 1032.53 699.50
  C 1005.76 696.58 981.42 711.14 970.67 735.46
  A 0.39 0.39 0.0 0 0 971.26 735.92
  C 1013.20 703.24 1070.01 740.63 1057.08 791.96
  Q 1052.48 810.19 1037.85 822.65
  A 0.36 0.36 0.0 0 0 1038.16 823.28"
/>
<path stroke="#cb9991" vector-effect="non-scaling-stroke" d="
  M 925.66 941.94
  A 0.33 0.33 0.0 0 0 925.50 941.31
  Q 917.83 941.61 909.68 940.08
  C 898.98 938.07 887.65 930.52 880.16 922.83
  C 870.52 912.92 864.70 897.18 864.71 883.55
  Q 864.73 866.04 874.76 852.15
  Q 891.20 829.39 918.99 826.68
  A 0.15 0.15 0.0 0 0 919.02 826.39
  C 901.20 819.64 884.44 821.13 867.62 828.92
  C 855.14 834.70 842.70 847.79 837.35 860.73
  C 831.15 875.75 830.03 893.26 836.41 908.60
  Q 841.73 921.39 848.55 928.71
  C 856.58 937.31 868.22 944.54 880.50 947.21
  Q 904.24 952.37 925.66 941.94"
/>
<path stroke="#cb9991" vector-effect="non-scaling-stroke" d="
  M 585.23 828.67
  A 0.25 0.25 0.0 0 0 585.09 828.21
  C 567.37 828.61 550.43 837.02 539.99 851.49
  C 527.68 868.55 526.31 890.85 536.94 908.96
  Q 554.82 939.40 591.92 936.94
  Q 593.80 936.81 594.97 936.40
  A 0.38 0.38 0.0 0 0 594.99 935.69
  Q 575.64 927.55 565.36 908.89
  C 550.21 881.37 558.25 845.81 585.23 828.67"
/>
<path stroke="#cb9991" vector-effect="non-scaling-stroke" d="
  M 1471.60 828.73
  A 0.25 0.25 0.0 0 0 1471.46 828.27
  C 1453.74 828.68 1436.79 837.11 1426.36 851.60
  C 1414.06 868.68 1412.71 890.99 1423.36 909.10
  Q 1441.28 939.54 1478.39 937.04
  Q 1480.27 936.91 1481.44 936.50
  A 0.38 0.38 0.0 0 0 1481.46 935.79
  Q 1462.10 927.66 1451.80 909.00
  C 1436.61 881.48 1444.63 845.90 1471.60 828.73"
/>
<path stroke="#cb9991" vector-effect="non-scaling-stroke" d="
  M 278.99 924.83
  Q 279.18 925.17 279.66 925.58
  Q 296.10 939.47 317.76 940.59
  C 341.20 941.81 361.27 929.14 371.31 908.16
  C 384.58 880.40 372.23 849.17 348.00 832.78
  A 0.41 0.41 0.0 0 0 347.39 833.28
  Q 352.79 846.37 351.48 860.48
  C 349.90 877.38 342.81 894.16 330.59 905.61
  C 316.90 918.44 298.35 926.68 279.39 924.24
  A 0.40 0.40 0.0 0 0 278.99 924.83"
/>
<path stroke="#cb9991" vector-effect="non-scaling-stroke" d="
  M 1224.15 897.31
  Q 1219.47 903.53 1216.12 906.63
  Q 1198.41 923.04 1174.46 924.63
  Q 1169.47 924.96 1165.49 924.44
  A 0.35 0.35 0.0 0 0 1165.21 925.05
  C 1190.73 947.70 1230.81 946.16 1251.87 918.15
  C 1272.93 890.14 1263.27 851.20 1234.42 832.98
  A 0.35 0.35 0.0 0 0 1233.91 833.42
  Q 1235.52 837.10 1236.59 841.98
  Q 1241.72 865.43 1230.87 887.01
  Q 1228.83 891.08 1224.15 897.31"
/>
<path stroke="#cb9991" vector-effect="non-scaling-stroke" d="
  M 181.59 967.60
  C 159.71 967.71 138.78 978.59 126.46 996.89
  C 113.60 1015.99 111.56 1040.64 121.29 1061.52
  C 140.47 1102.71 193.44 1112.96 226.76 1081.82
  Q 234.41 1074.66 239.71 1065.34
  A 0.33 0.33 0.0 0 0 239.23 1064.90
  C 222.92 1076.69 202.87 1079.85 184.12 1072.92
  C 165.22 1065.94 151.35 1048.14 149.08 1028.14
  Q 147.33 1012.65 153.73 997.90
  Q 162.00 978.83 181.79 968.37
  A 0.42 0.41 30.6 0 0 181.59 967.60"
/>
<path stroke="#cb9991" vector-effect="non-scaling-stroke" d="
  M 1054.34 967.63
  C 1032.46 967.72 1011.54 978.57 999.20 996.83
  C 986.32 1015.91 984.25 1040.54 993.95 1061.43
  C 1013.07 1102.62 1066.00 1112.92 1099.33 1081.85
  Q 1106.99 1074.70 1112.30 1065.39
  A 0.33 0.33 0.0 0 0 1111.82 1064.95
  C 1095.50 1076.71 1075.46 1079.84 1056.73 1072.90
  C 1037.85 1065.89 1024.01 1048.09 1021.77 1028.09
  Q 1020.04 1012.61 1026.45 997.88
  Q 1034.74 978.84 1054.54 968.41
  A 0.41 0.41 0.0 0 0 1054.34 967.63"
/>
<path stroke="#cb9991" vector-effect="non-scaling-stroke" d="
  M 763.56 974.19
  Q 763.22 973.85 762.67 973.66
  Q 755.55 971.23 745.92 970.22
  C 710.35 966.52 676.10 993.52 673.45 1029.84
  Q 671.45 1057.41 688.42 1077.94
  C 709.88 1103.90 744.04 1109.24 773.40 1093.66
  Q 778.62 1090.89 782.44 1087.79
  A 0.39 0.39 0.0 0 0 782.10 1087.11
  Q 762.49 1092.07 744.96 1084.98
  Q 728.72 1078.41 718.99 1064.35
  C 707.96 1048.46 706.09 1025.79 714.78 1008.55
  Q 729.60 979.14 763.40 974.67
  A 0.28 0.28 0.0 0 0 763.56 974.19"
/>
<path stroke="#cb9991" vector-effect="non-scaling-stroke" d="
  M 1650.17 974.20
  Q 1649.83 973.86 1649.28 973.67
  Q 1642.16 971.23 1632.53 970.21
  C 1596.98 966.47 1562.71 993.42 1560.02 1029.73
  Q 1557.98 1057.29 1574.93 1077.84
  C 1596.35 1103.82 1630.50 1109.19 1659.87 1093.65
  Q 1665.09 1090.89 1668.91 1087.79
  A 0.39 0.39 0.0 0 0 1668.57 1087.11
  Q 1648.96 1092.05 1631.45 1084.94
  Q 1615.22 1078.35 1605.50 1064.29
  C 1594.50 1048.39 1592.65 1025.72 1601.36 1008.49
  Q 1616.21 979.11 1650.01 974.68
  A 0.28 0.28 0.0 0 0 1650.17 974.20"
/>
<path stroke="#cb9991" vector-effect="non-scaling-stroke" d="
  M 268.88 1158.27
  Q 268.79 1158.85 269.07 1159.64
  C 276.70 1180.97 295.91 1195.43 318.66 1195.86
  C 328.46 1196.05 337.62 1193.33 345.65 1187.68
  C 362.37 1175.93 369.70 1156.72 365.85 1136.79
  C 363.13 1122.69 354.02 1109.98 341.86 1101.84
  A 0.32 0.32 0.0 0 0 341.39 1102.23
  C 345.71 1112.53 347.16 1122.62 344.47 1133.74
  C 339.63 1153.80 323.89 1167.63 303.44 1169.14
  Q 283.91 1170.57 269.37 1158.10
  A 0.30 0.30 0.0 0 0 268.88 1158.27"
/>
<path stroke="#cb9991" vector-effect="non-scaling-stroke" d="
  M 1155.57 1158.39
  Q 1155.48 1158.97 1155.76 1159.75
  C 1163.43 1181.05 1182.66 1195.46 1205.39 1195.84
  C 1215.19 1196.01 1224.33 1193.27 1232.35 1187.61
  C 1249.03 1175.83 1256.31 1156.62 1252.42 1136.71
  C 1249.67 1122.63 1240.54 1109.94 1228.37 1101.84
  A 0.32 0.32 0.0 0 0 1227.90 1102.23
  C 1232.24 1112.51 1233.71 1122.59 1231.05 1133.71
  C 1226.26 1153.76 1210.56 1167.62 1190.13 1169.17
  Q 1170.61 1170.64 1156.06 1158.21
  A 0.30 0.30 0.0 0 0 1155.57 1158.39"
/>
<path stroke="#cb9991" vector-effect="non-scaling-stroke" d="
  M 573.75 1259.50
  Q 578.25 1259.53 583.22 1258.47
  Q 609.06 1252.92 623.77 1230.46
  C 636.88 1210.46 638.26 1183.76 625.77 1162.54
  C 611.05 1137.53 582.54 1125.16 554.23 1131.74
  C 536.01 1135.97 517.70 1150.21 510.57 1167.39
  A 0.37 0.36 -8.4 0 0 511.14 1167.81
  C 530.88 1152.08 558.37 1149.29 579.45 1164.30
  Q 598.62 1177.95 601.69 1202.06
  C 604.58 1224.77 592.52 1246.92 573.61 1259.03
  A 0.26 0.26 0.0 0 0 573.75 1259.50"
/>
<path stroke="#cb9991" vector-effect="non-scaling-stroke" d="
  M 1460.27 1259.45
  Q 1464.77 1259.48 1469.74 1258.42
  Q 1495.57 1252.87 1510.28 1230.41
  C 1523.38 1210.41 1524.76 1183.71 1512.27 1162.50
  C 1497.55 1137.49 1469.04 1125.13 1440.73 1131.71
  C 1422.52 1135.94 1404.21 1150.18 1397.09 1167.36
  A 0.37 0.36 -8.4 0 0 1397.66 1167.78
  C 1417.39 1152.05 1444.88 1149.26 1465.95 1164.26
  Q 1485.12 1177.91 1488.20 1202.02
  C 1491.09 1224.72 1479.03 1246.87 1460.13 1258.98
  A 0.26 0.26 0.0 0 0 1460.27 1259.45"
/>
<path stroke="#cb9991" vector-effect="non-scaling-stroke" d="
  M 946.18 1235.04
  A 0.28 0.28 0.0 0 0 946.50 1234.79
  C 948.84 1215.48 942.33 1198.30 928.40 1184.91
  C 911.69 1168.86 886.82 1165.25 866.19 1174.95
  Q 842.99 1185.85 835.19 1209.53
  C 829.62 1226.42 831.86 1244.93 840.97 1260.21
  A 0.47 0.47 0.0 0 0 841.84 1259.98
  Q 841.85 1259.20 841.95 1254.04
  C 842.14 1244.36 845.75 1234.48 851.18 1227.00
  Q 866.89 1205.39 894.01 1203.32
  C 916.40 1201.61 936.36 1214.76 945.78 1234.70
  Q 945.93 1235.00 946.18 1235.04"
/>
<path stroke="#cb9991" vector-effect="non-scaling-stroke" d="
  M 471.72 1271.38
  A 0.31 0.31 0.0 0 0 471.76 1270.78
  Q 444.62 1261.72 419.38 1274.17
  Q 411.43 1278.09 404.03 1285.88
  C 390.04 1300.59 382.99 1318.78 385.74 1339.07
  C 389.05 1363.68 407.22 1385.11 431.65 1391.33
  Q 454.85 1397.24 476.54 1386.65
  A 0.28 0.28 0.0 0 0 476.42 1386.12
  C 464.53 1385.85 454.30 1383.97 444.34 1376.98
  C 432.89 1368.96 423.56 1357.84 420.27 1344.12
  C 416.33 1327.76 418.46 1311.68 428.65 1297.61
  Q 445.01 1275.04 471.72 1271.38"
/>
<path stroke="#cb9991" vector-effect="non-scaling-stroke" d="
  M 1358.31 1271.39
  A 0.31 0.31 0.0 0 0 1358.36 1270.79
  Q 1331.21 1261.66 1305.92 1274.07
  Q 1297.96 1277.98 1290.53 1285.76
  C 1276.50 1300.45 1269.41 1318.64 1272.11 1338.95
  C 1275.37 1363.59 1293.51 1385.08 1317.95 1391.36
  Q 1341.16 1397.32 1362.89 1386.77
  A 0.28 0.28 0.0 0 0 1362.77 1386.24
  C 1350.87 1385.94 1340.64 1384.04 1330.68 1377.02
  C 1319.24 1368.97 1309.93 1357.82 1306.66 1344.08
  C 1302.76 1327.70 1304.92 1311.61 1315.15 1297.55
  Q 1331.57 1274.99 1358.31 1271.39"
/>
<path stroke="#cb9991" vector-effect="non-scaling-stroke" d="
  M 800.93 1325.76
  A 0.31 0.31 0.0 0 0 800.36 1325.62
  Q 788.52 1344.50 767.92 1351.41
  C 757.97 1354.75 746.03 1355.25 736.74 1351.80
  C 714.75 1343.63 699.71 1324.00 697.95 1300.10
  A 0.36 0.36 0.0 0 0 697.28 1299.96
  Q 687.69 1317.62 689.89 1336.54
  C 694.15 1373.38 733.06 1398.33 767.69 1381.86
  Q 790.32 1371.09 798.24 1347.23
  Q 801.87 1336.27 800.93 1325.76"
/>
<path stroke="#cb9991" vector-effect="non-scaling-stroke" d="
  M 1687.35 1325.96
  A 0.31 0.31 0.0 0 0 1686.78 1325.82
  Q 1674.89 1344.65 1654.27 1351.50
  C 1644.32 1354.81 1632.38 1355.27 1623.10 1351.79
  C 1601.14 1343.56 1586.17 1323.89 1584.48 1299.99
  A 0.36 0.36 0.0 0 0 1583.81 1299.85
  Q 1574.17 1317.47 1576.31 1336.40
  C 1580.46 1373.24 1619.28 1398.30 1653.95 1381.94
  Q 1676.61 1371.24 1684.60 1347.41
  Q 1688.26 1336.47 1687.35 1325.96"
/>
<path stroke="#cb9991" vector-effect="non-scaling-stroke" d="
  M 378.52 1493.77
  Q 377.40 1494.58 375.69 1495.95
  Q 358.48 1509.74 337.75 1509.54
  C 314.37 1509.32 295.02 1496.70 286.14 1475.24
  Q 282.80 1467.17 282.31 1460.98
  C 280.42 1437.28 291.69 1414.16 312.52 1402.23
  A 0.37 0.37 0.0 0 0 312.31 1401.54
  C 270.69 1404.47 240.23 1443.86 250.33 1484.96
  Q 257.26 1513.14 282.26 1527.44
  C 303.39 1539.53 328.08 1539.70 349.22 1527.93
  Q 369.29 1516.77 378.98 1494.14
  A 0.31 0.31 0.0 0 0 378.52 1493.77"
/>
<path stroke="#cb9991" vector-effect="non-scaling-stroke" d="
  M 1251.12 1493.74
  Q 1250.00 1494.55 1248.29 1495.92
  Q 1231.09 1509.72 1210.36 1509.53
  C 1186.97 1509.33 1167.62 1496.72 1158.72 1475.26
  Q 1155.38 1467.20 1154.88 1461.01
  C 1152.98 1437.31 1164.23 1414.18 1185.06 1402.24
  A 0.37 0.37 0.0 0 0 1184.85 1401.55
  C 1143.23 1404.50 1112.79 1443.91 1122.92 1485.01
  Q 1129.87 1513.18 1154.87 1527.47
  C 1176.01 1539.54 1200.70 1539.70 1221.84 1527.92
  Q 1241.90 1516.74 1251.58 1494.11
  A 0.31 0.31 0.0 0 0 1251.12 1493.74"
/>
<path stroke="#cb9991" vector-effect="non-scaling-stroke" d="
  M 520.51 1486.51
  C 524.96 1503.72 534.79 1516.12 549.67 1525.98
  Q 561.38 1533.73 575.87 1535.97
  C 580.60 1536.71 585.24 1536.15 589.43 1536.18
  C 600.85 1536.26 612.83 1532.01 622.07 1525.85
  Q 643.98 1511.22 649.94 1484.96
  C 658.01 1449.35 635.32 1414.90 600.75 1406.00
  A 0.38 0.38 0.0 0 0 600.40 1406.66
  C 617.42 1421.59 625.96 1445.03 620.13 1467.17
  C 617.56 1476.90 611.38 1486.84 604.07 1493.60
  Q 587.77 1508.66 566.55 1508.02
  C 552.10 1507.57 538.47 1501.79 527.68 1492.52
  Q 524.65 1489.92 521.13 1486.17
  A 0.37 0.36 16.1 0 0 520.51 1486.51"
/>
<path stroke="#cb9991" vector-effect="non-scaling-stroke" d="
  M 1533.32 1445.20
  Q 1532.96 1445.06 1532.95 1444.73
  Q 1532.92 1443.76 1532.17 1443.28
  A 0.92 0.88 4.5 0 1 1531.84 1442.91
  Q 1518.15 1414.69 1487.89 1406.17
  Q 1487.35 1406.02 1487.08 1406.09
  A 0.30 0.29 -31.1 0 0 1486.95 1406.59
  Q 1500.14 1418.49 1505.76 1435.58
  Q 1512.63 1456.47 1503.06 1477.03
  C 1495.38 1493.53 1476.51 1506.90 1458.25 1507.84
  C 1439.12 1508.83 1420.67 1500.58 1407.99 1486.37
  A 0.37 0.37 0.0 0 0 1407.35 1486.55
  Q 1407.27 1487.04 1407.49 1487.78
  Q 1415.17 1513.48 1437.93 1527.06
  Q 1456.57 1538.18 1477.71 1536.49
  Q 1494.63 1535.15 1509.59 1525.20
  C 1531.51 1510.62 1541.20 1483.47 1536.99 1457.99
  Q 1536.26 1453.60 1533.69 1446.76
  A 1.01 0.86 40.3 0 1 1533.64 1446.46
  L 1533.64 1445.68
  A 0.52 0.51 -79.1 0 0 1533.32 1445.20"
/>
<path stroke="#cb9991" vector-effect="non-scaling-stroke" d="
  M 890.85 1544.17
  Q 892.12 1544.07 894.64 1543.11
  C 922.56 1532.52 937.56 1505.32 933.42 1476.18
  Q 931.64 1463.70 924.49 1452.84
  C 912.50 1434.63 893.46 1424.00 871.48 1425.04
  C 848.03 1426.14 828.14 1440.14 819.08 1461.73
  A 0.48 0.48 0.0 0 0 819.83 1462.29
  Q 831.74 1452.59 847.17 1450.70
  Q 858.64 1449.30 870.87 1452.95
  C 888.09 1458.10 900.19 1470.52 904.74 1487.98
  Q 911.53 1514.13 897.23 1535.24
  Q 893.37 1540.93 890.65 1543.74
  A 0.25 0.25 0.0 0 0 890.85 1544.17"
/>
<path stroke="#a77dc4" vector-effect="non-scaling-stroke" d="
  M 1549.55 1549.52
  C 1544.64 1554.42 1540.08 1557.56 1532.97 1560.85
  C 1530.23 1562.11 1526.58 1562.67 1523.98 1564.22
  Q 1523.53 1564.49 1523.53 1565.17
  Q 1523.52 1565.84 1523.98 1566.12
  C 1526.57 1567.67 1530.22 1568.24 1532.96 1569.51
  C 1540.06 1572.82 1544.61 1575.98 1549.51 1580.89
  C 1554.41 1585.81 1557.55 1590.36 1560.84 1597.48
  C 1562.10 1600.22 1562.66 1603.87 1564.21 1606.46
  Q 1564.48 1606.92 1565.16 1606.92
  Q 1565.83 1606.92 1566.10 1606.46
  C 1567.66 1603.87 1568.23 1600.22 1569.50 1597.49
  C 1572.81 1590.38 1575.96 1585.84 1580.88 1580.94
  C 1585.80 1576.04 1590.35 1572.89 1597.47 1569.61
  C 1600.20 1568.35 1603.85 1567.79 1606.45 1566.24
  Q 1606.91 1565.96 1606.91 1565.29
  Q 1606.91 1564.61 1606.45 1564.34
  C 1603.86 1562.78 1600.21 1562.21 1597.48 1560.94
  C 1590.37 1557.63 1585.83 1554.48 1580.93 1549.56
  C 1576.03 1544.65 1572.88 1540.10 1569.60 1532.98
  C 1568.34 1530.24 1567.78 1526.59 1566.23 1523.99
  Q 1565.95 1523.54 1565.28 1523.54
  Q 1564.60 1523.54 1564.33 1523.99
  C 1562.77 1526.58 1562.20 1530.23 1560.93 1532.97
  C 1557.62 1540.07 1554.47 1544.62 1549.55 1549.52"
/>
<path stroke="#cb9991" vector-effect="non-scaling-stroke" d="
  M 469.13 1551.14
  Q 469.07 1551.09 469.07 1551.00
  A 0.22 0.10 -0.1 0 0 468.85 1550.90
  Q 441.38 1551.28 425.15 1569.55
  C 411.34 1585.09 407.00 1606.54 414.51 1625.86
  Q 423.87 1649.93 447.82 1659.03
  Q 460.91 1664.00 474.02 1661.86
  A 0.39 0.39 0.0 0 0 474.15 1661.14
  Q 455.19 1649.94 447.73 1629.05
  C 441.75 1612.29 440.73 1595.13 446.89 1578.46
  Q 453.40 1560.87 469.09 1551.59
  A 0.28 0.28 0.0 0 0 469.13 1551.14"
/>
<path stroke="#cb9991" vector-effect="non-scaling-stroke" d="
  M 1355.48 1551.08
  Q 1355.42 1551.03 1355.42 1550.94
  A 0.22 0.10 0.0 0 0 1355.20 1550.84
  Q 1327.72 1551.19 1311.46 1569.45
  C 1297.63 1584.99 1293.26 1606.44 1300.76 1625.78
  Q 1310.10 1649.87 1334.05 1659.00
  Q 1347.14 1663.99 1360.26 1661.86
  A 0.39 0.39 0.0 0 0 1360.39 1661.14
  Q 1341.43 1649.91 1333.99 1629.01
  C 1328.03 1612.23 1327.02 1595.06 1333.20 1578.39
  Q 1339.73 1560.80 1355.44 1551.53
  A 0.28 0.28 0.0 0 0 1355.48 1551.08"
/>
<path stroke="#cb9991" vector-effect="non-scaling-stroke" d="
  M 1622.34 1553.91
  C 1634.11 1565.55 1641.85 1580.38 1640.78 1597.75
  C 1639.09 1625.19 1619.55 1647.64 1591.82 1650.09
  Q 1569.03 1652.10 1549.91 1636.09
  Q 1547.86 1634.38 1546.02 1632.28
  A 0.50 0.49 36.3 0 0 1545.19 1632.40
  Q 1545.00 1632.83 1545.18 1633.37
  Q 1553.29 1657.18 1575.90 1669.63
  Q 1587.70 1676.12 1600.22 1676.97
  Q 1610.85 1677.69 1616.05 1676.64
  C 1634.70 1672.88 1650.15 1662.72 1660.01 1646.61
  C 1666.71 1635.66 1670.24 1621.06 1669.06 1608.57
  C 1666.59 1582.53 1648.19 1559.98 1622.69 1553.30
  A 0.36 0.36 0.0 0 0 1622.34 1553.91"
/>
<path stroke="#cb9991" vector-effect="non-scaling-stroke" d="
  M 741.30 1557.64
  Q 756.01 1574.64 755.09 1596.73
  C 754.76 1604.58 752.71 1611.85 748.86 1618.54
  Q 734.10 1644.22 705.28 1644.86
  C 697.43 1645.03 689.95 1643.33 682.87 1639.71
  A 0.49 0.49 0.0 0 0 682.26 1640.45
  C 698.20 1660.65 723.11 1669.70 747.59 1660.70
  Q 759.90 1656.17 768.08 1647.68
  C 780.12 1635.19 785.80 1616.27 782.01 1599.70
  Q 776.54 1575.76 754.70 1562.81
  Q 748.59 1559.18 741.68 1557.05
  A 0.37 0.36 77.9 0 0 741.30 1557.64"
/>
<path stroke="#cb9991" vector-effect="non-scaling-stroke" d="
  M 166.02 1709.59
  C 188.74 1704.29 205.33 1689.38 212.38 1667.29
  C 224.63 1628.94 198.43 1589.85 159.26 1585.92
  C 132.48 1583.25 108.28 1598.02 97.76 1622.43
  A 0.39 0.39 0.0 0 0 98.36 1622.88
  C 139.98 1589.84 197.09 1626.69 184.64 1678.11
  Q 180.20 1696.37 165.69 1708.96
  A 0.36 0.36 0.0 0 0 166.02 1709.59"
/>
<path stroke="#cb9991" vector-effect="non-scaling-stroke" d="
  M 1038.42 1709.74
  C 1061.16 1704.45 1077.77 1689.54 1084.85 1667.45
  C 1097.13 1629.08 1070.95 1589.95 1031.76 1585.98
  C 1004.97 1583.29 980.74 1598.05 970.19 1622.46
  A 0.39 0.39 0.0 0 0 970.79 1622.92
  C 1012.47 1589.89 1069.58 1626.81 1057.08 1678.25
  Q 1052.63 1696.52 1038.10 1709.11
  A 0.36 0.36 0.0 0 0 1038.42 1709.74"
/>
<path stroke="#cb9991" vector-effect="non-scaling-stroke" d="
  M 1751.21 0.00
  Q 1751.42 7.47 1753.72 14.51
  Q 1759.22 31.33 1773.00 42.01"
/>
<path stroke="#cb9991" vector-effect="non-scaling-stroke" d="
  M 1773.00 839.54
  Q 1759.44 850.40 1754.21 865.75
  Q 1748.82 881.58 1752.93 897.96
  Q 1757.43 915.91 1773.00 928.43"
/>
<path stroke="#cb9991" vector-effect="non-scaling-stroke" d="
  M 1773.00 1725.51
  Q 1750.85 1743.92 1750.79 1773.00"
/>
</g>
<path fill="#9765ba" d="
  M 358.73 0.00
  Q 353.96 9.93 346.30 17.81
  C 332.04 32.47 312.59 40.56 292.10 37.56
  A 0.20 0.20 0.0 0 0 291.94 37.91
  Q 310.99 55.87 337.47 53.98
  Q 363.62 52.11 379.09 32.33
  Q 389.82 18.60 391.32 0.00
  L 529.96 0.00
  Q 530.47 8.49 532.53 14.24
  Q 534.35 19.35 539.40 27.12
  C 551.02 44.99 574.22 53.13 595.15 50.06
  A 0.29 0.29 0.0 0 0 595.20 49.50
  Q 583.77 45.70 575.36 36.88
  Q 560.70 21.51 558.95 0.00
  L 832.29 0.00
  Q 832.14 13.92 836.68 24.34
  C 851.57 58.55 892.69 72.93 925.93 55.31
  A 0.39 0.39 0.0 0 0 925.72 54.57
  Q 900.07 56.01 882.20 38.05
  Q 865.94 21.69 864.69 0.00
  L 1231.47 0.00
  Q 1222.54 18.27 1205.02 29.05
  Q 1186.63 40.36 1164.81 37.57
  A 0.20 0.20 0.0 0 0 1164.65 37.92
  Q 1182.63 54.77 1207.60 54.12
  C 1230.20 53.53 1249.18 41.55 1258.53 21.24
  Q 1263.11 11.29 1264.04 0.00
  L 1402.84 0.00
  Q 1403.15 9.80 1407.33 18.67
  C 1418.30 41.90 1442.94 54.27 1468.10 50.08
  A 0.27 0.27 0.0 0 0 1468.14 49.56
  Q 1459.37 46.77 1451.95 40.27
  Q 1433.76 24.34 1431.72 0.00
  L 1718.94 0.00
  Q 1718.51 19.23 1728.78 34.46
  Q 1744.42 57.67 1773.00 62.43
  L 1773.00 283.61
  C 1748.46 285.30 1727.04 301.54 1720.92 325.68
  Q 1719.09 332.90 1719.01 343.30
  C 1718.93 354.27 1722.18 364.61 1727.77 373.56
  A 0.43 0.42 -63.2 0 0 1728.55 373.30
  Q 1727.18 354.44 1738.64 339.38
  Q 1751.73 322.18 1773.00 317.55
  L 1773.00 539.69
  Q 1746.74 534.41 1725.74 549.75
  Q 1711.70 560.00 1705.42 575.49
  A 0.36 0.36 0.0 0 0 1705.98 575.91
  Q 1725.53 560.66 1750.24 564.46
  Q 1762.09 566.29 1773.00 573.86
  L 1773.00 822.69
  C 1719.19 832.11 1699.02 898.60 1741.39 934.62
  Q 1754.52 945.79 1773.00 948.54
  L 1773.00 1169.71
  C 1744.76 1172.29 1723.35 1191.78 1719.40 1219.72
  Q 1716.29 1241.68 1727.50 1260.37
  A 0.38 0.38 0.0 0 0 1728.20 1260.16
  C 1727.93 1248.59 1730.00 1238.48 1736.58 1228.55
  Q 1742.63 1219.42 1752.47 1212.75
  Q 1761.80 1206.42 1773.00 1203.97
  L 1773.00 1426.30
  Q 1764.10 1424.58 1756.76 1425.06
  C 1734.19 1426.52 1714.09 1440.40 1705.67 1461.80
  A 0.40 0.39 -8.3 0 0 1706.28 1462.25
  Q 1727.10 1446.23 1753.16 1451.59
  Q 1763.20 1453.66 1773.00 1460.57
  L 1773.00 1709.33
  C 1746.16 1713.74 1725.76 1733.12 1719.68 1759.70
  Q 1718.81 1763.51 1718.53 1773.00
  L 1444.97 1773.00
  Q 1441.67 1747.00 1458.06 1727.03
  Q 1463.97 1719.83 1471.49 1715.37
  A 0.30 0.30 0.0 0 0 1471.32 1714.82
  C 1449.60 1716.06 1430.06 1727.93 1421.09 1747.68
  Q 1415.77 1759.38 1416.34 1773.00
  L 1262.09 1773.00
  Q 1262.50 1764.90 1261.40 1758.24
  Q 1257.46 1734.45 1238.48 1719.88
  A 0.33 0.33 0.0 0 0 1237.96 1720.24
  Q 1244.96 1743.20 1234.74 1765.03
  Q 1232.88 1769.00 1230.82 1773.00
  L 865.01 1773.00
  Q 864.39 1759.79 868.87 1749.41
  Q 881.29 1720.61 913.24 1713.56
  Q 914.04 1713.39 917.19 1712.63
  A 0.43 0.42 -42.4 0 0 917.23 1711.81
  C 875.93 1698.23 831.73 1728.72 832.37 1773.00
  L 558.65 1773.00
  Q 557.05 1762.38 559.35 1752.04
  Q 564.65 1728.20 585.13 1715.38
  A 0.32 0.32 0.0 0 0 584.94 1714.79
  C 570.81 1715.59 557.73 1720.76 547.28 1730.31
  Q 529.34 1746.69 529.74 1773.00
  L 375.61 1773.00
  Q 375.13 1768.59 375.09 1764.17
  Q 375.03 1758.24 374.43 1755.38
  Q 369.84 1733.60 351.96 1719.83
  A 0.37 0.36 -80.0 0 0 351.39 1720.23
  Q 356.84 1737.49 351.91 1754.96
  Q 349.52 1763.42 344.27 1773.00
  L 0.00 1773.00
  L 0.00 1725.72
  Q 9.94 1718.46 21.04 1715.07
  Q 26.10 1713.52 31.11 1712.60
  A 0.34 0.34 0.0 0 0 31.15 1711.94
  Q 15.77 1706.87 0.00 1709.38
  L 0.00 1460.29
  Q 9.30 1468.05 13.92 1476.60
  C 26.13 1499.14 21.42 1525.00 4.19 1543.66
  A 0.39 0.39 0.0 0 0 4.59 1544.29
  C 48.87 1530.49 61.55 1476.25 30.45 1442.80
  Q 18.69 1430.15 0.00 1426.21
  L 0.00 1203.69
  Q 12.42 1201.79 22.94 1204.57
  Q 48.22 1211.24 59.49 1234.94
  A 0.33 0.33 0.0 0 0 60.11 1234.83
  C 61.13 1223.21 59.58 1211.88 54.15 1201.32
  Q 45.85 1185.21 30.83 1176.64
  Q 16.96 1168.73 0.00 1169.79
  L 0.00 948.47
  Q 20.08 951.07 38.32 942.30
  Q 38.80 942.07 39.02 941.74
  A 0.25 0.25 0.0 0 0 38.80 941.35
  Q 17.33 942.17 0.00 928.25
  L 0.00 839.43
  Q 14.63 828.12 32.25 826.90
  A 0.41 0.41 0.0 0 0 32.36 826.10
  Q 16.37 820.57 0.00 822.62
  L 0.00 574.62
  Q 15.74 587.34 19.63 606.45
  C 23.38 624.91 16.79 643.81 4.05 657.21
  A 0.34 0.34 0.0 0 0 4.40 657.77
  Q 23.97 651.80 35.82 636.32
  C 49.20 618.83 52.51 595.59 44.11 575.42
  Q 31.99 546.27 0.00 539.45
  L 0.00 317.48
  Q 4.70 317.58 9.50 317.50
  Q 11.93 317.46 18.96 316.83
  C 42.49 314.73 63.46 327.26 73.17 348.54
  A 0.31 0.31 0.0 0 0 73.76 348.45
  Q 76.71 325.68 63.61 307.42
  Q 46.84 284.04 17.77 283.37
  Q 13.63 283.27 0.00 285.23
  L 0.00 58.26
  Q 27.51 68.74 53.55 55.20
  A 0.32 0.32 0.0 0 0 53.39 54.60
  C 47.51 54.92 41.39 54.75 35.70 53.27
  Q 10.89 46.81 0.00 22.07
  L 0.00 0.00
  L 358.73 0.00
  Z
  M 181.74 81.19
  C 159.83 81.25 138.86 92.09 126.48 110.37
  C 113.55 129.46 111.45 154.13 121.14 175.06
  C 140.23 216.34 193.23 226.73 226.66 195.65
  Q 234.34 188.50 239.67 179.18
  A 0.33 0.33 0.0 0 0 239.19 178.74
  C 222.83 190.50 202.75 193.61 184.00 186.63
  C 165.10 179.59 151.26 161.74 149.04 141.71
  Q 147.33 126.20 153.77 111.45
  Q 162.10 92.39 181.94 81.97
  A 0.42 0.41 30.7 0 0 181.74 81.19
  Z
  M 1054.32 81.31
  C 1032.45 81.40 1011.54 92.25 999.22 110.51
  C 986.34 129.58 984.28 154.20 993.98 175.07
  C 1013.09 216.24 1065.99 226.53 1099.31 195.47
  Q 1106.96 188.32 1112.27 179.01
  A 0.33 0.33 0.0 0 0 1111.79 178.57
  C 1095.48 190.33 1075.45 193.46 1056.73 186.53
  C 1037.86 179.53 1024.02 161.73 1021.77 141.75
  Q 1020.05 126.27 1026.45 111.55
  Q 1034.74 92.51 1054.52 82.09
  A 0.41 0.41 0.0 0 0 1054.32 81.31
  Z
  M 782.44 200.97
  Q 782.15 200.80 781.69 200.91
  C 763.33 205.28 743.92 201.90 729.54 189.39
  C 721.89 182.74 714.79 173.94 711.93 164.37
  C 705.16 141.60 712.03 118.03 729.87 102.44
  C 739.10 94.38 751.79 89.47 764.01 88.17
  A 0.35 0.35 0.0 0 0 764.06 87.49
  Q 760.38 86.54 756.32 85.50
  C 726.64 77.88 694.80 91.83 680.48 118.75
  C 670.58 137.38 670.72 161.47 680.97 180.00
  Q 694.93 205.23 720.10 212.87
  C 742.13 219.56 764.32 215.01 782.46 201.36
  A 0.24 0.24 0.0 0 0 782.44 200.97
  Z
  M 1650.33 87.82
  Q 1649.99 87.47 1649.44 87.28
  Q 1642.33 84.82 1632.70 83.77
  C 1597.14 79.92 1562.78 106.78 1559.97 143.09
  Q 1557.85 170.66 1574.74 191.27
  C 1596.09 217.32 1630.24 222.80 1659.67 207.35
  Q 1664.90 204.60 1668.73 201.51
  A 0.39 0.39 0.0 0 0 1668.39 200.83
  Q 1648.76 205.71 1631.27 198.54
  Q 1615.05 191.90 1605.37 177.81
  C 1594.41 161.87 1592.63 139.18 1601.40 121.97
  Q 1616.34 92.62 1650.17 88.29
  A 0.28 0.28 0.0 0 0 1650.33 87.82
  Z
  M 355.32 215.78
  C 356.60 219.50 358.76 224.52 359.32 228.54
  Q 362.45 251.04 348.02 267.57
  C 331.42 286.60 303.09 288.18 283.87 272.00
  A 0.44 0.44 0.0 0 0 283.16 272.47
  C 293.32 306.34 336.51 321.60 363.65 297.69
  Q 381.09 282.33 380.40 258.74
  C 379.88 240.86 370.28 225.36 355.72 215.47
  A 0.27 0.27 0.0 0 0 355.32 215.78
  Z
  M 1155.65 271.98
  Q 1155.56 272.56 1155.84 273.34
  C 1163.51 294.59 1182.71 308.96 1205.40 309.32
  C 1215.18 309.48 1224.29 306.74 1232.29 301.09
  C 1248.93 289.32 1256.18 270.15 1252.29 250.28
  C 1249.54 236.23 1240.42 223.57 1228.27 215.50
  A 0.32 0.32 0.0 0 0 1227.80 215.89
  C 1232.13 226.14 1233.61 236.20 1230.96 247.30
  C 1226.19 267.31 1210.54 281.15 1190.15 282.71
  Q 1170.67 284.19 1156.14 271.80
  A 0.30 0.30 0.0 0 0 1155.65 271.98
  Z
  M 574.01 372.86
  Q 578.50 372.87 583.46 371.79
  Q 609.24 366.13 623.83 343.64
  C 636.83 323.60 638.09 296.93 625.52 275.80
  C 610.71 250.88 582.18 238.66 553.93 245.36
  C 535.76 249.67 517.54 263.97 510.49 281.16
  A 0.37 0.36 -8.7 0 0 511.06 281.58
  C 530.71 265.78 558.15 262.87 579.27 277.76
  Q 598.48 291.31 601.65 315.37
  C 604.64 338.04 592.70 360.22 573.87 372.40
  A 0.26 0.25 28.3 0 0 574.01 372.86
  Z
  M 1460.54 372.90
  Q 1465.04 372.91 1470.00 371.83
  Q 1495.78 366.18 1510.38 343.69
  C 1523.40 323.67 1524.67 296.99 1512.11 275.85
  C 1497.31 250.93 1468.78 238.69 1440.53 245.38
  C 1422.35 249.67 1404.12 263.97 1397.07 281.16
  A 0.37 0.36 -8.6 0 0 1397.64 281.57
  C 1417.30 265.78 1444.74 262.89 1465.85 277.79
  Q 1485.05 291.35 1488.22 315.42
  C 1491.20 338.09 1479.24 360.26 1460.40 372.43
  A 0.26 0.25 28.3 0 0 1460.54 372.90
  Z
  M 946.18 348.72
  A 0.28 0.28 0.0 0 0 946.50 348.47
  C 948.93 329.19 942.51 312.00 928.65 298.56
  C 912.03 282.44 887.20 278.72 866.54 288.32
  Q 843.32 299.10 835.41 322.72
  C 829.77 339.57 831.92 358.07 840.95 373.38
  A 0.47 0.47 0.0 0 0 841.82 373.15
  Q 841.84 372.38 841.96 367.22
  C 842.19 357.55 845.85 347.70 851.31 340.25
  Q 867.10 318.73 894.21 316.79
  C 916.58 315.18 936.46 328.41 945.78 348.38
  Q 945.93 348.68 946.18 348.72
  Z
  M 485.76 384.52
  A 0.22 0.22 0.0 0 0 485.80 384.09
  Q 474.19 380.44 460.98 380.74
  Q 434.70 381.35 416.57 400.84
  C 394.54 424.54 393.13 459.40 413.97 484.42
  C 424.71 497.31 439.28 505.48 456.34 506.90
  Q 475.91 508.53 492.89 499.44
  A 0.34 0.33 30.2 0 0 492.72 498.81
  C 485.99 498.94 480.22 498.62 474.03 496.78
  C 453.72 490.75 437.00 474.34 433.57 452.84
  Q 429.45 426.86 444.78 407.77
  Q 460.85 387.76 485.76 384.52
  Z
  M 1344.54 384.48
  A 0.22 0.22 0.0 0 0 1344.58 384.05
  Q 1332.97 380.41 1319.76 380.73
  Q 1293.49 381.36 1275.39 400.86
  C 1253.38 424.57 1252.00 459.42 1272.86 484.42
  C 1283.61 497.29 1298.18 505.45 1315.24 506.85
  Q 1334.80 508.46 1351.77 499.36
  A 0.34 0.33 30.2 0 0 1351.60 498.73
  C 1344.87 498.87 1339.10 498.55 1332.91 496.72
  C 1312.60 490.71 1295.87 474.32 1292.43 452.83
  Q 1288.28 426.86 1303.59 407.76
  Q 1319.64 387.74 1344.54 384.48
  Z
  M 783.37 491.37
  C 781.55 492.16 779.83 493.37 778.09 494.08
  C 750.07 505.57 718.83 493.73 705.95 466.35
  Q 697.05 447.45 702.57 426.19
  A 0.25 0.25 0.0 0 0 702.16 425.95
  Q 685.40 441.70 683.94 464.27
  Q 683.12 476.98 688.43 487.92
  C 699.33 510.40 720.75 523.11 745.79 518.32
  Q 770.55 513.59 783.58 491.62
  A 0.17 0.17 0.0 0 0 783.37 491.37
  Z
  M 1669.86 491.43
  C 1668.04 492.22 1666.32 493.43 1664.58 494.14
  C 1636.53 505.59 1605.30 493.70 1592.45 466.29
  Q 1583.58 447.37 1589.13 426.11
  A 0.25 0.25 0.0 0 0 1588.72 425.87
  Q 1571.93 441.60 1570.44 464.17
  Q 1569.60 476.89 1574.90 487.84
  C 1585.77 510.34 1607.17 523.09 1632.23 518.34
  Q 1657.01 513.64 1670.07 491.68
  A 0.17 0.17 0.0 0 0 1669.86 491.43
  Z
  M 312.18 515.57
  C 298.52 516.26 284.29 521.33 273.56 530.50
  C 260.67 541.52 251.56 555.73 249.04 572.50
  C 245.53 595.91 254.05 618.34 271.73 633.62
  Q 292.51 651.56 320.96 649.50
  C 347.23 647.59 368.99 631.44 378.89 607.27
  A 0.33 0.33 0.0 0 0 378.36 606.91
  Q 360.11 623.96 335.19 622.83
  C 310.55 621.73 291.04 606.60 284.29 582.68
  C 276.87 556.38 289.34 529.76 312.33 516.07
  A 0.27 0.27 0.0 0 0 312.18 515.57
  Z
  M 1184.90 515.54
  C 1171.23 516.25 1157.00 521.34 1146.27 530.53
  C 1133.38 541.57 1124.28 555.80 1121.78 572.59
  C 1118.29 596.02 1126.85 618.46 1144.56 633.73
  Q 1165.37 651.66 1193.84 649.56
  C 1220.13 647.62 1241.89 631.43 1251.77 607.23
  A 0.33 0.33 0.0 0 0 1251.24 606.87
  Q 1232.99 623.96 1208.05 622.86
  C 1183.39 621.78 1163.85 606.67 1157.07 582.73
  C 1149.61 556.42 1162.06 529.77 1185.05 516.04
  A 0.27 0.27 0.0 0 0 1184.90 515.54
  Z
  M 600.49 520.03
  C 622.53 539.47 629.52 573.44 612.08 598.45
  C 602.83 611.71 587.57 621.16 571.30 621.56
  Q 541.86 622.31 521.59 600.95
  A 0.48 0.47 -75.0 0 0 520.79 601.42
  C 531.73 639.57 575.27 660.73 612.06 644.81
  C 635.53 634.65 650.31 612.41 651.62 586.55
  C 652.87 562.24 639.18 537.99 618.03 526.19
  C 612.91 523.34 606.72 521.43 600.80 519.50
  A 0.31 0.31 0.0 0 0 600.49 520.03
  Z
  M 1487.18 520.00
  C 1509.15 539.52 1516.02 573.52 1498.49 598.47
  C 1489.19 611.70 1473.90 621.09 1457.62 621.44
  Q 1428.18 622.08 1407.98 600.65
  A 0.48 0.47 -74.8 0 0 1407.18 601.11
  C 1417.99 639.31 1461.45 660.62 1498.30 644.83
  C 1521.81 634.76 1536.67 612.57 1538.08 586.71
  C 1539.41 562.40 1525.81 538.10 1504.70 526.23
  C 1499.59 523.36 1493.40 521.42 1487.49 519.47
  A 0.31 0.31 0.0 0 0 1487.18 520.00
  Z
  M 819.43 576.02
  Q 839.56 560.17 865.23 564.77
  Q 878.67 567.18 887.84 575.42
  C 905.99 591.74 911.99 615.10 903.00 638.06
  Q 898.71 649.00 891.10 657.23
  A 0.31 0.31 0.0 0 0 891.42 657.74
  Q 908.14 652.55 919.21 639.29
  C 926.48 630.60 931.42 620.88 933.09 609.77
  Q 934.96 597.42 932.77 587.22
  C 929.49 571.95 920.97 557.57 907.41 548.67
  Q 888.85 536.49 868.25 538.45
  C 845.96 540.58 827.78 555.30 818.83 575.56
  A 0.39 0.39 0.0 0 0 819.43 576.02
  Z
  M 472.53 774.88
  A 0.27 0.26 61.5 0 0 472.67 774.40
  Q 455.78 762.32 448.80 742.52
  C 438.77 714.06 444.37 682.84 469.73 665.62
  A 0.34 0.34 0.0 0 0 469.55 665.00
  Q 437.23 664.57 419.93 691.12
  C 410.49 705.60 409.13 725.66 415.88 741.19
  C 425.71 763.88 447.62 775.89 472.53 774.88
  Z
  M 1359.06 774.80
  A 0.27 0.26 61.5 0 0 1359.20 774.32
  Q 1342.30 762.26 1335.30 742.48
  C 1325.25 714.05 1330.81 682.84 1356.14 665.60
  A 0.34 0.34 0.0 0 0 1355.96 664.98
  Q 1323.66 664.58 1306.39 691.14
  C 1296.97 705.62 1295.64 725.67 1302.40 741.19
  C 1312.25 763.85 1334.16 775.84 1359.06 774.80
  Z
  M 658.15 766.50
  A 0.25 0.25 0.0 0 0 657.77 766.79
  C 666.66 787.38 686.10 803.07 708.06 807.56
  Q 730.62 812.17 752.43 802.41
  C 765.15 796.72 777.09 784.36 782.93 771.78
  Q 795.49 744.75 784.49 716.89
  Q 781.76 709.99 777.71 704.30
  C 770.94 694.79 762.04 685.86 751.07 681.14
  Q 742.87 677.62 735.87 675.92
  A 0.33 0.32 -17.9 0 0 735.58 676.48
  C 745.71 684.83 752.00 696.53 755.55 708.90
  C 759.62 723.09 756.35 739.40 749.66 752.21
  C 744.04 762.99 735.31 770.69 724.15 775.90
  Q 716.76 779.35 715.17 779.76
  Q 688.54 786.57 665.88 772.05
  Q 662.07 769.61 658.15 766.50
  Z
  M 1544.24 766.82
  Q 1549.91 779.76 1560.54 789.74
  C 1582.62 810.46 1617.73 815.67 1643.91 799.70
  C 1666.90 785.67 1679.50 759.31 1675.32 732.48
  Q 1673.88 723.22 1671.04 716.71
  Q 1665.31 703.56 1654.74 693.19
  C 1645.27 683.91 1634.47 678.66 1622.07 675.91
  A 0.20 0.20 0.0 0 0 1621.89 676.26
  Q 1635.99 688.62 1641.39 706.28
  C 1647.25 725.47 1642.61 746.39 1629.38 761.76
  Q 1613.55 780.15 1589.29 781.49
  Q 1564.04 782.89 1544.83 766.39
  A 0.38 0.37 8.6 0 0 1544.24 766.82
  Z
  M 165.64 823.25
  C 188.42 818.10 205.12 803.29 212.33 781.24
  C 224.85 742.94 198.90 703.64 159.73 699.44
  C 132.95 696.58 108.63 711.20 97.93 735.55
  A 0.39 0.39 0.0 0 0 98.53 736.01
  C 140.41 703.23 197.31 740.50 184.49 791.87
  Q 179.93 810.12 165.32 822.62
  A 0.36 0.36 0.0 0 0 165.64 823.25
  Z
  M 1038.16 823.28
  C 1060.95 818.19 1077.68 803.42 1084.93 781.39
  C 1097.53 743.13 1071.68 703.78 1032.53 699.50
  C 1005.76 696.58 981.42 711.14 970.67 735.46
  A 0.39 0.39 0.0 0 0 971.26 735.92
  C 1013.20 703.24 1070.01 740.63 1057.08 791.96
  Q 1052.48 810.19 1037.85 822.65
  A 0.36 0.36 0.0 0 0 1038.16 823.28
  Z
  M 925.66 941.94
  A 0.33 0.33 0.0 0 0 925.50 941.31
  Q 917.83 941.61 909.68 940.08
  C 898.98 938.07 887.65 930.52 880.16 922.83
  C 870.52 912.92 864.70 897.18 864.71 883.55
  Q 864.73 866.04 874.76 852.15
  Q 891.20 829.39 918.99 826.68
  A 0.15 0.15 0.0 0 0 919.02 826.39
  C 901.20 819.64 884.44 821.13 867.62 828.92
  C 855.14 834.70 842.70 847.79 837.35 860.73
  C 831.15 875.75 830.03 893.26 836.41 908.60
  Q 841.73 921.39 848.55 928.71
  C 856.58 937.31 868.22 944.54 880.50 947.21
  Q 904.24 952.37 925.66 941.94
  Z
  M 585.23 828.67
  A 0.25 0.25 0.0 0 0 585.09 828.21
  C 567.37 828.61 550.43 837.02 539.99 851.49
  C 527.68 868.55 526.31 890.85 536.94 908.96
  Q 554.82 939.40 591.92 936.94
  Q 593.80 936.81 594.97 936.40
  A 0.38 0.38 0.0 0 0 594.99 935.69
  Q 575.64 927.55 565.36 908.89
  C 550.21 881.37 558.25 845.81 585.23 828.67
  Z
  M 1471.60 828.73
  A 0.25 0.25 0.0 0 0 1471.46 828.27
  C 1453.74 828.68 1436.79 837.11 1426.36 851.60
  C 1414.06 868.68 1412.71 890.99 1423.36 909.10
  Q 1441.28 939.54 1478.39 937.04
  Q 1480.27 936.91 1481.44 936.50
  A 0.38 0.38 0.0 0 0 1481.46 935.79
  Q 1462.10 927.66 1451.80 909.00
  C 1436.61 881.48 1444.63 845.90 1471.60 828.73
  Z
  M 278.99 924.83
  Q 279.18 925.17 279.66 925.58
  Q 296.10 939.47 317.76 940.59
  C 341.20 941.81 361.27 929.14 371.31 908.16
  C 384.58 880.40 372.23 849.17 348.00 832.78
  A 0.41 0.41 0.0 0 0 347.39 833.28
  Q 352.79 846.37 351.48 860.48
  C 349.90 877.38 342.81 894.16 330.59 905.61
  C 316.90 918.44 298.35 926.68 279.39 924.24
  A 0.40 0.40 0.0 0 0 278.99 924.83
  Z
  M 1224.15 897.31
  Q 1219.47 903.53 1216.12 906.63
  Q 1198.41 923.04 1174.46 924.63
  Q 1169.47 924.96 1165.49 924.44
  A 0.35 0.35 0.0 0 0 1165.21 925.05
  C 1190.73 947.70 1230.81 946.16 1251.87 918.15
  C 1272.93 890.14 1263.27 851.20 1234.42 832.98
  A 0.35 0.35 0.0 0 0 1233.91 833.42
  Q 1235.52 837.10 1236.59 841.98
  Q 1241.72 865.43 1230.87 887.01
  Q 1228.83 891.08 1224.15 897.31
  Z
  M 181.59 967.60
  C 159.71 967.71 138.78 978.59 126.46 996.89
  C 113.60 1015.99 111.56 1040.64 121.29 1061.52
  C 140.47 1102.71 193.44 1112.96 226.76 1081.82
  Q 234.41 1074.66 239.71 1065.34
  A 0.33 0.33 0.0 0 0 239.23 1064.90
  C 222.92 1076.69 202.87 1079.85 184.12 1072.92
  C 165.22 1065.94 151.35 1048.14 149.08 1028.14
  Q 147.33 1012.65 153.73 997.90
  Q 162.00 978.83 181.79 968.37
  A 0.42 0.41 30.6 0 0 181.59 967.60
  Z
  M 1054.34 967.63
  C 1032.46 967.72 1011.54 978.57 999.20 996.83
  C 986.32 1015.91 984.25 1040.54 993.95 1061.43
  C 1013.07 1102.62 1066.00 1112.92 1099.33 1081.85
  Q 1106.99 1074.70 1112.30 1065.39
  A 0.33 0.33 0.0 0 0 1111.82 1064.95
  C 1095.50 1076.71 1075.46 1079.84 1056.73 1072.90
  C 1037.85 1065.89 1024.01 1048.09 1021.77 1028.09
  Q 1020.04 1012.61 1026.45 997.88
  Q 1034.74 978.84 1054.54 968.41
  A 0.41 0.41 0.0 0 0 1054.34 967.63
  Z
  M 763.56 974.19
  Q 763.22 973.85 762.67 973.66
  Q 755.55 971.23 745.92 970.22
  C 710.35 966.52 676.10 993.52 673.45 1029.84
  Q 671.45 1057.41 688.42 1077.94
  C 709.88 1103.90 744.04 1109.24 773.40 1093.66
  Q 778.62 1090.89 782.44 1087.79
  A 0.39 0.39 0.0 0 0 782.10 1087.11
  Q 762.49 1092.07 744.96 1084.98
  Q 728.72 1078.41 718.99 1064.35
  C 707.96 1048.46 706.09 1025.79 714.78 1008.55
  Q 729.60 979.14 763.40 974.67
  A 0.28 0.28 0.0 0 0 763.56 974.19
  Z
  M 1650.17 974.20
  Q 1649.83 973.86 1649.28 973.67
  Q 1642.16 971.23 1632.53 970.21
  C 1596.98 966.47 1562.71 993.42 1560.02 1029.73
  Q 1557.98 1057.29 1574.93 1077.84
  C 1596.35 1103.82 1630.50 1109.19 1659.87 1093.65
  Q 1665.09 1090.89 1668.91 1087.79
  A 0.39 0.39 0.0 0 0 1668.57 1087.11
  Q 1648.96 1092.05 1631.45 1084.94
  Q 1615.22 1078.35 1605.50 1064.29
  C 1594.50 1048.39 1592.65 1025.72 1601.36 1008.49
  Q 1616.21 979.11 1650.01 974.68
  A 0.28 0.28 0.0 0 0 1650.17 974.20
  Z
  M 268.88 1158.27
  Q 268.79 1158.85 269.07 1159.64
  C 276.70 1180.97 295.91 1195.43 318.66 1195.86
  C 328.46 1196.05 337.62 1193.33 345.65 1187.68
  C 362.37 1175.93 369.70 1156.72 365.85 1136.79
  C 363.13 1122.69 354.02 1109.98 341.86 1101.84
  A 0.32 0.32 0.0 0 0 341.39 1102.23
  C 345.71 1112.53 347.16 1122.62 344.47 1133.74
  C 339.63 1153.80 323.89 1167.63 303.44 1169.14
  Q 283.91 1170.57 269.37 1158.10
  A 0.30 0.30 0.0 0 0 268.88 1158.27
  Z
  M 1155.57 1158.39
  Q 1155.48 1158.97 1155.76 1159.75
  C 1163.43 1181.05 1182.66 1195.46 1205.39 1195.84
  C 1215.19 1196.01 1224.33 1193.27 1232.35 1187.61
  C 1249.03 1175.83 1256.31 1156.62 1252.42 1136.71
  C 1249.67 1122.63 1240.54 1109.94 1228.37 1101.84
  A 0.32 0.32 0.0 0 0 1227.90 1102.23
  C 1232.24 1112.51 1233.71 1122.59 1231.05 1133.71
  C 1226.26 1153.76 1210.56 1167.62 1190.13 1169.17
  Q 1170.61 1170.64 1156.06 1158.21
  A 0.30 0.30 0.0 0 0 1155.57 1158.39
  Z
  M 573.75 1259.50
  Q 578.25 1259.53 583.22 1258.47
  Q 609.06 1252.92 623.77 1230.46
  C 636.88 1210.46 638.26 1183.76 625.77 1162.54
  C 611.05 1137.53 582.54 1125.16 554.23 1131.74
  C 536.01 1135.97 517.70 1150.21 510.57 1167.39
  A 0.37 0.36 -8.4 0 0 511.14 1167.81
  C 530.88 1152.08 558.37 1149.29 579.45 1164.30
  Q 598.62 1177.95 601.69 1202.06
  C 604.58 1224.77 592.52 1246.92 573.61 1259.03
  A 0.26 0.26 0.0 0 0 573.75 1259.50
  Z
  M 1460.27 1259.45
  Q 1464.77 1259.48 1469.74 1258.42
  Q 1495.57 1252.87 1510.28 1230.41
  C 1523.38 1210.41 1524.76 1183.71 1512.27 1162.50
  C 1497.55 1137.49 1469.04 1125.13 1440.73 1131.71
  C 1422.52 1135.94 1404.21 1150.18 1397.09 1167.36
  A 0.37 0.36 -8.4 0 0 1397.66 1167.78
  C 1417.39 1152.05 1444.88 1149.26 1465.95 1164.26
  Q 1485.12 1177.91 1488.20 1202.02
  C 1491.09 1224.72 1479.03 1246.87 1460.13 1258.98
  A 0.26 0.26 0.0 0 0 1460.27 1259.45
  Z
  M 946.18 1235.04
  A 0.28 0.28 0.0 0 0 946.50 1234.79
  C 948.84 1215.48 942.33 1198.30 928.40 1184.91
  C 911.69 1168.86 886.82 1165.25 866.19 1174.95
  Q 842.99 1185.85 835.19 1209.53
  C 829.62 1226.42 831.86 1244.93 840.97 1260.21
  A 0.47 0.47 0.0 0 0 841.84 1259.98
  Q 841.85 1259.20 841.95 1254.04
  C 842.14 1244.36 845.75 1234.48 851.18 1227.00
  Q 866.89 1205.39 894.01 1203.32
  C 916.40 1201.61 936.36 1214.76 945.78 1234.70
  Q 945.93 1235.00 946.18 1235.04
  Z
  M 471.72 1271.38
  A 0.31 0.31 0.0 0 0 471.76 1270.78
  Q 444.62 1261.72 419.38 1274.17
  Q 411.43 1278.09 404.03 1285.88
  C 390.04 1300.59 382.99 1318.78 385.74 1339.07
  C 389.05 1363.68 407.22 1385.11 431.65 1391.33
  Q 454.85 1397.24 476.54 1386.65
  A 0.28 0.28 0.0 0 0 476.42 1386.12
  C 464.53 1385.85 454.30 1383.97 444.34 1376.98
  C 432.89 1368.96 423.56 1357.84 420.27 1344.12
  C 416.33 1327.76 418.46 1311.68 428.65 1297.61
  Q 445.01 1275.04 471.72 1271.38
  Z
  M 1358.31 1271.39
  A 0.31 0.31 0.0 0 0 1358.36 1270.79
  Q 1331.21 1261.66 1305.92 1274.07
  Q 1297.96 1277.98 1290.53 1285.76
  C 1276.50 1300.45 1269.41 1318.64 1272.11 1338.95
  C 1275.37 1363.59 1293.51 1385.08 1317.95 1391.36
  Q 1341.16 1397.32 1362.89 1386.77
  A 0.28 0.28 0.0 0 0 1362.77 1386.24
  C 1350.87 1385.94 1340.64 1384.04 1330.68 1377.02
  C 1319.24 1368.97 1309.93 1357.82 1306.66 1344.08
  C 1302.76 1327.70 1304.92 1311.61 1315.15 1297.55
  Q 1331.57 1274.99 1358.31 1271.39
  Z
  M 800.93 1325.76
  A 0.31 0.31 0.0 0 0 800.36 1325.62
  Q 788.52 1344.50 767.92 1351.41
  C 757.97 1354.75 746.03 1355.25 736.74 1351.80
  C 714.75 1343.63 699.71 1324.00 697.95 1300.10
  A 0.36 0.36 0.0 0 0 697.28 1299.96
  Q 687.69 1317.62 689.89 1336.54
  C 694.15 1373.38 733.06 1398.33 767.69 1381.86
  Q 790.32 1371.09 798.24 1347.23
  Q 801.87 1336.27 800.93 1325.76
  Z
  M 1687.35 1325.96
  A 0.31 0.31 0.0 0 0 1686.78 1325.82
  Q 1674.89 1344.65 1654.27 1351.50
  C 1644.32 1354.81 1632.38 1355.27 1623.10 1351.79
  C 1601.14 1343.56 1586.17 1323.89 1584.48 1299.99
  A 0.36 0.36 0.0 0 0 1583.81 1299.85
  Q 1574.17 1317.47 1576.31 1336.40
  C 1580.46 1373.24 1619.28 1398.30 1653.95 1381.94
  Q 1676.61 1371.24 1684.60 1347.41
  Q 1688.26 1336.47 1687.35 1325.96
  Z
  M 378.52 1493.77
  Q 377.40 1494.58 375.69 1495.95
  Q 358.48 1509.74 337.75 1509.54
  C 314.37 1509.32 295.02 1496.70 286.14 1475.24
  Q 282.80 1467.17 282.31 1460.98
  C 280.42 1437.28 291.69 1414.16 312.52 1402.23
  A 0.37 0.37 0.0 0 0 312.31 1401.54
  C 270.69 1404.47 240.23 1443.86 250.33 1484.96
  Q 257.26 1513.14 282.26 1527.44
  C 303.39 1539.53 328.08 1539.70 349.22 1527.93
  Q 369.29 1516.77 378.98 1494.14
  A 0.31 0.31 0.0 0 0 378.52 1493.77
  Z
  M 1251.12 1493.74
  Q 1250.00 1494.55 1248.29 1495.92
  Q 1231.09 1509.72 1210.36 1509.53
  C 1186.97 1509.33 1167.62 1496.72 1158.72 1475.26
  Q 1155.38 1467.20 1154.88 1461.01
  C 1152.98 1437.31 1164.23 1414.18 1185.06 1402.24
  A 0.37 0.37 0.0 0 0 1184.85 1401.55
  C 1143.23 1404.50 1112.79 1443.91 1122.92 1485.01
  Q 1129.87 1513.18 1154.87 1527.47
  C 1176.01 1539.54 1200.70 1539.70 1221.84 1527.92
  Q 1241.90 1516.74 1251.58 1494.11
  A 0.31 0.31 0.0 0 0 1251.12 1493.74
  Z
  M 520.51 1486.51
  C 524.96 1503.72 534.79 1516.12 549.67 1525.98
  Q 561.38 1533.73 575.87 1535.97
  C 580.60 1536.71 585.24 1536.15 589.43 1536.18
  C 600.85 1536.26 612.83 1532.01 622.07 1525.85
  Q 643.98 1511.22 649.94 1484.96
  C 658.01 1449.35 635.32 1414.90 600.75 1406.00
  A 0.38 0.38 0.0 0 0 600.40 1406.66
  C 617.42 1421.59 625.96 1445.03 620.13 1467.17
  C 617.56 1476.90 611.38 1486.84 604.07 1493.60
  Q 587.77 1508.66 566.55 1508.02
  C 552.10 1507.57 538.47 1501.79 527.68 1492.52
  Q 524.65 1489.92 521.13 1486.17
  A 0.37 0.36 16.1 0 0 520.51 1486.51
  Z
  M 1533.32 1445.20
  Q 1532.96 1445.06 1532.95 1444.73
  Q 1532.92 1443.76 1532.17 1443.28
  A 0.92 0.88 4.5 0 1 1531.84 1442.91
  Q 1518.15 1414.69 1487.89 1406.17
  Q 1487.35 1406.02 1487.08 1406.09
  A 0.30 0.29 -31.1 0 0 1486.95 1406.59
  Q 1500.14 1418.49 1505.76 1435.58
  Q 1512.63 1456.47 1503.06 1477.03
  C 1495.38 1493.53 1476.51 1506.90 1458.25 1507.84
  C 1439.12 1508.83 1420.67 1500.58 1407.99 1486.37
  A 0.37 0.37 0.0 0 0 1407.35 1486.55
  Q 1407.27 1487.04 1407.49 1487.78
  Q 1415.17 1513.48 1437.93 1527.06
  Q 1456.57 1538.18 1477.71 1536.49
  Q 1494.63 1535.15 1509.59 1525.20
  C 1531.51 1510.62 1541.20 1483.47 1536.99 1457.99
  Q 1536.26 1453.60 1533.69 1446.76
  A 1.01 0.86 40.3 0 1 1533.64 1446.46
  L 1533.64 1445.68
  A 0.52 0.51 -79.1 0 0 1533.32 1445.20
  Z
  M 890.85 1544.17
  Q 892.12 1544.07 894.64 1543.11
  C 922.56 1532.52 937.56 1505.32 933.42 1476.18
  Q 931.64 1463.70 924.49 1452.84
  C 912.50 1434.63 893.46 1424.00 871.48 1425.04
  C 848.03 1426.14 828.14 1440.14 819.08 1461.73
  A 0.48 0.48 0.0 0 0 819.83 1462.29
  Q 831.74 1452.59 847.17 1450.70
  Q 858.64 1449.30 870.87 1452.95
  C 888.09 1458.10 900.19 1470.52 904.74 1487.98
  Q 911.53 1514.13 897.23 1535.24
  Q 893.37 1540.93 890.65 1543.74
  A 0.25 0.25 0.0 0 0 890.85 1544.17
  Z
  M 1549.55 1549.52
  C 1544.64 1554.42 1540.08 1557.56 1532.97 1560.85
  C 1530.23 1562.11 1526.58 1562.67 1523.98 1564.22
  Q 1523.53 1564.49 1523.53 1565.17
  Q 1523.52 1565.84 1523.98 1566.12
  C 1526.57 1567.67 1530.22 1568.24 1532.96 1569.51
  C 1540.06 1572.82 1544.61 1575.98 1549.51 1580.89
  C 1554.41 1585.81 1557.55 1590.36 1560.84 1597.48
  C 1562.10 1600.22 1562.66 1603.87 1564.21 1606.46
  Q 1564.48 1606.92 1565.16 1606.92
  Q 1565.83 1606.92 1566.10 1606.46
  C 1567.66 1603.87 1568.23 1600.22 1569.50 1597.49
  C 1572.81 1590.38 1575.96 1585.84 1580.88 1580.94
  C 1585.80 1576.04 1590.35 1572.89 1597.47 1569.61
  C 1600.20 1568.35 1603.85 1567.79 1606.45 1566.24
  Q 1606.91 1565.96 1606.91 1565.29
  Q 1606.91 1564.61 1606.45 1564.34
  C 1603.86 1562.78 1600.21 1562.21 1597.48 1560.94
  C 1590.37 1557.63 1585.83 1554.48 1580.93 1549.56
  C 1576.03 1544.65 1572.88 1540.10 1569.60 1532.98
  C 1568.34 1530.24 1567.78 1526.59 1566.23 1523.99
  Q 1565.95 1523.54 1565.28 1523.54
  Q 1564.60 1523.54 1564.33 1523.99
  C 1562.77 1526.58 1562.20 1530.23 1560.93 1532.97
  C 1557.62 1540.07 1554.47 1544.62 1549.55 1549.52
  Z
  M 469.13 1551.14
  Q 469.07 1551.09 469.07 1551.00
  A 0.22 0.10 -0.1 0 0 468.85 1550.90
  Q 441.38 1551.28 425.15 1569.55
  C 411.34 1585.09 407.00 1606.54 414.51 1625.86
  Q 423.87 1649.93 447.82 1659.03
  Q 460.91 1664.00 474.02 1661.86
  A 0.39 0.39 0.0 0 0 474.15 1661.14
  Q 455.19 1649.94 447.73 1629.05
  C 441.75 1612.29 440.73 1595.13 446.89 1578.46
  Q 453.40 1560.87 469.09 1551.59
  A 0.28 0.28 0.0 0 0 469.13 1551.14
  Z
  M 1355.48 1551.08
  Q 1355.42 1551.03 1355.42 1550.94
  A 0.22 0.10 0.0 0 0 1355.20 1550.84
  Q 1327.72 1551.19 1311.46 1569.45
  C 1297.63 1584.99 1293.26 1606.44 1300.76 1625.78
  Q 1310.10 1649.87 1334.05 1659.00
  Q 1347.14 1663.99 1360.26 1661.86
  A 0.39 0.39 0.0 0 0 1360.39 1661.14
  Q 1341.43 1649.91 1333.99 1629.01
  C 1328.03 1612.23 1327.02 1595.06 1333.20 1578.39
  Q 1339.73 1560.80 1355.44 1551.53
  A 0.28 0.28 0.0 0 0 1355.48 1551.08
  Z
  M 1622.34 1553.91
  C 1634.11 1565.55 1641.85 1580.38 1640.78 1597.75
  C 1639.09 1625.19 1619.55 1647.64 1591.82 1650.09
  Q 1569.03 1652.10 1549.91 1636.09
  Q 1547.86 1634.38 1546.02 1632.28
  A 0.50 0.49 36.3 0 0 1545.19 1632.40
  Q 1545.00 1632.83 1545.18 1633.37
  Q 1553.29 1657.18 1575.90 1669.63
  Q 1587.70 1676.12 1600.22 1676.97
  Q 1610.85 1677.69 1616.05 1676.64
  C 1634.70 1672.88 1650.15 1662.72 1660.01 1646.61
  C 1666.71 1635.66 1670.24 1621.06 1669.06 1608.57
  C 1666.59 1582.53 1648.19 1559.98 1622.69 1553.30
  A 0.36 0.36 0.0 0 0 1622.34 1553.91
  Z
  M 741.30 1557.64
  Q 756.01 1574.64 755.09 1596.73
  C 754.76 1604.58 752.71 1611.85 748.86 1618.54
  Q 734.10 1644.22 705.28 1644.86
  C 697.43 1645.03 689.95 1643.33 682.87 1639.71
  A 0.49 0.49 0.0 0 0 682.26 1640.45
  C 698.20 1660.65 723.11 1669.70 747.59 1660.70
  Q 759.90 1656.17 768.08 1647.68
  C 780.12 1635.19 785.80 1616.27 782.01 1599.70
  Q 776.54 1575.76 754.70 1562.81
  Q 748.59 1559.18 741.68 1557.05
  A 0.37 0.36 77.9 0 0 741.30 1557.64
  Z
  M 166.02 1709.59
  C 188.74 1704.29 205.33 1689.38 212.38 1667.29
  C 224.63 1628.94 198.43 1589.85 159.26 1585.92
  C 132.48 1583.25 108.28 1598.02 97.76 1622.43
  A 0.39 0.39 0.0 0 0 98.36 1622.88
  C 139.98 1589.84 197.09 1626.69 184.64 1678.11
  Q 180.20 1696.37 165.69 1708.96
  A 0.36 0.36 0.0 0 0 166.02 1709.59
  Z
  M 1038.42 1709.74
  C 1061.16 1704.45 1077.77 1689.54 1084.85 1667.45
  C 1097.13 1629.08 1070.95 1589.95 1031.76 1585.98
  C 1004.97 1583.29 980.74 1598.05 970.19 1622.46
  A 0.39 0.39 0.0 0 0 970.79 1622.92
  C 1012.47 1589.89 1069.58 1626.81 1057.08 1678.25
  Q 1052.63 1696.52 1038.10 1709.11
  A 0.36 0.36 0.0 0 0 1038.42 1709.74
  Z"
/>
<path fill="#ffcc67" d="
  M 391.32 0.00
  Q 389.82 18.60 379.09 32.33
  Q 363.62 52.11 337.47 53.98
  Q 310.99 55.87 291.94 37.91
  A 0.20 0.20 0.0 0 1 292.10 37.56
  C 312.59 40.56 332.04 32.47 346.30 17.81
  Q 353.96 9.93 358.73 0.00
  L 391.32 0.00
  Z"
/>
<path fill="#ffcc67" d="
  M 558.95 0.00
  Q 560.70 21.51 575.36 36.88
  Q 583.77 45.70 595.20 49.50
  A 0.29 0.29 0.0 0 1 595.15 50.06
  C 574.22 53.13 551.02 44.99 539.40 27.12
  Q 534.35 19.35 532.53 14.24
  Q 530.47 8.49 529.96 0.00
  L 558.95 0.00
  Z"
/>
<path fill="#ffcc67" d="
  M 864.69 0.00
  Q 865.94 21.69 882.20 38.05
  Q 900.07 56.01 925.72 54.57
  A 0.39 0.39 0.0 0 1 925.93 55.31
  C 892.69 72.93 851.57 58.55 836.68 24.34
  Q 832.14 13.92 832.29 0.00
  L 864.69 0.00
  Z"
/>
<path fill="#ffcc67" d="
  M 1264.04 0.00
  Q 1263.11 11.29 1258.53 21.24
  C 1249.18 41.55 1230.20 53.53 1207.60 54.12
  Q 1182.63 54.77 1164.65 37.92
  A 0.20 0.20 0.0 0 1 1164.81 37.57
  Q 1186.63 40.36 1205.02 29.05
  Q 1222.54 18.27 1231.47 0.00
  L 1264.04 0.00
  Z"
/>
<path fill="#ffcc67" d="
  M 1431.72 0.00
  Q 1433.76 24.34 1451.95 40.27
  Q 1459.37 46.77 1468.14 49.56
  A 0.27 0.27 0.0 0 1 1468.10 50.08
  C 1442.94 54.27 1418.30 41.90 1407.33 18.67
  Q 1403.15 9.80 1402.84 0.00
  L 1431.72 0.00
  Z"
/>
<path fill="#ffcc67" d="
  M 1751.21 0.00
  Q 1751.42 7.47 1753.72 14.51
  Q 1759.22 31.33 1773.00 42.01
  L 1773.00 62.43
  Q 1744.42 57.67 1728.78 34.46
  Q 1718.51 19.23 1718.94 0.00
  L 1751.21 0.00
  Z"
/>
<path fill="#9765ba" d="
  M 1773.00 0.00
  L 1773.00 42.01
  Q 1759.22 31.33 1753.72 14.51
  Q 1751.42 7.47 1751.21 0.00
  L 1773.00 0.00
  Z"
/>
<path fill="#ffcc67" d="
  M 0.00 58.26
  L 0.00 22.07
  Q 10.89 46.81 35.70 53.27
  C 41.39 54.75 47.51 54.92 53.39 54.60
  A 0.32 0.32 0.0 0 1 53.55 55.20
  Q 27.51 68.74 0.00 58.26
  Z"
/>
<path fill="#ffcc67" d="
  M 181.74 81.19
  A 0.42 0.41 30.7 0 1 181.94 81.97
  Q 162.10 92.39 153.77 111.45
  Q 147.33 126.20 149.04 141.71
  C 151.26 161.74 165.10 179.59 184.00 186.63
  C 202.75 193.61 222.83 190.50 239.19 178.74
  A 0.33 0.33 0.0 0 1 239.67 179.18
  Q 234.34 188.50 226.66 195.65
  C 193.23 226.73 140.23 216.34 121.14 175.06
  C 111.45 154.13 113.55 129.46 126.48 110.37
  C 138.86 92.09 159.83 81.25 181.74 81.19
  Z"
/>
<path fill="#ffcc67" d="
  M 1054.32 81.31
  A 0.41 0.41 0.0 0 1 1054.52 82.09
  Q 1034.74 92.51 1026.45 111.55
  Q 1020.05 126.27 1021.77 141.75
  C 1024.02 161.73 1037.86 179.53 1056.73 186.53
  C 1075.45 193.46 1095.48 190.33 1111.79 178.57
  A 0.33 0.33 0.0 0 1 1112.27 179.01
  Q 1106.96 188.32 1099.31 195.47
  C 1065.99 226.53 1013.09 216.24 993.98 175.07
  C 984.28 154.20 986.34 129.58 999.22 110.51
  C 1011.54 92.25 1032.45 81.40 1054.32 81.31
  Z"
/>
<path fill="#ffcc67" d="
  M 782.44 200.97
  A 0.24 0.24 0.0 0 1 782.46 201.36
  C 764.32 215.01 742.13 219.56 720.10 212.87
  Q 694.93 205.23 680.97 180.00
  C 670.72 161.47 670.58 137.38 680.48 118.75
  C 694.80 91.83 726.64 77.88 756.32 85.50
  Q 760.38 86.54 764.06 87.49
  A 0.35 0.35 0.0 0 1 764.01 88.17
  C 751.79 89.47 739.10 94.38 729.87 102.44
  C 712.03 118.03 705.16 141.60 711.93 164.37
  C 714.79 173.94 721.89 182.74 729.54 189.39
  C 743.92 201.90 763.33 205.28 781.69 200.91
  Q 782.15 200.80 782.44 200.97
  Z"
/>
<path fill="#ffcc67" d="
  M 1650.33 87.82
  A 0.28 0.28 0.0 0 1 1650.17 88.29
  Q 1616.34 92.62 1601.40 121.97
  C 1592.63 139.18 1594.41 161.87 1605.37 177.81
  Q 1615.05 191.90 1631.27 198.54
  Q 1648.76 205.71 1668.39 200.83
  A 0.39 0.39 0.0 0 1 1668.73 201.51
  Q 1664.90 204.60 1659.67 207.35
  C 1630.24 222.80 1596.09 217.32 1574.74 191.27
  Q 1557.85 170.66 1559.97 143.09
  C 1562.78 106.78 1597.14 79.92 1632.70 83.77
  Q 1642.33 84.82 1649.44 87.28
  Q 1649.99 87.47 1650.33 87.82
  Z"
/>
<path fill="#ffcc67" d="
  M 355.32 215.78
  A 0.27 0.27 0.0 0 1 355.72 215.47
  C 370.28 225.36 379.88 240.86 380.40 258.74
  Q 381.09 282.33 363.65 297.69
  C 336.51 321.60 293.32 306.34 283.16 272.47
  A 0.44 0.44 0.0 0 1 283.87 272.00
  C 303.09 288.18 331.42 286.60 348.02 267.57
  Q 362.45 251.04 359.32 228.54
  C 358.76 224.52 356.60 219.50 355.32 215.78
  Z"
/>
<path fill="#ffcc67" d="
  M 1155.65 271.98
  A 0.30 0.30 0.0 0 1 1156.14 271.80
  Q 1170.67 284.19 1190.15 282.71
  C 1210.54 281.15 1226.19 267.31 1230.96 247.30
  C 1233.61 236.20 1232.13 226.14 1227.80 215.89
  A 0.32 0.32 0.0 0 1 1228.27 215.50
  C 1240.42 223.57 1249.54 236.23 1252.29 250.28
  C 1256.18 270.15 1248.93 289.32 1232.29 301.09
  C 1224.29 306.74 1215.18 309.48 1205.40 309.32
  C 1182.71 308.96 1163.51 294.59 1155.84 273.34
  Q 1155.56 272.56 1155.65 271.98
  Z"
/>
<path fill="#ffcc67" d="
  M 574.01 372.86
  A 0.26 0.25 28.3 0 1 573.87 372.40
  C 592.70 360.22 604.64 338.04 601.65 315.37
  Q 598.48 291.31 579.27 277.76
  C 558.15 262.87 530.71 265.78 511.06 281.58
  A 0.37 0.36 -8.7 0 1 510.49 281.16
  C 517.54 263.97 535.76 249.67 553.93 245.36
  C 582.18 238.66 610.71 250.88 625.52 275.80
  C 638.09 296.93 636.83 323.60 623.83 343.64
  Q 609.24 366.13 583.46 371.79
  Q 578.50 372.87 574.01 372.86
  Z"
/>
<path fill="#ffcc67" d="
  M 1460.54 372.90
  A 0.26 0.25 28.3 0 1 1460.40 372.43
  C 1479.24 360.26 1491.20 338.09 1488.22 315.42
  Q 1485.05 291.35 1465.85 277.79
  C 1444.74 262.89 1417.30 265.78 1397.64 281.57
  A 0.37 0.36 -8.6 0 1 1397.07 281.16
  C 1404.12 263.97 1422.35 249.67 1440.53 245.38
  C 1468.78 238.69 1497.31 250.93 1512.11 275.85
  C 1524.67 296.99 1523.40 323.67 1510.38 343.69
  Q 1495.78 366.18 1470.00 371.83
  Q 1465.04 372.91 1460.54 372.90
  Z"
/>
<path fill="#ffcc67" d="
  M 946.18 348.72
  Q 945.93 348.68 945.78 348.38
  C 936.46 328.41 916.58 315.18 894.21 316.79
  Q 867.10 318.73 851.31 340.25
  C 845.85 347.70 842.19 357.55 841.96 367.22
  Q 841.84 372.38 841.82 373.15
  A 0.47 0.47 0.0 0 1 840.95 373.38
  C 831.92 358.07 829.77 339.57 835.41 322.72
  Q 843.32 299.10 866.54 288.32
  C 887.20 278.72 912.03 282.44 928.65 298.56
  C 942.51 312.00 948.93 329.19 946.50 348.47
  A 0.28 0.28 0.0 0 1 946.18 348.72
  Z"
/>
<path fill="#ffcc67" d="
  M 0.00 317.48
  L 0.00 285.23
  Q 13.63 283.27 17.77 283.37
  Q 46.84 284.04 63.61 307.42
  Q 76.71 325.68 73.76 348.45
  A 0.31 0.31 0.0 0 1 73.17 348.54
  C 63.46 327.26 42.49 314.73 18.96 316.83
  Q 11.93 317.46 9.50 317.50
  Q 4.70 317.58 0.00 317.48
  Z"
/>
<path fill="#ffcc67" d="
  M 1773.00 283.61
  L 1773.00 317.55
  Q 1751.73 322.18 1738.64 339.38
  Q 1727.18 354.44 1728.55 373.30
  A 0.43 0.42 -63.2 0 1 1727.77 373.56
  C 1722.18 364.61 1718.93 354.27 1719.01 343.30
  Q 1719.09 332.90 1720.92 325.68
  C 1727.04 301.54 1748.46 285.30 1773.00 283.61
  Z"
/>
<path fill="#ffcc67" d="
  M 485.76 384.52
  Q 460.85 387.76 444.78 407.77
  Q 429.45 426.86 433.57 452.84
  C 437.00 474.34 453.72 490.75 474.03 496.78
  C 480.22 498.62 485.99 498.94 492.72 498.81
  A 0.34 0.33 30.2 0 1 492.89 499.44
  Q 475.91 508.53 456.34 506.90
  C 439.28 505.48 424.71 497.31 413.97 484.42
  C 393.13 459.40 394.54 424.54 416.57 400.84
  Q 434.70 381.35 460.98 380.74
  Q 474.19 380.44 485.80 384.09
  A 0.22 0.22 0.0 0 1 485.76 384.52
  Z"
/>
<path fill="#ffcc67" d="
  M 1344.54 384.48
  Q 1319.64 387.74 1303.59 407.76
  Q 1288.28 426.86 1292.43 452.83
  C 1295.87 474.32 1312.60 490.71 1332.91 496.72
  C 1339.10 498.55 1344.87 498.87 1351.60 498.73
  A 0.34 0.33 30.2 0 1 1351.77 499.36
  Q 1334.80 508.46 1315.24 506.85
  C 1298.18 505.45 1283.61 497.29 1272.86 484.42
  C 1252.00 459.42 1253.38 424.57 1275.39 400.86
  Q 1293.49 381.36 1319.76 380.73
  Q 1332.97 380.41 1344.58 384.05
  A 0.22 0.22 0.0 0 1 1344.54 384.48
  Z"
/>
<path fill="#ffcc67" d="
  M 783.37 491.37
  A 0.17 0.17 0.0 0 1 783.58 491.62
  Q 770.55 513.59 745.79 518.32
  C 720.75 523.11 699.33 510.40 688.43 487.92
  Q 683.12 476.98 683.94 464.27
  Q 685.40 441.70 702.16 425.95
  A 0.25 0.25 0.0 0 1 702.57 426.19
  Q 697.05 447.45 705.95 466.35
  C 718.83 493.73 750.07 505.57 778.09 494.08
  C 779.83 493.37 781.55 492.16 783.37 491.37
  Z"
/>
<path fill="#ffcc67" d="
  M 1669.86 491.43
  A 0.17 0.17 0.0 0 1 1670.07 491.68
  Q 1657.01 513.64 1632.23 518.34
  C 1607.17 523.09 1585.77 510.34 1574.90 487.84
  Q 1569.60 476.89 1570.44 464.17
  Q 1571.93 441.60 1588.72 425.87
  A 0.25 0.25 0.0 0 1 1589.13 426.11
  Q 1583.58 447.37 1592.45 466.29
  C 1605.30 493.70 1636.53 505.59 1664.58 494.14
  C 1666.32 493.43 1668.04 492.22 1669.86 491.43
  Z"
/>
<path fill="#ffcc67" d="
  M 312.18 515.57
  A 0.27 0.27 0.0 0 1 312.33 516.07
  C 289.34 529.76 276.87 556.38 284.29 582.68
  C 291.04 606.60 310.55 621.73 335.19 622.83
  Q 360.11 623.96 378.36 606.91
  A 0.33 0.33 0.0 0 1 378.89 607.27
  C 368.99 631.44 347.23 647.59 320.96 649.50
  Q 292.51 651.56 271.73 633.62
  C 254.05 618.34 245.53 595.91 249.04 572.50
  C 251.56 555.73 260.67 541.52 273.56 530.50
  C 284.29 521.33 298.52 516.26 312.18 515.57
  Z"
/>
<path fill="#ffcc67" d="
  M 1184.90 515.54
  A 0.27 0.27 0.0 0 1 1185.05 516.04
  C 1162.06 529.77 1149.61 556.42 1157.07 582.73
  C 1163.85 606.67 1183.39 621.78 1208.05 622.86
  Q 1232.99 623.96 1251.24 606.87
  A 0.33 0.33 0.0 0 1 1251.77 607.23
  C 1241.89 631.43 1220.13 647.62 1193.84 649.56
  Q 1165.37 651.66 1144.56 633.73
  C 1126.85 618.46 1118.29 596.02 1121.78 572.59
  C 1124.28 555.80 1133.38 541.57 1146.27 530.53
  C 1157.00 521.34 1171.23 516.25 1184.90 515.54
  Z"
/>
<path fill="#ffcc67" d="
  M 600.49 520.03
  A 0.31 0.31 0.0 0 1 600.80 519.50
  C 606.72 521.43 612.91 523.34 618.03 526.19
  C 639.18 537.99 652.87 562.24 651.62 586.55
  C 650.31 612.41 635.53 634.65 612.06 644.81
  C 575.27 660.73 531.73 639.57 520.79 601.42
  A 0.48 0.47 -75.0 0 1 521.59 600.95
  Q 541.86 622.31 571.30 621.56
  C 587.57 621.16 602.83 611.71 612.08 598.45
  C 629.52 573.44 622.53 539.47 600.49 520.03
  Z"
/>
<path fill="#ffcc67" d="
  M 1487.18 520.00
  A 0.31 0.31 0.0 0 1 1487.49 519.47
  C 1493.40 521.42 1499.59 523.36 1504.70 526.23
  C 1525.81 538.10 1539.41 562.40 1538.08 586.71
  C 1536.67 612.57 1521.81 634.76 1498.30 644.83
  C 1461.45 660.62 1417.99 639.31 1407.18 601.11
  A 0.48 0.47 -74.8 0 1 1407.98 600.65
  Q 1428.18 622.08 1457.62 621.44
  C 1473.90 621.09 1489.19 611.70 1498.49 598.47
  C 1516.02 573.52 1509.15 539.52 1487.18 520.00
  Z"
/>
<path fill="#ffcc67" d="
  M 819.43 576.02
  A 0.39 0.39 0.0 0 1 818.83 575.56
  C 827.78 555.30 845.96 540.58 868.25 538.45
  Q 888.85 536.49 907.41 548.67
  C 920.97 557.57 929.49 571.95 932.77 587.22
  Q 934.96 597.42 933.09 609.77
  C 931.42 620.88 926.48 630.60 919.21 639.29
  Q 908.14 652.55 891.42 657.74
  A 0.31 0.31 0.0 0 1 891.10 657.23
  Q 898.71 649.00 903.00 638.06
  C 911.99 615.10 905.99 591.74 887.84 575.42
  Q 878.67 567.18 865.23 564.77
  Q 839.56 560.17 819.43 576.02
  Z"
/>
<path fill="#ffcc67" d="
  M 1773.00 539.69
  L 1773.00 573.86
  Q 1762.09 566.29 1750.24 564.46
  Q 1725.53 560.66 1705.98 575.91
  A 0.36 0.36 0.0 0 1 1705.42 575.49
  Q 1711.70 560.00 1725.74 549.75
  Q 1746.74 534.41 1773.00 539.69
  Z"
/>
<path fill="#ffcc67" d="
  M 0.00 574.62
  L 0.00 539.45
  Q 31.99 546.27 44.11 575.42
  C 52.51 595.59 49.20 618.83 35.82 636.32
  Q 23.97 651.80 4.40 657.77
  A 0.34 0.34 0.0 0 1 4.05 657.21
  C 16.79 643.81 23.38 624.91 19.63 606.45
  Q 15.74 587.34 0.00 574.62
  Z"
/>
<path fill="#ffcc67" d="
  M 472.53 774.88
  C 447.62 775.89 425.71 763.88 415.88 741.19
  C 409.13 725.66 410.49 705.60 419.93 691.12
  Q 437.23 664.57 469.55 665.00
  A 0.34 0.34 0.0 0 1 469.73 665.62
  C 444.37 682.84 438.77 714.06 448.80 742.52
  Q 455.78 762.32 472.67 774.40
  A 0.27 0.26 61.5 0 1 472.53 774.88
  Z"
/>
<path fill="#ffcc67" d="
  M 1359.06 774.80
  C 1334.16 775.84 1312.25 763.85 1302.40 741.19
  C 1295.64 725.67 1296.97 705.62 1306.39 691.14
  Q 1323.66 664.58 1355.96 664.98
  A 0.34 0.34 0.0 0 1 1356.14 665.60
  C 1330.81 682.84 1325.25 714.05 1335.30 742.48
  Q 1342.30 762.26 1359.20 774.32
  A 0.27 0.26 61.5 0 1 1359.06 774.80
  Z"
/>
<path fill="#ffcc67" d="
  M 658.15 766.50
  Q 662.07 769.61 665.88 772.05
  Q 688.54 786.57 715.17 779.76
  Q 716.76 779.35 724.15 775.90
  C 735.31 770.69 744.04 762.99 749.66 752.21
  C 756.35 739.40 759.62 723.09 755.55 708.90
  C 752.00 696.53 745.71 684.83 735.58 676.48
  A 0.33 0.32 -17.9 0 1 735.87 675.92
  Q 742.87 677.62 751.07 681.14
  C 762.04 685.86 770.94 694.79 777.71 704.30
  Q 781.76 709.99 784.49 716.89
  Q 795.49 744.75 782.93 771.78
  C 777.09 784.36 765.15 796.72 752.43 802.41
  Q 730.62 812.17 708.06 807.56
  C 686.10 803.07 666.66 787.38 657.77 766.79
  A 0.25 0.25 0.0 0 1 658.15 766.50
  Z"
/>
<path fill="#ffcc67" d="
  M 1544.24 766.82
  A 0.38 0.37 8.6 0 1 1544.83 766.39
  Q 1564.04 782.89 1589.29 781.49
  Q 1613.55 780.15 1629.38 761.76
  C 1642.61 746.39 1647.25 725.47 1641.39 706.28
  Q 1635.99 688.62 1621.89 676.26
  A 0.20 0.20 0.0 0 1 1622.07 675.91
  C 1634.47 678.66 1645.27 683.91 1654.74 693.19
  Q 1665.31 703.56 1671.04 716.71
  Q 1673.88 723.22 1675.32 732.48
  C 1679.50 759.31 1666.90 785.67 1643.91 799.70
  C 1617.73 815.67 1582.62 810.46 1560.54 789.74
  Q 1549.91 779.76 1544.24 766.82
  Z"
/>
<path fill="#ffcc67" d="
  M 165.64 823.25
  A 0.36 0.36 0.0 0 1 165.32 822.62
  Q 179.93 810.12 184.49 791.87
  C 197.31 740.50 140.41 703.23 98.53 736.01
  A 0.39 0.39 0.0 0 1 97.93 735.55
  C 108.63 711.20 132.95 696.58 159.73 699.44
  C 198.90 703.64 224.85 742.94 212.33 781.24
  C 205.12 803.29 188.42 818.10 165.64 823.25
  Z"
/>
<path fill="#ffcc67" d="
  M 1038.16 823.28
  A 0.36 0.36 0.0 0 1 1037.85 822.65
  Q 1052.48 810.19 1057.08 791.96
  C 1070.01 740.63 1013.20 703.24 971.26 735.92
  A 0.39 0.39 0.0 0 1 970.67 735.46
  C 981.42 711.14 1005.76 696.58 1032.53 699.50
  C 1071.68 703.78 1097.53 743.13 1084.93 781.39
  C 1077.68 803.42 1060.95 818.19 1038.16 823.28
  Z"
/>
<path fill="#ffcc67" d="
  M 0.00 839.43
  L 0.00 822.62
  Q 16.37 820.57 32.36 826.10
  A 0.41 0.41 0.0 0 1 32.25 826.90
  Q 14.63 828.12 0.00 839.43
  Z"
/>
<path fill="#ffcc67" d="
  M 925.66 941.94
  Q 904.24 952.37 880.50 947.21
  C 868.22 944.54 856.58 937.31 848.55 928.71
  Q 841.73 921.39 836.41 908.60
  C 830.03 893.26 831.15 875.75 837.35 860.73
  C 842.70 847.79 855.14 834.70 867.62 828.92
  C 884.44 821.13 901.20 819.64 919.02 826.39
  A 0.15 0.15 0.0 0 1 918.99 826.68
  Q 891.20 829.39 874.76 852.15
  Q 864.73 866.04 864.71 883.55
  C 864.70 897.18 870.52 912.92 880.16 922.83
  C 887.65 930.52 898.98 938.07 909.68 940.08
  Q 917.83 941.61 925.50 941.31
  A 0.33 0.33 0.0 0 1 925.66 941.94
  Z"
/>
<path fill="#ffcc67" d="
  M 1773.00 822.69
  L 1773.00 839.54
  Q 1759.44 850.40 1754.21 865.75
  Q 1748.82 881.58 1752.93 897.96
  Q 1757.43 915.91 1773.00 928.43
  L 1773.00 948.54
  Q 1754.52 945.79 1741.39 934.62
  C 1699.02 898.60 1719.19 832.11 1773.00 822.69
  Z"
/>
<path fill="#ffcc67" d="
  M 585.23 828.67
  C 558.25 845.81 550.21 881.37 565.36 908.89
  Q 575.64 927.55 594.99 935.69
  A 0.38 0.38 0.0 0 1 594.97 936.40
  Q 593.80 936.81 591.92 936.94
  Q 554.82 939.40 536.94 908.96
  C 526.31 890.85 527.68 868.55 539.99 851.49
  C 550.43 837.02 567.37 828.61 585.09 828.21
  A 0.25 0.25 0.0 0 1 585.23 828.67
  Z"
/>
<path fill="#ffcc67" d="
  M 1471.60 828.73
  C 1444.63 845.90 1436.61 881.48 1451.80 909.00
  Q 1462.10 927.66 1481.46 935.79
  A 0.38 0.38 0.0 0 1 1481.44 936.50
  Q 1480.27 936.91 1478.39 937.04
  Q 1441.28 939.54 1423.36 909.10
  C 1412.71 890.99 1414.06 868.68 1426.36 851.60
  C 1436.79 837.11 1453.74 828.68 1471.46 828.27
  A 0.25 0.25 0.0 0 1 1471.60 828.73
  Z"
/>
<path fill="#ffcc67" d="
  M 278.99 924.83
  A 0.40 0.40 0.0 0 1 279.39 924.24
  C 298.35 926.68 316.90 918.44 330.59 905.61
  C 342.81 894.16 349.90 877.38 351.48 860.48
  Q 352.79 846.37 347.39 833.28
  A 0.41 0.41 0.0 0 1 348.00 832.78
  C 372.23 849.17 384.58 880.40 371.31 908.16
  C 361.27 929.14 341.20 941.81 317.76 940.59
  Q 296.10 939.47 279.66 925.58
  Q 279.18 925.17 278.99 924.83
  Z"
/>
<path fill="#ffcc67" d="
  M 1251.87 918.15
  C 1230.81 946.16 1190.73 947.70 1165.21 925.05
  A 0.35 0.35 0.0 0 1 1165.49 924.44
  Q 1169.47 924.96 1174.46 924.63
  Q 1198.41 923.04 1216.12 906.63
  Q 1219.47 903.53 1224.15 897.31
  Q 1228.83 891.08 1230.87 887.01
  Q 1241.72 865.43 1236.59 841.98
  Q 1235.52 837.10 1233.91 833.42
  A 0.35 0.35 0.0 0 1 1234.42 832.98
  C 1263.27 851.20 1272.93 890.14 1251.87 918.15
  Z"
/>
<path fill="#9765ba" d="
  M 1773.00 839.54
  L 1773.00 928.43
  Q 1757.43 915.91 1752.93 897.96
  Q 1748.82 881.58 1754.21 865.75
  Q 1759.44 850.40 1773.00 839.54
  Z"
/>
<path fill="#ffcc67" d="
  M 0.00 948.47
  L 0.00 928.25
  Q 17.33 942.17 38.80 941.35
  A 0.25 0.25 0.0 0 1 39.02 941.74
  Q 38.80 942.07 38.32 942.30
  Q 20.08 951.07 0.00 948.47
  Z"
/>
<path fill="#ffcc67" d="
  M 181.59 967.60
  A 0.42 0.41 30.6 0 1 181.79 968.37
  Q 162.00 978.83 153.73 997.90
  Q 147.33 1012.65 149.08 1028.14
  C 151.35 1048.14 165.22 1065.94 184.12 1072.92
  C 202.87 1079.85 222.92 1076.69 239.23 1064.90
  A 0.33 0.33 0.0 0 1 239.71 1065.34
  Q 234.41 1074.66 226.76 1081.82
  C 193.44 1112.96 140.47 1102.71 121.29 1061.52
  C 111.56 1040.64 113.60 1015.99 126.46 996.89
  C 138.78 978.59 159.71 967.71 181.59 967.60
  Z"
/>
<path fill="#ffcc67" d="
  M 1054.34 967.63
  A 0.41 0.41 0.0 0 1 1054.54 968.41
  Q 1034.74 978.84 1026.45 997.88
  Q 1020.04 1012.61 1021.77 1028.09
  C 1024.01 1048.09 1037.85 1065.89 1056.73 1072.90
  C 1075.46 1079.84 1095.50 1076.71 1111.82 1064.95
  A 0.33 0.33 0.0 0 1 1112.30 1065.39
  Q 1106.99 1074.70 1099.33 1081.85
  C 1066.00 1112.92 1013.07 1102.62 993.95 1061.43
  C 984.25 1040.54 986.32 1015.91 999.20 996.83
  C 1011.54 978.57 1032.46 967.72 1054.34 967.63
  Z"
/>
<path fill="#ffcc67" d="
  M 763.56 974.19
  A 0.28 0.28 0.0 0 1 763.40 974.67
  Q 729.60 979.14 714.78 1008.55
  C 706.09 1025.79 707.96 1048.46 718.99 1064.35
  Q 728.72 1078.41 744.96 1084.98
  Q 762.49 1092.07 782.10 1087.11
  A 0.39 0.39 0.0 0 1 782.44 1087.79
  Q 778.62 1090.89 773.40 1093.66
  C 744.04 1109.24 709.88 1103.90 688.42 1077.94
  Q 671.45 1057.41 673.45 1029.84
  C 676.10 993.52 710.35 966.52 745.92 970.22
  Q 755.55 971.23 762.67 973.66
  Q 763.22 973.85 763.56 974.19
  Z"
/>
<path fill="#ffcc67" d="
  M 1650.17 974.20
  A 0.28 0.28 0.0 0 1 1650.01 974.68
  Q 1616.21 979.11 1601.36 1008.49
  C 1592.65 1025.72 1594.50 1048.39 1605.50 1064.29
  Q 1615.22 1078.35 1631.45 1084.94
  Q 1648.96 1092.05 1668.57 1087.11
  A 0.39 0.39 0.0 0 1 1668.91 1087.79
  Q 1665.09 1090.89 1659.87 1093.65
  C 1630.50 1109.19 1596.35 1103.82 1574.93 1077.84
  Q 1557.98 1057.29 1560.02 1029.73
  C 1562.71 993.42 1596.98 966.47 1632.53 970.21
  Q 1642.16 971.23 1649.28 973.67
  Q 1649.83 973.86 1650.17 974.20
  Z"
/>
<path fill="#ffcc67" d="
  M 268.88 1158.27
  A 0.30 0.30 0.0 0 1 269.37 1158.10
  Q 283.91 1170.57 303.44 1169.14
  C 323.89 1167.63 339.63 1153.80 344.47 1133.74
  C 347.16 1122.62 345.71 1112.53 341.39 1102.23
  A 0.32 0.32 0.0 0 1 341.86 1101.84
  C 354.02 1109.98 363.13 1122.69 365.85 1136.79
  C 369.70 1156.72 362.37 1175.93 345.65 1187.68
  C 337.62 1193.33 328.46 1196.05 318.66 1195.86
  C 295.91 1195.43 276.70 1180.97 269.07 1159.64
  Q 268.79 1158.85 268.88 1158.27
  Z"
/>
<path fill="#ffcc67" d="
  M 1155.57 1158.39
  A 0.30 0.30 0.0 0 1 1156.06 1158.21
  Q 1170.61 1170.64 1190.13 1169.17
  C 1210.56 1167.62 1226.26 1153.76 1231.05 1133.71
  C 1233.71 1122.59 1232.24 1112.51 1227.90 1102.23
  A 0.32 0.32 0.0 0 1 1228.37 1101.84
  C 1240.54 1109.94 1249.67 1122.63 1252.42 1136.71
  C 1256.31 1156.62 1249.03 1175.83 1232.35 1187.61
  C 1224.33 1193.27 1215.19 1196.01 1205.39 1195.84
  C 1182.66 1195.46 1163.43 1181.05 1155.76 1159.75
  Q 1155.48 1158.97 1155.57 1158.39
  Z"
/>
<path fill="#ffcc67" d="
  M 573.75 1259.50
  A 0.26 0.26 0.0 0 1 573.61 1259.03
  C 592.52 1246.92 604.58 1224.77 601.69 1202.06
  Q 598.62 1177.95 579.45 1164.30
  C 558.37 1149.29 530.88 1152.08 511.14 1167.81
  A 0.37 0.36 -8.4 0 1 510.57 1167.39
  C 517.70 1150.21 536.01 1135.97 554.23 1131.74
  C 582.54 1125.16 611.05 1137.53 625.77 1162.54
  C 638.26 1183.76 636.88 1210.46 623.77 1230.46
  Q 609.06 1252.92 583.22 1258.47
  Q 578.25 1259.53 573.75 1259.50
  Z"
/>
<path fill="#ffcc67" d="
  M 1460.27 1259.45
  A 0.26 0.26 0.0 0 1 1460.13 1258.98
  C 1479.03 1246.87 1491.09 1224.72 1488.20 1202.02
  Q 1485.12 1177.91 1465.95 1164.26
  C 1444.88 1149.26 1417.39 1152.05 1397.66 1167.78
  A 0.37 0.36 -8.4 0 1 1397.09 1167.36
  C 1404.21 1150.18 1422.52 1135.94 1440.73 1131.71
  C 1469.04 1125.13 1497.55 1137.49 1512.27 1162.50
  C 1524.76 1183.71 1523.38 1210.41 1510.28 1230.41
  Q 1495.57 1252.87 1469.74 1258.42
  Q 1464.77 1259.48 1460.27 1259.45
  Z"
/>
<path fill="#ffcc67" d="
  M 0.00 1203.69
  L 0.00 1169.79
  Q 16.96 1168.73 30.83 1176.64
  Q 45.85 1185.21 54.15 1201.32
  C 59.58 1211.88 61.13 1223.21 60.11 1234.83
  A 0.33 0.33 0.0 0 1 59.49 1234.94
  Q 48.22 1211.24 22.94 1204.57
  Q 12.42 1201.79 0.00 1203.69
  Z"
/>
<path fill="#ffcc67" d="
  M 946.18 1235.04
  Q 945.93 1235.00 945.78 1234.70
  C 936.36 1214.76 916.40 1201.61 894.01 1203.32
  Q 866.89 1205.39 851.18 1227.00
  C 845.75 1234.48 842.14 1244.36 841.95 1254.04
  Q 841.85 1259.20 841.84 1259.98
  A 0.47 0.47 0.0 0 1 840.97 1260.21
  C 831.86 1244.93 829.62 1226.42 835.19 1209.53
  Q 842.99 1185.85 866.19 1174.95
  C 886.82 1165.25 911.69 1168.86 928.40 1184.91
  C 942.33 1198.30 948.84 1215.48 946.50 1234.79
  A 0.28 0.28 0.0 0 1 946.18 1235.04
  Z"
/>
<path fill="#ffcc67" d="
  M 1773.00 1169.71
  L 1773.00 1203.97
  Q 1761.80 1206.42 1752.47 1212.75
  Q 1742.63 1219.42 1736.58 1228.55
  C 1730.00 1238.48 1727.93 1248.59 1728.20 1260.16
  A 0.38 0.38 0.0 0 1 1727.50 1260.37
  Q 1716.29 1241.68 1719.40 1219.72
  C 1723.35 1191.78 1744.76 1172.29 1773.00 1169.71
  Z"
/>
<path fill="#ffcc67" d="
  M 471.72 1271.38
  Q 445.01 1275.04 428.65 1297.61
  C 418.46 1311.68 416.33 1327.76 420.27 1344.12
  C 423.56 1357.84 432.89 1368.96 444.34 1376.98
  C 454.30 1383.97 464.53 1385.85 476.42 1386.12
  A 0.28 0.28 0.0 0 1 476.54 1386.65
  Q 454.85 1397.24 431.65 1391.33
  C 407.22 1385.11 389.05 1363.68 385.74 1339.07
  C 382.99 1318.78 390.04 1300.59 404.03 1285.88
  Q 411.43 1278.09 419.38 1274.17
  Q 444.62 1261.72 471.76 1270.78
  A 0.31 0.31 0.0 0 1 471.72 1271.38
  Z"
/>
<path fill="#ffcc67" d="
  M 1358.31 1271.39
  Q 1331.57 1274.99 1315.15 1297.55
  C 1304.92 1311.61 1302.76 1327.70 1306.66 1344.08
  C 1309.93 1357.82 1319.24 1368.97 1330.68 1377.02
  C 1340.64 1384.04 1350.87 1385.94 1362.77 1386.24
  A 0.28 0.28 0.0 0 1 1362.89 1386.77
  Q 1341.16 1397.32 1317.95 1391.36
  C 1293.51 1385.08 1275.37 1363.59 1272.11 1338.95
  C 1269.41 1318.64 1276.50 1300.45 1290.53 1285.76
  Q 1297.96 1277.98 1305.92 1274.07
  Q 1331.21 1261.66 1358.36 1270.79
  A 0.31 0.31 0.0 0 1 1358.31 1271.39
  Z"
/>
<path fill="#ffcc67" d="
  M 800.93 1325.76
  Q 801.87 1336.27 798.24 1347.23
  Q 790.32 1371.09 767.69 1381.86
  C 733.06 1398.33 694.15 1373.38 689.89 1336.54
  Q 687.69 1317.62 697.28 1299.96
  A 0.36 0.36 0.0 0 1 697.95 1300.10
  C 699.71 1324.00 714.75 1343.63 736.74 1351.80
  C 746.03 1355.25 757.97 1354.75 767.92 1351.41
  Q 788.52 1344.50 800.36 1325.62
  A 0.31 0.31 0.0 0 1 800.93 1325.76
  Z"
/>
<path fill="#ffcc67" d="
  M 1687.35 1325.96
  Q 1688.26 1336.47 1684.60 1347.41
  Q 1676.61 1371.24 1653.95 1381.94
  C 1619.28 1398.30 1580.46 1373.24 1576.31 1336.40
  Q 1574.17 1317.47 1583.81 1299.85
  A 0.36 0.36 0.0 0 1 1584.48 1299.99
  C 1586.17 1323.89 1601.14 1343.56 1623.10 1351.79
  C 1632.38 1355.27 1644.32 1354.81 1654.27 1351.50
  Q 1674.89 1344.65 1686.78 1325.82
  A 0.31 0.31 0.0 0 1 1687.35 1325.96
  Z"
/>
<path fill="#ffcc67" d="
  M 378.52 1493.77
  A 0.31 0.31 0.0 0 1 378.98 1494.14
  Q 369.29 1516.77 349.22 1527.93
  C 328.08 1539.70 303.39 1539.53 282.26 1527.44
  Q 257.26 1513.14 250.33 1484.96
  C 240.23 1443.86 270.69 1404.47 312.31 1401.54
  A 0.37 0.37 0.0 0 1 312.52 1402.23
  C 291.69 1414.16 280.42 1437.28 282.31 1460.98
  Q 282.80 1467.17 286.14 1475.24
  C 295.02 1496.70 314.37 1509.32 337.75 1509.54
  Q 358.48 1509.74 375.69 1495.95
  Q 377.40 1494.58 378.52 1493.77
  Z"
/>
<path fill="#ffcc67" d="
  M 1251.12 1493.74
  A 0.31 0.31 0.0 0 1 1251.58 1494.11
  Q 1241.90 1516.74 1221.84 1527.92
  C 1200.70 1539.70 1176.01 1539.54 1154.87 1527.47
  Q 1129.87 1513.18 1122.92 1485.01
  C 1112.79 1443.91 1143.23 1404.50 1184.85 1401.55
  A 0.37 0.37 0.0 0 1 1185.06 1402.24
  C 1164.23 1414.18 1152.98 1437.31 1154.88 1461.01
  Q 1155.38 1467.20 1158.72 1475.26
  C 1167.62 1496.72 1186.97 1509.33 1210.36 1509.53
  Q 1231.09 1509.72 1248.29 1495.92
  Q 1250.00 1494.55 1251.12 1493.74
  Z"
/>
<path fill="#ffcc67" d="
  M 520.51 1486.51
  A 0.37 0.36 16.1 0 1 521.13 1486.17
  Q 524.65 1489.92 527.68 1492.52
  C 538.47 1501.79 552.10 1507.57 566.55 1508.02
  Q 587.77 1508.66 604.07 1493.60
  C 611.38 1486.84 617.56 1476.90 620.13 1467.17
  C 625.96 1445.03 617.42 1421.59 600.40 1406.66
  A 0.38 0.38 0.0 0 1 600.75 1406.00
  C 635.32 1414.90 658.01 1449.35 649.94 1484.96
  Q 643.98 1511.22 622.07 1525.85
  C 612.83 1532.01 600.85 1536.26 589.43 1536.18
  C 585.24 1536.15 580.60 1536.71 575.87 1535.97
  Q 561.38 1533.73 549.67 1525.98
  C 534.79 1516.12 524.96 1503.72 520.51 1486.51
  Z"
/>
<path fill="#ffcc67" d="
  M 1533.64 1445.68
  L 1533.64 1446.46
  A 1.01 0.86 40.3 0 0 1533.69 1446.76
  Q 1536.26 1453.60 1536.99 1457.99
  C 1541.20 1483.47 1531.51 1510.62 1509.59 1525.20
  Q 1494.63 1535.15 1477.71 1536.49
  Q 1456.57 1538.18 1437.93 1527.06
  Q 1415.17 1513.48 1407.49 1487.78
  Q 1407.27 1487.04 1407.35 1486.55
  A 0.37 0.37 0.0 0 1 1407.99 1486.37
  C 1420.67 1500.58 1439.12 1508.83 1458.25 1507.84
  C 1476.51 1506.90 1495.38 1493.53 1503.06 1477.03
  Q 1512.63 1456.47 1505.76 1435.58
  Q 1500.14 1418.49 1486.95 1406.59
  A 0.30 0.29 -31.1 0 1 1487.08 1406.09
  Q 1487.35 1406.02 1487.89 1406.17
  Q 1518.15 1414.69 1531.84 1442.91
  A 0.92 0.88 4.5 0 0 1532.17 1443.28
  Q 1532.92 1443.76 1532.95 1444.73
  Q 1532.96 1445.06 1533.32 1445.20
  A 0.52 0.51 -79.1 0 1 1533.64 1445.68
  Z"
/>
<path fill="#ffcc67" d="
  M 890.85 1544.17
  A 0.25 0.25 0.0 0 1 890.65 1543.74
  Q 893.37 1540.93 897.23 1535.24
  Q 911.53 1514.13 904.74 1487.98
  C 900.19 1470.52 888.09 1458.10 870.87 1452.95
  Q 858.64 1449.30 847.17 1450.70
  Q 831.74 1452.59 819.83 1462.29
  A 0.48 0.48 0.0 0 1 819.08 1461.73
  C 828.14 1440.14 848.03 1426.14 871.48 1425.04
  C 893.46 1424.00 912.50 1434.63 924.49 1452.84
  Q 931.64 1463.70 933.42 1476.18
  C 937.56 1505.32 922.56 1532.52 894.64 1543.11
  Q 892.12 1544.07 890.85 1544.17
  Z"
/>
<path fill="#ffcc67" d="
  M 1773.00 1426.30
  L 1773.00 1460.57
  Q 1763.20 1453.66 1753.16 1451.59
  Q 1727.10 1446.23 1706.28 1462.25
  A 0.40 0.39 -8.3 0 1 1705.67 1461.80
  C 1714.09 1440.40 1734.19 1426.52 1756.76 1425.06
  Q 1764.10 1424.58 1773.00 1426.30
  Z"
/>
<path fill="#ffcc67" d="
  M 0.00 1460.29
  L 0.00 1426.21
  Q 18.69 1430.15 30.45 1442.80
  C 61.55 1476.25 48.87 1530.49 4.59 1544.29
  A 0.39 0.39 0.0 0 1 4.19 1543.66
  C 21.42 1525.00 26.13 1499.14 13.92 1476.60
  Q 9.30 1468.05 0.00 1460.29
  Z"
/>
<path fill="#b694ce" d="
  M 1565.28 1523.54
  Q 1565.95 1523.54 1566.23 1523.99
  C 1567.78 1526.59 1568.34 1530.24 1569.60 1532.98
  C 1572.88 1540.10 1576.03 1544.65 1580.93 1549.56
  C 1585.83 1554.48 1590.37 1557.63 1597.48 1560.94
  C 1600.21 1562.21 1603.86 1562.78 1606.45 1564.34
  Q 1606.91 1564.61 1606.91 1565.29
  Q 1606.91 1565.96 1606.45 1566.24
  C 1603.85 1567.79 1600.20 1568.35 1597.47 1569.61
  C 1590.35 1572.89 1585.80 1576.04 1580.88 1580.94
  C 1575.96 1585.84 1572.81 1590.38 1569.50 1597.49
  C 1568.23 1600.22 1567.66 1603.87 1566.10 1606.46
  Q 1565.83 1606.92 1565.16 1606.92
  Q 1564.48 1606.92 1564.21 1606.46
  C 1562.66 1603.87 1562.10 1600.22 1560.84 1597.48
  C 1557.55 1590.36 1554.41 1585.81 1549.51 1580.89
  C 1544.61 1575.98 1540.06 1572.82 1532.96 1569.51
  C 1530.22 1568.24 1526.57 1567.67 1523.98 1566.12
  Q 1523.52 1565.84 1523.53 1565.17
  Q 1523.53 1564.49 1523.98 1564.22
  C 1526.58 1562.67 1530.23 1562.11 1532.97 1560.85
  C 1540.08 1557.56 1544.64 1554.42 1549.55 1549.52
  C 1554.47 1544.62 1557.62 1540.07 1560.93 1532.97
  C 1562.20 1530.23 1562.77 1526.58 1564.33 1523.99
  Q 1564.60 1523.54 1565.28 1523.54
  Z"
/>
<path fill="#ffcc67" d="
  M 469.13 1551.14
  A 0.28 0.28 0.0 0 1 469.09 1551.59
  Q 453.40 1560.87 446.89 1578.46
  C 440.73 1595.13 441.75 1612.29 447.73 1629.05
  Q 455.19 1649.94 474.15 1661.14
  A 0.39 0.39 0.0 0 1 474.02 1661.86
  Q 460.91 1664.00 447.82 1659.03
  Q 423.87 1649.93 414.51 1625.86
  C 407.00 1606.54 411.34 1585.09 425.15 1569.55
  Q 441.38 1551.28 468.85 1550.90
  A 0.22 0.10 -0.1 0 1 469.07 1551.00
  Q 469.07 1551.09 469.13 1551.14
  Z"
/>
<path fill="#ffcc67" d="
  M 1355.48 1551.08
  A 0.28 0.28 0.0 0 1 1355.44 1551.53
  Q 1339.73 1560.80 1333.20 1578.39
  C 1327.02 1595.06 1328.03 1612.23 1333.99 1629.01
  Q 1341.43 1649.91 1360.39 1661.14
  A 0.39 0.39 0.0 0 1 1360.26 1661.86
  Q 1347.14 1663.99 1334.05 1659.00
  Q 1310.10 1649.87 1300.76 1625.78
  C 1293.26 1606.44 1297.63 1584.99 1311.46 1569.45
  Q 1327.72 1551.19 1355.20 1550.84
  A 0.22 0.10 0.0 0 1 1355.42 1550.94
  Q 1355.42 1551.03 1355.48 1551.08
  Z"
/>
<path fill="#ffcc67" d="
  M 1622.34 1553.91
  A 0.36 0.36 0.0 0 1 1622.69 1553.30
  C 1648.19 1559.98 1666.59 1582.53 1669.06 1608.57
  C 1670.24 1621.06 1666.71 1635.66 1660.01 1646.61
  C 1650.15 1662.72 1634.70 1672.88 1616.05 1676.64
  Q 1610.85 1677.69 1600.22 1676.97
  Q 1587.70 1676.12 1575.90 1669.63
  Q 1553.29 1657.18 1545.18 1633.37
  Q 1545.00 1632.83 1545.19 1632.40
  A 0.50 0.49 36.3 0 1 1546.02 1632.28
  Q 1547.86 1634.38 1549.91 1636.09
  Q 1569.03 1652.10 1591.82 1650.09
  C 1619.55 1647.64 1639.09 1625.19 1640.78 1597.75
  C 1641.85 1580.38 1634.11 1565.55 1622.34 1553.91
  Z"
/>
<path fill="#ffcc67" d="
  M 741.30 1557.64
  A 0.37 0.36 77.9 0 1 741.68 1557.05
  Q 748.59 1559.18 754.70 1562.81
  Q 776.54 1575.76 782.01 1599.70
  C 785.80 1616.27 780.12 1635.19 768.08 1647.68
  Q 759.90 1656.17 747.59 1660.70
  C 723.11 1669.70 698.20 1660.65 682.26 1640.45
  A 0.49 0.49 0.0 0 1 682.87 1639.71
  C 689.95 1643.33 697.43 1645.03 705.28 1644.86
  Q 734.10 1644.22 748.86 1618.54
  C 752.71 1611.85 754.76 1604.58 755.09 1596.73
  Q 756.01 1574.64 741.30 1557.64
  Z"
/>
<path fill="#ffcc67" d="
  M 166.02 1709.59
  A 0.36 0.36 0.0 0 1 165.69 1708.96
  Q 180.20 1696.37 184.64 1678.11
  C 197.09 1626.69 139.98 1589.84 98.36 1622.88
  A 0.39 0.39 0.0 0 1 97.76 1622.43
  C 108.28 1598.02 132.48 1583.25 159.26 1585.92
  C 198.43 1589.85 224.63 1628.94 212.38 1667.29
  C 205.33 1689.38 188.74 1704.29 166.02 1709.59
  Z"
/>
<path fill="#ffcc67" d="
  M 1038.42 1709.74
  A 0.36 0.36 0.0 0 1 1038.10 1709.11
  Q 1052.63 1696.52 1057.08 1678.25
  C 1069.58 1626.81 1012.47 1589.89 970.79 1622.92
  A 0.39 0.39 0.0 0 1 970.19 1622.46
  C 980.74 1598.05 1004.97 1583.29 1031.76 1585.98
  C 1070.95 1589.95 1097.13 1629.08 1084.85 1667.45
  C 1077.77 1689.54 1061.16 1704.45 1038.42 1709.74
  Z"
/>
<path fill="#ffcc67" d="
  M 865.01 1773.00
  L 832.37 1773.00
  C 831.73 1728.72 875.93 1698.23 917.23 1711.81
  A 0.43 0.42 -42.4 0 1 917.19 1712.63
  Q 914.04 1713.39 913.24 1713.56
  Q 881.29 1720.61 868.87 1749.41
  Q 864.39 1759.79 865.01 1773.00
  Z"
/>
<path fill="#ffcc67" d="
  M 0.00 1725.72
  L 0.00 1709.38
  Q 15.77 1706.87 31.15 1711.94
  A 0.34 0.34 0.0 0 1 31.11 1712.60
  Q 26.10 1713.52 21.04 1715.07
  Q 9.94 1718.46 0.00 1725.72
  Z"
/>
<path fill="#ffcc67" d="
  M 1773.00 1709.33
  L 1773.00 1725.51
  Q 1750.85 1743.92 1750.79 1773.00
  L 1718.53 1773.00
  Q 1718.81 1763.51 1719.68 1759.70
  C 1725.76 1733.12 1746.16 1713.74 1773.00 1709.33
  Z"
/>
<path fill="#ffcc67" d="
  M 558.65 1773.00
  L 529.74 1773.00
  Q 529.34 1746.69 547.28 1730.31
  C 557.73 1720.76 570.81 1715.59 584.94 1714.79
  A 0.32 0.32 0.0 0 1 585.13 1715.38
  Q 564.65 1728.20 559.35 1752.04
  Q 557.05 1762.38 558.65 1773.00
  Z"
/>
<path fill="#ffcc67" d="
  M 1444.97 1773.00
  L 1416.34 1773.00
  Q 1415.77 1759.38 1421.09 1747.68
  C 1430.06 1727.93 1449.60 1716.06 1471.32 1714.82
  A 0.30 0.30 0.0 0 1 1471.49 1715.37
  Q 1463.97 1719.83 1458.06 1727.03
  Q 1441.67 1747.00 1444.97 1773.00
  Z"
/>
<path fill="#ffcc67" d="
  M 375.61 1773.00
  L 344.27 1773.00
  Q 349.52 1763.42 351.91 1754.96
  Q 356.84 1737.49 351.39 1720.23
  A 0.37 0.36 -80.0 0 1 351.96 1719.83
  Q 369.84 1733.60 374.43 1755.38
  Q 375.03 1758.24 375.09 1764.17
  Q 375.13 1768.59 375.61 1773.00
  Z"
/>
<path fill="#ffcc67" d="
  M 1262.09 1773.00
  L 1230.82 1773.00
  Q 1232.88 1769.00 1234.74 1765.03
  Q 1244.96 1743.20 1237.96 1720.24
  A 0.33 0.33 0.0 0 1 1238.48 1719.88
  Q 1257.46 1734.45 1261.40 1758.24
  Q 1262.50 1764.90 1262.09 1773.00
  Z"
/>
<path fill="#9765ba" d="
  M 1773.00 1725.51
  L 1773.00 1773.00
  L 1750.79 1773.00
  Q 1750.85 1743.92 1773.00 1725.51
  Z"
/>
</svg>
