<?xml version="1.0" encoding="UTF-8" standalone="no"?>
<!DOCTYPE svg PUBLIC "-//W3C//DTD SVG 1.1//EN" "http://www.w3.org/Graphics/SVG/1.1/DTD/svg11.dtd">
<svg xmlns="http://www.w3.org/2000/svg" version="1.1" viewBox="0.00 0.00 1254.00 1254.00">
<g stroke-width="2.00" fill="none" stroke-linecap="butt">
<path stroke="#b88ce2" vector-effect="non-scaling-stroke" d="
  M 91.87 0.00
  Q 90.38 28.79 72.85 50.60
  Q 45.29 84.89 0.00 85.43"
/>
<path stroke="#b88ce2" vector-effect="non-scaling-stroke" d="
  M 358.48 0.00
  Q 360.83 36.39 386.09 60.41
  C 423.55 96.04 482.32 93.09 516.97 54.72
  Q 538.00 31.44 539.42 0.00"
/>
<path stroke="#b88ce2" vector-effect="non-scaling-stroke" d="
  M 802.36 0.00
  Q 802.93 9.64 803.89 14.05
  Q 809.76 41.08 828.52 59.53
  C 858.84 89.36 905.92 93.88 941.40 70.52
  Q 948.66 65.75 950.18 64.46
  C 960.02 56.13 968.88 45.46 974.65 33.09
  Q 981.94 17.45 982.70 0.00"
/>
<path stroke="#b88ce2" vector-effect="non-scaling-stroke" d="
  M 1244.74 0.00
  Q 1245.47 18.46 1253.34 34.99
  A 0.28 0.28 0.0 0 0 1253.86 34.98
  L 1254.00 34.66"
/>
<path stroke="#b88ce2" vector-effect="non-scaling-stroke" d="
  M 1254.00 394.67
  L 1253.91 394.36
  A 0.42 0.42 0.0 0 0 1253.12 394.33
  C 1244.06 416.96 1243.56 443.17 1253.15 465.93
  A 0.39 0.39 0.0 0 0 1253.84 465.98
  Q 1253.93 465.83 1254.00 465.63"
/>
<path stroke="#b88ce2" vector-effect="non-scaling-stroke" d="
  M 1254.00 830.39
  Q 1253.86 830.05 1253.74 829.93
  A 0.34 0.34 0.0 0 0 1253.19 830.04
  Q 1239.07 865.86 1253.09 901.68
  A 0.33 0.32 48.5 0 0 1253.68 901.72
  L 1254.00 901.13"
/>
<path stroke="#b88ce2" vector-effect="non-scaling-stroke" d="
  M 966.50 1254.00
  Q 960.58 1242.24 950.08 1232.92
  C 920.15 1206.33 878.41 1202.03 844.17 1223.11
  Q 825.28 1234.74 814.69 1254.00"
/>
<path stroke="#b88ce2" vector-effect="non-scaling-stroke" d="
  M 522.03 1254.00
  Q 516.47 1242.96 507.34 1234.42
  C 476.04 1205.16 430.85 1201.54 395.50 1226.02
  Q 379.32 1237.23 370.30 1254.00"
/>
<path stroke="#b88ce2" vector-effect="non-scaling-stroke" d="
  M 74.15 1254.00
  Q 67.40 1240.76 55.84 1231.16
  Q 31.61 1211.04 0.00 1209.69"
/>
<path stroke="#b88ce2" vector-effect="non-scaling-stroke" d="
  M 0.00 954.93
  Q 28.54 954.00 50.32 938.31
  C 105.80 898.31 97.71 812.49 35.45 783.79
  Q 18.72 776.08 0.00 775.92"
/>
<path stroke="#b88ce2" vector-effect="non-scaling-stroke" d="
  M 0.00 519.54
  Q 32.20 518.77 55.81 499.05
  Q 81.32 477.74 86.78 443.04
  C 87.71 437.08 87.72 429.95 87.53 424.76
  C 86.43 394.55 69.72 367.32 43.70 352.10
  Q 23.39 340.22 0.00 340.02"
/>
<path stroke="#b88ce2" vector-effect="non-scaling-stroke" d="
  M 1126.2963 120.1040
  A 90.28 88.88 -82.3 0 0 1026.1214 197.6613
  A 90.28 88.88 -82.3 0 0 1102.1037 299.0360
  A 90.28 88.88 -82.3 0 0 1202.2786 221.4787
  A 90.28 88.88 -82.3 0 0 1126.2963 120.1040"
/>
<path stroke="#b88ce2" vector-effect="non-scaling-stroke" d="
  M 235.7212 120.4368
  A 90.29 89.18 -80.7 0 0 133.1222 195.1282
  A 90.29 89.18 -80.7 0 0 206.5388 298.6432
  A 90.29 89.18 -80.7 0 0 309.1378 223.9518
  A 90.29 89.18 -80.7 0 0 235.7212 120.4368"
/>
<path stroke="#b88ce2" vector-effect="non-scaling-stroke" d="
  M 683.0657 120.3769
  A 90.27 88.85 -81.1 0 0 581.3198 195.8140
  A 90.27 88.85 -81.1 0 0 655.1343 298.7431
  A 90.27 88.85 -81.1 0 0 756.8802 223.3060
  A 90.27 88.85 -81.1 0 0 683.0657 120.3769"
/>
<path stroke="#b88ce2" vector-effect="non-scaling-stroke" d="
  M 458.4114 340.7292
  A 89.78 88.74 -83.0 0 0 359.3915 419.0253
  A 89.78 88.74 -83.0 0 0 436.5286 518.9508
  A 89.78 88.74 -83.0 0 0 535.5485 440.6547
  A 89.78 88.74 -83.0 0 0 458.4114 340.7292"
/>
<path stroke="#b88ce2" vector-effect="non-scaling-stroke" d="
  M 898.7589 340.3420
  A 89.81 88.61 -85.3 0 0 803.0880 422.5894
  A 89.81 88.61 -85.3 0 0 884.0411 519.3580
  A 89.81 88.61 -85.3 0 0 979.7120 437.1106
  A 89.81 88.61 -85.3 0 0 898.7589 340.3420"
/>
<path stroke="#b88ce2" vector-effect="non-scaling-stroke" d="
  M 201.97 733.91
  C 249.22 743.99 294.63 714.86 306.63 668.74
  C 319.29 620.07 289.53 569.39 239.35 558.69
  C 189.16 547.98 141.31 582.10 133.01 631.70
  C 125.14 678.70 154.72 723.83 201.97 733.91"
/>
<path stroke="#b88ce2" vector-effect="non-scaling-stroke" d="
  M 649.85 733.79
  C 697.05 743.85 742.41 714.75 754.39 668.67
  C 767.03 620.05 737.29 569.44 687.16 558.75
  C 637.03 548.07 589.24 582.16 580.95 631.71
  C 573.10 678.66 602.65 723.73 649.85 733.79"
/>
<path stroke="#b88ce2" vector-effect="non-scaling-stroke" d="
  M 1088.50 732.14
  C 1134.81 745.79 1182.28 720.23 1197.76 675.19
  C 1214.08 627.66 1188.29 574.91 1139.11 560.41
  C 1089.92 545.92 1039.64 576.26 1027.59 625.05
  C 1016.17 671.29 1042.20 718.50 1088.50 732.14"
/>
<path stroke="#b88ce2" vector-effect="non-scaling-stroke" d="
  M 897.3508 776.0874
  A 89.55 88.56 -86.1 0 0 802.9051 859.4066
  A 89.55 88.56 -86.1 0 0 885.1692 954.7726
  A 89.55 88.56 -86.1 0 0 979.6149 871.4534
  A 89.55 88.56 -86.1 0 0 897.3508 776.0874"
/>
<path stroke="#b88ce2" vector-effect="non-scaling-stroke" d="
  M 428.64 952.86
  C 475.79 962.92 521.11 933.85 533.08 887.82
  C 545.71 839.26 516.01 788.69 465.94 778.01
  C 415.86 767.33 368.11 801.37 359.83 850.87
  C 351.98 897.78 381.49 942.80 428.64 952.86"
/>
<path stroke="#b88ce2" vector-effect="non-scaling-stroke" d="
  M 236.2049 992.2070
  A 89.98 88.95 -80.0 0 0 132.9814 1065.3740
  A 89.98 88.95 -80.0 0 0 204.9551 1169.4330
  A 89.98 88.95 -80.0 0 0 308.1786 1096.2660
  A 89.98 88.95 -80.0 0 0 236.2049 992.2070"
/>
<path stroke="#b88ce2" vector-effect="non-scaling-stroke" d="
  M 678.5972 991.3785
  A 89.99 88.76 -83.5 0 0 580.2206 1070.7421
  A 89.99 88.76 -83.5 0 0 658.2228 1170.2015
  A 89.99 88.76 -83.5 0 0 756.5994 1090.8379
  A 89.99 88.76 -83.5 0 0 678.5972 991.3785"
/>
<path stroke="#b88ce2" vector-effect="non-scaling-stroke" d="
  M 1124.3427 991.4448
  A 90.02 88.74 -83.3 0 0 1025.7060 1070.4966
  A 90.02 88.74 -83.3 0 0 1103.3373 1170.2552
  A 90.02 88.74 -83.3 0 0 1201.9740 1091.2034
  A 90.02 88.74 -83.3 0 0 1124.3427 991.4448"
/>
</g>
<path fill="#9665c8" d="
  M 91.87 0.00
  Q 90.38 28.79 72.85 50.60
  Q 45.29 84.89 0.00 85.43
  L 0.00 0.00
  L 91.87 0.00
  Z"
/>
<path fill="#d9b3fb" d="
  M 358.48 0.00
  Q 360.83 36.39 386.09 60.41
  C 423.55 96.04 482.32 93.09 516.97 54.72
  Q 538.00 31.44 539.42 0.00
  L 802.36 0.00
  Q 802.93 9.64 803.89 14.05
  Q 809.76 41.08 828.52 59.53
  C 858.84 89.36 905.92 93.88 941.40 70.52
  Q 948.66 65.75 950.18 64.46
  C 960.02 56.13 968.88 45.46 974.65 33.09
  Q 981.94 17.45 982.70 0.00
  L 1244.74 0.00
  Q 1245.47 18.46 1253.34 34.99
  A 0.28 0.28 0.0 0 0 1253.86 34.98
  L 1254.00 34.66
  L 1254.00 394.67
  L 1253.91 394.36
  A 0.42 0.42 0.0 0 0 1253.12 394.33
  C 1244.06 416.96 1243.56 443.17 1253.15 465.93
  A 0.39 0.39 0.0 0 0 1253.84 465.98
  Q 1253.93 465.83 1254.00 465.63
  L 1254.00 830.39
  Q 1253.86 830.05 1253.74 829.93
  A 0.34 0.34 0.0 0 0 1253.19 830.04
  Q 1239.07 865.86 1253.09 901.68
  A 0.33 0.32 48.5 0 0 1253.68 901.72
  L 1254.00 901.13
  L 1254.00 1254.00
  L 966.50 1254.00
  Q 960.58 1242.24 950.08 1232.92
  C 920.15 1206.33 878.41 1202.03 844.17 1223.11
  Q 825.28 1234.74 814.69 1254.00
  L 522.03 1254.00
  Q 516.47 1242.96 507.34 1234.42
  C 476.04 1205.16 430.85 1201.54 395.50 1226.02
  Q 379.32 1237.23 370.30 1254.00
  L 74.15 1254.00
  Q 67.40 1240.76 55.84 1231.16
  Q 31.61 1211.04 0.00 1209.69
  L 0.00 954.93
  Q 28.54 954.00 50.32 938.31
  C 105.80 898.31 97.71 812.49 35.45 783.79
  Q 18.72 776.08 0.00 775.92
  L 0.00 519.54
  Q 32.20 518.77 55.81 499.05
  Q 81.32 477.74 86.78 443.04
  C 87.71 437.08 87.72 429.95 87.53 424.76
  C 86.43 394.55 69.72 367.32 43.70 352.10
  Q 23.39 340.22 0.00 340.02
  L 0.00 85.43
  Q 45.29 84.89 72.85 50.60
  Q 90.38 28.79 91.87 0.00
  L 358.48 0.00
  Z
  M 1126.2963 120.1040
  A 90.28 88.88 -82.3 0 0 1026.1214 197.6613
  A 90.28 88.88 -82.3 0 0 1102.1037 299.0360
  A 90.28 88.88 -82.3 0 0 1202.2786 221.4787
  A 90.28 88.88 -82.3 0 0 1126.2963 120.1040
  Z
  M 235.7212 120.4368
  A 90.29 89.18 -80.7 0 0 133.1222 195.1282
  A 90.29 89.18 -80.7 0 0 206.5388 298.6432
  A 90.29 89.18 -80.7 0 0 309.1378 223.9518
  A 90.29 89.18 -80.7 0 0 235.7212 120.4368
  Z
  M 683.0657 120.3769
  A 90.27 88.85 -81.1 0 0 581.3198 195.8140
  A 90.27 88.85 -81.1 0 0 655.1343 298.7431
  A 90.27 88.85 -81.1 0 0 756.8802 223.3060
  A 90.27 88.85 -81.1 0 0 683.0657 120.3769
  Z
  M 458.4114 340.7292
  A 89.78 88.74 -83.0 0 0 359.3915 419.0253
  A 89.78 88.74 -83.0 0 0 436.5286 518.9508
  A 89.78 88.74 -83.0 0 0 535.5485 440.6547
  A 89.78 88.74 -83.0 0 0 458.4114 340.7292
  Z
  M 898.7589 340.3420
  A 89.81 88.61 -85.3 0 0 803.0880 422.5894
  A 89.81 88.61 -85.3 0 0 884.0411 519.3580
  A 89.81 88.61 -85.3 0 0 979.7120 437.1106
  A 89.81 88.61 -85.3 0 0 898.7589 340.3420
  Z
  M 201.97 733.91
  C 249.22 743.99 294.63 714.86 306.63 668.74
  C 319.29 620.07 289.53 569.39 239.35 558.69
  C 189.16 547.98 141.31 582.10 133.01 631.70
  C 125.14 678.70 154.72 723.83 201.97 733.91
  Z
  M 649.85 733.79
  C 697.05 743.85 742.41 714.75 754.39 668.67
  C 767.03 620.05 737.29 569.44 687.16 558.75
  C 637.03 548.07 589.24 582.16 580.95 631.71
  C 573.10 678.66 602.65 723.73 649.85 733.79
  Z
  M 1088.50 732.14
  C 1134.81 745.79 1182.28 720.23 1197.76 675.19
  C 1214.08 627.66 1188.29 574.91 1139.11 560.41
  C 1089.92 545.92 1039.64 576.26 1027.59 625.05
  C 1016.17 671.29 1042.20 718.50 1088.50 732.14
  Z
  M 897.3508 776.0874
  A 89.55 88.56 -86.1 0 0 802.9051 859.4066
  A 89.55 88.56 -86.1 0 0 885.1692 954.7726
  A 89.55 88.56 -86.1 0 0 979.6149 871.4534
  A 89.55 88.56 -86.1 0 0 897.3508 776.0874
  Z
  M 428.64 952.86
  C 475.79 962.92 521.11 933.85 533.08 887.82
  C 545.71 839.26 516.01 788.69 465.94 778.01
  C 415.86 767.33 368.11 801.37 359.83 850.87
  C 351.98 897.78 381.49 942.80 428.64 952.86
  Z
  M 236.2049 992.2070
  A 89.98 88.95 -80.0 0 0 132.9814 1065.3740
  A 89.98 88.95 -80.0 0 0 204.9551 1169.4330
  A 89.98 88.95 -80.0 0 0 308.1786 1096.2660
  A 89.98 88.95 -80.0 0 0 236.2049 992.2070
  Z
  M 678.5972 991.3785
  A 89.99 88.76 -83.5 0 0 580.2206 1070.7421
  A 89.99 88.76 -83.5 0 0 658.2228 1170.2015
  A 89.99 88.76 -83.5 0 0 756.5994 1090.8379
  A 89.99 88.76 -83.5 0 0 678.5972 991.3785
  Z
  M 1124.3427 991.4448
  A 90.02 88.74 -83.3 0 0 1025.7060 1070.4966
  A 90.02 88.74 -83.3 0 0 1103.3373 1170.2552
  A 90.02 88.74 -83.3 0 0 1201.9740 1091.2034
  A 90.02 88.74 -83.3 0 0 1124.3427 991.4448
  Z"
/>
<path fill="#9665c8" d="
  M 539.42 0.00
  Q 538.00 31.44 516.97 54.72
  C 482.32 93.09 423.55 96.04 386.09 60.41
  Q 360.83 36.39 358.48 0.00
  L 539.42 0.00
  Z"
/>
<path fill="#9665c8" d="
  M 982.70 0.00
  Q 981.94 17.45 974.65 33.09
  C 968.88 45.46 960.02 56.13 950.18 64.46
  Q 948.66 65.75 941.40 70.52
  C 905.92 93.88 858.84 89.36 828.52 59.53
  Q 809.76 41.08 803.89 14.05
  Q 802.93 9.64 802.36 0.00
  L 982.70 0.00
  Z"
/>
<path fill="#9665c8" d="
  M 1254.00 0.00
  L 1254.00 34.66
  L 1253.86 34.98
  A 0.28 0.28 0.0 0 1 1253.34 34.99
  Q 1245.47 18.46 1244.74 0.00
  L 1254.00 0.00
  Z"
/>
<ellipse fill="#9665c8" cx="0.00" cy="0.00" transform="translate(1114.20,209.57) rotate(-82.3)" rx="90.28" ry="88.88"/>
<ellipse fill="#9665c8" cx="0.00" cy="0.00" transform="translate(221.13,209.54) rotate(-80.7)" rx="90.29" ry="89.18"/>
<ellipse fill="#9665c8" cx="0.00" cy="0.00" transform="translate(669.10,209.56) rotate(-81.1)" rx="90.27" ry="88.85"/>
<path fill="#9665c8" d="
  M 0.00 519.54
  L 0.00 340.02
  Q 23.39 340.22 43.70 352.10
  C 69.72 367.32 86.43 394.55 87.53 424.76
  C 87.72 429.95 87.71 437.08 86.78 443.04
  Q 81.32 477.74 55.81 499.05
  Q 32.20 518.77 0.00 519.54
  Z"
/>
<ellipse fill="#9665c8" cx="0.00" cy="0.00" transform="translate(447.47,429.84) rotate(-83.0)" rx="89.78" ry="88.74"/>
<ellipse fill="#9665c8" cx="0.00" cy="0.00" transform="translate(891.40,429.85) rotate(-85.3)" rx="89.81" ry="88.61"/>
<path fill="#9665c8" d="
  M 1254.00 394.67
  L 1254.00 465.63
  Q 1253.93 465.83 1253.84 465.98
  A 0.39 0.39 0.0 0 1 1253.15 465.93
  C 1243.56 443.17 1244.06 416.96 1253.12 394.33
  A 0.42 0.42 0.0 0 1 1253.91 394.36
  L 1254.00 394.67
  Z"
/>
<path fill="#9665c8" d="
  M 239.35 558.69
  C 289.53 569.39 319.29 620.07 306.63 668.74
  C 294.63 714.86 249.22 743.99 201.97 733.91
  C 154.72 723.83 125.14 678.70 133.01 631.70
  C 141.31 582.10 189.16 547.98 239.35 558.69
  Z"
/>
<path fill="#9665c8" d="
  M 649.85 733.79
  C 602.65 723.73 573.10 678.66 580.95 631.71
  C 589.24 582.16 637.03 548.07 687.16 558.75
  C 737.29 569.44 767.03 620.05 754.39 668.67
  C 742.41 714.75 697.05 743.85 649.85 733.79
  Z"
/>
<path fill="#9665c8" d="
  M 1088.50 732.14
  C 1042.20 718.50 1016.17 671.29 1027.59 625.05
  C 1039.64 576.26 1089.92 545.92 1139.11 560.41
  C 1188.29 574.91 1214.08 627.66 1197.76 675.19
  C 1182.28 720.23 1134.81 745.79 1088.50 732.14
  Z"
/>
<path fill="#9665c8" d="
  M 0.00 954.93
  L 0.00 775.92
  Q 18.72 776.08 35.45 783.79
  C 97.71 812.49 105.80 898.31 50.32 938.31
  Q 28.54 954.00 0.00 954.93
  Z"
/>
<ellipse fill="#9665c8" cx="0.00" cy="0.00" transform="translate(891.26,865.43) rotate(-86.1)" rx="89.55" ry="88.56"/>
<path fill="#9665c8" d="
  M 428.64 952.86
  C 381.49 942.80 351.98 897.78 359.83 850.87
  C 368.11 801.37 415.86 767.33 465.94 778.01
  C 516.01 788.69 545.71 839.26 533.08 887.82
  C 521.11 933.85 475.79 962.92 428.64 952.86
  Z"
/>
<path fill="#9665c8" d="
  M 1254.00 830.39
  L 1254.00 901.13
  L 1253.68 901.72
  A 0.33 0.32 48.5 0 1 1253.09 901.68
  Q 1239.07 865.86 1253.19 830.04
  A 0.34 0.34 0.0 0 1 1253.74 829.93
  Q 1253.86 830.05 1254.00 830.39
  Z"
/>
<ellipse fill="#9665c8" cx="0.00" cy="0.00" transform="translate(220.58,1080.82) rotate(-80.0)" rx="89.98" ry="88.95"/>
<ellipse fill="#9665c8" cx="0.00" cy="0.00" transform="translate(668.41,1080.79) rotate(-83.5)" rx="89.99" ry="88.76"/>
<ellipse fill="#9665c8" cx="0.00" cy="0.00" transform="translate(1113.84,1080.85) rotate(-83.3)" rx="90.02" ry="88.74"/>
<path fill="#9665c8" d="
  M 74.15 1254.00
  L 0.00 1254.00
  L 0.00 1209.69
  Q 31.61 1211.04 55.84 1231.16
  Q 67.40 1240.76 74.15 1254.00
  Z"
/>
<path fill="#9665c8" d="
  M 522.03 1254.00
  L 370.30 1254.00
  Q 379.32 1237.23 395.50 1226.02
  C 430.85 1201.54 476.04 1205.16 507.34 1234.42
  Q 516.47 1242.96 522.03 1254.00
  Z"
/>
<path fill="#9665c8" d="
  M 966.50 1254.00
  L 814.69 1254.00
  Q 825.28 1234.74 844.17 1223.11
  C 878.41 1202.03 920.15 1206.33 950.08 1232.92
  Q 960.58 1242.24 966.50 1254.00
  Z"
/>
</svg>
