<?xml version="1.0" encoding="UTF-8" standalone="no"?>
<!DOCTYPE svg PUBLIC "-//W3C//DTD SVG 1.1//EN" "http://www.w3.org/Graphics/SVG/1.1/DTD/svg11.dtd">
<svg xmlns="http://www.w3.org/2000/svg" version="1.1" viewBox="0.00 0.00 1254.00 1254.00">
<g stroke-width="2.00" fill="none" stroke-linecap="butt">
<path stroke="#fce49f" vector-effect="non-scaling-stroke" d="
  M 35.89 0.00
  Q 38.28 13.51 32.16 24.72
  Q 22.06 43.23 0.00 44.14"
/>
<path stroke="#fce49f" vector-effect="non-scaling-stroke" d="
  M 173.25 0.00
  Q 170.73 14.17 177.26 25.51
  C 190.83 49.10 224.45 50.61 239.58 27.59
  Q 247.56 15.46 244.89 0.00"
/>
<path stroke="#fce49f" vector-effect="non-scaling-stroke" d="
  M 382.26 0.00
  Q 379.96 12.85 385.53 23.98
  C 399.73 52.30 439.87 50.00 451.84 21.09
  Q 455.89 11.31 453.86 0.00"
/>
<path stroke="#fce49f" vector-effect="non-scaling-stroke" d="
  M 591.07 0.00
  Q 591.01 1.98 590.81 4.02
  Q 589.77 14.22 594.26 23.49
  C 602.63 40.78 622.14 48.22 639.94 41.63
  Q 648.77 38.36 654.52 31.53
  Q 665.84 18.08 662.88 0.00"
/>
<path stroke="#fce49f" vector-effect="non-scaling-stroke" d="
  M 800.25 0.00
  Q 797.65 14.54 804.80 26.42
  C 819.52 50.87 855.04 49.54 868.28 24.53
  Q 872.36 16.82 872.29 7.01
  Q 872.27 3.49 871.96 0.00"
/>
<path stroke="#fce49f" vector-effect="non-scaling-stroke" d="
  M 1009.24 0.00
  Q 1006.67 14.26 1013.50 25.94
  C 1027.21 49.39 1060.35 50.07 1075.36 27.81
  Q 1083.52 15.70 1080.84 0.00"
/>
<path stroke="#fce49f" vector-effect="non-scaling-stroke" d="
  M 1218.14 0.00
  Q 1215.82 13.10 1221.56 24.17
  Q 1230.03 40.52 1248.82 43.49
  Q 1251.40 43.90 1254.00 44.17"
/>
<path stroke="#fce49f" vector-effect="non-scaling-stroke" d="
  M 1254.00 178.52
  Q 1240.62 178.78 1230.88 186.86
  Q 1216.31 198.95 1217.66 218.50
  Q 1218.04 223.99 1219.75 227.99
  Q 1229.36 250.42 1254.00 251.69"
/>
<path stroke="#fce49f" vector-effect="non-scaling-stroke" d="
  M 1254.00 387.13
  Q 1236.05 387.59 1225.12 401.59
  C 1216.13 413.10 1214.90 429.69 1222.50 442.20
  Q 1233.10 459.66 1254.00 460.34"
/>
<path stroke="#fce49f" vector-effect="non-scaling-stroke" d="
  M 1254.00 596.00
  Q 1241.12 596.15 1231.55 603.79
  Q 1216.43 615.86 1217.68 635.76
  Q 1218.06 641.80 1220.17 646.52
  Q 1229.81 668.12 1254.00 669.33"
/>
<path stroke="#fce49f" vector-effect="non-scaling-stroke" d="
  M 1254.00 804.93
  C 1235.10 805.28 1219.32 819.32 1217.66 838.12
  C 1215.73 859.94 1232.22 877.77 1254.00 878.20"
/>
<path stroke="#fce49f" vector-effect="non-scaling-stroke" d="
  M 1254.00 1013.92
  Q 1240.70 1014.22 1231.01 1022.21
  Q 1216.60 1034.10 1217.69 1053.36
  Q 1218.19 1062.11 1222.83 1069.46
  Q 1233.57 1086.50 1254.00 1087.19"
/>
<path stroke="#fce49f" vector-effect="non-scaling-stroke" d="
  M 1254.00 1222.45
  C 1235.22 1223.51 1221.06 1235.32 1217.59 1254.00"
/>
<path stroke="#fce49f" vector-effect="non-scaling-stroke" d="
  M 1081.38 1254.00
  Q 1078.36 1239.04 1067.51 1230.56
  C 1055.33 1221.05 1038.52 1219.91 1025.38 1228.38
  Q 1011.86 1237.09 1008.59 1254.00"
/>
<path stroke="#fce49f" vector-effect="non-scaling-stroke" d="
  M 872.48 1254.00
  Q 871.70 1251.14 870.74 1248.34
  Q 866.41 1235.68 856.51 1229.01
  C 843.63 1220.34 826.82 1220.59 814.34 1229.84
  Q 802.53 1238.59 799.63 1254.00"
/>
<path stroke="#fce49f" vector-effect="non-scaling-stroke" d="
  M 663.41 1254.00
  Q 660.29 1238.48 648.90 1230.04
  C 626.02 1213.10 595.60 1226.87 590.65 1254.00"
/>
<path stroke="#fce49f" vector-effect="non-scaling-stroke" d="
  M 454.51 1254.00
  Q 453.75 1251.26 452.85 1248.56
  Q 448.50 1235.57 438.29 1228.84
  C 415.20 1213.61 386.57 1227.87 381.65 1254.00"
/>
<path stroke="#fce49f" vector-effect="non-scaling-stroke" d="
  M 245.47 1254.00
  Q 242.32 1238.65 231.22 1230.27
  C 208.52 1213.12 177.67 1226.61 172.70 1254.00"
/>
<path stroke="#fce49f" vector-effect="non-scaling-stroke" d="
  M 36.44 1254.00
  C 32.90 1235.85 18.72 1222.82 0.00 1222.54"
/>
<path stroke="#fce49f" vector-effect="non-scaling-stroke" d="
  M 0.00 1087.23
  Q 21.96 1086.40 32.14 1068.06
  Q 37.20 1058.95 36.55 1048.71
  Q 35.91 1038.67 30.05 1029.96
  Q 20.01 1015.04 0.00 1013.83"
/>
<path stroke="#fce49f" vector-effect="non-scaling-stroke" d="
  M 0.00 878.24
  Q 20.14 877.68 30.95 860.96
  Q 35.81 853.44 36.40 844.50
  Q 37.44 828.77 27.15 817.12
  Q 16.67 805.24 0.00 804.99"
/>
<path stroke="#fce49f" vector-effect="non-scaling-stroke" d="
  M 0.00 669.32
  Q 19.04 668.76 29.51 654.25
  Q 37.64 642.97 36.45 628.99
  Q 36.03 624.06 34.47 620.27
  Q 25.03 597.32 0.00 595.88"
/>
<path stroke="#fce49f" vector-effect="non-scaling-stroke" d="
  M 0.00 460.38
  Q 15.47 459.88 25.46 449.94
  C 48.54 427.01 33.04 387.33 0.00 387.14"
/>
<path stroke="#fce49f" vector-effect="non-scaling-stroke" d="
  M 0.00 251.71
  C 16.44 251.16 29.90 241.53 34.83 226.06
  Q 37.91 216.37 35.37 206.28
  C 31.22 189.85 17.02 178.86 0.00 178.52"
/>
<path stroke="#fce49f" vector-effect="non-scaling-stroke" d="
  M 141.10 111.30
  A 36.60 36.60 0.0 0 0 104.50 74.70
  A 36.60 36.60 0.0 0 0 67.90 111.30
  A 36.60 36.60 0.0 0 0 104.50 147.90
  A 36.60 36.60 0.0 0 0 141.10 111.30"
/>
<path stroke="#fce49f" vector-effect="non-scaling-stroke" d="
  M 350.08 111.31
  A 36.54 36.54 0.0 0 0 313.54 74.77
  A 36.54 36.54 0.0 0 0 277.00 111.31
  A 36.54 36.54 0.0 0 0 313.54 147.85
  A 36.54 36.54 0.0 0 0 350.08 111.31"
/>
<path stroke="#fce49f" vector-effect="non-scaling-stroke" d="
  M 977.03 111.30
  A 36.57 36.57 0.0 0 0 940.46 74.73
  A 36.57 36.57 0.0 0 0 903.89 111.30
  A 36.57 36.57 0.0 0 0 940.46 147.87
  A 36.57 36.57 0.0 0 0 977.03 111.30"
/>
<path stroke="#fce49f" vector-effect="non-scaling-stroke" d="
  M 559.09 111.32
  A 36.57 36.57 0.0 0 0 522.52 74.75
  A 36.57 36.57 0.0 0 0 485.95 111.32
  A 36.57 36.57 0.0 0 0 522.52 147.89
  A 36.57 36.57 0.0 0 0 559.09 111.32"
/>
<path stroke="#fce49f" vector-effect="non-scaling-stroke" d="
  M 768.05 111.32
  A 36.56 36.56 0.0 0 0 731.49 74.76
  A 36.56 36.56 0.0 0 0 694.93 111.32
  A 36.56 36.56 0.0 0 0 731.49 147.88
  A 36.56 36.56 0.0 0 0 768.05 111.32"
/>
<path stroke="#fce49f" vector-effect="non-scaling-stroke" d="
  M 1185.98 111.33
  A 36.56 36.56 0.0 0 0 1149.42 74.77
  A 36.56 36.56 0.0 0 0 1112.86 111.33
  A 36.56 36.56 0.0 0 0 1149.42 147.89
  A 36.56 36.56 0.0 0 0 1185.98 111.33"
/>
<path stroke="#fce49f" vector-effect="non-scaling-stroke" d="
  M 454.48 215.12
  A 36.47 36.47 0.0 0 0 418.01 178.65
  A 36.47 36.47 0.0 0 0 381.54 215.12
  A 36.47 36.47 0.0 0 0 418.01 251.59
  A 36.47 36.47 0.0 0 0 454.48 215.12"
/>
<path stroke="#fce49f" vector-effect="non-scaling-stroke" d="
  M 663.47 215.13
  A 36.47 36.47 0.0 0 0 627.00 178.66
  A 36.47 36.47 0.0 0 0 590.53 215.13
  A 36.47 36.47 0.0 0 0 627.00 251.60
  A 36.47 36.47 0.0 0 0 663.47 215.13"
/>
<path stroke="#fce49f" vector-effect="non-scaling-stroke" d="
  M 245.51 215.11
  A 36.46 36.46 0.0 0 0 209.05 178.65
  A 36.46 36.46 0.0 0 0 172.59 215.11
  A 36.46 36.46 0.0 0 0 209.05 251.57
  A 36.46 36.46 0.0 0 0 245.51 215.11"
/>
<path stroke="#fce49f" vector-effect="non-scaling-stroke" d="
  M 872.49 215.10
  A 36.47 36.47 0.0 0 0 836.02 178.63
  A 36.47 36.47 0.0 0 0 799.55 215.10
  A 36.47 36.47 0.0 0 0 836.02 251.57
  A 36.47 36.47 0.0 0 0 872.49 215.10"
/>
<path stroke="#fce49f" vector-effect="non-scaling-stroke" d="
  M 1081.45 215.12
  A 36.43 36.43 0.0 0 0 1045.02 178.69
  A 36.43 36.43 0.0 0 0 1008.59 215.12
  A 36.43 36.43 0.0 0 0 1045.02 251.55
  A 36.43 36.43 0.0 0 0 1081.45 215.12"
/>
<path stroke="#fce49f" vector-effect="non-scaling-stroke" d="
  M 141.10 319.46
  A 36.62 36.62 0.0 0 0 104.48 282.84
  A 36.62 36.62 0.0 0 0 67.86 319.46
  A 36.62 36.62 0.0 0 0 104.48 356.08
  A 36.62 36.62 0.0 0 0 141.10 319.46"
/>
<path stroke="#fce49f" vector-effect="non-scaling-stroke" d="
  M 350.11 319.48
  A 36.61 36.61 0.0 0 0 313.50 282.87
  A 36.61 36.61 0.0 0 0 276.89 319.48
  A 36.61 36.61 0.0 0 0 313.50 356.09
  A 36.61 36.61 0.0 0 0 350.11 319.48"
/>
<path stroke="#fce49f" vector-effect="non-scaling-stroke" d="
  M 559.13 319.48
  A 36.62 36.62 0.0 0 0 522.51 282.86
  A 36.62 36.62 0.0 0 0 485.89 319.48
  A 36.62 36.62 0.0 0 0 522.51 356.10
  A 36.62 36.62 0.0 0 0 559.13 319.48"
/>
<path stroke="#fce49f" vector-effect="non-scaling-stroke" d="
  M 768.10 319.49
  A 36.62 36.62 0.0 0 0 731.48 282.87
  A 36.62 36.62 0.0 0 0 694.86 319.49
  A 36.62 36.62 0.0 0 0 731.48 356.11
  A 36.62 36.62 0.0 0 0 768.10 319.49"
/>
<path stroke="#fce49f" vector-effect="non-scaling-stroke" d="
  M 977.06 319.49
  A 36.60 36.60 0.0 0 0 940.46 282.89
  A 36.60 36.60 0.0 0 0 903.86 319.49
  A 36.60 36.60 0.0 0 0 940.46 356.09
  A 36.60 36.60 0.0 0 0 977.06 319.49"
/>
<path stroke="#fce49f" vector-effect="non-scaling-stroke" d="
  M 1186.07 319.50
  A 36.61 36.61 0.0 0 0 1149.46 282.89
  A 36.61 36.61 0.0 0 0 1112.85 319.50
  A 36.61 36.61 0.0 0 0 1149.46 356.11
  A 36.61 36.61 0.0 0 0 1186.07 319.50"
/>
<path stroke="#fce49f" vector-effect="non-scaling-stroke" d="
  M 245.55 423.73
  A 36.49 36.49 0.0 0 0 209.06 387.24
  A 36.49 36.49 0.0 0 0 172.57 423.73
  A 36.49 36.49 0.0 0 0 209.06 460.22
  A 36.49 36.49 0.0 0 0 245.55 423.73"
/>
<path stroke="#fce49f" vector-effect="non-scaling-stroke" d="
  M 663.54 423.75
  A 36.48 36.48 0.0 0 0 627.06 387.27
  A 36.48 36.48 0.0 0 0 590.58 423.75
  A 36.48 36.48 0.0 0 0 627.06 460.23
  A 36.48 36.48 0.0 0 0 663.54 423.75"
/>
<path stroke="#fce49f" vector-effect="non-scaling-stroke" d="
  M 872.51 423.76
  A 36.46 36.46 0.0 0 0 836.05 387.30
  A 36.46 36.46 0.0 0 0 799.59 423.76
  A 36.46 36.46 0.0 0 0 836.05 460.22
  A 36.46 36.46 0.0 0 0 872.51 423.76"
/>
<path stroke="#fce49f" vector-effect="non-scaling-stroke" d="
  M 1081.47 423.76
  A 36.47 36.47 0.0 0 0 1045.00 387.29
  A 36.47 36.47 0.0 0 0 1008.53 423.76
  A 36.47 36.47 0.0 0 0 1045.00 460.23
  A 36.47 36.47 0.0 0 0 1081.47 423.76"
/>
<path stroke="#fce49f" vector-effect="non-scaling-stroke" d="
  M 454.55 423.76
  A 36.50 36.50 0.0 0 0 418.05 387.26
  A 36.50 36.50 0.0 0 0 381.55 423.76
  A 36.50 36.50 0.0 0 0 418.05 460.26
  A 36.50 36.50 0.0 0 0 454.55 423.76"
/>
<path stroke="#fce49f" vector-effect="non-scaling-stroke" d="
  M 141.12 528.26
  A 36.63 36.63 0.0 0 0 104.49 491.63
  A 36.63 36.63 0.0 0 0 67.86 528.26
  A 36.63 36.63 0.0 0 0 104.49 564.89
  A 36.63 36.63 0.0 0 0 141.12 528.26"
/>
<path stroke="#fce49f" vector-effect="non-scaling-stroke" d="
  M 350.12 528.27
  A 36.62 36.62 0.0 0 0 313.50 491.65
  A 36.62 36.62 0.0 0 0 276.88 528.27
  A 36.62 36.62 0.0 0 0 313.50 564.89
  A 36.62 36.62 0.0 0 0 350.12 528.27"
/>
<path stroke="#fce49f" vector-effect="non-scaling-stroke" d="
  M 559.15 528.27
  A 36.62 36.62 0.0 0 0 522.53 491.65
  A 36.62 36.62 0.0 0 0 485.91 528.27
  A 36.62 36.62 0.0 0 0 522.53 564.89
  A 36.62 36.62 0.0 0 0 559.15 528.27"
/>
<path stroke="#fce49f" vector-effect="non-scaling-stroke" d="
  M 768.12 528.30
  A 36.63 36.63 0.0 0 0 731.49 491.67
  A 36.63 36.63 0.0 0 0 694.86 528.30
  A 36.63 36.63 0.0 0 0 731.49 564.93
  A 36.63 36.63 0.0 0 0 768.12 528.30"
/>
<path stroke="#fce49f" vector-effect="non-scaling-stroke" d="
  M 977.08 528.32
  A 36.63 36.63 0.0 0 0 940.45 491.69
  A 36.63 36.63 0.0 0 0 903.82 528.32
  A 36.63 36.63 0.0 0 0 940.45 564.95
  A 36.63 36.63 0.0 0 0 977.08 528.32"
/>
<path stroke="#fce49f" vector-effect="non-scaling-stroke" d="
  M 1186.08 528.26
  A 36.61 36.61 0.0 0 0 1149.47 491.65
  A 36.61 36.61 0.0 0 0 1112.86 528.26
  A 36.61 36.61 0.0 0 0 1149.47 564.87
  A 36.61 36.61 0.0 0 0 1186.08 528.26"
/>
<path stroke="#fce49f" vector-effect="non-scaling-stroke" d="
  M 245.55 632.61
  A 36.49 36.49 0.0 0 0 209.06 596.12
  A 36.49 36.49 0.0 0 0 172.57 632.61
  A 36.49 36.49 0.0 0 0 209.06 669.10
  A 36.49 36.49 0.0 0 0 245.55 632.61"
/>
<path stroke="#fce49f" vector-effect="non-scaling-stroke" d="
  M 454.53 632.62
  A 36.48 36.48 0.0 0 0 418.05 596.14
  A 36.48 36.48 0.0 0 0 381.57 632.62
  A 36.48 36.48 0.0 0 0 418.05 669.10
  A 36.48 36.48 0.0 0 0 454.53 632.62"
/>
<path stroke="#fce49f" vector-effect="non-scaling-stroke" d="
  M 663.55 632.62
  A 36.50 36.50 0.0 0 0 627.05 596.12
  A 36.50 36.50 0.0 0 0 590.55 632.62
  A 36.50 36.50 0.0 0 0 627.05 669.12
  A 36.50 36.50 0.0 0 0 663.55 632.62"
/>
<path stroke="#fce49f" vector-effect="non-scaling-stroke" d="
  M 872.52 632.63
  A 36.47 36.47 0.0 0 0 836.05 596.16
  A 36.47 36.47 0.0 0 0 799.58 632.63
  A 36.47 36.47 0.0 0 0 836.05 669.10
  A 36.47 36.47 0.0 0 0 872.52 632.63"
/>
<path stroke="#fce49f" vector-effect="non-scaling-stroke" d="
  M 1081.53 632.64
  A 36.48 36.48 0.0 0 0 1045.05 596.16
  A 36.48 36.48 0.0 0 0 1008.57 632.64
  A 36.48 36.48 0.0 0 0 1045.05 669.12
  A 36.48 36.48 0.0 0 0 1081.53 632.64"
/>
<path stroke="#fce49f" vector-effect="non-scaling-stroke" d="
  M 141.12 737.26
  A 36.65 36.65 0.0 0 0 104.47 700.61
  A 36.65 36.65 0.0 0 0 67.82 737.26
  A 36.65 36.65 0.0 0 0 104.47 773.91
  A 36.65 36.65 0.0 0 0 141.12 737.26"
/>
<path stroke="#fce49f" vector-effect="non-scaling-stroke" d="
  M 350.11 737.29
  A 36.65 36.65 0.0 0 0 313.46 700.64
  A 36.65 36.65 0.0 0 0 276.81 737.29
  A 36.65 36.65 0.0 0 0 313.46 773.94
  A 36.65 36.65 0.0 0 0 350.11 737.29"
/>
<path stroke="#fce49f" vector-effect="non-scaling-stroke" d="
  M 768.12 737.29
  A 36.65 36.65 0.0 0 0 731.47 700.64
  A 36.65 36.65 0.0 0 0 694.82 737.29
  A 36.65 36.65 0.0 0 0 731.47 773.94
  A 36.65 36.65 0.0 0 0 768.12 737.29"
/>
<path stroke="#fce49f" vector-effect="non-scaling-stroke" d="
  M 977.09 737.30
  A 36.64 36.64 0.0 0 0 940.45 700.66
  A 36.64 36.64 0.0 0 0 903.81 737.30
  A 36.64 36.64 0.0 0 0 940.45 773.94
  A 36.64 36.64 0.0 0 0 977.09 737.30"
/>
<path stroke="#fce49f" vector-effect="non-scaling-stroke" d="
  M 559.17 737.26
  A 36.64 36.64 0.0 0 0 522.53 700.62
  A 36.64 36.64 0.0 0 0 485.89 737.26
  A 36.64 36.64 0.0 0 0 522.53 773.90
  A 36.64 36.64 0.0 0 0 559.17 737.26"
/>
<path stroke="#fce49f" vector-effect="non-scaling-stroke" d="
  M 1186.10 737.27
  A 36.66 36.66 0.0 0 0 1149.44 700.61
  A 36.66 36.66 0.0 0 0 1112.78 737.27
  A 36.66 36.66 0.0 0 0 1149.44 773.93
  A 36.66 36.66 0.0 0 0 1186.10 737.27"
/>
<path stroke="#fce49f" vector-effect="non-scaling-stroke" d="
  M 245.54 841.57
  A 36.48 36.48 0.0 0 0 209.06 805.09
  A 36.48 36.48 0.0 0 0 172.58 841.57
  A 36.48 36.48 0.0 0 0 209.06 878.05
  A 36.48 36.48 0.0 0 0 245.54 841.57"
/>
<path stroke="#fce49f" vector-effect="non-scaling-stroke" d="
  M 454.52 841.61
  A 36.48 36.48 0.0 0 0 418.04 805.13
  A 36.48 36.48 0.0 0 0 381.56 841.61
  A 36.48 36.48 0.0 0 0 418.04 878.09
  A 36.48 36.48 0.0 0 0 454.52 841.61"
/>
<path stroke="#fce49f" vector-effect="non-scaling-stroke" d="
  M 663.51 841.60
  A 36.47 36.47 0.0 0 0 627.04 805.13
  A 36.47 36.47 0.0 0 0 590.57 841.60
  A 36.47 36.47 0.0 0 0 627.04 878.07
  A 36.47 36.47 0.0 0 0 663.51 841.60"
/>
<path stroke="#fce49f" vector-effect="non-scaling-stroke" d="
  M 872.53 841.60
  A 36.47 36.47 0.0 0 0 836.06 805.13
  A 36.47 36.47 0.0 0 0 799.59 841.60
  A 36.47 36.47 0.0 0 0 836.06 878.07
  A 36.47 36.47 0.0 0 0 872.53 841.60"
/>
<path stroke="#fce49f" vector-effect="non-scaling-stroke" d="
  M 1081.51 841.61
  A 36.48 36.48 0.0 0 0 1045.03 805.13
  A 36.48 36.48 0.0 0 0 1008.55 841.61
  A 36.48 36.48 0.0 0 0 1045.03 878.09
  A 36.48 36.48 0.0 0 0 1081.51 841.61"
/>
<path stroke="#fce49f" vector-effect="non-scaling-stroke" d="
  M 141.12 946.20
  A 36.65 36.65 0.0 0 0 104.47 909.55
  A 36.65 36.65 0.0 0 0 67.82 946.20
  A 36.65 36.65 0.0 0 0 104.47 982.85
  A 36.65 36.65 0.0 0 0 141.12 946.20"
/>
<path stroke="#fce49f" vector-effect="non-scaling-stroke" d="
  M 350.12 946.23
  A 36.63 36.63 0.0 0 0 313.49 909.60
  A 36.63 36.63 0.0 0 0 276.86 946.23
  A 36.63 36.63 0.0 0 0 313.49 982.86
  A 36.63 36.63 0.0 0 0 350.12 946.23"
/>
<path stroke="#fce49f" vector-effect="non-scaling-stroke" d="
  M 559.12 946.22
  A 36.63 36.63 0.0 0 0 522.49 909.59
  A 36.63 36.63 0.0 0 0 485.86 946.22
  A 36.63 36.63 0.0 0 0 522.49 982.85
  A 36.63 36.63 0.0 0 0 559.12 946.22"
/>
<path stroke="#fce49f" vector-effect="non-scaling-stroke" d="
  M 768.08 946.23
  A 36.63 36.63 0.0 0 0 731.45 909.60
  A 36.63 36.63 0.0 0 0 694.82 946.23
  A 36.63 36.63 0.0 0 0 731.45 982.86
  A 36.63 36.63 0.0 0 0 768.08 946.23"
/>
<path stroke="#fce49f" vector-effect="non-scaling-stroke" d="
  M 977.09 946.22
  A 36.63 36.63 0.0 0 0 940.46 909.59
  A 36.63 36.63 0.0 0 0 903.83 946.22
  A 36.63 36.63 0.0 0 0 940.46 982.85
  A 36.63 36.63 0.0 0 0 977.09 946.22"
/>
<path stroke="#fce49f" vector-effect="non-scaling-stroke" d="
  M 1186.06 946.20
  A 36.62 36.62 0.0 0 0 1149.44 909.58
  A 36.62 36.62 0.0 0 0 1112.82 946.20
  A 36.62 36.62 0.0 0 0 1149.44 982.82
  A 36.62 36.62 0.0 0 0 1186.06 946.20"
/>
<path stroke="#fce49f" vector-effect="non-scaling-stroke" d="
  M 245.51 1050.58
  A 36.47 36.47 0.0 0 0 209.04 1014.11
  A 36.47 36.47 0.0 0 0 172.57 1050.58
  A 36.47 36.47 0.0 0 0 209.04 1087.05
  A 36.47 36.47 0.0 0 0 245.51 1050.58"
/>
<path stroke="#fce49f" vector-effect="non-scaling-stroke" d="
  M 454.50 1050.58
  A 36.47 36.47 0.0 0 0 418.03 1014.11
  A 36.47 36.47 0.0 0 0 381.56 1050.58
  A 36.47 36.47 0.0 0 0 418.03 1087.05
  A 36.47 36.47 0.0 0 0 454.50 1050.58"
/>
<path stroke="#fce49f" vector-effect="non-scaling-stroke" d="
  M 663.48 1050.54
  A 36.46 36.46 0.0 0 0 627.02 1014.08
  A 36.46 36.46 0.0 0 0 590.56 1050.54
  A 36.46 36.46 0.0 0 0 627.02 1087.00
  A 36.46 36.46 0.0 0 0 663.48 1050.54"
/>
<path stroke="#fce49f" vector-effect="non-scaling-stroke" d="
  M 872.49 1050.55
  A 36.46 36.46 0.0 0 0 836.03 1014.09
  A 36.46 36.46 0.0 0 0 799.57 1050.55
  A 36.46 36.46 0.0 0 0 836.03 1087.01
  A 36.46 36.46 0.0 0 0 872.49 1050.55"
/>
<path stroke="#fce49f" vector-effect="non-scaling-stroke" d="
  M 1081.47 1050.55
  A 36.46 36.46 0.0 0 0 1045.01 1014.09
  A 36.46 36.46 0.0 0 0 1008.55 1050.55
  A 36.46 36.46 0.0 0 0 1045.01 1087.01
  A 36.46 36.46 0.0 0 0 1081.47 1050.55"
/>
<path stroke="#fce49f" vector-effect="non-scaling-stroke" d="
  M 768.08 1155.09
  A 36.60 36.60 0.0 0 0 731.48 1118.49
  A 36.60 36.60 0.0 0 0 694.88 1155.09
  A 36.60 36.60 0.0 0 0 731.48 1191.69
  A 36.60 36.60 0.0 0 0 768.08 1155.09"
/>
<path stroke="#fce49f" vector-effect="non-scaling-stroke" d="
  M 141.10 1155.10
  A 36.62 36.62 0.0 0 0 104.48 1118.48
  A 36.62 36.62 0.0 0 0 67.86 1155.10
  A 36.62 36.62 0.0 0 0 104.48 1191.72
  A 36.62 36.62 0.0 0 0 141.10 1155.10"
/>
<path stroke="#fce49f" vector-effect="non-scaling-stroke" d="
  M 350.11 1155.08
  A 36.61 36.61 0.0 0 0 313.50 1118.47
  A 36.61 36.61 0.0 0 0 276.89 1155.08
  A 36.61 36.61 0.0 0 0 313.50 1191.69
  A 36.61 36.61 0.0 0 0 350.11 1155.08"
/>
<path stroke="#fce49f" vector-effect="non-scaling-stroke" d="
  M 559.11 1155.10
  A 36.59 36.59 0.0 0 0 522.52 1118.51
  A 36.59 36.59 0.0 0 0 485.93 1155.10
  A 36.59 36.59 0.0 0 0 522.52 1191.69
  A 36.59 36.59 0.0 0 0 559.11 1155.10"
/>
<path stroke="#fce49f" vector-effect="non-scaling-stroke" d="
  M 977.08 1155.10
  A 36.62 36.62 0.0 0 0 940.46 1118.48
  A 36.62 36.62 0.0 0 0 903.84 1155.10
  A 36.62 36.62 0.0 0 0 940.46 1191.72
  A 36.62 36.62 0.0 0 0 977.08 1155.10"
/>
<path stroke="#fce49f" vector-effect="non-scaling-stroke" d="
  M 1186.05 1155.07
  A 36.60 36.60 0.0 0 0 1149.45 1118.47
  A 36.60 36.60 0.0 0 0 1112.85 1155.07
  A 36.60 36.60 0.0 0 0 1149.45 1191.67
  A 36.60 36.60 0.0 0 0 1186.05 1155.07"
/>
</g>
<path fill="#fbd358" d="
  M 35.89 0.00
  Q 38.28 13.51 32.16 24.72
  Q 22.06 43.23 0.00 44.14
  L 0.00 0.00
  L 35.89 0.00
  Z"
/>
<path fill="#fcf5e6" d="
  M 173.25 0.00
  Q 170.73 14.17 177.26 25.51
  C 190.83 49.10 224.45 50.61 239.58 27.59
  Q 247.56 15.46 244.89 0.00
  L 382.26 0.00
  Q 379.96 12.85 385.53 23.98
  C 399.73 52.30 439.87 50.00 451.84 21.09
  Q 455.89 11.31 453.86 0.00
  L 591.07 0.00
  Q 591.01 1.98 590.81 4.02
  Q 589.77 14.22 594.26 23.49
  C 602.63 40.78 622.14 48.22 639.94 41.63
  Q 648.77 38.36 654.52 31.53
  Q 665.84 18.08 662.88 0.00
  L 800.25 0.00
  Q 797.65 14.54 804.80 26.42
  C 819.52 50.87 855.04 49.54 868.28 24.53
  Q 872.36 16.82 872.29 7.01
  Q 872.27 3.49 871.96 0.00
  L 1009.24 0.00
  Q 1006.67 14.26 1013.50 25.94
  C 1027.21 49.39 1060.35 50.07 1075.36 27.81
  Q 1083.52 15.70 1080.84 0.00
  L 1218.14 0.00
  Q 1215.82 13.10 1221.56 24.17
  Q 1230.03 40.52 1248.82 43.49
  Q 1251.40 43.90 1254.00 44.17
  L 1254.00 178.52
  Q 1240.62 178.78 1230.88 186.86
  Q 1216.31 198.95 1217.66 218.50
  Q 1218.04 223.99 1219.75 227.99
  Q 1229.36 250.42 1254.00 251.69
  L 1254.00 387.13
  Q 1236.05 387.59 1225.12 401.59
  C 1216.13 413.10 1214.90 429.69 1222.50 442.20
  Q 1233.10 459.66 1254.00 460.34
  L 1254.00 596.00
  Q 1241.12 596.15 1231.55 603.79
  Q 1216.43 615.86 1217.68 635.76
  Q 1218.06 641.80 1220.17 646.52
  Q 1229.81 668.12 1254.00 669.33
  L 1254.00 804.93
  C 1235.10 805.28 1219.32 819.32 1217.66 838.12
  C 1215.73 859.94 1232.22 877.77 1254.00 878.20
  L 1254.00 1013.92
  Q 1240.70 1014.22 1231.01 1022.21
  Q 1216.60 1034.10 1217.69 1053.36
  Q 1218.19 1062.11 1222.83 1069.46
  Q 1233.57 1086.50 1254.00 1087.19
  L 1254.00 1222.45
  C 1235.22 1223.51 1221.06 1235.32 1217.59 1254.00
  L 1081.38 1254.00
  Q 1078.36 1239.04 1067.51 1230.56
  C 1055.33 1221.05 1038.52 1219.91 1025.38 1228.38
  Q 1011.86 1237.09 1008.59 1254.00
  L 872.48 1254.00
  Q 871.70 1251.14 870.74 1248.34
  Q 866.41 1235.68 856.51 1229.01
  C 843.63 1220.34 826.82 1220.59 814.34 1229.84
  Q 802.53 1238.59 799.63 1254.00
  L 663.41 1254.00
  Q 660.29 1238.48 648.90 1230.04
  C 626.02 1213.10 595.60 1226.87 590.65 1254.00
  L 454.51 1254.00
  Q 453.75 1251.26 452.85 1248.56
  Q 448.50 1235.57 438.29 1228.84
  C 415.20 1213.61 386.57 1227.87 381.65 1254.00
  L 245.47 1254.00
  Q 242.32 1238.65 231.22 1230.27
  C 208.52 1213.12 177.67 1226.61 172.70 1254.00
  L 36.44 1254.00
  C 32.90 1235.85 18.72 1222.82 0.00 1222.54
  L 0.00 1087.23
  Q 21.96 1086.40 32.14 1068.06
  Q 37.20 1058.95 36.55 1048.71
  Q 35.91 1038.67 30.05 1029.96
  Q 20.01 1015.04 0.00 1013.83
  L 0.00 878.24
  Q 20.14 877.68 30.95 860.96
  Q 35.81 853.44 36.40 844.50
  Q 37.44 828.77 27.15 817.12
  Q 16.67 805.24 0.00 804.99
  L 0.00 669.32
  Q 19.04 668.76 29.51 654.25
  Q 37.64 642.97 36.45 628.99
  Q 36.03 624.06 34.47 620.27
  Q 25.03 597.32 0.00 595.88
  L 0.00 460.38
  Q 15.47 459.88 25.46 449.94
  C 48.54 427.01 33.04 387.33 0.00 387.14
  L 0.00 251.71
  C 16.44 251.16 29.90 241.53 34.83 226.06
  Q 37.91 216.37 35.37 206.28
  C 31.22 189.85 17.02 178.86 0.00 178.52
  L 0.00 44.14
  Q 22.06 43.23 32.16 24.72
  Q 38.28 13.51 35.89 0.00
  L 173.25 0.00
  Z
  M 141.10 111.30
  A 36.60 36.60 0.0 0 0 104.50 74.70
  A 36.60 36.60 0.0 0 0 67.90 111.30
  A 36.60 36.60 0.0 0 0 104.50 147.90
  A 36.60 36.60 0.0 0 0 141.10 111.30
  Z
  M 350.08 111.31
  A 36.54 36.54 0.0 0 0 313.54 74.77
  A 36.54 36.54 0.0 0 0 277.00 111.31
  A 36.54 36.54 0.0 0 0 313.54 147.85
  A 36.54 36.54 0.0 0 0 350.08 111.31
  Z
  M 977.03 111.30
  A 36.57 36.57 0.0 0 0 940.46 74.73
  A 36.57 36.57 0.0 0 0 903.89 111.30
  A 36.57 36.57 0.0 0 0 940.46 147.87
  A 36.57 36.57 0.0 0 0 977.03 111.30
  Z
  M 559.09 111.32
  A 36.57 36.57 0.0 0 0 522.52 74.75
  A 36.57 36.57 0.0 0 0 485.95 111.32
  A 36.57 36.57 0.0 0 0 522.52 147.89
  A 36.57 36.57 0.0 0 0 559.09 111.32
  Z
  M 768.05 111.32
  A 36.56 36.56 0.0 0 0 731.49 74.76
  A 36.56 36.56 0.0 0 0 694.93 111.32
  A 36.56 36.56 0.0 0 0 731.49 147.88
  A 36.56 36.56 0.0 0 0 768.05 111.32
  Z
  M 1185.98 111.33
  A 36.56 36.56 0.0 0 0 1149.42 74.77
  A 36.56 36.56 0.0 0 0 1112.86 111.33
  A 36.56 36.56 0.0 0 0 1149.42 147.89
  A 36.56 36.56 0.0 0 0 1185.98 111.33
  Z
  M 454.48 215.12
  A 36.47 36.47 0.0 0 0 418.01 178.65
  A 36.47 36.47 0.0 0 0 381.54 215.12
  A 36.47 36.47 0.0 0 0 418.01 251.59
  A 36.47 36.47 0.0 0 0 454.48 215.12
  Z
  M 663.47 215.13
  A 36.47 36.47 0.0 0 0 627.00 178.66
  A 36.47 36.47 0.0 0 0 590.53 215.13
  A 36.47 36.47 0.0 0 0 627.00 251.60
  A 36.47 36.47 0.0 0 0 663.47 215.13
  Z
  M 245.51 215.11
  A 36.46 36.46 0.0 0 0 209.05 178.65
  A 36.46 36.46 0.0 0 0 172.59 215.11
  A 36.46 36.46 0.0 0 0 209.05 251.57
  A 36.46 36.46 0.0 0 0 245.51 215.11
  Z
  M 872.49 215.10
  A 36.47 36.47 0.0 0 0 836.02 178.63
  A 36.47 36.47 0.0 0 0 799.55 215.10
  A 36.47 36.47 0.0 0 0 836.02 251.57
  A 36.47 36.47 0.0 0 0 872.49 215.10
  Z
  M 1081.45 215.12
  A 36.43 36.43 0.0 0 0 1045.02 178.69
  A 36.43 36.43 0.0 0 0 1008.59 215.12
  A 36.43 36.43 0.0 0 0 1045.02 251.55
  A 36.43 36.43 0.0 0 0 1081.45 215.12
  Z
  M 141.10 319.46
  A 36.62 36.62 0.0 0 0 104.48 282.84
  A 36.62 36.62 0.0 0 0 67.86 319.46
  A 36.62 36.62 0.0 0 0 104.48 356.08
  A 36.62 36.62 0.0 0 0 141.10 319.46
  Z
  M 350.11 319.48
  A 36.61 36.61 0.0 0 0 313.50 282.87
  A 36.61 36.61 0.0 0 0 276.89 319.48
  A 36.61 36.61 0.0 0 0 313.50 356.09
  A 36.61 36.61 0.0 0 0 350.11 319.48
  Z
  M 559.13 319.48
  A 36.62 36.62 0.0 0 0 522.51 282.86
  A 36.62 36.62 0.0 0 0 485.89 319.48
  A 36.62 36.62 0.0 0 0 522.51 356.10
  A 36.62 36.62 0.0 0 0 559.13 319.48
  Z
  M 768.10 319.49
  A 36.62 36.62 0.0 0 0 731.48 282.87
  A 36.62 36.62 0.0 0 0 694.86 319.49
  A 36.62 36.62 0.0 0 0 731.48 356.11
  A 36.62 36.62 0.0 0 0 768.10 319.49
  Z
  M 977.06 319.49
  A 36.60 36.60 0.0 0 0 940.46 282.89
  A 36.60 36.60 0.0 0 0 903.86 319.49
  A 36.60 36.60 0.0 0 0 940.46 356.09
  A 36.60 36.60 0.0 0 0 977.06 319.49
  Z
  M 1186.07 319.50
  A 36.61 36.61 0.0 0 0 1149.46 282.89
  A 36.61 36.61 0.0 0 0 1112.85 319.50
  A 36.61 36.61 0.0 0 0 1149.46 356.11
  A 36.61 36.61 0.0 0 0 1186.07 319.50
  Z
  M 245.55 423.73
  A 36.49 36.49 0.0 0 0 209.06 387.24
  A 36.49 36.49 0.0 0 0 172.57 423.73
  A 36.49 36.49 0.0 0 0 209.06 460.22
  A 36.49 36.49 0.0 0 0 245.55 423.73
  Z
  M 663.54 423.75
  A 36.48 36.48 0.0 0 0 627.06 387.27
  A 36.48 36.48 0.0 0 0 590.58 423.75
  A 36.48 36.48 0.0 0 0 627.06 460.23
  A 36.48 36.48 0.0 0 0 663.54 423.75
  Z
  M 872.51 423.76
  A 36.46 36.46 0.0 0 0 836.05 387.30
  A 36.46 36.46 0.0 0 0 799.59 423.76
  A 36.46 36.46 0.0 0 0 836.05 460.22
  A 36.46 36.46 0.0 0 0 872.51 423.76
  Z
  M 1081.47 423.76
  A 36.47 36.47 0.0 0 0 1045.00 387.29
  A 36.47 36.47 0.0 0 0 1008.53 423.76
  A 36.47 36.47 0.0 0 0 1045.00 460.23
  A 36.47 36.47 0.0 0 0 1081.47 423.76
  Z
  M 454.55 423.76
  A 36.50 36.50 0.0 0 0 418.05 387.26
  A 36.50 36.50 0.0 0 0 381.55 423.76
  A 36.50 36.50 0.0 0 0 418.05 460.26
  A 36.50 36.50 0.0 0 0 454.55 423.76
  Z
  M 141.12 528.26
  A 36.63 36.63 0.0 0 0 104.49 491.63
  A 36.63 36.63 0.0 0 0 67.86 528.26
  A 36.63 36.63 0.0 0 0 104.49 564.89
  A 36.63 36.63 0.0 0 0 141.12 528.26
  Z
  M 350.12 528.27
  A 36.62 36.62 0.0 0 0 313.50 491.65
  A 36.62 36.62 0.0 0 0 276.88 528.27
  A 36.62 36.62 0.0 0 0 313.50 564.89
  A 36.62 36.62 0.0 0 0 350.12 528.27
  Z
  M 559.15 528.27
  A 36.62 36.62 0.0 0 0 522.53 491.65
  A 36.62 36.62 0.0 0 0 485.91 528.27
  A 36.62 36.62 0.0 0 0 522.53 564.89
  A 36.62 36.62 0.0 0 0 559.15 528.27
  Z
  M 768.12 528.30
  A 36.63 36.63 0.0 0 0 731.49 491.67
  A 36.63 36.63 0.0 0 0 694.86 528.30
  A 36.63 36.63 0.0 0 0 731.49 564.93
  A 36.63 36.63 0.0 0 0 768.12 528.30
  Z
  M 977.08 528.32
  A 36.63 36.63 0.0 0 0 940.45 491.69
  A 36.63 36.63 0.0 0 0 903.82 528.32
  A 36.63 36.63 0.0 0 0 940.45 564.95
  A 36.63 36.63 0.0 0 0 977.08 528.32
  Z
  M 1186.08 528.26
  A 36.61 36.61 0.0 0 0 1149.47 491.65
  A 36.61 36.61 0.0 0 0 1112.86 528.26
  A 36.61 36.61 0.0 0 0 1149.47 564.87
  A 36.61 36.61 0.0 0 0 1186.08 528.26
  Z
  M 245.55 632.61
  A 36.49 36.49 0.0 0 0 209.06 596.12
  A 36.49 36.49 0.0 0 0 172.57 632.61
  A 36.49 36.49 0.0 0 0 209.06 669.10
  A 36.49 36.49 0.0 0 0 245.55 632.61
  Z
  M 454.53 632.62
  A 36.48 36.48 0.0 0 0 418.05 596.14
  A 36.48 36.48 0.0 0 0 381.57 632.62
  A 36.48 36.48 0.0 0 0 418.05 669.10
  A 36.48 36.48 0.0 0 0 454.53 632.62
  Z
  M 663.55 632.62
  A 36.50 36.50 0.0 0 0 627.05 596.12
  A 36.50 36.50 0.0 0 0 590.55 632.62
  A 36.50 36.50 0.0 0 0 627.05 669.12
  A 36.50 36.50 0.0 0 0 663.55 632.62
  Z
  M 872.52 632.63
  A 36.47 36.47 0.0 0 0 836.05 596.16
  A 36.47 36.47 0.0 0 0 799.58 632.63
  A 36.47 36.47 0.0 0 0 836.05 669.10
  A 36.47 36.47 0.0 0 0 872.52 632.63
  Z
  M 1081.53 632.64
  A 36.48 36.48 0.0 0 0 1045.05 596.16
  A 36.48 36.48 0.0 0 0 1008.57 632.64
  A 36.48 36.48 0.0 0 0 1045.05 669.12
  A 36.48 36.48 0.0 0 0 1081.53 632.64
  Z
  M 141.12 737.26
  A 36.65 36.65 0.0 0 0 104.47 700.61
  A 36.65 36.65 0.0 0 0 67.82 737.26
  A 36.65 36.65 0.0 0 0 104.47 773.91
  A 36.65 36.65 0.0 0 0 141.12 737.26
  Z
  M 350.11 737.29
  A 36.65 36.65 0.0 0 0 313.46 700.64
  A 36.65 36.65 0.0 0 0 276.81 737.29
  A 36.65 36.65 0.0 0 0 313.46 773.94
  A 36.65 36.65 0.0 0 0 350.11 737.29
  Z
  M 768.12 737.29
  A 36.65 36.65 0.0 0 0 731.47 700.64
  A 36.65 36.65 0.0 0 0 694.82 737.29
  A 36.65 36.65 0.0 0 0 731.47 773.94
  A 36.65 36.65 0.0 0 0 768.12 737.29
  Z
  M 977.09 737.30
  A 36.64 36.64 0.0 0 0 940.45 700.66
  A 36.64 36.64 0.0 0 0 903.81 737.30
  A 36.64 36.64 0.0 0 0 940.45 773.94
  A 36.64 36.64 0.0 0 0 977.09 737.30
  Z
  M 559.17 737.26
  A 36.64 36.64 0.0 0 0 522.53 700.62
  A 36.64 36.64 0.0 0 0 485.89 737.26
  A 36.64 36.64 0.0 0 0 522.53 773.90
  A 36.64 36.64 0.0 0 0 559.17 737.26
  Z
  M 1186.10 737.27
  A 36.66 36.66 0.0 0 0 1149.44 700.61
  A 36.66 36.66 0.0 0 0 1112.78 737.27
  A 36.66 36.66 0.0 0 0 1149.44 773.93
  A 36.66 36.66 0.0 0 0 1186.10 737.27
  Z
  M 245.54 841.57
  A 36.48 36.48 0.0 0 0 209.06 805.09
  A 36.48 36.48 0.0 0 0 172.58 841.57
  A 36.48 36.48 0.0 0 0 209.06 878.05
  A 36.48 36.48 0.0 0 0 245.54 841.57
  Z
  M 454.52 841.61
  A 36.48 36.48 0.0 0 0 418.04 805.13
  A 36.48 36.48 0.0 0 0 381.56 841.61
  A 36.48 36.48 0.0 0 0 418.04 878.09
  A 36.48 36.48 0.0 0 0 454.52 841.61
  Z
  M 663.51 841.60
  A 36.47 36.47 0.0 0 0 627.04 805.13
  A 36.47 36.47 0.0 0 0 590.57 841.60
  A 36.47 36.47 0.0 0 0 627.04 878.07
  A 36.47 36.47 0.0 0 0 663.51 841.60
  Z
  M 872.53 841.60
  A 36.47 36.47 0.0 0 0 836.06 805.13
  A 36.47 36.47 0.0 0 0 799.59 841.60
  A 36.47 36.47 0.0 0 0 836.06 878.07
  A 36.47 36.47 0.0 0 0 872.53 841.60
  Z
  M 1081.51 841.61
  A 36.48 36.48 0.0 0 0 1045.03 805.13
  A 36.48 36.48 0.0 0 0 1008.55 841.61
  A 36.48 36.48 0.0 0 0 1045.03 878.09
  A 36.48 36.48 0.0 0 0 1081.51 841.61
  Z
  M 141.12 946.20
  A 36.65 36.65 0.0 0 0 104.47 909.55
  A 36.65 36.65 0.0 0 0 67.82 946.20
  A 36.65 36.65 0.0 0 0 104.47 982.85
  A 36.65 36.65 0.0 0 0 141.12 946.20
  Z
  M 350.12 946.23
  A 36.63 36.63 0.0 0 0 313.49 909.60
  A 36.63 36.63 0.0 0 0 276.86 946.23
  A 36.63 36.63 0.0 0 0 313.49 982.86
  A 36.63 36.63 0.0 0 0 350.12 946.23
  Z
  M 559.12 946.22
  A 36.63 36.63 0.0 0 0 522.49 909.59
  A 36.63 36.63 0.0 0 0 485.86 946.22
  A 36.63 36.63 0.0 0 0 522.49 982.85
  A 36.63 36.63 0.0 0 0 559.12 946.22
  Z
  M 768.08 946.23
  A 36.63 36.63 0.0 0 0 731.45 909.60
  A 36.63 36.63 0.0 0 0 694.82 946.23
  A 36.63 36.63 0.0 0 0 731.45 982.86
  A 36.63 36.63 0.0 0 0 768.08 946.23
  Z
  M 977.09 946.22
  A 36.63 36.63 0.0 0 0 940.46 909.59
  A 36.63 36.63 0.0 0 0 903.83 946.22
  A 36.63 36.63 0.0 0 0 940.46 982.85
  A 36.63 36.63 0.0 0 0 977.09 946.22
  Z
  M 1186.06 946.20
  A 36.62 36.62 0.0 0 0 1149.44 909.58
  A 36.62 36.62 0.0 0 0 1112.82 946.20
  A 36.62 36.62 0.0 0 0 1149.44 982.82
  A 36.62 36.62 0.0 0 0 1186.06 946.20
  Z
  M 245.51 1050.58
  A 36.47 36.47 0.0 0 0 209.04 1014.11
  A 36.47 36.47 0.0 0 0 172.57 1050.58
  A 36.47 36.47 0.0 0 0 209.04 1087.05
  A 36.47 36.47 0.0 0 0 245.51 1050.58
  Z
  M 454.50 1050.58
  A 36.47 36.47 0.0 0 0 418.03 1014.11
  A 36.47 36.47 0.0 0 0 381.56 1050.58
  A 36.47 36.47 0.0 0 0 418.03 1087.05
  A 36.47 36.47 0.0 0 0 454.50 1050.58
  Z
  M 663.48 1050.54
  A 36.46 36.46 0.0 0 0 627.02 1014.08
  A 36.46 36.46 0.0 0 0 590.56 1050.54
  A 36.46 36.46 0.0 0 0 627.02 1087.00
  A 36.46 36.46 0.0 0 0 663.48 1050.54
  Z
  M 872.49 1050.55
  A 36.46 36.46 0.0 0 0 836.03 1014.09
  A 36.46 36.46 0.0 0 0 799.57 1050.55
  A 36.46 36.46 0.0 0 0 836.03 1087.01
  A 36.46 36.46 0.0 0 0 872.49 1050.55
  Z
  M 1081.47 1050.55
  A 36.46 36.46 0.0 0 0 1045.01 1014.09
  A 36.46 36.46 0.0 0 0 1008.55 1050.55
  A 36.46 36.46 0.0 0 0 1045.01 1087.01
  A 36.46 36.46 0.0 0 0 1081.47 1050.55
  Z
  M 768.08 1155.09
  A 36.60 36.60 0.0 0 0 731.48 1118.49
  A 36.60 36.60 0.0 0 0 694.88 1155.09
  A 36.60 36.60 0.0 0 0 731.48 1191.69
  A 36.60 36.60 0.0 0 0 768.08 1155.09
  Z
  M 141.10 1155.10
  A 36.62 36.62 0.0 0 0 104.48 1118.48
  A 36.62 36.62 0.0 0 0 67.86 1155.10
  A 36.62 36.62 0.0 0 0 104.48 1191.72
  A 36.62 36.62 0.0 0 0 141.10 1155.10
  Z
  M 350.11 1155.08
  A 36.61 36.61 0.0 0 0 313.50 1118.47
  A 36.61 36.61 0.0 0 0 276.89 1155.08
  A 36.61 36.61 0.0 0 0 313.50 1191.69
  A 36.61 36.61 0.0 0 0 350.11 1155.08
  Z
  M 559.11 1155.10
  A 36.59 36.59 0.0 0 0 522.52 1118.51
  A 36.59 36.59 0.0 0 0 485.93 1155.10
  A 36.59 36.59 0.0 0 0 522.52 1191.69
  A 36.59 36.59 0.0 0 0 559.11 1155.10
  Z
  M 977.08 1155.10
  A 36.62 36.62 0.0 0 0 940.46 1118.48
  A 36.62 36.62 0.0 0 0 903.84 1155.10
  A 36.62 36.62 0.0 0 0 940.46 1191.72
  A 36.62 36.62 0.0 0 0 977.08 1155.10
  Z
  M 1186.05 1155.07
  A 36.60 36.60 0.0 0 0 1149.45 1118.47
  A 36.60 36.60 0.0 0 0 1112.85 1155.07
  A 36.60 36.60 0.0 0 0 1149.45 1191.67
  A 36.60 36.60 0.0 0 0 1186.05 1155.07
  Z"
/>
<path fill="#fbd358" d="
  M 244.89 0.00
  Q 247.56 15.46 239.58 27.59
  C 224.45 50.61 190.83 49.10 177.26 25.51
  Q 170.73 14.17 173.25 0.00
  L 244.89 0.00
  Z"
/>
<path fill="#fbd358" d="
  M 453.86 0.00
  Q 455.89 11.31 451.84 21.09
  C 439.87 50.00 399.73 52.30 385.53 23.98
  Q 379.96 12.85 382.26 0.00
  L 453.86 0.00
  Z"
/>
<path fill="#fbd358" d="
  M 662.88 0.00
  Q 665.84 18.08 654.52 31.53
  Q 648.77 38.36 639.94 41.63
  C 622.14 48.22 602.63 40.78 594.26 23.49
  Q 589.77 14.22 590.81 4.02
  Q 591.01 1.98 591.07 0.00
  L 662.88 0.00
  Z"
/>
<path fill="#fbd358" d="
  M 871.96 0.00
  Q 872.27 3.49 872.29 7.01
  Q 872.36 16.82 868.28 24.53
  C 855.04 49.54 819.52 50.87 804.80 26.42
  Q 797.65 14.54 800.25 0.00
  L 871.96 0.00
  Z"
/>
<path fill="#fbd358" d="
  M 1080.84 0.00
  Q 1083.52 15.70 1075.36 27.81
  C 1060.35 50.07 1027.21 49.39 1013.50 25.94
  Q 1006.67 14.26 1009.24 0.00
  L 1080.84 0.00
  Z"
/>
<path fill="#fbd358" d="
  M 1254.00 0.00
  L 1254.00 44.17
  Q 1251.40 43.90 1248.82 43.49
  Q 1230.03 40.52 1221.56 24.17
  Q 1215.82 13.10 1218.14 0.00
  L 1254.00 0.00
  Z"
/>
<circle fill="#fbd358" cx="104.50" cy="111.30" r="36.60"/>
<circle fill="#fbd358" cx="313.54" cy="111.31" r="36.54"/>
<circle fill="#fbd358" cx="940.46" cy="111.30" r="36.57"/>
<circle fill="#fbd358" cx="522.52" cy="111.32" r="36.57"/>
<circle fill="#fbd358" cx="731.49" cy="111.32" r="36.56"/>
<circle fill="#fbd358" cx="1149.42" cy="111.33" r="36.56"/>
<path fill="#fbd358" d="
  M 0.00 251.71
  L 0.00 178.52
  C 17.02 178.86 31.22 189.85 35.37 206.28
  Q 37.91 216.37 34.83 226.06
  C 29.90 241.53 16.44 251.16 0.00 251.71
  Z"
/>
<circle fill="#fbd358" cx="418.01" cy="215.12" r="36.47"/>
<circle fill="#fbd358" cx="627.00" cy="215.13" r="36.47"/>
<path fill="#fbd358" d="
  M 1254.00 178.52
  L 1254.00 251.69
  Q 1229.36 250.42 1219.75 227.99
  Q 1218.04 223.99 1217.66 218.50
  Q 1216.31 198.95 1230.88 186.86
  Q 1240.62 178.78 1254.00 178.52
  Z"
/>
<circle fill="#fbd358" cx="209.05" cy="215.11" r="36.46"/>
<circle fill="#fbd358" cx="836.02" cy="215.10" r="36.47"/>
<circle fill="#fbd358" cx="1045.02" cy="215.12" r="36.43"/>
<circle fill="#fbd358" cx="104.48" cy="319.46" r="36.62"/>
<circle fill="#fbd358" cx="313.50" cy="319.48" r="36.61"/>
<circle fill="#fbd358" cx="522.51" cy="319.48" r="36.62"/>
<circle fill="#fbd358" cx="731.48" cy="319.49" r="36.62"/>
<circle fill="#fbd358" cx="940.46" cy="319.49" r="36.60"/>
<circle fill="#fbd358" cx="1149.46" cy="319.50" r="36.61"/>
<path fill="#fbd358" d="
  M 0.00 460.38
  L 0.00 387.14
  C 33.04 387.33 48.54 427.01 25.46 449.94
  Q 15.47 459.88 0.00 460.38
  Z"
/>
<circle fill="#fbd358" cx="209.06" cy="423.73" r="36.49"/>
<circle fill="#fbd358" cx="627.06" cy="423.75" r="36.48"/>
<circle fill="#fbd358" cx="836.05" cy="423.76" r="36.46"/>
<circle fill="#fbd358" cx="1045.00" cy="423.76" r="36.47"/>
<path fill="#fbd358" d="
  M 1254.00 387.13
  L 1254.00 460.34
  Q 1233.10 459.66 1222.50 442.20
  C 1214.90 429.69 1216.13 413.10 1225.12 401.59
  Q 1236.05 387.59 1254.00 387.13
  Z"
/>
<circle fill="#fbd358" cx="418.05" cy="423.76" r="36.50"/>
<circle fill="#fbd358" cx="104.49" cy="528.26" r="36.63"/>
<circle fill="#fbd358" cx="313.50" cy="528.27" r="36.62"/>
<circle fill="#fbd358" cx="522.53" cy="528.27" r="36.62"/>
<circle fill="#fbd358" cx="731.49" cy="528.30" r="36.63"/>
<circle fill="#fbd358" cx="940.45" cy="528.32" r="36.63"/>
<circle fill="#fbd358" cx="1149.47" cy="528.26" r="36.61"/>
<path fill="#fbd358" d="
  M 0.00 669.32
  L 0.00 595.88
  Q 25.03 597.32 34.47 620.27
  Q 36.03 624.06 36.45 628.99
  Q 37.64 642.97 29.51 654.25
  Q 19.04 668.76 0.00 669.32
  Z"
/>
<circle fill="#fbd358" cx="209.06" cy="632.61" r="36.49"/>
<circle fill="#fbd358" cx="418.05" cy="632.62" r="36.48"/>
<circle fill="#fbd358" cx="627.05" cy="632.62" r="36.50"/>
<circle fill="#fbd358" cx="836.05" cy="632.63" r="36.47"/>
<circle fill="#fbd358" cx="1045.05" cy="632.64" r="36.48"/>
<path fill="#fbd358" d="
  M 1254.00 596.00
  L 1254.00 669.33
  Q 1229.81 668.12 1220.17 646.52
  Q 1218.06 641.80 1217.68 635.76
  Q 1216.43 615.86 1231.55 603.79
  Q 1241.12 596.15 1254.00 596.00
  Z"
/>
<circle fill="#fbd358" cx="104.47" cy="737.26" r="36.65"/>
<circle fill="#fbd358" cx="313.46" cy="737.29" r="36.65"/>
<circle fill="#fbd358" cx="731.47" cy="737.29" r="36.65"/>
<circle fill="#fbd358" cx="940.45" cy="737.30" r="36.64"/>
<circle fill="#fbd358" cx="522.53" cy="737.26" r="36.64"/>
<circle fill="#fbd358" cx="1149.44" cy="737.27" r="36.66"/>
<path fill="#fbd358" d="
  M 1254.00 804.93
  L 1254.00 878.20
  C 1232.22 877.77 1215.73 859.94 1217.66 838.12
  C 1219.32 819.32 1235.10 805.28 1254.00 804.93
  Z"
/>
<path fill="#fbd358" d="
  M 0.00 878.24
  L 0.00 804.99
  Q 16.67 805.24 27.15 817.12
  Q 37.44 828.77 36.40 844.50
  Q 35.81 853.44 30.95 860.96
  Q 20.14 877.68 0.00 878.24
  Z"
/>
<circle fill="#fbd358" cx="209.06" cy="841.57" r="36.48"/>
<circle fill="#fbd358" cx="418.04" cy="841.61" r="36.48"/>
<circle fill="#fbd358" cx="627.04" cy="841.60" r="36.47"/>
<circle fill="#fbd358" cx="836.06" cy="841.60" r="36.47"/>
<circle fill="#fbd358" cx="1045.03" cy="841.61" r="36.48"/>
<circle fill="#fbd358" cx="104.47" cy="946.20" r="36.65"/>
<circle fill="#fbd358" cx="313.49" cy="946.23" r="36.63"/>
<circle fill="#fbd358" cx="522.49" cy="946.22" r="36.63"/>
<circle fill="#fbd358" cx="731.45" cy="946.23" r="36.63"/>
<circle fill="#fbd358" cx="940.46" cy="946.22" r="36.63"/>
<circle fill="#fbd358" cx="1149.44" cy="946.20" r="36.62"/>
<path fill="#fbd358" d="
  M 0.00 1087.23
  L 0.00 1013.83
  Q 20.01 1015.04 30.05 1029.96
  Q 35.91 1038.67 36.55 1048.71
  Q 37.20 1058.95 32.14 1068.06
  Q 21.96 1086.40 0.00 1087.23
  Z"
/>
<path fill="#fbd358" d="
  M 1254.00 1013.92
  L 1254.00 1087.19
  Q 1233.57 1086.50 1222.83 1069.46
  Q 1218.19 1062.11 1217.69 1053.36
  Q 1216.60 1034.10 1231.01 1022.21
  Q 1240.70 1014.22 1254.00 1013.92
  Z"
/>
<circle fill="#fbd358" cx="209.04" cy="1050.58" r="36.47"/>
<circle fill="#fbd358" cx="418.03" cy="1050.58" r="36.47"/>
<circle fill="#fbd358" cx="627.02" cy="1050.54" r="36.46"/>
<circle fill="#fbd358" cx="836.03" cy="1050.55" r="36.46"/>
<circle fill="#fbd358" cx="1045.01" cy="1050.55" r="36.46"/>
<circle fill="#fbd358" cx="731.48" cy="1155.09" r="36.60"/>
<circle fill="#fbd358" cx="104.48" cy="1155.10" r="36.62"/>
<circle fill="#fbd358" cx="313.50" cy="1155.08" r="36.61"/>
<circle fill="#fbd358" cx="522.52" cy="1155.10" r="36.59"/>
<circle fill="#fbd358" cx="940.46" cy="1155.10" r="36.62"/>
<circle fill="#fbd358" cx="1149.45" cy="1155.07" r="36.60"/>
<path fill="#fbd358" d="
  M 36.44 1254.00
  L 0.00 1254.00
  L 0.00 1222.54
  C 18.72 1222.82 32.90 1235.85 36.44 1254.00
  Z"
/>
<path fill="#fbd358" d="
  M 1254.00 1222.45
  L 1254.00 1254.00
  L 1217.59 1254.00
  C 1221.06 1235.32 1235.22 1223.51 1254.00 1222.45
  Z"
/>
<path fill="#fbd358" d="
  M 245.47 1254.00
  L 172.70 1254.00
  C 177.67 1226.61 208.52 1213.12 231.22 1230.27
  Q 242.32 1238.65 245.47 1254.00
  Z"
/>
<path fill="#fbd358" d="
  M 454.51 1254.00
  L 381.65 1254.00
  C 386.57 1227.87 415.20 1213.61 438.29 1228.84
  Q 448.50 1235.57 452.85 1248.56
  Q 453.75 1251.26 454.51 1254.00
  Z"
/>
<path fill="#fbd358" d="
  M 663.41 1254.00
  L 590.65 1254.00
  C 595.60 1226.87 626.02 1213.10 648.90 1230.04
  Q 660.29 1238.48 663.41 1254.00
  Z"
/>
<path fill="#fbd358" d="
  M 872.48 1254.00
  L 799.63 1254.00
  Q 802.53 1238.59 814.34 1229.84
  C 826.82 1220.59 843.63 1220.34 856.51 1229.01
  Q 866.41 1235.68 870.74 1248.34
  Q 871.70 1251.14 872.48 1254.00
  Z"
/>
<path fill="#fbd358" d="
  M 1081.38 1254.00
  L 1008.59 1254.00
  Q 1011.86 1237.09 1025.38 1228.38
  C 1038.52 1219.91 1055.33 1221.05 1067.51 1230.56
  Q 1078.36 1239.04 1081.38 1254.00
  Z"
/>
</svg>
