<?xml version="1.0" encoding="UTF-8" standalone="no"?>
<!DOCTYPE svg PUBLIC "-//W3C//DTD SVG 1.1//EN" "http://www.w3.org/Graphics/SVG/1.1/DTD/svg11.dtd">
<svg xmlns="http://www.w3.org/2000/svg" version="1.1" viewBox="0.00 0.00 1254.00 1254.00">
<g stroke-width="2.00" fill="none" stroke-linecap="butt">
<path stroke="#8da593" vector-effect="non-scaling-stroke" d="
  M 1254.00 22.21
  L 0.00 22.21"
/>
<path stroke="#8da593" vector-effect="non-scaling-stroke" d="
  M 1254.00 29.72
  L 0.00 29.73"
/>
<path stroke="#8da593" vector-effect="non-scaling-stroke" d="
  M 1254.00 86.69
  L 0.00 86.69"
/>
<path stroke="#8da593" vector-effect="non-scaling-stroke" d="
  M 1254.00 94.36
  L 0.00 94.36"
/>
<path stroke="#8da593" vector-effect="non-scaling-stroke" d="
  M 1254.00 151.31
  L 0.00 151.32"
/>
<path stroke="#8da593" vector-effect="non-scaling-stroke" d="
  M 1254.00 158.83
  L 0.00 158.83"
/>
<path stroke="#8da593" vector-effect="non-scaling-stroke" d="
  M 1254.00 215.86
  L 0.00 215.86"
/>
<path stroke="#8da593" vector-effect="non-scaling-stroke" d="
  M 1254.00 223.45
  L 0.00 223.45"
/>
<path stroke="#8da593" vector-effect="non-scaling-stroke" d="
  M 1254.00 280.38
  L 0.00 280.39"
/>
<path stroke="#8da593" vector-effect="non-scaling-stroke" d="
  M 1254.00 288.11
  L 0.00 288.09"
/>
<path stroke="#8da593" vector-effect="non-scaling-stroke" d="
  M 1254.00 345.16
  L 0.00 345.14"
/>
<path stroke="#8da593" vector-effect="non-scaling-stroke" d="
  M 1254.00 352.73
  L 0.00 352.72"
/>
<path stroke="#8da593" vector-effect="non-scaling-stroke" d="
  M 1254.00 409.81
  L 0.00 409.80"
/>
<path stroke="#8da593" vector-effect="non-scaling-stroke" d="
  M 1254.00 417.44
  L 0.00 417.43"
/>
<path stroke="#8da593" vector-effect="non-scaling-stroke" d="
  M 1254.00 474.32
  L 0.00 474.31"
/>
<path stroke="#8da593" vector-effect="non-scaling-stroke" d="
  M 1254.00 481.94
  L 0.00 481.94"
/>
<path stroke="#8da593" vector-effect="non-scaling-stroke" d="
  M 1254.00 538.83
  L 0.00 538.83"
/>
<path stroke="#8da593" vector-effect="non-scaling-stroke" d="
  M 1254.00 546.51
  L 0.00 546.49"
/>
<path stroke="#8da593" vector-effect="non-scaling-stroke" d="
  M 1254.00 603.48
  L 0.00 603.47"
/>
<path stroke="#8da593" vector-effect="non-scaling-stroke" d="
  M 1254.00 610.99
  L 0.00 611.00"
/>
<path stroke="#8da593" vector-effect="non-scaling-stroke" d="
  M 1254.00 668.04
  L 0.00 668.01"
/>
<path stroke="#8da593" vector-effect="non-scaling-stroke" d="
  M 1254.00 675.61
  L 0.00 675.62"
/>
<path stroke="#8da593" vector-effect="non-scaling-stroke" d="
  M 1254.00 732.45
  L 0.00 732.46"
/>
<path stroke="#8da593" vector-effect="non-scaling-stroke" d="
  M 1254.00 740.09
  L 0.00 740.09"
/>
<path stroke="#8da593" vector-effect="non-scaling-stroke" d="
  M 1254.00 796.94
  L 0.00 796.93"
/>
<path stroke="#8da593" vector-effect="non-scaling-stroke" d="
  M 1254.00 804.59
  L 0.00 804.58"
/>
<path stroke="#8da593" vector-effect="non-scaling-stroke" d="
  M 1254.00 862.46
  L 0.00 862.45"
/>
<path stroke="#8da593" vector-effect="non-scaling-stroke" d="
  M 1254.00 870.04
  L 0.00 870.02"
/>
<path stroke="#8da593" vector-effect="non-scaling-stroke" d="
  M 1254.00 926.91
  L 0.00 926.89"
/>
<path stroke="#8da593" vector-effect="non-scaling-stroke" d="
  M 1254.00 934.45
  L 0.00 934.46"
/>
<path stroke="#8da593" vector-effect="non-scaling-stroke" d="
  M 1254.00 991.45
  L 0.00 991.38"
/>
<path stroke="#8da593" vector-effect="non-scaling-stroke" d="
  M 1254.00 998.90
  L 0.00 998.91"
/>
<path stroke="#8da593" vector-effect="non-scaling-stroke" d="
  M 1254.00 1056.03
  L 0.00 1056.03"
/>
<path stroke="#8da593" vector-effect="non-scaling-stroke" d="
  M 1254.00 1063.57
  L 0.00 1063.56"
/>
<path stroke="#8da593" vector-effect="non-scaling-stroke" d="
  M 1254.00 1120.45
  L 0.00 1120.43"
/>
<path stroke="#8da593" vector-effect="non-scaling-stroke" d="
  M 1254.00 1128.01
  L 0.00 1127.99"
/>
<path stroke="#8da593" vector-effect="non-scaling-stroke" d="
  M 1254.00 1185.10
  L 0.00 1184.93"
/>
<path stroke="#8da593" vector-effect="non-scaling-stroke" d="
  M 1254.00 1192.59
  L 0.00 1192.59"
/>
<path stroke="#8da593" vector-effect="non-scaling-stroke" d="
  M 1254.00 1249.42
  L 0.00 1249.42"
/>
<path stroke="#8da593" vector-effect="non-scaling-stroke" d="
  M 1254.00 1253.49
  L 1253.58 1254.00"
/>
</g>
<path fill="#fcf7ed" d="
  M 1254.00 0.00
  L 1254.00 22.21
  L 0.00 22.21
  L 0.00 0.00
  L 1254.00 0.00
  Z"
/>
<path fill="#1e5339" d="
  M 1254.00 22.21
  L 1254.00 29.72
  L 0.00 29.73
  L 0.00 22.21
  L 1254.00 22.21
  Z"
/>
<path fill="#fcf7ed" d="
  M 1254.00 29.72
  L 1254.00 86.69
  L 0.00 86.69
  L 0.00 29.73
  L 1254.00 29.72
  Z"
/>
<path fill="#1e5339" d="
  M 1254.00 86.69
  L 1254.00 94.36
  L 0.00 94.36
  L 0.00 86.69
  L 1254.00 86.69
  Z"
/>
<path fill="#fcf7ed" d="
  M 1254.00 94.36
  L 1254.00 151.31
  L 0.00 151.32
  L 0.00 94.36
  L 1254.00 94.36
  Z"
/>
<path fill="#1e5339" d="
  M 1254.00 151.31
  L 1254.00 158.83
  L 0.00 158.83
  L 0.00 151.32
  L 1254.00 151.31
  Z"
/>
<path fill="#fcf7ed" d="
  M 1254.00 158.83
  L 1254.00 215.86
  L 0.00 215.86
  L 0.00 158.83
  L 1254.00 158.83
  Z"
/>
<path fill="#1e5339" d="
  M 1254.00 215.86
  L 1254.00 223.45
  L 0.00 223.45
  L 0.00 215.86
  L 1254.00 215.86
  Z"
/>
<path fill="#fcf7ed" d="
  M 1254.00 223.45
  L 1254.00 280.38
  L 0.00 280.39
  L 0.00 223.45
  L 1254.00 223.45
  Z"
/>
<path fill="#1e5339" d="
  M 1254.00 280.38
  L 1254.00 288.11
  L 0.00 288.09
  L 0.00 280.39
  L 1254.00 280.38
  Z"
/>
<path fill="#fcf7ed" d="
  M 1254.00 288.11
  L 1254.00 345.16
  L 0.00 345.14
  L 0.00 288.09
  L 1254.00 288.11
  Z"
/>
<path fill="#1e5339" d="
  M 1254.00 345.16
  L 1254.00 352.73
  L 0.00 352.72
  L 0.00 345.14
  L 1254.00 345.16
  Z"
/>
<path fill="#fcf7ed" d="
  M 1254.00 352.73
  L 1254.00 409.81
  L 0.00 409.80
  L 0.00 352.72
  L 1254.00 352.73
  Z"
/>
<path fill="#1e5339" d="
  M 1254.00 409.81
  L 1254.00 417.44
  L 0.00 417.43
  L 0.00 409.80
  L 1254.00 409.81
  Z"
/>
<path fill="#fcf7ed" d="
  M 1254.00 417.44
  L 1254.00 474.32
  L 0.00 474.31
  L 0.00 417.43
  L 1254.00 417.44
  Z"
/>
<path fill="#1e5339" d="
  M 1254.00 474.32
  L 1254.00 481.94
  L 0.00 481.94
  L 0.00 474.31
  L 1254.00 474.32
  Z"
/>
<path fill="#fcf7ed" d="
  M 1254.00 481.94
  L 1254.00 538.83
  L 0.00 538.83
  L 0.00 481.94
  L 1254.00 481.94
  Z"
/>
<path fill="#1e5339" d="
  M 1254.00 538.83
  L 1254.00 546.51
  L 0.00 546.49
  L 0.00 538.83
  L 1254.00 538.83
  Z"
/>
<path fill="#fcf7ed" d="
  M 1254.00 546.51
  L 1254.00 603.48
  L 0.00 603.47
  L 0.00 546.49
  L 1254.00 546.51
  Z"
/>
<path fill="#1e5339" d="
  M 1254.00 603.48
  L 1254.00 610.99
  L 0.00 611.00
  L 0.00 603.47
  L 1254.00 603.48
  Z"
/>
<path fill="#fcf7ed" d="
  M 1254.00 610.99
  L 1254.00 668.04
  L 0.00 668.01
  L 0.00 611.00
  L 1254.00 610.99
  Z"
/>
<path fill="#1e5339" d="
  M 1254.00 668.04
  L 1254.00 675.61
  L 0.00 675.62
  L 0.00 668.01
  L 1254.00 668.04
  Z"
/>
<path fill="#fcf7ed" d="
  M 1254.00 675.61
  L 1254.00 732.45
  L 0.00 732.46
  L 0.00 675.62
  L 1254.00 675.61
  Z"
/>
<path fill="#1e5339" d="
  M 1254.00 732.45
  L 1254.00 740.09
  L 0.00 740.09
  L 0.00 732.46
  L 1254.00 732.45
  Z"
/>
<path fill="#fcf7ed" d="
  M 1254.00 740.09
  L 1254.00 796.94
  L 0.00 796.93
  L 0.00 740.09
  L 1254.00 740.09
  Z"
/>
<path fill="#1e5339" d="
  M 1254.00 796.94
  L 1254.00 804.59
  L 0.00 804.58
  L 0.00 796.93
  L 1254.00 796.94
  Z"
/>
<path fill="#fcf7ed" d="
  M 1254.00 804.59
  L 1254.00 862.46
  L 0.00 862.45
  L 0.00 804.58
  L 1254.00 804.59
  Z"
/>
<path fill="#1e5339" d="
  M 1254.00 862.46
  L 1254.00 870.04
  L 0.00 870.02
  L 0.00 862.45
  L 1254.00 862.46
  Z"
/>
<path fill="#fcf7ed" d="
  M 1254.00 870.04
  L 1254.00 926.91
  L 0.00 926.89
  L 0.00 870.02
  L 1254.00 870.04
  Z"
/>
<path fill="#1e5339" d="
  M 1254.00 926.91
  L 1254.00 934.45
  L 0.00 934.46
  L 0.00 926.89
  L 1254.00 926.91
  Z"
/>
<path fill="#fcf7ed" d="
  M 1254.00 934.45
  L 1254.00 991.45
  L 0.00 991.38
  L 0.00 934.46
  L 1254.00 934.45
  Z"
/>
<path fill="#1e5339" d="
  M 1254.00 991.45
  L 1254.00 998.90
  L 0.00 998.91
  L 0.00 991.38
  L 1254.00 991.45
  Z"
/>
<path fill="#fcf7ed" d="
  M 1254.00 998.90
  L 1254.00 1056.03
  L 0.00 1056.03
  L 0.00 998.91
  L 1254.00 998.90
  Z"
/>
<path fill="#1e5339" d="
  M 1254.00 1056.03
  L 1254.00 1063.57
  L 0.00 1063.56
  L 0.00 1056.03
  L 1254.00 1056.03
  Z"
/>
<path fill="#fcf7ed" d="
  M 1254.00 1063.57
  L 1254.00 1120.45
  L 0.00 1120.43
  L 0.00 1063.56
  L 1254.00 1063.57
  Z"
/>
<path fill="#1e5339" d="
  M 1254.00 1120.45
  L 1254.00 1128.01
  L 0.00 1127.99
  L 0.00 1120.43
  L 1254.00 1120.45
  Z"
/>
<path fill="#fcf7ed" d="
  M 1254.00 1128.01
  L 1254.00 1185.10
  L 0.00 1184.93
  L 0.00 1127.99
  L 1254.00 1128.01
  Z"
/>
<path fill="#1e5339" d="
  M 1254.00 1185.10
  L 1254.00 1192.59
  L 0.00 1192.59
  L 0.00 1184.93
  L 1254.00 1185.10
  Z"
/>
<path fill="#fcf7ed" d="
  M 1254.00 1192.59
  L 1254.00 1249.42
  L 0.00 1249.42
  L 0.00 1192.59
  L 1254.00 1192.59
  Z"
/>
<path fill="#1e5339" d="
  M 1254.00 1249.42
  L 1254.00 1253.49
  L 1253.58 1254.00
  L 0.00 1254.00
  L 0.00 1249.42
  L 1254.00 1249.42
  Z"
/>
<path fill="#fcf7ed" d="
  M 1254.00 1253.49
  L 1254.00 1254.00
  L 1253.58 1254.00
  L 1254.00 1253.49
  Z"
/>
</svg>
