<?xml version="1.0" encoding="UTF-8" standalone="no"?>
<!DOCTYPE svg PUBLIC "-//W3C//DTD SVG 1.1//EN" "http://www.w3.org/Graphics/SVG/1.1/DTD/svg11.dtd">
<svg xmlns="http://www.w3.org/2000/svg" version="1.1" viewBox="0.00 0.00 1024.00 1024.00">
<g stroke-width="2.00" fill="none" stroke-linecap="butt">
<path stroke="#fcc9c3" vector-effect="non-scaling-stroke" d="
  M 14.67 0.00
  L 14.64 1024.00"
/>
<path stroke="#fcc9c3" vector-effect="non-scaling-stroke" d="
  M 60.59 0.00
  L 60.60 974.75"
/>
<path stroke="#ffe2a6" vector-effect="non-scaling-stroke" d="
  M 60.60 974.75
  Q 58.53 976.30 55.98 975.44
  A 1.10 1.10 0.0 0 1 55.29 974.79
  C 54.11 971.83 51.93 966.08 48.38 968.04
  A 1.48 1.47 78.9 0 0 47.61 969.19
  L 46.68 977.72
  A 1.26 1.26 0.0 0 1 45.56 978.84
  C 43.04 979.10 36.39 979.39 37.22 982.72
  A 1.47 1.45 -80.7 0 0 37.83 983.58
  Q 41.31 985.81 45.46 986.47
  A 1.09 1.08 -80.6 0 1 46.36 987.73
  Q 45.50 992.41 45.19 996.26
  A 1.79 1.73 -79.4 0 0 46.40 998.09
  C 49.00 998.91 51.74 994.45 53.41 992.03
  A 1.49 1.49 0.0 0 1 54.86 991.40
  Q 58.16 991.89 60.39 993.27"
/>
<path stroke="#fcc9c3" vector-effect="non-scaling-stroke" d="
  M 60.39 993.27
  L 60.48 1024.00"
/>
<path stroke="#fcc9c3" vector-effect="non-scaling-stroke" d="
  M 108.47 0.00
  L 108.77 1024.00"
/>
<path stroke="#fbb98f" vector-effect="non-scaling-stroke" d="
  M 60.39 993.27
  L 63.12 994.54
  A 1.64 1.64 0.0 0 0 65.44 993.17
  C 65.57 991.41 64.15 989.65 62.26 986.58
  A 3.36 3.36 0.0 0 1 62.18 983.19
  C 62.95 981.80 67.24 978.08 67.20 975.89
  A 1.93 1.91 -9.0 0 0 64.72 974.11
  Q 62.55 974.75 60.60 974.75"
/>
<path stroke="#fcc9c3" vector-effect="non-scaling-stroke" d="
  M 154.49 0.00
  L 154.47 111.16"
/>
<path stroke="#ffe2a6" vector-effect="non-scaling-stroke" d="
  M 154.47 111.16
  Q 152.78 109.98 151.65 107.75
  A 1.67 1.67 0.0 0 0 148.81 107.54
  C 147.33 109.60 147.38 113.66 147.40 116.17
  A 1.51 1.50 -0.6 0 1 145.91 117.68
  C 143.54 117.71 137.85 117.90 137.04 120.08
  A 2.42 2.35 -66.2 0 0 138.14 123.05
  Q 141.08 124.56 144.75 125.46
  A 1.23 1.22 12.3 0 1 145.66 126.87
  Q 144.72 132.01 144.64 134.48
  C 144.55 136.93 147.07 138.04 148.60 136.36
  Q 151.03 133.69 154.37 131.30"
/>
<path stroke="#fcc9c3" vector-effect="non-scaling-stroke" d="
  M 154.37 131.30
  L 154.43 363.32"
/>
<path stroke="#ffe2a6" vector-effect="non-scaling-stroke" d="
  M 154.43 363.32
  C 151.36 364.14 149.81 354.69 146.09 357.42
  A 1.54 1.51 -18.3 0 0 145.46 358.65
  L 145.46 366.91
  A 1.52 1.51 -6.8 0 1 144.30 368.38
  C 141.75 368.99 137.04 370.07 136.28 371.75
  A 2.33 1.98 22.1 0 0 137.74 374.56
  Q 141.10 375.82 144.74 376.45
  A 1.47 1.47 0.0 0 1 145.95 377.99
  C 145.75 381.34 145.49 383.91 146.27 386.75
  A 1.02 1.02 0.0 0 0 146.97 387.46
  Q 148.92 388.03 149.84 386.58
  Q 152.38 382.56 154.55 380.53"
/>
<path stroke="#fcc9c3" vector-effect="non-scaling-stroke" d="
  M 154.55 380.53
  Q 154.33 487.50 154.45 593.25
  Q 154.46 602.14 155.10 611.91"
/>
<path stroke="#ffe2a6" vector-effect="non-scaling-stroke" d="
  M 155.10 611.91
  Q 152.97 611.71 151.40 607.99
  A 1.43 1.42 -28.9 0 0 149.27 607.39
  Q 148.49 607.94 148.18 609.47
  Q 147.47 613.11 147.18 615.81
  A 1.64 1.63 87.9 0 1 145.85 617.25
  C 142.16 617.94 137.52 618.35 137.08 619.86
  A 2.58 2.56 -71.5 0 0 138.62 622.97
  Q 145.32 625.52 145.36 625.54
  A 1.41 1.40 -72.4 0 1 146.20 627.17
  Q 144.95 632.61 144.73 634.22
  A 2.68 2.38 -75.4 0 0 146.12 636.95
  C 147.60 637.60 148.73 636.74 149.66 635.43
  Q 151.70 632.58 154.43 630.77"
/>
<path stroke="#fcc9c3" vector-effect="non-scaling-stroke" d="
  M 154.43 630.77
  L 154.49 883.18"
/>
<path stroke="#ffe2a6" vector-effect="non-scaling-stroke" d="
  M 154.49 883.18
  Q 151.91 881.43 150.51 878.38
  A 0.98 0.97 85.2 0 0 149.88 877.84
  C 147.62 877.24 146.99 878.63 146.95 880.76
  Q 146.89 883.99 146.93 887.44
  A 0.83 0.83 0.0 0 1 146.25 888.27
  Q 142.39 888.96 138.25 890.35
  A 1.90 1.61 -22.8 0 0 137.03 892.75
  C 138.26 894.99 141.71 895.39 145.14 896.29
  A 1.86 1.86 0.0 0 1 146.49 898.46
  Q 145.60 902.88 145.65 905.97
  A 2.16 2.07 89.8 0 0 147.69 908.09
  Q 148.65 908.11 149.49 907.02
  Q 151.77 904.05 154.46 901.64"
/>
<path stroke="#fcc9c3" vector-effect="non-scaling-stroke" d="
  M 154.46 901.64
  L 154.48 1024.00"
/>
<path stroke="#fcc9c3" vector-effect="non-scaling-stroke" d="
  M 202.54 0.00
  L 202.64 1024.00"
/>
<path stroke="#fbb98f" vector-effect="non-scaling-stroke" d="
  M 154.46 901.64
  Q 155.08 900.56 155.98 900.98
  Q 159.34 902.56 163.43 903.60
  A 1.72 1.72 0.0 0 0 165.34 901.07
  L 161.47 894.38
  A 2.03 2.02 -41.7 0 1 161.60 892.18
  C 163.04 890.23 165.83 887.69 166.21 884.96
  A 1.39 1.38 -1.9 0 0 164.56 883.42
  L 156.10 885.16
  A 0.72 0.71 65.2 0 1 155.41 884.90
  Q 154.81 884.14 154.49 883.18"
/>
<path stroke="#fbb98f" vector-effect="non-scaling-stroke" d="
  M 154.43 630.77
  Q 156.69 630.18 160.58 632.85
  Q 162.47 634.14 163.95 633.89
  A 1.78 1.78 0.0 0 0 165.26 631.35
  L 162.01 624.72
  A 2.37 2.37 0.0 0 1 162.35 622.11
  C 164.10 620.11 167.22 617.14 166.94 614.99
  A 1.66 1.61 -8.5 0 0 165.03 613.62
  Q 160.70 614.33 158.24 614.86
  Q 155.10 615.54 155.10 611.91"
/>
<path stroke="#fbb98f" vector-effect="non-scaling-stroke" d="
  M 154.55 380.53
  Q 158.39 380.62 163.10 382.32
  A 1.79 1.78 -72.5 0 0 165.42 381.10
  C 165.94 379.22 162.91 376.00 160.94 373.50
  A 2.42 2.41 43.5 0 1 160.86 370.61
  C 162.93 367.71 165.55 364.72 165.07 362.89
  A 1.96 1.78 -13.2 0 0 162.81 361.63
  Q 160.01 362.21 156.51 363.85
  Q 155.80 364.18 155.26 364.13
  Q 154.46 364.06 154.43 363.32"
/>
<path stroke="#fbb98f" vector-effect="non-scaling-stroke" d="
  M 154.37 131.30
  Q 154.63 130.83 155.43 130.81
  A 1.35 1.17 -28.1 0 1 156.00 130.94
  Q 158.62 132.27 160.48 133.26
  Q 165.03 135.68 165.19 132.13
  A 0.94 0.92 34.1 0 0 165.10 131.69
  L 161.56 124.48
  A 1.86 1.85 54.1 0 1 161.89 122.38
  Q 165.85 118.26 166.29 117.55
  Q 167.96 114.83 166.06 113.74
  A 0.78 0.76 53.2 0 0 165.49 113.65
  L 157.64 115.26
  A 2.01 2.00 75.4 0 1 155.34 113.91
  L 154.47 111.16"
/>
<path stroke="#fcc9c3" vector-effect="non-scaling-stroke" d="
  M 248.61 0.00
  L 248.71 1024.00"
/>
<path stroke="#fcc9c3" vector-effect="non-scaling-stroke" d="
  M 296.31 0.00
  L 296.25 216.79"
/>
<path stroke="#fbb98f" vector-effect="non-scaling-stroke" d="
  M 296.25 216.79
  Q 293.62 221.11 293.55 225.75
  A 1.83 1.83 0.0 0 1 291.97 227.53
  Q 288.59 227.98 285.13 228.47
  A 1.73 1.65 -11.0 0 0 283.67 230.52
  C 284.17 232.46 288.48 234.29 290.22 234.86
  A 2.15 2.15 0.0 0 1 291.69 237.14
  L 290.80 245.37
  A 1.35 1.35 0.0 0 0 292.69 246.75
  L 296.25 245.17"
/>
<path stroke="#fcc9c3" vector-effect="non-scaling-stroke" d="
  M 296.25 245.17
  L 296.18 470.52"
/>
<path stroke="#fbb98f" vector-effect="non-scaling-stroke" d="
  M 296.18 470.52
  C 293.89 472.36 293.78 478.86 293.45 480.07
  A 1.95 1.95 0.0 0 1 292.02 481.46
  Q 290.80 481.74 285.76 482.45
  A 1.79 1.65 -11.4 0 0 284.24 484.55
  Q 284.47 485.35 285.67 486.10
  Q 286.96 486.92 290.52 488.72
  C 294.66 490.81 289.37 498.38 292.15 500.84
  A 0.93 0.92 -34.9 0 0 293.12 501.01
  L 296.24 499.77"
/>
<path stroke="#fcc9c3" vector-effect="non-scaling-stroke" d="
  M 296.24 499.77
  L 296.32 725.63"
/>
<path stroke="#fbb98f" vector-effect="non-scaling-stroke" d="
  M 296.32 725.63
  C 294.22 728.21 294.03 732.71 293.60 734.84
  A 2.16 2.15 -87.6 0 1 291.74 736.56
  C 288.41 736.94 284.59 736.94 284.07 738.80
  A 2.23 2.10 24.4 0 0 285.06 741.22
  Q 285.23 741.33 290.09 743.73
  C 291.98 744.67 292.18 746.02 291.85 747.89
  Q 291.30 751.05 291.17 754.67
  A 1.17 1.17 0.0 0 0 292.79 755.80
  L 296.31 754.32"
/>
<path stroke="#fcc9c3" vector-effect="non-scaling-stroke" d="
  M 296.31 754.32
  L 296.43 981.61"
/>
<path stroke="#fbb98f" vector-effect="non-scaling-stroke" d="
  M 296.43 981.61
  Q 295.72 981.20 295.28 982.34
  Q 293.97 985.77 293.68 989.80
  A 2.58 2.58 0.0 0 1 291.59 992.15
  Q 291.57 992.15 285.30 993.23
  A 1.84 1.69 -9.2 0 0 283.76 995.18
  C 284.08 997.22 288.26 998.69 290.35 999.64
  A 2.67 2.66 -74.9 0 1 291.90 1002.35
  L 291.05 1010.13
  A 1.09 1.08 -10.3 0 0 292.62 1011.21
  Q 294.47 1010.28 296.54 1010.00"
/>
<path stroke="#fcc9c3" vector-effect="non-scaling-stroke" d="
  M 296.54 1010.00
  L 296.54 1024.00"
/>
<path stroke="#fcc9c3" vector-effect="non-scaling-stroke" d="
  M 341.80 0.00
  L 341.85 1024.00"
/>
<path stroke="#ffe2a6" vector-effect="non-scaling-stroke" d="
  M 296.54 1010.00
  L 298.93 1006.12
  A 1.49 1.48 27.7 0 1 300.80 1005.54
  L 308.16 1008.82
  A 1.47 1.41 50.6 0 0 309.00 1008.92
  Q 311.59 1008.46 310.28 1005.22
  Q 309.17 1002.49 306.98 998.99
  A 1.08 1.07 -41.6 0 1 307.06 997.74
  Q 308.35 996.16 312.09 991.73
  A 2.05 1.92 -47.7 0 0 312.05 989.03
  Q 311.44 988.42 310.05 988.61
  Q 307.47 988.97 302.97 990.18
  A 1.24 1.23 -16.2 0 1 301.46 989.35
  Q 300.10 984.95 296.43 981.61"
/>
<path stroke="#ffe2a6" vector-effect="non-scaling-stroke" d="
  M 296.31 754.32
  Q 297.25 752.00 299.11 750.31
  A 1.50 1.47 21.4 0 1 299.98 749.94
  C 302.40 749.73 305.21 751.53 308.35 753.06
  A 1.80 1.80 0.0 0 0 310.85 752.00
  Q 311.02 751.45 310.38 749.56
  Q 309.86 748.03 307.49 743.65
  A 1.67 1.66 48.1 0 1 307.58 741.91
  Q 309.33 739.32 312.40 736.07
  A 2.11 1.89 -55.3 0 0 311.99 732.83
  Q 311.62 732.66 310.25 732.80
  Q 306.64 733.17 303.09 734.12
  A 1.28 1.26 -19.5 0 1 301.60 733.42
  Q 299.57 728.88 296.32 725.63"
/>
<path stroke="#ffe2a6" vector-effect="non-scaling-stroke" d="
  M 296.24 499.77
  L 299.72 495.28
  A 1.04 1.04 0.0 0 1 300.87 494.93
  L 308.89 497.61
  A 1.65 1.65 0.0 0 0 311.03 495.72
  Q 310.39 492.53 307.81 488.98
  A 2.04 2.03 45.8 0 1 307.84 486.55
  Q 309.33 484.62 312.39 480.89
  A 2.26 2.08 -51.8 0 0 312.15 477.77
  Q 311.76 477.48 310.24 477.70
  Q 306.48 478.25 303.07 478.94
  A 1.37 1.36 70.8 0 1 301.58 478.21
  Q 299.44 473.92 296.18 470.52"
/>
<path stroke="#ffe2a6" vector-effect="non-scaling-stroke" d="
  M 296.25 245.17
  Q 297.26 242.97 299.04 241.18
  A 1.21 1.21 0.0 0 1 300.26 240.88
  Q 302.82 241.68 306.87 243.71
  Q 308.41 244.48 309.39 244.29
  A 1.61 1.60 -16.8 0 0 310.57 242.10
  L 307.31 234.16
  A 1.16 1.15 -32.9 0 1 307.59 232.87
  Q 310.46 230.15 312.61 227.07
  A 1.70 1.64 -58.7 0 0 312.06 224.62
  Q 311.67 224.42 310.74 224.45
  Q 309.52 224.50 302.96 225.80
  A 0.98 0.97 75.8 0 1 301.84 225.13
  Q 300.11 219.56 296.25 216.79"
/>
<path stroke="#fcc9c3" vector-effect="non-scaling-stroke" d="
  M 389.80 0.00
  L 389.85 1024.00"
/>
<path stroke="#fcc9c3" vector-effect="non-scaling-stroke" d="
  M 435.70 0.00
  L 435.59 122.28"
/>
<path stroke="#ffe2a6" vector-effect="non-scaling-stroke" d="
  M 435.59 122.28
  Q 432.22 123.23 428.48 122.80
  A 1.04 1.01 -10.0 0 1 427.67 122.25
  C 425.99 119.03 424.76 115.44 422.67 115.05
  A 1.47 1.45 -78.0 0 0 420.98 116.16
  L 419.10 124.27
  A 1.15 1.15 0.0 0 1 418.02 125.16
  C 415.27 125.26 410.35 125.05 409.30 127.04
  A 2.00 1.91 28.8 0 0 410.12 129.64
  Q 412.72 131.13 416.28 132.54
  A 1.42 1.40 -73.6 0 1 417.14 134.14
  Q 416.45 137.41 415.87 141.12
  C 415.49 143.55 417.08 145.17 419.45 143.41
  Q 421.15 142.15 424.26 139.37
  A 2.29 2.28 37.0 0 1 426.78 139.02
  L 432.15 141.64
  A 1.96 1.93 -35.4 0 0 433.27 141.82
  L 435.63 141.52"
/>
<path stroke="#fcc9c3" vector-effect="non-scaling-stroke" d="
  M 435.63 141.52
  L 435.60 370.81"
/>
<path stroke="#ffe2a6" vector-effect="non-scaling-stroke" d="
  M 435.60 370.81
  Q 435.69 372.01 433.50 372.13
  Q 431.40 372.24 429.18 372.19
  A 1.43 1.41 76.7 0 1 427.96 371.43
  C 426.34 368.28 424.85 364.39 423.09 364.22
  A 1.47 1.37 8.8 0 0 421.53 365.28
  Q 419.93 372.34 419.68 373.22
  A 1.43 1.43 0.0 0 1 418.37 374.26
  Q 413.79 374.47 411.41 374.91
  A 2.61 2.41 -4.8 0 0 409.30 377.21
  C 409.22 379.40 413.18 380.56 416.12 381.70
  A 1.89 1.89 0.0 0 1 417.31 383.67
  L 416.37 392.26
  A 0.76 0.75 25.1 0 0 416.59 392.86
  Q 418.10 394.37 419.53 393.14
  Q 421.94 391.06 424.65 388.10
  A 1.78 1.77 38.5 0 1 426.96 387.84
  Q 431.16 390.70 435.66 391.44"
/>
<path stroke="#fcc9c3" vector-effect="non-scaling-stroke" d="
  M 435.66 391.44
  L 435.94 628.98"
/>
<path stroke="#ffe2a6" vector-effect="non-scaling-stroke" d="
  M 435.94 628.98
  Q 432.73 630.11 428.85 629.60
  A 0.69 0.68 -9.0 0 1 428.33 629.23
  L 424.76 622.41
  A 1.57 1.57 0.0 0 0 422.13 622.17
  Q 421.93 622.39 421.83 622.88
  Q 421.16 625.94 420.03 630.13
  A 1.54 1.53 5.3 0 1 418.66 631.26
  C 414.79 631.55 410.11 631.42 409.21 633.46
  A 2.16 2.16 0.0 0 0 410.18 636.23
  Q 411.62 637.00 416.64 639.53
  A 1.11 1.11 0.0 0 1 417.20 640.86
  Q 415.95 644.81 416.02 648.88
  A 1.78 1.78 0.0 0 0 418.02 650.61
  C 420.00 650.35 423.09 646.77 424.41 645.69
  A 2.26 2.25 40.4 0 1 426.95 645.49
  L 433.45 649.25
  A 1.25 1.25 0.0 0 0 435.30 647.94
  Q 434.22 642.03 433.83 640.81
  Q 432.50 636.73 435.73 636.02"
/>
<path stroke="#fcc9c3" vector-effect="non-scaling-stroke" d="
  M 435.73 636.02
  Q 435.18 639.52 435.36 642.90
  Q 435.67 648.95 435.65 649.79
  Q 435.42 660.02 435.51 670.25
  Q 435.66 686.97 435.67 862.50
  Q 435.67 873.87 435.55 885.65"
/>
<path stroke="#ffe2a6" vector-effect="non-scaling-stroke" d="
  M 435.55 885.65
  L 429.02 886.20
  A 1.34 1.34 0.0 0 1 427.63 885.28
  Q 426.56 882.04 424.84 879.29
  C 424.13 878.15 422.63 877.36 421.59 878.24
  A 1.70 1.69 74.8 0 0 420.99 879.29
  L 419.77 886.49
  A 1.88 1.88 0.0 0 1 418.06 888.04
  Q 414.12 888.32 412.35 888.62
  C 410.21 888.98 408.95 889.59 409.84 891.91
  A 1.27 1.26 -87.7 0 0 410.49 892.62
  L 416.88 895.74
  A 1.34 1.34 0.0 0 1 417.61 897.24
  Q 416.58 902.00 416.27 905.37
  A 1.77 1.61 -85.5 0 0 417.75 907.28
  C 421.94 907.59 423.85 899.36 428.02 902.48
  Q 431.35 904.97 435.55 905.79"
/>
<path stroke="#fcc9c3" vector-effect="non-scaling-stroke" d="
  M 435.55 905.79
  L 435.74 1024.00"
/>
<path stroke="#fcc9c3" vector-effect="non-scaling-stroke" d="
  M 484.96 0.00
  L 484.57 0.07
  A 0.70 0.70 0.0 0 0 484.00 0.76
  L 484.11 1024.00"
/>
<path stroke="#fbb98f" vector-effect="non-scaling-stroke" d="
  M 435.55 905.79
  Q 435.91 902.63 435.37 900.41"
/>
<path stroke="#fcc9c3" vector-effect="non-scaling-stroke" d="
  M 435.37 900.41
  L 435.28 892.98"
/>
<path stroke="#fbb98f" vector-effect="non-scaling-stroke" d="
  M 435.28 892.98
  Q 436.10 890.86 438.31 889.45
  A 2.11 2.10 -51.6 0 0 437.88 885.69
  Q 437.12 885.42 435.55 885.65"
/>
<path stroke="#fbb98f" vector-effect="non-scaling-stroke" d="
  M 435.73 636.02
  Q 436.65 634.86 437.92 633.66
  Q 439.23 632.42 439.21 630.58
  A 1.00 0.99 18.0 0 0 438.79 629.77
  Q 437.54 628.86 435.94 628.98"
/>
<path stroke="#fbb98f" vector-effect="non-scaling-stroke" d="
  M 435.66 391.44
  L 435.40 385.79"
/>
<path stroke="#fcc9c3" vector-effect="non-scaling-stroke" d="
  M 435.40 385.79
  L 435.43 378.80"
/>
<path stroke="#fbb98f" vector-effect="non-scaling-stroke" d="
  M 435.43 378.80
  Q 436.45 377.18 437.89 375.91
  C 439.06 374.88 439.73 373.74 439.15 372.35
  A 1.23 1.22 -2.6 0 0 438.37 371.64
  L 435.60 370.81"
/>
<path stroke="#fbb98f" vector-effect="non-scaling-stroke" d="
  M 435.63 141.52
  L 435.14 137.02"
/>
<path stroke="#fcc9c3" vector-effect="non-scaling-stroke" d="
  M 435.14 137.02
  L 435.16 129.50"
/>
<path stroke="#fbb98f" vector-effect="non-scaling-stroke" d="
  M 435.16 129.50
  C 436.41 128.00 440.51 125.05 438.11 122.95
  Q 436.41 121.45 435.59 122.28"
/>
<path stroke="#fcc9c3" vector-effect="non-scaling-stroke" d="
  M 530.05 0.00
  L 530.17 1024.00"
/>
<path stroke="#fcc9c3" vector-effect="non-scaling-stroke" d="
  M 578.10 0.00
  Q 577.93 105.87 577.95 211.75
  Q 577.95 215.53 577.44 220.05"
/>
<path stroke="#fbb98f" vector-effect="non-scaling-stroke" d="
  M 577.44 220.05
  Q 575.92 221.28 577.71 222.75"
/>
<path stroke="#fcc9c3" vector-effect="non-scaling-stroke" d="
  M 577.71 222.75
  Q 578.02 229.58 578.03 254.50
  Q 578.05 348.50 578.25 442.50
  Q 578.28 456.25 577.94 470.00
  Q 577.91 471.27 577.66 473.41"
/>
<path stroke="#fbb98f" vector-effect="non-scaling-stroke" d="
  M 577.66 473.41
  Q 576.29 475.15 577.86 476.57"
/>
<path stroke="#fcc9c3" vector-effect="non-scaling-stroke" d="
  M 577.86 476.57
  Q 578.38 489.33 578.25 502.18
  Q 578.06 521.74 578.06 521.83
  Q 578.03 617.04 578.19 712.25
  Q 578.20 720.45 577.74 728.87"
/>
<path stroke="#fbb98f" vector-effect="non-scaling-stroke" d="
  M 577.74 728.87
  Q 576.93 729.90 577.96 731.55"
/>
<path stroke="#fcc9c3" vector-effect="non-scaling-stroke" d="
  M 577.96 731.55
  L 578.12 983.60"
/>
<path stroke="#fbb98f" vector-effect="non-scaling-stroke" d="
  M 578.12 983.60
  Q 576.54 985.80 578.12 987.60"
/>
<path stroke="#fcc9c3" vector-effect="non-scaling-stroke" d="
  M 578.12 987.60
  L 578.14 1024.00"
/>
<path stroke="#fcc9c3" vector-effect="non-scaling-stroke" d="
  M 623.60 0.00
  L 623.87 1024.00"
/>
<path stroke="#ffe2a6" vector-effect="non-scaling-stroke" d="
  M 578.12 987.60
  L 585.45 990.20
  A 0.90 0.90 0.0 0 1 586.04 991.18
  C 585.57 994.31 584.50 998.82 585.81 1000.74
  A 1.72 1.62 -36.2 0 0 588.22 1001.04
  Q 591.53 998.50 593.46 994.97
  A 1.28 1.28 0.0 0 1 594.99 994.37
  L 603.50 997.22
  A 1.30 1.30 0.0 0 0 605.21 995.93
  C 605.12 993.76 602.16 989.21 601.46 987.75
  A 1.82 1.80 54.7 0 1 601.81 985.67
  C 603.14 984.35 606.58 981.14 606.85 979.45
  A 1.90 1.71 1.2 0 0 604.77 977.49
  Q 601.77 977.77 596.95 979.00
  A 1.86 1.85 70.3 0 1 594.80 977.98
  Q 593.10 974.30 591.55 972.22
  C 589.89 970.00 587.81 971.06 587.53 973.45
  Q 586.99 977.90 586.96 981.13
  A 1.03 1.02 85.3 0 1 586.12 982.13
  L 578.12 983.60"
/>
<path stroke="#ffe2a6" vector-effect="non-scaling-stroke" d="
  M 577.96 731.55
  L 586.02 733.94
  A 1.19 1.19 0.0 0 1 586.87 735.16
  C 586.73 737.40 586.07 742.93 587.79 744.35
  A 1.70 1.59 -48.9 0 0 590.04 744.12
  Q 592.55 741.39 594.60 737.68
  A 1.00 1.00 0.0 0 1 595.81 737.22
  L 603.80 740.00
  A 1.61 1.61 0.0 0 0 605.94 738.56
  C 606.01 737.34 603.92 734.39 601.91 731.11
  A 2.02 2.02 0.0 0 1 601.99 728.88
  C 603.44 726.84 606.29 723.51 606.16 720.66
  A 0.68 0.68 0.0 0 0 605.51 720.00
  C 601.75 719.78 598.71 721.76 596.00 721.99
  A 0.98 0.98 0.0 0 1 595.14 721.62
  C 594.30 720.53 591.15 714.29 588.42 714.74
  Q 587.59 714.87 587.25 716.14
  C 586.60 718.59 586.93 722.19 586.98 724.69
  A 1.22 1.21 79.9 0 1 586.18 725.85
  L 577.74 728.87"
/>
<path stroke="#ffe2a6" vector-effect="non-scaling-stroke" d="
  M 577.86 476.57
  L 585.53 479.59
  A 1.29 1.28 13.9 0 1 586.34 480.93
  L 585.50 488.65
  A 1.51 1.51 0.0 0 0 587.61 490.20
  C 589.86 489.20 591.83 486.46 593.48 484.28
  A 1.48 1.47 -62.3 0 1 595.13 483.76
  L 603.43 486.54
  A 1.41 1.41 0.0 0 0 605.14 484.58
  L 601.71 477.59
  A 3.01 3.00 -37.4 0 1 602.15 474.30
  Q 604.87 471.19 606.28 469.18
  A 1.60 1.41 -56.8 0 0 605.96 466.99
  Q 605.00 466.43 603.48 466.70
  Q 600.06 467.32 596.88 468.15
  A 1.41 1.39 65.0 0 1 595.39 467.60
  L 591.14 461.59
  A 1.94 1.93 -46.0 0 0 587.94 461.65
  Q 587.93 461.66 587.74 463.26
  Q 587.39 466.30 587.31 469.69
  A 1.80 1.80 0.0 0 1 585.94 471.40
  L 577.66 473.41"
/>
<path stroke="#ffe2a6" vector-effect="non-scaling-stroke" d="
  M 577.71 222.75
  L 585.88 225.55
  A 0.92 0.92 0.0 0 1 586.50 226.53
  L 585.60 234.79
  A 1.56 1.56 0.0 0 0 587.30 236.51
  Q 588.69 236.39 589.93 234.89
  Q 594.20 229.70 594.24 229.66
  A 0.87 0.86 -59.9 0 1 595.16 229.41
  L 603.44 232.18
  A 1.55 1.54 -78.6 0 0 605.47 230.83
  Q 605.53 230.15 604.71 228.53
  Q 603.53 226.22 601.36 222.93
  A 1.39 1.39 0.0 0 1 601.37 221.40
  Q 603.42 218.35 605.42 215.94
  Q 606.09 215.12 606.31 213.54
  A 1.09 1.08 10.4 0 0 605.47 212.33
  C 602.87 211.74 600.00 212.94 596.46 214.08
  A 1.48 1.47 -24.3 0 1 594.74 213.43
  C 593.52 211.39 591.28 207.28 589.34 206.82
  A 1.75 1.61 -81.5 0 0 587.35 208.42
  Q 587.00 213.01 586.81 215.86
  A 1.68 1.67 83.0 0 1 585.67 217.33
  L 577.44 220.05"
/>
<path stroke="#fcc9c3" vector-effect="non-scaling-stroke" d="
  M 672.89 0.00
  L 671.92 0.28
  A 0.55 0.54 82.4 0 0 671.52 0.81
  L 671.68 361.47"
/>
<path stroke="#fbb98f" vector-effect="non-scaling-stroke" d="
  M 671.68 361.47
  Q 668.96 361.70 666.79 357.94
  A 2.65 2.63 41.8 0 1 666.65 355.60
  C 667.94 352.55 669.11 350.30 669.09 348.01
  A 1.67 1.67 0.0 0 0 666.52 346.62
  L 660.83 350.28
  A 1.62 1.57 -60.9 0 1 659.96 350.54
  Q 658.22 350.58 656.80 349.30
  Q 654.75 347.47 652.19 345.41
  A 1.86 1.56 34.8 0 0 649.58 345.65
  Q 649.32 346.13 649.49 347.52
  Q 649.93 350.94 650.70 354.02
  A 1.70 1.69 -22.8 0 1 649.94 355.87
  Q 646.13 358.22 643.49 359.73
  A 1.58 1.58 0.0 0 0 643.14 362.20
  C 644.37 363.45 648.79 363.76 651.21 364.01
  A 1.94 1.94 0.0 0 1 652.93 365.67
  Q 653.63 370.51 654.19 372.64
  A 2.06 1.93 75.9 0 0 656.54 374.15
  Q 657.64 373.89 658.25 372.75
  Q 660.50 368.59 661.63 365.86
  A 1.15 1.15 0.0 0 1 662.83 365.15
  L 671.80 366.16"
/>
<path stroke="#fcc9c3" vector-effect="non-scaling-stroke" d="
  M 671.80 366.16
  L 671.48 872.38"
/>
<path stroke="#fbb98f" vector-effect="non-scaling-stroke" d="
  M 671.48 872.38
  Q 668.29 871.14 667.78 868.73
  C 667.21 866.07 671.34 861.46 670.11 859.25
  A 2.40 2.11 -30.2 0 0 666.93 858.63
  Q 664.58 860.04 662.04 861.82
  A 2.19 2.18 -40.3 0 1 659.27 861.60
  C 657.57 859.95 654.83 856.92 652.97 856.48
  A 1.65 1.64 1.9 0 0 650.96 858.35
  L 652.11 865.40
  A 2.23 2.22 -19.6 0 1 651.02 867.69
  Q 645.81 870.67 644.73 871.34
  A 1.63 1.61 -34.0 0 0 644.26 873.67
  Q 644.67 874.22 645.35 874.42
  Q 647.84 875.17 652.32 875.35
  A 2.02 2.01 87.1 0 1 654.23 877.08
  C 654.74 880.56 654.93 884.96 656.77 885.67
  A 2.04 1.91 -67.9 0 0 659.26 884.52
  Q 660.74 881.04 662.32 877.43
  A 1.13 1.12 15.6 0 1 663.50 876.77
  L 671.91 877.83"
/>
<path stroke="#fcc9c3" vector-effect="non-scaling-stroke" d="
  M 671.91 877.83
  L 671.73 1024.00"
/>
<path stroke="#fbb98f" vector-effect="non-scaling-stroke" d="
  M 639.70 109.46
  Q 639.72 110.55 641.97 111.57
  Q 643.37 112.20 647.92 113.44
  A 1.32 1.32 0.0 0 1 648.90 114.66
  L 649.20 122.81
  A 1.58 1.57 79.6 0 0 651.28 124.25
  C 652.86 123.85 654.96 120.35 656.62 117.88
  A 2.22 2.21 -62.7 0 1 659.23 117.04
  C 662.03 118.06 665.50 119.66 667.34 118.93
  A 1.76 1.76 0.0 0 0 668.12 116.28
  C 665.68 112.83 663.32 110.06 663.30 109.00
  C 663.28 107.95 665.53 105.09 667.84 101.55
  A 1.76 1.76 0.0 0 0 666.96 98.93
  C 665.09 98.27 661.68 100.00 658.92 101.13
  A 2.22 2.21 60.5 0 1 656.28 100.39
  C 654.53 97.99 652.30 94.57 650.70 94.23
  A 1.58 1.57 -81.8 0 0 648.68 95.75
  L 648.69 103.90
  A 1.32 1.32 0.0 0 1 647.76 105.16
  Q 643.26 106.58 641.89 107.26
  Q 639.68 108.36 639.70 109.46"
/>
<path stroke="#fbb98f" vector-effect="non-scaling-stroke" d="
  M 648.44 601.85
  Q 648.40 601.91 648.30 603.01
  Q 648.14 604.69 648.40 610.10
  A 1.77 1.76 -12.9 0 1 647.32 611.81
  Q 641.88 614.14 640.30 614.92
  A 1.70 1.53 -27.8 0 0 639.49 617.13
  C 640.57 619.05 644.82 619.80 647.51 620.45
  A 2.00 1.98 -83.4 0 1 649.04 622.39
  L 649.04 629.54
  A 1.48 1.48 0.0 0 0 650.83 630.99
  C 653.36 630.46 656.02 626.00 656.81 623.95
  A 1.86 1.85 19.6 0 1 659.13 622.85
  L 666.20 625.22
  A 1.56 1.56 0.0 0 0 668.17 623.23
  Q 667.16 620.29 664.63 617.90
  Q 663.33 616.67 663.41 615.07
  A 2.46 2.44 -26.9 0 1 663.80 613.89
  C 664.99 612.08 668.56 607.88 667.36 605.70
  A 2.00 1.81 -24.0 0 0 665.01 604.93
  Q 662.96 605.67 658.73 607.48
  A 2.42 2.41 -33.1 0 1 656.00 606.91
  L 651.00 601.57
  A 1.61 1.61 0.0 0 0 648.44 601.85"
/>
<path stroke="#fcc9c3" vector-effect="non-scaling-stroke" d="
  M 717.34 0.00
  L 717.56 1024.00"
/>
<path stroke="#ffe2a6" vector-effect="non-scaling-stroke" d="
  M 671.91 877.83
  Q 673.26 877.93 673.51 876.53
  A 1.35 1.34 -54.9 0 0 673.35 875.61
  L 671.48 872.38"
/>
<path stroke="#ffe2a6" vector-effect="non-scaling-stroke" d="
  M 671.80 366.16
  Q 673.00 364.50 671.68 361.47"
/>
<path stroke="#fcc9c3" vector-effect="non-scaling-stroke" d="
  M 786.93 0.00
  L 787.14 224.73"
/>
<path stroke="#fbb98f" vector-effect="non-scaling-stroke" d="
  M 787.14 224.73
  Q 784.42 225.36 780.75 224.59
  A 2.08 2.01 7.2 0 0 778.25 226.46
  C 778.16 228.48 781.60 230.87 783.53 232.28
  A 1.69 1.66 -81.7 0 1 784.12 233.09
  C 784.87 235.36 782.64 240.11 782.25 241.96
  A 2.03 1.48 -79.8 0 0 783.39 244.31
  Q 784.71 244.48 786.10 243.94
  A 0.79 0.79 0.0 0 1 786.45 243.90
  Q 786.86 243.94 786.85 244.19"
/>
<path stroke="#fcc9c3" vector-effect="non-scaling-stroke" d="
  M 786.85 244.19
  L 787.07 732.27"
/>
<path stroke="#fbb98f" vector-effect="non-scaling-stroke" d="
  M 787.07 732.27
  L 786.27 732.82
  A 1.17 1.17 0.0 0 1 785.42 733.00
  Q 782.06 732.44 779.00 733.04
  A 1.41 1.40 -12.6 0 0 777.91 734.75
  Q 778.11 735.53 778.58 735.94
  Q 780.16 737.31 783.32 740.02
  A 2.78 2.77 27.1 0 1 784.21 742.75
  L 782.30 750.96
  A 1.29 1.29 0.0 0 0 783.92 752.49
  L 787.08 751.57"
/>
<path stroke="#fcc9c3" vector-effect="non-scaling-stroke" d="
  M 787.08 751.57
  L 787.00 1024.00"
/>
<path stroke="#fcc9c3" vector-effect="non-scaling-stroke" d="
  M 832.81 0.00
  L 832.92 1024.00"
/>
<path stroke="#ffe2a6" vector-effect="non-scaling-stroke" d="
  M 787.08 751.57
  Q 788.71 749.54 791.84 748.30
  A 1.40 1.39 -33.6 0 1 793.34 748.60
  Q 796.28 751.46 800.18 753.11
  A 1.46 1.46 0.0 0 0 802.18 751.47
  L 800.44 742.95
  A 1.25 1.24 68.0 0 1 800.99 741.64
  Q 806.12 738.36 806.39 738.16
  C 808.52 736.57 808.61 733.96 805.40 733.64
  Q 802.36 733.34 797.91 733.69
  A 1.33 1.31 81.8 0 1 796.52 732.64
  L 794.96 725.00
  A 1.79 1.79 0.0 0 0 791.95 724.09
  C 790.02 726.00 789.60 729.17 788.61 731.60
  Q 788.03 733.03 787.07 732.27"
/>
<path stroke="#ffe2a6" vector-effect="non-scaling-stroke" d="
  M 786.85 244.19
  Q 788.36 240.84 792.17 240.24
  A 2.10 2.09 -25.1 0 1 794.07 240.92
  C 795.86 242.96 797.95 245.23 800.41 245.57
  A 1.45 1.44 88.3 0 0 802.03 243.85
  L 800.43 236.07
  A 2.56 2.56 0.0 0 1 801.59 233.38
  Q 806.16 230.57 806.95 230.02
  A 2.40 2.37 -29.2 0 0 807.79 227.13
  Q 807.48 226.41 806.24 226.23
  Q 803.97 225.91 798.47 225.68
  A 1.01 1.00 85.0 0 1 797.55 224.90
  Q 796.70 221.14 795.43 217.65
  A 1.80 1.78 75.3 0 0 793.46 216.49
  C 791.44 216.83 790.55 220.69 789.61 223.41
  Q 789.27 224.39 788.66 224.90
  Q 787.74 225.66 787.14 224.73"
/>
<path stroke="#fcc9c3" vector-effect="non-scaling-stroke" d="
  M 880.67 0.00
  L 880.78 1024.00"
/>
<path stroke="#fcc9c3" vector-effect="non-scaling-stroke" d="
  M 926.56 0.00
  L 926.49 130.48"
/>
<path stroke="#ffe2a6" vector-effect="non-scaling-stroke" d="
  M 926.49 130.48
  Q 925.42 132.49 921.70 131.62
  A 1.38 1.38 0.0 0 1 920.73 130.77
  C 919.93 128.68 919.30 126.43 917.99 124.34
  C 916.66 122.22 914.32 123.11 913.73 125.25
  Q 912.89 128.30 912.26 132.41
  A 1.02 1.01 -84.5 0 1 911.23 133.27
  Q 907.79 133.15 904.21 133.68
  Q 901.95 134.01 901.72 135.60
  A 3.10 2.97 18.9 0 0 903.30 138.65
  Q 905.34 139.78 909.00 141.23
  A 1.31 1.29 17.1 0 1 909.80 142.72
  Q 908.78 147.39 908.52 150.48
  A 2.34 2.00 -84.2 0 0 910.25 152.97
  C 912.39 153.23 915.47 149.51 917.35 147.54
  A 0.97 0.93 27.6 0 1 918.23 147.28
  Q 921.15 147.91 921.38 148.12
  Q 923.34 149.87 926.49 151.30"
/>
<path stroke="#fcc9c3" vector-effect="non-scaling-stroke" d="
  M 926.49 151.30
  L 926.57 369.49"
/>
<path stroke="#ffe2a6" vector-effect="non-scaling-stroke" d="
  M 926.57 369.49
  Q 924.24 370.64 921.67 370.12
  A 0.65 0.63 -5.4 0 1 921.23 369.77
  L 917.83 362.85
  A 1.35 1.32 2.6 0 0 917.28 362.26
  C 915.23 361.11 914.41 362.25 913.82 364.27
  Q 913.14 366.61 912.62 370.37
  A 1.85 1.84 2.3 0 1 910.90 371.95
  Q 906.61 372.21 904.00 372.77
  A 2.06 1.88 -5.9 0 0 902.38 374.59
  C 902.32 377.09 906.78 378.45 909.59 379.69
  A 1.26 1.26 0.0 0 1 910.33 381.00
  Q 910.32 381.10 909.02 389.24
  A 2.08 1.96 -76.7 0 0 910.33 391.51
  Q 911.72 391.96 913.13 390.59
  Q 916.39 387.42 917.24 386.51
  A 2.39 2.38 -58.4 0 1 919.83 385.89
  Q 923.67 387.31 926.55 389.77"
/>
<path stroke="#fcc9c3" vector-effect="non-scaling-stroke" d="
  M 926.55 389.77
  L 926.28 634.16"
/>
<path stroke="#ffe2a6" vector-effect="non-scaling-stroke" d="
  M 926.28 634.16
  Q 923.84 634.76 921.71 634.61
  A 1.46 1.45 78.9 0 1 920.51 633.80
  L 917.22 627.10
  A 1.78 1.78 0.0 0 0 913.88 627.48
  L 912.06 635.32
  A 1.73 1.72 5.6 0 1 910.43 636.65
  Q 906.09 636.78 903.22 637.41
  A 1.95 1.90 77.9 0 0 901.78 639.71
  C 902.21 641.75 905.70 642.80 909.21 644.52
  A 1.01 1.01 0.0 0 1 909.76 645.66
  Q 908.75 650.35 908.26 653.54
  A 2.36 2.07 -78.1 0 0 909.70 656.10
  Q 911.12 656.50 912.63 655.09
  Q 915.77 652.17 917.08 650.59
  A 1.68 1.68 0.0 0 1 919.22 650.21
  L 926.58 654.53"
/>
<path stroke="#fcc9c3" vector-effect="non-scaling-stroke" d="
  M 926.58 654.53
  L 926.55 893.12"
/>
<path stroke="#ffe2a6" vector-effect="non-scaling-stroke" d="
  M 926.55 893.12
  Q 924.71 895.09 921.09 894.08
  A 1.05 1.03 86.9 0 1 920.41 893.46
  Q 919.15 890.09 917.36 886.84
  A 2.21 2.20 -32.8 0 0 914.11 886.14
  Q 913.61 886.52 913.30 887.81
  Q 912.49 891.20 911.89 894.74
  A 1.42 1.42 0.0 0 1 910.62 895.92
  Q 907.36 896.24 903.07 897.07
  C 901.09 897.45 900.63 900.01 902.22 901.01
  Q 905.54 903.10 908.73 904.14
  A 1.25 1.24 -78.1 0 1 909.58 905.45
  L 908.67 913.70
  A 1.74 1.74 0.0 0 0 911.01 915.52
  Q 914.35 914.28 916.59 910.85
  A 2.64 2.63 30.4 0 1 920.03 909.96
  L 926.62 913.45"
/>
<path stroke="#fcc9c3" vector-effect="non-scaling-stroke" d="
  M 926.62 913.45
  L 926.63 1024.00"
/>
<path stroke="#fcc9c3" vector-effect="non-scaling-stroke" d="
  M 975.03 0.00
  L 974.87 41.52"
/>
<path stroke="#fbb98f" vector-effect="non-scaling-stroke" d="
  M 974.87 41.52
  Q 974.28 42.63 974.91 44.52"
/>
<path stroke="#fcc9c3" vector-effect="non-scaling-stroke" d="
  M 974.91 44.52
  Q 975.17 130.93 975.11 175.25
  Q 975.00 258.67 975.19 292.60
  Q 975.20 294.45 975.28 294.90
  C 975.58 296.68 975.08 298.55 975.08 300.66
  Q 975.14 412.11 975.02 508.41
  C 975.01 519.00 975.25 536.57 974.96 550.79"
/>
<path stroke="#fbb98f" vector-effect="non-scaling-stroke" d="
  M 974.96 550.79
  L 974.77 553.01"
/>
<path stroke="#fcc9c3" vector-effect="non-scaling-stroke" d="
  M 974.77 553.01
  L 975.26 804.24"
/>
<path stroke="#fbb98f" vector-effect="non-scaling-stroke" d="
  M 975.26 804.24
  Q 975.19 805.01 975.00 805.36"
/>
<path stroke="#fcc9c3" vector-effect="non-scaling-stroke" d="
  M 975.00 805.36
  L 975.22 1024.00"
/>
<path stroke="#fbb98f" vector-effect="non-scaling-stroke" d="
  M 926.62 913.45
  Q 928.21 913.68 928.39 911.75
  C 928.61 909.47 927.12 906.26 926.33 904.16
  A 2.68 2.66 56.3 0 1 926.87 901.39
  C 928.11 900.06 931.62 897.28 931.72 895.09
  A 1.59 1.58 5.9 0 0 930.39 893.46
  Q 928.33 893.14 926.55 893.12"
/>
<path stroke="#fbb98f" vector-effect="non-scaling-stroke" d="
  M 926.58 654.53
  Q 928.19 653.53 928.49 651.77
  A 1.76 1.68 41.2 0 0 928.41 650.88
  Q 927.73 649.03 926.73 644.76
  C 925.89 641.18 929.91 638.86 931.44 637.00
  A 2.34 2.15 -46.2 0 0 931.50 634.11
  Q 931.41 634.01 930.74 634.03
  Q 928.42 634.07 926.28 634.16"
/>
<path stroke="#fbb98f" vector-effect="non-scaling-stroke" d="
  M 926.55 389.77
  Q 927.70 389.96 928.37 389.38
  A 2.57 2.55 58.3 0 0 929.05 386.45
  Q 927.62 383.04 926.99 379.18
  A 2.38 2.37 63.0 0 1 927.67 377.08
  C 930.03 374.75 932.70 372.67 932.43 370.75
  A 1.24 1.24 0.0 0 0 931.25 369.69
  L 926.57 369.49"
/>
<path stroke="#fbb98f" vector-effect="non-scaling-stroke" d="
  M 926.49 151.30
  Q 928.70 151.32 928.79 148.84
  A 0.18 0.17 42.1 0 0 928.78 148.74
  L 926.65 141.64
  A 3.47 3.45 61.0 0 1 927.67 138.06
  C 929.30 136.61 932.32 134.76 932.38 132.37
  A 1.21 1.20 -1.3 0 0 931.08 131.14
  Q 928.31 131.36 926.49 130.48"
/>
<path stroke="#fcc9c3" vector-effect="non-scaling-stroke" d="
  M 1021.02 0.00
  L 1021.02 1024.00"
/>
<path stroke="#ffe2a6" vector-effect="non-scaling-stroke" d="
  M 975.00 805.36
  Q 978.38 808.52 982.19 810.18
  A 1.07 1.05 7.1 0 1 982.81 810.96
  Q 983.37 813.93 982.70 816.28
  Q 981.71 819.80 981.75 820.65
  A 1.85 1.84 -22.4 0 0 984.83 821.93
  L 990.19 817.09
  A 1.69 1.68 38.7 0 1 992.15 816.88
  L 999.47 821.11
  A 1.42 1.42 0.0 0 0 1001.59 820.05
  C 1001.94 817.14 999.70 812.76 999.07 810.73
  A 2.04 2.04 0.0 0 1 999.88 808.42
  Q 1003.01 806.34 1004.83 803.97
  A 2.29 2.14 -54.1 0 0 1004.43 800.79
  Q 1003.80 800.36 1002.00 800.33
  Q 1000.38 800.30 995.37 800.93
  A 1.03 1.02 75.8 0 1 994.29 800.28
  Q 992.62 795.96 991.32 793.43
  Q 990.56 791.95 988.63 792.10
  A 1.83 1.83 0.0 0 0 986.99 793.50
  L 985.14 801.47
  A 1.20 1.19 5.9 0 1 984.00 802.39
  C 980.93 802.44 977.87 801.81 975.26 804.24"
/>
<path stroke="#ffe2a6" vector-effect="non-scaling-stroke" d="
  M 974.77 553.01
  L 981.96 557.08
  A 1.69 1.68 17.5 0 1 982.81 558.70
  Q 982.63 560.86 982.38 564.74
  Q 982.16 568.20 984.21 568.31
  A 1.00 0.99 23.7 0 0 984.96 568.02
  L 990.73 562.25
  A 2.08 2.07 35.3 0 1 993.10 561.85
  L 1000.33 565.38
  A 1.27 1.26 -48.5 0 0 1001.57 565.30
  Q 1003.38 564.10 1001.73 561.21
  Q 999.32 557.02 998.59 555.33
  A 2.78 2.77 54.9 0 1 999.11 552.32
  C 1000.69 550.64 1004.51 547.85 1003.91 545.57
  A 1.72 1.66 -6.0 0 0 1002.31 544.32
  C 999.42 544.21 998.14 544.82 994.08 545.96
  A 1.13 1.13 0.0 0 1 992.77 545.39
  Q 991.24 542.46 989.00 538.62
  A 1.91 1.78 -30.4 0 0 986.44 538.05
  Q 985.84 538.40 985.58 540.13
  Q 985.01 543.87 984.84 546.94
  A 1.86 1.84 84.7 0 1 983.45 548.63
  L 974.96 550.79"
/>
<path stroke="#ffe2a6" vector-effect="non-scaling-stroke" d="
  M 974.91 44.52
  L 982.97 47.48
  A 1.06 1.04 8.7 0 1 983.66 48.40
  C 983.76 50.31 982.94 55.64 984.23 57.58
  A 1.70 1.66 -43.1 0 0 986.95 57.64
  Q 989.46 54.40 991.25 51.45
  A 1.91 1.90 -65.1 0 1 993.48 50.63
  L 1001.27 53.24
  A 1.53 1.53 0.0 0 0 1003.08 51.02
  L 999.05 44.03
  A 2.85 2.84 49.3 0 1 999.29 40.82
  C 1001.28 38.32 1003.60 36.09 1003.15 33.40
  A 0.84 0.83 -89.1 0 0 1002.48 32.70
  C 998.93 31.99 996.11 34.34 993.09 34.58
  A 1.25 1.25 0.0 0 1 991.91 33.95
  Q 991.58 33.39 987.68 28.39
  Q 986.61 27.01 984.75 27.56
  A 1.23 1.21 81.7 0 0 983.89 28.73
  L 983.89 36.70
  A 2.02 2.00 -10.7 0 1 982.60 38.57
  L 974.87 41.52"
/>
<path stroke="#ffe2a6" vector-effect="non-scaling-stroke" d="
  M 1002.67 308.74
  C 1003.09 306.19 1000.82 302.69 999.26 299.62
  A 1.90 1.90 0.0 0 1 999.83 297.24
  Q 1002.87 295.01 1004.68 292.09
  A 1.94 1.83 -61.5 0 0 1003.96 289.36
  C 1002.28 288.57 997.93 289.82 995.22 290.46
  A 1.36 1.36 0.0 0 1 993.62 289.55
  C 992.95 287.47 990.89 281.98 988.41 281.70
  A 2.11 2.11 0.0 0 0 986.17 283.16
  Q 985.04 286.83 984.92 291.47
  A 1.24 1.24 0.0 0 1 983.70 292.68
  Q 979.93 292.75 976.56 294.05
  A 0.99 0.98 83.2 0 0 975.93 294.86
  Q 975.65 297.17 976.62 297.83
  Q 979.63 299.87 982.10 300.54
  A 2.17 2.16 -78.2 0 1 983.68 302.96
  Q 982.87 308.34 982.74 309.49
  Q 982.54 311.25 983.11 312.07
  A 1.86 1.71 -39.6 0 0 985.82 312.21
  Q 987.18 310.92 991.14 306.66
  A 1.37 1.35 -55.4 0 1 992.73 306.36
  L 1000.22 310.01
  A 1.72 1.72 0.0 0 0 1002.67 308.74"
/>
<path stroke="#ffe2a6" vector-effect="non-scaling-stroke" d="
  M 435.16 129.50
  Q 434.02 129.93 433.31 131.04
  A 1.71 1.70 60.7 0 0 433.05 131.98
  Q 433.09 135.08 435.14 137.02"
/>
<path stroke="#ffe2a6" vector-effect="non-scaling-stroke" d="
  M 435.43 378.80
  Q 434.42 379.38 433.68 380.32
  A 1.54 1.52 -26.7 0 0 433.37 381.24
  Q 433.33 384.35 435.40 385.79"
/>
<path stroke="#ffe2a6" vector-effect="non-scaling-stroke" d="
  M 435.28 892.98
  Q 433.16 892.62 433.23 895.75
  Q 433.29 898.68 435.37 900.41"
/>
</g>
<path fill="#f8a0ac" d="
  M 14.67 0.00
  L 14.64 1024.00
  L 0.00 1024.00
  L 0.00 0.00
  L 14.67 0.00
  Z"
/>
<path fill="#fff2d9" d="
  M 60.59 0.00
  L 60.60 974.75
  Q 58.53 976.30 55.98 975.44
  A 1.10 1.10 0.0 0 1 55.29 974.79
  C 54.11 971.83 51.93 966.08 48.38 968.04
  A 1.48 1.47 78.9 0 0 47.61 969.19
  L 46.68 977.72
  A 1.26 1.26 0.0 0 1 45.56 978.84
  C 43.04 979.10 36.39 979.39 37.22 982.72
  A 1.47 1.45 -80.7 0 0 37.83 983.58
  Q 41.31 985.81 45.46 986.47
  A 1.09 1.08 -80.6 0 1 46.36 987.73
  Q 45.50 992.41 45.19 996.26
  A 1.79 1.73 -79.4 0 0 46.40 998.09
  C 49.00 998.91 51.74 994.45 53.41 992.03
  A 1.49 1.49 0.0 0 1 54.86 991.40
  Q 58.16 991.89 60.39 993.27
  L 60.48 1024.00
  L 14.64 1024.00
  L 14.67 0.00
  L 60.59 0.00
  Z"
/>
<path fill="#f8a0ac" d="
  M 108.47 0.00
  L 108.77 1024.00
  L 60.48 1024.00
  L 60.39 993.27
  L 63.12 994.54
  A 1.64 1.64 0.0 0 0 65.44 993.17
  C 65.57 991.41 64.15 989.65 62.26 986.58
  A 3.36 3.36 0.0 0 1 62.18 983.19
  C 62.95 981.80 67.24 978.08 67.20 975.89
  A 1.93 1.91 -9.0 0 0 64.72 974.11
  Q 62.55 974.75 60.60 974.75
  L 60.59 0.00
  L 108.47 0.00
  Z"
/>
<path fill="#fff2d9" d="
  M 154.49 0.00
  L 154.47 111.16
  Q 152.78 109.98 151.65 107.75
  A 1.67 1.67 0.0 0 0 148.81 107.54
  C 147.33 109.60 147.38 113.66 147.40 116.17
  A 1.51 1.50 -0.6 0 1 145.91 117.68
  C 143.54 117.71 137.85 117.90 137.04 120.08
  A 2.42 2.35 -66.2 0 0 138.14 123.05
  Q 141.08 124.56 144.75 125.46
  A 1.23 1.22 12.3 0 1 145.66 126.87
  Q 144.72 132.01 144.64 134.48
  C 144.55 136.93 147.07 138.04 148.60 136.36
  Q 151.03 133.69 154.37 131.30
  L 154.43 363.32
  C 151.36 364.14 149.81 354.69 146.09 357.42
  A 1.54 1.51 -18.3 0 0 145.46 358.65
  L 145.46 366.91
  A 1.52 1.51 -6.8 0 1 144.30 368.38
  C 141.75 368.99 137.04 370.07 136.28 371.75
  A 2.33 1.98 22.1 0 0 137.74 374.56
  Q 141.10 375.82 144.74 376.45
  A 1.47 1.47 0.0 0 1 145.95 377.99
  C 145.75 381.34 145.49 383.91 146.27 386.75
  A 1.02 1.02 0.0 0 0 146.97 387.46
  Q 148.92 388.03 149.84 386.58
  Q 152.38 382.56 154.55 380.53
  Q 154.33 487.50 154.45 593.25
  Q 154.46 602.14 155.10 611.91
  Q 152.97 611.71 151.40 607.99
  A 1.43 1.42 -28.9 0 0 149.27 607.39
  Q 148.49 607.94 148.18 609.47
  Q 147.47 613.11 147.18 615.81
  A 1.64 1.63 87.9 0 1 145.85 617.25
  C 142.16 617.94 137.52 618.35 137.08 619.86
  A 2.58 2.56 -71.5 0 0 138.62 622.97
  Q 145.32 625.52 145.36 625.54
  A 1.41 1.40 -72.4 0 1 146.20 627.17
  Q 144.95 632.61 144.73 634.22
  A 2.68 2.38 -75.4 0 0 146.12 636.95
  C 147.60 637.60 148.73 636.74 149.66 635.43
  Q 151.70 632.58 154.43 630.77
  L 154.49 883.18
  Q 151.91 881.43 150.51 878.38
  A 0.98 0.97 85.2 0 0 149.88 877.84
  C 147.62 877.24 146.99 878.63 146.95 880.76
  Q 146.89 883.99 146.93 887.44
  A 0.83 0.83 0.0 0 1 146.25 888.27
  Q 142.39 888.96 138.25 890.35
  A 1.90 1.61 -22.8 0 0 137.03 892.75
  C 138.26 894.99 141.71 895.39 145.14 896.29
  A 1.86 1.86 0.0 0 1 146.49 898.46
  Q 145.60 902.88 145.65 905.97
  A 2.16 2.07 89.8 0 0 147.69 908.09
  Q 148.65 908.11 149.49 907.02
  Q 151.77 904.05 154.46 901.64
  L 154.48 1024.00
  L 108.77 1024.00
  L 108.47 0.00
  L 154.49 0.00
  Z"
/>
<path fill="#f8a0ac" d="
  M 202.54 0.00
  L 202.64 1024.00
  L 154.48 1024.00
  L 154.46 901.64
  Q 155.08 900.56 155.98 900.98
  Q 159.34 902.56 163.43 903.60
  A 1.72 1.72 0.0 0 0 165.34 901.07
  L 161.47 894.38
  A 2.03 2.02 -41.7 0 1 161.60 892.18
  C 163.04 890.23 165.83 887.69 166.21 884.96
  A 1.39 1.38 -1.9 0 0 164.56 883.42
  L 156.10 885.16
  A 0.72 0.71 65.2 0 1 155.41 884.90
  Q 154.81 884.14 154.49 883.18
  L 154.43 630.77
  Q 156.69 630.18 160.58 632.85
  Q 162.47 634.14 163.95 633.89
  A 1.78 1.78 0.0 0 0 165.26 631.35
  L 162.01 624.72
  A 2.37 2.37 0.0 0 1 162.35 622.11
  C 164.10 620.11 167.22 617.14 166.94 614.99
  A 1.66 1.61 -8.5 0 0 165.03 613.62
  Q 160.70 614.33 158.24 614.86
  Q 155.10 615.54 155.10 611.91
  Q 154.46 602.14 154.45 593.25
  Q 154.33 487.50 154.55 380.53
  Q 158.39 380.62 163.10 382.32
  A 1.79 1.78 -72.5 0 0 165.42 381.10
  C 165.94 379.22 162.91 376.00 160.94 373.50
  A 2.42 2.41 43.5 0 1 160.86 370.61
  C 162.93 367.71 165.55 364.72 165.07 362.89
  A 1.96 1.78 -13.2 0 0 162.81 361.63
  Q 160.01 362.21 156.51 363.85
  Q 155.80 364.18 155.26 364.13
  Q 154.46 364.06 154.43 363.32
  L 154.37 131.30
  Q 154.63 130.83 155.43 130.81
  A 1.35 1.17 -28.1 0 1 156.00 130.94
  Q 158.62 132.27 160.48 133.26
  Q 165.03 135.68 165.19 132.13
  A 0.94 0.92 34.1 0 0 165.10 131.69
  L 161.56 124.48
  A 1.86 1.85 54.1 0 1 161.89 122.38
  Q 165.85 118.26 166.29 117.55
  Q 167.96 114.83 166.06 113.74
  A 0.78 0.76 53.2 0 0 165.49 113.65
  L 157.64 115.26
  A 2.01 2.00 75.4 0 1 155.34 113.91
  L 154.47 111.16
  L 154.49 0.00
  L 202.54 0.00
  Z"
/>
<path fill="#fff2d9" d="
  M 248.61 0.00
  L 248.71 1024.00
  L 202.64 1024.00
  L 202.54 0.00
  L 248.61 0.00
  Z"
/>
<path fill="#f8a0ac" d="
  M 296.31 0.00
  L 296.25 216.79
  Q 293.62 221.11 293.55 225.75
  A 1.83 1.83 0.0 0 1 291.97 227.53
  Q 288.59 227.98 285.13 228.47
  A 1.73 1.65 -11.0 0 0 283.67 230.52
  C 284.17 232.46 288.48 234.29 290.22 234.86
  A 2.15 2.15 0.0 0 1 291.69 237.14
  L 290.80 245.37
  A 1.35 1.35 0.0 0 0 292.69 246.75
  L 296.25 245.17
  L 296.18 470.52
  C 293.89 472.36 293.78 478.86 293.45 480.07
  A 1.95 1.95 0.0 0 1 292.02 481.46
  Q 290.80 481.74 285.76 482.45
  A 1.79 1.65 -11.4 0 0 284.24 484.55
  Q 284.47 485.35 285.67 486.10
  Q 286.96 486.92 290.52 488.72
  C 294.66 490.81 289.37 498.38 292.15 500.84
  A 0.93 0.92 -34.9 0 0 293.12 501.01
  L 296.24 499.77
  L 296.32 725.63
  C 294.22 728.21 294.03 732.71 293.60 734.84
  A 2.16 2.15 -87.6 0 1 291.74 736.56
  C 288.41 736.94 284.59 736.94 284.07 738.80
  A 2.23 2.10 24.4 0 0 285.06 741.22
  Q 285.23 741.33 290.09 743.73
  C 291.98 744.67 292.18 746.02 291.85 747.89
  Q 291.30 751.05 291.17 754.67
  A 1.17 1.17 0.0 0 0 292.79 755.80
  L 296.31 754.32
  L 296.43 981.61
  Q 295.72 981.20 295.28 982.34
  Q 293.97 985.77 293.68 989.80
  A 2.58 2.58 0.0 0 1 291.59 992.15
  Q 291.57 992.15 285.30 993.23
  A 1.84 1.69 -9.2 0 0 283.76 995.18
  C 284.08 997.22 288.26 998.69 290.35 999.64
  A 2.67 2.66 -74.9 0 1 291.90 1002.35
  L 291.05 1010.13
  A 1.09 1.08 -10.3 0 0 292.62 1011.21
  Q 294.47 1010.28 296.54 1010.00
  L 296.54 1024.00
  L 248.71 1024.00
  L 248.61 0.00
  L 296.31 0.00
  Z"
/>
<path fill="#fff2d9" d="
  M 341.80 0.00
  L 341.85 1024.00
  L 296.54 1024.00
  L 296.54 1010.00
  L 298.93 1006.12
  A 1.49 1.48 27.7 0 1 300.80 1005.54
  L 308.16 1008.82
  A 1.47 1.41 50.6 0 0 309.00 1008.92
  Q 311.59 1008.46 310.28 1005.22
  Q 309.17 1002.49 306.98 998.99
  A 1.08 1.07 -41.6 0 1 307.06 997.74
  Q 308.35 996.16 312.09 991.73
  A 2.05 1.92 -47.7 0 0 312.05 989.03
  Q 311.44 988.42 310.05 988.61
  Q 307.47 988.97 302.97 990.18
  A 1.24 1.23 -16.2 0 1 301.46 989.35
  Q 300.10 984.95 296.43 981.61
  L 296.31 754.32
  Q 297.25 752.00 299.11 750.31
  A 1.50 1.47 21.4 0 1 299.98 749.94
  C 302.40 749.73 305.21 751.53 308.35 753.06
  A 1.80 1.80 0.0 0 0 310.85 752.00
  Q 311.02 751.45 310.38 749.56
  Q 309.86 748.03 307.49 743.65
  A 1.67 1.66 48.1 0 1 307.58 741.91
  Q 309.33 739.32 312.40 736.07
  A 2.11 1.89 -55.3 0 0 311.99 732.83
  Q 311.62 732.66 310.25 732.80
  Q 306.64 733.17 303.09 734.12
  A 1.28 1.26 -19.5 0 1 301.60 733.42
  Q 299.57 728.88 296.32 725.63
  L 296.24 499.77
  L 299.72 495.28
  A 1.04 1.04 0.0 0 1 300.87 494.93
  L 308.89 497.61
  A 1.65 1.65 0.0 0 0 311.03 495.72
  Q 310.39 492.53 307.81 488.98
  A 2.04 2.03 45.8 0 1 307.84 486.55
  Q 309.33 484.62 312.39 480.89
  A 2.26 2.08 -51.8 0 0 312.15 477.77
  Q 311.76 477.48 310.24 477.70
  Q 306.48 478.25 303.07 478.94
  A 1.37 1.36 70.8 0 1 301.58 478.21
  Q 299.44 473.92 296.18 470.52
  L 296.25 245.17
  Q 297.26 242.97 299.04 241.18
  A 1.21 1.21 0.0 0 1 300.26 240.88
  Q 302.82 241.68 306.87 243.71
  Q 308.41 244.48 309.39 244.29
  A 1.61 1.60 -16.8 0 0 310.57 242.10
  L 307.31 234.16
  A 1.16 1.15 -32.9 0 1 307.59 232.87
  Q 310.46 230.15 312.61 227.07
  A 1.70 1.64 -58.7 0 0 312.06 224.62
  Q 311.67 224.42 310.74 224.45
  Q 309.52 224.50 302.96 225.80
  A 0.98 0.97 75.8 0 1 301.84 225.13
  Q 300.11 219.56 296.25 216.79
  L 296.31 0.00
  L 341.80 0.00
  Z"
/>
<path fill="#f8a0ac" d="
  M 389.80 0.00
  L 389.85 1024.00
  L 341.85 1024.00
  L 341.80 0.00
  L 389.80 0.00
  Z"
/>
<path fill="#fff2d9" d="
  M 435.70 0.00
  L 435.59 122.28
  Q 432.22 123.23 428.48 122.80
  A 1.04 1.01 -10.0 0 1 427.67 122.25
  C 425.99 119.03 424.76 115.44 422.67 115.05
  A 1.47 1.45 -78.0 0 0 420.98 116.16
  L 419.10 124.27
  A 1.15 1.15 0.0 0 1 418.02 125.16
  C 415.27 125.26 410.35 125.05 409.30 127.04
  A 2.00 1.91 28.8 0 0 410.12 129.64
  Q 412.72 131.13 416.28 132.54
  A 1.42 1.40 -73.6 0 1 417.14 134.14
  Q 416.45 137.41 415.87 141.12
  C 415.49 143.55 417.08 145.17 419.45 143.41
  Q 421.15 142.15 424.26 139.37
  A 2.29 2.28 37.0 0 1 426.78 139.02
  L 432.15 141.64
  A 1.96 1.93 -35.4 0 0 433.27 141.82
  L 435.63 141.52
  L 435.60 370.81
  Q 435.69 372.01 433.50 372.13
  Q 431.40 372.24 429.18 372.19
  A 1.43 1.41 76.7 0 1 427.96 371.43
  C 426.34 368.28 424.85 364.39 423.09 364.22
  A 1.47 1.37 8.8 0 0 421.53 365.28
  Q 419.93 372.34 419.68 373.22
  A 1.43 1.43 0.0 0 1 418.37 374.26
  Q 413.79 374.47 411.41 374.91
  A 2.61 2.41 -4.8 0 0 409.30 377.21
  C 409.22 379.40 413.18 380.56 416.12 381.70
  A 1.89 1.89 0.0 0 1 417.31 383.67
  L 416.37 392.26
  A 0.76 0.75 25.1 0 0 416.59 392.86
  Q 418.10 394.37 419.53 393.14
  Q 421.94 391.06 424.65 388.10
  A 1.78 1.77 38.5 0 1 426.96 387.84
  Q 431.16 390.70 435.66 391.44
  L 435.94 628.98
  Q 432.73 630.11 428.85 629.60
  A 0.69 0.68 -9.0 0 1 428.33 629.23
  L 424.76 622.41
  A 1.57 1.57 0.0 0 0 422.13 622.17
  Q 421.93 622.39 421.83 622.88
  Q 421.16 625.94 420.03 630.13
  A 1.54 1.53 5.3 0 1 418.66 631.26
  C 414.79 631.55 410.11 631.42 409.21 633.46
  A 2.16 2.16 0.0 0 0 410.18 636.23
  Q 411.62 637.00 416.64 639.53
  A 1.11 1.11 0.0 0 1 417.20 640.86
  Q 415.95 644.81 416.02 648.88
  A 1.78 1.78 0.0 0 0 418.02 650.61
  C 420.00 650.35 423.09 646.77 424.41 645.69
  A 2.26 2.25 40.4 0 1 426.95 645.49
  L 433.45 649.25
  A 1.25 1.25 0.0 0 0 435.30 647.94
  Q 434.22 642.03 433.83 640.81
  Q 432.50 636.73 435.73 636.02
  Q 435.18 639.52 435.36 642.90
  Q 435.67 648.95 435.65 649.79
  Q 435.42 660.02 435.51 670.25
  Q 435.66 686.97 435.67 862.50
  Q 435.67 873.87 435.55 885.65
  L 429.02 886.20
  A 1.34 1.34 0.0 0 1 427.63 885.28
  Q 426.56 882.04 424.84 879.29
  C 424.13 878.15 422.63 877.36 421.59 878.24
  A 1.70 1.69 74.8 0 0 420.99 879.29
  L 419.77 886.49
  A 1.88 1.88 0.0 0 1 418.06 888.04
  Q 414.12 888.32 412.35 888.62
  C 410.21 888.98 408.95 889.59 409.84 891.91
  A 1.27 1.26 -87.7 0 0 410.49 892.62
  L 416.88 895.74
  A 1.34 1.34 0.0 0 1 417.61 897.24
  Q 416.58 902.00 416.27 905.37
  A 1.77 1.61 -85.5 0 0 417.75 907.28
  C 421.94 907.59 423.85 899.36 428.02 902.48
  Q 431.35 904.97 435.55 905.79
  L 435.74 1024.00
  L 389.85 1024.00
  L 389.80 0.00
  L 435.70 0.00
  Z"
/>
<path fill="#f8a0ac" d="
  M 484.96 0.00
  L 484.57 0.07
  A 0.70 0.70 0.0 0 0 484.00 0.76
  L 484.11 1024.00
  L 435.74 1024.00
  L 435.55 905.79
  Q 435.91 902.63 435.37 900.41
  L 435.28 892.98
  Q 436.10 890.86 438.31 889.45
  A 2.11 2.10 -51.6 0 0 437.88 885.69
  Q 437.12 885.42 435.55 885.65
  Q 435.67 873.87 435.67 862.50
  Q 435.66 686.97 435.51 670.25
  Q 435.42 660.02 435.65 649.79
  Q 435.67 648.95 435.36 642.90
  Q 435.18 639.52 435.73 636.02
  Q 436.65 634.86 437.92 633.66
  Q 439.23 632.42 439.21 630.58
  A 1.00 0.99 18.0 0 0 438.79 629.77
  Q 437.54 628.86 435.94 628.98
  L 435.66 391.44
  L 435.40 385.79
  L 435.43 378.80
  Q 436.45 377.18 437.89 375.91
  C 439.06 374.88 439.73 373.74 439.15 372.35
  A 1.23 1.22 -2.6 0 0 438.37 371.64
  L 435.60 370.81
  L 435.63 141.52
  L 435.14 137.02
  L 435.16 129.50
  C 436.41 128.00 440.51 125.05 438.11 122.95
  Q 436.41 121.45 435.59 122.28
  L 435.70 0.00
  L 484.96 0.00
  Z"
/>
<path fill="#fff2d9" d="
  M 530.05 0.00
  L 530.17 1024.00
  L 484.11 1024.00
  L 484.00 0.76
  A 0.70 0.70 0.0 0 1 484.57 0.07
  L 484.96 0.00
  L 530.05 0.00
  Z"
/>
<path fill="#f8a0ac" d="
  M 578.10 0.00
  Q 577.93 105.87 577.95 211.75
  Q 577.95 215.53 577.44 220.05
  Q 575.92 221.28 577.71 222.75
  Q 578.02 229.58 578.03 254.50
  Q 578.05 348.50 578.25 442.50
  Q 578.28 456.25 577.94 470.00
  Q 577.91 471.27 577.66 473.41
  Q 576.29 475.15 577.86 476.57
  Q 578.38 489.33 578.25 502.18
  Q 578.06 521.74 578.06 521.83
  Q 578.03 617.04 578.19 712.25
  Q 578.20 720.45 577.74 728.87
  Q 576.93 729.90 577.96 731.55
  L 578.12 983.60
  Q 576.54 985.80 578.12 987.60
  L 578.14 1024.00
  L 530.17 1024.00
  L 530.05 0.00
  L 578.10 0.00
  Z"
/>
<path fill="#fff2d9" d="
  M 623.60 0.00
  L 623.87 1024.00
  L 578.14 1024.00
  L 578.12 987.60
  L 585.45 990.20
  A 0.90 0.90 0.0 0 1 586.04 991.18
  C 585.57 994.31 584.50 998.82 585.81 1000.74
  A 1.72 1.62 -36.2 0 0 588.22 1001.04
  Q 591.53 998.50 593.46 994.97
  A 1.28 1.28 0.0 0 1 594.99 994.37
  L 603.50 997.22
  A 1.30 1.30 0.0 0 0 605.21 995.93
  C 605.12 993.76 602.16 989.21 601.46 987.75
  A 1.82 1.80 54.7 0 1 601.81 985.67
  C 603.14 984.35 606.58 981.14 606.85 979.45
  A 1.90 1.71 1.2 0 0 604.77 977.49
  Q 601.77 977.77 596.95 979.00
  A 1.86 1.85 70.3 0 1 594.80 977.98
  Q 593.10 974.30 591.55 972.22
  C 589.89 970.00 587.81 971.06 587.53 973.45
  Q 586.99 977.90 586.96 981.13
  A 1.03 1.02 85.3 0 1 586.12 982.13
  L 578.12 983.60
  L 577.96 731.55
  L 586.02 733.94
  A 1.19 1.19 0.0 0 1 586.87 735.16
  C 586.73 737.40 586.07 742.93 587.79 744.35
  A 1.70 1.59 -48.9 0 0 590.04 744.12
  Q 592.55 741.39 594.60 737.68
  A 1.00 1.00 0.0 0 1 595.81 737.22
  L 603.80 740.00
  A 1.61 1.61 0.0 0 0 605.94 738.56
  C 606.01 737.34 603.92 734.39 601.91 731.11
  A 2.02 2.02 0.0 0 1 601.99 728.88
  C 603.44 726.84 606.29 723.51 606.16 720.66
  A 0.68 0.68 0.0 0 0 605.51 720.00
  C 601.75 719.78 598.71 721.76 596.00 721.99
  A 0.98 0.98 0.0 0 1 595.14 721.62
  C 594.30 720.53 591.15 714.29 588.42 714.74
  Q 587.59 714.87 587.25 716.14
  C 586.60 718.59 586.93 722.19 586.98 724.69
  A 1.22 1.21 79.9 0 1 586.18 725.85
  L 577.74 728.87
  Q 578.20 720.45 578.19 712.25
  Q 578.03 617.04 578.06 521.83
  Q 578.06 521.74 578.25 502.18
  Q 578.38 489.33 577.86 476.57
  L 585.53 479.59
  A 1.29 1.28 13.9 0 1 586.34 480.93
  L 585.50 488.65
  A 1.51 1.51 0.0 0 0 587.61 490.20
  C 589.86 489.20 591.83 486.46 593.48 484.28
  A 1.48 1.47 -62.3 0 1 595.13 483.76
  L 603.43 486.54
  A 1.41 1.41 0.0 0 0 605.14 484.58
  L 601.71 477.59
  A 3.01 3.00 -37.4 0 1 602.15 474.30
  Q 604.87 471.19 606.28 469.18
  A 1.60 1.41 -56.8 0 0 605.96 466.99
  Q 605.00 466.43 603.48 466.70
  Q 600.06 467.32 596.88 468.15
  A 1.41 1.39 65.0 0 1 595.39 467.60
  L 591.14 461.59
  A 1.94 1.93 -46.0 0 0 587.94 461.65
  Q 587.93 461.66 587.74 463.26
  Q 587.39 466.30 587.31 469.69
  A 1.80 1.80 0.0 0 1 585.94 471.40
  L 577.66 473.41
  Q 577.91 471.27 577.94 470.00
  Q 578.28 456.25 578.25 442.50
  Q 578.05 348.50 578.03 254.50
  Q 578.02 229.58 577.71 222.75
  L 585.88 225.55
  A 0.92 0.92 0.0 0 1 586.50 226.53
  L 585.60 234.79
  A 1.56 1.56 0.0 0 0 587.30 236.51
  Q 588.69 236.39 589.93 234.89
  Q 594.20 229.70 594.24 229.66
  A 0.87 0.86 -59.9 0 1 595.16 229.41
  L 603.44 232.18
  A 1.55 1.54 -78.6 0 0 605.47 230.83
  Q 605.53 230.15 604.71 228.53
  Q 603.53 226.22 601.36 222.93
  A 1.39 1.39 0.0 0 1 601.37 221.40
  Q 603.42 218.35 605.42 215.94
  Q 606.09 215.12 606.31 213.54
  A 1.09 1.08 10.4 0 0 605.47 212.33
  C 602.87 211.74 600.00 212.94 596.46 214.08
  A 1.48 1.47 -24.3 0 1 594.74 213.43
  C 593.52 211.39 591.28 207.28 589.34 206.82
  A 1.75 1.61 -81.5 0 0 587.35 208.42
  Q 587.00 213.01 586.81 215.86
  A 1.68 1.67 83.0 0 1 585.67 217.33
  L 577.44 220.05
  Q 577.95 215.53 577.95 211.75
  Q 577.93 105.87 578.10 0.00
  L 623.60 0.00
  Z"
/>
<path fill="#f8a0ac" d="
  M 672.89 0.00
  L 671.92 0.28
  A 0.55 0.54 82.4 0 0 671.52 0.81
  L 671.68 361.47
  Q 668.96 361.70 666.79 357.94
  A 2.65 2.63 41.8 0 1 666.65 355.60
  C 667.94 352.55 669.11 350.30 669.09 348.01
  A 1.67 1.67 0.0 0 0 666.52 346.62
  L 660.83 350.28
  A 1.62 1.57 -60.9 0 1 659.96 350.54
  Q 658.22 350.58 656.80 349.30
  Q 654.75 347.47 652.19 345.41
  A 1.86 1.56 34.8 0 0 649.58 345.65
  Q 649.32 346.13 649.49 347.52
  Q 649.93 350.94 650.70 354.02
  A 1.70 1.69 -22.8 0 1 649.94 355.87
  Q 646.13 358.22 643.49 359.73
  A 1.58 1.58 0.0 0 0 643.14 362.20
  C 644.37 363.45 648.79 363.76 651.21 364.01
  A 1.94 1.94 0.0 0 1 652.93 365.67
  Q 653.63 370.51 654.19 372.64
  A 2.06 1.93 75.9 0 0 656.54 374.15
  Q 657.64 373.89 658.25 372.75
  Q 660.50 368.59 661.63 365.86
  A 1.15 1.15 0.0 0 1 662.83 365.15
  L 671.80 366.16
  L 671.48 872.38
  Q 668.29 871.14 667.78 868.73
  C 667.21 866.07 671.34 861.46 670.11 859.25
  A 2.40 2.11 -30.2 0 0 666.93 858.63
  Q 664.58 860.04 662.04 861.82
  A 2.19 2.18 -40.3 0 1 659.27 861.60
  C 657.57 859.95 654.83 856.92 652.97 856.48
  A 1.65 1.64 1.9 0 0 650.96 858.35
  L 652.11 865.40
  A 2.23 2.22 -19.6 0 1 651.02 867.69
  Q 645.81 870.67 644.73 871.34
  A 1.63 1.61 -34.0 0 0 644.26 873.67
  Q 644.67 874.22 645.35 874.42
  Q 647.84 875.17 652.32 875.35
  A 2.02 2.01 87.1 0 1 654.23 877.08
  C 654.74 880.56 654.93 884.96 656.77 885.67
  A 2.04 1.91 -67.9 0 0 659.26 884.52
  Q 660.74 881.04 662.32 877.43
  A 1.13 1.12 15.6 0 1 663.50 876.77
  L 671.91 877.83
  L 671.73 1024.00
  L 623.87 1024.00
  L 623.60 0.00
  L 672.89 0.00
  Z
  M 639.70 109.46
  Q 639.72 110.55 641.97 111.57
  Q 643.37 112.20 647.92 113.44
  A 1.32 1.32 0.0 0 1 648.90 114.66
  L 649.20 122.81
  A 1.58 1.57 79.6 0 0 651.28 124.25
  C 652.86 123.85 654.96 120.35 656.62 117.88
  A 2.22 2.21 -62.7 0 1 659.23 117.04
  C 662.03 118.06 665.50 119.66 667.34 118.93
  A 1.76 1.76 0.0 0 0 668.12 116.28
  C 665.68 112.83 663.32 110.06 663.30 109.00
  C 663.28 107.95 665.53 105.09 667.84 101.55
  A 1.76 1.76 0.0 0 0 666.96 98.93
  C 665.09 98.27 661.68 100.00 658.92 101.13
  A 2.22 2.21 60.5 0 1 656.28 100.39
  C 654.53 97.99 652.30 94.57 650.70 94.23
  A 1.58 1.57 -81.8 0 0 648.68 95.75
  L 648.69 103.90
  A 1.32 1.32 0.0 0 1 647.76 105.16
  Q 643.26 106.58 641.89 107.26
  Q 639.68 108.36 639.70 109.46
  Z
  M 648.44 601.85
  Q 648.40 601.91 648.30 603.01
  Q 648.14 604.69 648.40 610.10
  A 1.77 1.76 -12.9 0 1 647.32 611.81
  Q 641.88 614.14 640.30 614.92
  A 1.70 1.53 -27.8 0 0 639.49 617.13
  C 640.57 619.05 644.82 619.80 647.51 620.45
  A 2.00 1.98 -83.4 0 1 649.04 622.39
  L 649.04 629.54
  A 1.48 1.48 0.0 0 0 650.83 630.99
  C 653.36 630.46 656.02 626.00 656.81 623.95
  A 1.86 1.85 19.6 0 1 659.13 622.85
  L 666.20 625.22
  A 1.56 1.56 0.0 0 0 668.17 623.23
  Q 667.16 620.29 664.63 617.90
  Q 663.33 616.67 663.41 615.07
  A 2.46 2.44 -26.9 0 1 663.80 613.89
  C 664.99 612.08 668.56 607.88 667.36 605.70
  A 2.00 1.81 -24.0 0 0 665.01 604.93
  Q 662.96 605.67 658.73 607.48
  A 2.42 2.41 -33.1 0 1 656.00 606.91
  L 651.00 601.57
  A 1.61 1.61 0.0 0 0 648.44 601.85
  Z"
/>
<path fill="#fff2d9" d="
  M 717.34 0.00
  L 717.56 1024.00
  L 671.73 1024.00
  L 671.91 877.83
  Q 673.26 877.93 673.51 876.53
  A 1.35 1.34 -54.9 0 0 673.35 875.61
  L 671.48 872.38
  L 671.80 366.16
  Q 673.00 364.50 671.68 361.47
  L 671.52 0.81
  A 0.55 0.54 82.4 0 1 671.92 0.28
  L 672.89 0.00
  L 717.34 0.00
  Z"
/>
<path fill="#f8a0ac" d="
  M 786.93 0.00
  L 787.14 224.73
  Q 784.42 225.36 780.75 224.59
  A 2.08 2.01 7.2 0 0 778.25 226.46
  C 778.16 228.48 781.60 230.87 783.53 232.28
  A 1.69 1.66 -81.7 0 1 784.12 233.09
  C 784.87 235.36 782.64 240.11 782.25 241.96
  A 2.03 1.48 -79.8 0 0 783.39 244.31
  Q 784.71 244.48 786.10 243.94
  A 0.79 0.79 0.0 0 1 786.45 243.90
  Q 786.86 243.94 786.85 244.19
  L 787.07 732.27
  L 786.27 732.82
  A 1.17 1.17 0.0 0 1 785.42 733.00
  Q 782.06 732.44 779.00 733.04
  A 1.41 1.40 -12.6 0 0 777.91 734.75
  Q 778.11 735.53 778.58 735.94
  Q 780.16 737.31 783.32 740.02
  A 2.78 2.77 27.1 0 1 784.21 742.75
  L 782.30 750.96
  A 1.29 1.29 0.0 0 0 783.92 752.49
  L 787.08 751.57
  L 787.00 1024.00
  L 717.56 1024.00
  L 717.34 0.00
  L 786.93 0.00
  Z"
/>
<path fill="#fff2d9" d="
  M 832.81 0.00
  L 832.92 1024.00
  L 787.00 1024.00
  L 787.08 751.57
  Q 788.71 749.54 791.84 748.30
  A 1.40 1.39 -33.6 0 1 793.34 748.60
  Q 796.28 751.46 800.18 753.11
  A 1.46 1.46 0.0 0 0 802.18 751.47
  L 800.44 742.95
  A 1.25 1.24 68.0 0 1 800.99 741.64
  Q 806.12 738.36 806.39 738.16
  C 808.52 736.57 808.61 733.96 805.40 733.64
  Q 802.36 733.34 797.91 733.69
  A 1.33 1.31 81.8 0 1 796.52 732.64
  L 794.96 725.00
  A 1.79 1.79 0.0 0 0 791.95 724.09
  C 790.02 726.00 789.60 729.17 788.61 731.60
  Q 788.03 733.03 787.07 732.27
  L 786.85 244.19
  Q 788.36 240.84 792.17 240.24
  A 2.10 2.09 -25.1 0 1 794.07 240.92
  C 795.86 242.96 797.95 245.23 800.41 245.57
  A 1.45 1.44 88.3 0 0 802.03 243.85
  L 800.43 236.07
  A 2.56 2.56 0.0 0 1 801.59 233.38
  Q 806.16 230.57 806.95 230.02
  A 2.40 2.37 -29.2 0 0 807.79 227.13
  Q 807.48 226.41 806.24 226.23
  Q 803.97 225.91 798.47 225.68
  A 1.01 1.00 85.0 0 1 797.55 224.90
  Q 796.70 221.14 795.43 217.65
  A 1.80 1.78 75.3 0 0 793.46 216.49
  C 791.44 216.83 790.55 220.69 789.61 223.41
  Q 789.27 224.39 788.66 224.90
  Q 787.74 225.66 787.14 224.73
  L 786.93 0.00
  L 832.81 0.00
  Z"
/>
<path fill="#f8a0ac" d="
  M 880.67 0.00
  L 880.78 1024.00
  L 832.92 1024.00
  L 832.81 0.00
  L 880.67 0.00
  Z"
/>
<path fill="#fff2d9" d="
  M 926.56 0.00
  L 926.49 130.48
  Q 925.42 132.49 921.70 131.62
  A 1.38 1.38 0.0 0 1 920.73 130.77
  C 919.93 128.68 919.30 126.43 917.99 124.34
  C 916.66 122.22 914.32 123.11 913.73 125.25
  Q 912.89 128.30 912.26 132.41
  A 1.02 1.01 -84.5 0 1 911.23 133.27
  Q 907.79 133.15 904.21 133.68
  Q 901.95 134.01 901.72 135.60
  A 3.10 2.97 18.9 0 0 903.30 138.65
  Q 905.34 139.78 909.00 141.23
  A 1.31 1.29 17.1 0 1 909.80 142.72
  Q 908.78 147.39 908.52 150.48
  A 2.34 2.00 -84.2 0 0 910.25 152.97
  C 912.39 153.23 915.47 149.51 917.35 147.54
  A 0.97 0.93 27.6 0 1 918.23 147.28
  Q 921.15 147.91 921.38 148.12
  Q 923.34 149.87 926.49 151.30
  L 926.57 369.49
  Q 924.24 370.64 921.67 370.12
  A 0.65 0.63 -5.4 0 1 921.23 369.77
  L 917.83 362.85
  A 1.35 1.32 2.6 0 0 917.28 362.26
  C 915.23 361.11 914.41 362.25 913.82 364.27
  Q 913.14 366.61 912.62 370.37
  A 1.85 1.84 2.3 0 1 910.90 371.95
  Q 906.61 372.21 904.00 372.77
  A 2.06 1.88 -5.9 0 0 902.38 374.59
  C 902.32 377.09 906.78 378.45 909.59 379.69
  A 1.26 1.26 0.0 0 1 910.33 381.00
  Q 910.32 381.10 909.02 389.24
  A 2.08 1.96 -76.7 0 0 910.33 391.51
  Q 911.72 391.96 913.13 390.59
  Q 916.39 387.42 917.24 386.51
  A 2.39 2.38 -58.4 0 1 919.83 385.89
  Q 923.67 387.31 926.55 389.77
  L 926.28 634.16
  Q 923.84 634.76 921.71 634.61
  A 1.46 1.45 78.9 0 1 920.51 633.80
  L 917.22 627.10
  A 1.78 1.78 0.0 0 0 913.88 627.48
  L 912.06 635.32
  A 1.73 1.72 5.6 0 1 910.43 636.65
  Q 906.09 636.78 903.22 637.41
  A 1.95 1.90 77.9 0 0 901.78 639.71
  C 902.21 641.75 905.70 642.80 909.21 644.52
  A 1.01 1.01 0.0 0 1 909.76 645.66
  Q 908.75 650.35 908.26 653.54
  A 2.36 2.07 -78.1 0 0 909.70 656.10
  Q 911.12 656.50 912.63 655.09
  Q 915.77 652.17 917.08 650.59
  A 1.68 1.68 0.0 0 1 919.22 650.21
  L 926.58 654.53
  L 926.55 893.12
  Q 924.71 895.09 921.09 894.08
  A 1.05 1.03 86.9 0 1 920.41 893.46
  Q 919.15 890.09 917.36 886.84
  A 2.21 2.20 -32.8 0 0 914.11 886.14
  Q 913.61 886.52 913.30 887.81
  Q 912.49 891.20 911.89 894.74
  A 1.42 1.42 0.0 0 1 910.62 895.92
  Q 907.36 896.24 903.07 897.07
  C 901.09 897.45 900.63 900.01 902.22 901.01
  Q 905.54 903.10 908.73 904.14
  A 1.25 1.24 -78.1 0 1 909.58 905.45
  L 908.67 913.70
  A 1.74 1.74 0.0 0 0 911.01 915.52
  Q 914.35 914.28 916.59 910.85
  A 2.64 2.63 30.4 0 1 920.03 909.96
  L 926.62 913.45
  L 926.63 1024.00
  L 880.78 1024.00
  L 880.67 0.00
  L 926.56 0.00
  Z"
/>
<path fill="#f8a0ac" d="
  M 975.03 0.00
  L 974.87 41.52
  Q 974.28 42.63 974.91 44.52
  Q 975.17 130.93 975.11 175.25
  Q 975.00 258.67 975.19 292.60
  Q 975.20 294.45 975.28 294.90
  C 975.58 296.68 975.08 298.55 975.08 300.66
  Q 975.14 412.11 975.02 508.41
  C 975.01 519.00 975.25 536.57 974.96 550.79
  L 974.77 553.01
  L 975.26 804.24
  Q 975.19 805.01 975.00 805.36
  L 975.22 1024.00
  L 926.63 1024.00
  L 926.62 913.45
  Q 928.21 913.68 928.39 911.75
  C 928.61 909.47 927.12 906.26 926.33 904.16
  A 2.68 2.66 56.3 0 1 926.87 901.39
  C 928.11 900.06 931.62 897.28 931.72 895.09
  A 1.59 1.58 5.9 0 0 930.39 893.46
  Q 928.33 893.14 926.55 893.12
  L 926.58 654.53
  Q 928.19 653.53 928.49 651.77
  A 1.76 1.68 41.2 0 0 928.41 650.88
  Q 927.73 649.03 926.73 644.76
  C 925.89 641.18 929.91 638.86 931.44 637.00
  A 2.34 2.15 -46.2 0 0 931.50 634.11
  Q 931.41 634.01 930.74 634.03
  Q 928.42 634.07 926.28 634.16
  L 926.55 389.77
  Q 927.70 389.96 928.37 389.38
  A 2.57 2.55 58.3 0 0 929.05 386.45
  Q 927.62 383.04 926.99 379.18
  A 2.38 2.37 63.0 0 1 927.67 377.08
  C 930.03 374.75 932.70 372.67 932.43 370.75
  A 1.24 1.24 0.0 0 0 931.25 369.69
  L 926.57 369.49
  L 926.49 151.30
  Q 928.70 151.32 928.79 148.84
  A 0.18 0.17 42.1 0 0 928.78 148.74
  L 926.65 141.64
  A 3.47 3.45 61.0 0 1 927.67 138.06
  C 929.30 136.61 932.32 134.76 932.38 132.37
  A 1.21 1.20 -1.3 0 0 931.08 131.14
  Q 928.31 131.36 926.49 130.48
  L 926.56 0.00
  L 975.03 0.00
  Z"
/>
<path fill="#fff2d9" d="
  M 1021.02 0.00
  L 1021.02 1024.00
  L 975.22 1024.00
  L 975.00 805.36
  Q 978.38 808.52 982.19 810.18
  A 1.07 1.05 7.1 0 1 982.81 810.96
  Q 983.37 813.93 982.70 816.28
  Q 981.71 819.80 981.75 820.65
  A 1.85 1.84 -22.4 0 0 984.83 821.93
  L 990.19 817.09
  A 1.69 1.68 38.7 0 1 992.15 816.88
  L 999.47 821.11
  A 1.42 1.42 0.0 0 0 1001.59 820.05
  C 1001.94 817.14 999.70 812.76 999.07 810.73
  A 2.04 2.04 0.0 0 1 999.88 808.42
  Q 1003.01 806.34 1004.83 803.97
  A 2.29 2.14 -54.1 0 0 1004.43 800.79
  Q 1003.80 800.36 1002.00 800.33
  Q 1000.38 800.30 995.37 800.93
  A 1.03 1.02 75.8 0 1 994.29 800.28
  Q 992.62 795.96 991.32 793.43
  Q 990.56 791.95 988.63 792.10
  A 1.83 1.83 0.0 0 0 986.99 793.50
  L 985.14 801.47
  A 1.20 1.19 5.9 0 1 984.00 802.39
  C 980.93 802.44 977.87 801.81 975.26 804.24
  L 974.77 553.01
  L 981.96 557.08
  A 1.69 1.68 17.5 0 1 982.81 558.70
  Q 982.63 560.86 982.38 564.74
  Q 982.16 568.20 984.21 568.31
  A 1.00 0.99 23.7 0 0 984.96 568.02
  L 990.73 562.25
  A 2.08 2.07 35.3 0 1 993.10 561.85
  L 1000.33 565.38
  A 1.27 1.26 -48.5 0 0 1001.57 565.30
  Q 1003.38 564.10 1001.73 561.21
  Q 999.32 557.02 998.59 555.33
  A 2.78 2.77 54.9 0 1 999.11 552.32
  C 1000.69 550.64 1004.51 547.85 1003.91 545.57
  A 1.72 1.66 -6.0 0 0 1002.31 544.32
  C 999.42 544.21 998.14 544.82 994.08 545.96
  A 1.13 1.13 0.0 0 1 992.77 545.39
  Q 991.24 542.46 989.00 538.62
  A 1.91 1.78 -30.4 0 0 986.44 538.05
  Q 985.84 538.40 985.58 540.13
  Q 985.01 543.87 984.84 546.94
  A 1.86 1.84 84.7 0 1 983.45 548.63
  L 974.96 550.79
  C 975.25 536.57 975.01 519.00 975.02 508.41
  Q 975.14 412.11 975.08 300.66
  C 975.08 298.55 975.58 296.68 975.28 294.90
  Q 975.20 294.45 975.19 292.60
  Q 975.00 258.67 975.11 175.25
  Q 975.17 130.93 974.91 44.52
  L 982.97 47.48
  A 1.06 1.04 8.7 0 1 983.66 48.40
  C 983.76 50.31 982.94 55.64 984.23 57.58
  A 1.70 1.66 -43.1 0 0 986.95 57.64
  Q 989.46 54.40 991.25 51.45
  A 1.91 1.90 -65.1 0 1 993.48 50.63
  L 1001.27 53.24
  A 1.53 1.53 0.0 0 0 1003.08 51.02
  L 999.05 44.03
  A 2.85 2.84 49.3 0 1 999.29 40.82
  C 1001.28 38.32 1003.60 36.09 1003.15 33.40
  A 0.84 0.83 -89.1 0 0 1002.48 32.70
  C 998.93 31.99 996.11 34.34 993.09 34.58
  A 1.25 1.25 0.0 0 1 991.91 33.95
  Q 991.58 33.39 987.68 28.39
  Q 986.61 27.01 984.75 27.56
  A 1.23 1.21 81.7 0 0 983.89 28.73
  L 983.89 36.70
  A 2.02 2.00 -10.7 0 1 982.60 38.57
  L 974.87 41.52
  L 975.03 0.00
  L 1021.02 0.00
  Z
  M 1002.67 308.74
  C 1003.09 306.19 1000.82 302.69 999.26 299.62
  A 1.90 1.90 0.0 0 1 999.83 297.24
  Q 1002.87 295.01 1004.68 292.09
  A 1.94 1.83 -61.5 0 0 1003.96 289.36
  C 1002.28 288.57 997.93 289.82 995.22 290.46
  A 1.36 1.36 0.0 0 1 993.62 289.55
  C 992.95 287.47 990.89 281.98 988.41 281.70
  A 2.11 2.11 0.0 0 0 986.17 283.16
  Q 985.04 286.83 984.92 291.47
  A 1.24 1.24 0.0 0 1 983.70 292.68
  Q 979.93 292.75 976.56 294.05
  A 0.99 0.98 83.2 0 0 975.93 294.86
  Q 975.65 297.17 976.62 297.83
  Q 979.63 299.87 982.10 300.54
  A 2.17 2.16 -78.2 0 1 983.68 302.96
  Q 982.87 308.34 982.74 309.49
  Q 982.54 311.25 983.11 312.07
  A 1.86 1.71 -39.6 0 0 985.82 312.21
  Q 987.18 310.92 991.14 306.66
  A 1.37 1.35 -55.4 0 1 992.73 306.36
  L 1000.22 310.01
  A 1.72 1.72 0.0 0 0 1002.67 308.74
  Z"
/>
<path fill="#f8a0ac" d="
  M 1024.00 0.00
  L 1024.00 1024.00
  L 1021.02 1024.00
  L 1021.02 0.00
  L 1024.00 0.00
  Z"
/>
<path fill="#fed172" d="
  M 974.91 44.52
  Q 974.28 42.63 974.87 41.52
  L 982.60 38.57
  A 2.02 2.00 -10.7 0 0 983.89 36.70
  L 983.89 28.73
  A 1.23 1.21 81.7 0 1 984.75 27.56
  Q 986.61 27.01 987.68 28.39
  Q 991.58 33.39 991.91 33.95
  A 1.25 1.25 0.0 0 0 993.09 34.58
  C 996.11 34.34 998.93 31.99 1002.48 32.70
  A 0.84 0.83 -89.1 0 1 1003.15 33.40
  C 1003.60 36.09 1001.28 38.32 999.29 40.82
  A 2.85 2.84 49.3 0 0 999.05 44.03
  L 1003.08 51.02
  A 1.53 1.53 0.0 0 1 1001.27 53.24
  L 993.48 50.63
  A 1.91 1.90 -65.1 0 0 991.25 51.45
  Q 989.46 54.40 986.95 57.64
  A 1.70 1.66 -43.1 0 1 984.23 57.58
  C 982.94 55.64 983.76 50.31 983.66 48.40
  A 1.06 1.04 8.7 0 0 982.97 47.48
  L 974.91 44.52
  Z"
/>
<path fill="#fed172" d="
  M 663.30 109.00
  C 663.32 110.06 665.68 112.83 668.12 116.28
  A 1.76 1.76 0.0 0 1 667.34 118.93
  C 665.50 119.66 662.03 118.06 659.23 117.04
  A 2.22 2.21 -62.7 0 0 656.62 117.88
  C 654.96 120.35 652.86 123.85 651.28 124.25
  A 1.58 1.57 79.6 0 1 649.20 122.81
  L 648.90 114.66
  A 1.32 1.32 0.0 0 0 647.92 113.44
  Q 643.37 112.20 641.97 111.57
  Q 639.72 110.55 639.70 109.46
  Q 639.68 108.36 641.89 107.26
  Q 643.26 106.58 647.76 105.16
  A 1.32 1.32 0.0 0 0 648.69 103.90
  L 648.68 95.75
  A 1.58 1.57 -81.8 0 1 650.70 94.23
  C 652.30 94.57 654.53 97.99 656.28 100.39
  A 2.22 2.21 60.5 0 0 658.92 101.13
  C 661.68 100.00 665.09 98.27 666.96 98.93
  A 1.76 1.76 0.0 0 1 667.84 101.55
  C 665.53 105.09 663.28 107.95 663.30 109.00
  Z"
/>
<path fill="#fed172" d="
  M 154.47 111.16
  L 155.34 113.91
  A 2.01 2.00 75.4 0 0 157.64 115.26
  L 165.49 113.65
  A 0.78 0.76 53.2 0 1 166.06 113.74
  Q 167.96 114.83 166.29 117.55
  Q 165.85 118.26 161.89 122.38
  A 1.86 1.85 54.1 0 0 161.56 124.48
  L 165.10 131.69
  A 0.94 0.92 34.1 0 1 165.19 132.13
  Q 165.03 135.68 160.48 133.26
  Q 158.62 132.27 156.00 130.94
  A 1.35 1.17 -28.1 0 0 155.43 130.81
  Q 154.63 130.83 154.37 131.30
  Q 151.03 133.69 148.60 136.36
  C 147.07 138.04 144.55 136.93 144.64 134.48
  Q 144.72 132.01 145.66 126.87
  A 1.23 1.22 12.3 0 0 144.75 125.46
  Q 141.08 124.56 138.14 123.05
  A 2.42 2.35 -66.2 0 1 137.04 120.08
  C 137.85 117.90 143.54 117.71 145.91 117.68
  A 1.51 1.50 -0.6 0 0 147.40 116.17
  C 147.38 113.66 147.33 109.60 148.81 107.54
  A 1.67 1.67 0.0 0 1 151.65 107.75
  Q 152.78 109.98 154.47 111.16
  Z"
/>
<path fill="#fed172" d="
  M 435.59 122.28
  Q 436.41 121.45 438.11 122.95
  C 440.51 125.05 436.41 128.00 435.16 129.50
  Q 434.02 129.93 433.31 131.04
  A 1.71 1.70 60.7 0 0 433.05 131.98
  Q 433.09 135.08 435.14 137.02
  L 435.63 141.52
  L 433.27 141.82
  A 1.96 1.93 -35.4 0 1 432.15 141.64
  L 426.78 139.02
  A 2.29 2.28 37.0 0 0 424.26 139.37
  Q 421.15 142.15 419.45 143.41
  C 417.08 145.17 415.49 143.55 415.87 141.12
  Q 416.45 137.41 417.14 134.14
  A 1.42 1.40 -73.6 0 0 416.28 132.54
  Q 412.72 131.13 410.12 129.64
  A 2.00 1.91 28.8 0 1 409.30 127.04
  C 410.35 125.05 415.27 125.26 418.02 125.16
  A 1.15 1.15 0.0 0 0 419.10 124.27
  L 420.98 116.16
  A 1.47 1.45 -78.0 0 1 422.67 115.05
  C 424.76 115.44 425.99 119.03 427.67 122.25
  A 1.04 1.01 -10.0 0 0 428.48 122.80
  Q 432.22 123.23 435.59 122.28
  Z"
/>
<path fill="#fed172" d="
  M 926.49 130.48
  Q 928.31 131.36 931.08 131.14
  A 1.21 1.20 -1.3 0 1 932.38 132.37
  C 932.32 134.76 929.30 136.61 927.67 138.06
  A 3.47 3.45 61.0 0 0 926.65 141.64
  L 928.78 148.74
  A 0.18 0.17 42.1 0 1 928.79 148.84
  Q 928.70 151.32 926.49 151.30
  Q 923.34 149.87 921.38 148.12
  Q 921.15 147.91 918.23 147.28
  A 0.97 0.93 27.6 0 0 917.35 147.54
  C 915.47 149.51 912.39 153.23 910.25 152.97
  A 2.34 2.00 -84.2 0 1 908.52 150.48
  Q 908.78 147.39 909.80 142.72
  A 1.31 1.29 17.1 0 0 909.00 141.23
  Q 905.34 139.78 903.30 138.65
  A 3.10 2.97 18.9 0 1 901.72 135.60
  Q 901.95 134.01 904.21 133.68
  Q 907.79 133.15 911.23 133.27
  A 1.02 1.01 -84.5 0 0 912.26 132.41
  Q 912.89 128.30 913.73 125.25
  C 914.32 123.11 916.66 122.22 917.99 124.34
  C 919.30 126.43 919.93 128.68 920.73 130.77
  A 1.38 1.38 0.0 0 0 921.70 131.62
  Q 925.42 132.49 926.49 130.48
  Z"
/>
<path fill="#fff2d9" d="
  M 435.16 129.50
  L 435.14 137.02
  Q 433.09 135.08 433.05 131.98
  A 1.71 1.70 60.7 0 1 433.31 131.04
  Q 434.02 129.93 435.16 129.50
  Z"
/>
<path fill="#fed172" d="
  M 577.71 222.75
  Q 575.92 221.28 577.44 220.05
  L 585.67 217.33
  A 1.68 1.67 83.0 0 0 586.81 215.86
  Q 587.00 213.01 587.35 208.42
  A 1.75 1.61 -81.5 0 1 589.34 206.82
  C 591.28 207.28 593.52 211.39 594.74 213.43
  A 1.48 1.47 -24.3 0 0 596.46 214.08
  C 600.00 212.94 602.87 211.74 605.47 212.33
  A 1.09 1.08 10.4 0 1 606.31 213.54
  Q 606.09 215.12 605.42 215.94
  Q 603.42 218.35 601.37 221.40
  A 1.39 1.39 0.0 0 0 601.36 222.93
  Q 603.53 226.22 604.71 228.53
  Q 605.53 230.15 605.47 230.83
  A 1.55 1.54 -78.6 0 1 603.44 232.18
  L 595.16 229.41
  A 0.87 0.86 -59.9 0 0 594.24 229.66
  Q 594.20 229.70 589.93 234.89
  Q 588.69 236.39 587.30 236.51
  A 1.56 1.56 0.0 0 1 585.60 234.79
  L 586.50 226.53
  A 0.92 0.92 0.0 0 0 585.88 225.55
  L 577.71 222.75
  Z"
/>
<path fill="#fed172" d="
  M 786.85 244.19
  Q 786.86 243.94 786.45 243.90
  A 0.79 0.79 0.0 0 0 786.10 243.94
  Q 784.71 244.48 783.39 244.31
  A 2.03 1.48 -79.8 0 1 782.25 241.96
  C 782.64 240.11 784.87 235.36 784.12 233.09
  A 1.69 1.66 -81.7 0 0 783.53 232.28
  C 781.60 230.87 778.16 228.48 778.25 226.46
  A 2.08 2.01 7.2 0 1 780.75 224.59
  Q 784.42 225.36 787.14 224.73
  Q 787.74 225.66 788.66 224.90
  Q 789.27 224.39 789.61 223.41
  C 790.55 220.69 791.44 216.83 793.46 216.49
  A 1.80 1.78 75.3 0 1 795.43 217.65
  Q 796.70 221.14 797.55 224.90
  A 1.01 1.00 85.0 0 0 798.47 225.68
  Q 803.97 225.91 806.24 226.23
  Q 807.48 226.41 807.79 227.13
  A 2.40 2.37 -29.2 0 1 806.95 230.02
  Q 806.16 230.57 801.59 233.38
  A 2.56 2.56 0.0 0 0 800.43 236.07
  L 802.03 243.85
  A 1.45 1.44 88.3 0 1 800.41 245.57
  C 797.95 245.23 795.86 242.96 794.07 240.92
  A 2.10 2.09 -25.1 0 0 792.17 240.24
  Q 788.36 240.84 786.85 244.19
  Z"
/>
<path fill="#fed172" d="
  M 296.25 245.17
  L 292.69 246.75
  A 1.35 1.35 0.0 0 1 290.80 245.37
  L 291.69 237.14
  A 2.15 2.15 0.0 0 0 290.22 234.86
  C 288.48 234.29 284.17 232.46 283.67 230.52
  A 1.73 1.65 -11.0 0 1 285.13 228.47
  Q 288.59 227.98 291.97 227.53
  A 1.83 1.83 0.0 0 0 293.55 225.75
  Q 293.62 221.11 296.25 216.79
  Q 300.11 219.56 301.84 225.13
  A 0.98 0.97 75.8 0 0 302.96 225.80
  Q 309.52 224.50 310.74 224.45
  Q 311.67 224.42 312.06 224.62
  A 1.70 1.64 -58.7 0 1 312.61 227.07
  Q 310.46 230.15 307.59 232.87
  A 1.16 1.15 -32.9 0 0 307.31 234.16
  L 310.57 242.10
  A 1.61 1.60 -16.8 0 1 309.39 244.29
  Q 308.41 244.48 306.87 243.71
  Q 302.82 241.68 300.26 240.88
  A 1.21 1.21 0.0 0 0 299.04 241.18
  Q 297.26 242.97 296.25 245.17
  Z"
/>
<path fill="#fed172" d="
  M 1002.67 308.74
  A 1.72 1.72 0.0 0 1 1000.22 310.01
  L 992.73 306.36
  A 1.37 1.35 -55.4 0 0 991.14 306.66
  Q 987.18 310.92 985.82 312.21
  A 1.86 1.71 -39.6 0 1 983.11 312.07
  Q 982.54 311.25 982.74 309.49
  Q 982.87 308.34 983.68 302.96
  A 2.17 2.16 -78.2 0 0 982.10 300.54
  Q 979.63 299.87 976.62 297.83
  Q 975.65 297.17 975.93 294.86
  A 0.99 0.98 83.2 0 1 976.56 294.05
  Q 979.93 292.75 983.70 292.68
  A 1.24 1.24 0.0 0 0 984.92 291.47
  Q 985.04 286.83 986.17 283.16
  A 2.11 2.11 0.0 0 1 988.41 281.70
  C 990.89 281.98 992.95 287.47 993.62 289.55
  A 1.36 1.36 0.0 0 0 995.22 290.46
  C 997.93 289.82 1002.28 288.57 1003.96 289.36
  A 1.94 1.83 -61.5 0 1 1004.68 292.09
  Q 1002.87 295.01 999.83 297.24
  A 1.90 1.90 0.0 0 0 999.26 299.62
  C 1000.82 302.69 1003.09 306.19 1002.67 308.74
  Z"
/>
<path fill="#fed172" d="
  M 671.68 361.47
  Q 673.00 364.50 671.80 366.16
  L 662.83 365.15
  A 1.15 1.15 0.0 0 0 661.63 365.86
  Q 660.50 368.59 658.25 372.75
  Q 657.64 373.89 656.54 374.15
  A 2.06 1.93 75.9 0 1 654.19 372.64
  Q 653.63 370.51 652.93 365.67
  A 1.94 1.94 0.0 0 0 651.21 364.01
  C 648.79 363.76 644.37 363.45 643.14 362.20
  A 1.58 1.58 0.0 0 1 643.49 359.73
  Q 646.13 358.22 649.94 355.87
  A 1.70 1.69 -22.8 0 0 650.70 354.02
  Q 649.93 350.94 649.49 347.52
  Q 649.32 346.13 649.58 345.65
  A 1.86 1.56 34.8 0 1 652.19 345.41
  Q 654.75 347.47 656.80 349.30
  Q 658.22 350.58 659.96 350.54
  A 1.62 1.57 -60.9 0 0 660.83 350.28
  L 666.52 346.62
  A 1.67 1.67 0.0 0 1 669.09 348.01
  C 669.11 350.30 667.94 352.55 666.65 355.60
  A 2.65 2.63 41.8 0 0 666.79 357.94
  Q 668.96 361.70 671.68 361.47
  Z"
/>
<path fill="#fed172" d="
  M 154.43 363.32
  Q 154.46 364.06 155.26 364.13
  Q 155.80 364.18 156.51 363.85
  Q 160.01 362.21 162.81 361.63
  A 1.96 1.78 -13.2 0 1 165.07 362.89
  C 165.55 364.72 162.93 367.71 160.86 370.61
  A 2.42 2.41 43.5 0 0 160.94 373.50
  C 162.91 376.00 165.94 379.22 165.42 381.10
  A 1.79 1.78 -72.5 0 1 163.10 382.32
  Q 158.39 380.62 154.55 380.53
  Q 152.38 382.56 149.84 386.58
  Q 148.92 388.03 146.97 387.46
  A 1.02 1.02 0.0 0 1 146.27 386.75
  C 145.49 383.91 145.75 381.34 145.95 377.99
  A 1.47 1.47 0.0 0 0 144.74 376.45
  Q 141.10 375.82 137.74 374.56
  A 2.33 1.98 22.1 0 1 136.28 371.75
  C 137.04 370.07 141.75 368.99 144.30 368.38
  A 1.52 1.51 -6.8 0 0 145.46 366.91
  L 145.46 358.65
  A 1.54 1.51 -18.3 0 1 146.09 357.42
  C 149.81 354.69 151.36 364.14 154.43 363.32
  Z"
/>
<path fill="#fed172" d="
  M 926.57 369.49
  L 931.25 369.69
  A 1.24 1.24 0.0 0 1 932.43 370.75
  C 932.70 372.67 930.03 374.75 927.67 377.08
  A 2.38 2.37 63.0 0 0 926.99 379.18
  Q 927.62 383.04 929.05 386.45
  A 2.57 2.55 58.3 0 1 928.37 389.38
  Q 927.70 389.96 926.55 389.77
  Q 923.67 387.31 919.83 385.89
  A 2.39 2.38 -58.4 0 0 917.24 386.51
  Q 916.39 387.42 913.13 390.59
  Q 911.72 391.96 910.33 391.51
  A 2.08 1.96 -76.7 0 1 909.02 389.24
  Q 910.32 381.10 910.33 381.00
  A 1.26 1.26 0.0 0 0 909.59 379.69
  C 906.78 378.45 902.32 377.09 902.38 374.59
  A 2.06 1.88 -5.9 0 1 904.00 372.77
  Q 906.61 372.21 910.90 371.95
  A 1.85 1.84 2.3 0 0 912.62 370.37
  Q 913.14 366.61 913.82 364.27
  C 914.41 362.25 915.23 361.11 917.28 362.26
  A 1.35 1.32 2.6 0 1 917.83 362.85
  L 921.23 369.77
  A 0.65 0.63 -5.4 0 0 921.67 370.12
  Q 924.24 370.64 926.57 369.49
  Z"
/>
<path fill="#fed172" d="
  M 435.60 370.81
  L 438.37 371.64
  A 1.23 1.22 -2.6 0 1 439.15 372.35
  C 439.73 373.74 439.06 374.88 437.89 375.91
  Q 436.45 377.18 435.43 378.80
  Q 434.42 379.38 433.68 380.32
  A 1.54 1.52 -26.7 0 0 433.37 381.24
  Q 433.33 384.35 435.40 385.79
  L 435.66 391.44
  Q 431.16 390.70 426.96 387.84
  A 1.78 1.77 38.5 0 0 424.65 388.10
  Q 421.94 391.06 419.53 393.14
  Q 418.10 394.37 416.59 392.86
  A 0.76 0.75 25.1 0 1 416.37 392.26
  L 417.31 383.67
  A 1.89 1.89 0.0 0 0 416.12 381.70
  C 413.18 380.56 409.22 379.40 409.30 377.21
  A 2.61 2.41 -4.8 0 1 411.41 374.91
  Q 413.79 374.47 418.37 374.26
  A 1.43 1.43 0.0 0 0 419.68 373.22
  Q 419.93 372.34 421.53 365.28
  A 1.47 1.37 8.8 0 1 423.09 364.22
  C 424.85 364.39 426.34 368.28 427.96 371.43
  A 1.43 1.41 76.7 0 0 429.18 372.19
  Q 431.40 372.24 433.50 372.13
  Q 435.69 372.01 435.60 370.81
  Z"
/>
<path fill="#fff2d9" d="
  M 435.43 378.80
  L 435.40 385.79
  Q 433.33 384.35 433.37 381.24
  A 1.54 1.52 -26.7 0 1 433.68 380.32
  Q 434.42 379.38 435.43 378.80
  Z"
/>
<path fill="#fed172" d="
  M 577.86 476.57
  Q 576.29 475.15 577.66 473.41
  L 585.94 471.40
  A 1.80 1.80 0.0 0 0 587.31 469.69
  Q 587.39 466.30 587.74 463.26
  Q 587.93 461.66 587.94 461.65
  A 1.94 1.93 -46.0 0 1 591.14 461.59
  L 595.39 467.60
  A 1.41 1.39 65.0 0 0 596.88 468.15
  Q 600.06 467.32 603.48 466.70
  Q 605.00 466.43 605.96 466.99
  A 1.60 1.41 -56.8 0 1 606.28 469.18
  Q 604.87 471.19 602.15 474.30
  A 3.01 3.00 -37.4 0 0 601.71 477.59
  L 605.14 484.58
  A 1.41 1.41 0.0 0 1 603.43 486.54
  L 595.13 483.76
  A 1.48 1.47 -62.3 0 0 593.48 484.28
  C 591.83 486.46 589.86 489.20 587.61 490.20
  A 1.51 1.51 0.0 0 1 585.50 488.65
  L 586.34 480.93
  A 1.29 1.28 13.9 0 0 585.53 479.59
  L 577.86 476.57
  Z"
/>
<path fill="#fed172" d="
  M 296.18 470.52
  Q 299.44 473.92 301.58 478.21
  A 1.37 1.36 70.8 0 0 303.07 478.94
  Q 306.48 478.25 310.24 477.70
  Q 311.76 477.48 312.15 477.77
  A 2.26 2.08 -51.8 0 1 312.39 480.89
  Q 309.33 484.62 307.84 486.55
  A 2.04 2.03 45.8 0 0 307.81 488.98
  Q 310.39 492.53 311.03 495.72
  A 1.65 1.65 0.0 0 1 308.89 497.61
  L 300.87 494.93
  A 1.04 1.04 0.0 0 0 299.72 495.28
  L 296.24 499.77
  L 293.12 501.01
  A 0.93 0.92 -34.9 0 1 292.15 500.84
  C 289.37 498.38 294.66 490.81 290.52 488.72
  Q 286.96 486.92 285.67 486.10
  Q 284.47 485.35 284.24 484.55
  A 1.79 1.65 -11.4 0 1 285.76 482.45
  Q 290.80 481.74 292.02 481.46
  A 1.95 1.95 0.0 0 0 293.45 480.07
  C 293.78 478.86 293.89 472.36 296.18 470.52
  Z"
/>
<path fill="#fed172" d="
  M 974.77 553.01
  L 974.96 550.79
  L 983.45 548.63
  A 1.86 1.84 84.7 0 0 984.84 546.94
  Q 985.01 543.87 985.58 540.13
  Q 985.84 538.40 986.44 538.05
  A 1.91 1.78 -30.4 0 1 989.00 538.62
  Q 991.24 542.46 992.77 545.39
  A 1.13 1.13 0.0 0 0 994.08 545.96
  C 998.14 544.82 999.42 544.21 1002.31 544.32
  A 1.72 1.66 -6.0 0 1 1003.91 545.57
  C 1004.51 547.85 1000.69 550.64 999.11 552.32
  A 2.78 2.77 54.9 0 0 998.59 555.33
  Q 999.32 557.02 1001.73 561.21
  Q 1003.38 564.10 1001.57 565.30
  A 1.27 1.26 -48.5 0 1 1000.33 565.38
  L 993.10 561.85
  A 2.08 2.07 35.3 0 0 990.73 562.25
  L 984.96 568.02
  A 1.00 0.99 23.7 0 1 984.21 568.31
  Q 982.16 568.20 982.38 564.74
  Q 982.63 560.86 982.81 558.70
  A 1.69 1.68 17.5 0 0 981.96 557.08
  L 974.77 553.01
  Z"
/>
<path fill="#fed172" d="
  M 648.44 601.85
  A 1.61 1.61 0.0 0 1 651.00 601.57
  L 656.00 606.91
  A 2.42 2.41 -33.1 0 0 658.73 607.48
  Q 662.96 605.67 665.01 604.93
  A 2.00 1.81 -24.0 0 1 667.36 605.70
  C 668.56 607.88 664.99 612.08 663.80 613.89
  A 2.46 2.44 -26.9 0 0 663.41 615.07
  Q 663.33 616.67 664.63 617.90
  Q 667.16 620.29 668.17 623.23
  A 1.56 1.56 0.0 0 1 666.20 625.22
  L 659.13 622.85
  A 1.86 1.85 19.6 0 0 656.81 623.95
  C 656.02 626.00 653.36 630.46 650.83 630.99
  A 1.48 1.48 0.0 0 1 649.04 629.54
  L 649.04 622.39
  A 2.00 1.98 -83.4 0 0 647.51 620.45
  C 644.82 619.80 640.57 619.05 639.49 617.13
  A 1.70 1.53 -27.8 0 1 640.30 614.92
  Q 641.88 614.14 647.32 611.81
  A 1.77 1.76 -12.9 0 0 648.40 610.10
  Q 648.14 604.69 648.30 603.01
  Q 648.40 601.91 648.44 601.85
  Z"
/>
<path fill="#fed172" d="
  M 155.10 611.91
  Q 155.10 615.54 158.24 614.86
  Q 160.70 614.33 165.03 613.62
  A 1.66 1.61 -8.5 0 1 166.94 614.99
  C 167.22 617.14 164.10 620.11 162.35 622.11
  A 2.37 2.37 0.0 0 0 162.01 624.72
  L 165.26 631.35
  A 1.78 1.78 0.0 0 1 163.95 633.89
  Q 162.47 634.14 160.58 632.85
  Q 156.69 630.18 154.43 630.77
  Q 151.70 632.58 149.66 635.43
  C 148.73 636.74 147.60 637.60 146.12 636.95
  A 2.68 2.38 -75.4 0 1 144.73 634.22
  Q 144.95 632.61 146.20 627.17
  A 1.41 1.40 -72.4 0 0 145.36 625.54
  Q 145.32 625.52 138.62 622.97
  A 2.58 2.56 -71.5 0 1 137.08 619.86
  C 137.52 618.35 142.16 617.94 145.85 617.25
  A 1.64 1.63 87.9 0 0 147.18 615.81
  Q 147.47 613.11 148.18 609.47
  Q 148.49 607.94 149.27 607.39
  A 1.43 1.42 -28.9 0 1 151.40 607.99
  Q 152.97 611.71 155.10 611.91
  Z"
/>
<path fill="#fed172" d="
  M 435.94 628.98
  Q 437.54 628.86 438.79 629.77
  A 1.00 0.99 18.0 0 1 439.21 630.58
  Q 439.23 632.42 437.92 633.66
  Q 436.65 634.86 435.73 636.02
  Q 432.50 636.73 433.83 640.81
  Q 434.22 642.03 435.30 647.94
  A 1.25 1.25 0.0 0 1 433.45 649.25
  L 426.95 645.49
  A 2.26 2.25 40.4 0 0 424.41 645.69
  C 423.09 646.77 420.00 650.35 418.02 650.61
  A 1.78 1.78 0.0 0 1 416.02 648.88
  Q 415.95 644.81 417.20 640.86
  A 1.11 1.11 0.0 0 0 416.64 639.53
  Q 411.62 637.00 410.18 636.23
  A 2.16 2.16 0.0 0 1 409.21 633.46
  C 410.11 631.42 414.79 631.55 418.66 631.26
  A 1.54 1.53 5.3 0 0 420.03 630.13
  Q 421.16 625.94 421.83 622.88
  Q 421.93 622.39 422.13 622.17
  A 1.57 1.57 0.0 0 1 424.76 622.41
  L 428.33 629.23
  A 0.69 0.68 -9.0 0 0 428.85 629.60
  Q 432.73 630.11 435.94 628.98
  Z"
/>
<path fill="#fed172" d="
  M 926.28 634.16
  Q 928.42 634.07 930.74 634.03
  Q 931.41 634.01 931.50 634.11
  A 2.34 2.15 -46.2 0 1 931.44 637.00
  C 929.91 638.86 925.89 641.18 926.73 644.76
  Q 927.73 649.03 928.41 650.88
  A 1.76 1.68 41.2 0 1 928.49 651.77
  Q 928.19 653.53 926.58 654.53
  L 919.22 650.21
  A 1.68 1.68 0.0 0 0 917.08 650.59
  Q 915.77 652.17 912.63 655.09
  Q 911.12 656.50 909.70 656.10
  A 2.36 2.07 -78.1 0 1 908.26 653.54
  Q 908.75 650.35 909.76 645.66
  A 1.01 1.01 0.0 0 0 909.21 644.52
  C 905.70 642.80 902.21 641.75 901.78 639.71
  A 1.95 1.90 77.9 0 1 903.22 637.41
  Q 906.09 636.78 910.43 636.65
  A 1.73 1.72 5.6 0 0 912.06 635.32
  L 913.88 627.48
  A 1.78 1.78 0.0 0 1 917.22 627.10
  L 920.51 633.80
  A 1.46 1.45 78.9 0 0 921.71 634.61
  Q 923.84 634.76 926.28 634.16
  Z"
/>
<path fill="#fed172" d="
  M 577.96 731.55
  Q 576.93 729.90 577.74 728.87
  L 586.18 725.85
  A 1.22 1.21 79.9 0 0 586.98 724.69
  C 586.93 722.19 586.60 718.59 587.25 716.14
  Q 587.59 714.87 588.42 714.74
  C 591.15 714.29 594.30 720.53 595.14 721.62
  A 0.98 0.98 0.0 0 0 596.00 721.99
  C 598.71 721.76 601.75 719.78 605.51 720.00
  A 0.68 0.68 0.0 0 1 606.16 720.66
  C 606.29 723.51 603.44 726.84 601.99 728.88
  A 2.02 2.02 0.0 0 0 601.91 731.11
  C 603.92 734.39 606.01 737.34 605.94 738.56
  A 1.61 1.61 0.0 0 1 603.80 740.00
  L 595.81 737.22
  A 1.00 1.00 0.0 0 0 594.60 737.68
  Q 592.55 741.39 590.04 744.12
  A 1.70 1.59 -48.9 0 1 587.79 744.35
  C 586.07 742.93 586.73 737.40 586.87 735.16
  A 1.19 1.19 0.0 0 0 586.02 733.94
  L 577.96 731.55
  Z"
/>
<path fill="#fed172" d="
  M 787.08 751.57
  L 783.92 752.49
  A 1.29 1.29 0.0 0 1 782.30 750.96
  L 784.21 742.75
  A 2.78 2.77 27.1 0 0 783.32 740.02
  Q 780.16 737.31 778.58 735.94
  Q 778.11 735.53 777.91 734.75
  A 1.41 1.40 -12.6 0 1 779.00 733.04
  Q 782.06 732.44 785.42 733.00
  A 1.17 1.17 0.0 0 0 786.27 732.82
  L 787.07 732.27
  Q 788.03 733.03 788.61 731.60
  C 789.60 729.17 790.02 726.00 791.95 724.09
  A 1.79 1.79 0.0 0 1 794.96 725.00
  L 796.52 732.64
  A 1.33 1.31 81.8 0 0 797.91 733.69
  Q 802.36 733.34 805.40 733.64
  C 808.61 733.96 808.52 736.57 806.39 738.16
  Q 806.12 738.36 800.99 741.64
  A 1.25 1.24 68.0 0 0 800.44 742.95
  L 802.18 751.47
  A 1.46 1.46 0.0 0 1 800.18 753.11
  Q 796.28 751.46 793.34 748.60
  A 1.40 1.39 -33.6 0 0 791.84 748.30
  Q 788.71 749.54 787.08 751.57
  Z"
/>
<path fill="#fed172" d="
  M 296.31 754.32
  L 292.79 755.80
  A 1.17 1.17 0.0 0 1 291.17 754.67
  Q 291.30 751.05 291.85 747.89
  C 292.18 746.02 291.98 744.67 290.09 743.73
  Q 285.23 741.33 285.06 741.22
  A 2.23 2.10 24.4 0 1 284.07 738.80
  C 284.59 736.94 288.41 736.94 291.74 736.56
  A 2.16 2.15 -87.6 0 0 293.60 734.84
  C 294.03 732.71 294.22 728.21 296.32 725.63
  Q 299.57 728.88 301.60 733.42
  A 1.28 1.26 -19.5 0 0 303.09 734.12
  Q 306.64 733.17 310.25 732.80
  Q 311.62 732.66 311.99 732.83
  A 2.11 1.89 -55.3 0 1 312.40 736.07
  Q 309.33 739.32 307.58 741.91
  A 1.67 1.66 48.1 0 0 307.49 743.65
  Q 309.86 748.03 310.38 749.56
  Q 311.02 751.45 310.85 752.00
  A 1.80 1.80 0.0 0 1 308.35 753.06
  C 305.21 751.53 302.40 749.73 299.98 749.94
  A 1.50 1.47 21.4 0 0 299.11 750.31
  Q 297.25 752.00 296.31 754.32
  Z"
/>
<path fill="#fed172" d="
  M 975.00 805.36
  Q 975.19 805.01 975.26 804.24
  C 977.87 801.81 980.93 802.44 984.00 802.39
  A 1.20 1.19 5.9 0 0 985.14 801.47
  L 986.99 793.50
  A 1.83 1.83 0.0 0 1 988.63 792.10
  Q 990.56 791.95 991.32 793.43
  Q 992.62 795.96 994.29 800.28
  A 1.03 1.02 75.8 0 0 995.37 800.93
  Q 1000.38 800.30 1002.00 800.33
  Q 1003.80 800.36 1004.43 800.79
  A 2.29 2.14 -54.1 0 1 1004.83 803.97
  Q 1003.01 806.34 999.88 808.42
  A 2.04 2.04 0.0 0 0 999.07 810.73
  C 999.70 812.76 1001.94 817.14 1001.59 820.05
  A 1.42 1.42 0.0 0 1 999.47 821.11
  L 992.15 816.88
  A 1.69 1.68 38.7 0 0 990.19 817.09
  L 984.83 821.93
  A 1.85 1.84 -22.4 0 1 981.75 820.65
  Q 981.71 819.80 982.70 816.28
  Q 983.37 813.93 982.81 810.96
  A 1.07 1.05 7.1 0 0 982.19 810.18
  Q 978.38 808.52 975.00 805.36
  Z"
/>
<path fill="#fed172" d="
  M 671.48 872.38
  L 673.35 875.61
  A 1.35 1.34 -54.9 0 1 673.51 876.53
  Q 673.26 877.93 671.91 877.83
  L 663.50 876.77
  A 1.13 1.12 15.6 0 0 662.32 877.43
  Q 660.74 881.04 659.26 884.52
  A 2.04 1.91 -67.9 0 1 656.77 885.67
  C 654.93 884.96 654.74 880.56 654.23 877.08
  A 2.02 2.01 87.1 0 0 652.32 875.35
  Q 647.84 875.17 645.35 874.42
  Q 644.67 874.22 644.26 873.67
  A 1.63 1.61 -34.0 0 1 644.73 871.34
  Q 645.81 870.67 651.02 867.69
  A 2.23 2.22 -19.6 0 0 652.11 865.40
  L 650.96 858.35
  A 1.65 1.64 1.9 0 1 652.97 856.48
  C 654.83 856.92 657.57 859.95 659.27 861.60
  A 2.19 2.18 -40.3 0 0 662.04 861.82
  Q 664.58 860.04 666.93 858.63
  A 2.40 2.11 -30.2 0 1 670.11 859.25
  C 671.34 861.46 667.21 866.07 667.78 868.73
  Q 668.29 871.14 671.48 872.38
  Z"
/>
<path fill="#fed172" d="
  M 154.49 883.18
  Q 154.81 884.14 155.41 884.90
  A 0.72 0.71 65.2 0 0 156.10 885.16
  L 164.56 883.42
  A 1.39 1.38 -1.9 0 1 166.21 884.96
  C 165.83 887.69 163.04 890.23 161.60 892.18
  A 2.03 2.02 -41.7 0 0 161.47 894.38
  L 165.34 901.07
  A 1.72 1.72 0.0 0 1 163.43 903.60
  Q 159.34 902.56 155.98 900.98
  Q 155.08 900.56 154.46 901.64
  Q 151.77 904.05 149.49 907.02
  Q 148.65 908.11 147.69 908.09
  A 2.16 2.07 89.8 0 1 145.65 905.97
  Q 145.60 902.88 146.49 898.46
  A 1.86 1.86 0.0 0 0 145.14 896.29
  C 141.71 895.39 138.26 894.99 137.03 892.75
  A 1.90 1.61 -22.8 0 1 138.25 890.35
  Q 142.39 888.96 146.25 888.27
  A 0.83 0.83 0.0 0 0 146.93 887.44
  Q 146.89 883.99 146.95 880.76
  C 146.99 878.63 147.62 877.24 149.88 877.84
  A 0.98 0.97 85.2 0 1 150.51 878.38
  Q 151.91 881.43 154.49 883.18
  Z"
/>
<path fill="#fed172" d="
  M 435.55 885.65
  Q 437.12 885.42 437.88 885.69
  A 2.11 2.10 -51.6 0 1 438.31 889.45
  Q 436.10 890.86 435.28 892.98
  Q 433.16 892.62 433.23 895.75
  Q 433.29 898.68 435.37 900.41
  Q 435.91 902.63 435.55 905.79
  Q 431.35 904.97 428.02 902.48
  C 423.85 899.36 421.94 907.59 417.75 907.28
  A 1.77 1.61 -85.5 0 1 416.27 905.37
  Q 416.58 902.00 417.61 897.24
  A 1.34 1.34 0.0 0 0 416.88 895.74
  L 410.49 892.62
  A 1.27 1.26 -87.7 0 1 409.84 891.91
  C 408.95 889.59 410.21 888.98 412.35 888.62
  Q 414.12 888.32 418.06 888.04
  A 1.88 1.88 0.0 0 0 419.77 886.49
  L 420.99 879.29
  A 1.70 1.69 74.8 0 1 421.59 878.24
  C 422.63 877.36 424.13 878.15 424.84 879.29
  Q 426.56 882.04 427.63 885.28
  A 1.34 1.34 0.0 0 0 429.02 886.20
  L 435.55 885.65
  Z"
/>
<path fill="#fed172" d="
  M 926.55 893.12
  Q 928.33 893.14 930.39 893.46
  A 1.59 1.58 5.9 0 1 931.72 895.09
  C 931.62 897.28 928.11 900.06 926.87 901.39
  A 2.68 2.66 56.3 0 0 926.33 904.16
  C 927.12 906.26 928.61 909.47 928.39 911.75
  Q 928.21 913.68 926.62 913.45
  L 920.03 909.96
  A 2.64 2.63 30.4 0 0 916.59 910.85
  Q 914.35 914.28 911.01 915.52
  A 1.74 1.74 0.0 0 1 908.67 913.70
  L 909.58 905.45
  A 1.25 1.24 -78.1 0 0 908.73 904.14
  Q 905.54 903.10 902.22 901.01
  C 900.63 900.01 901.09 897.45 903.07 897.07
  Q 907.36 896.24 910.62 895.92
  A 1.42 1.42 0.0 0 0 911.89 894.74
  Q 912.49 891.20 913.30 887.81
  Q 913.61 886.52 914.11 886.14
  A 2.21 2.20 -32.8 0 1 917.36 886.84
  Q 919.15 890.09 920.41 893.46
  A 1.05 1.03 86.9 0 0 921.09 894.08
  Q 924.71 895.09 926.55 893.12
  Z"
/>
<path fill="#fff2d9" d="
  M 435.28 892.98
  L 435.37 900.41
  Q 433.29 898.68 433.23 895.75
  Q 433.16 892.62 435.28 892.98
  Z"
/>
<path fill="#fed172" d="
  M 60.60 974.75
  Q 62.55 974.75 64.72 974.11
  A 1.93 1.91 -9.0 0 1 67.20 975.89
  C 67.24 978.08 62.95 981.80 62.18 983.19
  A 3.36 3.36 0.0 0 0 62.26 986.58
  C 64.15 989.65 65.57 991.41 65.44 993.17
  A 1.64 1.64 0.0 0 1 63.12 994.54
  L 60.39 993.27
  Q 58.16 991.89 54.86 991.40
  A 1.49 1.49 0.0 0 0 53.41 992.03
  C 51.74 994.45 49.00 998.91 46.40 998.09
  A 1.79 1.73 -79.4 0 1 45.19 996.26
  Q 45.50 992.41 46.36 987.73
  A 1.09 1.08 -80.6 0 0 45.46 986.47
  Q 41.31 985.81 37.83 983.58
  A 1.47 1.45 -80.7 0 1 37.22 982.72
  C 36.39 979.39 43.04 979.10 45.56 978.84
  A 1.26 1.26 0.0 0 0 46.68 977.72
  L 47.61 969.19
  A 1.48 1.47 78.9 0 1 48.38 968.04
  C 51.93 966.08 54.11 971.83 55.29 974.79
  A 1.10 1.10 0.0 0 0 55.98 975.44
  Q 58.53 976.30 60.60 974.75
  Z"
/>
<path fill="#fed172" d="
  M 578.12 987.60
  Q 576.54 985.80 578.12 983.60
  L 586.12 982.13
  A 1.03 1.02 85.3 0 0 586.96 981.13
  Q 586.99 977.90 587.53 973.45
  C 587.81 971.06 589.89 970.00 591.55 972.22
  Q 593.10 974.30 594.80 977.98
  A 1.86 1.85 70.3 0 0 596.95 979.00
  Q 601.77 977.77 604.77 977.49
  A 1.90 1.71 1.2 0 1 606.85 979.45
  C 606.58 981.14 603.14 984.35 601.81 985.67
  A 1.82 1.80 54.7 0 0 601.46 987.75
  C 602.16 989.21 605.12 993.76 605.21 995.93
  A 1.30 1.30 0.0 0 1 603.50 997.22
  L 594.99 994.37
  A 1.28 1.28 0.0 0 0 593.46 994.97
  Q 591.53 998.50 588.22 1001.04
  A 1.72 1.62 -36.2 0 1 585.81 1000.74
  C 584.50 998.82 585.57 994.31 586.04 991.18
  A 0.90 0.90 0.0 0 0 585.45 990.20
  L 578.12 987.60
  Z"
/>
<path fill="#fed172" d="
  M 296.43 981.61
  Q 300.10 984.95 301.46 989.35
  A 1.24 1.23 -16.2 0 0 302.97 990.18
  Q 307.47 988.97 310.05 988.61
  Q 311.44 988.42 312.05 989.03
  A 2.05 1.92 -47.7 0 1 312.09 991.73
  Q 308.35 996.16 307.06 997.74
  A 1.08 1.07 -41.6 0 0 306.98 998.99
  Q 309.17 1002.49 310.28 1005.22
  Q 311.59 1008.46 309.00 1008.92
  A 1.47 1.41 50.6 0 1 308.16 1008.82
  L 300.80 1005.54
  A 1.49 1.48 27.7 0 0 298.93 1006.12
  L 296.54 1010.00
  Q 294.47 1010.28 292.62 1011.21
  A 1.09 1.08 -10.3 0 1 291.05 1010.13
  L 291.90 1002.35
  A 2.67 2.66 -74.9 0 0 290.35 999.64
  C 288.26 998.69 284.08 997.22 283.76 995.18
  A 1.84 1.69 -9.2 0 1 285.30 993.23
  Q 291.57 992.15 291.59 992.15
  A 2.58 2.58 0.0 0 0 293.68 989.80
  Q 293.97 985.77 295.28 982.34
  Q 295.72 981.20 296.43 981.61
  Z"
/>
</svg>
