<?xml version="1.0" encoding="UTF-8" standalone="no"?>
<!DOCTYPE svg PUBLIC "-//W3C//DTD SVG 1.1//EN" "http://www.w3.org/Graphics/SVG/1.1/DTD/svg11.dtd">
<svg xmlns="http://www.w3.org/2000/svg" version="1.1" viewBox="0.00 0.00 1024.00 1024.00">
<g stroke-width="2.00" fill="none" stroke-linecap="butt">
<path stroke="#eceea5" vector-effect="non-scaling-stroke" d="
  M 60.65 0.00
  L 0.00 59.04"
/>
<path stroke="#eceea5" vector-effect="non-scaling-stroke" d="
  M 230.63 0.00
  Q 174.20 55.46 118.29 110.53
  Q 65.96 162.08 13.38 213.37
  Q 4.20 222.32 0.00 226.01"
/>
<path stroke="#eceea5" vector-effect="non-scaling-stroke" d="
  M 310.74 0.00
  Q 251.53 57.78 192.35 116.34
  Q 182.48 126.11 170.10 138.10
  Q 158.92 148.93 147.89 159.89
  Q 146.20 161.57 2.60 303.36
  Q 0.77 305.17 0.00 306.60"
/>
<path stroke="#eceea5" vector-effect="non-scaling-stroke" d="
  M 485.37 0.00
  Q 473.17 12.54 460.80 24.53
  Q 438.26 46.38 438.18 46.45
  Q 399.65 84.33 363.44 119.94
  Q 349.83 133.33 285.84 195.83
  Q 242.79 237.89 208.42 271.91
  Q 139.83 339.81 22.98 454.48
  Q 11.72 465.54 0.00 476.54"
/>
<path stroke="#eceea5" vector-effect="non-scaling-stroke" d="
  M 565.14 0.00
  Q 531.49 32.96 497.44 66.19
  Q 439.97 122.28 418.55 143.55
  Q 340.99 220.59 262.71 297.39
  Q 221.75 337.59 208.48 350.80
  C 177.81 381.36 147.31 410.71 115.94 441.93
  Q 96.86 460.92 77.74 479.75
  Q 30.73 526.04 1.03 554.78
  Q 0.60 555.19 0.00 556.78"
/>
<path stroke="#eceea5" vector-effect="non-scaling-stroke" d="
  M 740.50 0.00
  Q 738.02 2.89 735.29 5.54
  Q 634.97 103.15 535.03 201.52
  Q 462.55 272.87 462.08 273.32
  Q 453.02 282.04 431.95 302.96
  Q 387.77 346.83 354.76 379.01
  Q 338.55 394.80 259.33 473.08
  Q 214.98 516.90 150.68 580.18
  Q 75.70 653.99 0.00 727.72"
/>
<path stroke="#eceea5" vector-effect="non-scaling-stroke" d="
  M 820.28 0.00
  Q 794.73 24.30 769.45 49.19
  Q 719.11 98.76 719.05 98.82
  Q 690.90 126.35 635.91 180.66
  Q 606.04 210.16 573.23 242.80
  C 545.37 270.52 513.26 301.80 488.67 325.92
  Q 458.15 355.83 427.72 385.97
  Q 405.96 407.51 405.36 408.11
  Q 393.56 419.79 354.77 458.02
  Q 275.30 536.31 228.73 582.38
  C 195.44 615.30 160.98 648.68 122.61 686.60
  Q 101.93 707.04 61.34 746.34
  Q 30.49 776.23 0.00 806.01"
/>
<path stroke="#eceea5" vector-effect="non-scaling-stroke" d="
  M 991.00 0.00
  Q 991.23 0.20 991.19 0.54
  Q 991.15 0.77 990.90 1.02
  Q 917.07 73.92 834.52 155.52
  Q 820.12 169.75 810.27 179.52
  Q 717.57 271.35 710.13 278.63
  Q 666.40 321.43 623.61 363.61
  Q 618.50 368.65 603.63 383.03
  C 598.05 388.43 592.25 394.67 586.90 399.66
  Q 581.13 405.05 574.28 412.04
  Q 569.32 417.11 545.87 440.12
  Q 484.64 500.23 424.36 559.62
  Q 420.46 563.46 418.35 565.60
  Q 405.03 579.07 379.43 604.18
  Q 355.91 627.24 289.36 692.96
  C 256.25 725.67 224.18 756.34 188.34 791.50
  Q 143.23 835.76 112.68 865.52
  Q 56.45 920.30 0.00 975.20"
/>
<path stroke="#eceea5" vector-effect="non-scaling-stroke" d="
  M 1024.00 48.50
  L 1023.69 47.84
  A 0.28 0.28 0.0 0 0 1023.24 47.76
  Q 967.16 103.08 738.12 329.12
  Q 732.36 334.80 725.42 341.67
  Q 645.02 421.12 560.95 503.96
  Q 482.46 581.30 481.23 582.48
  Q 476.88 586.64 465.05 598.46
  C 451.77 611.72 439.27 623.76 423.31 639.56
  Q 374.47 687.89 311.82 749.32
  Q 209.73 849.44 127.58 930.33
  Q 62.68 994.24 33.75 1022.13
  C 33.28 1022.58 32.59 1022.75 32.31 1023.00
  A 0.34 0.34 0.0 0 0 32.47 1023.59
  L 35.01 1024.00"
/>
<path stroke="#eceea5" vector-effect="non-scaling-stroke" d="
  M 1024.00 216.24
  L 1023.59 217.25
  A 3.07 3.04 79.0 0 1 1022.89 218.30
  C 967.18 273.22 893.20 346.72 818.65 420.00
  Q 736.11 501.13 685.34 551.34
  Q 678.00 558.59 671.89 564.64
  Q 619.64 616.24 568.73 666.48
  Q 399.77 833.23 393.44 839.44
  Q 358.75 873.52 324.72 907.22
  Q 266.47 964.92 207.78 1022.54
  Q 206.96 1023.34 205.30 1024.00"
/>
<path stroke="#eceea5" vector-effect="non-scaling-stroke" d="
  M 1024.00 296.75
  L 1023.80 296.40
  A 0.43 0.43 0.0 0 0 1023.13 296.31
  L 286.83 1023.36
  A 0.16 0.16 0.0 0 0 286.90 1023.62
  L 288.50 1024.00"
/>
<path stroke="#eceea5" vector-effect="non-scaling-stroke" d="
  M 1024.00 379.88
  Q 1023.65 380.80 1024.00 381.51"
/>
<path stroke="#eceea5" vector-effect="non-scaling-stroke" d="
  M 1024.00 465.42
  Q 1021.81 468.90 1015.90 474.65
  Q 957.28 531.75 824.57 663.57
  C 812.86 675.21 798.89 688.69 789.24 698.24
  Q 622.96 862.55 522.96 961.22
  Q 490.68 993.08 458.63 1024.00"
/>
<path stroke="#eceea5" vector-effect="non-scaling-stroke" d="
  M 1024.00 545.77
  Q 986.58 582.49 949.99 618.74
  Q 791.83 775.45 759.33 807.08
  Q 747.47 818.63 735.38 830.63
  Q 714.51 851.33 552.75 1010.77
  C 549.80 1013.68 547.71 1016.51 544.80 1018.77
  Q 543.28 1019.95 539.91 1023.15
  A 0.30 0.30 0.0 0 0 540.07 1023.66
  L 542.51 1024.00"
/>
<path stroke="#eceea5" vector-effect="non-scaling-stroke" d="
  M 1024.00 716.13
  Q 1023.50 717.37 1022.93 717.93
  Q 867.96 870.34 713.05 1022.81
  Q 712.33 1023.51 710.60 1024.00"
/>
<path stroke="#eceea5" vector-effect="non-scaling-stroke" d="
  M 1024.00 798.50
  L 1023.65 797.29
  A 0.36 0.36 0.0 0 0 1023.02 797.17
  Q 1022.85 797.39 1022.73 797.85
  A 1.15 1.12 75.9 0 1 1022.44 798.35
  L 794.06 1021.82
  A 0.57 0.21 -20.3 0 0 793.99 1021.88
  L 792.63 1023.03
  A 0.30 0.30 0.0 0 0 792.78 1023.56
  L 795.50 1024.00"
/>
<path stroke="#eceea5" vector-effect="non-scaling-stroke" d="
  M 1024.00 824.16
  L 1024.00 828.96"
/>
<path stroke="#eceea5" vector-effect="non-scaling-stroke" d="
  M 1024.00 848.16
  L 1024.00 852.71"
/>
<path stroke="#eceea5" vector-effect="non-scaling-stroke" d="
  M 1024.00 858.12
  Q 1023.68 858.94 1024.00 859.51"
/>
<path stroke="#eceea5" vector-effect="non-scaling-stroke" d="
  M 1024.00 884.12
  Q 1023.66 884.98 1024.00 885.50"
/>
<path stroke="#eceea5" vector-effect="non-scaling-stroke" d="
  M 1024.00 965.59
  L 964.94 1024.00"
/>
</g>
<path fill="#fbf3ca" d="
  M 60.65 0.00
  L 0.00 59.04
  L 0.00 0.00
  L 60.65 0.00
  Z"
/>
<path fill="#dce87f" d="
  M 230.63 0.00
  Q 174.20 55.46 118.29 110.53
  Q 65.96 162.08 13.38 213.37
  Q 4.20 222.32 0.00 226.01
  L 0.00 59.04
  L 60.65 0.00
  L 230.63 0.00
  Z"
/>
<path fill="#fbf3ca" d="
  M 310.74 0.00
  Q 251.53 57.78 192.35 116.34
  Q 182.48 126.11 170.10 138.10
  Q 158.92 148.93 147.89 159.89
  Q 146.20 161.57 2.60 303.36
  Q 0.77 305.17 0.00 306.60
  L 0.00 226.01
  Q 4.20 222.32 13.38 213.37
  Q 65.96 162.08 118.29 110.53
  Q 174.20 55.46 230.63 0.00
  L 310.74 0.00
  Z"
/>
<path fill="#dce87f" d="
  M 485.37 0.00
  Q 473.17 12.54 460.80 24.53
  Q 438.26 46.38 438.18 46.45
  Q 399.65 84.33 363.44 119.94
  Q 349.83 133.33 285.84 195.83
  Q 242.79 237.89 208.42 271.91
  Q 139.83 339.81 22.98 454.48
  Q 11.72 465.54 0.00 476.54
  L 0.00 306.60
  Q 0.77 305.17 2.60 303.36
  Q 146.20 161.57 147.89 159.89
  Q 158.92 148.93 170.10 138.10
  Q 182.48 126.11 192.35 116.34
  Q 251.53 57.78 310.74 0.00
  L 485.37 0.00
  Z"
/>
<path fill="#fbf3ca" d="
  M 565.14 0.00
  Q 531.49 32.96 497.44 66.19
  Q 439.97 122.28 418.55 143.55
  Q 340.99 220.59 262.71 297.39
  Q 221.75 337.59 208.48 350.80
  C 177.81 381.36 147.31 410.71 115.94 441.93
  Q 96.86 460.92 77.74 479.75
  Q 30.73 526.04 1.03 554.78
  Q 0.60 555.19 0.00 556.78
  L 0.00 476.54
  Q 11.72 465.54 22.98 454.48
  Q 139.83 339.81 208.42 271.91
  Q 242.79 237.89 285.84 195.83
  Q 349.83 133.33 363.44 119.94
  Q 399.65 84.33 438.18 46.45
  Q 438.26 46.38 460.80 24.53
  Q 473.17 12.54 485.37 0.00
  L 565.14 0.00
  Z"
/>
<path fill="#dce87f" d="
  M 740.50 0.00
  Q 738.02 2.89 735.29 5.54
  Q 634.97 103.15 535.03 201.52
  Q 462.55 272.87 462.08 273.32
  Q 453.02 282.04 431.95 302.96
  Q 387.77 346.83 354.76 379.01
  Q 338.55 394.80 259.33 473.08
  Q 214.98 516.90 150.68 580.18
  Q 75.70 653.99 0.00 727.72
  L 0.00 556.78
  Q 0.60 555.19 1.03 554.78
  Q 30.73 526.04 77.74 479.75
  Q 96.86 460.92 115.94 441.93
  C 147.31 410.71 177.81 381.36 208.48 350.80
  Q 221.75 337.59 262.71 297.39
  Q 340.99 220.59 418.55 143.55
  Q 439.97 122.28 497.44 66.19
  Q 531.49 32.96 565.14 0.00
  L 740.50 0.00
  Z"
/>
<path fill="#fbf3ca" d="
  M 820.28 0.00
  Q 794.73 24.30 769.45 49.19
  Q 719.11 98.76 719.05 98.82
  Q 690.90 126.35 635.91 180.66
  Q 606.04 210.16 573.23 242.80
  C 545.37 270.52 513.26 301.80 488.67 325.92
  Q 458.15 355.83 427.72 385.97
  Q 405.96 407.51 405.36 408.11
  Q 393.56 419.79 354.77 458.02
  Q 275.30 536.31 228.73 582.38
  C 195.44 615.30 160.98 648.68 122.61 686.60
  Q 101.93 707.04 61.34 746.34
  Q 30.49 776.23 0.00 806.01
  L 0.00 727.72
  Q 75.70 653.99 150.68 580.18
  Q 214.98 516.90 259.33 473.08
  Q 338.55 394.80 354.76 379.01
  Q 387.77 346.83 431.95 302.96
  Q 453.02 282.04 462.08 273.32
  Q 462.55 272.87 535.03 201.52
  Q 634.97 103.15 735.29 5.54
  Q 738.02 2.89 740.50 0.00
  L 820.28 0.00
  Z"
/>
<path fill="#dce87f" d="
  M 991.00 0.00
  Q 991.23 0.20 991.19 0.54
  Q 991.15 0.77 990.90 1.02
  Q 917.07 73.92 834.52 155.52
  Q 820.12 169.75 810.27 179.52
  Q 717.57 271.35 710.13 278.63
  Q 666.40 321.43 623.61 363.61
  Q 618.50 368.65 603.63 383.03
  C 598.05 388.43 592.25 394.67 586.90 399.66
  Q 581.13 405.05 574.28 412.04
  Q 569.32 417.11 545.87 440.12
  Q 484.64 500.23 424.36 559.62
  Q 420.46 563.46 418.35 565.60
  Q 405.03 579.07 379.43 604.18
  Q 355.91 627.24 289.36 692.96
  C 256.25 725.67 224.18 756.34 188.34 791.50
  Q 143.23 835.76 112.68 865.52
  Q 56.45 920.30 0.00 975.20
  L 0.00 806.01
  Q 30.49 776.23 61.34 746.34
  Q 101.93 707.04 122.61 686.60
  C 160.98 648.68 195.44 615.30 228.73 582.38
  Q 275.30 536.31 354.77 458.02
  Q 393.56 419.79 405.36 408.11
  Q 405.96 407.51 427.72 385.97
  Q 458.15 355.83 488.67 325.92
  C 513.26 301.80 545.37 270.52 573.23 242.80
  Q 606.04 210.16 635.91 180.66
  Q 690.90 126.35 719.05 98.82
  Q 719.11 98.76 769.45 49.19
  Q 794.73 24.30 820.28 0.00
  L 991.00 0.00
  Z"
/>
<path fill="#fbf3ca" d="
  M 1024.00 0.00
  L 1024.00 48.50
  L 1023.69 47.84
  A 0.28 0.28 0.0 0 0 1023.24 47.76
  Q 967.16 103.08 738.12 329.12
  Q 732.36 334.80 725.42 341.67
  Q 645.02 421.12 560.95 503.96
  Q 482.46 581.30 481.23 582.48
  Q 476.88 586.64 465.05 598.46
  C 451.77 611.72 439.27 623.76 423.31 639.56
  Q 374.47 687.89 311.82 749.32
  Q 209.73 849.44 127.58 930.33
  Q 62.68 994.24 33.75 1022.13
  C 33.28 1022.58 32.59 1022.75 32.31 1023.00
  A 0.34 0.34 0.0 0 0 32.47 1023.59
  L 35.01 1024.00
  L 0.00 1024.00
  L 0.00 975.20
  Q 56.45 920.30 112.68 865.52
  Q 143.23 835.76 188.34 791.50
  C 224.18 756.34 256.25 725.67 289.36 692.96
  Q 355.91 627.24 379.43 604.18
  Q 405.03 579.07 418.35 565.60
  Q 420.46 563.46 424.36 559.62
  Q 484.64 500.23 545.87 440.12
  Q 569.32 417.11 574.28 412.04
  Q 581.13 405.05 586.90 399.66
  C 592.25 394.67 598.05 388.43 603.63 383.03
  Q 618.50 368.65 623.61 363.61
  Q 666.40 321.43 710.13 278.63
  Q 717.57 271.35 810.27 179.52
  Q 820.12 169.75 834.52 155.52
  Q 917.07 73.92 990.90 1.02
  Q 991.15 0.77 991.19 0.54
  Q 991.23 0.20 991.00 0.00
  L 1024.00 0.00
  Z"
/>
<path fill="#dce87f" d="
  M 1024.00 48.50
  L 1024.00 216.24
  L 1023.59 217.25
  A 3.07 3.04 79.0 0 1 1022.89 218.30
  C 967.18 273.22 893.20 346.72 818.65 420.00
  Q 736.11 501.13 685.34 551.34
  Q 678.00 558.59 671.89 564.64
  Q 619.64 616.24 568.73 666.48
  Q 399.77 833.23 393.44 839.44
  Q 358.75 873.52 324.72 907.22
  Q 266.47 964.92 207.78 1022.54
  Q 206.96 1023.34 205.30 1024.00
  L 35.01 1024.00
  L 32.47 1023.59
  A 0.34 0.34 0.0 0 1 32.31 1023.00
  C 32.59 1022.75 33.28 1022.58 33.75 1022.13
  Q 62.68 994.24 127.58 930.33
  Q 209.73 849.44 311.82 749.32
  Q 374.47 687.89 423.31 639.56
  C 439.27 623.76 451.77 611.72 465.05 598.46
  Q 476.88 586.64 481.23 582.48
  Q 482.46 581.30 560.95 503.96
  Q 645.02 421.12 725.42 341.67
  Q 732.36 334.80 738.12 329.12
  Q 967.16 103.08 1023.24 47.76
  A 0.28 0.28 0.0 0 1 1023.69 47.84
  L 1024.00 48.50
  Z"
/>
<path fill="#fbf3ca" d="
  M 1024.00 216.24
  L 1024.00 296.75
  L 1023.80 296.40
  A 0.43 0.43 0.0 0 0 1023.13 296.31
  L 286.83 1023.36
  A 0.16 0.16 0.0 0 0 286.90 1023.62
  L 288.50 1024.00
  L 205.30 1024.00
  Q 206.96 1023.34 207.78 1022.54
  Q 266.47 964.92 324.72 907.22
  Q 358.75 873.52 393.44 839.44
  Q 399.77 833.23 568.73 666.48
  Q 619.64 616.24 671.89 564.64
  Q 678.00 558.59 685.34 551.34
  Q 736.11 501.13 818.65 420.00
  C 893.20 346.72 967.18 273.22 1022.89 218.30
  A 3.07 3.04 79.0 0 0 1023.59 217.25
  L 1024.00 216.24
  Z"
/>
<path fill="#dce87f" d="
  M 1024.00 296.75
  L 1024.00 379.88
  Q 1023.65 380.80 1024.00 381.51
  L 1024.00 465.42
  Q 1021.81 468.90 1015.90 474.65
  Q 957.28 531.75 824.57 663.57
  C 812.86 675.21 798.89 688.69 789.24 698.24
  Q 622.96 862.55 522.96 961.22
  Q 490.68 993.08 458.63 1024.00
  L 288.50 1024.00
  L 286.90 1023.62
  A 0.16 0.16 0.0 0 1 286.83 1023.36
  L 1023.13 296.31
  A 0.43 0.43 0.0 0 1 1023.80 296.40
  L 1024.00 296.75
  Z"
/>
<path fill="#fbf3ca" d="
  M 1024.00 379.88
  L 1024.00 381.51
  Q 1023.65 380.80 1024.00 379.88
  Z"
/>
<path fill="#fbf3ca" d="
  M 1024.00 465.42
  L 1024.00 545.77
  Q 986.58 582.49 949.99 618.74
  Q 791.83 775.45 759.33 807.08
  Q 747.47 818.63 735.38 830.63
  Q 714.51 851.33 552.75 1010.77
  C 549.80 1013.68 547.71 1016.51 544.80 1018.77
  Q 543.28 1019.95 539.91 1023.15
  A 0.30 0.30 0.0 0 0 540.07 1023.66
  L 542.51 1024.00
  L 458.63 1024.00
  Q 490.68 993.08 522.96 961.22
  Q 622.96 862.55 789.24 698.24
  C 798.89 688.69 812.86 675.21 824.57 663.57
  Q 957.28 531.75 1015.90 474.65
  Q 1021.81 468.90 1024.00 465.42
  Z"
/>
<path fill="#dce87f" d="
  M 1024.00 545.77
  L 1024.00 716.13
  Q 1023.50 717.37 1022.93 717.93
  Q 867.96 870.34 713.05 1022.81
  Q 712.33 1023.51 710.60 1024.00
  L 542.51 1024.00
  L 540.07 1023.66
  A 0.30 0.30 0.0 0 1 539.91 1023.15
  Q 543.28 1019.95 544.80 1018.77
  C 547.71 1016.51 549.80 1013.68 552.75 1010.77
  Q 714.51 851.33 735.38 830.63
  Q 747.47 818.63 759.33 807.08
  Q 791.83 775.45 949.99 618.74
  Q 986.58 582.49 1024.00 545.77
  Z"
/>
<path fill="#fbf3ca" d="
  M 1024.00 716.13
  L 1024.00 798.50
  L 1023.65 797.29
  A 0.36 0.36 0.0 0 0 1023.02 797.17
  Q 1022.85 797.39 1022.73 797.85
  A 1.15 1.12 75.9 0 1 1022.44 798.35
  L 794.06 1021.82
  A 0.57 0.21 -20.3 0 0 793.99 1021.88
  L 792.63 1023.03
  A 0.30 0.30 0.0 0 0 792.78 1023.56
  L 795.50 1024.00
  L 710.60 1024.00
  Q 712.33 1023.51 713.05 1022.81
  Q 867.96 870.34 1022.93 717.93
  Q 1023.50 717.37 1024.00 716.13
  Z"
/>
<path fill="#dce87f" d="
  M 1024.00 798.50
  L 1024.00 824.16
  L 1024.00 828.96
  L 1024.00 848.16
  L 1024.00 852.71
  L 1024.00 858.12
  Q 1023.68 858.94 1024.00 859.51
  L 1024.00 884.12
  Q 1023.66 884.98 1024.00 885.50
  L 1024.00 965.59
  L 964.94 1024.00
  L 795.50 1024.00
  L 792.78 1023.56
  A 0.30 0.30 0.0 0 1 792.63 1023.03
  L 793.99 1021.88
  A 0.57 0.21 -20.3 0 1 794.06 1021.82
  L 1022.44 798.35
  A 1.15 1.12 75.9 0 0 1022.73 797.85
  Q 1022.85 797.39 1023.02 797.17
  A 0.36 0.36 0.0 0 1 1023.65 797.29
  L 1024.00 798.50
  Z"
/>
<path fill="#fbf3ca" d="
  M 1024.00 824.16
  L 1024.00 828.96
  L 1024.00 824.16
  Z"
/>
<path fill="#fbf3ca" d="
  M 1024.00 848.16
  L 1024.00 852.71
  L 1024.00 848.16
  Z"
/>
<path fill="#fbf3ca" d="
  M 1024.00 858.12
  L 1024.00 859.51
  Q 1023.68 858.94 1024.00 858.12
  Z"
/>
<path fill="#fbf3ca" d="
  M 1024.00 884.12
  L 1024.00 885.50
  Q 1023.66 884.98 1024.00 884.12
  Z"
/>
<path fill="#fbf3ca" d="
  M 1024.00 965.59
  L 1024.00 1024.00
  L 964.94 1024.00
  L 1024.00 965.59
  Z"
/>
</svg>
