<?xml version="1.0" encoding="UTF-8" standalone="no"?>
<!DOCTYPE svg PUBLIC "-//W3C//DTD SVG 1.1//EN" "http://www.w3.org/Graphics/SVG/1.1/DTD/svg11.dtd">
<svg xmlns="http://www.w3.org/2000/svg" version="1.1" viewBox="0.00 0.00 1254.00 1254.00">
<g stroke-width="2.00" fill="none" stroke-linecap="butt">
<path stroke="#89a48c" vector-effect="non-scaling-stroke" d="
  M 81.30 0.00
  L 11.53 97.54
  A 1.19 1.18 45.5 0 0 11.52 98.91
  L 110.47 240.20
  A 1.03 1.03 0.0 0 0 112.16 240.20
  L 210.27 98.90
  A 1.10 1.10 0.0 0 0 210.27 97.64
  L 141.00 0.00"
/>
<path stroke="#89a48c" vector-effect="non-scaling-stroke" d="
  M 281.08 0.00
  L 211.92 97.17
  A 2.05 2.05 0.0 0 0 211.92 99.53
  L 310.41 240.16
  A 0.80 0.80 0.0 0 0 311.72 240.16
  L 409.71 99.04
  A 1.08 1.07 -45.3 0 0 409.71 97.81
  L 340.55 0.00"
/>
<path stroke="#89a48c" vector-effect="non-scaling-stroke" d="
  M 480.64 0.00
  L 411.02 97.79
  A 0.99 0.98 46.3 0 0 411.00 98.89
  Q 420.13 112.83 430.19 126.82
  Q 469.86 181.98 510.03 240.32
  A 0.66 0.66 0.0 0 0 511.12 240.32
  L 609.25 99.00
  A 1.14 1.13 44.8 0 0 609.24 97.70
  L 540.01 0.00"
/>
<path stroke="#89a48c" vector-effect="non-scaling-stroke" d="
  M 680.42 0.00
  L 610.74 97.54
  A 1.20 1.19 45.3 0 0 610.74 98.91
  L 709.69 240.20
  A 0.85 0.85 0.0 0 0 711.08 240.20
  L 809.19 98.90
  A 0.77 0.76 -45.5 0 0 809.19 98.03
  L 739.71 0.00"
/>
<path stroke="#89a48c" vector-effect="non-scaling-stroke" d="
  M 879.92 0.00
  L 810.52 97.31
  A 1.47 1.45 45.5 0 0 810.52 98.99
  L 909.42 240.21
  A 0.77 0.76 -45.2 0 0 910.68 240.20
  L 1008.53 99.28
  A 1.58 1.57 44.8 0 0 1008.52 97.48
  L 939.26 0.00"
/>
<path stroke="#89a48c" vector-effect="non-scaling-stroke" d="
  M 1079.54 0.00
  L 1010.20 97.47
  A 1.08 1.08 0.0 0 0 1010.20 98.73
  L 1109.22 240.12
  A 0.87 0.87 0.0 0 0 1110.64 240.12
  L 1208.62 99.01
  A 1.26 1.25 44.8 0 0 1208.61 97.57
  L 1138.85 0.00"
/>
<path stroke="#89a48c" vector-effect="non-scaling-stroke" d="
  M 1254.00 35.29
  L 1210.03 97.67
  A 1.45 1.44 -45.2 0 0 1210.03 99.34
  L 1254.00 161.68"
/>
<path stroke="#89a48c" vector-effect="non-scaling-stroke" d="
  M 1254.00 319.88
  L 1253.28 322.05
  A 1.33 1.12 77.1 0 1 1253.12 322.36
  L 1209.97 382.86
  A 1.01 1.00 45.3 0 0 1209.97 384.03
  L 1254.00 446.46"
/>
<path stroke="#89a48c" vector-effect="non-scaling-stroke" d="
  M 1254.00 605.66
  Q 1253.53 607.57 1253.13 608.12
  Q 1231.44 638.26 1209.94 669.08
  A 0.91 0.89 -45.4 0 0 1209.94 670.11
  L 1254.00 732.64"
/>
<path stroke="#89a48c" vector-effect="non-scaling-stroke" d="
  M 1254.00 891.88
  L 1253.29 893.97
  A 2.06 1.79 -22.5 0 1 1253.07 894.41
  L 1210.23 954.52
  A 1.55 1.54 -44.8 0 0 1210.22 956.30
  L 1254.00 1018.74"
/>
<path stroke="#89a48c" vector-effect="non-scaling-stroke" d="
  M 1254.00 1178.94
  L 1210.13 1241.44
  A 1.10 1.09 -45.3 0 0 1210.13 1242.71
  L 1218.05 1254.00"
/>
<path stroke="#89a48c" vector-effect="non-scaling-stroke" d="
  M 1201.27 1254.00
  L 1208.47 1243.05
  A 1.89 1.88 -45.3 0 0 1208.46 1240.96
  Q 1191.11 1215.23 1173.37 1190.16
  Q 1145.32 1150.50 1141.77 1145.25
  Q 1139.71 1142.21 1110.28 1100.28
  A 0.36 0.36 0.0 0 0 1109.70 1100.28
  Q 1069.63 1157.50 1067.37 1160.76
  C 1049.52 1186.56 1030.76 1212.23 1010.24 1241.22
  A 1.42 1.42 0.0 0 0 1010.23 1242.83
  L 1017.82 1254.00"
/>
<path stroke="#89a48c" vector-effect="non-scaling-stroke" d="
  M 1001.28 1254.00
  L 1008.60 1242.89
  A 2.10 2.08 -46.2 0 0 1008.56 1240.55
  L 910.41 1100.39
  A 0.61 0.61 0.0 0 0 909.38 1100.45
  Q 908.50 1102.03 907.90 1102.90
  Q 870.35 1157.22 816.40 1232.90
  Q 814.24 1235.92 810.71 1241.20
  A 1.61 1.61 0.0 0 0 810.72 1243.01
  L 818.27 1254.00"
/>
<path stroke="#89a48c" vector-effect="non-scaling-stroke" d="
  M 801.65 1254.00
  L 809.51 1242.33
  A 0.96 0.96 0.0 0 0 809.50 1241.24
  L 711.02 1100.61
  A 0.39 0.39 0.0 0 0 710.38 1100.61
  L 610.90 1241.26
  A 1.37 1.36 -44.8 0 0 610.89 1242.82
  L 618.65 1254.00"
/>
<path stroke="#89a48c" vector-effect="non-scaling-stroke" d="
  M 602.00 1254.00
  L 609.57 1242.66
  A 1.54 1.53 -45.8 0 0 609.55 1240.94
  L 511.27 1100.60
  A 0.44 0.43 44.7 0 0 510.56 1100.60
  L 411.40 1240.81
  A 1.99 1.99 0.0 0 0 411.39 1243.10
  L 418.97 1254.00"
/>
<path stroke="#89a48c" vector-effect="non-scaling-stroke" d="
  M 402.29 1254.00
  L 409.50 1243.09
  A 2.38 2.37 44.3 0 0 409.46 1240.43
  L 311.84 1101.04
  A 0.68 0.68 0.0 0 0 310.72 1101.04
  L 211.81 1240.89
  A 1.61 1.61 0.0 0 0 211.78 1242.71
  L 219.29 1254.00"
/>
<path stroke="#89a48c" vector-effect="non-scaling-stroke" d="
  M 202.81 1254.00
  L 210.07 1243.33
  A 2.60 2.59 -45.5 0 0 210.05 1240.39
  L 112.15 1100.60
  A 0.94 0.93 -47.8 0 0 110.57 1100.68
  Q 109.68 1102.25 107.96 1104.71
  Q 55.66 1179.79 11.55 1241.29
  A 0.95 0.93 -44.5 0 0 11.53 1242.35
  L 19.29 1254.00"
/>
<path stroke="#89a48c" vector-effect="non-scaling-stroke" d="
  M 2.37 1254.00
  L 10.20 1242.39
  A 0.84 0.83 -44.7 0 0 10.21 1241.47
  L 0.00 1226.26"
/>
<path stroke="#89a48c" vector-effect="non-scaling-stroke" d="
  M 0.00 971.15
  L 10.17 956.27
  A 1.13 1.13 0.0 0 0 10.17 954.99
  L 0.00 939.96"
/>
<path stroke="#89a48c" vector-effect="non-scaling-stroke" d="
  M 0.00 685.32
  L 10.09 670.43
  A 1.48 1.48 0.0 0 0 10.09 668.77
  L 0.00 653.99"
/>
<path stroke="#89a48c" vector-effect="non-scaling-stroke" d="
  M 0.00 398.97
  L 10.10 384.49
  A 1.53 1.52 -44.4 0 0 10.12 382.78
  L 0.00 367.52"
/>
<path stroke="#89a48c" vector-effect="non-scaling-stroke" d="
  M 0.00 114.05
  L 9.96 99.31
  A 1.70 1.69 44.7 0 0 9.94 97.39
  L 0.00 83.28"
/>
<path stroke="#89a48c" vector-effect="non-scaling-stroke" d="
  M 111.36 242.13
  Q 111.20 242.18 111.07 242.18
  A 0.13 0.12 -69.2 0 0 110.97 242.23
  L 11.68 383.08
  A 1.03 1.03 0.0 0 0 11.68 384.28
  L 110.95 525.89
  A 0.67 0.66 44.8 0 0 112.04 525.89
  L 210.52 383.90
  A 0.95 0.93 -45.4 0 0 210.52 382.83
  L 111.69 242.25
  A 0.32 0.31 -23.9 0 0 111.36 242.13"
/>
<path stroke="#89a48c" vector-effect="non-scaling-stroke" d="
  M 311.09 242.24
  Q 310.93 242.29 310.80 242.29
  A 0.13 0.12 -69.2 0 0 310.70 242.34
  L 211.46 383.00
  A 1.03 1.03 0.0 0 0 211.46 384.20
  L 310.57 525.69
  A 0.67 0.66 44.8 0 0 311.66 525.69
  L 410.09 383.89
  A 0.94 0.93 -45.4 0 0 410.09 382.82
  L 311.42 242.36
  A 0.32 0.31 -23.9 0 0 311.09 242.24"
/>
<path stroke="#89a48c" vector-effect="non-scaling-stroke" d="
  M 510.63 242.20
  Q 510.47 242.25 510.34 242.25
  A 0.13 0.12 -69.2 0 0 510.24 242.30
  L 410.96 383.04
  A 1.03 1.03 0.0 0 0 410.96 384.24
  L 510.13 525.80
  A 0.67 0.66 44.8 0 0 511.22 525.80
  L 609.69 383.92
  A 0.95 0.93 -45.4 0 0 609.69 382.85
  L 510.96 242.32
  A 0.32 0.31 -23.9 0 0 510.63 242.20"
/>
<path stroke="#89a48c" vector-effect="non-scaling-stroke" d="
  M 710.41 242.15
  Q 710.25 242.20 710.12 242.20
  A 0.13 0.12 -69.2 0 0 710.02 242.25
  L 610.77 383.02
  A 1.03 1.03 0.0 0 0 610.77 384.22
  L 709.99 525.76
  A 0.67 0.66 44.8 0 0 711.07 525.76
  L 809.51 383.84
  A 0.95 0.93 -45.4 0 0 809.51 382.78
  L 710.74 242.27
  A 0.32 0.31 -23.9 0 0 710.41 242.15"
/>
<path stroke="#89a48c" vector-effect="non-scaling-stroke" d="
  M 910.07 242.24
  Q 909.91 242.29 909.78 242.29
  A 0.13 0.12 -69.2 0 0 909.68 242.34
  L 810.44 383.05
  A 1.03 1.03 0.0 0 0 810.44 384.25
  L 909.59 525.76
  A 0.67 0.66 44.8 0 0 910.68 525.76
  L 1009.12 383.91
  A 0.94 0.93 -45.4 0 0 1009.12 382.84
  L 910.40 242.36
  A 0.32 0.31 -23.9 0 0 910.07 242.24"
/>
<path stroke="#89a48c" vector-effect="non-scaling-stroke" d="
  M 1109.86 242.16
  Q 1109.70 242.21 1109.57 242.21
  A 0.13 0.12 -69.2 0 0 1109.47 242.26
  L 1010.28 383.05
  A 1.03 1.03 0.0 0 0 1010.28 384.25
  L 1109.53 525.73
  A 0.67 0.66 44.8 0 0 1110.62 525.73
  L 1209.00 383.81
  A 0.94 0.93 -45.4 0 0 1209.00 382.74
  L 1110.19 242.28
  A 0.32 0.31 -23.9 0 0 1109.86 242.16"
/>
<path stroke="#89a48c" vector-effect="non-scaling-stroke" d="
  M 210.81 669.58
  A 0.26 0.26 0.0 0 0 210.81 669.28
  L 111.81 527.92
  A 0.26 0.26 0.0 0 0 111.45 527.86
  L 111.19 528.03
  A 0.26 0.26 0.0 0 0 111.12 528.10
  L 11.19 669.41
  A 0.26 0.26 0.0 0 0 11.18 669.71
  L 111.17 812.47
  A 0.26 0.26 0.0 0 0 111.59 812.47
  L 210.81 669.58"
/>
<path stroke="#89a48c" vector-effect="non-scaling-stroke" d="
  M 510.60 527.99
  Q 510.44 528.04 510.31 528.04
  A 0.13 0.12 -69.2 0 0 510.21 528.09
  L 410.85 668.95
  A 1.03 1.03 0.0 0 0 410.85 670.15
  L 510.10 811.82
  A 0.67 0.66 44.8 0 0 511.19 811.82
  L 609.74 669.82
  A 0.95 0.93 -45.4 0 0 609.74 668.76
  L 510.93 528.11
  A 0.32 0.31 -23.9 0 0 510.60 527.99"
/>
<path stroke="#89a48c" vector-effect="non-scaling-stroke" d="
  M 810.07 669.34
  A 0.30 0.30 0.0 0 0 810.07 669.68
  L 909.85 812.18
  A 0.30 0.30 0.0 0 0 910.35 812.18
  L 1009.30 669.67
  A 0.30 0.30 0.0 0 0 1009.30 669.33
  L 910.42 528.15
  A 0.30 0.30 0.0 0 0 909.93 528.15
  L 810.07 669.34"
/>
<path stroke="#89a48c" vector-effect="non-scaling-stroke" d="
  M 1109.95 527.89
  Q 1109.79 527.94 1109.66 527.94
  A 0.13 0.12 -69.2 0 0 1109.56 527.99
  L 1010.21 668.91
  A 1.03 1.03 0.0 0 0 1010.21 670.11
  L 1109.53 811.80
  A 0.67 0.66 44.8 0 0 1110.62 811.80
  L 1209.16 669.74
  A 0.95 0.93 -45.4 0 0 1209.16 668.67
  L 1110.28 528.01
  A 0.32 0.31 -23.9 0 0 1109.95 527.89"
/>
<path stroke="#89a48c" vector-effect="non-scaling-stroke" d="
  M 211.09 669.23
  A 0.34 0.34 0.0 0 0 211.09 669.63
  L 310.84 812.06
  A 0.34 0.34 0.0 0 0 311.40 812.06
  L 410.26 669.67
  A 0.34 0.34 0.0 0 0 410.26 669.29
  L 311.43 528.16
  A 0.34 0.34 0.0 0 0 310.87 528.15
  L 211.09 669.23"
/>
<path stroke="#89a48c" vector-effect="non-scaling-stroke" d="
  M 710.39 527.98
  Q 710.23 528.03 710.10 528.03
  A 0.13 0.12 -69.2 0 0 710.00 528.08
  L 610.65 668.96
  A 1.03 1.03 0.0 0 0 610.65 670.16
  L 709.93 811.83
  A 0.67 0.66 44.8 0 0 711.02 811.83
  L 809.55 669.81
  A 0.95 0.93 -45.4 0 0 809.55 668.74
  L 710.72 528.10
  A 0.32 0.31 -23.9 0 0 710.39 527.98"
/>
<path stroke="#89a48c" vector-effect="non-scaling-stroke" d="
  M 111.42 814.06
  Q 111.26 814.11 111.13 814.11
  A 0.13 0.12 -69.2 0 0 111.03 814.16
  L 11.61 955.04
  A 1.03 1.03 0.0 0 0 11.61 956.24
  L 110.86 1097.98
  A 0.67 0.66 44.8 0 0 111.95 1097.98
  L 210.56 955.96
  A 0.95 0.93 -45.4 0 0 210.56 954.89
  L 111.75 814.18
  A 0.32 0.31 -23.9 0 0 111.42 814.06"
/>
<path stroke="#89a48c" vector-effect="non-scaling-stroke" d="
  M 311.13 814.32
  Q 310.97 814.37 310.84 814.37
  A 0.13 0.12 -69.2 0 0 310.74 814.42
  L 211.47 955.04
  A 1.03 1.03 0.0 0 0 211.47 956.24
  L 310.54 1097.74
  A 0.67 0.66 44.8 0 0 311.62 1097.74
  L 410.08 955.98
  A 0.94 0.93 -45.4 0 0 410.08 954.92
  L 311.46 814.44
  A 0.32 0.31 -23.9 0 0 311.13 814.32"
/>
<path stroke="#89a48c" vector-effect="non-scaling-stroke" d="
  M 510.67 814.16
  Q 510.51 814.21 510.38 814.21
  A 0.13 0.12 -69.2 0 0 510.28 814.26
  L 410.98 955.03
  A 1.03 1.03 0.0 0 0 410.98 956.23
  L 510.17 1097.82
  A 0.67 0.66 44.8 0 0 511.26 1097.82
  L 609.75 955.91
  A 0.95 0.93 -45.4 0 0 609.75 954.84
  L 511.00 814.28
  A 0.32 0.31 -23.9 0 0 510.67 814.16"
/>
<path stroke="#89a48c" vector-effect="non-scaling-stroke" d="
  M 710.47 814.26
  Q 710.31 814.31 710.18 814.31
  A 0.13 0.12 -69.2 0 0 710.08 814.36
  L 610.79 955.09
  A 1.03 1.03 0.0 0 0 610.79 956.29
  L 709.93 1097.86
  A 0.67 0.66 44.8 0 0 711.02 1097.86
  L 809.51 956.00
  A 0.95 0.93 -45.4 0 0 809.51 954.93
  L 710.80 814.38
  A 0.32 0.31 -23.9 0 0 710.47 814.26"
/>
<path stroke="#89a48c" vector-effect="non-scaling-stroke" d="
  M 910.09 814.26
  Q 909.94 814.31 909.81 814.31
  A 0.13 0.12 -69.2 0 0 909.71 814.36
  L 810.45 955.06
  A 1.03 1.03 0.0 0 0 810.45 956.26
  L 909.59 1097.78
  A 0.67 0.66 44.8 0 0 910.67 1097.78
  L 1009.12 955.94
  A 0.94 0.93 -45.4 0 0 1009.12 954.87
  L 910.42 814.38
  A 0.32 0.31 -23.9 0 0 910.09 814.26"
/>
<path stroke="#89a48c" vector-effect="non-scaling-stroke" d="
  M 1109.96 814.15
  Q 1109.80 814.20 1109.67 814.20
  A 0.13 0.12 -69.2 0 0 1109.57 814.25
  L 1010.30 955.06
  A 1.03 1.03 0.0 0 0 1010.30 956.26
  L 1109.54 1097.83
  A 0.67 0.66 44.8 0 0 1110.63 1097.83
  L 1209.09 955.88
  A 0.95 0.93 -45.4 0 0 1209.09 954.81
  L 1110.29 814.27
  A 0.32 0.31 -23.9 0 0 1109.96 814.15"
/>
</g>
<path fill="#1b5431" d="
  M 81.30 0.00
  L 11.53 97.54
  A 1.19 1.18 45.5 0 0 11.52 98.91
  L 110.47 240.20
  A 1.03 1.03 0.0 0 0 112.16 240.20
  L 210.27 98.90
  A 1.10 1.10 0.0 0 0 210.27 97.64
  L 141.00 0.00
  L 281.08 0.00
  L 211.92 97.17
  A 2.05 2.05 0.0 0 0 211.92 99.53
  L 310.41 240.16
  A 0.80 0.80 0.0 0 0 311.72 240.16
  L 409.71 99.04
  A 1.08 1.07 -45.3 0 0 409.71 97.81
  L 340.55 0.00
  L 480.64 0.00
  L 411.02 97.79
  A 0.99 0.98 46.3 0 0 411.00 98.89
  Q 420.13 112.83 430.19 126.82
  Q 469.86 181.98 510.03 240.32
  A 0.66 0.66 0.0 0 0 511.12 240.32
  L 609.25 99.00
  A 1.14 1.13 44.8 0 0 609.24 97.70
  L 540.01 0.00
  L 680.42 0.00
  L 610.74 97.54
  A 1.20 1.19 45.3 0 0 610.74 98.91
  L 709.69 240.20
  A 0.85 0.85 0.0 0 0 711.08 240.20
  L 809.19 98.90
  A 0.77 0.76 -45.5 0 0 809.19 98.03
  L 739.71 0.00
  L 879.92 0.00
  L 810.52 97.31
  A 1.47 1.45 45.5 0 0 810.52 98.99
  L 909.42 240.21
  A 0.77 0.76 -45.2 0 0 910.68 240.20
  L 1008.53 99.28
  A 1.58 1.57 44.8 0 0 1008.52 97.48
  L 939.26 0.00
  L 1079.54 0.00
  L 1010.20 97.47
  A 1.08 1.08 0.0 0 0 1010.20 98.73
  L 1109.22 240.12
  A 0.87 0.87 0.0 0 0 1110.64 240.12
  L 1208.62 99.01
  A 1.26 1.25 44.8 0 0 1208.61 97.57
  L 1138.85 0.00
  L 1254.00 0.00
  L 1254.00 35.29
  L 1210.03 97.67
  A 1.45 1.44 -45.2 0 0 1210.03 99.34
  L 1254.00 161.68
  L 1254.00 319.88
  L 1253.28 322.05
  A 1.33 1.12 77.1 0 1 1253.12 322.36
  L 1209.97 382.86
  A 1.01 1.00 45.3 0 0 1209.97 384.03
  L 1254.00 446.46
  L 1254.00 605.66
  Q 1253.53 607.57 1253.13 608.12
  Q 1231.44 638.26 1209.94 669.08
  A 0.91 0.89 -45.4 0 0 1209.94 670.11
  L 1254.00 732.64
  L 1254.00 891.88
  L 1253.29 893.97
  A 2.06 1.79 -22.5 0 1 1253.07 894.41
  L 1210.23 954.52
  A 1.55 1.54 -44.8 0 0 1210.22 956.30
  L 1254.00 1018.74
  L 1254.00 1178.94
  L 1210.13 1241.44
  A 1.10 1.09 -45.3 0 0 1210.13 1242.71
  L 1218.05 1254.00
  L 1201.27 1254.00
  L 1208.47 1243.05
  A 1.89 1.88 -45.3 0 0 1208.46 1240.96
  Q 1191.11 1215.23 1173.37 1190.16
  Q 1145.32 1150.50 1141.77 1145.25
  Q 1139.71 1142.21 1110.28 1100.28
  A 0.36 0.36 0.0 0 0 1109.70 1100.28
  Q 1069.63 1157.50 1067.37 1160.76
  C 1049.52 1186.56 1030.76 1212.23 1010.24 1241.22
  A 1.42 1.42 0.0 0 0 1010.23 1242.83
  L 1017.82 1254.00
  L 1001.28 1254.00
  L 1008.60 1242.89
  A 2.10 2.08 -46.2 0 0 1008.56 1240.55
  L 910.41 1100.39
  A 0.61 0.61 0.0 0 0 909.38 1100.45
  Q 908.50 1102.03 907.90 1102.90
  Q 870.35 1157.22 816.40 1232.90
  Q 814.24 1235.92 810.71 1241.20
  A 1.61 1.61 0.0 0 0 810.72 1243.01
  L 818.27 1254.00
  L 801.65 1254.00
  L 809.51 1242.33
  A 0.96 0.96 0.0 0 0 809.50 1241.24
  L 711.02 1100.61
  A 0.39 0.39 0.0 0 0 710.38 1100.61
  L 610.90 1241.26
  A 1.37 1.36 -44.8 0 0 610.89 1242.82
  L 618.65 1254.00
  L 602.00 1254.00
  L 609.57 1242.66
  A 1.54 1.53 -45.8 0 0 609.55 1240.94
  L 511.27 1100.60
  A 0.44 0.43 44.7 0 0 510.56 1100.60
  L 411.40 1240.81
  A 1.99 1.99 0.0 0 0 411.39 1243.10
  L 418.97 1254.00
  L 402.29 1254.00
  L 409.50 1243.09
  A 2.38 2.37 44.3 0 0 409.46 1240.43
  L 311.84 1101.04
  A 0.68 0.68 0.0 0 0 310.72 1101.04
  L 211.81 1240.89
  A 1.61 1.61 0.0 0 0 211.78 1242.71
  L 219.29 1254.00
  L 202.81 1254.00
  L 210.07 1243.33
  A 2.60 2.59 -45.5 0 0 210.05 1240.39
  L 112.15 1100.60
  A 0.94 0.93 -47.8 0 0 110.57 1100.68
  Q 109.68 1102.25 107.96 1104.71
  Q 55.66 1179.79 11.55 1241.29
  A 0.95 0.93 -44.5 0 0 11.53 1242.35
  L 19.29 1254.00
  L 2.37 1254.00
  L 10.20 1242.39
  A 0.84 0.83 -44.7 0 0 10.21 1241.47
  L 0.00 1226.26
  L 0.00 971.15
  L 10.17 956.27
  A 1.13 1.13 0.0 0 0 10.17 954.99
  L 0.00 939.96
  L 0.00 685.32
  L 10.09 670.43
  A 1.48 1.48 0.0 0 0 10.09 668.77
  L 0.00 653.99
  L 0.00 398.97
  L 10.10 384.49
  A 1.53 1.52 -44.4 0 0 10.12 382.78
  L 0.00 367.52
  L 0.00 114.05
  L 9.96 99.31
  A 1.70 1.69 44.7 0 0 9.94 97.39
  L 0.00 83.28
  L 0.00 0.00
  L 81.30 0.00
  Z
  M 111.36 242.13
  Q 111.20 242.18 111.07 242.18
  A 0.13 0.12 -69.2 0 0 110.97 242.23
  L 11.68 383.08
  A 1.03 1.03 0.0 0 0 11.68 384.28
  L 110.95 525.89
  A 0.67 0.66 44.8 0 0 112.04 525.89
  L 210.52 383.90
  A 0.95 0.93 -45.4 0 0 210.52 382.83
  L 111.69 242.25
  A 0.32 0.31 -23.9 0 0 111.36 242.13
  Z
  M 311.09 242.24
  Q 310.93 242.29 310.80 242.29
  A 0.13 0.12 -69.2 0 0 310.70 242.34
  L 211.46 383.00
  A 1.03 1.03 0.0 0 0 211.46 384.20
  L 310.57 525.69
  A 0.67 0.66 44.8 0 0 311.66 525.69
  L 410.09 383.89
  A 0.94 0.93 -45.4 0 0 410.09 382.82
  L 311.42 242.36
  A 0.32 0.31 -23.9 0 0 311.09 242.24
  Z
  M 510.63 242.20
  Q 510.47 242.25 510.34 242.25
  A 0.13 0.12 -69.2 0 0 510.24 242.30
  L 410.96 383.04
  A 1.03 1.03 0.0 0 0 410.96 384.24
  L 510.13 525.80
  A 0.67 0.66 44.8 0 0 511.22 525.80
  L 609.69 383.92
  A 0.95 0.93 -45.4 0 0 609.69 382.85
  L 510.96 242.32
  A 0.32 0.31 -23.9 0 0 510.63 242.20
  Z
  M 710.41 242.15
  Q 710.25 242.20 710.12 242.20
  A 0.13 0.12 -69.2 0 0 710.02 242.25
  L 610.77 383.02
  A 1.03 1.03 0.0 0 0 610.77 384.22
  L 709.99 525.76
  A 0.67 0.66 44.8 0 0 711.07 525.76
  L 809.51 383.84
  A 0.95 0.93 -45.4 0 0 809.51 382.78
  L 710.74 242.27
  A 0.32 0.31 -23.9 0 0 710.41 242.15
  Z
  M 910.07 242.24
  Q 909.91 242.29 909.78 242.29
  A 0.13 0.12 -69.2 0 0 909.68 242.34
  L 810.44 383.05
  A 1.03 1.03 0.0 0 0 810.44 384.25
  L 909.59 525.76
  A 0.67 0.66 44.8 0 0 910.68 525.76
  L 1009.12 383.91
  A 0.94 0.93 -45.4 0 0 1009.12 382.84
  L 910.40 242.36
  A 0.32 0.31 -23.9 0 0 910.07 242.24
  Z
  M 1109.86 242.16
  Q 1109.70 242.21 1109.57 242.21
  A 0.13 0.12 -69.2 0 0 1109.47 242.26
  L 1010.28 383.05
  A 1.03 1.03 0.0 0 0 1010.28 384.25
  L 1109.53 525.73
  A 0.67 0.66 44.8 0 0 1110.62 525.73
  L 1209.00 383.81
  A 0.94 0.93 -45.4 0 0 1209.00 382.74
  L 1110.19 242.28
  A 0.32 0.31 -23.9 0 0 1109.86 242.16
  Z
  M 210.81 669.58
  A 0.26 0.26 0.0 0 0 210.81 669.28
  L 111.81 527.92
  A 0.26 0.26 0.0 0 0 111.45 527.86
  L 111.19 528.03
  A 0.26 0.26 0.0 0 0 111.12 528.10
  L 11.19 669.41
  A 0.26 0.26 0.0 0 0 11.18 669.71
  L 111.17 812.47
  A 0.26 0.26 0.0 0 0 111.59 812.47
  L 210.81 669.58
  Z
  M 510.60 527.99
  Q 510.44 528.04 510.31 528.04
  A 0.13 0.12 -69.2 0 0 510.21 528.09
  L 410.85 668.95
  A 1.03 1.03 0.0 0 0 410.85 670.15
  L 510.10 811.82
  A 0.67 0.66 44.8 0 0 511.19 811.82
  L 609.74 669.82
  A 0.95 0.93 -45.4 0 0 609.74 668.76
  L 510.93 528.11
  A 0.32 0.31 -23.9 0 0 510.60 527.99
  Z
  M 810.07 669.34
  A 0.30 0.30 0.0 0 0 810.07 669.68
  L 909.85 812.18
  A 0.30 0.30 0.0 0 0 910.35 812.18
  L 1009.30 669.67
  A 0.30 0.30 0.0 0 0 1009.30 669.33
  L 910.42 528.15
  A 0.30 0.30 0.0 0 0 909.93 528.15
  L 810.07 669.34
  Z
  M 1109.95 527.89
  Q 1109.79 527.94 1109.66 527.94
  A 0.13 0.12 -69.2 0 0 1109.56 527.99
  L 1010.21 668.91
  A 1.03 1.03 0.0 0 0 1010.21 670.11
  L 1109.53 811.80
  A 0.67 0.66 44.8 0 0 1110.62 811.80
  L 1209.16 669.74
  A 0.95 0.93 -45.4 0 0 1209.16 668.67
  L 1110.28 528.01
  A 0.32 0.31 -23.9 0 0 1109.95 527.89
  Z
  M 211.09 669.23
  A 0.34 0.34 0.0 0 0 211.09 669.63
  L 310.84 812.06
  A 0.34 0.34 0.0 0 0 311.40 812.06
  L 410.26 669.67
  A 0.34 0.34 0.0 0 0 410.26 669.29
  L 311.43 528.16
  A 0.34 0.34 0.0 0 0 310.87 528.15
  L 211.09 669.23
  Z
  M 710.39 527.98
  Q 710.23 528.03 710.10 528.03
  A 0.13 0.12 -69.2 0 0 710.00 528.08
  L 610.65 668.96
  A 1.03 1.03 0.0 0 0 610.65 670.16
  L 709.93 811.83
  A 0.67 0.66 44.8 0 0 711.02 811.83
  L 809.55 669.81
  A 0.95 0.93 -45.4 0 0 809.55 668.74
  L 710.72 528.10
  A 0.32 0.31 -23.9 0 0 710.39 527.98
  Z
  M 111.42 814.06
  Q 111.26 814.11 111.13 814.11
  A 0.13 0.12 -69.2 0 0 111.03 814.16
  L 11.61 955.04
  A 1.03 1.03 0.0 0 0 11.61 956.24
  L 110.86 1097.98
  A 0.67 0.66 44.8 0 0 111.95 1097.98
  L 210.56 955.96
  A 0.95 0.93 -45.4 0 0 210.56 954.89
  L 111.75 814.18
  A 0.32 0.31 -23.9 0 0 111.42 814.06
  Z
  M 311.13 814.32
  Q 310.97 814.37 310.84 814.37
  A 0.13 0.12 -69.2 0 0 310.74 814.42
  L 211.47 955.04
  A 1.03 1.03 0.0 0 0 211.47 956.24
  L 310.54 1097.74
  A 0.67 0.66 44.8 0 0 311.62 1097.74
  L 410.08 955.98
  A 0.94 0.93 -45.4 0 0 410.08 954.92
  L 311.46 814.44
  A 0.32 0.31 -23.9 0 0 311.13 814.32
  Z
  M 510.67 814.16
  Q 510.51 814.21 510.38 814.21
  A 0.13 0.12 -69.2 0 0 510.28 814.26
  L 410.98 955.03
  A 1.03 1.03 0.0 0 0 410.98 956.23
  L 510.17 1097.82
  A 0.67 0.66 44.8 0 0 511.26 1097.82
  L 609.75 955.91
  A 0.95 0.93 -45.4 0 0 609.75 954.84
  L 511.00 814.28
  A 0.32 0.31 -23.9 0 0 510.67 814.16
  Z
  M 710.47 814.26
  Q 710.31 814.31 710.18 814.31
  A 0.13 0.12 -69.2 0 0 710.08 814.36
  L 610.79 955.09
  A 1.03 1.03 0.0 0 0 610.79 956.29
  L 709.93 1097.86
  A 0.67 0.66 44.8 0 0 711.02 1097.86
  L 809.51 956.00
  A 0.95 0.93 -45.4 0 0 809.51 954.93
  L 710.80 814.38
  A 0.32 0.31 -23.9 0 0 710.47 814.26
  Z
  M 910.09 814.26
  Q 909.94 814.31 909.81 814.31
  A 0.13 0.12 -69.2 0 0 909.71 814.36
  L 810.45 955.06
  A 1.03 1.03 0.0 0 0 810.45 956.26
  L 909.59 1097.78
  A 0.67 0.66 44.8 0 0 910.67 1097.78
  L 1009.12 955.94
  A 0.94 0.93 -45.4 0 0 1009.12 954.87
  L 910.42 814.38
  A 0.32 0.31 -23.9 0 0 910.09 814.26
  Z
  M 1109.96 814.15
  Q 1109.80 814.20 1109.67 814.20
  A 0.13 0.12 -69.2 0 0 1109.57 814.25
  L 1010.30 955.06
  A 1.03 1.03 0.0 0 0 1010.30 956.26
  L 1109.54 1097.83
  A 0.67 0.66 44.8 0 0 1110.63 1097.83
  L 1209.09 955.88
  A 0.95 0.93 -45.4 0 0 1209.09 954.81
  L 1110.29 814.27
  A 0.32 0.31 -23.9 0 0 1109.96 814.15
  Z"
/>
<path fill="#f7f3e7" d="
  M 141.00 0.00
  L 210.27 97.64
  A 1.10 1.10 0.0 0 1 210.27 98.90
  L 112.16 240.20
  A 1.03 1.03 0.0 0 1 110.47 240.20
  L 11.52 98.91
  A 1.19 1.18 45.5 0 1 11.53 97.54
  L 81.30 0.00
  L 141.00 0.00
  Z"
/>
<path fill="#f7f3e7" d="
  M 340.55 0.00
  L 409.71 97.81
  A 1.08 1.07 -45.3 0 1 409.71 99.04
  L 311.72 240.16
  A 0.80 0.80 0.0 0 1 310.41 240.16
  L 211.92 99.53
  A 2.05 2.05 0.0 0 1 211.92 97.17
  L 281.08 0.00
  L 340.55 0.00
  Z"
/>
<path fill="#f7f3e7" d="
  M 540.01 0.00
  L 609.24 97.70
  A 1.14 1.13 44.8 0 1 609.25 99.00
  L 511.12 240.32
  A 0.66 0.66 0.0 0 1 510.03 240.32
  Q 469.86 181.98 430.19 126.82
  Q 420.13 112.83 411.00 98.89
  A 0.99 0.98 46.3 0 1 411.02 97.79
  L 480.64 0.00
  L 540.01 0.00
  Z"
/>
<path fill="#f7f3e7" d="
  M 739.71 0.00
  L 809.19 98.03
  A 0.77 0.76 -45.5 0 1 809.19 98.90
  L 711.08 240.20
  A 0.85 0.85 0.0 0 1 709.69 240.20
  L 610.74 98.91
  A 1.20 1.19 45.3 0 1 610.74 97.54
  L 680.42 0.00
  L 739.71 0.00
  Z"
/>
<path fill="#f7f3e7" d="
  M 939.26 0.00
  L 1008.52 97.48
  A 1.58 1.57 44.8 0 1 1008.53 99.28
  L 910.68 240.20
  A 0.77 0.76 -45.2 0 1 909.42 240.21
  L 810.52 98.99
  A 1.47 1.45 45.5 0 1 810.52 97.31
  L 879.92 0.00
  L 939.26 0.00
  Z"
/>
<path fill="#f7f3e7" d="
  M 1138.85 0.00
  L 1208.61 97.57
  A 1.26 1.25 44.8 0 1 1208.62 99.01
  L 1110.64 240.12
  A 0.87 0.87 0.0 0 1 1109.22 240.12
  L 1010.20 98.73
  A 1.08 1.08 0.0 0 1 1010.20 97.47
  L 1079.54 0.00
  L 1138.85 0.00
  Z"
/>
<path fill="#f7f3e7" d="
  M 1254.00 35.29
  L 1254.00 161.68
  L 1210.03 99.34
  A 1.45 1.44 -45.2 0 1 1210.03 97.67
  L 1254.00 35.29
  Z"
/>
<path fill="#f7f3e7" d="
  M 0.00 114.05
  L 0.00 83.28
  L 9.94 97.39
  A 1.70 1.69 44.7 0 1 9.96 99.31
  L 0.00 114.05
  Z"
/>
<path fill="#f7f3e7" d="
  M 111.36 242.13
  A 0.32 0.31 -23.9 0 1 111.69 242.25
  L 210.52 382.83
  A 0.95 0.93 -45.4 0 1 210.52 383.90
  L 112.04 525.89
  A 0.67 0.66 44.8 0 1 110.95 525.89
  L 11.68 384.28
  A 1.03 1.03 0.0 0 1 11.68 383.08
  L 110.97 242.23
  A 0.13 0.12 -69.2 0 1 111.07 242.18
  Q 111.20 242.18 111.36 242.13
  Z"
/>
<path fill="#f7f3e7" d="
  M 311.09 242.24
  A 0.32 0.31 -23.9 0 1 311.42 242.36
  L 410.09 382.82
  A 0.94 0.93 -45.4 0 1 410.09 383.89
  L 311.66 525.69
  A 0.67 0.66 44.8 0 1 310.57 525.69
  L 211.46 384.20
  A 1.03 1.03 0.0 0 1 211.46 383.00
  L 310.70 242.34
  A 0.13 0.12 -69.2 0 1 310.80 242.29
  Q 310.93 242.29 311.09 242.24
  Z"
/>
<path fill="#f7f3e7" d="
  M 510.63 242.20
  A 0.32 0.31 -23.9 0 1 510.96 242.32
  L 609.69 382.85
  A 0.95 0.93 -45.4 0 1 609.69 383.92
  L 511.22 525.80
  A 0.67 0.66 44.8 0 1 510.13 525.80
  L 410.96 384.24
  A 1.03 1.03 0.0 0 1 410.96 383.04
  L 510.24 242.30
  A 0.13 0.12 -69.2 0 1 510.34 242.25
  Q 510.47 242.25 510.63 242.20
  Z"
/>
<path fill="#f7f3e7" d="
  M 710.41 242.15
  A 0.32 0.31 -23.9 0 1 710.74 242.27
  L 809.51 382.78
  A 0.95 0.93 -45.4 0 1 809.51 383.84
  L 711.07 525.76
  A 0.67 0.66 44.8 0 1 709.99 525.76
  L 610.77 384.22
  A 1.03 1.03 0.0 0 1 610.77 383.02
  L 710.02 242.25
  A 0.13 0.12 -69.2 0 1 710.12 242.20
  Q 710.25 242.20 710.41 242.15
  Z"
/>
<path fill="#f7f3e7" d="
  M 910.07 242.24
  A 0.32 0.31 -23.9 0 1 910.40 242.36
  L 1009.12 382.84
  A 0.94 0.93 -45.4 0 1 1009.12 383.91
  L 910.68 525.76
  A 0.67 0.66 44.8 0 1 909.59 525.76
  L 810.44 384.25
  A 1.03 1.03 0.0 0 1 810.44 383.05
  L 909.68 242.34
  A 0.13 0.12 -69.2 0 1 909.78 242.29
  Q 909.91 242.29 910.07 242.24
  Z"
/>
<path fill="#f7f3e7" d="
  M 1109.86 242.16
  A 0.32 0.31 -23.9 0 1 1110.19 242.28
  L 1209.00 382.74
  A 0.94 0.93 -45.4 0 1 1209.00 383.81
  L 1110.62 525.73
  A 0.67 0.66 44.8 0 1 1109.53 525.73
  L 1010.28 384.25
  A 1.03 1.03 0.0 0 1 1010.28 383.05
  L 1109.47 242.26
  A 0.13 0.12 -69.2 0 1 1109.57 242.21
  Q 1109.70 242.21 1109.86 242.16
  Z"
/>
<path fill="#f7f3e7" d="
  M 1254.00 319.88
  L 1254.00 446.46
  L 1209.97 384.03
  A 1.01 1.00 45.3 0 1 1209.97 382.86
  L 1253.12 322.36
  A 1.33 1.12 77.1 0 0 1253.28 322.05
  L 1254.00 319.88
  Z"
/>
<path fill="#f7f3e7" d="
  M 0.00 398.97
  L 0.00 367.52
  L 10.12 382.78
  A 1.53 1.52 -44.4 0 1 10.10 384.49
  L 0.00 398.97
  Z"
/>
<path fill="#f7f3e7" d="
  M 210.81 669.58
  L 111.59 812.47
  A 0.26 0.26 0.0 0 1 111.17 812.47
  L 11.18 669.71
  A 0.26 0.26 0.0 0 1 11.19 669.41
  L 111.12 528.10
  A 0.26 0.26 0.0 0 1 111.19 528.03
  L 111.45 527.86
  A 0.26 0.26 0.0 0 1 111.81 527.92
  L 210.81 669.28
  A 0.26 0.26 0.0 0 1 210.81 669.58
  Z"
/>
<path fill="#f7f3e7" d="
  M 510.60 527.99
  A 0.32 0.31 -23.9 0 1 510.93 528.11
  L 609.74 668.76
  A 0.95 0.93 -45.4 0 1 609.74 669.82
  L 511.19 811.82
  A 0.67 0.66 44.8 0 1 510.10 811.82
  L 410.85 670.15
  A 1.03 1.03 0.0 0 1 410.85 668.95
  L 510.21 528.09
  A 0.13 0.12 -69.2 0 1 510.31 528.04
  Q 510.44 528.04 510.60 527.99
  Z"
/>
<path fill="#f7f3e7" d="
  M 810.07 669.34
  L 909.93 528.15
  A 0.30 0.30 0.0 0 1 910.42 528.15
  L 1009.30 669.33
  A 0.30 0.30 0.0 0 1 1009.30 669.67
  L 910.35 812.18
  A 0.30 0.30 0.0 0 1 909.85 812.18
  L 810.07 669.68
  A 0.30 0.30 0.0 0 1 810.07 669.34
  Z"
/>
<path fill="#f7f3e7" d="
  M 1109.95 527.89
  A 0.32 0.31 -23.9 0 1 1110.28 528.01
  L 1209.16 668.67
  A 0.95 0.93 -45.4 0 1 1209.16 669.74
  L 1110.62 811.80
  A 0.67 0.66 44.8 0 1 1109.53 811.80
  L 1010.21 670.11
  A 1.03 1.03 0.0 0 1 1010.21 668.91
  L 1109.56 527.99
  A 0.13 0.12 -69.2 0 1 1109.66 527.94
  Q 1109.79 527.94 1109.95 527.89
  Z"
/>
<path fill="#f7f3e7" d="
  M 211.09 669.23
  L 310.87 528.15
  A 0.34 0.34 0.0 0 1 311.43 528.16
  L 410.26 669.29
  A 0.34 0.34 0.0 0 1 410.26 669.67
  L 311.40 812.06
  A 0.34 0.34 0.0 0 1 310.84 812.06
  L 211.09 669.63
  A 0.34 0.34 0.0 0 1 211.09 669.23
  Z"
/>
<path fill="#f7f3e7" d="
  M 710.39 527.98
  A 0.32 0.31 -23.9 0 1 710.72 528.10
  L 809.55 668.74
  A 0.95 0.93 -45.4 0 1 809.55 669.81
  L 711.02 811.83
  A 0.67 0.66 44.8 0 1 709.93 811.83
  L 610.65 670.16
  A 1.03 1.03 0.0 0 1 610.65 668.96
  L 710.00 528.08
  A 0.13 0.12 -69.2 0 1 710.10 528.03
  Q 710.23 528.03 710.39 527.98
  Z"
/>
<path fill="#f7f3e7" d="
  M 1254.00 605.66
  L 1254.00 732.64
  L 1209.94 670.11
  A 0.91 0.89 -45.4 0 1 1209.94 669.08
  Q 1231.44 638.26 1253.13 608.12
  Q 1253.53 607.57 1254.00 605.66
  Z"
/>
<path fill="#f7f3e7" d="
  M 0.00 685.32
  L 0.00 653.99
  L 10.09 668.77
  A 1.48 1.48 0.0 0 1 10.09 670.43
  L 0.00 685.32
  Z"
/>
<path fill="#f7f3e7" d="
  M 111.42 814.06
  A 0.32 0.31 -23.9 0 1 111.75 814.18
  L 210.56 954.89
  A 0.95 0.93 -45.4 0 1 210.56 955.96
  L 111.95 1097.98
  A 0.67 0.66 44.8 0 1 110.86 1097.98
  L 11.61 956.24
  A 1.03 1.03 0.0 0 1 11.61 955.04
  L 111.03 814.16
  A 0.13 0.12 -69.2 0 1 111.13 814.11
  Q 111.26 814.11 111.42 814.06
  Z"
/>
<path fill="#f7f3e7" d="
  M 311.13 814.32
  A 0.32 0.31 -23.9 0 1 311.46 814.44
  L 410.08 954.92
  A 0.94 0.93 -45.4 0 1 410.08 955.98
  L 311.62 1097.74
  A 0.67 0.66 44.8 0 1 310.54 1097.74
  L 211.47 956.24
  A 1.03 1.03 0.0 0 1 211.47 955.04
  L 310.74 814.42
  A 0.13 0.12 -69.2 0 1 310.84 814.37
  Q 310.97 814.37 311.13 814.32
  Z"
/>
<path fill="#f7f3e7" d="
  M 510.67 814.16
  A 0.32 0.31 -23.9 0 1 511.00 814.28
  L 609.75 954.84
  A 0.95 0.93 -45.4 0 1 609.75 955.91
  L 511.26 1097.82
  A 0.67 0.66 44.8 0 1 510.17 1097.82
  L 410.98 956.23
  A 1.03 1.03 0.0 0 1 410.98 955.03
  L 510.28 814.26
  A 0.13 0.12 -69.2 0 1 510.38 814.21
  Q 510.51 814.21 510.67 814.16
  Z"
/>
<path fill="#f7f3e7" d="
  M 710.47 814.26
  A 0.32 0.31 -23.9 0 1 710.80 814.38
  L 809.51 954.93
  A 0.95 0.93 -45.4 0 1 809.51 956.00
  L 711.02 1097.86
  A 0.67 0.66 44.8 0 1 709.93 1097.86
  L 610.79 956.29
  A 1.03 1.03 0.0 0 1 610.79 955.09
  L 710.08 814.36
  A 0.13 0.12 -69.2 0 1 710.18 814.31
  Q 710.31 814.31 710.47 814.26
  Z"
/>
<path fill="#f7f3e7" d="
  M 910.09 814.26
  A 0.32 0.31 -23.9 0 1 910.42 814.38
  L 1009.12 954.87
  A 0.94 0.93 -45.4 0 1 1009.12 955.94
  L 910.67 1097.78
  A 0.67 0.66 44.8 0 1 909.59 1097.78
  L 810.45 956.26
  A 1.03 1.03 0.0 0 1 810.45 955.06
  L 909.71 814.36
  A 0.13 0.12 -69.2 0 1 909.81 814.31
  Q 909.94 814.31 910.09 814.26
  Z"
/>
<path fill="#f7f3e7" d="
  M 1109.96 814.15
  A 0.32 0.31 -23.9 0 1 1110.29 814.27
  L 1209.09 954.81
  A 0.95 0.93 -45.4 0 1 1209.09 955.88
  L 1110.63 1097.83
  A 0.67 0.66 44.8 0 1 1109.54 1097.83
  L 1010.30 956.26
  A 1.03 1.03 0.0 0 1 1010.30 955.06
  L 1109.57 814.25
  A 0.13 0.12 -69.2 0 1 1109.67 814.20
  Q 1109.80 814.20 1109.96 814.15
  Z"
/>
<path fill="#f7f3e7" d="
  M 1254.00 891.88
  L 1254.00 1018.74
  L 1210.22 956.30
  A 1.55 1.54 -44.8 0 1 1210.23 954.52
  L 1253.07 894.41
  A 2.06 1.79 -22.5 0 0 1253.29 893.97
  L 1254.00 891.88
  Z"
/>
<path fill="#f7f3e7" d="
  M 0.00 971.15
  L 0.00 939.96
  L 10.17 954.99
  A 1.13 1.13 0.0 0 1 10.17 956.27
  L 0.00 971.15
  Z"
/>
<path fill="#f7f3e7" d="
  M 1001.28 1254.00
  L 818.27 1254.00
  L 810.72 1243.01
  A 1.61 1.61 0.0 0 1 810.71 1241.20
  Q 814.24 1235.92 816.40 1232.90
  Q 870.35 1157.22 907.90 1102.90
  Q 908.50 1102.03 909.38 1100.45
  A 0.61 0.61 0.0 0 1 910.41 1100.39
  L 1008.56 1240.55
  A 2.10 2.08 -46.2 0 1 1008.60 1242.89
  L 1001.28 1254.00
  Z"
/>
<path fill="#f7f3e7" d="
  M 202.81 1254.00
  L 19.29 1254.00
  L 11.53 1242.35
  A 0.95 0.93 -44.5 0 1 11.55 1241.29
  Q 55.66 1179.79 107.96 1104.71
  Q 109.68 1102.25 110.57 1100.68
  A 0.94 0.93 -47.8 0 1 112.15 1100.60
  L 210.05 1240.39
  A 2.60 2.59 -45.5 0 1 210.07 1243.33
  L 202.81 1254.00
  Z"
/>
<path fill="#f7f3e7" d="
  M 402.29 1254.00
  L 219.29 1254.00
  L 211.78 1242.71
  A 1.61 1.61 0.0 0 1 211.81 1240.89
  L 310.72 1101.04
  A 0.68 0.68 0.0 0 1 311.84 1101.04
  L 409.46 1240.43
  A 2.38 2.37 44.3 0 1 409.50 1243.09
  L 402.29 1254.00
  Z"
/>
<path fill="#f7f3e7" d="
  M 602.00 1254.00
  L 418.97 1254.00
  L 411.39 1243.10
  A 1.99 1.99 0.0 0 1 411.40 1240.81
  L 510.56 1100.60
  A 0.44 0.43 44.7 0 1 511.27 1100.60
  L 609.55 1240.94
  A 1.54 1.53 -45.8 0 1 609.57 1242.66
  L 602.00 1254.00
  Z"
/>
<path fill="#f7f3e7" d="
  M 801.65 1254.00
  L 618.65 1254.00
  L 610.89 1242.82
  A 1.37 1.36 -44.8 0 1 610.90 1241.26
  L 710.38 1100.61
  A 0.39 0.39 0.0 0 1 711.02 1100.61
  L 809.50 1241.24
  A 0.96 0.96 0.0 0 1 809.51 1242.33
  L 801.65 1254.00
  Z"
/>
<path fill="#f7f3e7" d="
  M 1201.27 1254.00
  L 1017.82 1254.00
  L 1010.23 1242.83
  A 1.42 1.42 0.0 0 1 1010.24 1241.22
  C 1030.76 1212.23 1049.52 1186.56 1067.37 1160.76
  Q 1069.63 1157.50 1109.70 1100.28
  A 0.36 0.36 0.0 0 1 1110.28 1100.28
  Q 1139.71 1142.21 1141.77 1145.25
  Q 1145.32 1150.50 1173.37 1190.16
  Q 1191.11 1215.23 1208.46 1240.96
  A 1.89 1.88 -45.3 0 1 1208.47 1243.05
  L 1201.27 1254.00
  Z"
/>
<path fill="#f7f3e7" d="
  M 1254.00 1178.94
  L 1254.00 1254.00
  L 1218.05 1254.00
  L 1210.13 1242.71
  A 1.10 1.09 -45.3 0 1 1210.13 1241.44
  L 1254.00 1178.94
  Z"
/>
<path fill="#f7f3e7" d="
  M 2.37 1254.00
  L 0.00 1254.00
  L 0.00 1226.26
  L 10.21 1241.47
  A 0.84 0.83 -44.7 0 1 10.20 1242.39
  L 2.37 1254.00
  Z"
/>
</svg>
