<?xml version="1.0" encoding="UTF-8" standalone="no"?>
<!DOCTYPE svg PUBLIC "-//W3C//DTD SVG 1.1//EN" "http://www.w3.org/Graphics/SVG/1.1/DTD/svg11.dtd">
<svg xmlns="http://www.w3.org/2000/svg" version="1.1" viewBox="0.00 0.00 1773.00 1773.00">
<g stroke-width="2.00" fill="none" stroke-linecap="butt">
<path stroke="#326a47" vector-effect="non-scaling-stroke" d="
  M 147.75 0.00
  L 148.06 146.70
  A 0.89 0.88 -0.0 0 0 148.95 147.58
  L 294.86 147.86
  A 0.63 0.61 -15.5 0 1 295.39 148.15
  Q 295.48 148.28 295.57 148.46"
/>
<path stroke="#396e4c" vector-effect="non-scaling-stroke" d="
  M 295.57 148.46
  L 295.26 294.73"
/>
<path stroke="#235e3c" vector-effect="non-scaling-stroke" d="
  M 295.26 294.73
  C 295.00 295.05 294.60 295.28 294.16 295.23
  Q 290.19 294.80 288.00 294.93
  C 281.42 295.32 273.06 295.65 266.66 295.64
  Q 213.62 295.54 183.93 295.58
  C 171.17 295.60 159.24 296.34 148.17 295.61
  A 0.62 0.61 -88.5 0 1 147.59 294.99
  L 147.59 149.10
  A 0.94 0.93 -90.0 0 0 146.66 148.16
  L 0.00 147.82"
/>
<path stroke="#9fbca3" vector-effect="non-scaling-stroke" d="
  M 295.54 0.00
  L 295.50 147.66"
/>
<path stroke="#4e8963" vector-effect="non-scaling-stroke" d="
  M 295.50 147.66
  Q 295.67 147.52 295.57 148.46"
/>
<path stroke="#8aa08c" vector-effect="non-scaling-stroke" d="
  M 443.28 0.00
  L 443.26 147.25"
/>
<path stroke="#90b098" vector-effect="non-scaling-stroke" d="
  M 443.26 147.25
  Q 443.31 147.39 443.36 147.52"
/>
<path stroke="#a6c0a7" vector-effect="non-scaling-stroke" d="
  M 443.36 147.52
  L 295.50 147.66"
/>
<path stroke="#326a47" vector-effect="non-scaling-stroke" d="
  M 590.92 0.00
  L 591.03 146.70
  A 0.95 0.94 -0.0 0 0 591.98 147.64
  Q 658.86 147.82 718.95 147.62
  C 726.57 147.60 731.62 148.04 738.11 147.85
  Q 738.39 147.84 738.58 148.06
  Q 738.75 148.26 738.69 148.54"
/>
<path stroke="#396e4c" vector-effect="non-scaling-stroke" d="
  M 738.69 148.54
  L 738.79 294.52"
/>
<path stroke="#235e3c" vector-effect="non-scaling-stroke" d="
  M 738.79 294.52
  L 738.43 295.19
  A 0.78 0.77 -75.7 0 1 737.75 295.60
  L 591.78 295.60
  A 0.96 0.95 90.0 0 1 590.83 294.64
  L 590.83 148.25
  A 0.59 0.59 0.0 0 0 590.24 147.66
  Q 589.01 147.65 587.53 147.65
  Q 505.95 147.72 455.00 148.01
  Q 449.57 148.04 443.26 147.25"
/>
<path stroke="#9fbca3" vector-effect="non-scaling-stroke" d="
  M 738.81 0.00
  Q 738.87 73.63 738.79 147.26
  Q 738.79 147.50 739.22 147.75"
/>
<path stroke="#4e8963" vector-effect="non-scaling-stroke" d="
  M 739.22 147.75
  Q 738.86 148.06 738.69 148.54"
/>
<path stroke="#8aa08c" vector-effect="non-scaling-stroke" d="
  M 886.52 0.00
  L 886.52 146.99"
/>
<path stroke="#90b098" vector-effect="non-scaling-stroke" d="
  M 886.52 146.99
  Q 886.59 147.49 886.18 147.70"
/>
<path stroke="#a6c0a7" vector-effect="non-scaling-stroke" d="
  M 886.18 147.70
  L 739.22 147.75"
/>
<path stroke="#326a47" vector-effect="non-scaling-stroke" d="
  M 1034.29 0.00
  L 1034.26 147.40"
/>
<path stroke="#235e3c" vector-effect="non-scaling-stroke" d="
  M 1034.26 147.40
  Q 1034.41 147.82 1033.49 147.82
  Q 960.37 147.83 887.25 147.74
  Q 886.48 147.74 886.52 146.99"
/>
<path stroke="#9fbca3" vector-effect="non-scaling-stroke" d="
  M 1181.97 0.00
  L 1182.20 147.73"
/>
<path stroke="#4e8963" vector-effect="non-scaling-stroke" d="
  M 1182.20 147.73
  Q 1182.43 147.81 1182.42 148.10
  Q 1182.39 148.51 1181.99 148.50"
/>
<path stroke="#326a47" vector-effect="non-scaling-stroke" d="
  M 1181.99 148.50
  Q 1181.94 148.09 1181.53 147.87
  A 0.29 0.24 50.7 0 0 1181.43 147.85
  L 1034.67 147.66"
/>
<path stroke="#387953" vector-effect="non-scaling-stroke" d="
  M 1034.67 147.66
  Q 1034.40 147.81 1034.26 147.40"
/>
<path stroke="#8aa08c" vector-effect="non-scaling-stroke" d="
  M 1329.73 0.00
  L 1329.76 147.51"
/>
<path stroke="#a6c0a7" vector-effect="non-scaling-stroke" d="
  M 1329.76 147.51
  L 1182.20 147.73"
/>
<path stroke="#326a47" vector-effect="non-scaling-stroke" d="
  M 1477.58 0.00
  L 1477.50 147.10
  A 0.51 0.51 0.0 0 0 1478.01 147.61
  L 1625.24 147.77"
/>
<path stroke="#396e4c" vector-effect="non-scaling-stroke" d="
  M 1625.24 147.77
  L 1625.25 294.48"
/>
<path stroke="#235e3c" vector-effect="non-scaling-stroke" d="
  M 1625.25 294.48
  Q 1625.64 295.76 1623.25 295.66
  Q 1621.83 295.60 1621.70 295.60
  Q 1562.17 295.50 1478.03 295.53
  A 0.61 0.61 0.0 0 1 1477.42 294.92
  L 1477.42 148.47
  A 0.62 0.62 0.0 0 0 1476.80 147.85
  L 1329.90 147.68"
/>
<path stroke="#396e4c" vector-effect="non-scaling-stroke" d="
  M 1329.90 147.68
  Q 1330.21 147.72 1329.76 147.51"
/>
<path stroke="#9fbca3" vector-effect="non-scaling-stroke" d="
  M 1625.31 0.00
  L 1625.27 147.69"
/>
<path stroke="#4e8963" vector-effect="non-scaling-stroke" d="
  M 1625.27 147.69
  Q 1625.26 147.73 1625.24 147.77"
/>
<path stroke="#a6c0a7" vector-effect="non-scaling-stroke" d="
  M 1773.00 147.69
  L 1625.27 147.69"
/>
<path stroke="#3f7d58" vector-effect="non-scaling-stroke" d="
  M 738.79 294.52
  L 739.09 295.54"
/>
<path stroke="#90b098" vector-effect="non-scaling-stroke" d="
  M 739.09 295.54
  L 738.76 443.55"
/>
<path stroke="#387953" vector-effect="non-scaling-stroke" d="
  M 738.76 443.55
  Q 738.13 444.49 735.75 443.72
  Q 733.96 443.15 732.65 443.11
  C 722.55 442.82 713.67 443.41 702.38 443.41
  Q 615.05 443.39 598.00 443.31
  Q 595.71 443.30 590.91 442.76"
/>
<path stroke="#3f7d58" vector-effect="non-scaling-stroke" d="
  M 590.91 442.76
  L 590.85 296.05
  A 0.44 0.44 0.0 0 0 590.41 295.61
  L 443.32 295.81"
/>
<path stroke="#90b098" vector-effect="non-scaling-stroke" d="
  M 443.32 295.81
  Q 442.88 295.07 443.35 295.34"
/>
<path stroke="#3f7d58" vector-effect="non-scaling-stroke" d="
  M 443.35 295.34
  L 443.36 147.52"
/>
<path stroke="#235e3c" vector-effect="non-scaling-stroke" d="
  M 1034.67 147.66
  Q 1034.26 147.68 1034.26 148.07
  Q 1034.12 227.33 1034.29 294.79
  A 0.66 0.65 0.0 0 0 1034.95 295.44
  L 1182.13 295.50"
/>
<path stroke="#90b098" vector-effect="non-scaling-stroke" d="
  M 1182.13 295.50
  L 1181.98 443.39"
/>
<path stroke="#387953" vector-effect="non-scaling-stroke" d="
  M 1181.98 443.39
  L 1034.34 443.57"
/>
<path stroke="#235e3c" vector-effect="non-scaling-stroke" d="
  M 1034.34 443.57
  Q 1034.16 443.55 1033.93 443.13"
/>
<path stroke="#3f7d58" vector-effect="non-scaling-stroke" d="
  M 1033.93 443.13
  L 1034.06 296.34
  A 0.61 0.60 90.0 0 0 1033.46 295.73
  L 886.58 295.74"
/>
<path stroke="#90b098" vector-effect="non-scaling-stroke" d="
  M 886.58 295.74
  Q 886.36 295.58 886.30 295.31"
/>
<path stroke="#3f7d58" vector-effect="non-scaling-stroke" d="
  M 886.30 295.31
  L 886.18 147.70"
/>
<path stroke="#a6c0a7" vector-effect="non-scaling-stroke" d="
  M 443.35 295.34
  L 295.50 295.57"
/>
<path stroke="#3f7d58" vector-effect="non-scaling-stroke" d="
  M 295.50 295.57
  Q 295.50 295.02 295.26 294.73"
/>
<path stroke="#a6c0a7" vector-effect="non-scaling-stroke" d="
  M 886.30 295.31
  L 739.09 295.54"
/>
<path stroke="#396e4c" vector-effect="non-scaling-stroke" d="
  M 1181.99 148.50
  Q 1181.82 155.48 1181.85 162.50
  Q 1182.10 228.50 1181.99 294.51
  Q 1182.37 294.82 1182.13 295.50"
/>
<path stroke="#3f7d58" vector-effect="non-scaling-stroke" d="
  M 1329.90 147.68
  L 1329.82 295.74"
/>
<path stroke="#a6c0a7" vector-effect="non-scaling-stroke" d="
  M 1329.82 295.74
  L 1182.13 295.50"
/>
<path stroke="#a6c0a7" vector-effect="non-scaling-stroke" d="
  M 1773.00 295.48
  L 1625.37 295.51"
/>
<path stroke="#3f7d58" vector-effect="non-scaling-stroke" d="
  M 1625.37 295.51
  Q 1625.18 295.06 1625.25 294.48"
/>
<path stroke="#90b098" vector-effect="non-scaling-stroke" d="
  M 295.50 295.57
  L 295.52 443.55"
/>
<path stroke="#387953" vector-effect="non-scaling-stroke" d="
  M 295.52 443.55
  L 147.83 443.54"
/>
<path stroke="#235e3c" vector-effect="non-scaling-stroke" d="
  M 147.83 443.54
  Q 147.70 443.54 147.53 443.26"
/>
<path stroke="#3f7d58" vector-effect="non-scaling-stroke" d="
  M 147.53 443.26
  L 147.40 296.40
  A 0.51 0.50 -0.0 0 0 146.89 295.90
  L 0.00 295.71"
/>
<path stroke="#90b098" vector-effect="non-scaling-stroke" d="
  M 1625.37 295.51
  L 1625.31 443.25"
/>
<path stroke="#387953" vector-effect="non-scaling-stroke" d="
  M 1625.31 443.25
  L 1477.67 443.41"
/>
<path stroke="#235e3c" vector-effect="non-scaling-stroke" d="
  M 1477.67 443.41
  L 1477.25 443.30"
/>
<path stroke="#3f7d58" vector-effect="non-scaling-stroke" d="
  M 1477.25 443.30
  Q 1477.27 374.54 1477.55 305.75
  Q 1477.57 301.10 1477.10 296.33
  A 0.55 0.55 0.0 0 0 1476.55 295.84
  L 1329.82 295.74"
/>
<path stroke="#396e4c" vector-effect="non-scaling-stroke" d="
  M 147.53 443.26
  L 0.00 443.07"
/>
<path stroke="#a6c0a7" vector-effect="non-scaling-stroke" d="
  M 443.32 295.81
  L 443.28 443.16"
/>
<path stroke="#8aa08c" vector-effect="non-scaling-stroke" d="
  M 443.28 443.16
  L 443.30 590.95"
/>
<path stroke="#90b098" vector-effect="non-scaling-stroke" d="
  M 443.30 590.95
  Q 442.80 591.23 442.49 591.16"
/>
<path stroke="#a6c0a7" vector-effect="non-scaling-stroke" d="
  M 442.49 591.16
  L 295.51 590.93"
/>
<path stroke="#9fbca3" vector-effect="non-scaling-stroke" d="
  M 295.51 590.93
  L 295.52 443.55"
/>
<path stroke="#4e8963" vector-effect="non-scaling-stroke" d="
  M 590.91 442.76
  Q 590.42 442.78 589.89 443.06"
/>
<path stroke="#396e4c" vector-effect="non-scaling-stroke" d="
  M 589.89 443.06
  L 443.28 443.16"
/>
<path stroke="#a6c0a7" vector-effect="non-scaling-stroke" d="
  M 886.58 295.74
  L 886.53 443.20"
/>
<path stroke="#8aa08c" vector-effect="non-scaling-stroke" d="
  M 886.53 443.20
  L 886.53 590.03"
/>
<path stroke="#90b098" vector-effect="non-scaling-stroke" d="
  M 886.53 590.03
  L 886.54 591.08"
/>
<path stroke="#a6c0a7" vector-effect="non-scaling-stroke" d="
  M 886.54 591.08
  L 739.05 591.21"
/>
<path stroke="#8aa08c" vector-effect="non-scaling-stroke" d="
  M 739.05 591.21
  Q 738.91 591.03 738.72 590.92"
/>
<path stroke="#9fbca3" vector-effect="non-scaling-stroke" d="
  M 738.72 590.92
  L 738.76 443.55"
/>
<path stroke="#396e4c" vector-effect="non-scaling-stroke" d="
  M 1477.25 443.30
  L 1329.78 442.91"
/>
<path stroke="#a6c0a7" vector-effect="non-scaling-stroke" d="
  M 1329.78 442.91
  L 1329.82 295.74"
/>
<path stroke="#a6c0a7" vector-effect="non-scaling-stroke" d="
  M 1773.00 590.99
  L 1625.27 591.03"
/>
<path stroke="#8aa08c" vector-effect="non-scaling-stroke" d="
  M 1625.27 591.03
  Q 1625.32 590.99 1625.36 590.94"
/>
<path stroke="#9fbca3" vector-effect="non-scaling-stroke" d="
  M 1625.36 590.94
  L 1625.31 443.25"
/>
<path stroke="#396e4c" vector-effect="non-scaling-stroke" d="
  M 1033.93 443.13
  L 886.53 443.20"
/>
<path stroke="#8aa08c" vector-effect="non-scaling-stroke" d="
  M 1329.78 442.91
  L 1329.74 591.06"
/>
<path stroke="#a6c0a7" vector-effect="non-scaling-stroke" d="
  M 1329.74 591.06
  L 1181.94 590.93"
/>
<path stroke="#9fbca3" vector-effect="non-scaling-stroke" d="
  M 1181.94 590.93
  L 1181.98 443.39"
/>
<path stroke="#326a47" vector-effect="non-scaling-stroke" d="
  M 589.89 443.06
  Q 590.04 443.26 590.30 443.34
  A 0.84 0.84 0.0 0 1 590.89 444.13
  L 591.26 589.93
  A 0.85 0.85 0.0 0 0 592.11 590.78
  L 738.72 590.92"
/>
<path stroke="#396e4c" vector-effect="non-scaling-stroke" d="
  M 739.05 591.21
  L 739.06 738.55"
/>
<path stroke="#8aa08c" vector-effect="non-scaling-stroke" d="
  M 739.06 738.55
  Q 738.90 738.67 738.82 738.85"
/>
<path stroke="#235e3c" vector-effect="non-scaling-stroke" d="
  M 738.82 738.85
  Q 738.63 738.99 738.52 739.17
  A 0.50 0.49 -73.5 0 1 738.08 739.41
  L 591.84 738.72
  A 1.13 1.13 0.0 0 1 590.72 737.59
  L 590.72 592.39
  A 1.16 1.16 0.0 0 0 589.56 591.23
  L 443.30 590.95"
/>
<path stroke="#326a47" vector-effect="non-scaling-stroke" d="
  M 1034.34 443.57
  L 1034.50 590.28
  A 0.63 0.63 0.0 0 0 1035.13 590.91
  L 1181.94 590.93"
/>
<path stroke="#396e4c" vector-effect="non-scaling-stroke" d="
  M 1181.94 590.93
  L 1182.03 738.71"
/>
<path stroke="#8aa08c" vector-effect="non-scaling-stroke" d="
  M 1182.03 738.71
  Q 1182.02 738.84 1182.02 738.98"
/>
<path stroke="#235e3c" vector-effect="non-scaling-stroke" d="
  M 1182.02 738.98
  L 1033.98 739.03"
/>
<path stroke="#235e3c" vector-effect="non-scaling-stroke" d="
  M 1033.98 739.03
  L 1033.94 591.98
  A 0.82 0.82 0.0 0 0 1033.12 591.16
  L 887.83 591.16
  A 0.98 0.98 0.0 0 1 887.02 590.73
  L 886.53 590.03"
/>
<path stroke="#326a47" vector-effect="non-scaling-stroke" d="
  M 1477.67 443.41
  L 1477.74 590.27
  A 0.72 0.72 0.0 0 0 1478.46 590.99
  L 1625.36 590.94"
/>
<path stroke="#396e4c" vector-effect="non-scaling-stroke" d="
  M 1625.27 591.03
  L 1625.31 737.70"
/>
<path stroke="#235e3c" vector-effect="non-scaling-stroke" d="
  M 1625.31 737.70
  Q 1624.38 739.20 1620.61 739.07
  Q 1618.55 739.01 1618.39 739.01
  Q 1550.37 738.82 1477.85 738.92
  A 0.52 0.52 0.0 0 1 1477.33 738.40
  L 1477.33 591.73
  A 0.44 0.44 0.0 0 0 1476.89 591.29
  L 1329.98 590.97"
/>
<path stroke="#396e4c" vector-effect="non-scaling-stroke" d="
  M 1329.98 590.97
  Q 1329.86 591.02 1329.74 591.06"
/>
<path stroke="#326a47" vector-effect="non-scaling-stroke" d="
  M 147.83 443.54
  L 147.87 589.81
  A 1.04 1.03 89.7 0 0 148.90 590.84
  L 295.44 591.32"
/>
<path stroke="#396e4c" vector-effect="non-scaling-stroke" d="
  M 295.44 591.32
  L 295.65 738.72"
/>
<path stroke="#8aa08c" vector-effect="non-scaling-stroke" d="
  M 295.65 738.72
  Q 295.57 738.71 295.48 738.70"
/>
<path stroke="#235e3c" vector-effect="non-scaling-stroke" d="
  M 295.48 738.70
  L 148.35 738.86
  A 0.74 0.74 0.0 0 1 147.61 738.12
  L 147.61 591.63
  A 0.39 0.38 -0.0 0 0 147.22 591.25
  L 0.00 591.25"
/>
<path stroke="#4e8963" vector-effect="non-scaling-stroke" d="
  M 295.51 590.93
  L 295.44 591.32"
/>
<path stroke="#3f7d58" vector-effect="non-scaling-stroke" d="
  M 1033.98 739.03
  Q 967.74 738.81 901.55 738.94
  Q 901.48 738.94 894.47 738.70
  Q 890.49 738.57 886.51 739.07"
/>
<path stroke="#90b098" vector-effect="non-scaling-stroke" d="
  M 886.51 739.07
  Q 886.57 738.86 886.63 738.66"
/>
<path stroke="#3f7d58" vector-effect="non-scaling-stroke" d="
  M 886.63 738.66
  Q 886.76 731.66 886.54 724.54
  Q 886.23 714.78 886.26 710.45
  Q 886.54 664.03 886.24 617.62
  Q 886.22 614.61 886.56 604.37
  Q 886.78 597.71 886.54 591.08"
/>
<path stroke="#3f7d58" vector-effect="non-scaling-stroke" d="
  M 442.49 591.16
  Q 442.58 591.37 442.85 591.38
  A 0.32 0.32 0.0 0 1 443.16 591.70
  L 443.18 738.70"
/>
<path stroke="#a6c0a7" vector-effect="non-scaling-stroke" d="
  M 443.18 738.70
  L 295.65 738.72"
/>
<path stroke="#90b098" vector-effect="non-scaling-stroke" d="
  M 738.82 738.85
  L 738.80 886.83"
/>
<path stroke="#3f7d58" vector-effect="non-scaling-stroke" d="
  M 738.80 886.83
  Q 737.86 887.43 736.23 887.16
  Q 733.88 886.79 733.63 886.77
  C 721.61 886.03 708.82 886.59 697.67 886.56
  Q 644.26 886.38 590.92 886.84"
/>
<path stroke="#235e3c" vector-effect="non-scaling-stroke" d="
  M 590.92 886.84
  L 590.56 886.41"
/>
<path stroke="#3f7d58" vector-effect="non-scaling-stroke" d="
  M 590.56 886.41
  L 590.70 739.75
  A 0.89 0.89 0.0 0 0 589.81 738.86
  L 443.33 739.05"
/>
<path stroke="#90b098" vector-effect="non-scaling-stroke" d="
  M 443.33 739.05
  L 443.18 738.70"
/>
<path stroke="#3f7d58" vector-effect="non-scaling-stroke" d="
  M 1625.31 737.70
  L 1625.46 738.77"
/>
<path stroke="#90b098" vector-effect="non-scaling-stroke" d="
  M 1625.46 738.77
  L 1625.27 886.51"
/>
<path stroke="#3f7d58" vector-effect="non-scaling-stroke" d="
  M 1625.27 886.51
  L 1477.55 886.69"
/>
<path stroke="#235e3c" vector-effect="non-scaling-stroke" d="
  M 1477.55 886.69
  Q 1477.03 886.69 1477.05 886.45"
/>
<path stroke="#3f7d58" vector-effect="non-scaling-stroke" d="
  M 1477.05 886.45
  L 1477.19 739.07
  A 0.19 0.19 0.0 0 0 1477.00 738.88
  L 1330.38 738.88
  A 0.52 0.52 0.0 0 1 1329.86 738.36
  L 1329.98 590.97"
/>
<path stroke="#a6c0a7" vector-effect="non-scaling-stroke" d="
  M 1773.00 738.84
  L 1625.46 738.77"
/>
<path stroke="#90b098" vector-effect="non-scaling-stroke" d="
  M 295.48 738.70
  L 295.53 886.63"
/>
<path stroke="#3f7d58" vector-effect="non-scaling-stroke" d="
  M 295.53 886.63
  L 147.80 886.85"
/>
<path stroke="#235e3c" vector-effect="non-scaling-stroke" d="
  M 147.80 886.85
  L 147.34 886.50"
/>
<path stroke="#3f7d58" vector-effect="non-scaling-stroke" d="
  M 147.34 886.50
  Q 147.42 886.40 147.49 886.30
  A 0.27 0.24 -30.1 0 0 147.54 886.15
  L 147.60 739.45
  A 0.49 0.49 0.0 0 0 147.11 738.96
  L 0.00 738.92"
/>
<path stroke="#a6c0a7" vector-effect="non-scaling-stroke" d="
  M 886.63 738.66
  L 739.06 738.55"
/>
<path stroke="#396e4c" vector-effect="non-scaling-stroke" d="
  M 1477.05 886.45
  Q 1413.20 886.58 1349.50 886.64
  Q 1339.60 886.65 1329.78 885.96"
/>
<path stroke="#a6c0a7" vector-effect="non-scaling-stroke" d="
  M 1329.78 885.96
  L 1329.81 739.06
  A 0.33 0.33 0.0 0 0 1329.48 738.73
  L 1182.03 738.71"
/>
<path stroke="#396e4c" vector-effect="non-scaling-stroke" d="
  M 147.34 886.50
  L 0.00 886.48"
/>
<path stroke="#a6c0a7" vector-effect="non-scaling-stroke" d="
  M 443.33 739.05
  L 443.26 886.30"
/>
<path stroke="#8aa08c" vector-effect="non-scaling-stroke" d="
  M 443.26 886.30
  L 443.29 1033.97"
/>
<path stroke="#90b098" vector-effect="non-scaling-stroke" d="
  M 443.29 1033.97
  Q 443.23 1034.22 442.97 1034.29"
/>
<path stroke="#a6c0a7" vector-effect="non-scaling-stroke" d="
  M 442.97 1034.29
  L 296.04 1034.37
  A 0.51 0.51 0.0 0 1 295.53 1033.86
  L 295.53 886.63"
/>
<path stroke="#396e4c" vector-effect="non-scaling-stroke" d="
  M 590.56 886.41
  L 443.26 886.30"
/>
<path stroke="#a6c0a7" vector-effect="non-scaling-stroke" d="
  M 886.51 739.07
  L 886.50 885.86"
/>
<path stroke="#8aa08c" vector-effect="non-scaling-stroke" d="
  M 886.50 885.86
  L 886.48 1034.04"
/>
<path stroke="#90b098" vector-effect="non-scaling-stroke" d="
  M 886.48 1034.04
  L 886.27 1034.33"
/>
<path stroke="#a6c0a7" vector-effect="non-scaling-stroke" d="
  M 886.27 1034.33
  L 739.26 1034.31
  A 0.49 0.49 0.0 0 1 738.77 1033.82
  L 738.80 886.83"
/>
<path stroke="#3f7d58" vector-effect="non-scaling-stroke" d="
  M 1033.98 739.03
  Q 1034.04 812.36 1034.12 885.76
  Q 1034.12 886.19 1033.53 886.51"
/>
<path stroke="#396e4c" vector-effect="non-scaling-stroke" d="
  M 1033.53 886.51
  Q 936.01 886.45 905.25 886.60
  Q 894.22 886.65 886.50 885.86"
/>
<path stroke="#8aa08c" vector-effect="non-scaling-stroke" d="
  M 1329.78 885.96
  L 1329.76 1034.13"
/>
<path stroke="#a6c0a7" vector-effect="non-scaling-stroke" d="
  M 1329.76 1034.13
  L 1182.55 1034.37
  A 0.56 0.55 -0.0 0 1 1181.99 1033.82
  L 1182.01 887.06"
/>
<path stroke="#90b098" vector-effect="non-scaling-stroke" d="
  M 1182.01 887.06
  L 1182.02 738.98"
/>
<path stroke="#3f7d58" vector-effect="non-scaling-stroke" d="
  M 1182.01 887.06
  Q 1181.59 887.58 1179.59 886.73
  A 4.91 4.78 -32.7 0 0 1177.68 886.34
  L 1034.61 886.48
  A 0.24 0.23 19.7 0 0 1034.43 886.56
  Q 1034.20 886.86 1034.19 887.22"
/>
<path stroke="#235e3c" vector-effect="non-scaling-stroke" d="
  M 1034.19 887.22
  Q 1033.93 886.52 1033.53 886.51"
/>
<path stroke="#a6c0a7" vector-effect="non-scaling-stroke" d="
  M 1773.00 1034.26
  L 1625.22 1034.26"
/>
<path stroke="#8aa08c" vector-effect="non-scaling-stroke" d="
  M 1625.22 1034.26
  Q 1626.06 1034.19 1625.28 1034.04"
/>
<path stroke="#a6c0a7" vector-effect="non-scaling-stroke" d="
  M 1625.28 1034.04
  L 1625.27 886.51"
/>
<path stroke="#396e4c" vector-effect="non-scaling-stroke" d="
  M 1034.19 887.22
  L 1034.61 1033.36
  A 0.88 0.87 0.0 0 0 1035.49 1034.23
  L 1180.82 1034.23
  A 1.22 1.22 0.0 0 1 1182.04 1035.45
  L 1181.99 1182.04"
/>
<path stroke="#235e3c" vector-effect="non-scaling-stroke" d="
  M 1181.99 1182.04
  Q 1181.71 1182.72 1179.71 1182.10
  A 3.83 3.78 -36.4 0 0 1178.52 1181.93
  L 1034.05 1182.28
  A 0.10 0.10 0.0 0 1 1033.95 1182.18
  Q 1033.94 1182.14 1033.94 1182.10"
/>
<path stroke="#235e3c" vector-effect="non-scaling-stroke" d="
  M 1033.94 1182.10
  L 1034.07 1035.40
  A 0.58 0.57 0.5 0 0 1033.50 1034.83
  L 886.48 1034.04"
/>
<path stroke="#396e4c" vector-effect="non-scaling-stroke" d="
  M 1477.55 886.69
  L 1477.62 1033.68
  A 0.56 0.55 -90.0 0 0 1478.17 1034.24
  L 1625.28 1034.04"
/>
<path stroke="#396e4c" vector-effect="non-scaling-stroke" d="
  M 1625.22 1034.26
  L 1625.21 1172.21"
/>
<path stroke="#235e3c" vector-effect="non-scaling-stroke" d="
  M 1625.21 1172.21
  L 1625.07 1181.67
  A 0.60 0.60 0.0 0 1 1624.17 1182.18
  Q 1622.83 1181.38 1620.85 1181.59
  Q 1616.49 1182.07 1608.03 1182.09
  Q 1520.82 1182.25 1483.38 1182.12
  Q 1479.59 1182.10 1478.75 1182.29
  A 1.17 1.17 0.0 0 1 1477.33 1181.15
  L 1477.33 1035.29
  A 0.85 0.85 0.0 0 0 1476.48 1034.44
  L 1329.76 1034.13"
/>
<path stroke="#396e4c" vector-effect="non-scaling-stroke" d="
  M 590.92 886.84
  L 591.25 1033.54
  A 0.71 0.71 0.0 0 0 591.96 1034.25
  L 737.89 1034.25
  A 0.93 0.92 -0.0 0 1 738.82 1035.17
  L 738.82 1181.35
  A 0.38 0.31 39.0 0 0 738.85 1181.49
  Q 738.99 1181.76 739.13 1182.03"
/>
<path stroke="#8aa08c" vector-effect="non-scaling-stroke" d="
  M 739.13 1182.03
  Q 739.00 1182.20 738.80 1182.29"
/>
<path stroke="#235e3c" vector-effect="non-scaling-stroke" d="
  M 738.80 1182.29
  L 591.68 1182.18
  A 0.83 0.82 -0.0 0 1 590.85 1181.36
  L 590.85 1035.13
  A 0.48 0.48 0.0 0 0 590.39 1034.65
  Q 583.46 1034.37 579.75 1034.38
  Q 554.27 1034.46 444.09 1034.41
  Q 443.79 1034.41 443.29 1033.97"
/>
<path stroke="#3f7d58" vector-effect="non-scaling-stroke" d="
  M 886.27 1034.33
  L 886.76 1181.58
  A 0.45 0.45 0.0 0 0 887.21 1182.03
  L 1033.94 1182.10"
/>
<path stroke="#3f7d58" vector-effect="non-scaling-stroke" d="
  M 1033.94 1182.10
  Q 1034.25 1255.14 1033.60 1328.25
  Q 1033.60 1328.85 1033.29 1329.62"
/>
<path stroke="#396e4c" vector-effect="non-scaling-stroke" d="
  M 1033.29 1329.62
  L 886.53 1329.66"
/>
<path stroke="#a6c0a7" vector-effect="non-scaling-stroke" d="
  M 886.53 1329.66
  L 886.57 1182.58
  A 0.56 0.55 90.0 0 0 886.02 1182.02
  L 739.13 1182.03"
/>
<path stroke="#3f7d58" vector-effect="non-scaling-stroke" d="
  M 1329.76 1034.13
  L 1329.97 1181.43
  A 0.69 0.68 89.6 0 0 1330.65 1182.11
  L 1476.55 1182.11
  A 0.72 0.72 0.0 0 1 1477.27 1182.83
  Q 1477.13 1260.33 1477.26 1329.26
  Q 1477.26 1330.11 1476.70 1329.73"
/>
<path stroke="#396e4c" vector-effect="non-scaling-stroke" d="
  M 1476.70 1329.73
  L 1329.79 1329.75"
/>
<path stroke="#a6c0a7" vector-effect="non-scaling-stroke" d="
  M 1329.79 1329.75
  L 1329.84 1183.00
  A 0.90 0.90 0.0 0 0 1328.94 1182.10
  L 1182.25 1182.10"
/>
<path stroke="#3f7d58" vector-effect="non-scaling-stroke" d="
  M 1182.25 1182.10
  Q 1182.12 1182.07 1181.99 1182.04"
/>
<path stroke="#396e4c" vector-effect="non-scaling-stroke" d="
  M 147.80 886.85
  L 147.75 1033.72
  A 0.47 0.47 0.0 0 0 148.22 1034.19
  L 294.99 1034.19
  A 0.57 0.57 0.0 0 1 295.56 1034.76
  L 295.56 1181.70
  A 0.30 0.30 0.0 0 0 295.62 1181.88
  Q 295.70 1181.98 295.79 1182.09"
/>
<path stroke="#8aa08c" vector-effect="non-scaling-stroke" d="
  M 295.79 1182.09
  Q 295.38 1182.67 295.55 1183.20"
/>
<path stroke="#235e3c" vector-effect="non-scaling-stroke" d="
  M 295.55 1183.20
  Q 290.82 1182.13 286.00 1182.14
  Q 217.34 1182.29 148.39 1182.02
  A 0.79 0.79 0.0 0 1 147.60 1181.23
  L 147.60 1034.87
  A 0.47 0.46 0.0 0 0 147.13 1034.41
  L 0.33 1034.52
  A 0.11 0.10 -15.0 0 1 0.24 1034.47
  Q 0.12 1034.28 0.00 1034.33"
/>
<path stroke="#3f7d58" vector-effect="non-scaling-stroke" d="
  M 442.97 1034.29
  Q 442.90 1034.71 443.14 1035.28
  A 1.53 1.46 -57.8 0 1 443.26 1035.87
  L 442.94 1182.09"
/>
<path stroke="#a6c0a7" vector-effect="non-scaling-stroke" d="
  M 442.94 1182.09
  L 295.79 1182.09"
/>
<path stroke="#90b098" vector-effect="non-scaling-stroke" d="
  M 738.80 1182.29
  L 738.80 1330.22"
/>
<path stroke="#3f7d58" vector-effect="non-scaling-stroke" d="
  M 738.80 1330.22
  Q 738.37 1331.15 736.51 1330.11
  A 2.87 2.83 63.8 0 0 735.62 1329.80
  Q 730.97 1329.06 727.50 1329.21
  Q 709.60 1330.00 666.79 1329.91
  Q 595.95 1329.77 591.35 1329.53
  A 0.66 0.66 0.0 0 1 590.72 1328.87
  C 590.56 1303.04 590.92 1262.31 590.59 1227.87
  Q 590.36 1203.40 591.12 1183.31
  A 1.12 1.12 0.0 0 0 590.03 1182.14
  Q 583.55 1181.93 583.25 1181.93
  Q 513.21 1182.50 448.58 1181.86
  C 446.86 1181.85 445.05 1182.22 443.29 1182.42"
/>
<path stroke="#90b098" vector-effect="non-scaling-stroke" d="
  M 443.29 1182.42
  L 442.94 1182.09"
/>
<path stroke="#a6c0a7" vector-effect="non-scaling-stroke" d="
  M 1773.00 1182.10
  L 1625.29 1182.11"
/>
<path stroke="#3f7d58" vector-effect="non-scaling-stroke" d="
  M 1625.29 1182.11
  L 1625.21 1172.21"
/>
<path stroke="#90b098" vector-effect="non-scaling-stroke" d="
  M 295.55 1183.20
  L 295.54 1330.39"
/>
<path stroke="#3f7d58" vector-effect="non-scaling-stroke" d="
  M 295.54 1330.39
  Q 291.15 1329.83 285.50 1329.82
  Q 218.94 1329.80 152.39 1329.95
  Q 152.17 1329.95 150.15 1329.81
  Q 148.70 1329.72 147.95 1330.17"
/>
<path stroke="#235e3c" vector-effect="non-scaling-stroke" d="
  M 147.95 1330.17
  Q 147.57 1330.18 147.24 1329.78"
/>
<path stroke="#3f7d58" vector-effect="non-scaling-stroke" d="
  M 147.24 1329.78
  L 147.50 1182.75
  A 0.59 0.59 0.0 0 0 146.91 1182.15
  L 0.00 1182.06"
/>
<path stroke="#90b098" vector-effect="non-scaling-stroke" d="
  M 1625.29 1182.11
  L 1625.31 1329.04"
/>
<path stroke="#3f7d58" vector-effect="non-scaling-stroke" d="
  M 1625.31 1329.04
  L 1625.04 1329.89
  A 0.50 0.50 0.0 0 1 1624.37 1330.20
  Q 1623.32 1329.75 1622.50 1329.75
  Q 1550.38 1329.87 1478.36 1329.76
  Q 1477.92 1329.76 1477.70 1329.92
  Q 1477.41 1330.15 1477.42 1330.53"
/>
<path stroke="#235e3c" vector-effect="non-scaling-stroke" d="
  M 1477.42 1330.53
  L 1476.70 1329.73"
/>
<path stroke="#396e4c" vector-effect="non-scaling-stroke" d="
  M 147.24 1329.78
  L 0.00 1329.83"
/>
<path stroke="#8aa08c" vector-effect="non-scaling-stroke" d="
  M 886.53 1329.66
  L 886.53 1477.27"
/>
<path stroke="#90b098" vector-effect="non-scaling-stroke" d="
  M 886.53 1477.27
  Q 886.51 1477.41 886.48 1477.55"
/>
<path stroke="#a6c0a7" vector-effect="non-scaling-stroke" d="
  M 886.48 1477.55
  L 739.39 1477.55
  A 0.63 0.63 0.0 0 1 738.76 1476.92
  L 738.80 1330.22"
/>
<path stroke="#90b098" vector-effect="non-scaling-stroke" d="
  M 1182.25 1182.10
  L 1182.03 1329.95"
/>
<path stroke="#3f7d58" vector-effect="non-scaling-stroke" d="
  M 1182.03 1329.95
  Q 1181.82 1330.11 1181.67 1330.44
  A 0.52 0.51 31.4 0 1 1180.87 1330.63
  L 1180.30 1330.15
  A 1.45 1.42 65.3 0 0 1179.46 1329.83
  C 1176.73 1329.71 1174.31 1329.33 1171.57 1329.40
  C 1146.56 1330.05 1113.63 1329.79 1049.00 1329.86
  Q 1039.60 1329.87 1034.42 1330.30"
/>
<path stroke="#235e3c" vector-effect="non-scaling-stroke" d="
  M 1034.42 1330.30
  L 1033.29 1329.62"
/>
<path stroke="#a6c0a7" vector-effect="non-scaling-stroke" d="
  M 443.29 1182.42
  L 443.29 1329.24"
/>
<path stroke="#8aa08c" vector-effect="non-scaling-stroke" d="
  M 443.29 1329.24
  L 443.31 1477.22"
/>
<path stroke="#90b098" vector-effect="non-scaling-stroke" d="
  M 443.31 1477.22
  Q 443.31 1477.38 443.31 1477.53"
/>
<path stroke="#a6c0a7" vector-effect="non-scaling-stroke" d="
  M 443.31 1477.53
  L 296.18 1477.59
  A 0.64 0.64 0.0 0 1 295.54 1476.95
  L 295.54 1330.39"
/>
<path stroke="#3f7d58" vector-effect="non-scaling-stroke" d="
  M 886.48 1477.55
  L 886.07 1625.35"
/>
<path stroke="#a6c0a7" vector-effect="non-scaling-stroke" d="
  M 886.07 1625.35
  L 739.06 1625.36"
/>
<path stroke="#396e4c" vector-effect="non-scaling-stroke" d="
  M 739.06 1625.36
  Q 738.55 1622.44 738.68 1619.41
  Q 738.91 1614.29 738.91 1614.20
  Q 738.79 1557.35 738.87 1499.77
  C 738.88 1492.00 738.25 1485.62 738.78 1478.78
  A 1.12 1.12 0.0 0 0 737.66 1477.57
  L 592.36 1477.57
  A 1.25 1.24 -90.0 0 1 591.12 1476.32
  Q 591.05 1461.68 591.17 1345.00
  Q 591.19 1333.66 590.58 1330.22
  A 0.63 0.62 -4.0 0 0 589.99 1329.71
  Q 589.23 1329.68 451.50 1329.84
  Q 447.44 1329.84 443.29 1329.24"
/>
<path stroke="#8aa08c" vector-effect="non-scaling-stroke" d="
  M 1329.79 1329.75
  L 1329.79 1477.56"
/>
<path stroke="#a6c0a7" vector-effect="non-scaling-stroke" d="
  M 1329.79 1477.56
  L 1183.04 1477.62
  A 1.06 1.06 0.0 0 1 1181.98 1476.56
  L 1182.03 1329.95"
/>
<path stroke="#a6c0a7" vector-effect="non-scaling-stroke" d="
  M 1773.00 1477.57
  L 1625.29 1477.55"
/>
<path stroke="#8aa08c" vector-effect="non-scaling-stroke" d="
  M 1625.29 1477.55
  Q 1625.45 1477.56 1625.31 1477.17"
/>
<path stroke="#a6c0a7" vector-effect="non-scaling-stroke" d="
  M 1625.31 1477.17
  L 1625.31 1329.04"
/>
<path stroke="#8aa08c" vector-effect="non-scaling-stroke" d="
  M 739.06 1625.36
  Q 738.91 1625.38 738.75 1625.39"
/>
<path stroke="#235e3c" vector-effect="non-scaling-stroke" d="
  M 738.75 1625.39
  L 590.73 1625.48"
/>
<path stroke="#235e3c" vector-effect="non-scaling-stroke" d="
  M 590.73 1625.48
  L 590.67 1478.24
  A 0.60 0.60 0.0 0 0 590.07 1477.64
  L 443.31 1477.22"
/>
<path stroke="#396e4c" vector-effect="non-scaling-stroke" d="
  M 1625.31 1477.17
  Q 1622.48 1477.63 1621.35 1477.63
  Q 1563.17 1477.44 1503.00 1477.40
  Q 1487.30 1477.40 1478.71 1477.10
  A 1.04 1.04 0.0 0 1 1477.71 1476.06
  L 1477.42 1330.53"
/>
<path stroke="#396e4c" vector-effect="non-scaling-stroke" d="
  M 1034.42 1330.30
  L 1034.39 1476.74
  A 0.83 0.83 0.0 0 0 1035.22 1477.57
  L 1181.13 1477.57
  A 0.80 0.80 0.0 0 1 1181.93 1478.37
  L 1181.95 1624.28"
/>
<path stroke="#235e3c" vector-effect="non-scaling-stroke" d="
  M 1181.95 1624.28
  Q 1182.08 1624.86 1181.73 1625.24
  A 0.15 0.13 20.8 0 1 1181.63 1625.28
  L 1034.68 1625.36
  A 0.74 0.74 0.0 0 1 1033.94 1624.62
  L 1033.94 1478.31
  A 0.47 0.47 0.0 0 0 1033.47 1477.84
  Q 981.21 1477.39 923.83 1477.87
  Q 917.15 1477.93 905.18 1477.56
  Q 895.85 1477.27 886.53 1477.27"
/>
<path stroke="#396e4c" vector-effect="non-scaling-stroke" d="
  M 1625.29 1477.55
  L 1625.25 1625.04"
/>
<path stroke="#235e3c" vector-effect="non-scaling-stroke" d="
  M 1625.25 1625.04
  L 1477.94 1625.61
  A 0.95 0.95 0.0 0 1 1476.99 1624.66
  L 1476.99 1478.72
  A 0.84 0.84 0.0 0 0 1476.15 1477.88
  C 1472.57 1477.88 1469.24 1477.48 1465.61 1477.49
  Q 1397.70 1477.77 1329.68 1477.61"
/>
<path stroke="#396e4c" vector-effect="non-scaling-stroke" d="
  M 1329.68 1477.61
  Q 1329.74 1477.59 1329.79 1477.56"
/>
<path stroke="#3f7d58" vector-effect="non-scaling-stroke" d="
  M 1329.68 1477.61
  Q 1329.69 1541.67 1329.82 1606.00
  Q 1329.84 1615.91 1330.01 1618.75
  Q 1330.22 1622.23 1329.53 1625.37"
/>
<path stroke="#a6c0a7" vector-effect="non-scaling-stroke" d="
  M 1329.53 1625.37
  L 1182.29 1625.38"
/>
<path stroke="#3f7d58" vector-effect="non-scaling-stroke" d="
  M 1182.29 1625.38
  Q 1182.42 1624.15 1181.95 1624.28"
/>
<path stroke="#396e4c" vector-effect="non-scaling-stroke" d="
  M 147.95 1330.17
  Q 147.83 1396.28 147.71 1462.25
  Q 147.70 1467.78 148.12 1476.49
  A 1.12 1.12 0.0 0 0 149.24 1477.56
  L 294.88 1477.56
  A 0.60 0.60 0.0 0 1 295.48 1478.16
  L 295.40 1625.15"
/>
<path stroke="#235e3c" vector-effect="non-scaling-stroke" d="
  M 295.40 1625.15
  L 148.21 1625.55
  A 0.79 0.79 0.0 0 1 147.42 1624.76
  L 147.42 1479.12
  A 1.15 1.14 0.3 0 0 146.28 1477.98
  L 0.00 1477.50"
/>
<path stroke="#3f7d58" vector-effect="non-scaling-stroke" d="
  M 443.31 1477.53
  L 443.12 1625.31"
/>
<path stroke="#a6c0a7" vector-effect="non-scaling-stroke" d="
  M 443.12 1625.31
  L 295.50 1625.32"
/>
<path stroke="#3f7d58" vector-effect="non-scaling-stroke" d="
  M 295.50 1625.32
  Q 295.45 1625.24 295.40 1625.15"
/>
<path stroke="#3f7d58" vector-effect="non-scaling-stroke" d="
  M 590.73 1625.48
  L 443.64 1625.45
  A 0.19 0.17 -76.6 0 0 443.48 1625.56
  Q 443.43 1625.67 443.38 1625.79"
/>
<path stroke="#90b098" vector-effect="non-scaling-stroke" d="
  M 443.38 1625.79
  Q 443.24 1625.74 443.12 1625.31"
/>
<path stroke="#90b098" vector-effect="non-scaling-stroke" d="
  M 1182.29 1625.38
  Q 1182.32 1624.95 1182.04 1625.45
  A 0.48 0.38 -38.7 0 0 1182.00 1625.63
  L 1181.99 1773.00"
/>
<path stroke="#3f7d58" vector-effect="non-scaling-stroke" d="
  M 1034.14 1773.00
  L 1034.09 1626.44
  A 0.88 0.88 0.0 0 0 1033.20 1625.56
  L 886.71 1625.72"
/>
<path stroke="#90b098" vector-effect="non-scaling-stroke" d="
  M 886.71 1625.72
  Q 886.59 1625.44 886.07 1625.35"
/>
<path stroke="#90b098" vector-effect="non-scaling-stroke" d="
  M 295.50 1625.32
  L 295.52 1773.00"
/>
<path stroke="#3f7d58" vector-effect="non-scaling-stroke" d="
  M 147.65 1773.00
  L 147.38 1626.22
  A 0.56 0.56 0.0 0 0 146.82 1625.66
  L 0.00 1625.37"
/>
<path stroke="#3f7d58" vector-effect="non-scaling-stroke" d="
  M 1625.25 1625.04
  Q 1625.27 1625.20 1625.29 1625.37"
/>
<path stroke="#90b098" vector-effect="non-scaling-stroke" d="
  M 1625.29 1625.37
  L 1625.30 1773.00"
/>
<path stroke="#3f7d58" vector-effect="non-scaling-stroke" d="
  M 1477.25 1773.00
  L 1477.27 1626.03
  A 0.49 0.48 0.0 0 0 1476.78 1625.55
  Q 1403.82 1625.33 1330.66 1625.43
  Q 1330.58 1625.43 1330.36 1625.38
  Q 1330.02 1625.30 1329.87 1625.77"
/>
<path stroke="#90b098" vector-effect="non-scaling-stroke" d="
  M 1329.87 1625.77
  Q 1329.69 1625.45 1329.53 1625.37"
/>
<path stroke="#a6c0a7" vector-effect="non-scaling-stroke" d="
  M 1773.00 1625.38
  L 1625.29 1625.37"
/>
<path stroke="#90b098" vector-effect="non-scaling-stroke" d="
  M 738.75 1625.39
  L 738.77 1773.00"
/>
<path stroke="#3f7d58" vector-effect="non-scaling-stroke" d="
  M 590.89 1773.00
  L 590.73 1625.48"
/>
<path stroke="#a6c0a7" vector-effect="non-scaling-stroke" d="
  M 443.38 1625.79
  L 443.26 1773.00"
/>
<path stroke="#a6c0a7" vector-effect="non-scaling-stroke" d="
  M 886.71 1625.72
  L 886.47 1773.00"
/>
<path stroke="#a6c0a7" vector-effect="non-scaling-stroke" d="
  M 1329.87 1625.77
  L 1329.71 1773.00"
/>
</g>
<path fill="#1c4e30" d="
  M 147.75 0.00
  L 148.06 146.70
  A 0.89 0.88 -0.0 0 0 148.95 147.58
  L 294.86 147.86
  A 0.63 0.61 -15.5 0 1 295.39 148.15
  Q 295.48 148.28 295.57 148.46
  L 295.26 294.73
  C 295.00 295.05 294.60 295.28 294.16 295.23
  Q 290.19 294.80 288.00 294.93
  C 281.42 295.32 273.06 295.65 266.66 295.64
  Q 213.62 295.54 183.93 295.58
  C 171.17 295.60 159.24 296.34 148.17 295.61
  A 0.62 0.61 -88.5 0 1 147.59 294.99
  L 147.59 149.10
  A 0.94 0.93 -90.0 0 0 146.66 148.16
  L 0.00 147.82
  L 0.00 0.00
  L 147.75 0.00
  Z"
/>
<path fill="#47855e" d="
  M 295.54 0.00
  L 295.50 147.66
  Q 295.67 147.52 295.57 148.46
  Q 295.48 148.28 295.39 148.15
  A 0.63 0.61 -15.5 0 0 294.86 147.86
  L 148.95 147.58
  A 0.89 0.88 -0.0 0 1 148.06 146.70
  L 147.75 0.00
  L 295.54 0.00
  Z"
/>
<path fill="#f7f2e7" d="
  M 443.28 0.00
  L 443.26 147.25
  Q 443.31 147.39 443.36 147.52
  L 295.50 147.66
  L 295.54 0.00
  L 443.28 0.00
  Z"
/>
<path fill="#1c4e30" d="
  M 590.92 0.00
  L 591.03 146.70
  A 0.95 0.94 -0.0 0 0 591.98 147.64
  Q 658.86 147.82 718.95 147.62
  C 726.57 147.60 731.62 148.04 738.11 147.85
  Q 738.39 147.84 738.58 148.06
  Q 738.75 148.26 738.69 148.54
  L 738.79 294.52
  L 738.43 295.19
  A 0.78 0.77 -75.7 0 1 737.75 295.60
  L 591.78 295.60
  A 0.96 0.95 90.0 0 1 590.83 294.64
  L 590.83 148.25
  A 0.59 0.59 0.0 0 0 590.24 147.66
  Q 589.01 147.65 587.53 147.65
  Q 505.95 147.72 455.00 148.01
  Q 449.57 148.04 443.26 147.25
  L 443.28 0.00
  L 590.92 0.00
  Z"
/>
<path fill="#47855e" d="
  M 738.81 0.00
  Q 738.87 73.63 738.79 147.26
  Q 738.79 147.50 739.22 147.75
  Q 738.86 148.06 738.69 148.54
  Q 738.75 148.26 738.58 148.06
  Q 738.39 147.84 738.11 147.85
  C 731.62 148.04 726.57 147.60 718.95 147.62
  Q 658.86 147.82 591.98 147.64
  A 0.95 0.94 -0.0 0 1 591.03 146.70
  L 590.92 0.00
  L 738.81 0.00
  Z"
/>
<path fill="#f7f2e7" d="
  M 886.52 0.00
  L 886.52 146.99
  Q 886.59 147.49 886.18 147.70
  L 739.22 147.75
  Q 738.79 147.50 738.79 147.26
  Q 738.87 73.63 738.81 0.00
  L 886.52 0.00
  Z"
/>
<path fill="#1c4e30" d="
  M 1034.29 0.00
  L 1034.26 147.40
  Q 1034.41 147.82 1033.49 147.82
  Q 960.37 147.83 887.25 147.74
  Q 886.48 147.74 886.52 146.99
  L 886.52 0.00
  L 1034.29 0.00
  Z"
/>
<path fill="#47855e" d="
  M 1181.97 0.00
  L 1182.20 147.73
  Q 1182.43 147.81 1182.42 148.10
  Q 1182.39 148.51 1181.99 148.50
  Q 1181.94 148.09 1181.53 147.87
  A 0.29 0.24 50.7 0 0 1181.43 147.85
  L 1034.67 147.66
  Q 1034.40 147.81 1034.26 147.40
  L 1034.29 0.00
  L 1181.97 0.00
  Z"
/>
<path fill="#f7f2e7" d="
  M 1329.73 0.00
  L 1329.76 147.51
  L 1182.20 147.73
  L 1181.97 0.00
  L 1329.73 0.00
  Z"
/>
<path fill="#1c4e30" d="
  M 1477.58 0.00
  L 1477.50 147.10
  A 0.51 0.51 0.0 0 0 1478.01 147.61
  L 1625.24 147.77
  L 1625.25 294.48
  Q 1625.64 295.76 1623.25 295.66
  Q 1621.83 295.60 1621.70 295.60
  Q 1562.17 295.50 1478.03 295.53
  A 0.61 0.61 0.0 0 1 1477.42 294.92
  L 1477.42 148.47
  A 0.62 0.62 0.0 0 0 1476.80 147.85
  L 1329.90 147.68
  Q 1330.21 147.72 1329.76 147.51
  L 1329.73 0.00
  L 1477.58 0.00
  Z"
/>
<path fill="#47855e" d="
  M 1625.31 0.00
  L 1625.27 147.69
  Q 1625.26 147.73 1625.24 147.77
  L 1478.01 147.61
  A 0.51 0.51 0.0 0 1 1477.50 147.10
  L 1477.58 0.00
  L 1625.31 0.00
  Z"
/>
<path fill="#f7f2e7" d="
  M 1773.00 0.00
  L 1773.00 147.69
  L 1625.27 147.69
  L 1625.31 0.00
  L 1773.00 0.00
  Z"
/>
<path fill="#296d48" d="
  M 738.79 294.52
  L 739.09 295.54
  L 738.76 443.55
  Q 738.13 444.49 735.75 443.72
  Q 733.96 443.15 732.65 443.11
  C 722.55 442.82 713.67 443.41 702.38 443.41
  Q 615.05 443.39 598.00 443.31
  Q 595.71 443.30 590.91 442.76
  L 590.85 296.05
  A 0.44 0.44 0.0 0 0 590.41 295.61
  L 443.32 295.81
  Q 442.88 295.07 443.35 295.34
  L 443.36 147.52
  Q 443.31 147.39 443.26 147.25
  Q 449.57 148.04 455.00 148.01
  Q 505.95 147.72 587.53 147.65
  Q 589.01 147.65 590.24 147.66
  A 0.59 0.59 0.0 0 1 590.83 148.25
  L 590.83 294.64
  A 0.96 0.95 -90.0 0 0 591.78 295.60
  L 737.75 295.60
  A 0.78 0.77 -75.7 0 0 738.43 295.19
  L 738.79 294.52
  Z"
/>
<path fill="#296d48" d="
  M 1034.26 147.40
  Q 1034.40 147.81 1034.67 147.66
  Q 1034.26 147.68 1034.26 148.07
  Q 1034.12 227.33 1034.29 294.79
  A 0.66 0.65 0.0 0 0 1034.95 295.44
  L 1182.13 295.50
  L 1181.98 443.39
  L 1034.34 443.57
  Q 1034.16 443.55 1033.93 443.13
  L 1034.06 296.34
  A 0.61 0.60 90.0 0 0 1033.46 295.73
  L 886.58 295.74
  Q 886.36 295.58 886.30 295.31
  L 886.18 147.70
  Q 886.59 147.49 886.52 146.99
  Q 886.48 147.74 887.25 147.74
  Q 960.37 147.83 1033.49 147.82
  Q 1034.41 147.82 1034.26 147.40
  Z"
/>
<path fill="#558d67" d="
  M 443.36 147.52
  L 443.35 295.34
  L 295.50 295.57
  Q 295.50 295.02 295.26 294.73
  L 295.57 148.46
  Q 295.67 147.52 295.50 147.66
  L 443.36 147.52
  Z"
/>
<path fill="#558d67" d="
  M 886.18 147.70
  L 886.30 295.31
  L 739.09 295.54
  L 738.79 294.52
  L 738.69 148.54
  Q 738.86 148.06 739.22 147.75
  L 886.18 147.70
  Z"
/>
<path fill="#1c4e30" d="
  M 1181.99 148.50
  Q 1181.82 155.48 1181.85 162.50
  Q 1182.10 228.50 1181.99 294.51
  Q 1182.37 294.82 1182.13 295.50
  L 1034.95 295.44
  A 0.66 0.65 -0.0 0 1 1034.29 294.79
  Q 1034.12 227.33 1034.26 148.07
  Q 1034.26 147.68 1034.67 147.66
  L 1181.43 147.85
  A 0.29 0.24 50.7 0 1 1181.53 147.87
  Q 1181.94 148.09 1181.99 148.50
  Z"
/>
<path fill="#558d67" d="
  M 1329.76 147.51
  Q 1330.21 147.72 1329.90 147.68
  L 1329.82 295.74
  L 1182.13 295.50
  Q 1182.37 294.82 1181.99 294.51
  Q 1182.10 228.50 1181.85 162.50
  Q 1181.82 155.48 1181.99 148.50
  Q 1182.39 148.51 1182.42 148.10
  Q 1182.43 147.81 1182.20 147.73
  L 1329.76 147.51
  Z"
/>
<path fill="#558d67" d="
  M 1773.00 147.69
  L 1773.00 295.48
  L 1625.37 295.51
  Q 1625.18 295.06 1625.25 294.48
  L 1625.24 147.77
  Q 1625.26 147.73 1625.27 147.69
  L 1773.00 147.69
  Z"
/>
<path fill="#296d48" d="
  M 295.26 294.73
  Q 295.50 295.02 295.50 295.57
  L 295.52 443.55
  L 147.83 443.54
  Q 147.70 443.54 147.53 443.26
  L 147.40 296.40
  A 0.51 0.50 -0.0 0 0 146.89 295.90
  L 0.00 295.71
  L 0.00 147.82
  L 146.66 148.16
  A 0.94 0.93 -90.0 0 1 147.59 149.10
  L 147.59 294.99
  A 0.62 0.61 -88.5 0 0 148.17 295.61
  C 159.24 296.34 171.17 295.60 183.93 295.58
  Q 213.62 295.54 266.66 295.64
  C 273.06 295.65 281.42 295.32 288.00 294.93
  Q 290.19 294.80 294.16 295.23
  C 294.60 295.28 295.00 295.05 295.26 294.73
  Z"
/>
<path fill="#296d48" d="
  M 1625.25 294.48
  Q 1625.18 295.06 1625.37 295.51
  L 1625.31 443.25
  L 1477.67 443.41
  L 1477.25 443.30
  Q 1477.27 374.54 1477.55 305.75
  Q 1477.57 301.10 1477.10 296.33
  A 0.55 0.55 0.0 0 0 1476.55 295.84
  L 1329.82 295.74
  L 1329.90 147.68
  L 1476.80 147.85
  A 0.62 0.62 0.0 0 1 1477.42 148.47
  L 1477.42 294.92
  A 0.61 0.61 0.0 0 0 1478.03 295.53
  Q 1562.17 295.50 1621.70 295.60
  Q 1621.83 295.60 1623.25 295.66
  Q 1625.64 295.76 1625.25 294.48
  Z"
/>
<path fill="#558d67" d="
  M 147.53 443.26
  L 0.00 443.07
  L 0.00 295.71
  L 146.89 295.90
  A 0.51 0.50 0.0 0 1 147.40 296.40
  L 147.53 443.26
  Z"
/>
<path fill="#f7f2e7" d="
  M 443.35 295.34
  Q 442.88 295.07 443.32 295.81
  L 443.28 443.16
  L 443.30 590.95
  Q 442.80 591.23 442.49 591.16
  L 295.51 590.93
  L 295.52 443.55
  L 295.50 295.57
  L 443.35 295.34
  Z"
/>
<path fill="#558d67" d="
  M 590.91 442.76
  Q 590.42 442.78 589.89 443.06
  L 443.28 443.16
  L 443.32 295.81
  L 590.41 295.61
  A 0.44 0.44 0.0 0 1 590.85 296.05
  L 590.91 442.76
  Z"
/>
<path fill="#f7f2e7" d="
  M 886.30 295.31
  Q 886.36 295.58 886.58 295.74
  L 886.53 443.20
  L 886.53 590.03
  L 886.54 591.08
  L 739.05 591.21
  Q 738.91 591.03 738.72 590.92
  L 738.76 443.55
  L 739.09 295.54
  L 886.30 295.31
  Z"
/>
<path fill="#558d67" d="
  M 1477.25 443.30
  L 1329.78 442.91
  L 1329.82 295.74
  L 1476.55 295.84
  A 0.55 0.55 0.0 0 1 1477.10 296.33
  Q 1477.57 301.10 1477.55 305.75
  Q 1477.27 374.54 1477.25 443.30
  Z"
/>
<path fill="#f7f2e7" d="
  M 1773.00 295.48
  L 1773.00 590.99
  L 1625.27 591.03
  Q 1625.32 590.99 1625.36 590.94
  L 1625.31 443.25
  L 1625.37 295.51
  L 1773.00 295.48
  Z"
/>
<path fill="#558d67" d="
  M 1033.93 443.13
  L 886.53 443.20
  L 886.58 295.74
  L 1033.46 295.73
  A 0.61 0.60 90.0 0 1 1034.06 296.34
  L 1033.93 443.13
  Z"
/>
<path fill="#f7f2e7" d="
  M 1329.82 295.74
  L 1329.78 442.91
  L 1329.74 591.06
  L 1181.94 590.93
  L 1181.98 443.39
  L 1182.13 295.50
  L 1329.82 295.74
  Z"
/>
<path fill="#1c4e30" d="
  M 589.89 443.06
  Q 590.04 443.26 590.30 443.34
  A 0.84 0.84 0.0 0 1 590.89 444.13
  L 591.26 589.93
  A 0.85 0.85 0.0 0 0 592.11 590.78
  L 738.72 590.92
  Q 738.91 591.03 739.05 591.21
  L 739.06 738.55
  Q 738.90 738.67 738.82 738.85
  Q 738.63 738.99 738.52 739.17
  A 0.50 0.49 -73.5 0 1 738.08 739.41
  L 591.84 738.72
  A 1.13 1.13 0.0 0 1 590.72 737.59
  L 590.72 592.39
  A 1.16 1.16 0.0 0 0 589.56 591.23
  L 443.30 590.95
  L 443.28 443.16
  L 589.89 443.06
  Z"
/>
<path fill="#1c4e30" d="
  M 1033.93 443.13
  Q 1034.16 443.55 1034.34 443.57
  L 1034.50 590.28
  A 0.63 0.63 0.0 0 0 1035.13 590.91
  L 1181.94 590.93
  L 1182.03 738.71
  Q 1182.02 738.84 1182.02 738.98
  L 1033.98 739.03
  L 1033.94 591.98
  A 0.82 0.82 0.0 0 0 1033.12 591.16
  L 887.83 591.16
  A 0.98 0.98 0.0 0 1 887.02 590.73
  L 886.53 590.03
  L 886.53 443.20
  L 1033.93 443.13
  Z"
/>
<path fill="#47855e" d="
  M 590.91 442.76
  Q 595.71 443.30 598.00 443.31
  Q 615.05 443.39 702.38 443.41
  C 713.67 443.41 722.55 442.82 732.65 443.11
  Q 733.96 443.15 735.75 443.72
  Q 738.13 444.49 738.76 443.55
  L 738.72 590.92
  L 592.11 590.78
  A 0.85 0.85 0.0 0 1 591.26 589.93
  L 590.89 444.13
  A 0.84 0.84 0.0 0 0 590.30 443.34
  Q 590.04 443.26 589.89 443.06
  Q 590.42 442.78 590.91 442.76
  Z"
/>
<path fill="#1c4e30" d="
  M 1477.25 443.30
  L 1477.67 443.41
  L 1477.74 590.27
  A 0.72 0.72 0.0 0 0 1478.46 590.99
  L 1625.36 590.94
  Q 1625.32 590.99 1625.27 591.03
  L 1625.31 737.70
  Q 1624.38 739.20 1620.61 739.07
  Q 1618.55 739.01 1618.39 739.01
  Q 1550.37 738.82 1477.85 738.92
  A 0.52 0.52 0.0 0 1 1477.33 738.40
  L 1477.33 591.73
  A 0.44 0.44 0.0 0 0 1476.89 591.29
  L 1329.98 590.97
  Q 1329.86 591.02 1329.74 591.06
  L 1329.78 442.91
  L 1477.25 443.30
  Z"
/>
<path fill="#1c4e30" d="
  M 147.53 443.26
  Q 147.70 443.54 147.83 443.54
  L 147.87 589.81
  A 1.04 1.03 89.7 0 0 148.90 590.84
  L 295.44 591.32
  L 295.65 738.72
  Q 295.57 738.71 295.48 738.70
  L 148.35 738.86
  A 0.74 0.74 0.0 0 1 147.61 738.12
  L 147.61 591.63
  A 0.39 0.38 -0.0 0 0 147.22 591.25
  L 0.00 591.25
  L 0.00 443.07
  L 147.53 443.26
  Z"
/>
<path fill="#47855e" d="
  M 1625.31 443.25
  L 1625.36 590.94
  L 1478.46 590.99
  A 0.72 0.72 0.0 0 1 1477.74 590.27
  L 1477.67 443.41
  L 1625.31 443.25
  Z"
/>
<path fill="#47855e" d="
  M 295.52 443.55
  L 295.51 590.93
  L 295.44 591.32
  L 148.90 590.84
  A 1.04 1.03 89.7 0 1 147.87 589.81
  L 147.83 443.54
  L 295.52 443.55
  Z"
/>
<path fill="#47855e" d="
  M 1181.98 443.39
  L 1181.94 590.93
  L 1035.13 590.91
  A 0.63 0.63 0.0 0 1 1034.50 590.28
  L 1034.34 443.57
  L 1181.98 443.39
  Z"
/>
<path fill="#296d48" d="
  M 1033.98 739.03
  Q 967.74 738.81 901.55 738.94
  Q 901.48 738.94 894.47 738.70
  Q 890.49 738.57 886.51 739.07
  Q 886.57 738.86 886.63 738.66
  Q 886.76 731.66 886.54 724.54
  Q 886.23 714.78 886.26 710.45
  Q 886.54 664.03 886.24 617.62
  Q 886.22 614.61 886.56 604.37
  Q 886.78 597.71 886.54 591.08
  L 886.53 590.03
  L 887.02 590.73
  A 0.98 0.98 0.0 0 0 887.83 591.16
  L 1033.12 591.16
  A 0.82 0.82 0.0 0 1 1033.94 591.98
  L 1033.98 739.03
  Z"
/>
<path fill="#558d67" d="
  M 442.49 591.16
  Q 442.58 591.37 442.85 591.38
  A 0.32 0.32 0.0 0 1 443.16 591.70
  L 443.18 738.70
  L 295.65 738.72
  L 295.44 591.32
  L 295.51 590.93
  L 442.49 591.16
  Z"
/>
<path fill="#296d48" d="
  M 738.82 738.85
  L 738.80 886.83
  Q 737.86 887.43 736.23 887.16
  Q 733.88 886.79 733.63 886.77
  C 721.61 886.03 708.82 886.59 697.67 886.56
  Q 644.26 886.38 590.92 886.84
  L 590.56 886.41
  L 590.70 739.75
  A 0.89 0.89 0.0 0 0 589.81 738.86
  L 443.33 739.05
  L 443.18 738.70
  L 443.16 591.70
  A 0.32 0.32 0.0 0 0 442.85 591.38
  Q 442.58 591.37 442.49 591.16
  Q 442.80 591.23 443.30 590.95
  L 589.56 591.23
  A 1.16 1.16 0.0 0 1 590.72 592.39
  L 590.72 737.59
  A 1.13 1.13 0.0 0 0 591.84 738.72
  L 738.08 739.41
  A 0.50 0.49 -73.5 0 0 738.52 739.17
  Q 738.63 738.99 738.82 738.85
  Z"
/>
<path fill="#296d48" d="
  M 1625.31 737.70
  L 1625.46 738.77
  L 1625.27 886.51
  L 1477.55 886.69
  Q 1477.03 886.69 1477.05 886.45
  L 1477.19 739.07
  A 0.19 0.19 0.0 0 0 1477.00 738.88
  L 1330.38 738.88
  A 0.52 0.52 0.0 0 1 1329.86 738.36
  L 1329.98 590.97
  L 1476.89 591.29
  A 0.44 0.44 0.0 0 1 1477.33 591.73
  L 1477.33 738.40
  A 0.52 0.52 0.0 0 0 1477.85 738.92
  Q 1550.37 738.82 1618.39 739.01
  Q 1618.55 739.01 1620.61 739.07
  Q 1624.38 739.20 1625.31 737.70
  Z"
/>
<path fill="#558d67" d="
  M 1773.00 590.99
  L 1773.00 738.84
  L 1625.46 738.77
  L 1625.31 737.70
  L 1625.27 591.03
  L 1773.00 590.99
  Z"
/>
<path fill="#296d48" d="
  M 295.48 738.70
  L 295.53 886.63
  L 147.80 886.85
  L 147.34 886.50
  Q 147.42 886.40 147.49 886.30
  A 0.27 0.24 -30.1 0 0 147.54 886.15
  L 147.60 739.45
  A 0.49 0.49 0.0 0 0 147.11 738.96
  L 0.00 738.92
  L 0.00 591.25
  L 147.22 591.25
  A 0.39 0.38 -0.0 0 1 147.61 591.63
  L 147.61 738.12
  A 0.74 0.74 0.0 0 0 148.35 738.86
  L 295.48 738.70
  Z"
/>
<path fill="#558d67" d="
  M 886.54 591.08
  Q 886.78 597.71 886.56 604.37
  Q 886.22 614.61 886.24 617.62
  Q 886.54 664.03 886.26 710.45
  Q 886.23 714.78 886.54 724.54
  Q 886.76 731.66 886.63 738.66
  L 739.06 738.55
  L 739.05 591.21
  L 886.54 591.08
  Z"
/>
<path fill="#558d67" d="
  M 1329.74 591.06
  Q 1329.86 591.02 1329.98 590.97
  L 1329.86 738.36
  A 0.52 0.52 0.0 0 0 1330.38 738.88
  L 1477.00 738.88
  A 0.19 0.19 0.0 0 1 1477.19 739.07
  L 1477.05 886.45
  Q 1413.20 886.58 1349.50 886.64
  Q 1339.60 886.65 1329.78 885.96
  L 1329.81 739.06
  A 0.33 0.33 0.0 0 0 1329.48 738.73
  L 1182.03 738.71
  L 1181.94 590.93
  L 1329.74 591.06
  Z"
/>
<path fill="#558d67" d="
  M 147.34 886.50
  L 0.00 886.48
  L 0.00 738.92
  L 147.11 738.96
  A 0.49 0.49 0.0 0 1 147.60 739.45
  L 147.54 886.15
  A 0.27 0.24 -30.1 0 1 147.49 886.30
  Q 147.42 886.40 147.34 886.50
  Z"
/>
<path fill="#f7f2e7" d="
  M 443.18 738.70
  L 443.33 739.05
  L 443.26 886.30
  L 443.29 1033.97
  Q 443.23 1034.22 442.97 1034.29
  L 296.04 1034.37
  A 0.51 0.51 0.0 0 1 295.53 1033.86
  L 295.53 886.63
  L 295.48 738.70
  Q 295.57 738.71 295.65 738.72
  L 443.18 738.70
  Z"
/>
<path fill="#558d67" d="
  M 590.56 886.41
  L 443.26 886.30
  L 443.33 739.05
  L 589.81 738.86
  A 0.89 0.89 0.0 0 1 590.70 739.75
  L 590.56 886.41
  Z"
/>
<path fill="#f7f2e7" d="
  M 886.63 738.66
  Q 886.57 738.86 886.51 739.07
  L 886.50 885.86
  L 886.48 1034.04
  L 886.27 1034.33
  L 739.26 1034.31
  A 0.49 0.49 0.0 0 1 738.77 1033.82
  L 738.80 886.83
  L 738.82 738.85
  Q 738.90 738.67 739.06 738.55
  L 886.63 738.66
  Z"
/>
<path fill="#558d67" d="
  M 1033.98 739.03
  Q 1034.04 812.36 1034.12 885.76
  Q 1034.12 886.19 1033.53 886.51
  Q 936.01 886.45 905.25 886.60
  Q 894.22 886.65 886.50 885.86
  L 886.51 739.07
  Q 890.49 738.57 894.47 738.70
  Q 901.48 738.94 901.55 738.94
  Q 967.74 738.81 1033.98 739.03
  Z"
/>
<path fill="#f7f2e7" d="
  M 1329.78 885.96
  L 1329.76 1034.13
  L 1182.55 1034.37
  A 0.56 0.55 -0.0 0 1 1181.99 1033.82
  L 1182.01 887.06
  L 1182.02 738.98
  Q 1182.02 738.84 1182.03 738.71
  L 1329.48 738.73
  A 0.33 0.33 0.0 0 1 1329.81 739.06
  L 1329.78 885.96
  Z"
/>
<path fill="#296d48" d="
  M 1182.02 738.98
  L 1182.01 887.06
  Q 1181.59 887.58 1179.59 886.73
  A 4.91 4.78 -32.7 0 0 1177.68 886.34
  L 1034.61 886.48
  A 0.24 0.23 19.7 0 0 1034.43 886.56
  Q 1034.20 886.86 1034.19 887.22
  Q 1033.93 886.52 1033.53 886.51
  Q 1034.12 886.19 1034.12 885.76
  Q 1034.04 812.36 1033.98 739.03
  L 1182.02 738.98
  Z"
/>
<path fill="#f7f2e7" d="
  M 1773.00 738.84
  L 1773.00 1034.26
  L 1625.22 1034.26
  Q 1626.06 1034.19 1625.28 1034.04
  L 1625.27 886.51
  L 1625.46 738.77
  L 1773.00 738.84
  Z"
/>
<path fill="#1c4e30" d="
  M 1033.53 886.51
  Q 1033.93 886.52 1034.19 887.22
  L 1034.61 1033.36
  A 0.88 0.87 0.0 0 0 1035.49 1034.23
  L 1180.82 1034.23
  A 1.22 1.22 0.0 0 1 1182.04 1035.45
  L 1181.99 1182.04
  Q 1181.71 1182.72 1179.71 1182.10
  A 3.83 3.78 -36.4 0 0 1178.52 1181.93
  L 1034.05 1182.28
  A 0.10 0.10 0.0 0 1 1033.95 1182.18
  Q 1033.94 1182.14 1033.94 1182.10
  L 1034.07 1035.40
  A 0.58 0.57 0.5 0 0 1033.50 1034.83
  L 886.48 1034.04
  L 886.50 885.86
  Q 894.22 886.65 905.25 886.60
  Q 936.01 886.45 1033.53 886.51
  Z"
/>
<path fill="#1c4e30" d="
  M 1477.05 886.45
  Q 1477.03 886.69 1477.55 886.69
  L 1477.62 1033.68
  A 0.56 0.55 -90.0 0 0 1478.17 1034.24
  L 1625.28 1034.04
  Q 1626.06 1034.19 1625.22 1034.26
  L 1625.21 1172.21
  L 1625.07 1181.67
  A 0.60 0.60 0.0 0 1 1624.17 1182.18
  Q 1622.83 1181.38 1620.85 1181.59
  Q 1616.49 1182.07 1608.03 1182.09
  Q 1520.82 1182.25 1483.38 1182.12
  Q 1479.59 1182.10 1478.75 1182.29
  A 1.17 1.17 0.0 0 1 1477.33 1181.15
  L 1477.33 1035.29
  A 0.85 0.85 0.0 0 0 1476.48 1034.44
  L 1329.76 1034.13
  L 1329.78 885.96
  Q 1339.60 886.65 1349.50 886.64
  Q 1413.20 886.58 1477.05 886.45
  Z"
/>
<path fill="#1c4e30" d="
  M 590.56 886.41
  L 590.92 886.84
  L 591.25 1033.54
  A 0.71 0.71 0.0 0 0 591.96 1034.25
  L 737.89 1034.25
  A 0.93 0.92 -0.0 0 1 738.82 1035.17
  L 738.82 1181.35
  A 0.38 0.31 39.0 0 0 738.85 1181.49
  Q 738.99 1181.76 739.13 1182.03
  Q 739.00 1182.20 738.80 1182.29
  L 591.68 1182.18
  A 0.83 0.82 -0.0 0 1 590.85 1181.36
  L 590.85 1035.13
  A 0.48 0.48 0.0 0 0 590.39 1034.65
  Q 583.46 1034.37 579.75 1034.38
  Q 554.27 1034.46 444.09 1034.41
  Q 443.79 1034.41 443.29 1033.97
  L 443.26 886.30
  L 590.56 886.41
  Z"
/>
<path fill="#558d67" d="
  M 738.80 886.83
  L 738.77 1033.82
  A 0.49 0.49 0.0 0 0 739.26 1034.31
  L 886.27 1034.33
  L 886.76 1181.58
  A 0.45 0.45 0.0 0 0 887.21 1182.03
  L 1033.94 1182.10
  Q 1034.25 1255.14 1033.60 1328.25
  Q 1033.60 1328.85 1033.29 1329.62
  L 886.53 1329.66
  L 886.57 1182.58
  A 0.56 0.55 90.0 0 0 886.02 1182.02
  L 739.13 1182.03
  Q 738.99 1181.76 738.85 1181.49
  A 0.38 0.31 39.0 0 1 738.82 1181.35
  L 738.82 1035.17
  A 0.93 0.92 0.0 0 0 737.89 1034.25
  L 591.96 1034.25
  A 0.71 0.71 0.0 0 1 591.25 1033.54
  L 590.92 886.84
  Q 644.26 886.38 697.67 886.56
  C 708.82 886.59 721.61 886.03 733.63 886.77
  Q 733.88 886.79 736.23 887.16
  Q 737.86 887.43 738.80 886.83
  Z"
/>
<path fill="#558d67" d="
  M 1182.01 887.06
  L 1181.99 1033.82
  A 0.56 0.55 -0.0 0 0 1182.55 1034.37
  L 1329.76 1034.13
  L 1329.97 1181.43
  A 0.69 0.68 89.6 0 0 1330.65 1182.11
  L 1476.55 1182.11
  A 0.72 0.72 0.0 0 1 1477.27 1182.83
  Q 1477.13 1260.33 1477.26 1329.26
  Q 1477.26 1330.11 1476.70 1329.73
  L 1329.79 1329.75
  L 1329.84 1183.00
  A 0.90 0.90 0.0 0 0 1328.94 1182.10
  L 1182.25 1182.10
  Q 1182.12 1182.07 1181.99 1182.04
  L 1182.04 1035.45
  A 1.22 1.22 0.0 0 0 1180.82 1034.23
  L 1035.49 1034.23
  A 0.88 0.87 0.0 0 1 1034.61 1033.36
  L 1034.19 887.22
  Q 1034.20 886.86 1034.43 886.56
  A 0.24 0.23 19.7 0 1 1034.61 886.48
  L 1177.68 886.34
  A 4.91 4.78 -32.7 0 1 1179.59 886.73
  Q 1181.59 887.58 1182.01 887.06
  Z"
/>
<path fill="#558d67" d="
  M 1625.27 886.51
  L 1625.28 1034.04
  L 1478.17 1034.24
  A 0.56 0.55 90.0 0 1 1477.62 1033.68
  L 1477.55 886.69
  L 1625.27 886.51
  Z"
/>
<path fill="#1c4e30" d="
  M 147.34 886.50
  L 147.80 886.85
  L 147.75 1033.72
  A 0.47 0.47 0.0 0 0 148.22 1034.19
  L 294.99 1034.19
  A 0.57 0.57 0.0 0 1 295.56 1034.76
  L 295.56 1181.70
  A 0.30 0.30 0.0 0 0 295.62 1181.88
  Q 295.70 1181.98 295.79 1182.09
  Q 295.38 1182.67 295.55 1183.20
  Q 290.82 1182.13 286.00 1182.14
  Q 217.34 1182.29 148.39 1182.02
  A 0.79 0.79 0.0 0 1 147.60 1181.23
  L 147.60 1034.87
  A 0.47 0.46 0.0 0 0 147.13 1034.41
  L 0.33 1034.52
  A 0.11 0.10 -15.0 0 1 0.24 1034.47
  Q 0.12 1034.28 0.00 1034.33
  L 0.00 886.48
  L 147.34 886.50
  Z"
/>
<path fill="#558d67" d="
  M 295.53 886.63
  L 295.53 1033.86
  A 0.51 0.51 0.0 0 0 296.04 1034.37
  L 442.97 1034.29
  Q 442.90 1034.71 443.14 1035.28
  A 1.53 1.46 -57.8 0 1 443.26 1035.87
  L 442.94 1182.09
  L 295.79 1182.09
  Q 295.70 1181.98 295.62 1181.88
  A 0.30 0.30 0.0 0 1 295.56 1181.70
  L 295.56 1034.76
  A 0.57 0.57 0.0 0 0 294.99 1034.19
  L 148.22 1034.19
  A 0.47 0.47 0.0 0 1 147.75 1033.72
  L 147.80 886.85
  L 295.53 886.63
  Z"
/>
<path fill="#296d48" d="
  M 443.29 1033.97
  Q 443.79 1034.41 444.09 1034.41
  Q 554.27 1034.46 579.75 1034.38
  Q 583.46 1034.37 590.39 1034.65
  A 0.48 0.48 0.0 0 1 590.85 1035.13
  L 590.85 1181.36
  A 0.83 0.82 0.0 0 0 591.68 1182.18
  L 738.80 1182.29
  L 738.80 1330.22
  Q 738.37 1331.15 736.51 1330.11
  A 2.87 2.83 63.8 0 0 735.62 1329.80
  Q 730.97 1329.06 727.50 1329.21
  Q 709.60 1330.00 666.79 1329.91
  Q 595.95 1329.77 591.35 1329.53
  A 0.66 0.66 0.0 0 1 590.72 1328.87
  C 590.56 1303.04 590.92 1262.31 590.59 1227.87
  Q 590.36 1203.40 591.12 1183.31
  A 1.12 1.12 0.0 0 0 590.03 1182.14
  Q 583.55 1181.93 583.25 1181.93
  Q 513.21 1182.50 448.58 1181.86
  C 446.86 1181.85 445.05 1182.22 443.29 1182.42
  L 442.94 1182.09
  L 443.26 1035.87
  A 1.53 1.46 -57.8 0 0 443.14 1035.28
  Q 442.90 1034.71 442.97 1034.29
  Q 443.23 1034.22 443.29 1033.97
  Z"
/>
<path fill="#296d48" d="
  M 886.48 1034.04
  L 1033.50 1034.83
  A 0.58 0.57 0.5 0 1 1034.07 1035.40
  L 1033.94 1182.10
  L 887.21 1182.03
  A 0.45 0.45 0.0 0 1 886.76 1181.58
  L 886.27 1034.33
  L 886.48 1034.04
  Z"
/>
<path fill="#558d67" d="
  M 1773.00 1034.26
  L 1773.00 1182.10
  L 1625.29 1182.11
  L 1625.21 1172.21
  L 1625.22 1034.26
  L 1773.00 1034.26
  Z"
/>
<path fill="#296d48" d="
  M 295.55 1183.20
  L 295.54 1330.39
  Q 291.15 1329.83 285.50 1329.82
  Q 218.94 1329.80 152.39 1329.95
  Q 152.17 1329.95 150.15 1329.81
  Q 148.70 1329.72 147.95 1330.17
  Q 147.57 1330.18 147.24 1329.78
  L 147.50 1182.75
  A 0.59 0.59 0.0 0 0 146.91 1182.15
  L 0.00 1182.06
  L 0.00 1034.33
  Q 0.12 1034.28 0.24 1034.47
  A 0.11 0.10 -15.0 0 0 0.33 1034.52
  L 147.13 1034.41
  A 0.47 0.46 0.0 0 1 147.60 1034.87
  L 147.60 1181.23
  A 0.79 0.79 0.0 0 0 148.39 1182.02
  Q 217.34 1182.29 286.00 1182.14
  Q 290.82 1182.13 295.55 1183.20
  Z"
/>
<path fill="#296d48" d="
  M 1625.21 1172.21
  L 1625.29 1182.11
  L 1625.31 1329.04
  L 1625.04 1329.89
  A 0.50 0.50 0.0 0 1 1624.37 1330.20
  Q 1623.32 1329.75 1622.50 1329.75
  Q 1550.38 1329.87 1478.36 1329.76
  Q 1477.92 1329.76 1477.70 1329.92
  Q 1477.41 1330.15 1477.42 1330.53
  L 1476.70 1329.73
  Q 1477.26 1330.11 1477.26 1329.26
  Q 1477.13 1260.33 1477.27 1182.83
  A 0.72 0.72 0.0 0 0 1476.55 1182.11
  L 1330.65 1182.11
  A 0.69 0.68 89.6 0 1 1329.97 1181.43
  L 1329.76 1034.13
  L 1476.48 1034.44
  A 0.85 0.85 0.0 0 1 1477.33 1035.29
  L 1477.33 1181.15
  A 1.17 1.17 0.0 0 0 1478.75 1182.29
  Q 1479.59 1182.10 1483.38 1182.12
  Q 1520.82 1182.25 1608.03 1182.09
  Q 1616.49 1182.07 1620.85 1181.59
  Q 1622.83 1181.38 1624.17 1182.18
  A 0.60 0.60 0.0 0 0 1625.07 1181.67
  L 1625.21 1172.21
  Z"
/>
<path fill="#558d67" d="
  M 147.24 1329.78
  L 0.00 1329.83
  L 0.00 1182.06
  L 146.91 1182.15
  A 0.59 0.59 0.0 0 1 147.50 1182.75
  L 147.24 1329.78
  Z"
/>
<path fill="#f7f2e7" d="
  M 886.53 1329.66
  L 886.53 1477.27
  Q 886.51 1477.41 886.48 1477.55
  L 739.39 1477.55
  A 0.63 0.63 0.0 0 1 738.76 1476.92
  L 738.80 1330.22
  L 738.80 1182.29
  Q 739.00 1182.20 739.13 1182.03
  L 886.02 1182.02
  A 0.56 0.55 -90.0 0 1 886.57 1182.58
  L 886.53 1329.66
  Z"
/>
<path fill="#296d48" d="
  M 1181.99 1182.04
  Q 1182.12 1182.07 1182.25 1182.10
  L 1182.03 1329.95
  Q 1181.82 1330.11 1181.67 1330.44
  A 0.52 0.51 31.4 0 1 1180.87 1330.63
  L 1180.30 1330.15
  A 1.45 1.42 65.3 0 0 1179.46 1329.83
  C 1176.73 1329.71 1174.31 1329.33 1171.57 1329.40
  C 1146.56 1330.05 1113.63 1329.79 1049.00 1329.86
  Q 1039.60 1329.87 1034.42 1330.30
  L 1033.29 1329.62
  Q 1033.60 1328.85 1033.60 1328.25
  Q 1034.25 1255.14 1033.94 1182.10
  Q 1033.94 1182.14 1033.95 1182.18
  A 0.10 0.10 0.0 0 0 1034.05 1182.28
  L 1178.52 1181.93
  A 3.83 3.78 -36.4 0 1 1179.71 1182.10
  Q 1181.71 1182.72 1181.99 1182.04
  Z"
/>
<path fill="#f7f2e7" d="
  M 442.94 1182.09
  L 443.29 1182.42
  L 443.29 1329.24
  L 443.31 1477.22
  Q 443.31 1477.38 443.31 1477.53
  L 296.18 1477.59
  A 0.64 0.64 0.0 0 1 295.54 1476.95
  L 295.54 1330.39
  L 295.55 1183.20
  Q 295.38 1182.67 295.79 1182.09
  L 442.94 1182.09
  Z"
/>
<path fill="#558d67" d="
  M 738.80 1330.22
  L 738.76 1476.92
  A 0.63 0.63 0.0 0 0 739.39 1477.55
  L 886.48 1477.55
  L 886.07 1625.35
  L 739.06 1625.36
  Q 738.55 1622.44 738.68 1619.41
  Q 738.91 1614.29 738.91 1614.20
  Q 738.79 1557.35 738.87 1499.77
  C 738.88 1492.00 738.25 1485.62 738.78 1478.78
  A 1.12 1.12 0.0 0 0 737.66 1477.57
  L 592.36 1477.57
  A 1.25 1.24 -90.0 0 1 591.12 1476.32
  Q 591.05 1461.68 591.17 1345.00
  Q 591.19 1333.66 590.58 1330.22
  A 0.63 0.62 -4.0 0 0 589.99 1329.71
  Q 589.23 1329.68 451.50 1329.84
  Q 447.44 1329.84 443.29 1329.24
  L 443.29 1182.42
  C 445.05 1182.22 446.86 1181.85 448.58 1181.86
  Q 513.21 1182.50 583.25 1181.93
  Q 583.55 1181.93 590.03 1182.14
  A 1.12 1.12 0.0 0 1 591.12 1183.31
  Q 590.36 1203.40 590.59 1227.87
  C 590.92 1262.31 590.56 1303.04 590.72 1328.87
  A 0.66 0.66 0.0 0 0 591.35 1329.53
  Q 595.95 1329.77 666.79 1329.91
  Q 709.60 1330.00 727.50 1329.21
  Q 730.97 1329.06 735.62 1329.80
  A 2.87 2.83 63.8 0 1 736.51 1330.11
  Q 738.37 1331.15 738.80 1330.22
  Z"
/>
<path fill="#f7f2e7" d="
  M 1329.79 1329.75
  L 1329.79 1477.56
  L 1183.04 1477.62
  A 1.06 1.06 0.0 0 1 1181.98 1476.56
  L 1182.03 1329.95
  L 1182.25 1182.10
  L 1328.94 1182.10
  A 0.90 0.90 0.0 0 1 1329.84 1183.00
  L 1329.79 1329.75
  Z"
/>
<path fill="#f7f2e7" d="
  M 1773.00 1182.10
  L 1773.00 1477.57
  L 1625.29 1477.55
  Q 1625.45 1477.56 1625.31 1477.17
  L 1625.31 1329.04
  L 1625.29 1182.11
  L 1773.00 1182.10
  Z"
/>
<path fill="#1c4e30" d="
  M 739.06 1625.36
  Q 738.91 1625.38 738.75 1625.39
  L 590.73 1625.48
  L 590.67 1478.24
  A 0.60 0.60 0.0 0 0 590.07 1477.64
  L 443.31 1477.22
  L 443.29 1329.24
  Q 447.44 1329.84 451.50 1329.84
  Q 589.23 1329.68 589.99 1329.71
  A 0.63 0.62 -4.0 0 1 590.58 1330.22
  Q 591.19 1333.66 591.17 1345.00
  Q 591.05 1461.68 591.12 1476.32
  A 1.25 1.24 90.0 0 0 592.36 1477.57
  L 737.66 1477.57
  A 1.12 1.12 0.0 0 1 738.78 1478.78
  C 738.25 1485.62 738.88 1492.00 738.87 1499.77
  Q 738.79 1557.35 738.91 1614.20
  Q 738.91 1614.29 738.68 1619.41
  Q 738.55 1622.44 739.06 1625.36
  Z"
/>
<path fill="#558d67" d="
  M 1625.31 1329.04
  L 1625.31 1477.17
  Q 1622.48 1477.63 1621.35 1477.63
  Q 1563.17 1477.44 1503.00 1477.40
  Q 1487.30 1477.40 1478.71 1477.10
  A 1.04 1.04 0.0 0 1 1477.71 1476.06
  L 1477.42 1330.53
  Q 1477.41 1330.15 1477.70 1329.92
  Q 1477.92 1329.76 1478.36 1329.76
  Q 1550.38 1329.87 1622.50 1329.75
  Q 1623.32 1329.75 1624.37 1330.20
  A 0.50 0.50 0.0 0 0 1625.04 1329.89
  L 1625.31 1329.04
  Z"
/>
<path fill="#1c4e30" d="
  M 1033.29 1329.62
  L 1034.42 1330.30
  L 1034.39 1476.74
  A 0.83 0.83 0.0 0 0 1035.22 1477.57
  L 1181.13 1477.57
  A 0.80 0.80 0.0 0 1 1181.93 1478.37
  L 1181.95 1624.28
  Q 1182.08 1624.86 1181.73 1625.24
  A 0.15 0.13 20.8 0 1 1181.63 1625.28
  L 1034.68 1625.36
  A 0.74 0.74 0.0 0 1 1033.94 1624.62
  L 1033.94 1478.31
  A 0.47 0.47 0.0 0 0 1033.47 1477.84
  Q 981.21 1477.39 923.83 1477.87
  Q 917.15 1477.93 905.18 1477.56
  Q 895.85 1477.27 886.53 1477.27
  L 886.53 1329.66
  L 1033.29 1329.62
  Z"
/>
<path fill="#1c4e30" d="
  M 1476.70 1329.73
  L 1477.42 1330.53
  L 1477.71 1476.06
  A 1.04 1.04 0.0 0 0 1478.71 1477.10
  Q 1487.30 1477.40 1503.00 1477.40
  Q 1563.17 1477.44 1621.35 1477.63
  Q 1622.48 1477.63 1625.31 1477.17
  Q 1625.45 1477.56 1625.29 1477.55
  L 1625.25 1625.04
  L 1477.94 1625.61
  A 0.95 0.95 0.0 0 1 1476.99 1624.66
  L 1476.99 1478.72
  A 0.84 0.84 0.0 0 0 1476.15 1477.88
  C 1472.57 1477.88 1469.24 1477.48 1465.61 1477.49
  Q 1397.70 1477.77 1329.68 1477.61
  Q 1329.74 1477.59 1329.79 1477.56
  L 1329.79 1329.75
  L 1476.70 1329.73
  Z"
/>
<path fill="#558d67" d="
  M 1182.03 1329.95
  L 1181.98 1476.56
  A 1.06 1.06 0.0 0 0 1183.04 1477.62
  L 1329.79 1477.56
  Q 1329.74 1477.59 1329.68 1477.61
  Q 1329.69 1541.67 1329.82 1606.00
  Q 1329.84 1615.91 1330.01 1618.75
  Q 1330.22 1622.23 1329.53 1625.37
  L 1182.29 1625.38
  Q 1182.42 1624.15 1181.95 1624.28
  L 1181.93 1478.37
  A 0.80 0.80 0.0 0 0 1181.13 1477.57
  L 1035.22 1477.57
  A 0.83 0.83 0.0 0 1 1034.39 1476.74
  L 1034.42 1330.30
  Q 1039.60 1329.87 1049.00 1329.86
  C 1113.63 1329.79 1146.56 1330.05 1171.57 1329.40
  C 1174.31 1329.33 1176.73 1329.71 1179.46 1329.83
  A 1.45 1.42 65.3 0 1 1180.30 1330.15
  L 1180.87 1330.63
  A 0.52 0.51 31.4 0 0 1181.67 1330.44
  Q 1181.82 1330.11 1182.03 1329.95
  Z"
/>
<path fill="#1c4e30" d="
  M 147.24 1329.78
  Q 147.57 1330.18 147.95 1330.17
  Q 147.83 1396.28 147.71 1462.25
  Q 147.70 1467.78 148.12 1476.49
  A 1.12 1.12 0.0 0 0 149.24 1477.56
  L 294.88 1477.56
  A 0.60 0.60 0.0 0 1 295.48 1478.16
  L 295.40 1625.15
  L 148.21 1625.55
  A 0.79 0.79 0.0 0 1 147.42 1624.76
  L 147.42 1479.12
  A 1.15 1.14 0.3 0 0 146.28 1477.98
  L 0.00 1477.50
  L 0.00 1329.83
  L 147.24 1329.78
  Z"
/>
<path fill="#558d67" d="
  M 295.54 1330.39
  L 295.54 1476.95
  A 0.64 0.64 0.0 0 0 296.18 1477.59
  L 443.31 1477.53
  L 443.12 1625.31
  L 295.50 1625.32
  Q 295.45 1625.24 295.40 1625.15
  L 295.48 1478.16
  A 0.60 0.60 0.0 0 0 294.88 1477.56
  L 149.24 1477.56
  A 1.12 1.12 0.0 0 1 148.12 1476.49
  Q 147.70 1467.78 147.71 1462.25
  Q 147.83 1396.28 147.95 1330.17
  Q 148.70 1329.72 150.15 1329.81
  Q 152.17 1329.95 152.39 1329.95
  Q 218.94 1329.80 285.50 1329.82
  Q 291.15 1329.83 295.54 1330.39
  Z"
/>
<path fill="#296d48" d="
  M 590.73 1625.48
  L 443.64 1625.45
  A 0.19 0.17 -76.6 0 0 443.48 1625.56
  Q 443.43 1625.67 443.38 1625.79
  Q 443.24 1625.74 443.12 1625.31
  L 443.31 1477.53
  Q 443.31 1477.38 443.31 1477.22
  L 590.07 1477.64
  A 0.60 0.60 0.0 0 1 590.67 1478.24
  L 590.73 1625.48
  Z"
/>
<path fill="#296d48" d="
  M 1181.95 1624.28
  Q 1182.42 1624.15 1182.29 1625.38
  Q 1182.32 1624.95 1182.04 1625.45
  A 0.48 0.38 -38.7 0 0 1182.00 1625.63
  L 1181.99 1773.00
  L 1034.14 1773.00
  L 1034.09 1626.44
  A 0.88 0.88 0.0 0 0 1033.20 1625.56
  L 886.71 1625.72
  Q 886.59 1625.44 886.07 1625.35
  L 886.48 1477.55
  Q 886.51 1477.41 886.53 1477.27
  Q 895.85 1477.27 905.18 1477.56
  Q 917.15 1477.93 923.83 1477.87
  Q 981.21 1477.39 1033.47 1477.84
  A 0.47 0.47 0.0 0 1 1033.94 1478.31
  L 1033.94 1624.62
  A 0.74 0.74 0.0 0 0 1034.68 1625.36
  L 1181.63 1625.28
  A 0.15 0.13 20.8 0 0 1181.73 1625.24
  Q 1182.08 1624.86 1181.95 1624.28
  Z"
/>
<path fill="#296d48" d="
  M 295.40 1625.15
  Q 295.45 1625.24 295.50 1625.32
  L 295.52 1773.00
  L 147.65 1773.00
  L 147.38 1626.22
  A 0.56 0.56 0.0 0 0 146.82 1625.66
  L 0.00 1625.37
  L 0.00 1477.50
  L 146.28 1477.98
  A 1.15 1.14 0.3 0 1 147.42 1479.12
  L 147.42 1624.76
  A 0.79 0.79 0.0 0 0 148.21 1625.55
  L 295.40 1625.15
  Z"
/>
<path fill="#296d48" d="
  M 1625.25 1625.04
  Q 1625.27 1625.20 1625.29 1625.37
  L 1625.30 1773.00
  L 1477.25 1773.00
  L 1477.27 1626.03
  A 0.49 0.48 0.0 0 0 1476.78 1625.55
  Q 1403.82 1625.33 1330.66 1625.43
  Q 1330.58 1625.43 1330.36 1625.38
  Q 1330.02 1625.30 1329.87 1625.77
  Q 1329.69 1625.45 1329.53 1625.37
  Q 1330.22 1622.23 1330.01 1618.75
  Q 1329.84 1615.91 1329.82 1606.00
  Q 1329.69 1541.67 1329.68 1477.61
  Q 1397.70 1477.77 1465.61 1477.49
  C 1469.24 1477.48 1472.57 1477.88 1476.15 1477.88
  A 0.84 0.84 0.0 0 1 1476.99 1478.72
  L 1476.99 1624.66
  A 0.95 0.95 0.0 0 0 1477.94 1625.61
  L 1625.25 1625.04
  Z"
/>
<path fill="#558d67" d="
  M 1773.00 1477.57
  L 1773.00 1625.38
  L 1625.29 1625.37
  Q 1625.27 1625.20 1625.25 1625.04
  L 1625.29 1477.55
  L 1773.00 1477.57
  Z"
/>
<path fill="#558d67" d="
  M 147.65 1773.00
  L 0.00 1773.00
  L 0.00 1625.37
  L 146.82 1625.66
  A 0.56 0.56 0.0 0 1 147.38 1626.22
  L 147.65 1773.00
  Z"
/>
<path fill="#296d48" d="
  M 738.75 1625.39
  L 738.77 1773.00
  L 590.89 1773.00
  L 590.73 1625.48
  L 738.75 1625.39
  Z"
/>
<path fill="#f7f2e7" d="
  M 443.12 1625.31
  Q 443.24 1625.74 443.38 1625.79
  L 443.26 1773.00
  L 295.52 1773.00
  L 295.50 1625.32
  L 443.12 1625.31
  Z"
/>
<path fill="#558d67" d="
  M 590.73 1625.48
  L 590.89 1773.00
  L 443.26 1773.00
  L 443.38 1625.79
  Q 443.43 1625.67 443.48 1625.56
  A 0.19 0.17 -76.6 0 1 443.64 1625.45
  L 590.73 1625.48
  Z"
/>
<path fill="#f7f2e7" d="
  M 739.06 1625.36
  L 886.07 1625.35
  Q 886.59 1625.44 886.71 1625.72
  L 886.47 1773.00
  L 738.77 1773.00
  L 738.75 1625.39
  Q 738.91 1625.38 739.06 1625.36
  Z"
/>
<path fill="#f7f2e7" d="
  M 1182.29 1625.38
  L 1329.53 1625.37
  Q 1329.69 1625.45 1329.87 1625.77
  L 1329.71 1773.00
  L 1181.99 1773.00
  L 1182.00 1625.63
  A 0.48 0.38 -38.7 0 1 1182.04 1625.45
  Q 1182.32 1624.95 1182.29 1625.38
  Z"
/>
<path fill="#558d67" d="
  M 1477.25 1773.00
  L 1329.71 1773.00
  L 1329.87 1625.77
  Q 1330.02 1625.30 1330.36 1625.38
  Q 1330.58 1625.43 1330.66 1625.43
  Q 1403.82 1625.33 1476.78 1625.55
  A 0.49 0.48 -0.0 0 1 1477.27 1626.03
  L 1477.25 1773.00
  Z"
/>
<path fill="#f7f2e7" d="
  M 1773.00 1625.38
  L 1773.00 1773.00
  L 1625.30 1773.00
  L 1625.29 1625.37
  L 1773.00 1625.38
  Z"
/>
<path fill="#558d67" d="
  M 1034.14 1773.00
  L 886.47 1773.00
  L 886.71 1625.72
  L 1033.20 1625.56
  A 0.88 0.88 0.0 0 1 1034.09 1626.44
  L 1034.14 1773.00
  Z"
/>
</svg>
