<?xml version="1.0" encoding="UTF-8" standalone="no"?>
<!DOCTYPE svg PUBLIC "-//W3C//DTD SVG 1.1//EN" "http://www.w3.org/Graphics/SVG/1.1/DTD/svg11.dtd">
<svg xmlns="http://www.w3.org/2000/svg" version="1.1" viewBox="0.00 0.00 1254.00 1254.00">
<g stroke-width="2.00" fill="none" stroke-linecap="butt">
<path stroke="#fee5a7" vector-effect="non-scaling-stroke" d="
  M 8.94 0.00
  Q 5.17 4.70 0.93 8.72
  Q 0.64 8.99 0.41 8.91
  Q 0.17 8.82 0.00 8.50"
/>
<path stroke="#fee5a7" vector-effect="non-scaling-stroke" d="
  M 167.72 0.00
  Q 173.17 6.82 179.33 12.28
  A 0.77 0.77 0.0 0 0 180.40 12.23
  L 192.11 0.00"
/>
<path stroke="#fee5a7" vector-effect="non-scaling-stroke" d="
  M 344.92 0.00
  L 359.46 15.17
  A 0.34 0.34 0.0 0 0 359.96 15.17
  L 374.39 0.00"
/>
<path stroke="#fee5a7" vector-effect="non-scaling-stroke" d="
  M 528.55 0.00
  L 540.57 12.61
  A 0.42 0.42 0.0 0 0 541.18 12.61
  L 553.23 0.00"
/>
<path stroke="#fee5a7" vector-effect="non-scaling-stroke" d="
  M 707.58 0.00
  L 718.71 11.83
  A 0.54 0.54 0.0 0 0 719.49 11.83
  L 730.73 0.00"
/>
<path stroke="#fee5a7" vector-effect="non-scaling-stroke" d="
  M 888.01 0.00
  L 899.25 11.73
  A 0.61 0.61 0.0 0 0 900.13 11.73
  L 911.45 0.00"
/>
<path stroke="#fee5a7" vector-effect="non-scaling-stroke" d="
  M 1065.06 0.00
  L 1078.20 13.09
  A 0.62 0.62 0.0 0 0 1079.09 13.07
  L 1091.05 0.00"
/>
<path stroke="#fee5a7" vector-effect="non-scaling-stroke" d="
  M 1246.40 0.00
  Q 1249.57 4.16 1254.00 7.56"
/>
<path stroke="#fee5a7" vector-effect="non-scaling-stroke" d="
  M 1254.00 91.95
  Q 1252.38 89.02 1249.52 86.37
  Q 1245.54 82.68 1245.49 82.62
  Q 1207.33 43.81 1169.05 5.39
  A 0.65 0.64 -45.3 0 0 1168.13 5.40
  L 1079.65 95.34
  A 0.52 0.52 0.0 0 1 1078.91 95.34
  L 989.58 5.06
  A 0.80 0.79 -45.3 0 0 988.44 5.07
  L 899.81 95.17
  A 0.80 0.79 -44.7 0 1 898.68 95.17
  L 809.45 4.99
  A 0.78 0.78 0.0 0 0 808.34 4.99
  L 720.29 94.50
  A 0.82 0.81 -44.8 0 1 719.12 94.50
  L 630.93 3.33
  A 0.47 0.47 0.0 0 0 630.26 3.33
  L 540.30 94.78
  A 0.29 0.28 -44.3 0 1 539.89 94.78
  L 450.55 4.49
  A 1.16 1.16 0.0 0 0 448.90 4.50
  L 360.74 94.11
  A 0.77 0.77 0.0 0 1 359.64 94.11
  L 269.77 3.28
  A 0.83 0.82 44.8 0 0 268.60 3.28
  L 179.59 93.77
  A 0.49 0.48 44.6 0 1 178.90 93.77
  L 88.82 2.73
  A 0.71 0.71 0.0 0 0 87.82 2.73
  Q 47.74 43.73 10.95 81.70
  Q 3.53 89.37 0.00 93.81"
/>
<path stroke="#fee5a7" vector-effect="non-scaling-stroke" d="
  M 1254.00 147.40
  L 1169.23 62.79
  A 0.66 0.66 0.0 0 0 1168.30 62.79
  L 1079.31 151.78
  A 0.89 0.88 45.2 0 1 1078.05 151.77
  L 989.79 62.58
  A 0.42 0.41 -44.5 0 0 989.20 62.58
  L 899.38 151.46
  A 0.48 0.47 -44.6 0 1 898.71 151.46
  L 809.62 62.36
  A 0.40 0.39 -44.5 0 0 809.07 62.36
  L 720.05 151.39
  A 0.76 0.75 45.0 0 1 718.98 151.38
  L 630.80 62.27
  A 0.48 0.47 45.4 0 0 630.12 62.26
  L 540.53 151.85
  A 0.64 0.64 0.0 0 1 539.63 151.85
  L 450.97 62.24
  A 0.66 0.66 0.0 0 0 450.04 62.23
  L 360.49 150.85
  A 0.86 0.85 -44.3 0 1 359.29 150.84
  L 269.73 60.33
  A 0.64 0.64 0.0 0 0 268.83 60.33
  L 180.06 150.57
  A 0.42 0.42 0.0 0 1 179.46 150.57
  L 89.30 60.42
  A 0.54 0.54 0.0 0 0 88.54 60.42
  L 0.00 150.24"
/>
<path stroke="#fee5a7" vector-effect="non-scaling-stroke" d="
  M 1254.00 225.57
  Q 1248.77 219.44 1242.65 213.43
  C 1217.62 188.82 1193.30 163.76 1168.99 139.44
  A 0.91 0.91 0.0 0 0 1167.70 139.45
  L 1079.69 228.91
  A 0.62 0.61 44.7 0 1 1078.82 228.91
  L 989.62 139.71
  A 0.70 0.70 0.0 0 0 988.63 139.72
  L 900.61 229.20
  A 1.11 1.10 -45.0 0 1 899.04 229.21
  L 809.57 139.74
  A 0.98 0.98 0.0 0 0 808.18 139.75
  L 720.44 228.94
  A 0.98 0.97 -45.2 0 1 719.06 228.95
  L 629.31 139.20
  A 0.62 0.61 44.7 0 0 628.44 139.20
  L 540.05 229.05
  A 0.27 0.25 -45.0 0 1 539.68 229.06
  L 450.06 139.43
  A 1.15 1.15 0.0 0 0 448.43 139.44
  L 360.93 228.39
  A 1.24 1.24 0.0 0 1 359.16 228.40
  L 270.30 138.59
  A 1.14 1.14 0.0 0 0 268.68 138.59
  L 180.09 228.64
  A 0.58 0.57 -45.3 0 1 179.27 228.65
  L 90.12 139.50
  A 1.04 1.03 44.8 0 0 88.65 139.50
  L 0.00 229.36"
/>
<path stroke="#fee5a7" vector-effect="non-scaling-stroke" d="
  M 1254.00 281.07
  L 1168.79 195.79
  A 0.36 0.36 0.0 0 0 1168.29 195.79
  L 1079.07 285.01
  A 0.25 0.25 0.0 0 1 1078.71 285.01
  L 989.78 196.08
  A 0.72 0.71 -44.7 0 0 988.77 196.08
  L 899.80 285.05
  A 0.58 0.58 0.0 0 1 898.98 285.05
  L 809.94 196.02
  A 0.44 0.44 0.0 0 0 809.32 196.02
  L 720.03 285.30
  A 0.57 0.57 0.0 0 1 719.22 285.30
  L 629.58 195.67
  A 0.62 0.62 0.0 0 0 628.70 195.67
  L 540.74 285.08
  A 0.88 0.88 0.0 0 1 539.48 285.09
  L 450.13 195.75
  A 0.69 0.68 -44.7 0 0 449.16 195.75
  L 360.12 284.79
  A 0.44 0.43 44.5 0 1 359.51 284.79
  L 269.98 195.25
  A 0.64 0.64 0.0 0 0 269.07 195.25
  L 179.75 284.57
  A 0.61 0.61 0.0 0 1 178.89 284.57
  L 90.16 195.84
  A 0.62 0.62 0.0 0 0 89.29 195.84
  L 0.00 285.84"
/>
<path stroke="#fee5a7" vector-effect="non-scaling-stroke" d="
  M 1254.00 359.62
  Q 1249.90 354.57 1244.87 349.64
  Q 1236.85 341.77 1236.79 341.71
  Q 1202.31 306.49 1168.98 273.12
  A 0.91 0.91 0.0 0 0 1167.69 273.13
  L 1079.45 362.83
  A 0.43 0.42 -44.5 0 1 1078.84 362.83
  L 989.27 273.27
  A 0.42 0.42 0.0 0 0 988.67 273.27
  L 899.06 362.88
  A 0.18 0.18 0.0 0 1 898.80 362.88
  L 809.75 273.83
  A 0.59 0.58 44.7 0 0 808.92 273.83
  L 719.83 362.91
  A 0.31 0.31 0.0 0 1 719.39 362.91
  L 629.88 273.40
  A 1.32 1.31 -45.2 0 0 628.02 273.41
  L 540.35 362.53
  A 0.71 0.71 0.0 0 1 539.33 362.53
  L 449.76 272.96
  A 0.45 0.45 0.0 0 0 449.13 272.96
  L 359.75 362.34
  A 0.40 0.39 45.5 0 1 359.19 362.33
  L 270.03 272.23
  A 0.83 0.82 -44.8 0 0 268.86 272.23
  L 180.07 362.49
  A 0.64 0.62 44.4 0 1 179.17 362.49
  L 89.66 272.99
  A 0.67 0.66 44.7 0 0 88.71 272.99
  L 0.00 362.55"
/>
<path stroke="#fee5a7" vector-effect="non-scaling-stroke" d="
  M 1254.00 415.03
  L 1168.99 329.73
  A 0.40 0.40 0.0 0 0 1168.43 329.73
  L 1079.15 419.01
  A 0.40 0.39 -44.5 0 1 1078.60 419.01
  L 989.32 329.74
  A 0.62 0.62 0.0 0 0 988.44 329.74
  L 900.33 419.31
  A 1.04 1.03 44.8 0 1 898.86 419.31
  L 810.01 330.46
  A 0.93 0.93 0.0 0 0 808.69 330.46
  L 720.06 419.10
  A 0.71 0.70 44.7 0 1 719.07 419.10
  L 629.40 329.42
  A 0.48 0.48 0.0 0 0 628.72 329.42
  L 540.74 418.86
  A 1.11 1.10 44.8 0 1 539.17 418.86
  L 450.15 329.84
  A 0.78 0.78 0.0 0 0 449.05 329.84
  L 360.24 418.65
  A 0.64 0.64 0.0 0 1 359.34 418.65
  L 270.05 329.35
  A 1.22 1.22 0.0 0 0 268.32 329.36
  L 180.32 418.81
  A 0.93 0.93 0.0 0 1 179.00 418.82
  L 89.66 329.48
  A 0.64 0.63 -45.3 0 0 88.76 329.49
  L 0.00 419.05"
/>
<path stroke="#fee5a7" vector-effect="non-scaling-stroke" d="
  M 1254.00 493.80
  Q 1253.16 491.53 1250.99 489.57
  Q 1248.33 487.16 1248.30 487.13
  Q 1208.17 446.52 1168.91 407.13
  A 0.91 0.91 0.0 0 0 1167.61 407.13
  L 1079.39 496.82
  A 0.74 0.74 0.0 0 1 1078.35 496.82
  L 989.63 407.15
  A 1.36 1.36 0.0 0 0 987.69 407.16
  L 899.68 496.62
  A 1.03 1.03 0.0 0 1 898.22 496.62
  L 809.36 406.82
  A 0.73 0.73 0.0 0 0 808.32 406.82
  L 719.99 496.62
  A 1.12 1.12 0.0 0 1 718.39 496.62
  L 629.86 407.15
  A 1.14 1.13 -45.2 0 0 628.24 407.16
  L 540.15 496.71
  A 0.87 0.86 44.8 0 1 538.92 496.71
  L 450.21 407.05
  A 1.21 1.20 44.8 0 0 448.50 407.05
  L 360.56 496.45
  A 1.17 1.17 0.0 0 1 358.89 496.46
  L 270.17 406.79
  A 1.32 1.31 44.8 0 0 268.30 406.79
  L 179.82 496.73
  A 0.74 0.74 0.0 0 1 178.77 496.73
  L 90.01 407.03
  A 0.93 0.92 -44.8 0 0 88.70 407.03
  L 0.00 496.55"
/>
<path stroke="#fee5a7" vector-effect="non-scaling-stroke" d="
  M 1254.00 549.09
  L 1168.91 463.79
  A 0.49 0.48 45.0 0 0 1168.22 463.78
  L 1079.20 552.81
  A 0.59 0.59 0.0 0 1 1078.37 552.81
  L 989.00 463.43
  A 0.18 0.18 0.0 0 0 988.74 463.43
  L 899.21 552.96
  A 0.31 0.31 0.0 0 1 898.77 552.96
  L 809.62 463.80
  A 0.74 0.74 0.0 0 0 808.58 463.80
  L 719.58 552.80
  A 0.60 0.59 -44.7 0 1 718.73 552.80
  L 629.41 463.49
  A 0.61 0.61 0.0 0 0 628.55 463.49
  L 540.48 553.02
  A 0.78 0.78 0.0 0 1 539.37 553.02
  L 449.86 463.51
  A 0.45 0.45 0.0 0 0 449.22 463.51
  L 359.95 552.79
  A 0.49 0.49 0.0 0 1 359.25 552.79
  L 269.81 463.35
  A 0.47 0.47 0.0 0 0 269.14 463.35
  L 179.53 552.96
  A 0.24 0.24 0.0 0 1 179.19 552.96
  L 89.59 463.36
  A 0.45 0.45 0.0 0 0 88.95 463.37
  L 0.00 553.05"
/>
<path stroke="#fee5a7" vector-effect="non-scaling-stroke" d="
  M 1254.00 628.50
  Q 1253.76 626.67 1253.16 626.07
  Q 1199.17 571.57 1168.98 541.18
  A 0.87 0.87 0.0 0 0 1167.74 541.18
  L 1079.53 630.85
  A 0.88 0.88 0.0 0 1 1078.27 630.85
  L 989.51 541.15
  A 1.19 1.18 44.8 0 0 987.82 541.15
  L 899.78 630.64
  A 1.10 1.09 44.8 0 1 898.23 630.64
  L 809.66 541.12
  A 1.24 1.23 -45.2 0 0 807.90 541.13
  L 719.82 630.66
  A 0.98 0.97 44.8 0 1 718.43 630.66
  L 629.87 541.16
  A 1.12 1.12 0.0 0 0 628.27 541.16
  L 540.11 630.78
  A 0.80 0.80 0.0 0 1 538.97 630.78
  L 450.18 541.05
  A 1.24 1.24 0.0 0 0 448.42 541.05
  L 360.31 630.62
  A 0.83 0.83 0.0 0 1 359.13 630.62
  L 270.08 540.62
  A 1.07 1.07 0.0 0 0 268.56 540.63
  L 180.19 630.47
  A 1.21 1.20 -44.8 0 1 178.48 630.47
  L 89.90 540.95
  A 0.66 0.65 -44.7 0 0 88.97 540.95
  L 0.00 630.59"
/>
<path stroke="#fee5a7" vector-effect="non-scaling-stroke" d="
  M 1254.00 683.12
  L 1168.94 597.70
  A 0.45 0.45 0.0 0 0 1168.31 597.70
  L 1079.04 686.98
  A 0.34 0.33 -44.4 0 1 1078.57 686.98
  L 989.14 597.54
  A 0.38 0.38 0.0 0 0 988.62 597.54
  L 899.42 686.74
  A 0.58 0.57 44.6 0 1 898.61 686.74
  L 809.38 597.51
  A 0.45 0.45 0.0 0 0 808.74 597.51
  L 719.27 686.97
  A 0.29 0.28 44.3 0 1 718.86 686.97
  L 629.74 597.86
  A 1.15 1.15 0.0 0 0 628.11 597.86
  L 540.43 687.00
  A 0.82 0.81 -45.2 0 1 539.27 687.01
  L 449.75 597.48
  A 0.31 0.30 44.3 0 0 449.32 597.48
  L 360.12 686.69
  A 0.65 0.64 -44.7 0 1 359.21 686.69
  L 269.79 597.27
  A 0.54 0.54 0.0 0 0 269.02 597.27
  L 179.36 686.93
  A 0.19 0.18 -44.0 0 1 179.09 686.93
  L 89.63 597.48
  A 0.64 0.64 0.0 0 0 88.72 597.48
  L 0.00 687.10"
/>
<path stroke="#fee5a7" vector-effect="non-scaling-stroke" d="
  M 1254.00 762.66
  L 1253.62 761.27
  A 1.72 1.70 -75.5 0 0 1253.18 760.51
  L 1169.24 675.69
  A 1.27 1.27 0.0 0 0 1167.42 675.69
  L 1079.49 765.08
  A 0.52 0.51 -44.6 0 1 1078.76 765.08
  L 989.10 675.42
  A 0.95 0.95 0.0 0 0 987.75 675.42
  L 899.77 764.87
  A 0.71 0.71 0.0 0 1 898.77 764.87
  L 809.60 675.70
  A 1.32 1.32 0.0 0 0 807.72 675.70
  L 719.93 764.95
  A 0.69 0.68 44.7 0 1 718.96 764.95
  L 629.88 675.87
  A 1.43 1.43 0.0 0 0 627.85 675.88
  L 540.24 764.94
  A 0.69 0.69 0.0 0 1 539.26 764.94
  L 449.69 675.38
  A 0.91 0.91 0.0 0 0 448.39 675.38
  L 360.33 764.89
  A 0.82 0.81 44.8 0 1 359.16 764.89
  L 269.93 674.73
  A 0.83 0.83 0.0 0 0 268.73 674.73
  L 180.04 764.88
  A 0.67 0.67 0.0 0 1 179.08 764.88
  L 89.63 675.43
  A 0.62 0.62 0.0 0 0 88.76 675.43
  L 0.00 765.08"
/>
<path stroke="#fee5a7" vector-effect="non-scaling-stroke" d="
  M 1254.00 817.38
  L 1168.89 731.93
  A 0.62 0.62 0.0 0 0 1168.01 731.93
  L 1080.04 821.36
  A 1.05 1.05 0.0 0 1 1078.55 821.36
  L 988.98 731.79
  A 0.62 0.61 44.7 0 0 988.11 731.79
  L 900.44 820.91
  A 1.51 1.51 0.0 0 1 898.30 820.92
  L 809.34 731.96
  A 0.99 0.98 -45.0 0 0 807.95 731.97
  L 720.27 821.10
  A 1.16 1.16 0.0 0 1 718.62 821.11
  L 629.56 732.06
  A 0.78 0.78 0.0 0 0 628.45 732.06
  L 540.46 821.51
  A 0.74 0.74 0.0 0 1 539.42 821.51
  L 449.60 731.70
  A 0.63 0.63 0.0 0 0 448.70 731.70
  L 360.43 821.44
  A 0.57 0.57 0.0 0 1 359.63 821.44
  L 269.51 731.32
  A 0.54 0.53 44.6 0 0 268.76 731.32
  L 180.19 821.36
  A 0.65 0.65 0.0 0 1 179.27 821.36
  L 89.69 731.78
  A 0.55 0.55 0.0 0 0 88.91 731.78
  L 0.00 821.84"
/>
<path stroke="#fee5a7" vector-effect="non-scaling-stroke" d="
  M 1254.00 895.96
  L 1168.96 809.85
  A 0.91 0.90 44.8 0 0 1167.67 809.85
  L 1079.40 899.58
  A 0.84 0.84 0.0 0 1 1078.20 899.58
  L 989.20 809.64
  A 0.90 0.89 44.8 0 0 987.93 809.64
  L 899.51 899.53
  A 0.77 0.77 0.0 0 1 898.41 899.53
  L 809.57 809.76
  A 1.10 1.10 0.0 0 0 808.01 809.76
  L 719.82 899.41
  A 1.00 0.99 44.8 0 1 718.41 899.41
  L 629.83 809.89
  A 1.12 1.12 0.0 0 0 628.23 809.89
  L 539.84 899.74
  A 0.54 0.54 0.0 0 1 539.06 899.74
  L 450.20 809.94
  A 1.39 1.38 44.9 0 0 448.23 809.94
  L 360.28 899.34
  A 0.90 0.88 -45.0 0 1 359.01 899.35
  L 269.99 809.38
  A 1.31 1.30 44.8 0 0 268.14 809.38
  L 179.57 899.42
  A 0.50 0.50 0.0 0 1 178.85 899.42
  L 89.84 809.47
  A 0.85 0.83 44.5 0 0 88.64 809.47
  L 0.00 899.21"
/>
<path stroke="#fee5a7" vector-effect="non-scaling-stroke" d="
  M 1254.00 951.86
  L 1169.22 866.64
  A 0.68 0.68 0.0 0 0 1168.26 866.64
  L 1079.35 955.54
  A 0.73 0.72 44.7 0 1 1078.32 955.54
  L 989.06 866.28
  A 0.33 0.33 0.0 0 0 988.59 866.28
  L 899.19 955.68
  A 0.35 0.35 0.0 0 1 898.69 955.68
  L 809.24 866.24
  A 0.28 0.27 -44.3 0 0 808.85 866.24
  L 719.67 955.42
  A 0.74 0.74 0.0 0 1 718.63 955.42
  L 629.31 866.10
  A 0.42 0.41 -45.0 0 0 628.72 866.11
  L 540.66 955.62
  A 0.98 0.98 0.0 0 1 539.26 955.63
  L 449.73 866.11
  A 0.30 0.30 0.0 0 0 449.30 866.11
  L 359.89 955.52
  A 0.76 0.75 -44.7 0 1 358.82 955.52
  L 269.92 865.68
  A 1.07 1.06 -45.2 0 0 268.40 865.69
  L 180.43 955.11
  A 1.36 1.36 0.0 0 1 178.49 955.12
  L 89.35 865.98
  A 0.50 0.50 0.0 0 0 88.65 865.98
  Q 44.13 910.80 1.52 954.28
  Q 0.57 955.25 0.00 954.62"
/>
<path stroke="#fee5a7" vector-effect="non-scaling-stroke" d="
  M 1254.00 1032.63
  Q 1253.81 1030.33 1253.26 1029.77
  Q 1210.01 985.63 1168.98 944.43
  A 0.81 0.81 0.0 0 0 1167.83 944.44
  L 1079.53 1034.20
  A 0.84 0.84 0.0 0 1 1078.33 1034.20
  L 989.57 944.49
  A 1.17 1.16 -44.8 0 0 987.92 944.49
  L 899.90 1033.97
  A 1.22 1.22 0.0 0 1 898.16 1033.98
  L 809.48 944.36
  A 1.00 0.99 -45.2 0 0 808.06 944.37
  L 719.78 1034.11
  A 0.62 0.61 44.7 0 1 718.91 1034.11
  L 630.30 945.50
  A 0.83 0.83 0.0 0 0 629.11 945.51
  L 541.05 1035.02
  A 0.93 0.93 0.0 0 1 539.72 1035.02
  L 449.83 944.18
  A 0.80 0.80 0.0 0 0 448.69 944.18
  L 360.34 1033.99
  A 0.91 0.91 0.0 0 1 359.04 1033.99
  L 269.86 943.87
  A 0.86 0.86 0.0 0 0 268.64 943.87
  L 179.85 1034.13
  A 0.85 0.84 -44.8 0 1 178.64 1034.13
  L 89.83 944.38
  A 0.76 0.75 44.7 0 0 88.76 944.38
  L 0.00 1034.10"
/>
<path stroke="#fee5a7" vector-effect="non-scaling-stroke" d="
  M 1254.00 1086.54
  L 1169.00 1001.09
  A 0.90 0.88 -45.0 0 0 1167.73 1001.10
  L 1079.98 1090.30
  A 1.07 1.07 0.0 0 1 1078.45 1090.31
  L 989.13 1000.99
  A 0.79 0.79 0.0 0 0 988.00 1001.00
  L 899.94 1090.52
  A 0.83 0.83 0.0 0 1 898.76 1090.52
  L 809.10 1000.87
  A 0.69 0.68 -44.7 0 0 808.13 1000.87
  L 719.99 1090.47
  A 0.93 0.93 0.0 0 1 718.66 1090.48
  L 630.31 1002.13
  A 0.25 0.24 44.2 0 0 629.96 1002.13
  L 541.00 1091.08
  A 0.83 0.83 0.0 0 1 539.82 1091.08
  L 449.71 1000.97
  A 0.81 0.80 -45.3 0 0 448.57 1000.98
  L 360.69 1090.31
  A 1.00 0.99 44.8 0 1 359.28 1090.31
  L 269.58 1000.61
  A 0.82 0.82 0.0 0 0 268.41 1000.62
  L 180.28 1090.21
  A 0.95 0.95 0.0 0 1 178.93 1090.21
  L 89.94 1001.23
  A 1.03 1.02 -44.8 0 0 88.49 1001.23
  L 0.00 1090.52"
/>
<path stroke="#fee5a7" vector-effect="non-scaling-stroke" d="
  M 1254.00 1165.58
  Q 1249.66 1159.85 1244.01 1154.38
  Q 1236.07 1146.70 1235.99 1146.62
  Q 1204.02 1114.15 1168.84 1078.75
  A 0.77 0.77 0.0 0 0 1167.74 1078.75
  L 1079.29 1168.66
  A 0.63 0.63 0.0 0 1 1078.39 1168.66
  L 989.43 1078.75
  A 1.07 1.06 44.8 0 0 987.92 1078.75
  L 899.75 1168.38
  A 1.03 1.03 0.0 0 1 898.29 1168.38
  L 809.45 1078.61
  A 0.89 0.88 44.8 0 0 808.18 1078.61
  L 719.76 1168.49
  A 0.97 0.96 44.8 0 1 718.39 1168.49
  L 629.78 1078.94
  A 1.10 1.10 0.0 0 0 628.21 1078.94
  L 540.03 1168.57
  A 0.79 0.79 0.0 0 1 538.90 1168.58
  L 449.94 1078.68
  A 1.05 1.04 44.8 0 0 448.45 1078.68
  L 360.09 1168.49
  A 0.72 0.71 -45.3 0 1 359.07 1168.50
  L 269.37 1077.84
  A 0.57 0.56 -44.6 0 0 268.58 1077.84
  L 179.64 1168.26
  A 0.80 0.80 0.0 0 1 178.50 1168.26
  L 89.88 1078.71
  A 0.94 0.93 -44.8 0 0 88.55 1078.71
  L 0.00 1168.55"
/>
<path stroke="#fee5a7" vector-effect="non-scaling-stroke" d="
  M 1254.00 1220.16
  L 1168.73 1135.26
  A 0.62 0.61 44.7 0 0 1167.86 1135.26
  L 1079.70 1224.87
  A 0.71 0.70 -45.3 0 1 1078.70 1224.88
  L 989.13 1135.31
  A 0.83 0.83 0.0 0 0 987.95 1135.32
  L 899.86 1224.87
  A 0.71 0.71 0.0 0 1 898.86 1224.87
  L 809.09 1135.10
  A 0.66 0.64 44.4 0 0 808.17 1135.10
  L 719.66 1225.07
  A 0.62 0.62 0.0 0 1 718.79 1225.08
  L 629.29 1135.57
  A 0.51 0.50 -45.4 0 0 628.57 1135.58
  L 540.55 1225.05
  A 0.80 0.80 0.0 0 1 539.41 1225.05
  L 449.51 1135.15
  A 0.71 0.70 -45.3 0 0 448.51 1135.16
  L 360.56 1224.56
  A 0.92 0.91 44.6 0 1 359.26 1224.56
  L 269.36 1134.66
  A 0.58 0.58 0.0 0 0 268.53 1134.67
  L 179.84 1224.82
  A 0.57 0.57 0.0 0 1 179.02 1224.82
  L 89.52 1135.33
  A 0.64 0.64 0.0 0 0 88.61 1135.33
  L 0.00 1224.96"
/>
<path stroke="#fee5a7" vector-effect="non-scaling-stroke" d="
  M 1206.12 1254.00
  L 1207.36 1253.86
  A 0.34 0.34 0.0 0 0 1207.56 1253.29
  L 1168.91 1214.23
  A 1.00 0.99 44.8 0 0 1167.50 1214.23
  L 1128.50 1254.00"
/>
<path stroke="#fee5a7" vector-effect="non-scaling-stroke" d="
  M 1028.72 1254.00
  L 989.64 1214.41
  A 0.71 0.71 0.0 0 0 988.62 1214.41
  L 949.53 1254.00"
/>
<path stroke="#fee5a7" vector-effect="non-scaling-stroke" d="
  M 844.87 1254.00
  L 847.82 1253.89
  A 0.34 0.33 66.6 0 0 848.04 1253.32
  L 809.78 1214.65
  A 1.21 1.21 0.0 0 0 808.06 1214.65
  L 769.26 1254.00"
/>
<path stroke="#fee5a7" vector-effect="non-scaling-stroke" d="
  M 666.37 1254.00
  L 667.81 1253.90
  A 0.48 0.48 0.0 0 0 668.12 1253.09
  L 629.67 1214.24
  A 0.71 0.71 0.0 0 0 628.65 1214.24
  L 589.66 1254.00"
/>
<path stroke="#fee5a7" vector-effect="non-scaling-stroke" d="
  M 489.10 1254.00
  L 450.05 1214.25
  A 0.81 0.81 0.0 0 0 448.90 1214.25
  L 409.79 1254.00"
/>
<path stroke="#fee5a7" vector-effect="non-scaling-stroke" d="
  M 308.12 1254.00
  Q 309.03 1254.07 309.29 1253.52
  A 0.36 0.36 0.0 0 0 309.22 1253.11
  L 269.74 1213.21
  A 0.55 0.55 0.0 0 0 268.96 1213.21
  L 229.28 1254.00"
/>
<path stroke="#fee5a7" vector-effect="non-scaling-stroke" d="
  M 128.83 1254.00
  L 90.04 1214.53
  A 1.24 1.24 0.0 0 0 88.27 1214.52
  L 49.40 1254.00"
/>
<path stroke="#fee5a7" vector-effect="non-scaling-stroke" d="
  M 307.50 1254.00
  Q 307.01 1253.87 306.62 1254.00"
/>
</g>
<path fill="#fed568" d="
  M 8.94 0.00
  Q 5.17 4.70 0.93 8.72
  Q 0.64 8.99 0.41 8.91
  Q 0.17 8.82 0.00 8.50
  L 0.00 0.00
  L 8.94 0.00
  Z"
/>
<path fill="#fdf5e5" d="
  M 167.72 0.00
  Q 173.17 6.82 179.33 12.28
  A 0.77 0.77 0.0 0 0 180.40 12.23
  L 192.11 0.00
  L 344.92 0.00
  L 359.46 15.17
  A 0.34 0.34 0.0 0 0 359.96 15.17
  L 374.39 0.00
  L 528.55 0.00
  L 540.57 12.61
  A 0.42 0.42 0.0 0 0 541.18 12.61
  L 553.23 0.00
  L 707.58 0.00
  L 718.71 11.83
  A 0.54 0.54 0.0 0 0 719.49 11.83
  L 730.73 0.00
  L 888.01 0.00
  L 899.25 11.73
  A 0.61 0.61 0.0 0 0 900.13 11.73
  L 911.45 0.00
  L 1065.06 0.00
  L 1078.20 13.09
  A 0.62 0.62 0.0 0 0 1079.09 13.07
  L 1091.05 0.00
  L 1246.40 0.00
  Q 1249.57 4.16 1254.00 7.56
  L 1254.00 91.95
  Q 1252.38 89.02 1249.52 86.37
  Q 1245.54 82.68 1245.49 82.62
  Q 1207.33 43.81 1169.05 5.39
  A 0.65 0.64 -45.3 0 0 1168.13 5.40
  L 1079.65 95.34
  A 0.52 0.52 0.0 0 1 1078.91 95.34
  L 989.58 5.06
  A 0.80 0.79 -45.3 0 0 988.44 5.07
  L 899.81 95.17
  A 0.80 0.79 -44.7 0 1 898.68 95.17
  L 809.45 4.99
  A 0.78 0.78 0.0 0 0 808.34 4.99
  L 720.29 94.50
  A 0.82 0.81 -44.8 0 1 719.12 94.50
  L 630.93 3.33
  A 0.47 0.47 0.0 0 0 630.26 3.33
  L 540.30 94.78
  A 0.29 0.28 -44.3 0 1 539.89 94.78
  L 450.55 4.49
  A 1.16 1.16 0.0 0 0 448.90 4.50
  L 360.74 94.11
  A 0.77 0.77 0.0 0 1 359.64 94.11
  L 269.77 3.28
  A 0.83 0.82 44.8 0 0 268.60 3.28
  L 179.59 93.77
  A 0.49 0.48 44.6 0 1 178.90 93.77
  L 88.82 2.73
  A 0.71 0.71 0.0 0 0 87.82 2.73
  Q 47.74 43.73 10.95 81.70
  Q 3.53 89.37 0.00 93.81
  L 0.00 8.50
  Q 0.17 8.82 0.41 8.91
  Q 0.64 8.99 0.93 8.72
  Q 5.17 4.70 8.94 0.00
  L 167.72 0.00
  Z"
/>
<path fill="#fed568" d="
  M 192.11 0.00
  L 180.40 12.23
  A 0.77 0.77 0.0 0 1 179.33 12.28
  Q 173.17 6.82 167.72 0.00
  L 192.11 0.00
  Z"
/>
<path fill="#fed568" d="
  M 374.39 0.00
  L 359.96 15.17
  A 0.34 0.34 0.0 0 1 359.46 15.17
  L 344.92 0.00
  L 374.39 0.00
  Z"
/>
<path fill="#fed568" d="
  M 553.23 0.00
  L 541.18 12.61
  A 0.42 0.42 0.0 0 1 540.57 12.61
  L 528.55 0.00
  L 553.23 0.00
  Z"
/>
<path fill="#fed568" d="
  M 730.73 0.00
  L 719.49 11.83
  A 0.54 0.54 0.0 0 1 718.71 11.83
  L 707.58 0.00
  L 730.73 0.00
  Z"
/>
<path fill="#fed568" d="
  M 911.45 0.00
  L 900.13 11.73
  A 0.61 0.61 0.0 0 1 899.25 11.73
  L 888.01 0.00
  L 911.45 0.00
  Z"
/>
<path fill="#fed568" d="
  M 1091.05 0.00
  L 1079.09 13.07
  A 0.62 0.62 0.0 0 1 1078.20 13.09
  L 1065.06 0.00
  L 1091.05 0.00
  Z"
/>
<path fill="#fed568" d="
  M 1254.00 0.00
  L 1254.00 7.56
  Q 1249.57 4.16 1246.40 0.00
  L 1254.00 0.00
  Z"
/>
<path fill="#fed568" d="
  M 1254.00 91.95
  L 1254.00 147.40
  L 1169.23 62.79
  A 0.66 0.66 0.0 0 0 1168.30 62.79
  L 1079.31 151.78
  A 0.89 0.88 45.2 0 1 1078.05 151.77
  L 989.79 62.58
  A 0.42 0.41 -44.5 0 0 989.20 62.58
  L 899.38 151.46
  A 0.48 0.47 -44.6 0 1 898.71 151.46
  L 809.62 62.36
  A 0.40 0.39 -44.5 0 0 809.07 62.36
  L 720.05 151.39
  A 0.76 0.75 45.0 0 1 718.98 151.38
  L 630.80 62.27
  A 0.48 0.47 45.4 0 0 630.12 62.26
  L 540.53 151.85
  A 0.64 0.64 0.0 0 1 539.63 151.85
  L 450.97 62.24
  A 0.66 0.66 0.0 0 0 450.04 62.23
  L 360.49 150.85
  A 0.86 0.85 -44.3 0 1 359.29 150.84
  L 269.73 60.33
  A 0.64 0.64 0.0 0 0 268.83 60.33
  L 180.06 150.57
  A 0.42 0.42 0.0 0 1 179.46 150.57
  L 89.30 60.42
  A 0.54 0.54 0.0 0 0 88.54 60.42
  L 0.00 150.24
  L 0.00 93.81
  Q 3.53 89.37 10.95 81.70
  Q 47.74 43.73 87.82 2.73
  A 0.71 0.71 0.0 0 1 88.82 2.73
  L 178.90 93.77
  A 0.49 0.48 44.6 0 0 179.59 93.77
  L 268.60 3.28
  A 0.83 0.82 44.8 0 1 269.77 3.28
  L 359.64 94.11
  A 0.77 0.77 0.0 0 0 360.74 94.11
  L 448.90 4.50
  A 1.16 1.16 0.0 0 1 450.55 4.49
  L 539.89 94.78
  A 0.29 0.28 -44.3 0 0 540.30 94.78
  L 630.26 3.33
  A 0.47 0.47 0.0 0 1 630.93 3.33
  L 719.12 94.50
  A 0.82 0.81 -44.8 0 0 720.29 94.50
  L 808.34 4.99
  A 0.78 0.78 0.0 0 1 809.45 4.99
  L 898.68 95.17
  A 0.80 0.79 -44.7 0 0 899.81 95.17
  L 988.44 5.07
  A 0.80 0.79 -45.3 0 1 989.58 5.06
  L 1078.91 95.34
  A 0.52 0.52 0.0 0 0 1079.65 95.34
  L 1168.13 5.40
  A 0.65 0.64 -45.3 0 1 1169.05 5.39
  Q 1207.33 43.81 1245.49 82.62
  Q 1245.54 82.68 1249.52 86.37
  Q 1252.38 89.02 1254.00 91.95
  Z"
/>
<path fill="#fdf5e5" d="
  M 1254.00 147.40
  L 1254.00 225.57
  Q 1248.77 219.44 1242.65 213.43
  C 1217.62 188.82 1193.30 163.76 1168.99 139.44
  A 0.91 0.91 0.0 0 0 1167.70 139.45
  L 1079.69 228.91
  A 0.62 0.61 44.7 0 1 1078.82 228.91
  L 989.62 139.71
  A 0.70 0.70 0.0 0 0 988.63 139.72
  L 900.61 229.20
  A 1.11 1.10 -45.0 0 1 899.04 229.21
  L 809.57 139.74
  A 0.98 0.98 0.0 0 0 808.18 139.75
  L 720.44 228.94
  A 0.98 0.97 -45.2 0 1 719.06 228.95
  L 629.31 139.20
  A 0.62 0.61 44.7 0 0 628.44 139.20
  L 540.05 229.05
  A 0.27 0.25 -45.0 0 1 539.68 229.06
  L 450.06 139.43
  A 1.15 1.15 0.0 0 0 448.43 139.44
  L 360.93 228.39
  A 1.24 1.24 0.0 0 1 359.16 228.40
  L 270.30 138.59
  A 1.14 1.14 0.0 0 0 268.68 138.59
  L 180.09 228.64
  A 0.58 0.57 -45.3 0 1 179.27 228.65
  L 90.12 139.50
  A 1.04 1.03 44.8 0 0 88.65 139.50
  L 0.00 229.36
  L 0.00 150.24
  L 88.54 60.42
  A 0.54 0.54 0.0 0 1 89.30 60.42
  L 179.46 150.57
  A 0.42 0.42 0.0 0 0 180.06 150.57
  L 268.83 60.33
  A 0.64 0.64 0.0 0 1 269.73 60.33
  L 359.29 150.84
  A 0.86 0.85 -44.3 0 0 360.49 150.85
  L 450.04 62.23
  A 0.66 0.66 0.0 0 1 450.97 62.24
  L 539.63 151.85
  A 0.64 0.64 0.0 0 0 540.53 151.85
  L 630.12 62.26
  A 0.48 0.47 45.4 0 1 630.80 62.27
  L 718.98 151.38
  A 0.76 0.75 45.0 0 0 720.05 151.39
  L 809.07 62.36
  A 0.40 0.39 -44.5 0 1 809.62 62.36
  L 898.71 151.46
  A 0.48 0.47 -44.6 0 0 899.38 151.46
  L 989.20 62.58
  A 0.42 0.41 -44.5 0 1 989.79 62.58
  L 1078.05 151.77
  A 0.89 0.88 45.2 0 0 1079.31 151.78
  L 1168.30 62.79
  A 0.66 0.66 0.0 0 1 1169.23 62.79
  L 1254.00 147.40
  Z"
/>
<path fill="#fed568" d="
  M 1254.00 225.57
  L 1254.00 281.07
  L 1168.79 195.79
  A 0.36 0.36 0.0 0 0 1168.29 195.79
  L 1079.07 285.01
  A 0.25 0.25 0.0 0 1 1078.71 285.01
  L 989.78 196.08
  A 0.72 0.71 -44.7 0 0 988.77 196.08
  L 899.80 285.05
  A 0.58 0.58 0.0 0 1 898.98 285.05
  L 809.94 196.02
  A 0.44 0.44 0.0 0 0 809.32 196.02
  L 720.03 285.30
  A 0.57 0.57 0.0 0 1 719.22 285.30
  L 629.58 195.67
  A 0.62 0.62 0.0 0 0 628.70 195.67
  L 540.74 285.08
  A 0.88 0.88 0.0 0 1 539.48 285.09
  L 450.13 195.75
  A 0.69 0.68 -44.7 0 0 449.16 195.75
  L 360.12 284.79
  A 0.44 0.43 44.5 0 1 359.51 284.79
  L 269.98 195.25
  A 0.64 0.64 0.0 0 0 269.07 195.25
  L 179.75 284.57
  A 0.61 0.61 0.0 0 1 178.89 284.57
  L 90.16 195.84
  A 0.62 0.62 0.0 0 0 89.29 195.84
  L 0.00 285.84
  L 0.00 229.36
  L 88.65 139.50
  A 1.04 1.03 44.8 0 1 90.12 139.50
  L 179.27 228.65
  A 0.58 0.57 -45.3 0 0 180.09 228.64
  L 268.68 138.59
  A 1.14 1.14 0.0 0 1 270.30 138.59
  L 359.16 228.40
  A 1.24 1.24 0.0 0 0 360.93 228.39
  L 448.43 139.44
  A 1.15 1.15 0.0 0 1 450.06 139.43
  L 539.68 229.06
  A 0.27 0.25 -45.0 0 0 540.05 229.05
  L 628.44 139.20
  A 0.62 0.61 44.7 0 1 629.31 139.20
  L 719.06 228.95
  A 0.98 0.97 -45.2 0 0 720.44 228.94
  L 808.18 139.75
  A 0.98 0.98 0.0 0 1 809.57 139.74
  L 899.04 229.21
  A 1.11 1.10 -45.0 0 0 900.61 229.20
  L 988.63 139.72
  A 0.70 0.70 0.0 0 1 989.62 139.71
  L 1078.82 228.91
  A 0.62 0.61 44.7 0 0 1079.69 228.91
  L 1167.70 139.45
  A 0.91 0.91 0.0 0 1 1168.99 139.44
  C 1193.30 163.76 1217.62 188.82 1242.65 213.43
  Q 1248.77 219.44 1254.00 225.57
  Z"
/>
<path fill="#fdf5e5" d="
  M 1254.00 281.07
  L 1254.00 359.62
  Q 1249.90 354.57 1244.87 349.64
  Q 1236.85 341.77 1236.79 341.71
  Q 1202.31 306.49 1168.98 273.12
  A 0.91 0.91 0.0 0 0 1167.69 273.13
  L 1079.45 362.83
  A 0.43 0.42 -44.5 0 1 1078.84 362.83
  L 989.27 273.27
  A 0.42 0.42 0.0 0 0 988.67 273.27
  L 899.06 362.88
  A 0.18 0.18 0.0 0 1 898.80 362.88
  L 809.75 273.83
  A 0.59 0.58 44.7 0 0 808.92 273.83
  L 719.83 362.91
  A 0.31 0.31 0.0 0 1 719.39 362.91
  L 629.88 273.40
  A 1.32 1.31 -45.2 0 0 628.02 273.41
  L 540.35 362.53
  A 0.71 0.71 0.0 0 1 539.33 362.53
  L 449.76 272.96
  A 0.45 0.45 0.0 0 0 449.13 272.96
  L 359.75 362.34
  A 0.40 0.39 45.5 0 1 359.19 362.33
  L 270.03 272.23
  A 0.83 0.82 -44.8 0 0 268.86 272.23
  L 180.07 362.49
  A 0.64 0.62 44.4 0 1 179.17 362.49
  L 89.66 272.99
  A 0.67 0.66 44.7 0 0 88.71 272.99
  L 0.00 362.55
  L 0.00 285.84
  L 89.29 195.84
  A 0.62 0.62 0.0 0 1 90.16 195.84
  L 178.89 284.57
  A 0.61 0.61 0.0 0 0 179.75 284.57
  L 269.07 195.25
  A 0.64 0.64 0.0 0 1 269.98 195.25
  L 359.51 284.79
  A 0.44 0.43 44.5 0 0 360.12 284.79
  L 449.16 195.75
  A 0.69 0.68 -44.7 0 1 450.13 195.75
  L 539.48 285.09
  A 0.88 0.88 0.0 0 0 540.74 285.08
  L 628.70 195.67
  A 0.62 0.62 0.0 0 1 629.58 195.67
  L 719.22 285.30
  A 0.57 0.57 0.0 0 0 720.03 285.30
  L 809.32 196.02
  A 0.44 0.44 0.0 0 1 809.94 196.02
  L 898.98 285.05
  A 0.58 0.58 0.0 0 0 899.80 285.05
  L 988.77 196.08
  A 0.72 0.71 -44.7 0 1 989.78 196.08
  L 1078.71 285.01
  A 0.25 0.25 0.0 0 0 1079.07 285.01
  L 1168.29 195.79
  A 0.36 0.36 0.0 0 1 1168.79 195.79
  L 1254.00 281.07
  Z"
/>
<path fill="#fed568" d="
  M 1254.00 359.62
  L 1254.00 415.03
  L 1168.99 329.73
  A 0.40 0.40 0.0 0 0 1168.43 329.73
  L 1079.15 419.01
  A 0.40 0.39 -44.5 0 1 1078.60 419.01
  L 989.32 329.74
  A 0.62 0.62 0.0 0 0 988.44 329.74
  L 900.33 419.31
  A 1.04 1.03 44.8 0 1 898.86 419.31
  L 810.01 330.46
  A 0.93 0.93 0.0 0 0 808.69 330.46
  L 720.06 419.10
  A 0.71 0.70 44.7 0 1 719.07 419.10
  L 629.40 329.42
  A 0.48 0.48 0.0 0 0 628.72 329.42
  L 540.74 418.86
  A 1.11 1.10 44.8 0 1 539.17 418.86
  L 450.15 329.84
  A 0.78 0.78 0.0 0 0 449.05 329.84
  L 360.24 418.65
  A 0.64 0.64 0.0 0 1 359.34 418.65
  L 270.05 329.35
  A 1.22 1.22 0.0 0 0 268.32 329.36
  L 180.32 418.81
  A 0.93 0.93 0.0 0 1 179.00 418.82
  L 89.66 329.48
  A 0.64 0.63 -45.3 0 0 88.76 329.49
  L 0.00 419.05
  L 0.00 362.55
  L 88.71 272.99
  A 0.67 0.66 44.7 0 1 89.66 272.99
  L 179.17 362.49
  A 0.64 0.62 44.4 0 0 180.07 362.49
  L 268.86 272.23
  A 0.83 0.82 -44.8 0 1 270.03 272.23
  L 359.19 362.33
  A 0.40 0.39 45.5 0 0 359.75 362.34
  L 449.13 272.96
  A 0.45 0.45 0.0 0 1 449.76 272.96
  L 539.33 362.53
  A 0.71 0.71 0.0 0 0 540.35 362.53
  L 628.02 273.41
  A 1.32 1.31 -45.2 0 1 629.88 273.40
  L 719.39 362.91
  A 0.31 0.31 0.0 0 0 719.83 362.91
  L 808.92 273.83
  A 0.59 0.58 44.7 0 1 809.75 273.83
  L 898.80 362.88
  A 0.18 0.18 0.0 0 0 899.06 362.88
  L 988.67 273.27
  A 0.42 0.42 0.0 0 1 989.27 273.27
  L 1078.84 362.83
  A 0.43 0.42 -44.5 0 0 1079.45 362.83
  L 1167.69 273.13
  A 0.91 0.91 0.0 0 1 1168.98 273.12
  Q 1202.31 306.49 1236.79 341.71
  Q 1236.85 341.77 1244.87 349.64
  Q 1249.90 354.57 1254.00 359.62
  Z"
/>
<path fill="#fdf5e5" d="
  M 1254.00 415.03
  L 1254.00 493.80
  Q 1253.16 491.53 1250.99 489.57
  Q 1248.33 487.16 1248.30 487.13
  Q 1208.17 446.52 1168.91 407.13
  A 0.91 0.91 0.0 0 0 1167.61 407.13
  L 1079.39 496.82
  A 0.74 0.74 0.0 0 1 1078.35 496.82
  L 989.63 407.15
  A 1.36 1.36 0.0 0 0 987.69 407.16
  L 899.68 496.62
  A 1.03 1.03 0.0 0 1 898.22 496.62
  L 809.36 406.82
  A 0.73 0.73 0.0 0 0 808.32 406.82
  L 719.99 496.62
  A 1.12 1.12 0.0 0 1 718.39 496.62
  L 629.86 407.15
  A 1.14 1.13 -45.2 0 0 628.24 407.16
  L 540.15 496.71
  A 0.87 0.86 44.8 0 1 538.92 496.71
  L 450.21 407.05
  A 1.21 1.20 44.8 0 0 448.50 407.05
  L 360.56 496.45
  A 1.17 1.17 0.0 0 1 358.89 496.46
  L 270.17 406.79
  A 1.32 1.31 44.8 0 0 268.30 406.79
  L 179.82 496.73
  A 0.74 0.74 0.0 0 1 178.77 496.73
  L 90.01 407.03
  A 0.93 0.92 -44.8 0 0 88.70 407.03
  L 0.00 496.55
  L 0.00 419.05
  L 88.76 329.49
  A 0.64 0.63 -45.3 0 1 89.66 329.48
  L 179.00 418.82
  A 0.93 0.93 0.0 0 0 180.32 418.81
  L 268.32 329.36
  A 1.22 1.22 0.0 0 1 270.05 329.35
  L 359.34 418.65
  A 0.64 0.64 0.0 0 0 360.24 418.65
  L 449.05 329.84
  A 0.78 0.78 0.0 0 1 450.15 329.84
  L 539.17 418.86
  A 1.11 1.10 44.8 0 0 540.74 418.86
  L 628.72 329.42
  A 0.48 0.48 0.0 0 1 629.40 329.42
  L 719.07 419.10
  A 0.71 0.70 44.7 0 0 720.06 419.10
  L 808.69 330.46
  A 0.93 0.93 0.0 0 1 810.01 330.46
  L 898.86 419.31
  A 1.04 1.03 44.8 0 0 900.33 419.31
  L 988.44 329.74
  A 0.62 0.62 0.0 0 1 989.32 329.74
  L 1078.60 419.01
  A 0.40 0.39 -44.5 0 0 1079.15 419.01
  L 1168.43 329.73
  A 0.40 0.40 0.0 0 1 1168.99 329.73
  L 1254.00 415.03
  Z"
/>
<path fill="#fed568" d="
  M 1254.00 493.80
  L 1254.00 549.09
  L 1168.91 463.79
  A 0.49 0.48 45.0 0 0 1168.22 463.78
  L 1079.20 552.81
  A 0.59 0.59 0.0 0 1 1078.37 552.81
  L 989.00 463.43
  A 0.18 0.18 0.0 0 0 988.74 463.43
  L 899.21 552.96
  A 0.31 0.31 0.0 0 1 898.77 552.96
  L 809.62 463.80
  A 0.74 0.74 0.0 0 0 808.58 463.80
  L 719.58 552.80
  A 0.60 0.59 -44.7 0 1 718.73 552.80
  L 629.41 463.49
  A 0.61 0.61 0.0 0 0 628.55 463.49
  L 540.48 553.02
  A 0.78 0.78 0.0 0 1 539.37 553.02
  L 449.86 463.51
  A 0.45 0.45 0.0 0 0 449.22 463.51
  L 359.95 552.79
  A 0.49 0.49 0.0 0 1 359.25 552.79
  L 269.81 463.35
  A 0.47 0.47 0.0 0 0 269.14 463.35
  L 179.53 552.96
  A 0.24 0.24 0.0 0 1 179.19 552.96
  L 89.59 463.36
  A 0.45 0.45 0.0 0 0 88.95 463.37
  L 0.00 553.05
  L 0.00 496.55
  L 88.70 407.03
  A 0.93 0.92 -44.8 0 1 90.01 407.03
  L 178.77 496.73
  A 0.74 0.74 0.0 0 0 179.82 496.73
  L 268.30 406.79
  A 1.32 1.31 44.8 0 1 270.17 406.79
  L 358.89 496.46
  A 1.17 1.17 0.0 0 0 360.56 496.45
  L 448.50 407.05
  A 1.21 1.20 44.8 0 1 450.21 407.05
  L 538.92 496.71
  A 0.87 0.86 44.8 0 0 540.15 496.71
  L 628.24 407.16
  A 1.14 1.13 -45.2 0 1 629.86 407.15
  L 718.39 496.62
  A 1.12 1.12 0.0 0 0 719.99 496.62
  L 808.32 406.82
  A 0.73 0.73 0.0 0 1 809.36 406.82
  L 898.22 496.62
  A 1.03 1.03 0.0 0 0 899.68 496.62
  L 987.69 407.16
  A 1.36 1.36 0.0 0 1 989.63 407.15
  L 1078.35 496.82
  A 0.74 0.74 0.0 0 0 1079.39 496.82
  L 1167.61 407.13
  A 0.91 0.91 0.0 0 1 1168.91 407.13
  Q 1208.17 446.52 1248.30 487.13
  Q 1248.33 487.16 1250.99 489.57
  Q 1253.16 491.53 1254.00 493.80
  Z"
/>
<path fill="#fdf5e5" d="
  M 1254.00 549.09
  L 1254.00 628.50
  Q 1253.76 626.67 1253.16 626.07
  Q 1199.17 571.57 1168.98 541.18
  A 0.87 0.87 0.0 0 0 1167.74 541.18
  L 1079.53 630.85
  A 0.88 0.88 0.0 0 1 1078.27 630.85
  L 989.51 541.15
  A 1.19 1.18 44.8 0 0 987.82 541.15
  L 899.78 630.64
  A 1.10 1.09 44.8 0 1 898.23 630.64
  L 809.66 541.12
  A 1.24 1.23 -45.2 0 0 807.90 541.13
  L 719.82 630.66
  A 0.98 0.97 44.8 0 1 718.43 630.66
  L 629.87 541.16
  A 1.12 1.12 0.0 0 0 628.27 541.16
  L 540.11 630.78
  A 0.80 0.80 0.0 0 1 538.97 630.78
  L 450.18 541.05
  A 1.24 1.24 0.0 0 0 448.42 541.05
  L 360.31 630.62
  A 0.83 0.83 0.0 0 1 359.13 630.62
  L 270.08 540.62
  A 1.07 1.07 0.0 0 0 268.56 540.63
  L 180.19 630.47
  A 1.21 1.20 -44.8 0 1 178.48 630.47
  L 89.90 540.95
  A 0.66 0.65 -44.7 0 0 88.97 540.95
  L 0.00 630.59
  L 0.00 553.05
  L 88.95 463.37
  A 0.45 0.45 0.0 0 1 89.59 463.36
  L 179.19 552.96
  A 0.24 0.24 0.0 0 0 179.53 552.96
  L 269.14 463.35
  A 0.47 0.47 0.0 0 1 269.81 463.35
  L 359.25 552.79
  A 0.49 0.49 0.0 0 0 359.95 552.79
  L 449.22 463.51
  A 0.45 0.45 0.0 0 1 449.86 463.51
  L 539.37 553.02
  A 0.78 0.78 0.0 0 0 540.48 553.02
  L 628.55 463.49
  A 0.61 0.61 0.0 0 1 629.41 463.49
  L 718.73 552.80
  A 0.60 0.59 -44.7 0 0 719.58 552.80
  L 808.58 463.80
  A 0.74 0.74 0.0 0 1 809.62 463.80
  L 898.77 552.96
  A 0.31 0.31 0.0 0 0 899.21 552.96
  L 988.74 463.43
  A 0.18 0.18 0.0 0 1 989.00 463.43
  L 1078.37 552.81
  A 0.59 0.59 0.0 0 0 1079.20 552.81
  L 1168.22 463.78
  A 0.49 0.48 45.0 0 1 1168.91 463.79
  L 1254.00 549.09
  Z"
/>
<path fill="#fed568" d="
  M 1254.00 628.50
  L 1254.00 683.12
  L 1168.94 597.70
  A 0.45 0.45 0.0 0 0 1168.31 597.70
  L 1079.04 686.98
  A 0.34 0.33 -44.4 0 1 1078.57 686.98
  L 989.14 597.54
  A 0.38 0.38 0.0 0 0 988.62 597.54
  L 899.42 686.74
  A 0.58 0.57 44.6 0 1 898.61 686.74
  L 809.38 597.51
  A 0.45 0.45 0.0 0 0 808.74 597.51
  L 719.27 686.97
  A 0.29 0.28 44.3 0 1 718.86 686.97
  L 629.74 597.86
  A 1.15 1.15 0.0 0 0 628.11 597.86
  L 540.43 687.00
  A 0.82 0.81 -45.2 0 1 539.27 687.01
  L 449.75 597.48
  A 0.31 0.30 44.3 0 0 449.32 597.48
  L 360.12 686.69
  A 0.65 0.64 -44.7 0 1 359.21 686.69
  L 269.79 597.27
  A 0.54 0.54 0.0 0 0 269.02 597.27
  L 179.36 686.93
  A 0.19 0.18 -44.0 0 1 179.09 686.93
  L 89.63 597.48
  A 0.64 0.64 0.0 0 0 88.72 597.48
  L 0.00 687.10
  L 0.00 630.59
  L 88.97 540.95
  A 0.66 0.65 -44.7 0 1 89.90 540.95
  L 178.48 630.47
  A 1.21 1.20 -44.8 0 0 180.19 630.47
  L 268.56 540.63
  A 1.07 1.07 0.0 0 1 270.08 540.62
  L 359.13 630.62
  A 0.83 0.83 0.0 0 0 360.31 630.62
  L 448.42 541.05
  A 1.24 1.24 0.0 0 1 450.18 541.05
  L 538.97 630.78
  A 0.80 0.80 0.0 0 0 540.11 630.78
  L 628.27 541.16
  A 1.12 1.12 0.0 0 1 629.87 541.16
  L 718.43 630.66
  A 0.98 0.97 44.8 0 0 719.82 630.66
  L 807.90 541.13
  A 1.24 1.23 -45.2 0 1 809.66 541.12
  L 898.23 630.64
  A 1.10 1.09 44.8 0 0 899.78 630.64
  L 987.82 541.15
  A 1.19 1.18 44.8 0 1 989.51 541.15
  L 1078.27 630.85
  A 0.88 0.88 0.0 0 0 1079.53 630.85
  L 1167.74 541.18
  A 0.87 0.87 0.0 0 1 1168.98 541.18
  Q 1199.17 571.57 1253.16 626.07
  Q 1253.76 626.67 1254.00 628.50
  Z"
/>
<path fill="#fdf5e5" d="
  M 1254.00 683.12
  L 1254.00 762.66
  L 1253.62 761.27
  A 1.72 1.70 -75.5 0 0 1253.18 760.51
  L 1169.24 675.69
  A 1.27 1.27 0.0 0 0 1167.42 675.69
  L 1079.49 765.08
  A 0.52 0.51 -44.6 0 1 1078.76 765.08
  L 989.10 675.42
  A 0.95 0.95 0.0 0 0 987.75 675.42
  L 899.77 764.87
  A 0.71 0.71 0.0 0 1 898.77 764.87
  L 809.60 675.70
  A 1.32 1.32 0.0 0 0 807.72 675.70
  L 719.93 764.95
  A 0.69 0.68 44.7 0 1 718.96 764.95
  L 629.88 675.87
  A 1.43 1.43 0.0 0 0 627.85 675.88
  L 540.24 764.94
  A 0.69 0.69 0.0 0 1 539.26 764.94
  L 449.69 675.38
  A 0.91 0.91 0.0 0 0 448.39 675.38
  L 360.33 764.89
  A 0.82 0.81 44.8 0 1 359.16 764.89
  L 269.93 674.73
  A 0.83 0.83 0.0 0 0 268.73 674.73
  L 180.04 764.88
  A 0.67 0.67 0.0 0 1 179.08 764.88
  L 89.63 675.43
  A 0.62 0.62 0.0 0 0 88.76 675.43
  L 0.00 765.08
  L 0.00 687.10
  L 88.72 597.48
  A 0.64 0.64 0.0 0 1 89.63 597.48
  L 179.09 686.93
  A 0.19 0.18 -44.0 0 0 179.36 686.93
  L 269.02 597.27
  A 0.54 0.54 0.0 0 1 269.79 597.27
  L 359.21 686.69
  A 0.65 0.64 -44.7 0 0 360.12 686.69
  L 449.32 597.48
  A 0.31 0.30 44.3 0 1 449.75 597.48
  L 539.27 687.01
  A 0.82 0.81 -45.2 0 0 540.43 687.00
  L 628.11 597.86
  A 1.15 1.15 0.0 0 1 629.74 597.86
  L 718.86 686.97
  A 0.29 0.28 44.3 0 0 719.27 686.97
  L 808.74 597.51
  A 0.45 0.45 0.0 0 1 809.38 597.51
  L 898.61 686.74
  A 0.58 0.57 44.6 0 0 899.42 686.74
  L 988.62 597.54
  A 0.38 0.38 0.0 0 1 989.14 597.54
  L 1078.57 686.98
  A 0.34 0.33 -44.4 0 0 1079.04 686.98
  L 1168.31 597.70
  A 0.45 0.45 0.0 0 1 1168.94 597.70
  L 1254.00 683.12
  Z"
/>
<path fill="#fed568" d="
  M 1254.00 762.66
  L 1254.00 817.38
  L 1168.89 731.93
  A 0.62 0.62 0.0 0 0 1168.01 731.93
  L 1080.04 821.36
  A 1.05 1.05 0.0 0 1 1078.55 821.36
  L 988.98 731.79
  A 0.62 0.61 44.7 0 0 988.11 731.79
  L 900.44 820.91
  A 1.51 1.51 0.0 0 1 898.30 820.92
  L 809.34 731.96
  A 0.99 0.98 -45.0 0 0 807.95 731.97
  L 720.27 821.10
  A 1.16 1.16 0.0 0 1 718.62 821.11
  L 629.56 732.06
  A 0.78 0.78 0.0 0 0 628.45 732.06
  L 540.46 821.51
  A 0.74 0.74 0.0 0 1 539.42 821.51
  L 449.60 731.70
  A 0.63 0.63 0.0 0 0 448.70 731.70
  L 360.43 821.44
  A 0.57 0.57 0.0 0 1 359.63 821.44
  L 269.51 731.32
  A 0.54 0.53 44.6 0 0 268.76 731.32
  L 180.19 821.36
  A 0.65 0.65 0.0 0 1 179.27 821.36
  L 89.69 731.78
  A 0.55 0.55 0.0 0 0 88.91 731.78
  L 0.00 821.84
  L 0.00 765.08
  L 88.76 675.43
  A 0.62 0.62 0.0 0 1 89.63 675.43
  L 179.08 764.88
  A 0.67 0.67 0.0 0 0 180.04 764.88
  L 268.73 674.73
  A 0.83 0.83 0.0 0 1 269.93 674.73
  L 359.16 764.89
  A 0.82 0.81 44.8 0 0 360.33 764.89
  L 448.39 675.38
  A 0.91 0.91 0.0 0 1 449.69 675.38
  L 539.26 764.94
  A 0.69 0.69 0.0 0 0 540.24 764.94
  L 627.85 675.88
  A 1.43 1.43 0.0 0 1 629.88 675.87
  L 718.96 764.95
  A 0.69 0.68 44.7 0 0 719.93 764.95
  L 807.72 675.70
  A 1.32 1.32 0.0 0 1 809.60 675.70
  L 898.77 764.87
  A 0.71 0.71 0.0 0 0 899.77 764.87
  L 987.75 675.42
  A 0.95 0.95 0.0 0 1 989.10 675.42
  L 1078.76 765.08
  A 0.52 0.51 -44.6 0 0 1079.49 765.08
  L 1167.42 675.69
  A 1.27 1.27 0.0 0 1 1169.24 675.69
  L 1253.18 760.51
  A 1.72 1.70 -75.5 0 1 1253.62 761.27
  L 1254.00 762.66
  Z"
/>
<path fill="#fdf5e5" d="
  M 1254.00 817.38
  L 1254.00 895.96
  L 1168.96 809.85
  A 0.91 0.90 44.8 0 0 1167.67 809.85
  L 1079.40 899.58
  A 0.84 0.84 0.0 0 1 1078.20 899.58
  L 989.20 809.64
  A 0.90 0.89 44.8 0 0 987.93 809.64
  L 899.51 899.53
  A 0.77 0.77 0.0 0 1 898.41 899.53
  L 809.57 809.76
  A 1.10 1.10 0.0 0 0 808.01 809.76
  L 719.82 899.41
  A 1.00 0.99 44.8 0 1 718.41 899.41
  L 629.83 809.89
  A 1.12 1.12 0.0 0 0 628.23 809.89
  L 539.84 899.74
  A 0.54 0.54 0.0 0 1 539.06 899.74
  L 450.20 809.94
  A 1.39 1.38 44.9 0 0 448.23 809.94
  L 360.28 899.34
  A 0.90 0.88 -45.0 0 1 359.01 899.35
  L 269.99 809.38
  A 1.31 1.30 44.8 0 0 268.14 809.38
  L 179.57 899.42
  A 0.50 0.50 0.0 0 1 178.85 899.42
  L 89.84 809.47
  A 0.85 0.83 44.5 0 0 88.64 809.47
  L 0.00 899.21
  L 0.00 821.84
  L 88.91 731.78
  A 0.55 0.55 0.0 0 1 89.69 731.78
  L 179.27 821.36
  A 0.65 0.65 0.0 0 0 180.19 821.36
  L 268.76 731.32
  A 0.54 0.53 44.6 0 1 269.51 731.32
  L 359.63 821.44
  A 0.57 0.57 0.0 0 0 360.43 821.44
  L 448.70 731.70
  A 0.63 0.63 0.0 0 1 449.60 731.70
  L 539.42 821.51
  A 0.74 0.74 0.0 0 0 540.46 821.51
  L 628.45 732.06
  A 0.78 0.78 0.0 0 1 629.56 732.06
  L 718.62 821.11
  A 1.16 1.16 0.0 0 0 720.27 821.10
  L 807.95 731.97
  A 0.99 0.98 -45.0 0 1 809.34 731.96
  L 898.30 820.92
  A 1.51 1.51 0.0 0 0 900.44 820.91
  L 988.11 731.79
  A 0.62 0.61 44.7 0 1 988.98 731.79
  L 1078.55 821.36
  A 1.05 1.05 0.0 0 0 1080.04 821.36
  L 1168.01 731.93
  A 0.62 0.62 0.0 0 1 1168.89 731.93
  L 1254.00 817.38
  Z"
/>
<path fill="#fed568" d="
  M 1254.00 895.96
  L 1254.00 951.86
  L 1169.22 866.64
  A 0.68 0.68 0.0 0 0 1168.26 866.64
  L 1079.35 955.54
  A 0.73 0.72 44.7 0 1 1078.32 955.54
  L 989.06 866.28
  A 0.33 0.33 0.0 0 0 988.59 866.28
  L 899.19 955.68
  A 0.35 0.35 0.0 0 1 898.69 955.68
  L 809.24 866.24
  A 0.28 0.27 -44.3 0 0 808.85 866.24
  L 719.67 955.42
  A 0.74 0.74 0.0 0 1 718.63 955.42
  L 629.31 866.10
  A 0.42 0.41 -45.0 0 0 628.72 866.11
  L 540.66 955.62
  A 0.98 0.98 0.0 0 1 539.26 955.63
  L 449.73 866.11
  A 0.30 0.30 0.0 0 0 449.30 866.11
  L 359.89 955.52
  A 0.76 0.75 -44.7 0 1 358.82 955.52
  L 269.92 865.68
  A 1.07 1.06 -45.2 0 0 268.40 865.69
  L 180.43 955.11
  A 1.36 1.36 0.0 0 1 178.49 955.12
  L 89.35 865.98
  A 0.50 0.50 0.0 0 0 88.65 865.98
  Q 44.13 910.80 1.52 954.28
  Q 0.57 955.25 0.00 954.62
  L 0.00 899.21
  L 88.64 809.47
  A 0.85 0.83 44.5 0 1 89.84 809.47
  L 178.85 899.42
  A 0.50 0.50 0.0 0 0 179.57 899.42
  L 268.14 809.38
  A 1.31 1.30 44.8 0 1 269.99 809.38
  L 359.01 899.35
  A 0.90 0.88 -45.0 0 0 360.28 899.34
  L 448.23 809.94
  A 1.39 1.38 44.9 0 1 450.20 809.94
  L 539.06 899.74
  A 0.54 0.54 0.0 0 0 539.84 899.74
  L 628.23 809.89
  A 1.12 1.12 0.0 0 1 629.83 809.89
  L 718.41 899.41
  A 1.00 0.99 44.8 0 0 719.82 899.41
  L 808.01 809.76
  A 1.10 1.10 0.0 0 1 809.57 809.76
  L 898.41 899.53
  A 0.77 0.77 0.0 0 0 899.51 899.53
  L 987.93 809.64
  A 0.90 0.89 44.8 0 1 989.20 809.64
  L 1078.20 899.58
  A 0.84 0.84 0.0 0 0 1079.40 899.58
  L 1167.67 809.85
  A 0.91 0.90 44.8 0 1 1168.96 809.85
  L 1254.00 895.96
  Z"
/>
<path fill="#fdf5e5" d="
  M 1254.00 951.86
  L 1254.00 1032.63
  Q 1253.81 1030.33 1253.26 1029.77
  Q 1210.01 985.63 1168.98 944.43
  A 0.81 0.81 0.0 0 0 1167.83 944.44
  L 1079.53 1034.20
  A 0.84 0.84 0.0 0 1 1078.33 1034.20
  L 989.57 944.49
  A 1.17 1.16 -44.8 0 0 987.92 944.49
  L 899.90 1033.97
  A 1.22 1.22 0.0 0 1 898.16 1033.98
  L 809.48 944.36
  A 1.00 0.99 -45.2 0 0 808.06 944.37
  L 719.78 1034.11
  A 0.62 0.61 44.7 0 1 718.91 1034.11
  L 630.30 945.50
  A 0.83 0.83 0.0 0 0 629.11 945.51
  L 541.05 1035.02
  A 0.93 0.93 0.0 0 1 539.72 1035.02
  L 449.83 944.18
  A 0.80 0.80 0.0 0 0 448.69 944.18
  L 360.34 1033.99
  A 0.91 0.91 0.0 0 1 359.04 1033.99
  L 269.86 943.87
  A 0.86 0.86 0.0 0 0 268.64 943.87
  L 179.85 1034.13
  A 0.85 0.84 -44.8 0 1 178.64 1034.13
  L 89.83 944.38
  A 0.76 0.75 44.7 0 0 88.76 944.38
  L 0.00 1034.10
  L 0.00 954.62
  Q 0.57 955.25 1.52 954.28
  Q 44.13 910.80 88.65 865.98
  A 0.50 0.50 0.0 0 1 89.35 865.98
  L 178.49 955.12
  A 1.36 1.36 0.0 0 0 180.43 955.11
  L 268.40 865.69
  A 1.07 1.06 -45.2 0 1 269.92 865.68
  L 358.82 955.52
  A 0.76 0.75 -44.7 0 0 359.89 955.52
  L 449.30 866.11
  A 0.30 0.30 0.0 0 1 449.73 866.11
  L 539.26 955.63
  A 0.98 0.98 0.0 0 0 540.66 955.62
  L 628.72 866.11
  A 0.42 0.41 -45.0 0 1 629.31 866.10
  L 718.63 955.42
  A 0.74 0.74 0.0 0 0 719.67 955.42
  L 808.85 866.24
  A 0.28 0.27 -44.3 0 1 809.24 866.24
  L 898.69 955.68
  A 0.35 0.35 0.0 0 0 899.19 955.68
  L 988.59 866.28
  A 0.33 0.33 0.0 0 1 989.06 866.28
  L 1078.32 955.54
  A 0.73 0.72 44.7 0 0 1079.35 955.54
  L 1168.26 866.64
  A 0.68 0.68 0.0 0 1 1169.22 866.64
  L 1254.00 951.86
  Z"
/>
<path fill="#fed568" d="
  M 1254.00 1032.63
  L 1254.00 1086.54
  L 1169.00 1001.09
  A 0.90 0.88 -45.0 0 0 1167.73 1001.10
  L 1079.98 1090.30
  A 1.07 1.07 0.0 0 1 1078.45 1090.31
  L 989.13 1000.99
  A 0.79 0.79 0.0 0 0 988.00 1001.00
  L 899.94 1090.52
  A 0.83 0.83 0.0 0 1 898.76 1090.52
  L 809.10 1000.87
  A 0.69 0.68 -44.7 0 0 808.13 1000.87
  L 719.99 1090.47
  A 0.93 0.93 0.0 0 1 718.66 1090.48
  L 630.31 1002.13
  A 0.25 0.24 44.2 0 0 629.96 1002.13
  L 541.00 1091.08
  A 0.83 0.83 0.0 0 1 539.82 1091.08
  L 449.71 1000.97
  A 0.81 0.80 -45.3 0 0 448.57 1000.98
  L 360.69 1090.31
  A 1.00 0.99 44.8 0 1 359.28 1090.31
  L 269.58 1000.61
  A 0.82 0.82 0.0 0 0 268.41 1000.62
  L 180.28 1090.21
  A 0.95 0.95 0.0 0 1 178.93 1090.21
  L 89.94 1001.23
  A 1.03 1.02 -44.8 0 0 88.49 1001.23
  L 0.00 1090.52
  L 0.00 1034.10
  L 88.76 944.38
  A 0.76 0.75 44.7 0 1 89.83 944.38
  L 178.64 1034.13
  A 0.85 0.84 -44.8 0 0 179.85 1034.13
  L 268.64 943.87
  A 0.86 0.86 0.0 0 1 269.86 943.87
  L 359.04 1033.99
  A 0.91 0.91 0.0 0 0 360.34 1033.99
  L 448.69 944.18
  A 0.80 0.80 0.0 0 1 449.83 944.18
  L 539.72 1035.02
  A 0.93 0.93 0.0 0 0 541.05 1035.02
  L 629.11 945.51
  A 0.83 0.83 0.0 0 1 630.30 945.50
  L 718.91 1034.11
  A 0.62 0.61 44.7 0 0 719.78 1034.11
  L 808.06 944.37
  A 1.00 0.99 -45.2 0 1 809.48 944.36
  L 898.16 1033.98
  A 1.22 1.22 0.0 0 0 899.90 1033.97
  L 987.92 944.49
  A 1.17 1.16 -44.8 0 1 989.57 944.49
  L 1078.33 1034.20
  A 0.84 0.84 0.0 0 0 1079.53 1034.20
  L 1167.83 944.44
  A 0.81 0.81 0.0 0 1 1168.98 944.43
  Q 1210.01 985.63 1253.26 1029.77
  Q 1253.81 1030.33 1254.00 1032.63
  Z"
/>
<path fill="#fdf5e5" d="
  M 1254.00 1086.54
  L 1254.00 1165.58
  Q 1249.66 1159.85 1244.01 1154.38
  Q 1236.07 1146.70 1235.99 1146.62
  Q 1204.02 1114.15 1168.84 1078.75
  A 0.77 0.77 0.0 0 0 1167.74 1078.75
  L 1079.29 1168.66
  A 0.63 0.63 0.0 0 1 1078.39 1168.66
  L 989.43 1078.75
  A 1.07 1.06 44.8 0 0 987.92 1078.75
  L 899.75 1168.38
  A 1.03 1.03 0.0 0 1 898.29 1168.38
  L 809.45 1078.61
  A 0.89 0.88 44.8 0 0 808.18 1078.61
  L 719.76 1168.49
  A 0.97 0.96 44.8 0 1 718.39 1168.49
  L 629.78 1078.94
  A 1.10 1.10 0.0 0 0 628.21 1078.94
  L 540.03 1168.57
  A 0.79 0.79 0.0 0 1 538.90 1168.58
  L 449.94 1078.68
  A 1.05 1.04 44.8 0 0 448.45 1078.68
  L 360.09 1168.49
  A 0.72 0.71 -45.3 0 1 359.07 1168.50
  L 269.37 1077.84
  A 0.57 0.56 -44.6 0 0 268.58 1077.84
  L 179.64 1168.26
  A 0.80 0.80 0.0 0 1 178.50 1168.26
  L 89.88 1078.71
  A 0.94 0.93 -44.8 0 0 88.55 1078.71
  L 0.00 1168.55
  L 0.00 1090.52
  L 88.49 1001.23
  A 1.03 1.02 -44.8 0 1 89.94 1001.23
  L 178.93 1090.21
  A 0.95 0.95 0.0 0 0 180.28 1090.21
  L 268.41 1000.62
  A 0.82 0.82 0.0 0 1 269.58 1000.61
  L 359.28 1090.31
  A 1.00 0.99 44.8 0 0 360.69 1090.31
  L 448.57 1000.98
  A 0.81 0.80 -45.3 0 1 449.71 1000.97
  L 539.82 1091.08
  A 0.83 0.83 0.0 0 0 541.00 1091.08
  L 629.96 1002.13
  A 0.25 0.24 44.2 0 1 630.31 1002.13
  L 718.66 1090.48
  A 0.93 0.93 0.0 0 0 719.99 1090.47
  L 808.13 1000.87
  A 0.69 0.68 -44.7 0 1 809.10 1000.87
  L 898.76 1090.52
  A 0.83 0.83 0.0 0 0 899.94 1090.52
  L 988.00 1001.00
  A 0.79 0.79 0.0 0 1 989.13 1000.99
  L 1078.45 1090.31
  A 1.07 1.07 0.0 0 0 1079.98 1090.30
  L 1167.73 1001.10
  A 0.90 0.88 -45.0 0 1 1169.00 1001.09
  L 1254.00 1086.54
  Z"
/>
<path fill="#fed568" d="
  M 1254.00 1165.58
  L 1254.00 1220.16
  L 1168.73 1135.26
  A 0.62 0.61 44.7 0 0 1167.86 1135.26
  L 1079.70 1224.87
  A 0.71 0.70 -45.3 0 1 1078.70 1224.88
  L 989.13 1135.31
  A 0.83 0.83 0.0 0 0 987.95 1135.32
  L 899.86 1224.87
  A 0.71 0.71 0.0 0 1 898.86 1224.87
  L 809.09 1135.10
  A 0.66 0.64 44.4 0 0 808.17 1135.10
  L 719.66 1225.07
  A 0.62 0.62 0.0 0 1 718.79 1225.08
  L 629.29 1135.57
  A 0.51 0.50 -45.4 0 0 628.57 1135.58
  L 540.55 1225.05
  A 0.80 0.80 0.0 0 1 539.41 1225.05
  L 449.51 1135.15
  A 0.71 0.70 -45.3 0 0 448.51 1135.16
  L 360.56 1224.56
  A 0.92 0.91 44.6 0 1 359.26 1224.56
  L 269.36 1134.66
  A 0.58 0.58 0.0 0 0 268.53 1134.67
  L 179.84 1224.82
  A 0.57 0.57 0.0 0 1 179.02 1224.82
  L 89.52 1135.33
  A 0.64 0.64 0.0 0 0 88.61 1135.33
  L 0.00 1224.96
  L 0.00 1168.55
  L 88.55 1078.71
  A 0.94 0.93 -44.8 0 1 89.88 1078.71
  L 178.50 1168.26
  A 0.80 0.80 0.0 0 0 179.64 1168.26
  L 268.58 1077.84
  A 0.57 0.56 -44.6 0 1 269.37 1077.84
  L 359.07 1168.50
  A 0.72 0.71 -45.3 0 0 360.09 1168.49
  L 448.45 1078.68
  A 1.05 1.04 44.8 0 1 449.94 1078.68
  L 538.90 1168.58
  A 0.79 0.79 0.0 0 0 540.03 1168.57
  L 628.21 1078.94
  A 1.10 1.10 0.0 0 1 629.78 1078.94
  L 718.39 1168.49
  A 0.97 0.96 44.8 0 0 719.76 1168.49
  L 808.18 1078.61
  A 0.89 0.88 44.8 0 1 809.45 1078.61
  L 898.29 1168.38
  A 1.03 1.03 0.0 0 0 899.75 1168.38
  L 987.92 1078.75
  A 1.07 1.06 44.8 0 1 989.43 1078.75
  L 1078.39 1168.66
  A 0.63 0.63 0.0 0 0 1079.29 1168.66
  L 1167.74 1078.75
  A 0.77 0.77 0.0 0 1 1168.84 1078.75
  Q 1204.02 1114.15 1235.99 1146.62
  Q 1236.07 1146.70 1244.01 1154.38
  Q 1249.66 1159.85 1254.00 1165.58
  Z"
/>
<path fill="#fdf5e5" d="
  M 1254.00 1220.16
  L 1254.00 1254.00
  L 1206.12 1254.00
  L 1207.36 1253.86
  A 0.34 0.34 0.0 0 0 1207.56 1253.29
  L 1168.91 1214.23
  A 1.00 0.99 44.8 0 0 1167.50 1214.23
  L 1128.50 1254.00
  L 1028.72 1254.00
  L 989.64 1214.41
  A 0.71 0.71 0.0 0 0 988.62 1214.41
  L 949.53 1254.00
  L 844.87 1254.00
  L 847.82 1253.89
  A 0.34 0.33 66.6 0 0 848.04 1253.32
  L 809.78 1214.65
  A 1.21 1.21 0.0 0 0 808.06 1214.65
  L 769.26 1254.00
  L 666.37 1254.00
  L 667.81 1253.90
  A 0.48 0.48 0.0 0 0 668.12 1253.09
  L 629.67 1214.24
  A 0.71 0.71 0.0 0 0 628.65 1214.24
  L 589.66 1254.00
  L 489.10 1254.00
  L 450.05 1214.25
  A 0.81 0.81 0.0 0 0 448.90 1214.25
  L 409.79 1254.00
  L 308.12 1254.00
  Q 309.03 1254.07 309.29 1253.52
  A 0.36 0.36 0.0 0 0 309.22 1253.11
  L 269.74 1213.21
  A 0.55 0.55 0.0 0 0 268.96 1213.21
  L 229.28 1254.00
  L 128.83 1254.00
  L 90.04 1214.53
  A 1.24 1.24 0.0 0 0 88.27 1214.52
  L 49.40 1254.00
  L 0.00 1254.00
  L 0.00 1224.96
  L 88.61 1135.33
  A 0.64 0.64 0.0 0 1 89.52 1135.33
  L 179.02 1224.82
  A 0.57 0.57 0.0 0 0 179.84 1224.82
  L 268.53 1134.67
  A 0.58 0.58 0.0 0 1 269.36 1134.66
  L 359.26 1224.56
  A 0.92 0.91 44.6 0 0 360.56 1224.56
  L 448.51 1135.16
  A 0.71 0.70 -45.3 0 1 449.51 1135.15
  L 539.41 1225.05
  A 0.80 0.80 0.0 0 0 540.55 1225.05
  L 628.57 1135.58
  A 0.51 0.50 -45.4 0 1 629.29 1135.57
  L 718.79 1225.08
  A 0.62 0.62 0.0 0 0 719.66 1225.07
  L 808.17 1135.10
  A 0.66 0.64 44.4 0 1 809.09 1135.10
  L 898.86 1224.87
  A 0.71 0.71 0.0 0 0 899.86 1224.87
  L 987.95 1135.32
  A 0.83 0.83 0.0 0 1 989.13 1135.31
  L 1078.70 1224.88
  A 0.71 0.70 -45.3 0 0 1079.70 1224.87
  L 1167.86 1135.26
  A 0.62 0.61 44.7 0 1 1168.73 1135.26
  L 1254.00 1220.16
  Z"
/>
<path fill="#fed568" d="
  M 308.12 1254.00
  L 307.50 1254.00
  Q 307.01 1253.87 306.62 1254.00
  L 229.28 1254.00
  L 268.96 1213.21
  A 0.55 0.55 0.0 0 1 269.74 1213.21
  L 309.22 1253.11
  A 0.36 0.36 0.0 0 1 309.29 1253.52
  Q 309.03 1254.07 308.12 1254.00
  Z"
/>
<path fill="#fed568" d="
  M 1206.12 1254.00
  L 1128.50 1254.00
  L 1167.50 1214.23
  A 1.00 0.99 44.8 0 1 1168.91 1214.23
  L 1207.56 1253.29
  A 0.34 0.34 0.0 0 1 1207.36 1253.86
  L 1206.12 1254.00
  Z"
/>
<path fill="#fed568" d="
  M 128.83 1254.00
  L 49.40 1254.00
  L 88.27 1214.52
  A 1.24 1.24 0.0 0 1 90.04 1214.53
  L 128.83 1254.00
  Z"
/>
<path fill="#fed568" d="
  M 489.10 1254.00
  L 409.79 1254.00
  L 448.90 1214.25
  A 0.81 0.81 0.0 0 1 450.05 1214.25
  L 489.10 1254.00
  Z"
/>
<path fill="#fed568" d="
  M 666.37 1254.00
  L 589.66 1254.00
  L 628.65 1214.24
  A 0.71 0.71 0.0 0 1 629.67 1214.24
  L 668.12 1253.09
  A 0.48 0.48 0.0 0 1 667.81 1253.90
  L 666.37 1254.00
  Z"
/>
<path fill="#fed568" d="
  M 844.87 1254.00
  L 769.26 1254.00
  L 808.06 1214.65
  A 1.21 1.21 0.0 0 1 809.78 1214.65
  L 848.04 1253.32
  A 0.34 0.33 66.6 0 1 847.82 1253.89
  L 844.87 1254.00
  Z"
/>
<path fill="#fed568" d="
  M 1028.72 1254.00
  L 949.53 1254.00
  L 988.62 1214.41
  A 0.71 0.71 0.0 0 1 989.64 1214.41
  L 1028.72 1254.00
  Z"
/>
<path fill="#fdf5e5" d="
  M 307.50 1254.00
  L 306.62 1254.00
  Q 307.01 1253.87 307.50 1254.00
  Z"
/>
</svg>
