<?xml version="1.0" encoding="UTF-8" standalone="no"?>
<!DOCTYPE svg PUBLIC "-//W3C//DTD SVG 1.1//EN" "http://www.w3.org/Graphics/SVG/1.1/DTD/svg11.dtd">
<svg xmlns="http://www.w3.org/2000/svg" version="1.1" viewBox="0.00 0.00 2400.00 1309.00">
<g stroke-width="2.00" fill="none" stroke-linecap="butt">
<path stroke="#f599b5" vector-effect="non-scaling-stroke" d="
  M 1980.13 520.54
  Q 1979.70 520.90 1979.70 521.98
  Q 1979.69 527.82 1979.55 790.75
  Q 1979.55 796.27 1979.94 801.76
  A 0.88 0.88 0.0 0 1 1979.06 802.70
  L 1976.77 802.69"
/>
<path stroke="#ed87a6" vector-effect="non-scaling-stroke" d="
  M 1976.77 802.69
  C 1967.75 802.26 1958.03 801.43 1949.74 801.04
  Q 1885.48 798.06 1812.82 795.36
  C 1791.65 794.58 1775.33 794.56 1757.36 793.66
  A 0.98 0.98 0.0 0 0 1756.87 793.77
  Q 1756.72 793.85 1756.50 793.94"
/>
<path stroke="#ed87a6" vector-effect="non-scaling-stroke" d="
  M 643.61 793.96
  Q 643.44 793.79 643.31 793.73
  Q 643.14 793.65 642.93 793.66
  C 624.78 794.66 608.15 794.63 586.37 795.44
  Q 514.68 798.12 453.34 800.96
  C 443.82 801.40 433.13 802.24 423.01 802.77"
/>
<path stroke="#f599b5" vector-effect="non-scaling-stroke" d="
  M 423.01 802.77
  Q 421.01 803.10 420.41 802.22
  A 0.68 0.66 -61.2 0 1 420.30 801.82
  Q 420.72 795.79 420.70 789.75
  Q 420.54 730.56 420.61 548.06
  Q 420.62 531.79 420.14 520.31"
/>
<path stroke="#e27a98" vector-effect="non-scaling-stroke" d="
  M 423.01 802.77
  Q 422.49 803.01 422.44 803.16
  A 0.77 0.77 0.0 0 0 422.92 804.15
  Q 425.20 804.92 427.71 806.30
  C 438.01 811.96 456.73 822.26 470.61 829.26
  Q 489.87 838.96 514.30 852.16
  C 531.58 861.50 546.39 868.96 565.62 878.68
  C 573.29 882.55 582.42 888.20 589.46 891.80
  Q 608.35 901.46 636.15 915.83
  Q 638.41 917.00 640.58 919.69"
/>
<path stroke="#f599b5" vector-effect="non-scaling-stroke" d="
  M 361.05 931.20
  Q 360.60 899.21 360.62 867.29
  Q 360.71 699.27 360.94 531.25
  Q 360.95 527.01 359.88 523.29"
/>
<path stroke="#f599b5" vector-effect="non-scaling-stroke" d="
  M 2040.33 523.32
  Q 2039.35 526.15 2039.30 527.78
  C 2039.04 537.62 2039.49 549.45 2039.48 559.43
  Q 2039.39 864.35 2039.36 870.31
  Q 2039.30 883.60 2039.49 907.31
  Q 2039.54 913.83 2039.05 922.25
  Q 2038.80 926.51 2039.73 930.71"
/>
<path stroke="#e27a98" vector-effect="non-scaling-stroke" d="
  M 1758.95 919.90
  Q 1760.15 917.92 1762.17 916.91
  Q 1771.46 912.22 1789.81 902.62
  C 1802.01 896.24 1810.23 892.64 1819.95 886.46
  Q 1827.09 881.93 1834.92 878.13
  C 1848.95 871.32 1857.98 867.43 1868.41 861.66
  Q 1904.88 841.49 1924.23 832.01
  Q 1939.59 824.50 1949.98 818.41
  Q 1951.95 817.26 1975.61 804.58
  C 1976.28 804.22 1977.09 804.16 1977.70 803.86
  A 0.45 0.45 0.0 0 0 1977.77 803.10
  Q 1977.42 802.83 1976.77 802.69"
/>
</g>
<path fill="#ffa6c2" d="
  M 1980.13 520.54
  Q 1979.70 520.90 1979.70 521.98
  Q 1979.69 527.82 1979.55 790.75
  Q 1979.55 796.27 1979.94 801.76
  A 0.88 0.88 0.0 0 1 1979.06 802.70
  L 1976.77 802.69
  C 1967.75 802.26 1958.03 801.43 1949.74 801.04
  Q 1885.48 798.06 1812.82 795.36
  C 1791.65 794.58 1775.33 794.56 1757.36 793.66
  A 0.98 0.98 0.0 0 0 1756.87 793.77
  Q 1756.72 793.85 1756.50 793.94
  Q 1756.41 793.72 1756.14 793.71
  Q 1684.63 791.42 1618.00 789.69
  Q 1206.76 779.03 796.24 789.37
  Q 721.19 791.26 644.43 793.67
  A 1.14 1.01 26.8 0 0 643.97 793.79
  L 643.61 793.96
  Q 643.44 793.79 643.31 793.73
  Q 643.14 793.65 642.93 793.66
  C 624.78 794.66 608.15 794.63 586.37 795.44
  Q 514.68 798.12 453.34 800.96
  C 443.82 801.40 433.13 802.24 423.01 802.77
  Q 421.01 803.10 420.41 802.22
  A 0.68 0.66 -61.2 0 1 420.30 801.82
  Q 420.72 795.79 420.70 789.75
  Q 420.54 730.56 420.61 548.06
  Q 420.62 531.79 420.14 520.31
  L 419.95 396.30
  A 1.01 1.01 0.0 0 1 420.92 395.29
  C 475.25 392.82 522.89 390.48 577.05 388.57
  Q 743.84 382.71 923.00 379.71
  C 1220.35 374.72 1520.89 378.02 1819.83 388.42
  C 1875.17 390.34 1929.78 392.96 1979.50 395.25
  A 0.81 0.80 1.5 0 1 1980.27 396.05
  L 1980.13 520.54
  Z"
/>
<path fill="#ea8ca7" d="
  M 420.14 520.31
  Q 420.62 531.79 420.61 548.06
  Q 420.54 730.56 420.70 789.75
  Q 420.72 795.79 420.30 801.82
  A 0.68 0.66 -61.2 0 0 420.41 802.22
  Q 421.01 803.10 423.01 802.77
  Q 422.49 803.01 422.44 803.16
  A 0.77 0.77 0.0 0 0 422.92 804.15
  Q 425.20 804.92 427.71 806.30
  C 438.01 811.96 456.73 822.26 470.61 829.26
  Q 489.87 838.96 514.30 852.16
  C 531.58 861.50 546.39 868.96 565.62 878.68
  C 573.29 882.55 582.42 888.20 589.46 891.80
  Q 608.35 901.46 636.15 915.83
  Q 638.41 917.00 640.58 919.69
  Q 639.77 919.64 638.43 919.68
  Q 512.62 923.60 453.25 926.74
  Q 406.53 929.21 361.05 931.20
  Q 360.60 899.21 360.62 867.29
  Q 360.71 699.27 360.94 531.25
  Q 360.95 527.01 359.88 523.29
  L 420.14 520.31
  Z"
/>
<path fill="#ea8ca7" d="
  M 1980.13 520.54
  L 2040.33 523.32
  Q 2039.35 526.15 2039.30 527.78
  C 2039.04 537.62 2039.49 549.45 2039.48 559.43
  Q 2039.39 864.35 2039.36 870.31
  Q 2039.30 883.60 2039.49 907.31
  Q 2039.54 913.83 2039.05 922.25
  Q 2038.80 926.51 2039.73 930.71
  Q 2036.66 930.86 2034.00 930.73
  Q 1989.25 928.57 1944.50 926.58
  Q 1851.79 922.44 1758.95 919.90
  Q 1760.15 917.92 1762.17 916.91
  Q 1771.46 912.22 1789.81 902.62
  C 1802.01 896.24 1810.23 892.64 1819.95 886.46
  Q 1827.09 881.93 1834.92 878.13
  C 1848.95 871.32 1857.98 867.43 1868.41 861.66
  Q 1904.88 841.49 1924.23 832.01
  Q 1939.59 824.50 1949.98 818.41
  Q 1951.95 817.26 1975.61 804.58
  C 1976.28 804.22 1977.09 804.16 1977.70 803.86
  A 0.45 0.45 0.0 0 0 1977.77 803.10
  Q 1977.42 802.83 1976.77 802.69
  L 1979.06 802.70
  A 0.88 0.88 0.0 0 0 1979.94 801.76
  Q 1979.55 796.27 1979.55 790.75
  Q 1979.69 527.82 1979.70 521.98
  Q 1979.70 520.90 1980.13 520.54
  Z"
/>
<path fill="#ffa6c2" d="
  M 359.88 523.29
  Q 360.95 527.01 360.94 531.25
  Q 360.71 699.27 360.62 867.29
  Q 360.60 899.21 361.05 931.20
  L 152.23 944.27
  A 0.63 0.63 0.0 0 1 151.66 943.29
  L 293.38 731.23
  A 0.81 0.80 -46.5 0 0 293.36 730.31
  L 150.90 536.68
  A 0.56 0.55 70.3 0 1 151.31 535.80
  L 359.88 523.29
  Z"
/>
<path fill="#ffa6c2" d="
  M 2039.73 930.71
  Q 2038.80 926.51 2039.05 922.25
  Q 2039.54 913.83 2039.49 907.31
  Q 2039.30 883.60 2039.36 870.31
  Q 2039.39 864.35 2039.48 559.43
  C 2039.49 549.45 2039.04 537.62 2039.30 527.78
  Q 2039.35 526.15 2040.33 523.32
  L 2248.40 535.85
  A 0.60 0.60 0.0 0 1 2248.85 536.80
  L 2106.67 730.45
  A 0.68 0.66 -44.3 0 0 2106.65 731.23
  L 2248.68 943.68
  A 0.37 0.36 74.7 0 1 2248.36 944.25
  L 2039.73 930.71
  Z"
/>
<path fill="#da6889" d="
  M 643.61 793.96
  L 643.65 919.28
  A 0.34 0.32 -20.9 0 1 643.53 919.53
  Q 642.82 920.11 640.58 919.69
  Q 638.41 917.00 636.15 915.83
  Q 608.35 901.46 589.46 891.80
  C 582.42 888.20 573.29 882.55 565.62 878.68
  C 546.39 868.96 531.58 861.50 514.30 852.16
  Q 489.87 838.96 470.61 829.26
  C 456.73 822.26 438.01 811.96 427.71 806.30
  Q 425.20 804.92 422.92 804.15
  A 0.77 0.77 0.0 0 1 422.44 803.16
  Q 422.49 803.01 423.01 802.77
  C 433.13 802.24 443.82 801.40 453.34 800.96
  Q 514.68 798.12 586.37 795.44
  C 608.15 794.63 624.78 794.66 642.93 793.66
  Q 643.14 793.65 643.31 793.73
  Q 643.44 793.79 643.61 793.96
  Z"
/>
<path fill="#da6889" d="
  M 1976.77 802.69
  Q 1977.42 802.83 1977.77 803.10
  A 0.45 0.45 0.0 0 1 1977.70 803.86
  C 1977.09 804.16 1976.28 804.22 1975.61 804.58
  Q 1951.95 817.26 1949.98 818.41
  Q 1939.59 824.50 1924.23 832.01
  Q 1904.88 841.49 1868.41 861.66
  C 1857.98 867.43 1848.95 871.32 1834.92 878.13
  Q 1827.09 881.93 1819.95 886.46
  C 1810.23 892.64 1802.01 896.24 1789.81 902.62
  Q 1771.46 912.22 1762.17 916.91
  Q 1760.15 917.92 1758.95 919.90
  Q 1757.32 920.10 1756.72 919.72
  A 0.51 0.50 16.9 0 1 1756.49 919.30
  L 1756.50 793.94
  Q 1756.72 793.85 1756.87 793.77
  A 0.98 0.98 0.0 0 1 1757.36 793.66
  C 1775.33 794.56 1791.65 794.58 1812.82 795.36
  Q 1885.48 798.06 1949.74 801.04
  C 1958.03 801.43 1967.75 802.26 1976.77 802.69
  Z"
/>
</svg>
