<?xml version="1.0" encoding="UTF-8" standalone="no"?>
<!DOCTYPE svg PUBLIC "-//W3C//DTD SVG 1.1//EN" "http://www.w3.org/Graphics/SVG/1.1/DTD/svg11.dtd">
<svg xmlns="http://www.w3.org/2000/svg" version="1.1" viewBox="0.00 0.00 1536.00 1024.00">
<path fill="#9966cc" d="
  M 334.60 849.78
  C 330.86 849.25 324.26 849.77 319.48 849.34
  Q 296.80 847.28 284.76 845.19
  Q 248.95 838.97 212.98 822.78
  C 205.73 819.51 198.13 814.92 190.52 810.95
  Q 187.05 809.15 181.73 805.79
  C 147.29 784.03 116.39 754.16 94.26 719.51
  C 70.35 682.07 54.95 640.01 50.59 596.15
  Q 49.48 584.95 49.47 560.33
  Q 49.41 426.62 49.47 339.53
  C 49.48 328.68 51.00 314.24 53.07 302.86
  Q 65.83 232.86 109.62 176.62
  C 138.30 139.79 175.03 110.12 217.35 90.48
  Q 271.74 65.24 332.78 62.93
  Q 339.53 62.67 357.09 62.71
  Q 383.70 62.77 1175.39 62.74
  Q 1214.62 62.74 1228.60 64.19
  Q 1305.79 72.21 1369.19 118.67
  Q 1408.18 147.24 1436.83 188.16
  C 1464.83 228.17 1482.03 274.54 1485.92 323.35
  Q 1486.69 333.10 1486.67 356.17
  Q 1486.64 397.30 1486.63 573.23
  Q 1486.63 606.77 1476.87 641.41
  Q 1454.51 720.80 1393.71 775.95
  Q 1357.92 808.41 1312.28 827.50
  Q 1273.48 843.73 1229.48 848.36
  Q 1213.52 850.04 1173.50 849.89
  Q 1148.26 849.80 558.50 849.85
  Q 555.48 849.85 552.38 850.06
  A 2.30 2.27 -64.7 0 0 551.15 850.51
  Q 528.77 867.21 482.75 902.26
  Q 429.67 942.69 375.40 984.23
  Q 365.71 991.65 360.71 993.33
  Q 351.36 996.46 341.64 992.83
  C 328.60 987.95 321.61 975.60 323.82 961.22
  Q 324.35 957.79 324.75 953.93
  Q 329.08 911.99 331.00 891.75
  Q 334.84 851.10 335.02 850.39
  A 0.50 0.50 0.0 0 0 334.60 849.78
  Z
  M 386.62 908.96
  A 0.12 0.11 -13.1 0 0 386.80 909.07
  Q 390.03 906.86 394.31 903.29
  Q 403.05 896.01 410.88 890.26
  C 413.85 888.07 416.83 885.32 419.47 883.21
  Q 495.98 822.29 521.13 802.16
  Q 525.55 798.63 526.62 797.77
  Q 529.80 795.20 532.47 793.99
  Q 538.28 791.34 543.51 791.34
  Q 613.45 791.32 1188.34 791.34
  Q 1209.82 791.34 1220.12 790.28
  Q 1236.50 788.60 1251.47 784.95
  C 1328.88 766.04 1391.75 709.18 1415.62 632.93
  Q 1423.45 607.91 1424.94 587.43
  Q 1425.90 574.29 1425.88 554.50
  Q 1425.82 461.66 1425.92 368.89
  Q 1425.96 333.77 1424.45 321.14
  C 1417.26 260.88 1386.22 209.73 1337.94 172.69
  Q 1299.30 143.04 1248.96 131.13
  Q 1224.81 125.41 1201.25 125.41
  Q 407.23 125.45 355.96 125.37
  Q 329.06 125.33 316.10 126.80
  Q 287.48 130.04 260.08 139.84
  Q 202.33 160.48 163.26 205.29
  C 134.65 238.10 116.82 278.15 111.68 320.89
  Q 110.11 333.93 110.16 365.15
  Q 110.25 412.12 110.22 550.24
  C 110.21 562.71 110.04 574.74 110.88 585.89
  Q 112.51 607.65 119.56 630.25
  Q 141.50 700.53 199.94 744.63
  C 235.65 771.58 280.49 787.90 325.32 790.86
  Q 334.04 791.44 365.19 791.41
  Q 380.00 791.40 405.10 791.21
  A 1.07 1.07 0.0 0 1 406.16 792.46
  L 386.62 908.96
  Z"
/>
</svg>
