<?xml version="1.0" encoding="UTF-8" standalone="no"?>
<!DOCTYPE svg PUBLIC "-//W3C//DTD SVG 1.1//EN" "http://www.w3.org/Graphics/SVG/1.1/DTD/svg11.dtd">
<svg xmlns="http://www.w3.org/2000/svg" version="1.1" viewBox="0.00 0.00 1254.00 1254.00">
<path fill="#f6f1e5" d="
  M 257.33 245.56
  C 256.82 250.69 251.62 252.68 247.30 253.42
  C 236.66 255.24 229.06 258.61 219.79 264.81
  Q 214.04 268.65 206.26 276.84
  Q 200.65 282.76 165.50 318.15
  C 144.02 339.77 121.18 363.63 99.20 385.19
  C 88.14 396.03 70.76 388.92 70.75 373.25
  Q 70.74 316.63 70.75 96.28
  Q 70.75 87.16 72.16 83.48
  Q 76.00 73.45 87.08 70.60
  Q 89.59 69.95 98.25 69.96
  Q 216.14 70.05 364.01 69.91
  Q 368.70 69.91 373.02 70.16
  C 381.63 70.67 388.41 77.99 388.07 86.53
  C 387.81 93.03 385.10 96.57 380.13 101.58
  Q 306.03 176.25 275.55 206.80
  Q 259.60 222.79 257.33 245.56
  Z"
/>
<path fill="#f6f1e5" d="
  M 1183.08 92.01
  Q 1183.15 113.80 1183.09 365.62
  Q 1183.09 376.53 1182.58 378.34
  C 1178.89 391.35 1163.80 394.27 1154.43 384.81
  Q 1145.00 375.30 1069.72 298.39
  C 1059.96 288.42 1052.47 281.26 1042.90 271.43
  Q 1040.13 268.59 1030.66 262.34
  Q 1020.56 255.68 1008.21 253.58
  Q 1003.78 252.82 1002.56 252.26
  C 998.51 250.40 996.93 247.22 996.69 242.83
  C 996.20 233.61 991.65 223.70 987.18 216.75
  Q 983.69 211.31 975.89 203.53
  Q 945.85 173.55 887.39 115.11
  Q 877.80 105.52 870.31 97.69
  C 865.61 92.79 864.67 84.10 868.31 78.01
  Q 873.11 69.98 883.25 69.98
  Q 1108.66 70.11 1154.75 69.94
  C 1160.93 69.92 1167.29 69.72 1172.27 72.57
  Q 1183.04 78.74 1183.08 92.01
  Z"
/>
<path fill="#f6f1e5" d="
  M 246.17 992.47
  C 251.71 993.53 256.76 995.94 257.43 1001.43
  Q 259.17 1015.74 267.07 1028.53
  Q 270.40 1033.95 283.11 1046.72
  Q 334.09 1097.88 382.35 1147.07
  C 393.47 1158.41 387.44 1176.89 370.73 1176.89
  Q 325.52 1176.88 93.34 1176.91
  Q 77.89 1176.92 72.30 1163.25
  C 70.40 1158.60 70.81 1152.57 70.81 1146.78
  Q 70.79 974.36 70.73 878.33
  C 70.72 871.06 70.63 865.89 74.55 860.91
  C 80.99 852.72 92.28 853.14 99.38 860.22
  Q 142.45 903.26 207.63 969.93
  Q 216.56 979.07 221.34 982.20
  C 228.99 987.20 237.17 990.72 246.17 992.47
  Z"
/>
<path fill="#f6f1e5" d="
  M 996.50 1001.50
  C 997.17 996.01 1002.22 993.60 1007.76 992.53
  C 1016.76 990.78 1024.93 987.26 1032.58 982.25
  Q 1037.36 979.12 1046.28 969.98
  Q 1111.43 903.29 1154.48 860.24
  C 1161.57 853.16 1172.86 852.73 1179.31 860.92
  C 1183.23 865.90 1183.14 871.06 1183.13 878.33
  Q 1183.11 974.35 1183.16 1146.75
  C 1183.16 1152.54 1183.58 1158.57 1181.68 1163.22
  Q 1176.10 1176.89 1160.65 1176.89
  Q 928.49 1176.96 883.29 1176.98
  C 866.58 1176.99 860.54 1158.52 871.66 1147.17
  Q 919.89 1097.97 970.84 1046.79
  Q 983.55 1034.02 986.88 1028.60
  Q 994.77 1015.81 996.50 1001.50
  Z"
/>
</svg>
