<?xml version="1.0" encoding="UTF-8" standalone="no"?>
<!DOCTYPE svg PUBLIC "-//W3C//DTD SVG 1.1//EN" "http://www.w3.org/Graphics/SVG/1.1/DTD/svg11.dtd">
<svg xmlns="http://www.w3.org/2000/svg" version="1.1" viewBox="0.00 0.00 1254.00 1254.00">
<path fill="#d9b1f2" d="
  M 38.44 242.25
  A 0.68 0.68 0.0 0 0 37.76 241.32
  Q 29.51 241.93 28.24 241.86
  Q 26.66 241.78 24.90 240.02
  A 2.88 2.88 0.0 0 0 23.02 239.18
  L 20.42 239.03
  A 2.28 2.28 0.0 0 1 18.37 237.38
  L 16.03 229.16
  A 0.88 0.87 86.8 0 0 15.33 228.53
  Q 12.02 227.96 8.92 227.67
  C 6.24 227.42 1.78 226.64 3.18 222.86
  Q 4.01 220.63 6.01 218.75
  Q 8.86 216.08 12.07 213.59
  Q 31.69 198.35 50.33 183.59
  Q 58.86 176.83 94.87 148.62
  Q 98.17 146.03 99.62 144.90
  Q 116.27 131.89 121.71 127.64
  C 153.05 103.13 185.40 79.74 218.03 56.67
  C 237.30 43.05 255.19 29.80 276.49 14.47
  Q 276.88 14.19 279.36 12.84
  A 10.61 10.52 -66.7 0 1 281.69 11.90
  C 285.41 10.89 290.03 9.21 293.89 9.08
  A 1.86 1.85 10.1 0 1 295.67 11.63
  L 290.35 24.83
  A 0.46 0.46 0.0 0 0 290.85 25.46
  Q 294.73 24.91 297.18 26.98
  A 2.55 2.52 -21.0 0 0 298.55 27.58
  C 301.90 28.00 304.60 28.58 303.28 32.68
  Q 302.44 35.29 302.12 37.81
  A 1.71 1.69 26.2 0 0 302.61 39.22
  L 304.26 40.87
  A 2.95 2.93 31.0 0 1 305.00 43.80
  L 302.03 53.58
  A 0.41 0.40 -80.2 0 0 302.39 54.10
  L 321.74 55.24
  A 2.53 2.52 -8.7 0 1 323.94 56.85
  Q 324.89 59.34 323.11 63.14
  A 1.03 1.03 0.0 0 0 323.55 64.48
  Q 327.84 66.80 327.01 72.07
  Q 325.86 79.45 323.39 85.10
  A 0.54 0.54 0.0 0 0 323.87 85.86
  L 332.91 86.17
  A 0.84 0.68 -29.0 0 1 333.19 86.22
  Q 337.95 87.87 342.49 88.32
  A 2.02 2.01 0.9 0 1 344.30 90.18
  L 344.81 97.32
  A 0.61 0.61 0.0 0 0 345.42 97.89
  Q 349.93 97.90 353.90 99.13
  C 356.84 100.04 357.00 103.71 354.45 105.47
  Q 328.03 123.75 301.60 144.34
  Q 275.23 164.90 246.24 187.77
  Q 237.71 194.50 208.75 216.75
  Q 165.43 250.03 84.60 310.84
  Q 83.03 312.03 75.55 316.92
  A 2.32 2.24 21.2 0 1 74.81 317.23
  L 67.57 318.79
  A 2.03 2.02 74.0 0 1 65.23 317.49
  Q 64.58 315.68 65.14 313.87
  C 66.30 310.18 66.97 305.60 68.74 301.78
  A 0.81 0.81 0.0 0 0 68.43 300.74
  Q 65.65 299.02 61.61 297.74
  Q 60.30 297.33 59.43 295.32
  A 1.84 1.79 37.1 0 1 59.29 294.41
  L 59.90 288.61
  A 2.83 2.82 23.6 0 0 58.94 286.17
  Q 58.11 285.46 57.34 284.05
  A 2.27 2.26 30.8 0 1 57.06 282.96
  C 57.10 279.00 58.72 275.86 60.60 271.38
  A 0.73 0.73 0.0 0 0 59.85 270.37
  C 55.73 270.85 50.26 271.75 46.56 269.51
  C 43.61 267.72 42.50 267.63 39.54 267.66
  C 35.99 267.70 33.44 266.11 34.91 262.10
  Q 36.26 258.44 35.59 256.37
  C 34.10 251.75 36.54 246.97 38.44 242.25
  Z"
/>
<path fill="#feadc6" d="
  M 1180.35 295.53
  Q 1180.56 296.17 1181.40 297.10
  A 1.87 1.83 -66.6 0 1 1181.86 298.30
  Q 1181.87 301.86 1183.29 305.96
  C 1183.96 307.91 1183.85 309.82 1182.60 311.37
  C 1179.52 315.15 1172.77 309.61 1170.29 307.70
  Q 1167.10 305.26 1150.56 291.99
  C 1144.17 286.86 1138.94 283.41 1132.75 278.33
  Q 1130.62 276.58 1125.45 272.73
  C 1115.69 265.47 1106.59 258.28 1097.05 251.07
  C 1088.87 244.88 1080.40 237.37 1072.16 231.64
  Q 1067.02 228.06 1063.72 225.17
  C 1059.22 221.23 1053.63 217.69 1047.76 212.86
  C 1044.49 210.17 1039.77 207.24 1035.99 204.10
  Q 1035.19 203.44 1031.86 200.94
  Q 1023.97 195.03 1016.41 188.86
  Q 1014.19 187.06 1011.90 185.32
  Q 993.70 171.47 976.62 158.64
  Q 974.09 156.74 971.62 154.85
  Q 943.30 133.24 936.32 127.98
  Q 921.79 117.02 907.36 106.70
  Q 901.34 102.40 900.90 102.12
  C 898.17 100.38 895.55 96.80 897.69 93.74
  A 1.67 1.64 10.3 0 1 898.63 93.10
  Q 903.32 91.90 907.47 92.50
  A 1.06 1.06 0.0 0 0 908.65 91.22
  Q 907.28 85.25 912.49 84.28
  C 915.68 83.69 918.60 83.58 921.70 82.50
  Q 926.77 80.74 932.94 80.89
  A 0.46 0.46 0.0 0 0 933.39 80.31
  L 930.39 69.80
  A 6.52 6.29 -52.8 0 1 930.15 67.79
  Q 930.29 63.87 930.63 62.27
  C 930.99 60.58 932.78 60.39 932.28 58.41
  C 931.46 55.14 932.45 53.84 935.79 53.12
  Q 944.67 51.20 952.33 51.93
  A 0.62 0.62 0.0 0 0 952.97 51.10
  C 951.71 47.64 949.09 40.86 950.92 37.80
  A 1.74 1.71 -32.1 0 0 951.16 36.79
  C 950.92 33.11 947.54 27.40 952.81 25.49
  Q 954.15 25.01 958.68 24.16
  A 0.62 0.61 -12.1 0 0 959.17 23.42
  C 958.62 20.96 955.48 8.14 960.90 9.46
  Q 964.40 10.32 967.67 11.41
  Q 969.56 12.04 973.70 14.97
  C 995.20 30.18 1017.00 46.53 1041.70 64.23
  Q 1113.22 115.47 1126.05 125.06
  C 1167.11 155.76 1182.94 167.78 1225.58 199.94
  Q 1238.54 209.71 1242.98 213.27
  C 1244.29 214.33 1251.10 220.97 1247.20 222.34
  Q 1242.09 224.14 1238.30 224.40
  A 0.80 0.80 0.0 0 0 1237.55 225.21
  Q 1237.59 229.10 1237.44 232.77
  Q 1237.32 235.88 1234.17 235.67
  Q 1229.35 235.36 1225.94 237.43
  A 3.68 3.67 -62.6 0 1 1224.27 237.96
  L 1212.07 238.84
  A 0.58 0.58 0.0 0 0 1211.57 239.64
  Q 1214.45 246.63 1215.68 250.22
  C 1216.57 252.85 1215.36 254.93 1216.24 257.62
  Q 1217.23 260.65 1216.77 261.51
  Q 1215.64 263.61 1213.72 263.75
  Q 1210.67 263.98 1208.05 264.87
  Q 1203.64 266.38 1202.53 266.47
  Q 1196.63 266.94 1190.81 266.07
  A 0.91 0.90 -5.2 0 0 1189.82 267.25
  Q 1190.53 269.36 1192.84 275.42
  Q 1194.59 280.00 1192.59 282.55
  A 2.16 2.09 62.3 0 0 1192.15 284.04
  Q 1192.28 285.64 1193.15 290.04
  C 1193.51 291.89 1192.05 293.20 1190.29 293.68
  Q 1184.51 295.27 1180.81 294.94
  A 0.45 0.45 0.0 0 0 1180.35 295.53
  Z"
/>
<path fill="#ffd161" d="
  M 1180.56 912.09
  A 0.57 0.56 10.4 0 0 1181.12 912.90
  C 1182.99 912.73 1184.52 912.87 1186.30 914.46
  C 1188.37 916.30 1193.11 914.70 1192.78 919.02
  Q 1192.53 922.26 1191.87 925.83
  A 1.68 1.67 -67.1 0 0 1192.55 927.51
  Q 1195.39 929.49 1194.34 933.36
  Q 1193.25 937.32 1191.50 941.84
  A 0.99 0.99 0.0 0 0 1192.47 943.19
  Q 1202.01 942.72 1212.25 943.56
  C 1216.15 943.88 1214.41 949.72 1213.36 951.77
  A 0.79 0.78 20.6 0 0 1213.88 952.90
  C 1216.55 953.54 1217.47 954.94 1217.63 957.76
  Q 1218.10 966.26 1214.62 974.11
  A 0.52 0.52 0.0 0 0 1215.08 974.84
  L 1224.37 975.23
  A 1.29 1.04 -32.6 0 1 1224.64 975.26
  Q 1227.49 975.97 1233.35 976.80
  C 1236.06 977.19 1235.95 982.76 1236.10 985.24
  A 1.05 1.05 0.0 0 0 1236.96 986.21
  Q 1243.74 987.49 1246.88 988.69
  A 2.72 2.44 19.0 0 1 1248.59 991.77
  Q 1248.03 993.60 1246.19 994.97
  C 1233.27 1004.59 1220.57 1014.41 1208.67 1024.16
  Q 1133.46 1085.72 1095.09 1115.58
  Q 1043.69 1155.58 977.55 1206.54
  Q 972.47 1210.46 968.77 1212.48
  Q 967.59 1213.12 962.89 1214.35
  C 959.14 1215.32 957.52 1213.41 958.28 1209.76
  Q 960.30 1200.02 961.56 1197.42
  A 0.56 0.56 0.0 0 0 961.28 1196.67
  Q 956.91 1194.81 955.81 1194.65
  C 950.65 1193.92 951.32 1189.20 952.27 1185.54
  A 1.66 1.64 39.4 0 0 952.15 1184.38
  Q 952.11 1184.32 950.24 1182.04
  C 947.29 1178.45 949.68 1172.00 951.07 1168.13
  A 0.66 0.66 0.0 0 0 950.47 1167.25
  L 938.71 1166.88
  A 1.78 1.68 58.5 0 1 937.93 1166.67
  Q 934.57 1164.87 928.13 1164.39
  C 925.18 1164.17 924.73 1161.77 925.89 1159.30
  Q 926.71 1157.52 927.07 1156.23
  A 1.38 1.37 25.1 0 0 926.52 1154.72
  C 925.44 1153.98 924.90 1153.09 925.01 1151.81
  C 925.37 1147.38 926.99 1143.01 928.88 1138.75
  A 0.63 0.62 8.4 0 0 928.23 1137.88
  Q 923.36 1138.47 918.00 1138.26
  C 916.02 1138.18 914.28 1136.20 912.94 1136.03
  Q 910.13 1135.68 909.29 1135.61
  A 2.60 2.60 0.0 0 1 906.93 1133.21
  L 906.39 1125.56
  A 0.58 0.57 -89.4 0 0 905.88 1125.03
  L 894.67 1123.76
  A 1.91 1.90 -13.9 0 1 893.32 1122.95
  C 891.32 1120.02 894.41 1116.64 896.75 1114.74
  Q 897.40 1114.21 904.47 1108.23
  Q 928.63 1087.78 994.16 1034.42
  Q 1035.39 1000.84 1064.94 977.96
  Q 1096.24 953.72 1165.05 902.55
  Q 1169.77 899.04 1173.05 898.33
  Q 1182.56 896.29 1183.34 896.09
  A 1.60 1.58 75.1 0 1 1185.25 897.21
  Q 1185.68 898.73 1185.14 900.42
  Q 1183.09 906.89 1180.56 912.09
  Z"
/>
<path fill="#c2e89d" d="
  M 36.88 976.05
  A 0.29 0.28 82.6 0 0 37.17 975.67
  Q 35.44 970.73 33.36 962.61
  Q 32.55 959.47 33.81 957.55
  Q 34.69 956.21 34.64 955.33
  C 34.50 952.84 33.22 949.67 36.99 949.27
  Q 38.46 949.11 40.93 948.71
  C 43.03 948.36 44.28 946.43 46.83 946.34
  Q 51.54 946.16 57.23 946.28
  A 0.69 0.69 0.0 0 0 57.89 945.35
  Q 55.49 938.97 54.50 935.51
  Q 54.16 934.33 55.44 930.68
  A 2.01 1.93 49.9 0 0 55.51 929.63
  Q 54.83 926.21 54.50 923.48
  Q 54.08 919.99 57.23 919.04
  Q 61.67 917.70 65.85 917.34
  A 0.53 0.53 0.0 0 0 66.31 916.65
  L 65.23 913.31
  A 5.84 5.77 35.6 0 1 64.94 911.63
  Q 64.85 909.02 63.63 903.65
  A 2.29 2.29 0.0 0 1 66.37 900.91
  Q 70.51 901.84 74.88 903.33
  C 79.21 904.81 83.42 909.00 87.96 911.96
  Q 88.95 912.60 93.34 915.82
  Q 217.18 1006.39 352.62 1113.37
  Q 355.77 1115.86 356.24 1116.55
  A 2.61 2.59 -68.7 0 1 356.64 1117.47
  C 357.46 1121.23 355.31 1122.52 352.09 1122.98
  C 349.22 1123.38 347.17 1123.79 345.68 1125.93
  A 1.56 1.53 -30.2 0 0 345.41 1126.92
  C 345.63 1130.43 346.44 1135.50 341.28 1135.61
  Q 337.86 1135.69 335.19 1136.04
  A 4.53 4.42 25.3 0 0 333.48 1136.63
  Q 329.11 1139.24 322.91 1138.82
  A 0.88 0.88 0.0 0 0 322.02 1140.01
  C 323.54 1144.04 325.03 1147.98 324.66 1152.80
  Q 324.47 1155.32 324.63 1158.87
  A 2.85 2.84 84.1 0 1 322.24 1161.82
  L 318.62 1162.39
  A 3.12 3.08 -67.5 0 0 317.29 1162.95
  Q 310.26 1168.19 299.80 1167.16
  A 0.66 0.65 -9.6 0 0 299.14 1168.08
  Q 301.24 1172.62 301.41 1179.01
  C 301.48 1181.55 299.07 1182.29 299.56 1184.89
  C 300.10 1187.70 300.16 1190.26 297.27 1191.70
  Q 292.81 1193.92 288.16 1193.69
  A 0.51 0.51 0.0 0 0 287.66 1194.40
  C 289.04 1197.74 292.76 1209.51 285.68 1209.47
  Q 283.25 1209.46 282.08 1208.66
  C 274.23 1203.35 265.42 1195.13 258.11 1189.30
  Q 191.66 1136.27 174.67 1123.33
  Q 143.37 1099.48 137.83 1095.22
  Q 128.50 1088.06 115.16 1077.63
  Q 102.63 1067.84 96.55 1063.21
  Q 88.34 1056.95 77.95 1048.78
  Q 41.40 1020.02 5.81 995.44
  Q 4.37 994.44 3.63 992.99
  A 3.12 2.98 -64.7 0 1 3.34 992.12
  Q 2.74 988.86 6.04 988.07
  Q 8.69 987.44 12.83 987.11
  A 1.14 1.14 0.0 0 0 13.88 985.93
  C 13.80 983.64 12.89 979.87 16.52 979.15
  Q 20.24 978.41 21.83 978.32
  A 3.21 3.17 -61.3 0 0 23.27 977.89
  C 27.18 975.60 32.26 975.61 36.88 976.05
  Z"
/>
</svg>
