<?xml version="1.0" encoding="UTF-8" standalone="no"?>
<!DOCTYPE svg PUBLIC "-//W3C//DTD SVG 1.1//EN" "http://www.w3.org/Graphics/SVG/1.1/DTD/svg11.dtd">
<svg xmlns="http://www.w3.org/2000/svg" version="1.1" viewBox="0.00 0.00 1254.00 1254.00">
<path fill="#fec94c" d="
  M 226.43 818.39
  A 0.31 0.31 0.0 0 0 226.19 817.92
  L 50.34 804.79
  A 0.33 0.32 -63.8 0 1 50.15 804.22
  L 183.93 686.18
  A 0.52 0.52 0.0 0 0 183.79 685.31
  L 21.85 614.08
  A 0.48 0.48 0.0 0 1 21.85 613.20
  L 188.52 543.43
  A 0.45 0.45 0.0 0 0 188.65 542.69
  L 52.77 418.47
  A 0.48 0.48 0.0 0 1 53.08 417.64
  L 230.67 411.05
  A 0.31 0.31 0.0 0 0 230.92 410.58
  L 137.46 257.83
  A 0.35 0.35 0.0 0 1 137.84 257.31
  Q 150.26 260.39 159.92 263.38
  C 165.90 265.23 172.45 266.79 178.33 268.45
  Q 234.24 284.32 287.51 299.25
  C 295.87 301.59 303.21 303.99 311.26 305.55
  A 0.52 0.52 0.0 0 0 311.86 304.92
  L 271.74 126.49
  A 0.43 0.42 -79.6 0 1 272.39 126.04
  Q 298.69 143.58 302.04 145.83
  Q 322.96 159.87 415.41 220.36
  Q 416.47 221.05 417.58 221.39
  A 0.05 0.05 0.0 0 0 417.65 221.34
  L 428.77 45.26
  A 0.39 0.39 0.0 0 1 429.46 45.03
  L 552.17 185.79
  A 0.42 0.42 0.0 0 0 552.88 185.67
  L 622.73 13.37
  A 0.65 0.64 44.5 0 1 623.92 13.36
  L 697.05 184.40
  A 0.72 0.72 0.0 0 0 698.26 184.58
  L 816.09 43.34
  A 0.66 0.66 0.0 0 1 817.26 43.71
  L 833.15 223.81
  A 0.33 0.33 0.0 0 0 833.66 224.06
  L 982.88 124.84
  A 0.43 0.43 0.0 0 1 983.54 125.29
  L 945.82 300.49
  A 0.44 0.44 0.0 0 0 946.37 301.01
  L 1117.26 254.59
  A 0.41 0.41 0.0 0 1 1117.72 255.20
  L 1024.21 408.17
  A 0.37 0.36 16.9 0 0 1024.51 408.72
  L 1201.82 417.86
  A 0.38 0.38 0.0 0 1 1202.05 418.52
  L 1066.00 543.20
  A 0.51 0.51 0.0 0 0 1066.15 544.05
  L 1231.77 613.35
  A 0.57 0.57 0.0 0 1 1231.78 614.39
  L 1069.99 686.24
  A 0.64 0.64 0.0 0 0 1069.82 687.30
  Q 1116.17 728.97 1170.71 776.29
  C 1180.72 784.97 1191.41 794.87 1202.21 803.83
  A 0.63 0.63 0.0 0 1 1201.85 804.94
  L 1025.05 816.94
  A 0.30 0.29 -17.4 0 0 1024.81 817.39
  Q 1082.56 913.03 1083.95 915.30
  Q 1099.08 940.03 1103.96 948.25
  Q 1111.89 961.62 1117.70 970.51
  A 0.69 0.68 59.5 0 1 1117.45 971.49
  Q 1117.11 971.67 1116.50 971.51
  Q 1096.78 966.38 1081.24 962.65
  Q 1015.30 946.84 966.81 934.52
  C 962.68 933.47 958.37 932.13 955.15 931.54
  Q 949.93 930.58 945.12 929.13
  A 0.53 0.53 0.0 0 0 944.45 929.74
  L 982.60 1110.47
  A 0.42 0.42 0.0 0 1 981.95 1110.90
  L 833.31 1012.04
  A 0.35 0.35 0.0 0 0 832.77 1012.30
  L 815.85 1192.17
  A 0.42 0.42 0.0 0 1 815.11 1192.40
  L 697.86 1052.63
  A 0.65 0.64 36.5 0 0 696.77 1052.79
  L 623.92 1222.89
  A 0.51 0.51 0.0 0 1 622.98 1222.88
  L 553.25 1053.32
  A 0.43 0.43 0.0 0 0 552.53 1053.20
  Q 497.58 1116.48 434.13 1192.47
  A 0.63 0.63 0.0 0 1 433.02 1192.12
  L 418.01 1014.58
  A 0.54 0.54 0.0 0 0 417.17 1014.18
  L 269.38 1112.44
  A 0.64 0.64 0.0 0 1 268.40 1111.78
  L 306.67 934.06
  A 0.66 0.65 89.2 0 0 305.88 933.28
  L 136.65 974.64
  A 0.57 0.57 0.0 0 1 136.02 973.79
  L 226.43 818.39
  Z
  M 952.95 802.18
  Q 977.35 757.16 988.69 709.72
  Q 1013.99 603.83 978.30 499.75
  Q 974.86 489.69 968.31 474.44
  Q 961.54 458.65 956.68 449.81
  Q 945.36 429.17 940.47 421.52
  C 911.32 375.94 872.87 336.21 827.68 306.94
  Q 800.86 289.57 771.35 276.66
  Q 713.34 251.28 650.74 246.99
  C 583.94 242.41 516.16 257.84 457.27 288.96
  Q 405.59 316.27 364.15 358.36
  Q 311.77 411.55 282.63 482.15
  C 269.86 513.08 261.42 546.10 257.36 579.52
  C 249.54 644.00 259.60 709.23 285.09 768.84
  Q 302.46 809.45 328.91 844.66
  Q 360.20 886.31 399.71 917.29
  Q 451.72 958.07 511.96 978.74
  Q 620.64 1016.03 732.18 982.41
  Q 755.18 975.48 779.88 963.86
  Q 845.30 933.08 894.24 882.05
  Q 929.70 845.08 952.95 802.18
  Z"
/>
</svg>
