<?xml version="1.0" encoding="UTF-8" standalone="no"?>
<!DOCTYPE svg PUBLIC "-//W3C//DTD SVG 1.1//EN" "http://www.w3.org/Graphics/SVG/1.1/DTD/svg11.dtd">
<svg xmlns="http://www.w3.org/2000/svg" version="1.1" viewBox="0.00 0.00 1254.00 1254.00">
<path fill="#fecd57" d="
  M 877.63 121.27
  Q 885.23 115.84 894.11 112.65
  Q 936.29 97.52 973.58 121.15
  Q 997.02 136.01 1008.96 160.44
  Q 1022.61 188.38 1015.53 218.66
  A 0.34 0.34 0.0 0 0 1015.95 219.06
  Q 1035.22 213.73 1054.21 216.93
  C 1083.63 221.89 1108.83 243.13 1121.22 270.30
  C 1133.44 297.07 1132.75 325.88 1118.97 351.69
  A 0.53 0.53 0.0 0 0 1119.45 352.47
  C 1142.60 351.95 1164.71 362.72 1180.90 379.28
  C 1195.52 394.22 1204.33 413.75 1206.75 434.58
  C 1209.85 461.20 1200.83 489.96 1180.98 508.79
  A 0.57 0.57 0.0 0 0 1181.21 509.75
  C 1193.26 513.57 1203.53 520.83 1212.52 529.44
  Q 1219.11 535.77 1224.73 544.65
  Q 1242.69 573.07 1238.84 607.68
  Q 1235.83 634.75 1218.86 656.01
  C 1211.34 665.44 1202.63 672.28 1192.53 677.63
  A 0.35 0.35 0.0 0 0 1192.49 678.22
  Q 1202.36 685.46 1209.66 694.02
  Q 1213.15 698.11 1219.55 709.68
  C 1228.29 725.49 1231.24 746.39 1228.66 764.43
  C 1223.29 802.05 1197.83 832.99 1160.83 842.52
  Q 1158.62 843.08 1156.50 843.26
  A 0.43 0.43 0.0 0 0 1156.19 843.94
  C 1159.43 848.49 1163.40 854.73 1165.72 860.32
  Q 1177.14 887.86 1170.80 915.35
  Q 1164.28 943.61 1143.72 963.15
  C 1123.81 982.07 1097.47 991.20 1070.01 987.44
  A 0.46 0.46 0.0 0 0 1069.54 988.11
  Q 1070.31 989.53 1070.87 991.44
  Q 1077.73 1015.11 1072.55 1036.89
  C 1063.21 1076.18 1028.21 1106.51 987.35 1108.89
  C 974.62 1109.64 959.91 1107.33 947.54 1101.67
  A 0.37 0.37 0.0 0 0 947.02 1102.03
  Q 947.62 1110.66 945.17 1121.24
  C 936.79 1157.35 907.49 1183.80 871.20 1191.49
  C 850.07 1195.96 826.12 1192.43 807.08 1180.49
  Q 800.29 1176.24 795.54 1172.29
  A 0.44 0.44 0.0 0 0 794.83 1172.51
  C 793.81 1176.24 792.56 1180.52 790.55 1184.24
  Q 788.07 1188.82 786.01 1192.54
  Q 782.24 1199.34 774.29 1207.49
  Q 742.99 1239.57 696.77 1236.43
  Q 679.87 1235.28 663.42 1227.50
  Q 656.47 1224.21 646.94 1216.91
  Q 640.49 1211.98 636.59 1207.22
  Q 631.53 1201.04 628.06 1195.70
  A 0.48 0.48 0.0 0 0 627.24 1195.71
  C 612.83 1219.01 586.91 1233.46 560.06 1236.27
  Q 525.91 1239.83 497.17 1221.37
  Q 469.71 1203.73 460.49 1172.44
  A 0.32 0.32 0.0 0 0 459.99 1172.28
  Q 440.22 1188.00 416.36 1192.10
  C 389.45 1196.72 361.81 1188.50 340.98 1171.21
  Q 319.78 1153.61 311.20 1125.65
  C 308.80 1117.81 308.18 1109.65 308.39 1101.59
  A 0.47 0.46 78.0 0 0 307.73 1101.16
  C 266.19 1120.17 218.38 1103.07 194.08 1065.70
  C 179.30 1042.97 175.06 1013.84 184.95 988.11
  A 0.44 0.43 -84.0 0 0 184.48 987.52
  Q 168.71 990.00 153.24 986.25
  C 120.58 978.34 96.23 955.14 85.71 923.67
  C 76.70 896.69 81.52 867.52 97.99 844.25
  A 0.63 0.63 0.0 0 0 97.57 843.26
  C 92.55 842.50 87.29 841.40 82.28 839.01
  Q 68.73 832.52 63.05 828.19
  C 21.29 796.34 12.06 736.53 44.61 694.08
  C 49.28 687.99 55.49 682.72 61.76 678.30
  A 0.43 0.42 -47.7 0 0 61.73 677.58
  Q 55.58 674.00 47.32 667.94
  Q 43.08 664.83 38.80 659.89
  Q 11.33 628.20 14.90 587.75
  Q 17.62 556.98 37.89 533.60
  C 47.25 522.81 59.64 514.28 73.06 509.57
  A 0.54 0.54 0.0 0 0 73.27 508.68
  C 69.15 504.43 64.26 498.83 60.95 493.21
  Q 51.82 477.65 48.88 461.31
  C 41.10 417.91 65.12 373.39 106.45 357.46
  Q 120.62 352.00 135.55 352.41
  A 0.36 0.35 -14.3 0 0 135.87 351.88
  Q 130.64 342.90 128.10 333.26
  Q 119.77 301.63 132.58 272.51
  C 143.36 248.02 163.83 227.96 189.14 219.77
  Q 213.26 211.97 239.35 219.03
  A 0.26 0.26 0.0 0 0 239.67 218.72
  Q 232.45 187.39 247.27 158.66
  C 268.64 117.24 317.69 95.14 362.28 113.14
  C 367.59 115.28 371.53 117.75 378.03 121.37
  A 0.25 0.25 0.0 0 0 378.40 121.17
  Q 380.87 87.08 405.43 63.43
  C 426.50 43.15 456.96 32.81 486.15 37.62
  C 507.51 41.14 527.90 51.70 541.47 68.75
  A 0.42 0.42 0.0 0 0 542.19 68.62
  C 550.25 44.81 570.58 26.06 593.69 17.06
  Q 620.24 6.71 648.68 13.07
  C 677.61 19.54 702.88 39.86 713.40 68.03
  A 0.66 0.65 54.5 0 0 714.52 68.22
  C 729.61 49.73 752.85 38.57 776.29 36.65
  C 803.18 34.46 829.66 44.43 849.61 62.88
  C 862.32 74.63 870.91 89.67 875.23 106.33
  Q 876.95 112.99 877.10 121.01
  A 0.34 0.33 -18.7 0 0 877.63 121.27
  Z
  M 705.67 125.92
  Q 699.29 118.55 695.87 114.94
  Q 694.38 113.37 686.69 107.25
  C 664.62 89.68 636.03 82.57 608.45 88.34
  C 584.76 93.31 563.59 107.59 549.21 126.69
  A 1.28 1.27 32.7 0 1 547.57 127.04
  Q 541.53 123.68 536.06 120.70
  C 532.29 118.66 528.45 117.59 523.55 115.64
  Q 518.35 113.57 513.89 112.61
  Q 479.06 105.15 447.59 121.39
  C 433.80 128.50 420.14 140.39 411.21 154.12
  C 406.97 160.63 403.32 166.26 400.80 173.37
  A 1.11 1.11 0.0 0 1 399.46 174.07
  C 379.30 168.57 356.54 168.86 337.07 176.62
  C 305.62 189.17 283.49 213.80 274.59 246.21
  C 273.09 251.67 271.64 257.02 271.38 262.59
  A 1.14 1.14 0.0 0 1 270.31 263.67
  C 234.78 265.77 204.49 285.04 186.96 315.50
  C 174.75 336.72 170.96 362.21 174.90 386.72
  A 1.14 1.14 0.0 0 1 174.24 387.94
  C 167.09 391.11 159.81 394.64 153.24 399.31
  Q 128.59 416.82 117.02 444.20
  C 104.60 473.56 107.05 506.34 121.82 534.27
  A 0.87 0.86 -35.3 0 1 121.64 535.30
  C 117.45 539.14 114.68 541.21 111.74 544.53
  Q 94.47 564.05 87.85 585.86
  Q 83.19 601.19 83.34 616.02
  Q 83.43 625.50 86.56 639.90
  Q 87.79 645.54 90.45 651.92
  Q 94.75 662.25 95.47 663.55
  Q 97.56 667.35 104.90 678.48
  C 107.76 682.81 111.24 686.54 114.73 690.40
  A 0.72 0.72 0.0 0 1 114.82 691.24
  C 110.84 698.29 106.32 707.20 103.87 714.51
  Q 88.08 761.53 113.99 803.33
  C 119.42 812.10 127.99 822.14 137.45 829.09
  C 140.12 831.06 145.12 835.46 149.45 837.82
  Q 153.33 839.95 154.58 840.68
  A 1.29 1.29 0.0 0 1 155.17 842.10
  Q 148.94 867.55 154.35 891.85
  C 159.76 916.14 173.75 937.93 194.04 951.97
  Q 209.97 962.99 226.94 967.58
  Q 234.59 969.65 237.97 970.36
  A 1.01 1.00 -86.1 0 1 238.75 971.26
  C 240.76 996.40 251.49 1021.91 270.14 1039.42
  Q 298.66 1066.22 337.78 1066.81
  Q 346.23 1066.93 353.87 1066.02
  A 1.20 1.20 0.0 0 1 355.15 1066.82
  Q 358.98 1077.99 366.07 1089.13
  Q 384.26 1117.71 416.80 1129.12
  Q 431.84 1134.39 449.85 1133.98
  Q 458.25 1133.79 468.65 1131.15
  Q 478.83 1128.56 486.56 1124.95
  A 1.26 1.26 0.0 0 1 488.11 1125.35
  Q 498.50 1139.57 512.50 1149.88
  Q 529.82 1162.63 553.45 1166.12
  Q 583.71 1170.59 612.29 1154.09
  Q 619.57 1149.89 626.83 1144.07
  A 1.50 1.49 45.5 0 1 628.72 1144.09
  C 641.11 1154.33 656.47 1162.22 672.44 1165.18
  C 692.63 1168.93 713.78 1166.21 731.74 1156.37
  C 746.73 1148.15 757.40 1138.46 767.44 1125.24
  A 0.91 0.91 0.0 0 1 768.52 1124.96
  Q 776.73 1128.50 787.49 1131.26
  C 809.52 1136.91 833.00 1133.55 852.54 1122.96
  Q 887.24 1104.18 900.47 1066.49
  A 1.03 1.01 11.0 0 1 901.49 1065.81
  C 908.31 1066.20 914.39 1066.86 920.52 1066.61
  C 944.90 1065.65 966.65 1056.68 984.51 1039.89
  Q 1013.41 1012.73 1016.99 970.81
  A 1.06 1.06 0.0 0 1 1017.85 969.86
  C 1043.20 965.24 1066.71 952.11 1082.34 931.87
  C 1102.37 905.94 1108.58 873.16 1100.36 841.75
  A 1.49 1.49 0.0 0 1 1101.08 840.07
  Q 1108.95 835.70 1118.27 828.50
  C 1150.72 803.44 1165.84 759.39 1153.75 719.61
  Q 1149.24 704.78 1140.41 690.88
  A 1.33 1.32 50.7 0 1 1140.57 689.25
  C 1154.89 674.40 1165.92 655.28 1169.96 634.90
  C 1175.37 607.60 1169.82 581.52 1154.84 558.20
  C 1152.12 553.96 1147.87 549.48 1145.52 546.28
  C 1142.66 542.38 1138.30 538.72 1133.60 534.48
  A 1.26 1.25 -55.3 0 1 1133.33 532.96
  C 1147.16 506.81 1150.30 477.05 1140.26 449.01
  C 1131.32 424.06 1112.42 401.55 1087.17 389.66
  Q 1081.80 387.13 1080.16 386.25
  A 0.75 0.74 18.7 0 1 1079.78 385.50
  Q 1080.82 377.74 1080.93 376.42
  Q 1083.33 346.87 1071.82 322.50
  Q 1059.73 296.88 1036.72 280.57
  Q 1013.73 264.26 984.01 262.34
  A 0.89 0.88 88.8 0 1 983.19 261.55
  Q 979.58 229.44 959.18 205.33
  Q 948.57 192.79 933.30 183.32
  C 909.86 168.79 881.48 165.91 854.88 173.01
  A 0.96 0.95 -17.5 0 1 853.74 172.42
  Q 851.30 165.83 847.61 159.63
  Q 835.78 139.75 817.63 127.16
  C 789.94 107.95 756.78 103.88 725.59 116.63
  Q 715.52 120.74 706.84 126.10
  A 0.91 0.91 0.0 0 1 705.67 125.92
  Z"
/>
</svg>
