<?xml version="1.0" encoding="UTF-8" standalone="no"?>
<!DOCTYPE svg PUBLIC "-//W3C//DTD SVG 1.1//EN" "http://www.w3.org/Graphics/SVG/1.1/DTD/svg11.dtd">
<svg xmlns="http://www.w3.org/2000/svg" version="1.1" viewBox="0.00 0.00 1402.00 1122.00">
<path fill="#c0ea98" d="
  M 66.56 715.02
  A 0.35 0.35 0.0 0 0 66.55 714.37
  Q 62.78 712.86 58.47 710.06
  Q 33.11 693.58 32.38 664.60
  C 31.99 648.86 37.60 635.78 48.42 624.60
  C 53.54 619.31 60.75 615.75 66.61 612.96
  A 0.37 0.37 0.0 0 0 66.62 612.30
  C 58.96 608.33 50.53 603.32 44.96 596.61
  Q 35.33 585.01 33.21 571.11
  C 30.29 551.97 35.23 535.88 48.77 522.44
  Q 56.16 515.12 66.52 511.37
  A 0.50 0.50 0.0 0 0 66.56 510.44
  C 55.87 505.46 47.60 499.28 40.96 489.18
  Q 30.26 472.89 32.83 452.18
  C 34.69 437.27 41.77 426.26 53.00 417.04
  Q 58.67 412.39 66.20 409.72
  A 0.82 0.81 46.6 0 0 66.24 408.20
  C 51.04 401.74 39.30 389.57 34.56 373.71
  Q 32.64 367.28 32.43 359.09
  Q 31.65 328.87 57.90 311.09
  Q 61.99 308.32 66.59 306.76
  A 0.59 0.59 0.0 0 0 66.64 305.65
  C 49.27 298.18 35.72 282.46 33.08 263.44
  Q 28.75 232.22 51.81 212.06
  Q 58.70 206.03 67.35 203.02
  A 0.42 0.41 -43.7 0 0 67.37 202.24
  Q 56.76 198.10 48.05 189.38
  Q 30.68 172.00 32.57 146.17
  Q 34.34 122.02 53.27 107.27
  Q 63.26 99.48 75.75 97.68
  A 1.09 1.09 0.0 0 0 76.61 96.21
  C 72.63 85.92 77.53 77.72 85.09 70.82
  C 101.76 55.62 128.50 52.64 148.58 63.02
  Q 165.06 71.54 172.89 88.46
  A 0.52 0.52 0.0 0 0 173.83 88.46
  Q 184.02 66.92 206.64 59.65
  Q 210.65 58.36 217.51 57.53
  C 233.48 55.61 248.68 59.79 260.85 70.01
  Q 261.75 70.76 266.76 75.83
  C 270.50 79.60 273.08 84.34 274.89 88.67
  A 0.46 0.46 0.0 0 0 275.73 88.68
  Q 283.28 72.51 298.08 64.13
  C 311.35 56.61 327.72 55.29 342.70 59.10
  C 351.97 61.46 362.97 68.29 369.25 76.33
  Q 373.62 81.93 376.98 88.22
  A 0.50 0.50 0.0 0 0 377.88 88.19
  Q 380.49 82.43 385.73 75.95
  Q 388.41 72.65 395.00 67.64
  C 413.30 53.72 440.99 53.63 459.84 65.86
  Q 472.41 74.01 479.12 88.45
  A 0.68 0.68 0.0 0 0 480.36 88.43
  Q 484.92 77.85 492.97 70.94
  Q 507.26 58.70 525.58 57.24
  Q 552.67 55.09 571.37 73.43
  C 575.86 77.83 578.74 83.31 581.45 88.53
  A 0.62 0.62 0.0 0 0 582.55 88.54
  C 585.24 83.59 587.32 79.00 591.30 74.81
  C 608.89 56.33 637.13 51.69 659.57 63.10
  Q 668.10 67.43 673.83 73.76
  Q 680.07 80.66 684.05 88.41
  A 0.42 0.41 44.1 0 0 684.80 88.40
  Q 691.89 72.67 707.39 64.12
  Q 714.69 60.09 720.91 58.74
  C 732.00 56.32 744.14 56.00 755.30 60.36
  C 765.41 64.31 773.46 69.44 779.59 78.15
  Q 782.87 82.81 785.78 87.99
  A 0.70 0.70 0.0 0 0 787.01 87.96
  C 799.27 63.68 824.08 53.24 850.37 58.36
  Q 862.58 60.74 872.81 68.96
  Q 882.69 76.90 888.23 88.46
  A 0.51 0.51 0.0 0 0 889.16 88.44
  Q 893.72 78.28 901.61 71.23
  Q 909.83 63.87 919.96 60.34
  C 937.14 54.34 958.98 56.08 973.57 67.95
  Q 981.22 74.17 983.63 77.41
  Q 987.20 82.21 990.16 88.53
  A 0.51 0.50 -44.8 0 0 991.07 88.53
  Q 996.11 78.16 1004.88 70.38
  C 1018.81 58.00 1038.70 54.31 1056.65 58.85
  C 1072.12 62.76 1085.95 73.44 1092.44 88.43
  A 0.55 0.55 0.0 0 0 1093.44 88.46
  Q 1094.86 85.64 1098.60 79.85
  Q 1101.30 75.68 1105.08 72.22
  Q 1117.83 60.59 1133.75 57.89
  Q 1151.52 54.87 1167.76 61.84
  Q 1182.91 68.34 1192.91 84.83
  Q 1194.02 86.66 1194.63 88.60
  A 0.61 0.60 -41.9 0 0 1195.76 88.66
  Q 1199.79 79.64 1207.09 72.47
  C 1226.25 53.64 1259.62 51.57 1281.08 68.18
  Q 1295.02 78.97 1299.38 96.51
  A 0.88 0.87 82.2 0 0 1300.25 97.18
  Q 1313.93 96.96 1325.23 104.25
  C 1333.45 109.56 1340.15 116.43 1344.66 125.25
  C 1354.04 143.58 1352.63 166.65 1339.55 183.11
  Q 1331.79 192.89 1322.21 198.18
  Q 1321.19 198.75 1316.20 201.49
  A 0.31 0.31 0.0 0 0 1316.20 202.03
  Q 1317.71 202.84 1319.52 203.75
  C 1336.68 212.41 1348.73 228.65 1350.40 248.11
  Q 1352.43 271.72 1337.39 289.15
  Q 1328.45 299.51 1316.24 304.63
  A 0.46 0.46 0.0 0 0 1316.24 305.47
  C 1351.01 320.62 1362.70 364.04 1336.60 392.87
  Q 1328.22 402.14 1316.52 407.37
  A 0.51 0.51 0.0 0 0 1316.52 408.31
  Q 1336.50 417.22 1345.76 436.15
  C 1351.89 448.70 1352.46 466.58 1346.67 479.43
  Q 1337.20 500.40 1316.27 509.53
  A 0.33 0.33 0.0 0 0 1316.27 510.13
  C 1337.62 519.39 1351.71 539.27 1350.63 563.24
  C 1349.65 584.64 1335.71 603.35 1316.09 611.40
  A 0.36 0.36 0.0 0 0 1316.08 612.06
  C 1324.69 615.79 1332.95 621.69 1338.62 628.96
  Q 1351.27 645.17 1350.68 663.89
  Q 1350.14 680.76 1340.92 693.75
  Q 1331.72 706.71 1316.33 713.56
  A 0.44 0.43 -45.3 0 0 1316.33 714.36
  C 1336.57 722.94 1350.19 741.26 1350.62 763.52
  Q 1350.99 783.25 1339.23 797.96
  C 1333.39 805.27 1325.39 812.08 1316.39 815.39
  A 0.50 0.49 46.4 0 0 1316.37 816.31
  C 1329.58 821.98 1340.25 831.84 1346.34 845.20
  Q 1350.49 854.29 1350.68 865.19
  C 1350.94 880.55 1345.70 893.55 1334.90 904.47
  Q 1326.73 912.74 1316.03 917.05
  A 0.31 0.31 0.0 0 0 1316.02 917.63
  Q 1333.10 924.81 1342.99 940.52
  C 1353.13 956.60 1353.14 977.95 1343.91 994.49
  C 1335.33 1009.85 1318.53 1021.26 1300.48 1021.02
  A 1.45 1.44 -78.6 0 0 1299.11 1021.94
  C 1291.47 1041.86 1272.06 1054.07 1251.17 1054.95
  Q 1213.78 1056.51 1196.82 1023.95
  A 0.43 0.43 0.0 0 0 1196.05 1023.97
  Q 1192.18 1032.61 1184.29 1040.10
  C 1166.88 1056.61 1141.79 1058.95 1120.20 1050.08
  C 1114.84 1047.89 1110.89 1044.13 1106.33 1040.43
  C 1100.94 1036.05 1097.86 1030.70 1094.72 1024.53
  A 0.67 0.67 0.0 0 0 1093.53 1024.53
  Q 1089.60 1032.28 1082.98 1039.01
  C 1066.53 1055.73 1041.52 1059.06 1019.85 1050.89
  Q 1013.62 1048.54 1008.27 1044.08
  Q 1000.97 1038.00 997.99 1034.14
  A 3.24 2.61 84.7 0 1 997.75 1033.78
  L 992.14 1024.05
  A 0.44 0.44 0.0 0 0 991.37 1024.07
  C 982.33 1041.70 966.53 1053.12 946.61 1054.86
  C 922.03 1057.00 900.70 1046.61 889.92 1024.00
  A 0.51 0.51 0.0 0 0 888.97 1024.07
  Q 888.17 1026.64 886.78 1028.79
  Q 879.39 1040.17 867.69 1047.45
  C 854.13 1055.89 836.08 1056.88 820.91 1052.79
  C 806.51 1048.91 794.63 1037.68 787.74 1024.49
  A 0.58 0.58 0.0 0 0 786.70 1024.51
  Q 784.05 1030.01 780.07 1034.82
  C 765.93 1051.90 746.10 1057.76 724.21 1053.97
  C 715.04 1052.38 703.48 1046.98 696.85 1039.96
  Q 690.09 1032.81 685.71 1024.20
  A 0.38 0.37 -45.6 0 0 685.04 1024.21
  Q 680.67 1033.11 672.72 1040.55
  C 653.65 1058.43 622.65 1059.85 601.05 1045.64
  C 592.91 1040.28 587.40 1032.43 583.01 1024.02
  A 0.38 0.38 0.0 0 0 582.32 1024.05
  Q 578.65 1032.69 572.19 1038.78
  C 565.32 1045.24 557.28 1050.70 547.63 1053.12
  Q 530.61 1057.41 513.81 1052.68
  C 499.24 1048.59 487.39 1037.39 480.79 1023.93
  A 0.48 0.48 0.0 0 0 479.92 1023.95
  Q 476.20 1032.14 469.66 1038.71
  C 452.50 1055.92 428.04 1059.25 405.61 1050.72
  Q 400.15 1048.64 396.53 1045.61
  Q 386.39 1037.09 385.65 1035.95
  Q 381.40 1029.41 378.61 1024.36
  A 0.47 0.46 -46.9 0 0 377.78 1024.39
  Q 375.57 1028.98 371.13 1034.54
  C 354.92 1054.81 328.52 1059.75 304.63 1051.15
  C 297.64 1048.63 293.24 1044.66 286.98 1039.45
  C 282.44 1035.66 278.88 1029.11 276.38 1024.03
  A 0.52 0.52 0.0 0 0 275.43 1024.08
  Q 274.53 1026.52 273.07 1028.77
  C 259.56 1049.53 237.80 1058.43 212.94 1054.00
  C 195.42 1050.87 181.72 1040.01 174.20 1023.91
  A 0.39 0.39 0.0 0 0 173.50 1023.91
  Q 169.92 1031.48 164.38 1037.40
  Q 148.89 1053.95 126.75 1055.03
  C 101.89 1056.24 80.38 1044.75 71.05 1020.94
  A 0.85 0.85 0.0 0 0 70.52 1020.45
  Q 49.87 1013.90 38.70 994.77
  Q 35.67 989.59 34.25 983.51
  C 30.11 965.84 32.56 948.70 44.18 934.66
  Q 53.09 923.90 66.52 918.64
  A 0.59 0.59 0.0 0 0 66.53 917.55
  Q 51.14 911.18 41.32 897.15
  Q 34.47 887.36 33.01 875.75
  Q 28.61 840.86 57.19 821.65
  Q 61.59 818.70 66.53 817.10
  A 0.64 0.64 0.0 0 0 66.60 815.91
  Q 59.84 812.79 54.60 809.42
  Q 53.21 808.52 47.93 803.29
  C 38.18 793.61 33.07 781.68 32.42 767.60
  Q 31.31 743.67 48.30 726.90
  Q 53.12 722.14 55.81 720.59
  Q 61.97 717.06 66.56 715.02
  Z
  M 98.66 970.76
  A 22.15 22.15 0.0 0 0 120.81 992.91
  L 1260.76 992.91
  A 22.15 22.15 0.0 0 0 1282.91 970.76
  L 1282.91 145.01
  A 22.15 22.15 0.0 0 0 1260.76 122.86
  L 120.81 122.86
  A 22.15 22.15 0.0 0 0 98.66 145.01
  L 98.66 970.76
  Z"
/>
</svg>
