<?xml version="1.0" encoding="UTF-8" standalone="no"?>
<!DOCTYPE svg PUBLIC "-//W3C//DTD SVG 1.1//EN" "http://www.w3.org/Graphics/SVG/1.1/DTD/svg11.dtd">
<svg xmlns="http://www.w3.org/2000/svg" version="1.1" viewBox="0.00 0.00 1254.00 1254.00">
<path fill="#deb8fd" d="
  M 404.65 327.50
  Q 402.92 322.74 402.72 318.14
  A 7.00 6.88 36.4 0 0 402.50 316.76
  Q 400.56 309.61 400.15 307.38
  C 395.14 279.95 394.46 251.86 397.52 224.80
  Q 400.81 195.74 411.86 166.95
  Q 420.06 145.61 431.74 127.54
  Q 443.88 108.76 459.14 92.89
  Q 464.74 87.06 475.25 78.14
  Q 483.68 70.98 492.68 64.98
  C 515.37 49.87 539.64 38.97 565.74 32.39
  C 570.25 31.25 577.17 29.37 583.05 28.31
  C 659.38 14.55 740.60 37.23 793.43 95.53
  Q 825.94 131.40 839.73 179.77
  C 850.18 216.43 851.17 255.74 845.99 293.86
  C 844.55 304.47 842.91 311.08 840.20 322.15
  A 0.41 0.41 0.0 0 0 840.84 322.58
  Q 866.32 304.25 896.09 294.13
  Q 948.06 276.46 1002.01 279.77
  Q 1039.94 282.10 1077.75 296.98
  C 1147.73 324.50 1200.10 384.85 1219.40 457.22
  Q 1232.93 507.95 1223.53 560.51
  Q 1218.91 586.30 1209.71 608.19
  Q 1188.75 658.02 1149.73 692.57
  C 1107.26 730.17 1051.44 751.32 994.17 753.19
  A 0.36 0.36 0.0 0 0 993.96 753.84
  C 1032.57 782.37 1060.27 823.73 1077.74 868.50
  Q 1092.71 906.88 1094.88 948.27
  Q 1098.50 1017.21 1065.33 1080.03
  Q 1060.55 1089.09 1050.36 1103.87
  C 1027.77 1136.62 997.09 1163.20 960.83 1180.27
  Q 906.74 1205.74 845.24 1200.76
  Q 822.70 1198.94 803.59 1193.75
  C 796.26 1191.75 788.90 1188.89 781.73 1186.41
  Q 776.43 1184.57 773.08 1183.15
  Q 712.32 1157.39 670.55 1106.73
  C 666.22 1101.49 662.53 1095.70 658.35 1090.04
  Q 656.67 1087.77 653.76 1083.02
  Q 639.70 1060.08 630.72 1035.07
  C 629.54 1031.80 628.64 1026.27 627.24 1021.92
  Q 626.97 1021.10 625.88 1017.61
  A 0.50 0.49 44.1 0 0 624.93 1017.62
  C 623.28 1023.66 622.32 1030.48 619.51 1035.99
  Q 618.41 1038.16 617.18 1042.35
  Q 616.65 1044.14 614.68 1048.64
  Q 586.90 1112.20 530.31 1152.82
  Q 490.37 1181.48 443.89 1193.07
  Q 417.50 1199.65 387.99 1200.00
  Q 336.76 1200.59 289.81 1178.68
  Q 284.93 1176.40 271.07 1168.16
  C 228.55 1142.90 195.46 1103.16 175.78 1058.22
  C 149.63 998.49 148.17 933.02 170.55 871.79
  Q 171.70 868.65 177.41 855.03
  Q 181.11 846.22 185.05 838.63
  C 202.34 805.33 225.12 775.45 255.47 753.12
  A 0.32 0.32 0.0 0 0 255.31 752.55
  C 249.21 752.04 238.81 751.67 231.00 750.70
  C 185.93 745.10 142.44 727.53 106.69 699.32
  C 79.40 677.78 57.95 649.59 42.48 617.54
  Q 38.01 608.26 32.18 590.22
  Q 27.23 574.89 25.06 561.92
  Q 20.99 537.55 21.34 517.51
  Q 22.27 464.18 44.47 417.79
  C 76.02 351.84 136.43 304.77 207.97 289.73
  C 246.91 281.54 287.46 282.87 326.17 292.37
  Q 356.44 299.81 383.76 314.74
  Q 389.86 318.08 394.10 321.08
  Q 402.34 326.92 404.20 327.89
  A 0.32 0.32 0.0 0 0 404.65 327.50
  Z
  M 786.41 404.21
  C 786.73 398.11 788.02 388.16 788.19 382.26
  C 789.30 343.31 785.31 304.48 768.83 269.19
  C 748.86 226.42 708.34 193.10 662.56 182.64
  C 616.52 172.12 567.86 181.44 530.24 209.68
  C 501.59 231.20 481.82 260.44 471.71 294.96
  Q 467.99 307.66 466.39 316.83
  Q 458.71 360.98 463.69 405.34
  A 0.54 0.54 0.0 0 1 462.89 405.88
  C 450.98 399.29 437.65 393.20 425.84 388.58
  Q 392.70 375.63 357.02 374.65
  C 270.11 372.28 195.91 437.04 188.88 524.30
  Q 184.21 582.35 216.05 631.01
  Q 237.65 664.03 272.51 684.54
  Q 291.77 695.87 314.84 703.66
  Q 320.35 705.52 323.21 706.25
  C 331.02 708.27 336.81 710.51 344.34 711.99
  Q 352.74 713.63 358.29 714.86
  A 0.48 0.48 0.0 0 1 358.49 715.70
  Q 343.87 727.52 330.98 740.96
  C 299.44 773.83 279.88 817.47 279.21 863.11
  C 278.24 929.21 316.18 989.84 374.53 1019.63
  C 416.34 1040.96 468.09 1043.50 511.95 1026.69
  C 538.88 1016.37 563.26 999.62 582.65 977.71
  Q 589.87 969.56 593.22 964.98
  Q 598.92 957.16 609.17 941.43
  Q 611.12 938.43 613.50 933.07
  C 615.20 929.27 617.50 926.10 619.22 922.21
  Q 621.44 917.18 625.28 909.50
  A 0.36 0.35 -42.3 0 1 625.93 909.53
  Q 628.36 916.05 631.48 922.17
  Q 632.07 923.32 633.12 925.43
  C 636.41 932.05 639.69 938.78 643.50 944.82
  C 659.98 970.92 678.82 992.54 703.25 1008.98
  Q 755.69 1044.25 818.93 1037.85
  Q 841.72 1035.55 859.71 1028.45
  Q 925.16 1002.64 955.79 938.77
  Q 966.26 916.94 969.96 892.00
  Q 977.44 841.60 956.71 796.07
  Q 944.28 768.75 921.23 743.71
  Q 917.25 739.38 914.76 737.27
  Q 909.53 732.83 907.67 730.55
  Q 905.00 727.27 901.49 725.01
  Q 897.27 722.28 892.13 717.21
  A 0.80 0.80 0.0 0 1 892.53 715.86
  Q 899.36 714.44 905.88 713.30
  Q 913.53 711.97 919.13 710.41
  Q 941.22 704.26 958.45 696.65
  Q 976.82 688.53 990.65 678.92
  Q 1041.19 643.81 1058.26 584.25
  Q 1066.25 556.34 1064.16 527.37
  Q 1060.57 477.83 1030.56 438.47
  Q 1015.88 419.21 994.38 403.46
  Q 985.58 397.02 973.65 390.91
  Q 961.19 384.54 951.41 381.40
  C 911.56 368.61 867.90 371.22 828.75 385.81
  Q 809.61 392.95 799.14 398.42
  Q 787.32 404.61 786.96 404.68
  A 0.46 0.46 0.0 0 1 786.41 404.21
  Z"
/>
<path fill="#ffd35c" d="
  M 627.84 444.18
  C 673.60 444.34 716.13 460.51 750.50 490.14
  C 793.08 526.86 817.89 581.14 817.68 637.00
  C 817.47 692.85 792.27 746.95 749.42 783.36
  C 714.84 812.73 672.19 828.58 626.43 828.42
  C 580.67 828.25 538.14 812.08 503.78 782.45
  C 461.19 745.73 436.39 691.45 436.59 635.59
  C 436.80 579.74 462.00 525.64 504.86 489.23
  C 539.44 459.86 582.09 444.01 627.84 444.18
  Z
  M 473.6980 630.5463
  A 153.51 153.46 -177.4 0 0 620.0886 790.8120
  A 153.51 153.46 -177.4 0 0 780.4020 644.4737
  A 153.51 153.46 -177.4 0 0 634.0114 484.2080
  A 153.51 153.46 -177.4 0 0 473.6980 630.5463
  Z"
/>
</svg>
