<?xml version="1.0" encoding="UTF-8" standalone="no"?>
<!DOCTYPE svg PUBLIC "-//W3C//DTD SVG 1.1//EN" "http://www.w3.org/Graphics/SVG/1.1/DTD/svg11.dtd">
<svg xmlns="http://www.w3.org/2000/svg" version="1.1" viewBox="0.00 0.00 1536.00 1024.00">
<circle fill="#ddb4fa" cx="273.37" cy="42.41" r="2.14"/>
<circle fill="#ddb4fa" cx="352.38" cy="42.66" r="2.30"/>
<circle fill="#ddb4fa" cx="512.02" cy="42.63" r="2.29"/>
<circle fill="#ddb4fa" cx="871.38" cy="42.60" r="2.17"/>
<circle fill="#ddb4fa" cx="1029.62" cy="42.46" r="2.24"/>
<circle fill="#ddb4fa" cx="1068.58" cy="42.49" r="2.30"/>
<circle fill="#ddb4fa" cx="1107.83" cy="42.47" r="2.23"/>
<circle fill="#ddb4fa" cx="1146.69" cy="42.69" r="2.36"/>
<circle fill="#ddb4fa" cx="1186.07" cy="42.58" r="2.21"/>
<circle fill="#ddb4fa" cx="234.23" cy="42.52" r="1.90"/>
<circle fill="#ddb4fa" cx="312.92" cy="42.47" r="2.05"/>
<circle fill="#ddb4fa" cx="392.11" cy="42.55" r="2.05"/>
<circle fill="#ddb4fa" cx="431.56" cy="42.62" r="2.05"/>
<circle fill="#ddb4fa" cx="471.77" cy="42.41" r="1.91"/>
<circle fill="#ddb4fa" cx="552.38" cy="42.53" r="1.98"/>
<ellipse fill="#ddb4fa" cx="0.00" cy="0.00" transform="translate(592.30,42.68) rotate(-78.1)" rx="2.21" ry="2.07"/>
<circle fill="#ddb4fa" cx="632.39" cy="42.66" r="2.13"/>
<circle fill="#ddb4fa" cx="672.29" cy="42.69" r="2.07"/>
<circle fill="#ddb4fa" cx="712.43" cy="42.64" r="2.14"/>
<circle fill="#ddb4fa" cx="752.52" cy="42.68" r="2.22"/>
<circle fill="#ddb4fa" cx="792.43" cy="42.53" r="2.05"/>
<circle fill="#ddb4fa" cx="831.85" cy="42.72" r="2.18"/>
<circle fill="#ddb4fa" cx="910.63" cy="42.73" r="2.28"/>
<circle fill="#ddb4fa" cx="950.36" cy="42.60" r="1.99"/>
<circle fill="#ddb4fa" cx="989.76" cy="42.50" r="2.00"/>
<circle fill="#ddb4fa" cx="1225.26" cy="42.52" r="2.15"/>
<circle fill="#ddb4fa" cx="1264.27" cy="42.61" r="2.12"/>
<circle fill="#ddb4fa" cx="1302.80" cy="42.57" r="1.93"/>
<circle fill="#ddb4fa" cx="196.09" cy="43.41" r="1.00"/>
<circle fill="#ddb4fa" cx="1341.18" cy="43.89" r="1.08"/>
<circle fill="#ddb4fa" cx="572.41" cy="61.63" r="4.57"/>
<circle fill="#ddb4fa" cx="612.60" cy="61.64" r="4.22"/>
<ellipse fill="#ddb4fa" cx="0.00" cy="0.00" transform="translate(732.59,61.63) rotate(-73.1)" rx="4.55" ry="4.32"/>
<ellipse fill="#ddb4fa" cx="0.00" cy="0.00" transform="translate(812.08,61.59) rotate(-134.6)" rx="4.49" ry="4.19"/>
<ellipse fill="#ddb4fa" cx="0.00" cy="0.00" transform="translate(851.83,61.75) rotate(-114.1)" rx="4.66" ry="4.32"/>
<ellipse fill="#ddb4fa" cx="0.00" cy="0.00" transform="translate(891.25,61.81) rotate(-88.1)" rx="4.47" ry="4.22"/>
<ellipse fill="#ddb4fa" cx="0.00" cy="0.00" transform="translate(253.57,62.18) rotate(-60.8)" rx="4.69" ry="4.53"/>
<ellipse fill="#ddb4fa" cx="0.00" cy="0.00" transform="translate(293.12,61.86) rotate(-19.7)" rx="4.50" ry="4.31"/>
<circle fill="#ddb4fa" cx="332.81" cy="61.86" r="4.39"/>
<circle fill="#ddb4fa" cx="372.44" cy="62.11" r="4.64"/>
<circle fill="#ddb4fa" cx="411.85" cy="62.09" r="4.37"/>
<ellipse fill="#ddb4fa" cx="0.00" cy="0.00" transform="translate(451.73,61.94) rotate(-41.5)" rx="4.45" ry="4.29"/>
<circle fill="#ddb4fa" cx="492.02" cy="61.83" r="4.26"/>
<circle fill="#ddb4fa" cx="532.17" cy="62.00" r="4.52"/>
<ellipse fill="#ddb4fa" cx="0.00" cy="0.00" transform="translate(652.10,61.63) rotate(-127.3)" rx="4.34" ry="4.15"/>
<circle fill="#ddb4fa" cx="692.45" cy="61.62" r="4.23"/>
<ellipse fill="#ddb4fa" cx="0.00" cy="0.00" transform="translate(772.56,61.68) rotate(-114.7)" rx="4.24" ry="4.07"/>
<ellipse fill="#ddb4fa" cx="0.00" cy="0.00" transform="translate(930.43,61.78) rotate(-91.2)" rx="4.33" ry="4.06"/>
<circle fill="#ddb4fa" cx="1009.88" cy="62.11" r="4.71"/>
<circle fill="#ddb4fa" cx="1049.27" cy="62.08" r="4.71"/>
<ellipse fill="#ddb4fa" cx="0.00" cy="0.00" transform="translate(1088.08,61.90) rotate(-178.1)" rx="4.52" ry="4.35"/>
<circle fill="#ddb4fa" cx="1127.40" cy="61.95" r="4.38"/>
<circle fill="#ddb4fa" cx="1166.51" cy="62.22" r="4.71"/>
<ellipse fill="#ddb4fa" cx="0.00" cy="0.00" transform="translate(1205.72,62.12) rotate(-68.7)" rx="4.63" ry="4.45"/>
<circle fill="#ddb4fa" cx="1244.66" cy="61.96" r="4.46"/>
<circle fill="#ddb4fa" cx="1283.67" cy="62.06" r="4.47"/>
<circle fill="#ddb4fa" cx="970.17" cy="61.66" r="4.02"/>
<circle fill="#ddb4fa" cx="215.01" cy="61.68" r="3.62"/>
<circle fill="#ddb4fa" cx="1322.02" cy="61.88" r="3.69"/>
<ellipse fill="#ddb4fa" cx="0.00" cy="0.00" transform="translate(176.97,62.07) rotate(-85.7)" rx="2.67" ry="2.30"/>
<ellipse fill="#ddb4fa" cx="0.00" cy="0.00" transform="translate(1360.11,62.14) rotate(-88.3)" rx="2.72" ry="2.54"/>
<ellipse fill="#ddb4fa" cx="0.00" cy="0.00" transform="translate(140.72,62.27) rotate(-61.5)" rx="0.92" ry="0.81"/>
<circle fill="#ddb4fa" cx="1396.08" cy="62.48" r="0.93"/>
<path fill="#ddb4fa" d="
  M 1148.24 73.44
  L 1152.14 75.28
  A 1.18 1.10 -2.0 0 1 1152.60 75.68
  Q 1155.28 79.80 1152.49 84.24
  C 1150.38 87.58 1146.92 88.33 1143.41 86.51
  Q 1138.18 83.77 1140.03 76.95
  A 1.81 1.76 76.2 0 1 1140.53 76.10
  Q 1143.47 73.28 1147.92 73.37
  A 0.78 0.73 -30.9 0 1 1148.24 73.44
  Z"
/>
<ellipse fill="#ddb4fa" cx="0.00" cy="0.00" transform="translate(273.49,80.80) rotate(-31.7)" rx="7.37" ry="6.74"/>
<ellipse fill="#ddb4fa" cx="0.00" cy="0.00" transform="translate(392.12,80.68) rotate(-19.1)" rx="7.27" ry="6.91"/>
<ellipse fill="#ddb4fa" cx="0.00" cy="0.00" transform="translate(712.52,80.88) rotate(-162.3)" rx="7.13" ry="6.78"/>
<ellipse fill="#ddb4fa" cx="0.00" cy="0.00" transform="translate(950.37,80.63) rotate(-161.6)" rx="7.10" ry="6.74"/>
<ellipse fill="#ddb4fa" cx="0.00" cy="0.00" transform="translate(1186.26,80.79) rotate(-30.3)" rx="7.33" ry="6.67"/>
<rect fill="#ddb4fa" x="-6.47" y="-6.71" transform="translate(1264.28,80.46) rotate(-2.1)" width="12.94" height="13.42" rx="5.85"/>
<ellipse fill="#ddb4fa" cx="0.00" cy="0.00" transform="translate(352.59,80.71) rotate(-51.1)" rx="6.92" ry="6.58"/>
<circle fill="#ddb4fa" cx="512.18" cy="80.53" r="6.68"/>
<ellipse fill="#ddb4fa" cx="0.00" cy="0.00" transform="translate(592.55,80.74) rotate(-35.8)" rx="6.91" ry="6.59"/>
<ellipse fill="#ddb4fa" cx="0.00" cy="0.00" transform="translate(831.88,80.91) rotate(-21.0)" rx="6.91" ry="6.74"/>
<ellipse fill="#ddb4fa" cx="0.00" cy="0.00" transform="translate(910.87,80.57) rotate(-18.4)" rx="6.87" ry="6.65"/>
<ellipse fill="#ddb4fa" cx="0.00" cy="0.00" transform="translate(1030.07,80.91) rotate(-44.2)" rx="7.26" ry="6.54"/>
<ellipse fill="#ddb4fa" cx="0.00" cy="0.00" transform="translate(234.24,80.94) rotate(-40.1)" rx="7.26" ry="6.59"/>
<ellipse fill="#ddb4fa" cx="0.00" cy="0.00" transform="translate(313.19,80.85) rotate(-25.7)" rx="6.80" ry="6.54"/>
<ellipse fill="#ddb4fa" cx="0.00" cy="0.00" transform="translate(431.79,80.97) rotate(-22.7)" rx="7.10" ry="6.63"/>
<circle fill="#ddb4fa" cx="471.91" cy="80.77" r="6.45"/>
<path fill="#ddb4fa" d="
  M 559.42 77.86
  A 1.45 1.45 0.0 0 1 559.94 79.09
  Q 559.50 84.86 554.55 87.04
  C 544.45 91.50 542.49 75.74 550.93 74.29
  C 554.83 73.62 556.70 75.63 559.42 77.86
  Z"
/>
<ellipse fill="#ddb4fa" cx="0.00" cy="0.00" transform="translate(752.74,80.92) rotate(-146.6)" rx="6.94" ry="6.57"/>
<path fill="#ddb4fa" d="
  M 798.61 84.88
  C 792.16 91.70 779.33 81.97 787.86 75.77
  Q 791.62 73.04 795.64 75.06
  A 3.36 3.33 -6.6 0 1 796.66 75.86
  C 798.34 77.82 800.71 82.67 798.61 84.88
  Z"
/>
<ellipse fill="#ddb4fa" cx="0.00" cy="0.00" transform="translate(990.17,80.79) rotate(-21.3)" rx="6.96" ry="6.58"/>
<circle fill="#ddb4fa" cx="1068.97" cy="80.85" r="6.70"/>
<circle fill="#ddb4fa" cx="1225.42" cy="80.96" r="6.66"/>
<circle fill="#ddb4fa" cx="1303.15" cy="80.80" r="6.67"/>
<ellipse fill="#ddb4fa" cx="0.00" cy="0.00" transform="translate(632.45,80.88) rotate(-149.8)" rx="6.65" ry="6.31"/>
<path fill="#ddb4fa" d="
  M 665.61 82.28
  Q 664.90 75.97 671.07 74.58
  Q 674.71 73.76 677.01 76.29
  Q 677.57 76.91 678.50 79.68
  C 679.65 83.12 677.55 87.04 673.99 87.30
  Q 669.17 87.66 665.97 83.22
  A 1.99 1.86 26.0 0 1 665.61 82.28
  Z"
/>
<circle fill="#ddb4fa" cx="871.69" cy="81.07" r="6.61"/>
<ellipse fill="#ddb4fa" cx="0.00" cy="0.00" transform="translate(1108.01,80.80) rotate(-179.5)" rx="6.68" ry="6.43"/>
<ellipse fill="#ddb4fa" cx="0.00" cy="0.00" transform="translate(1341.19,81.02) rotate(-66.6)" rx="6.08" ry="5.84"/>
<circle fill="#ddb4fa" cx="195.83" cy="81.15" r="5.72"/>
<circle fill="#ddb4fa" cx="158.56" cy="80.97" r="3.79"/>
<ellipse fill="#ddb4fa" cx="0.00" cy="0.00" transform="translate(1378.37,80.96) rotate(-118.5)" rx="3.77" ry="3.63"/>
<ellipse fill="#ddb4fa" cx="0.00" cy="0.00" transform="translate(121.93,80.29) rotate(-60.9)" rx="1.79" ry="1.57"/>
<circle fill="#ddb4fa" cx="1414.32" cy="80.21" r="1.55"/>
<ellipse fill="#ddb4fa" cx="0.00" cy="0.00" transform="translate(451.91,98.87) rotate(-134.3)" rx="9.58" ry="8.81"/>
<path fill="#ddb4fa" d="
  M 821.23 98.79
  A 3.44 3.36 46.7 0 1 821.20 100.20
  Q 819.25 108.73 809.94 108.14
  C 804.93 107.81 802.78 102.24 803.35 97.96
  C 804.20 91.47 812.17 86.82 817.42 91.88
  Q 820.46 94.82 821.23 98.79
  Z"
/>
<path fill="#ddb4fa" d="
  M 1079.46 95.53
  Q 1079.64 93.63 1082.13 91.61
  C 1086.75 87.88 1092.13 89.81 1095.45 94.04
  Q 1099.91 99.72 1095.66 105.50
  A 1.33 1.30 10.0 0 1 1094.90 106.02
  Q 1090.63 107.13 1088.80 107.02
  Q 1078.42 106.37 1079.46 95.53
  Z"
/>
<ellipse fill="#ddb4fa" cx="0.00" cy="0.00" transform="translate(332.71,99.20) rotate(-124.4)" rx="9.42" ry="8.89"/>
<path fill="#ddb4fa" d="
  M 499.04 92.95
  C 502.85 96.69 500.88 102.94 497.49 106.04
  Q 495.54 107.81 492.25 107.85
  C 484.67 107.95 478.77 96.87 485.79 91.89
  Q 492.84 86.89 499.04 92.95
  Z"
/>
<path fill="#ddb4fa" d="
  M 607.28 106.04
  Q 604.84 103.95 604.01 99.57
  C 602.08 89.41 614.47 86.96 619.90 93.76
  C 626.47 101.97 616.80 110.18 608.46 106.77
  A 4.36 4.32 -13.0 0 1 607.28 106.04
  Z"
/>
<path fill="#ddb4fa" d="
  M 772.60 89.86
  Q 775.91 89.82 777.60 91.40
  C 786.94 100.15 777.65 113.47 766.54 105.41
  C 759.70 100.45 766.01 92.02 771.57 90.04
  A 3.05 3.03 -54.7 0 1 772.60 89.86
  Z"
/>
<rect fill="#ddb4fa" x="-8.75" y="-9.34" transform="translate(851.81,99.08) rotate(2.4)" width="17.50" height="18.68" rx="7.95"/>
<rect fill="#ddb4fa" x="-8.59" y="-8.89" transform="translate(891.32,98.86) rotate(12.5)" width="17.18" height="17.78" rx="7.83"/>
<path fill="#ddb4fa" d="
  M 1124.66 90.14
  Q 1129.84 89.01 1133.25 92.61
  C 1136.62 96.15 1136.48 102.16 1133.32 105.78
  C 1129.42 110.26 1123.65 108.16 1120.35 103.92
  Q 1114.90 96.90 1121.31 91.61
  Q 1122.53 90.60 1124.66 90.14
  Z"
/>
<path fill="#ddb4fa" d="
  M 365.97 92.61
  Q 368.91 90.17 370.56 90.11
  C 377.84 89.84 383.95 96.01 379.97 103.45
  Q 376.30 110.32 368.34 106.70
  Q 365.97 105.62 365.16 104.01
  A 3.94 3.92 26.4 0 1 364.84 103.07
  Q 363.94 98.49 365.42 93.43
  A 1.73 1.70 -11.8 0 1 365.97 92.61
  Z"
/>
<path fill="#ddb4fa" d="
  M 541.42 96.33
  Q 542.06 98.43 540.94 101.48
  C 539.36 105.78 536.00 108.97 531.20 108.19
  C 528.07 107.67 524.31 105.13 523.31 101.86
  C 522.32 98.61 524.02 94.40 526.33 92.22
  C 529.87 88.89 534.44 89.66 538.15 92.35
  Q 540.78 94.26 541.42 96.33
  Z"
/>
<path fill="#ddb4fa" d="
  M 645.04 93.17
  C 646.28 92.51 647.79 91.01 649.48 90.49
  Q 655.67 88.62 660.10 93.59
  A 2.46 2.35 19.4 0 1 660.67 94.71
  C 662.03 101.01 660.53 107.98 652.48 107.68
  Q 650.07 107.58 647.89 107.18
  A 3.82 3.82 0.0 0 1 645.13 105.04
  Q 642.59 99.60 644.48 93.83
  A 1.18 1.18 0.0 0 1 645.04 93.17
  Z"
/>
<path fill="#ddb4fa" d="
  M 699.53 105.36
  A 4.43 4.39 -89.8 0 1 698.53 106.36
  Q 695.89 108.29 691.37 108.09
  C 680.86 107.64 681.31 94.81 689.31 91.02
  C 698.96 86.42 704.84 97.90 699.53 105.36
  Z"
/>
<path fill="#ddb4fa" d="
  M 728.22 107.05
  Q 726.79 106.24 725.50 104.71
  C 721.58 100.03 723.88 95.20 728.13 91.82
  C 730.96 89.57 734.13 89.16 737.30 90.95
  C 740.47 92.74 741.77 95.67 741.31 99.25
  C 740.61 104.64 737.67 109.10 731.63 108.17
  Q 729.65 107.86 728.22 107.05
  Z"
/>
<path fill="#ddb4fa" d="
  M 961.29 100.25
  C 960.62 94.95 965.48 89.91 970.82 89.99
  C 975.55 90.07 978.29 93.51 978.86 98.06
  C 979.43 102.59 977.62 106.61 973.06 107.85
  C 967.91 109.25 961.95 105.55 961.29 100.25
  Z"
/>
<ellipse fill="#ddb4fa" cx="0.00" cy="0.00" transform="translate(1244.71,98.94) rotate(-125.9)" rx="9.03" ry="8.68"/>
<path fill="#ddb4fa" d="
  M 222.61 93.91
  A 3.71 3.71 0.0 0 1 223.84 96.53
  Q 223.93 98.92 223.63 101.46
  C 223.03 106.53 217.71 108.96 213.29 107.91
  Q 210.42 107.22 206.78 103.31
  A 2.10 2.02 19.0 0 1 206.26 102.29
  C 204.96 95.66 210.77 88.31 218.03 90.62
  C 219.82 91.19 221.02 92.48 222.61 93.91
  Z"
/>
<path fill="#ddb4fa" d="
  M 298.03 92.05
  C 302.34 94.97 304.17 100.84 300.12 104.78
  C 297.21 107.61 291.54 108.67 288.25 106.44
  C 284.98 104.21 283.88 98.56 285.43 94.81
  C 287.60 89.59 293.72 89.13 298.03 92.05
  Z"
/>
<path fill="#ddb4fa" d="
  M 404.35 94.40
  Q 405.61 92.10 408.69 91.00
  C 415.79 88.45 424.92 96.96 419.93 103.92
  Q 414.92 110.90 407.12 107.21
  C 402.33 104.92 402.16 98.41 404.35 94.40
  Z"
/>
<rect fill="#ddb4fa" x="-8.75" y="-8.63" transform="translate(930.51,98.99) rotate(12.8)" width="17.50" height="17.26" rx="7.75"/>
<path fill="#ddb4fa" d="
  M 1054.32 92.37
  C 1058.52 95.54 1060.08 101.54 1055.80 105.31
  C 1052.72 108.02 1046.96 108.82 1043.75 106.41
  C 1040.55 104.00 1039.73 98.25 1041.48 94.54
  C 1043.92 89.38 1050.12 89.21 1054.32 92.37
  Z"
/>
<circle fill="#ddb4fa" cx="1166.33" cy="99.26" r="8.91"/>
<path fill="#ddb4fa" d="
  M 1274.51 96.45
  A 2.39 2.34 -18.3 0 1 1274.93 95.64
  C 1276.73 93.28 1280.60 89.88 1283.77 90.21
  Q 1289.83 90.85 1292.06 95.99
  C 1295.66 104.31 1286.75 111.38 1279.17 106.46
  C 1276.22 104.56 1273.39 100.16 1274.51 96.45
  Z"
/>
<ellipse fill="#ddb4fa" cx="0.00" cy="0.00" transform="translate(1322.01,99.34) rotate(-139.9)" rx="9.11" ry="8.79"/>
<circle fill="#ddb4fa" cx="253.64" cy="99.41" r="8.80"/>
<ellipse fill="#ddb4fa" cx="0.00" cy="0.00" transform="translate(572.51,99.35) rotate(-151.5)" rx="9.10" ry="8.69"/>
<path fill="#ddb4fa" d="
  M 1199.12 105.42
  Q 1196.74 100.93 1197.48 95.82
  A 1.50 1.49 -16.8 0 1 1197.96 94.93
  Q 1201.82 91.53 1206.73 90.43
  A 2.15 2.08 49.8 0 1 1208.04 90.56
  C 1214.77 93.45 1217.72 102.50 1210.34 106.89
  Q 1205.23 109.93 1199.79 106.18
  A 2.15 2.10 4.3 0 1 1199.12 105.42
  Z"
/>
<path fill="#ddb4fa" d="
  M 1004.98 106.91
  Q 1000.76 104.27 1001.12 99.27
  C 1001.59 92.97 1009.21 87.99 1014.72 92.29
  C 1018.20 95.01 1020.57 98.70 1017.95 103.20
  Q 1016.46 105.77 1014.77 106.90
  A 2.24 2.23 -61.6 0 1 1013.54 107.27
  L 1006.24 107.27
  A 2.41 2.30 -27.8 0 1 1004.98 106.91
  Z"
/>
<path fill="#ddb4fa" d="
  M 180.41 92.25
  A 3.75 3.72 -14.0 0 1 181.44 92.86
  Q 183.57 94.62 184.36 98.38
  C 186.18 107.10 175.55 109.40 170.77 103.63
  C 164.98 96.67 173.18 89.45 180.41 92.25
  Z"
/>
<path fill="#ddb4fa" d="
  M 1367.48 97.17
  Q 1368.48 101.71 1364.54 104.98
  A 1.83 1.81 -68.3 0 1 1363.63 105.38
  L 1357.04 106.20
  A 1.89 1.86 -25.7 0 1 1355.49 105.67
  C 1351.21 101.36 1351.55 94.84 1357.38 92.32
  C 1360.89 90.80 1365.37 93.10 1367.11 96.19
  A 3.47 3.40 -66.2 0 1 1367.48 97.17
  Z"
/>
<circle fill="#ddb4fa" cx="140.36" cy="98.99" r="4.89"/>
<circle fill="#ddb4fa" cx="1396.35" cy="99.04" r="4.92"/>
<ellipse fill="#ddb4fa" cx="0.00" cy="0.00" transform="translate(102.79,98.36) rotate(-94.1)" rx="1.97" ry="1.73"/>
<circle fill="#ddb4fa" cx="1433.31" cy="98.35" r="1.89"/>
<ellipse fill="#ddb4fa" cx="0.00" cy="0.00" transform="translate(312.95,117.66) rotate(-128.0)" rx="9.50" ry="9.08"/>
<path fill="#ddb4fa" d="
  M 357.55 125.53
  C 354.03 127.72 348.16 126.37 345.24 123.30
  C 341.16 119.01 343.31 112.96 347.93 110.08
  C 352.56 107.20 358.94 107.94 360.99 113.48
  C 362.46 117.46 361.08 123.33 357.55 125.53
  Z"
/>
<ellipse fill="#ddb4fa" cx="0.00" cy="0.00" transform="translate(472.05,117.65) rotate(-56.9)" rx="9.29" ry="8.88"/>
<path fill="#ddb4fa" d="
  M 517.28 110.14
  C 521.17 112.70 523.10 116.75 521.04 121.11
  C 518.72 126.04 511.92 128.22 507.37 125.23
  C 502.82 122.24 502.11 115.13 505.71 111.05
  C 508.89 107.43 513.38 107.58 517.28 110.14
  Z"
/>
<ellipse fill="#ddb4fa" cx="0.00" cy="0.00" transform="translate(950.52,117.59) rotate(-37.5)" rx="9.32" ry="9.02"/>
<ellipse fill="#ddb4fa" cx="0.00" cy="0.00" transform="translate(1225.32,117.68) rotate(-72.5)" rx="9.34" ry="8.96"/>
<ellipse fill="#ddb4fa" cx="0.00" cy="0.00" transform="translate(1264.48,117.59) rotate(-24.2)" rx="9.45" ry="9.03"/>
<rect fill="#ddb4fa" x="-8.94" y="-9.28" transform="translate(195.94,118.09) rotate(40.2)" width="17.88" height="18.56" rx="8.21"/>
<ellipse fill="#ddb4fa" cx="0.00" cy="0.00" transform="translate(234.22,117.59) rotate(-168.7)" rx="9.30" ry="8.92"/>
<ellipse fill="#ddb4fa" cx="0.00" cy="0.00" transform="translate(273.51,117.72) rotate(-5.7)" rx="9.24" ry="9.06"/>
<ellipse fill="#ddb4fa" cx="0.00" cy="0.00" transform="translate(432.05,117.66) rotate(-38.2)" rx="9.11" ry="8.89"/>
<circle fill="#ddb4fa" cx="792.33" cy="117.71" r="9.12"/>
<circle fill="#ddb4fa" cx="831.94" cy="117.59" r="9.18"/>
<circle fill="#ddb4fa" cx="910.87" cy="117.61" r="9.06"/>
<ellipse fill="#ddb4fa" cx="0.00" cy="0.00" transform="translate(990.19,117.54) rotate(-166.9)" rx="9.23" ry="8.88"/>
<ellipse fill="#ddb4fa" cx="0.00" cy="0.00" transform="translate(552.21,117.78) rotate(-171.6)" rx="9.28" ry="8.87"/>
<ellipse fill="#ddb4fa" cx="0.00" cy="0.00" transform="translate(592.45,117.93) rotate(-16.5)" rx="9.23" ry="8.96"/>
<rect fill="#ddb4fa" x="-8.86" y="-8.89" transform="translate(632.45,117.81) rotate(-16.1)" width="17.72" height="17.78" rx="7.90"/>
<ellipse fill="#ddb4fa" cx="0.00" cy="0.00" transform="translate(672.29,117.69) rotate(-16.6)" rx="9.35" ry="8.99"/>
<ellipse fill="#ddb4fa" cx="0.00" cy="0.00" transform="translate(712.57,117.75) rotate(-30.7)" rx="9.29" ry="9.02"/>
<ellipse fill="#ddb4fa" cx="0.00" cy="0.00" transform="translate(752.58,117.71) rotate(-15.7)" rx="9.23" ry="8.95"/>
<circle fill="#ddb4fa" cx="871.53" cy="117.76" r="9.09"/>
<ellipse fill="#ddb4fa" cx="0.00" cy="0.00" transform="translate(1029.50,117.82) rotate(-18.1)" rx="9.23" ry="8.86"/>
<path fill="#ddb4fa" d="
  M 1098.78 118.33
  C 1098.38 112.99 1103.49 108.18 1108.83 108.53
  C 1113.56 108.85 1116.13 112.43 1116.47 117.00
  C 1116.81 121.57 1114.81 125.49 1110.18 126.51
  C 1104.96 127.65 1099.19 123.66 1098.78 118.33
  Z"
/>
<circle fill="#ddb4fa" cx="1186.14" cy="117.79" r="9.05"/>
<ellipse fill="#ddb4fa" cx="0.00" cy="0.00" transform="translate(1303.09,117.63) rotate(-152.6)" rx="9.32" ry="8.86"/>
<circle fill="#ddb4fa" cx="1341.05" cy="118.05" r="9.10"/>
<path fill="#ddb4fa" d="
  M 150.28 121.01
  A 0.75 0.72 -73.7 0 1 150.06 120.59
  C 149.17 115.26 151.76 110.15 157.31 109.03
  C 159.67 108.55 164.72 109.79 165.42 112.89
  C 167.36 121.39 163.56 125.43 154.89 125.36
  A 0.66 0.65 66.5 0 1 154.44 125.18
  L 150.28 121.01
  Z"
/>
<ellipse fill="#ddb4fa" cx="0.00" cy="0.00" transform="translate(392.23,117.81) rotate(-12.1)" rx="9.20" ry="8.85"/>
<rect fill="#ddb4fa" x="-8.67" y="-8.83" transform="translate(1068.66,117.80) rotate(-16.2)" width="17.34" height="17.66" rx="7.78"/>
<ellipse fill="#ddb4fa" cx="0.00" cy="0.00" transform="translate(1146.67,117.85) rotate(-2.0)" rx="9.24" ry="8.88"/>
<ellipse fill="#ddb4fa" cx="0.00" cy="0.00" transform="translate(1378.34,117.81) rotate(-74.5)" rx="8.54" ry="8.27"/>
<circle fill="#ddb4fa" cx="122.27" cy="116.88" r="5.39"/>
<circle fill="#ddb4fa" cx="1414.46" cy="117.52" r="5.15"/>
<circle fill="#ddb4fa" cx="84.11" cy="116.75" r="2.08"/>
<circle fill="#ddb4fa" cx="1452.11" cy="116.75" r="1.79"/>
<path fill="#ddb4fa" d="
  M 177.50 126.54
  C 182.52 127.07 186.47 129.77 186.52 135.27
  Q 186.53 137.12 185.73 138.16
  A 2.09 1.99 -82.9 0 1 184.99 138.77
  Q 182.08 140.19 176.60 143.32
  C 174.69 144.40 173.07 143.97 171.43 142.78
  C 164.15 137.48 169.23 125.69 177.50 126.54
  Z"
/>
<path fill="#ddb4fa" d="
  M 1368.23 132.54
  C 1370.03 134.82 1367.97 139.53 1366.57 141.74
  Q 1365.03 144.16 1361.54 144.63
  A 2.56 2.56 0.0 0 1 1359.83 144.27
  Q 1355.63 141.66 1352.84 139.90
  C 1349.55 137.82 1350.17 134.12 1351.88 131.17
  C 1354.57 126.50 1361.53 125.67 1365.42 129.52
  Q 1367.35 131.42 1368.23 132.54
  Z"
/>
<circle fill="#ddb4fa" cx="140.59" cy="135.44" r="8.00"/>
<ellipse fill="#ddb4fa" cx="0.00" cy="0.00" transform="translate(1395.88,135.65) rotate(-43.8)" rx="8.26" ry="7.87"/>
<circle fill="#ddb4fa" cx="103.32" cy="135.81" r="5.67"/>
<circle fill="#ddb4fa" cx="1432.96" cy="135.55" r="5.31"/>
<ellipse fill="#ddb4fa" cx="0.00" cy="0.00" transform="translate(65.68,135.89) rotate(-67.8)" rx="1.31" ry="1.02"/>
<circle fill="#ddb4fa" cx="1470.87" cy="135.87" r="1.20"/>
<path fill="#ddb4fa" d="
  M 154.91 162.09
  Q 153.19 161.65 151.87 158.94
  Q 148.34 151.71 152.71 146.61
  A 3.07 3.00 -86.8 0 1 153.30 146.07
  Q 158.30 142.43 163.76 145.43
  Q 166.07 146.70 167.12 149.55
  A 1.28 1.28 0.0 0 1 166.85 150.85
  Q 163.80 154.09 159.74 157.19
  C 157.97 158.55 157.42 159.77 156.09 161.66
  A 1.11 1.11 0.0 0 1 154.91 162.09
  Z"
/>
<ellipse fill="#ddb4fa" cx="0.00" cy="0.00" transform="translate(122.51,154.42) rotate(-104.0)" rx="9.19" ry="8.53"/>
<path fill="#ddb4fa" d="
  M 1369.93 152.21
  A 2.07 2.07 0.0 0 1 1369.79 149.29
  L 1370.49 148.53
  A 9.82 8.64 -47.6 0 1 1383.49 147.10
  L 1383.68 147.28
  A 9.82 8.64 -47.6 0 1 1383.44 160.35
  L 1382.75 161.12
  A 2.07 2.07 0.0 0 1 1379.82 161.25
  L 1369.93 152.21
  Z"
/>
<path fill="#ddb4fa" d="
  M 1405.63 151.27
  A 2.73 2.67 -19.8 0 1 1406.07 150.37
  C 1408.36 147.22 1413.47 143.94 1417.34 146.35
  C 1424.85 151.03 1422.83 162.07 1413.86 163.30
  Q 1412.70 163.46 1411.85 163.00
  C 1407.65 160.73 1404.28 156.12 1405.63 151.27
  Z"
/>
<circle fill="#ddb4fa" cx="84.18" cy="154.36" r="5.05"/>
<ellipse fill="#ddb4fa" cx="0.00" cy="0.00" transform="translate(1452.03,153.83) rotate(-127.4)" rx="4.39" ry="4.25"/>
<path fill="#ddb4fa" d="
  M 1404.71 172.48
  C 1404.34 177.46 1401.78 181.44 1396.35 181.65
  Q 1394.53 181.72 1393.47 180.95
  A 2.07 1.97 5.4 0 1 1392.86 180.24
  Q 1391.36 177.41 1388.11 172.09
  C 1386.99 170.24 1387.37 168.62 1388.50 166.97
  C 1393.52 159.63 1405.31 164.29 1404.71 172.48
  Z"
/>
<path fill="#ddb4fa" d="
  M 142.68 181.07
  A 1.10 1.09 10.8 0 1 141.97 181.55
  Q 135.71 182.72 133.27 178.05
  Q 128.34 168.60 137.45 164.40
  C 142.34 162.15 150.53 164.65 149.17 171.35
  A 0.40 0.40 0.0 0 1 149.11 171.49
  L 142.68 181.07
  Z"
/>
<path fill="#ddb4fa" d="
  M 97.10 178.63
  C 94.04 175.61 95.24 169.17 98.55 166.69
  Q 104.39 162.31 110.30 168.03
  C 112.90 170.53 112.28 174.41 109.95 177.09
  C 106.60 180.94 100.95 182.44 97.10 178.63
  Z"
/>
<path fill="#ddb4fa" d="
  M 1425.32 175.91
  Q 1424.53 174.98 1424.54 173.37
  Q 1424.54 171.80 1425.12 170.75
  Q 1428.05 165.49 1434.20 165.51
  A 2.64 2.60 57.7 0 1 1435.27 165.76
  C 1440.71 168.33 1442.82 175.85 1436.96 179.17
  C 1432.84 181.51 1428.15 179.25 1425.32 175.91
  Z"
/>
<circle fill="#ddb4fa" cx="64.69" cy="172.64" r="2.88"/>
<circle fill="#ddb4fa" cx="1471.38" cy="172.76" r="2.72"/>
<ellipse fill="#ddb4fa" cx="0.00" cy="0.00" transform="translate(122.60,191.13) rotate(-97.0)" rx="9.57" ry="9.14"/>
<rect fill="#ddb4fa" x="-8.72" y="-9.24" transform="translate(1413.70,191.00) rotate(22.3)" width="17.44" height="18.48" rx="8.02"/>
<ellipse fill="#ddb4fa" cx="0.00" cy="0.00" transform="translate(83.95,191.06) rotate(-120.3)" rx="6.09" ry="5.59"/>
<circle fill="#ddb4fa" cx="1451.90" cy="191.17" r="5.36"/>
<path fill="#ddb4fa" d="
  M 1490.11 190.86
  Q 1490.26 191.31 1490.09 191.78
  A 0.88 0.85 -50.0 0 1 1488.51 191.95
  Q 1488.14 191.24 1488.76 190.49
  A 0.84 0.76 57.6 0 1 1490.11 190.86
  Z"
/>
<ellipse fill="#ddb4fa" cx="0.00" cy="0.00" transform="translate(46.49,191.42) rotate(-53.3)" rx="0.84" ry="0.68"/>
<path fill="#ddb4fa" d="
  M 1440.09 214.05
  C 1438.30 217.47 1435.41 219.70 1431.53 219.13
  A 3.45 3.23 60.6 0 1 1430.55 218.82
  Q 1427.19 217.12 1425.28 214.00
  C 1423.47 211.03 1424.15 208.77 1425.70 205.81
  C 1427.51 202.39 1430.40 200.17 1434.28 200.74
  A 3.45 3.23 60.6 0 1 1435.25 201.04
  Q 1438.61 202.74 1440.52 205.86
  C 1442.33 208.83 1441.65 211.09 1440.09 214.05
  Z"
/>
<ellipse fill="#ddb4fa" cx="0.00" cy="0.00" transform="translate(103.73,210.05) rotate(-93.4)" rx="8.99" ry="8.34"/>
<circle fill="#ddb4fa" cx="64.76" cy="210.32" r="4.03"/>
<circle fill="#ddb4fa" cx="1471.58" cy="210.13" r="3.74"/>
<path fill="#ddb4fa" d="
  M 114.64 224.11
  Q 119.83 216.80 128.41 221.01
  C 133.03 223.29 132.88 229.40 130.66 233.23
  C 127.31 239.04 117.94 240.32 114.96 233.47
  Q 113.23 229.50 114.06 225.44
  A 3.53 3.45 69.2 0 1 114.64 224.11
  Z"
/>
<path fill="#ddb4fa" d="
  M 1407.86 236.04
  C 1403.51 232.73 1403.31 225.56 1407.20 221.72
  C 1410.65 218.32 1415.13 218.79 1418.86 221.63
  C 1422.58 224.47 1424.22 228.67 1421.85 232.89
  C 1419.17 237.66 1412.20 239.36 1407.86 236.04
  Z"
/>
<ellipse fill="#ddb4fa" cx="0.00" cy="0.00" transform="translate(84.17,228.74) rotate(-175.5)" rx="6.33" ry="6.20"/>
<circle fill="#ddb4fa" cx="1452.16" cy="228.92" r="5.74"/>
<ellipse fill="#ddb4fa" cx="0.00" cy="0.00" transform="translate(1490.31,228.73) rotate(-75.1)" rx="2.23" ry="1.92"/>
<circle fill="#ddb4fa" cx="45.50" cy="228.58" r="1.89"/>
<path fill="#ddb4fa" d="
  M 1440.63 244.12
  Q 1441.75 246.84 1440.84 249.99
  A 3.72 3.60 70.4 0 1 1440.40 250.96
  Q 1437.05 256.13 1430.46 255.54
  C 1427.48 255.27 1426.18 252.84 1425.20 250.44
  C 1424.21 248.04 1423.43 245.39 1425.37 243.11
  Q 1429.65 238.07 1435.67 239.40
  A 3.72 3.60 65.1 0 1 1436.66 239.79
  Q 1439.52 241.40 1440.63 244.12
  Z"
/>
<path fill="#ddb4fa" d="
  M 95.77 245.78
  C 97.01 241.00 101.68 237.49 106.49 239.86
  C 109.95 241.56 112.71 246.29 111.76 249.94
  C 110.82 253.59 106.11 256.37 102.26 256.17
  C 96.89 255.90 94.53 250.57 95.77 245.78
  Z"
/>
<ellipse fill="#ddb4fa" cx="0.00" cy="0.00" transform="translate(1471.56,247.42) rotate(-58.9)" rx="4.27" ry="4.05"/>
<circle fill="#ddb4fa" cx="64.93" cy="247.68" r="4.29"/>
<rect fill="#ddb4fa" x="-9.04" y="-9.03" transform="translate(122.77,266.21) rotate(-9.9)" width="18.08" height="18.06" rx="7.92"/>
<ellipse fill="#ddb4fa" cx="0.00" cy="0.00" transform="translate(1413.34,266.39) rotate(-40.7)" rx="9.42" ry="8.86"/>
<path fill="#ddb4fa" d="
  M 90.90 268.25
  Q 86.23 275.82 79.30 271.27
  Q 77.73 270.23 77.53 267.25
  Q 77.26 263.34 80.22 260.74
  C 84.40 257.08 89.55 260.47 91.16 264.79
  Q 91.87 266.69 90.90 268.25
  Z"
/>
<ellipse fill="#ddb4fa" cx="0.00" cy="0.00" transform="translate(1452.15,266.03) rotate(-35.0)" rx="5.99" ry="5.84"/>
<circle fill="#ddb4fa" cx="1490.51" cy="266.07" r="2.15"/>
<circle fill="#ddb4fa" cx="45.52" cy="266.21" r="1.96"/>
<ellipse fill="#ddb4fa" cx="0.00" cy="0.00" transform="translate(103.60,285.18) rotate(-114.2)" rx="9.30" ry="8.90"/>
<path fill="#ddb4fa" d="
  M 1439.35 278.91
  Q 1442.11 284.61 1439.97 289.40
  Q 1437.89 294.07 1432.43 293.92
  A 3.25 3.24 -33.8 0 1 1431.31 293.70
  C 1424.89 291.19 1420.80 283.59 1427.31 278.32
  Q 1429.23 276.76 1430.71 276.65
  Q 1433.53 276.44 1438.59 278.24
  A 1.34 1.32 -3.3 0 1 1439.35 278.91
  Z"
/>
<circle fill="#ddb4fa" cx="1471.66" cy="285.26" r="4.15"/>
<circle fill="#ddb4fa" cx="64.81" cy="285.30" r="4.08"/>
<path fill="#ddb4fa" d="
  M 130.41 309.57
  A 3.42 3.34 84.3 0 1 129.53 310.67
  Q 122.84 316.20 115.88 310.11
  C 112.13 306.81 113.81 301.14 116.84 298.11
  C 121.44 293.52 130.52 294.68 131.59 301.84
  Q 132.21 305.98 130.41 309.57
  Z"
/>
<ellipse fill="#ddb4fa" cx="0.00" cy="0.00" transform="translate(1413.40,304.16) rotate(-37.8)" rx="9.42" ry="8.88"/>
<ellipse fill="#ddb4fa" cx="0.00" cy="0.00" transform="translate(84.20,304.36) rotate(-117.5)" rx="6.32" ry="6.08"/>
<ellipse fill="#ddb4fa" cx="0.00" cy="0.00" transform="translate(1452.28,304.52) rotate(-122.1)" rx="5.93" ry="5.60"/>
<circle fill="#ddb4fa" cx="1490.43" cy="304.37" r="2.24"/>
<circle fill="#ddb4fa" cx="45.55" cy="304.37" r="2.03"/>
<path fill="#ddb4fa" d="
  M 99.21 315.44
  Q 102.96 313.01 107.47 314.91
  A 1.78 1.77 84.9 0 1 108.24 315.56
  Q 109.94 318.20 111.24 321.69
  Q 112.30 324.54 111.10 327.17
  Q 108.42 333.09 101.97 332.38
  Q 100.06 332.17 98.14 330.77
  Q 94.44 328.08 95.09 323.00
  Q 95.51 319.70 97.35 317.57
  Q 99.16 315.48 99.21 315.44
  Z"
/>
<ellipse fill="#ddb4fa" cx="0.00" cy="0.00" transform="translate(1432.82,323.27) rotate(-115.4)" rx="9.09" ry="8.27"/>
<circle fill="#ddb4fa" cx="64.62" cy="323.34" r="4.02"/>
<circle fill="#ddb4fa" cx="1471.50" cy="323.54" r="4.08"/>
<circle fill="#ddb4fa" cx="123.05" cy="342.35" r="8.91"/>
<ellipse fill="#ddb4fa" cx="0.00" cy="0.00" transform="translate(1413.33,342.27) rotate(-22.7)" rx="9.08" ry="8.61"/>
<ellipse fill="#ddb4fa" cx="0.00" cy="0.00" transform="translate(84.45,342.51) rotate(-15.6)" rx="7.03" ry="6.27"/>
<ellipse fill="#ddb4fa" cx="0.00" cy="0.00" transform="translate(1452.31,342.47) rotate(-31.0)" rx="6.31" ry="5.77"/>
<circle fill="#ddb4fa" cx="1490.45" cy="342.37" r="2.18"/>
<circle fill="#ddb4fa" cx="45.53" cy="342.36" r="2.08"/>
<ellipse fill="#ddb4fa" cx="0.00" cy="0.00" transform="translate(103.82,361.33) rotate(-92.6)" rx="9.10" ry="8.43"/>
<path fill="#ddb4fa" d="
  M 1428.65 353.02
  Q 1433.73 352.31 1434.89 352.69
  C 1441.09 354.67 1443.63 363.37 1438.73 368.03
  A 2.08 2.03 18.6 0 1 1437.58 368.58
  L 1430.02 369.52
  A 2.03 2.01 -27.1 0 1 1428.42 369.01
  C 1423.73 364.72 1421.69 358.95 1427.28 354.38
  Q 1427.75 354.00 1427.96 353.54
  A 0.92 0.90 -81.2 0 1 1428.65 353.02
  Z"
/>
<circle fill="#ddb4fa" cx="64.66" cy="361.81" r="4.75"/>
<ellipse fill="#ddb4fa" cx="0.00" cy="0.00" transform="translate(1471.68,361.49) rotate(-71.7)" rx="4.32" ry="4.07"/>
<rect fill="#ddb4fa" x="-8.79" y="-8.87" transform="translate(1413.37,380.26) rotate(8.3)" width="17.58" height="17.74" rx="7.97"/>
<ellipse fill="#ddb4fa" cx="0.00" cy="0.00" transform="translate(123.04,380.51) rotate(-34.0)" rx="8.94" ry="8.72"/>
<ellipse fill="#ddb4fa" cx="0.00" cy="0.00" transform="translate(84.26,380.20) rotate(-82.0)" rx="6.73" ry="6.51"/>
<ellipse fill="#ddb4fa" cx="0.00" cy="0.00" transform="translate(1452.33,380.57) rotate(-53.6)" rx="6.14" ry="5.76"/>
<circle fill="#ddb4fa" cx="45.57" cy="380.36" r="2.23"/>
<ellipse fill="#ddb4fa" cx="0.00" cy="0.00" transform="translate(1490.46,380.45) rotate(-81.7)" rx="2.53" ry="2.25"/>
<path fill="#ddb4fa" d="
  M 101.45 408.46
  C 98.30 407.69 95.68 404.26 95.03 401.30
  C 94.02 396.78 96.88 393.42 100.88 391.69
  Q 103.72 390.46 105.73 390.95
  Q 107.76 391.44 109.71 393.85
  C 112.47 397.23 113.44 401.53 110.47 405.08
  C 108.52 407.40 104.61 409.24 101.45 408.46
  Z"
/>
<path fill="#ddb4fa" d="
  M 1441.04 398.21
  C 1441.94 403.23 1439.08 408.53 1433.54 408.39
  C 1429.57 408.28 1424.94 405.05 1424.25 401.21
  C 1423.57 397.39 1426.78 392.75 1430.48 391.27
  C 1435.62 389.21 1440.14 393.19 1441.04 398.21
  Z"
/>
<circle fill="#ddb4fa" cx="64.74" cy="399.53" r="4.26"/>
<ellipse fill="#ddb4fa" cx="0.00" cy="0.00" transform="translate(1471.59,399.54) rotate(-78.9)" rx="4.23" ry="4.05"/>
<path fill="#ddb4fa" d="
  M 114.05 416.65
  C 115.07 411.33 121.33 407.97 126.45 409.72
  C 130.99 411.27 132.56 415.45 131.69 420.01
  C 130.83 424.56 127.83 427.88 123.04 427.65
  C 117.63 427.39 113.04 421.97 114.05 416.65
  Z"
/>
<rect fill="#ddb4fa" x="-8.77" y="-9.24" transform="translate(1413.46,418.53) rotate(5.3)" width="17.54" height="18.48" rx="7.74"/>
<ellipse fill="#ddb4fa" cx="0.00" cy="0.00" transform="translate(84.08,418.39) rotate(-147.9)" rx="6.38" ry="6.21"/>
<circle fill="#ddb4fa" cx="1452.40" cy="418.25" r="5.82"/>
<ellipse fill="#ddb4fa" cx="0.00" cy="0.00" transform="translate(1490.45,418.55) rotate(-73.0)" rx="2.48" ry="2.31"/>
<ellipse fill="#ddb4fa" cx="0.00" cy="0.00" transform="translate(45.49,418.49) rotate(-79.0)" rx="2.18" ry="2.00"/>
<path fill="#ddb4fa" d="
  M 107.02 429.15
  A 3.10 3.09 -4.1 0 1 109.26 431.09
  L 111.76 437.83
  A 2.22 2.15 40.4 0 1 111.87 438.97
  Q 110.44 447.35 102.32 446.82
  C 100.16 446.67 98.90 445.62 97.12 444.68
  A 1.93 1.93 0.0 0 1 96.17 443.52
  C 93.78 435.59 97.60 427.13 107.02 429.15
  Z"
/>
<path fill="#ddb4fa" d="
  M 1427.43 445.09
  Q 1425.30 442.41 1424.29 439.73
  C 1422.17 434.12 1429.32 428.06 1434.52 428.98
  Q 1437.58 429.53 1440.00 432.25
  A 1.92 1.88 -71.9 0 1 1440.45 433.16
  C 1441.31 437.69 1441.56 442.48 1437.81 445.59
  Q 1436.16 446.96 1434.00 446.84
  Q 1431.04 446.68 1428.15 445.61
  A 1.69 1.66 80.4 0 1 1427.43 445.09
  Z"
/>
<circle fill="#ddb4fa" cx="64.60" cy="437.68" r="4.54"/>
<circle fill="#ddb4fa" cx="1471.45" cy="437.70" r="4.13"/>
<ellipse fill="#ddb4fa" cx="0.00" cy="0.00" transform="translate(1413.51,456.62) rotate(-34.9)" rx="9.14" ry="8.69"/>
<ellipse fill="#ddb4fa" cx="0.00" cy="0.00" transform="translate(122.91,456.83) rotate(-160.0)" rx="9.04" ry="8.68"/>
<circle fill="#ddb4fa" cx="84.54" cy="456.91" r="6.91"/>
<ellipse fill="#ddb4fa" cx="0.00" cy="0.00" transform="translate(1452.22,456.70) rotate(-113.8)" rx="6.22" ry="5.90"/>
<ellipse fill="#ddb4fa" cx="0.00" cy="0.00" transform="translate(1490.45,456.54) rotate(-82.6)" rx="2.48" ry="2.23"/>
<ellipse fill="#ddb4fa" cx="0.00" cy="0.00" transform="translate(45.58,456.58) rotate(-82.4)" rx="2.34" ry="2.11"/>
<ellipse fill="#ddb4fa" cx="0.00" cy="0.00" transform="translate(103.99,475.30) rotate(-52.0)" rx="8.99" ry="8.55"/>
<circle fill="#ddb4fa" cx="1432.64" cy="475.39" r="8.45"/>
<ellipse fill="#ddb4fa" cx="0.00" cy="0.00" transform="translate(64.79,475.59) rotate(-79.3)" rx="4.68" ry="4.47"/>
<ellipse fill="#ddb4fa" cx="0.00" cy="0.00" transform="translate(1471.69,475.49) rotate(-116.0)" rx="4.40" ry="4.14"/>
<ellipse fill="#ddb4fa" cx="0.00" cy="0.00" transform="translate(123.01,494.34) rotate(-102.8)" rx="9.32" ry="9.06"/>
<ellipse fill="#ddb4fa" cx="0.00" cy="0.00" transform="translate(1413.25,494.56) rotate(-51.9)" rx="9.19" ry="9.03"/>
<ellipse fill="#ddb4fa" cx="0.00" cy="0.00" transform="translate(84.08,494.77) rotate(-25.0)" rx="6.71" ry="6.44"/>
<ellipse fill="#ddb4fa" cx="0.00" cy="0.00" transform="translate(1452.26,494.44) rotate(-139.3)" rx="6.04" ry="5.79"/>
<circle fill="#ddb4fa" cx="1490.49" cy="494.69" r="2.21"/>
<ellipse fill="#ddb4fa" cx="0.00" cy="0.00" transform="translate(45.53,494.68) rotate(-84.4)" rx="2.25" ry="1.99"/>
<ellipse fill="#ddb4fa" cx="0.00" cy="0.00" transform="translate(103.62,513.55) rotate(-98.4)" rx="9.02" ry="8.46"/>
<path fill="#ddb4fa" d="
  M 1431.55 504.93
  Q 1433.12 504.73 1435.00 505.19
  C 1440.73 506.58 1441.71 511.64 1440.34 516.71
  C 1439.43 520.07 1437.20 522.20 1433.71 522.63
  C 1430.22 523.05 1427.54 521.52 1425.85 518.47
  C 1423.30 513.89 1423.03 508.74 1428.26 506.01
  Q 1429.97 505.12 1431.55 504.93
  Z"
/>
<circle fill="#ddb4fa" cx="64.56" cy="513.83" r="4.52"/>
<circle fill="#ddb4fa" cx="1471.69" cy="513.91" r="4.12"/>
<ellipse fill="#ddb4fa" cx="0.00" cy="0.00" transform="translate(1413.35,532.70) rotate(-97.6)" rx="9.36" ry="8.94"/>
<ellipse fill="#ddb4fa" cx="0.00" cy="0.00" transform="translate(122.91,532.76) rotate(-47.4)" rx="9.34" ry="8.97"/>
<ellipse fill="#ddb4fa" cx="0.00" cy="0.00" transform="translate(84.12,532.73) rotate(-155.0)" rx="6.78" ry="6.42"/>
<ellipse fill="#ddb4fa" cx="0.00" cy="0.00" transform="translate(1452.38,532.81) rotate(-58.6)" rx="6.06" ry="5.83"/>
<ellipse fill="#ddb4fa" cx="0.00" cy="0.00" transform="translate(45.53,532.55) rotate(-78.9)" rx="2.23" ry="1.97"/>
<ellipse fill="#ddb4fa" cx="0.00" cy="0.00" transform="translate(1490.49,532.68) rotate(-76.1)" rx="2.33" ry="2.08"/>
<ellipse fill="#ddb4fa" cx="0.00" cy="0.00" transform="translate(103.70,552.09) rotate(-26.6)" rx="8.94" ry="8.46"/>
<ellipse fill="#ddb4fa" cx="0.00" cy="0.00" transform="translate(1432.65,551.65) rotate(-8.4)" rx="8.54" ry="8.09"/>
<ellipse fill="#ddb4fa" cx="0.00" cy="0.00" transform="translate(64.50,551.69) rotate(-145.0)" rx="4.61" ry="4.47"/>
<ellipse fill="#ddb4fa" cx="0.00" cy="0.00" transform="translate(1471.58,551.77) rotate(-57.5)" rx="4.29" ry="4.11"/>
<ellipse fill="#ddb4fa" cx="0.00" cy="0.00" transform="translate(122.98,570.34) rotate(-28.6)" rx="9.05" ry="8.89"/>
<ellipse fill="#ddb4fa" cx="0.00" cy="0.00" transform="translate(1413.49,570.39) rotate(-119.8)" rx="9.06" ry="8.88"/>
<ellipse fill="#ddb4fa" cx="0.00" cy="0.00" transform="translate(84.18,570.44) rotate(-144.4)" rx="6.98" ry="6.49"/>
<ellipse fill="#ddb4fa" cx="0.00" cy="0.00" transform="translate(1452.20,570.39) rotate(-80.0)" rx="6.07" ry="5.87"/>
<circle fill="#ddb4fa" cx="1490.47" cy="570.50" r="2.28"/>
<ellipse fill="#ddb4fa" cx="0.00" cy="0.00" transform="translate(45.59,570.44) rotate(-87.8)" rx="2.11" ry="1.98"/>
<path fill="#ddb4fa" d="
  M 1429.39 597.80
  Q 1427.91 597.18 1426.48 595.85
  C 1422.14 591.76 1423.81 586.82 1427.55 583.05
  C 1430.03 580.55 1433.05 579.79 1436.33 581.16
  C 1439.61 582.53 1441.20 585.22 1441.17 588.74
  C 1441.12 594.04 1438.78 598.71 1432.82 598.49
  Q 1430.87 598.42 1429.39 597.80
  Z"
/>
<path fill="#ddb4fa" d="
  M 103.78 580.48
  C 107.34 580.55 109.80 582.46 111.07 585.75
  C 112.97 590.70 112.51 595.90 106.89 597.89
  Q 105.05 598.54 103.44 598.51
  Q 101.84 598.48 100.02 597.76
  C 94.48 595.56 94.22 590.35 96.30 585.47
  C 97.69 582.23 100.23 580.41 103.78 580.48
  Z"
/>
<ellipse fill="#ddb4fa" cx="0.00" cy="0.00" transform="translate(64.65,589.33) rotate(-150.8)" rx="4.52" ry="4.37"/>
<circle fill="#ddb4fa" cx="1471.61" cy="589.40" r="3.97"/>
<rect fill="#ddb4fa" x="-8.69" y="-9.08" transform="translate(122.99,608.29) rotate(8.7)" width="17.38" height="18.16" rx="7.89"/>
<rect fill="#ddb4fa" x="-8.63" y="-9.09" transform="translate(1413.43,608.26) rotate(-5.6)" width="17.26" height="18.18" rx="7.88"/>
<ellipse fill="#ddb4fa" cx="0.00" cy="0.00" transform="translate(84.00,608.49) rotate(-19.7)" rx="6.37" ry="6.24"/>
<ellipse fill="#ddb4fa" cx="0.00" cy="0.00" transform="translate(1452.23,608.55) rotate(-130.7)" rx="6.02" ry="5.63"/>
<rect fill="#ddb4fa" x="-2.24" y="-2.43" transform="translate(1490.43,608.53) rotate(9.4)" width="4.48" height="4.86" rx="2.03"/>
<circle fill="#ddb4fa" cx="45.51" cy="608.54" r="1.99"/>
<path fill="#ddb4fa" d="
  M 103.67 618.15
  C 108.32 618.55 112.89 622.30 112.10 627.45
  C 111.27 632.81 107.47 637.01 101.70 636.29
  Q 95.70 635.55 95.52 629.76
  C 95.41 625.95 95.93 621.63 99.10 619.34
  A 2.02 1.94 19.6 0 1 99.81 619.02
  L 103.26 618.19
  A 1.58 1.21 -43.1 0 1 103.67 618.15
  Z"
/>
<path fill="#ddb4fa" d="
  M 1424.44 626.15
  C 1425.09 621.16 1430.71 617.70 1435.56 619.04
  C 1439.86 620.22 1441.54 624.02 1440.99 628.29
  C 1440.44 632.57 1437.84 635.80 1433.39 635.86
  C 1428.35 635.92 1423.80 631.14 1424.44 626.15
  Z"
/>
<circle fill="#ddb4fa" cx="64.63" cy="627.18" r="4.31"/>
<circle fill="#ddb4fa" cx="1471.43" cy="627.47" r="4.05"/>
<ellipse fill="#ddb4fa" cx="0.00" cy="0.00" transform="translate(123.08,646.33) rotate(-155.7)" rx="8.90" ry="8.68"/>
<ellipse fill="#ddb4fa" cx="0.00" cy="0.00" transform="translate(1413.25,646.43) rotate(-37.2)" rx="9.29" ry="8.72"/>
<ellipse fill="#ddb4fa" cx="0.00" cy="0.00" transform="translate(84.29,646.64) rotate(-18.3)" rx="7.17" ry="6.69"/>
<circle fill="#ddb4fa" cx="1452.25" cy="646.16" r="5.92"/>
<circle fill="#ddb4fa" cx="45.53" cy="646.36" r="2.16"/>
<circle fill="#ddb4fa" cx="1490.45" cy="646.38" r="2.18"/>
<ellipse fill="#ddb4fa" cx="0.00" cy="0.00" transform="translate(103.85,665.30) rotate(-89.1)" rx="8.98" ry="8.32"/>
<ellipse fill="#ddb4fa" cx="0.00" cy="0.00" transform="translate(1432.79,665.13) rotate(-115.8)" rx="8.93" ry="8.20"/>
<circle fill="#ddb4fa" cx="64.67" cy="665.52" r="4.73"/>
<circle fill="#ddb4fa" cx="1471.65" cy="664.99" r="4.15"/>
<rect fill="#ddb4fa" x="-8.66" y="-9.11" transform="translate(1413.50,683.93) rotate(20.8)" width="17.32" height="18.22" rx="7.93"/>
<rect fill="#ddb4fa" x="-8.85" y="-8.73" transform="translate(122.90,684.14) rotate(-12.2)" width="17.70" height="17.46" rx="7.94"/>
<ellipse fill="#ddb4fa" cx="0.00" cy="0.00" transform="translate(84.12,684.04) rotate(-33.8)" rx="6.68" ry="6.32"/>
<ellipse fill="#ddb4fa" cx="0.00" cy="0.00" transform="translate(1452.09,684.53) rotate(-27.0)" rx="6.23" ry="5.83"/>
<circle fill="#ddb4fa" cx="45.53" cy="684.14" r="2.11"/>
<ellipse fill="#ddb4fa" cx="0.00" cy="0.00" transform="translate(1490.45,684.26) rotate(-82.8)" rx="2.37" ry="2.10"/>
<path fill="#ddb4fa" d="
  M 105.37 711.61
  Q 103.83 711.94 101.92 711.66
  C 96.11 710.78 94.70 705.84 95.61 700.69
  C 96.22 697.28 98.24 694.96 101.67 694.23
  C 105.09 693.50 107.89 694.79 109.84 697.66
  C 112.77 701.99 113.49 707.08 108.54 710.24
  Q 106.92 711.28 105.37 711.61
  Z"
/>
<path fill="#ddb4fa" d="
  M 1433.34 695.04
  Q 1438.06 696.50 1440.83 700.77
  A 1.77 1.72 -61.4 0 1 1441.10 701.74
  C 1440.85 708.36 1436.58 714.15 1429.52 711.22
  C 1425.73 709.65 1423.78 706.24 1424.78 702.14
  C 1425.65 698.64 1429.23 696.25 1432.65 695.05
  A 1.11 1.07 43.3 0 1 1433.34 695.04
  Z"
/>
<circle fill="#ddb4fa" cx="1471.78" cy="703.24" r="4.03"/>
<ellipse fill="#ddb4fa" cx="0.00" cy="0.00" transform="translate(64.71,703.24) rotate(-148.3)" rx="4.32" ry="4.11"/>
<ellipse fill="#ddb4fa" cx="0.00" cy="0.00" transform="translate(123.02,722.17) rotate(-46.7)" rx="9.36" ry="8.95"/>
<path fill="#ddb4fa" d="
  M 1420.38 715.76
  C 1422.66 718.27 1422.91 722.79 1421.75 725.74
  C 1419.97 730.25 1415.52 731.49 1411.03 730.65
  Q 1407.84 730.04 1406.39 728.44
  Q 1404.92 726.82 1404.64 723.59
  C 1404.23 719.04 1405.91 714.74 1410.57 713.41
  C 1413.62 712.54 1418.09 713.23 1420.38 715.76
  Z"
/>
<ellipse fill="#ddb4fa" cx="0.00" cy="0.00" transform="translate(84.23,722.29) rotate(-161.4)" rx="6.60" ry="6.17"/>
<ellipse fill="#ddb4fa" cx="0.00" cy="0.00" transform="translate(1452.31,721.88) rotate(-164.8)" rx="5.82" ry="5.57"/>
<ellipse fill="#ddb4fa" cx="0.00" cy="0.00" transform="translate(1490.46,722.21) rotate(-64.8)" rx="2.46" ry="2.31"/>
<circle fill="#ddb4fa" cx="45.55" cy="722.19" r="2.05"/>
<ellipse fill="#ddb4fa" cx="0.00" cy="0.00" transform="translate(103.63,741.23) rotate(-103.9)" rx="9.20" ry="8.38"/>
<rect fill="#ddb4fa" x="-8.30" y="-8.94" transform="translate(1432.80,741.10) rotate(-32.4)" width="16.60" height="17.88" rx="7.66"/>
<ellipse fill="#ddb4fa" cx="0.00" cy="0.00" transform="translate(64.55,741.05) rotate(-30.7)" rx="4.29" ry="4.15"/>
<circle fill="#ddb4fa" cx="1471.50" cy="741.20" r="4.11"/>
<path fill="#ddb4fa" d="
  M 115.86 766.99
  A 2.41 2.36 -78.9 0 1 115.36 766.22
  C 114.18 763.47 113.11 758.40 114.97 755.79
  Q 118.52 750.78 124.14 751.37
  C 133.21 752.33 135.01 763.64 126.94 767.86
  C 123.82 769.50 118.56 769.80 115.86 766.99
  Z"
/>
<ellipse fill="#ddb4fa" cx="0.00" cy="0.00" transform="translate(1413.36,760.10) rotate(-28.3)" rx="9.22" ry="8.62"/>
<ellipse fill="#ddb4fa" cx="0.00" cy="0.00" transform="translate(84.36,760.51) rotate(-47.0)" rx="6.92" ry="6.58"/>
<ellipse fill="#ddb4fa" cx="0.00" cy="0.00" transform="translate(1452.19,760.07) rotate(-65.4)" rx="6.02" ry="5.86"/>
<circle fill="#ddb4fa" cx="45.51" cy="760.09" r="2.00"/>
<circle fill="#ddb4fa" cx="1490.49" cy="760.02" r="2.15"/>
<path fill="#ddb4fa" d="
  M 105.73 787.27
  Q 104.21 787.67 102.30 787.46
  C 96.50 786.84 94.88 781.99 95.57 776.84
  C 96.03 773.42 97.95 771.03 101.32 770.17
  C 104.69 769.30 107.53 770.46 109.58 773.23
  C 112.67 777.40 113.60 782.43 108.82 785.78
  Q 107.25 786.88 105.73 787.27
  Z"
/>
<path fill="#ddb4fa" d="
  M 1431.71 770.73
  A 2.14 2.10 46.2 0 1 1432.52 770.76
  C 1435.13 771.31 1439.37 773.13 1440.33 775.82
  Q 1442.16 780.97 1438.85 784.76
  C 1433.51 790.88 1424.34 786.41 1425.40 778.37
  C 1425.80 775.25 1428.27 771.26 1431.71 770.73
  Z"
/>
<circle fill="#ddb4fa" cx="1471.40" cy="778.76" r="4.05"/>
<circle fill="#ddb4fa" cx="64.80" cy="779.15" r="4.25"/>
<ellipse fill="#ddb4fa" cx="0.00" cy="0.00" transform="translate(122.93,797.64) rotate(-58.4)" rx="9.39" ry="9.08"/>
<ellipse fill="#ddb4fa" cx="0.00" cy="0.00" transform="translate(1413.54,797.53) rotate(-40.1)" rx="9.33" ry="8.76"/>
<circle fill="#ddb4fa" cx="84.17" cy="797.45" r="6.50"/>
<circle fill="#ddb4fa" cx="1452.07" cy="797.52" r="5.81"/>
<ellipse fill="#ddb4fa" cx="0.00" cy="0.00" transform="translate(45.54,797.71) rotate(-81.0)" rx="1.88" ry="1.69"/>
<circle fill="#ddb4fa" cx="1490.44" cy="797.74" r="1.98"/>
<rect fill="#ddb4fa" x="-8.20" y="-8.84" transform="translate(103.62,816.30) rotate(25.8)" width="16.40" height="17.68" rx="7.57"/>
<ellipse fill="#ddb4fa" cx="0.00" cy="0.00" transform="translate(1432.59,816.47) rotate(-95.2)" rx="8.51" ry="8.02"/>
<circle fill="#ddb4fa" cx="64.87" cy="816.73" r="3.80"/>
<circle fill="#ddb4fa" cx="1471.62" cy="816.57" r="3.54"/>
<rect fill="#ddb4fa" x="-8.92" y="-9.29" transform="translate(122.70,835.27) rotate(16.3)" width="17.84" height="18.58" rx="8.17"/>
<rect fill="#ddb4fa" x="-8.59" y="-9.14" transform="translate(1413.57,835.28) rotate(-8.1)" width="17.18" height="18.28" rx="7.87"/>
<circle fill="#ddb4fa" cx="84.23" cy="834.79" r="5.54"/>
<ellipse fill="#ddb4fa" cx="0.00" cy="0.00" transform="translate(1451.92,834.84) rotate(-135.6)" rx="5.33" ry="5.04"/>
<ellipse fill="#ddb4fa" cx="0.00" cy="0.00" transform="translate(1489.09,834.81) rotate(-78.7)" rx="1.30" ry="1.01"/>
<ellipse fill="#ddb4fa" cx="0.00" cy="0.00" transform="translate(46.57,834.68) rotate(-80.9)" rx="0.96" ry="0.80"/>
<path fill="#ddb4fa" d="
  M 147.93 858.98
  C 142.83 866.36 130.96 861.59 131.61 853.33
  C 132.01 848.31 134.61 844.31 140.09 844.13
  Q 141.93 844.07 142.99 844.85
  A 2.09 1.98 5.7 0 1 143.61 845.57
  Q 145.10 848.43 148.35 853.82
  C 149.47 855.69 149.08 857.32 147.93 858.98
  Z"
/>
<path fill="#ddb4fa" d="
  M 1393.90 844.62
  Q 1400.16 843.01 1402.95 847.58
  Q 1408.58 856.81 1399.63 861.68
  C 1394.83 864.29 1386.37 862.31 1387.30 855.44
  A 0.40 0.40 0.0 0 1 1387.35 855.29
  L 1393.21 845.15
  A 1.12 1.10 7.0 0 1 1393.90 844.62
  Z"
/>
<ellipse fill="#ddb4fa" cx="0.00" cy="0.00" transform="translate(104.02,853.11) rotate(-175.3)" rx="7.43" ry="7.06"/>
<path fill="#ddb4fa" d="
  M 1428.10 858.08
  Q 1427.34 857.16 1426.61 856.74
  A 1.12 1.11 -80.8 0 1 1426.08 856.00
  Q 1424.91 850.42 1429.77 847.79
  Q 1434.03 845.50 1437.72 848.24
  Q 1439.46 849.52 1440.00 851.22
  A 2.49 2.49 0.0 0 1 1440.09 852.32
  C 1439.43 856.97 1434.89 862.25 1429.73 859.31
  Q 1428.60 858.67 1428.10 858.08
  Z"
/>
<circle fill="#ddb4fa" cx="1471.32" cy="853.11" r="2.75"/>
<circle fill="#ddb4fa" cx="65.08" cy="853.15" r="2.62"/>
<path fill="#ddb4fa" d="
  M 1406.91 876.19
  Q 1404.62 872.10 1406.42 867.16
  A 2.39 2.36 77.6 0 1 1406.98 866.27
  C 1411.79 861.37 1421.15 861.22 1421.78 869.89
  Q 1422.20 875.59 1417.62 878.94
  A 3.06 3.01 18.9 0 1 1416.58 879.44
  Q 1411.73 880.73 1407.34 876.73
  A 2.32 2.13 8.9 0 1 1406.91 876.19
  Z"
/>
<ellipse fill="#ddb4fa" cx="0.00" cy="0.00" transform="translate(122.51,871.73) rotate(-141.5)" rx="8.40" ry="8.10"/>
<path fill="#ddb4fa" d="
  M 166.18 874.51
  A 1.80 1.80 0.0 0 1 166.20 877.06
  L 166.04 877.22
  A 10.39 8.68 -45.5 0 1 152.57 878.55
  L 152.38 878.37
  A 10.39 8.68 -45.5 0 1 153.48 864.87
  L 153.64 864.71
  A 1.80 1.80 0.0 0 1 156.18 864.69
  L 166.18 874.51
  Z"
/>
<path fill="#ddb4fa" d="
  M 1380.22 864.65
  A 1.67 1.67 0.0 0 1 1382.58 864.69
  L 1383.19 865.32
  A 10.37 8.84 46.0 0 1 1384.04 878.92
  L 1383.84 879.11
  A 10.37 8.84 46.0 0 1 1370.27 877.80
  L 1369.66 877.16
  A 1.67 1.67 0.0 0 1 1369.70 874.80
  L 1380.22 864.65
  Z"
/>
<circle fill="#ddb4fa" cx="1452.05" cy="871.13" r="3.90"/>
<circle fill="#ddb4fa" cx="84.29" cy="871.76" r="4.19"/>
<ellipse fill="#ddb4fa" cx="0.00" cy="0.00" transform="translate(140.56,889.96) rotate(-45.2)" rx="8.65" ry="8.16"/>
<path fill="#ddb4fa" d="
  M 1364.19 897.45
  C 1358.59 900.83 1352.70 898.10 1350.89 892.12
  C 1349.45 887.35 1352.92 886.07 1356.14 884.12
  C 1359.36 882.17 1362.11 879.69 1365.66 883.19
  C 1370.12 887.58 1369.79 894.06 1364.19 897.45
  Z"
/>
<path fill="#ddb4fa" d="
  M 169.79 894.93
  L 168.59 888.53
  A 0.81 0.78 44.0 0 1 168.58 888.25
  Q 169.03 884.25 173.46 882.01
  A 3.02 3.02 0.0 0 1 176.29 882.07
  Q 183.64 886.15 184.25 886.52
  Q 187.47 888.43 186.36 891.90
  Q 183.83 899.79 174.98 898.47
  Q 172.28 898.06 170.05 895.48
  A 1.12 1.09 20.5 0 1 169.79 894.93
  Z"
/>
<path fill="#ddb4fa" d="
  M 1403.64 891.48
  Q 1403.40 893.74 1401.31 895.66
  C 1396.49 900.08 1386.32 896.33 1387.98 889.09
  Q 1389.65 881.83 1397.12 882.16
  C 1401.72 882.38 1404.04 887.54 1403.64 891.48
  Z"
/>
<circle fill="#ddb4fa" cx="103.18" cy="890.25" r="4.80"/>
<ellipse fill="#ddb4fa" cx="0.00" cy="0.00" transform="translate(1432.97,890.32) rotate(-38.2)" rx="5.13" ry="4.90"/>
<ellipse fill="#ddb4fa" cx="0.00" cy="0.00" transform="translate(65.79,890.03) rotate(-68.0)" rx="1.07" ry="0.93"/>
<circle fill="#ddb4fa" cx="1470.91" cy="890.10" r="1.08"/>
<path fill="#ddb4fa" d="
  M 226.18 903.32
  Q 227.36 900.90 230.47 899.63
  C 237.62 896.68 247.38 904.96 242.60 912.32
  Q 237.80 919.72 229.64 916.31
  C 224.62 914.20 224.14 907.53 226.18 903.32
  Z"
/>
<path fill="#ddb4fa" d="
  M 283.80 907.73
  Q 282.17 912.81 279.22 915.44
  C 274.35 919.80 269.45 917.83 265.46 913.74
  A 2.11 2.09 -72.0 0 1 264.91 912.65
  C 263.59 904.71 267.26 898.46 275.86 899.27
  A 3.29 3.26 62.4 0 1 277.12 899.67
  Q 281.48 902.16 282.25 903.31
  Q 282.77 904.08 283.68 905.99
  A 2.35 2.32 41.4 0 1 283.80 907.73
  Z"
/>
<path fill="#ddb4fa" d="
  M 383.23 911.94
  A 3.08 3.08 0.0 0 1 382.85 910.46
  C 382.79 902.58 388.38 896.50 396.69 900.13
  Q 397.07 900.29 399.43 902.57
  C 402.25 905.27 402.64 907.89 400.76 911.53
  C 396.79 919.19 387.27 919.15 383.23 911.94
  Z"
/>
<path fill="#ddb4fa" d="
  M 466.28 900.72
  Q 472.80 896.80 479.06 902.47
  A 3.09 3.06 13.4 0 1 479.95 903.90
  Q 481.17 908.22 480.33 911.82
  A 3.62 3.61 -16.2 0 1 479.36 913.58
  Q 476.22 916.76 474.98 917.08
  Q 466.32 919.28 463.96 912.23
  C 462.47 907.80 461.81 903.40 466.28 900.72
  Z"
/>
<rect fill="#ddb4fa" x="-8.81" y="-8.81" transform="translate(632.64,908.19) rotate(15.3)" width="17.62" height="17.62" rx="7.44"/>
<ellipse fill="#ddb4fa" cx="0.00" cy="0.00" transform="translate(792.44,908.36) rotate(-22.0)" rx="9.26" ry="9.04"/>
<ellipse fill="#ddb4fa" cx="0.00" cy="0.00" transform="translate(950.67,908.19) rotate(-20.6)" rx="9.41" ry="9.02"/>
<path fill="#ddb4fa" d="
  M 1039.45 905.89
  Q 1040.10 908.15 1038.36 911.40
  C 1035.52 916.70 1030.26 919.88 1024.51 916.03
  A 2.96 2.92 87.3 0 1 1023.86 915.43
  L 1020.95 911.77
  A 1.11 1.09 23.3 0 1 1020.71 911.18
  Q 1020.12 903.27 1026.38 899.60
  A 3.77 3.68 -66.3 0 1 1027.42 899.18
  C 1032.36 898.03 1036.62 900.90 1039.08 905.03
  A 3.88 3.66 23.4 0 1 1039.45 905.89
  Z"
/>
<path fill="#ddb4fa" d="
  M 1137.97 911.95
  A 3.05 3.04 30.3 0 1 1137.58 910.50
  C 1137.50 902.70 1143.00 896.68 1151.23 900.25
  Q 1151.61 900.40 1153.95 902.64
  C 1156.74 905.30 1157.13 907.89 1155.28 911.49
  C 1151.39 919.07 1141.98 919.06 1137.97 911.95
  Z"
/>
<path fill="#ddb4fa" d="
  M 1178.15 914.82
  C 1176.41 910.77 1176.59 904.69 1179.92 901.63
  C 1183.32 898.50 1188.12 898.05 1191.82 901.05
  C 1195.12 903.73 1196.26 904.82 1196.02 909.04
  A 3.16 3.05 60.9 0 1 1195.71 910.21
  C 1192.69 916.58 1184.84 921.03 1178.71 915.60
  A 2.38 2.33 -81.3 0 1 1178.15 914.82
  Z"
/>
<ellipse fill="#ddb4fa" cx="0.00" cy="0.00" transform="translate(1225.39,908.18) rotate(-141.3)" rx="9.24" ry="8.94"/>
<rect fill="#ddb4fa" x="-8.64" y="-9.04" transform="translate(1341.15,908.11) rotate(27.1)" width="17.28" height="18.08" rx="7.94"/>
<path fill="#ddb4fa" d="
  M 205.84 908.67
  C 204.92 911.57 202.37 916.18 199.21 916.96
  Q 193.15 918.45 189.22 914.27
  C 182.88 907.51 189.00 897.61 198.01 899.72
  C 201.50 900.53 205.75 903.79 205.96 907.75
  A 2.44 2.40 -38.1 0 1 205.84 908.67
  Z"
/>
<path fill="#ddb4fa" d="
  M 345.52 902.72
  A 3.42 3.34 85.9 0 1 346.43 901.64
  Q 353.29 896.28 360.10 902.59
  C 363.76 905.99 361.93 911.63 358.80 914.58
  C 354.06 919.05 344.99 917.63 344.13 910.43
  Q 343.62 906.26 345.52 902.72
  Z"
/>
<path fill="#ddb4fa" d="
  M 424.53 902.66
  A 3.52 3.44 87.8 0 1 425.50 901.59
  Q 432.73 896.32 439.52 903.03
  C 443.17 906.66 441.08 912.39 437.77 915.31
  C 432.75 919.75 423.47 917.98 422.83 910.55
  Q 422.45 906.24 424.53 902.66
  Z"
/>
<ellipse fill="#ddb4fa" cx="0.00" cy="0.00" transform="translate(512.40,908.23) rotate(-19.9)" rx="9.47" ry="8.87"/>
<path fill="#ddb4fa" d="
  M 583.78 912.57
  C 582.15 904.84 586.42 897.76 595.30 899.67
  Q 595.71 899.75 598.48 901.51
  C 601.79 903.60 602.69 906.09 601.57 910.04
  C 599.21 918.35 589.85 920.21 584.45 913.94
  A 3.09 3.08 19.0 0 1 583.78 912.57
  Z"
/>
<path fill="#ddb4fa" d="
  M 681.43 911.00
  Q 680.97 913.60 678.38 915.65
  C 672.42 920.38 660.95 915.20 663.46 906.94
  Q 665.99 898.65 674.63 899.66
  C 679.95 900.29 682.22 906.46 681.43 911.00
  Z"
/>
<ellipse fill="#ddb4fa" cx="0.00" cy="0.00" transform="translate(832.08,908.46) rotate(-34.1)" rx="9.10" ry="8.98"/>
<rect fill="#ddb4fa" x="-8.97" y="-8.78" transform="translate(910.88,908.22) rotate(-9.9)" width="17.94" height="17.56" rx="7.96"/>
<path fill="#ddb4fa" d="
  M 999.73 907.58
  Q 999.94 910.37 997.83 913.01
  C 992.63 919.55 982.03 918.62 981.31 908.95
  C 980.59 899.28 990.93 896.78 997.05 902.48
  Q 999.52 904.78 999.73 907.58
  Z"
/>
<path fill="#ddb4fa" d="
  M 1100.57 902.81
  A 3.48 3.39 84.8 0 1 1101.47 901.70
  Q 1108.33 896.13 1115.37 902.39
  C 1119.15 905.78 1117.40 911.54 1114.28 914.59
  C 1109.56 919.22 1100.33 917.96 1099.31 910.67
  Q 1098.71 906.45 1100.57 902.81
  Z"
/>
<ellipse fill="#ddb4fa" cx="0.00" cy="0.00" transform="translate(1264.69,908.20) rotate(-30.3)" rx="9.18" ry="8.98"/>
<ellipse fill="#ddb4fa" cx="0.00" cy="0.00" transform="translate(1303.28,908.27) rotate(-24.5)" rx="9.50" ry="8.88"/>
<path fill="#ddb4fa" d="
  M 320.72 902.95
  C 322.66 905.67 322.39 910.13 320.91 912.89
  C 318.65 917.10 314.15 917.82 309.84 916.47
  Q 306.79 915.52 305.55 913.78
  Q 304.30 912.02 304.39 908.83
  C 304.51 904.32 306.65 900.29 311.37 899.52
  C 314.46 899.01 318.76 900.21 320.72 902.95
  Z"
/>
<ellipse fill="#ddb4fa" cx="0.00" cy="0.00" transform="translate(752.58,908.47) rotate(-30.8)" rx="9.19" ry="8.91"/>
<circle fill="#ddb4fa" cx="871.59" cy="908.49" r="8.88"/>
<path fill="#ddb4fa" d="
  M 1061.34 913.66
  A 3.72 3.72 0.0 0 1 1060.13 911.02
  Q 1060.06 908.63 1060.38 906.09
  C 1061.02 901.01 1066.37 898.62 1070.79 899.70
  Q 1073.66 900.42 1077.27 904.36
  A 2.10 2.03 19.4 0 1 1077.79 905.39
  C 1079.04 912.04 1073.16 919.36 1065.91 916.99
  C 1064.12 916.40 1062.92 915.10 1061.34 913.66
  Z"
/>
<ellipse fill="#ddb4fa" cx="0.00" cy="0.00" transform="translate(552.27,908.42) rotate(-17.8)" rx="9.14" ry="8.63"/>
<circle fill="#ddb4fa" cx="712.56" cy="908.69" r="9.07"/>
<path fill="#ddb4fa" d="
  M 1370.11 910.34
  C 1369.89 906.43 1372.16 901.07 1376.37 899.99
  A 3.46 3.33 -50.6 0 1 1377.30 899.88
  Q 1382.32 900.01 1385.27 904.31
  A 2.21 2.21 0.0 0 1 1385.62 905.23
  Q 1386.27 909.86 1385.36 911.63
  C 1381.84 918.56 1373.94 916.88 1370.38 911.18
  A 1.87 1.81 28.1 0 1 1370.11 910.34
  Z"
/>
<ellipse fill="#ddb4fa" cx="0.00" cy="0.00" transform="translate(158.56,908.34) rotate(-32.7)" rx="8.41" ry="8.09"/>
<ellipse fill="#ddb4fa" cx="0.00" cy="0.00" transform="translate(121.95,908.37) rotate(-59.2)" rx="5.30" ry="5.05"/>
<ellipse fill="#ddb4fa" cx="0.00" cy="0.00" transform="translate(1414.30,908.51) rotate(-138.0)" rx="5.19" ry="4.93"/>
<circle fill="#ddb4fa" cx="84.05" cy="908.70" r="1.45"/>
<ellipse fill="#ddb4fa" cx="0.00" cy="0.00" transform="translate(1452.24,908.80) rotate(-83.6)" rx="1.61" ry="1.38"/>
<ellipse fill="#ddb4fa" cx="0.00" cy="0.00" transform="translate(692.93,926.96) rotate(-93.3)" rx="9.37" ry="8.80"/>
<circle fill="#ddb4fa" cx="732.60" cy="926.78" r="9.09"/>
<ellipse fill="#ddb4fa" cx="0.00" cy="0.00" transform="translate(412.05,927.00) rotate(-116.2)" rx="9.25" ry="8.72"/>
<ellipse fill="#ddb4fa" cx="0.00" cy="0.00" transform="translate(214.82,926.70) rotate(-148.4)" rx="8.93" ry="8.43"/>
<path fill="#ddb4fa" d="
  M 286.39 932.54
  A 4.25 4.21 11.5 0 1 285.64 931.42
  Q 284.31 928.58 285.35 924.36
  C 287.73 914.56 299.72 917.38 301.80 925.61
  C 304.32 935.55 292.42 938.94 286.39 932.54
  Z"
/>
<path fill="#ddb4fa" d="
  M 456.44 919.06
  A 4.37 4.33 -11.8 0 1 457.61 919.82
  Q 460.02 921.97 460.76 926.38
  C 462.48 936.61 450.00 938.81 444.69 931.88
  C 438.27 923.50 448.15 915.47 456.44 919.06
  Z"
/>
<circle fill="#ddb4fa" cx="532.07" cy="926.64" r="8.67"/>
<path fill="#ddb4fa" d="
  M 580.31 921.91
  C 582.40 923.58 582.38 927.60 581.23 929.69
  C 579.32 933.14 576.04 936.40 571.84 935.26
  Q 565.86 933.63 564.07 927.63
  A 3.85 3.73 -53.1 0 1 563.92 926.44
  C 564.12 919.25 571.43 915.62 577.34 919.68
  Q 578.49 920.46 580.31 921.91
  Z"
/>
<path fill="#ddb4fa" d="
  M 646.16 921.10
  Q 646.94 920.59 648.17 919.32
  A 2.79 2.77 13.5 0 1 649.42 918.56
  Q 656.00 916.64 660.55 921.82
  A 1.70 1.63 22.6 0 1 660.96 922.76
  C 661.49 928.53 661.16 935.54 654.02 936.19
  Q 646.23 936.89 643.83 930.43
  A 3.72 3.65 -54.9 0 1 643.60 929.04
  Q 643.66 925.56 644.49 922.92
  Q 644.78 921.99 646.16 921.10
  Z"
/>
<path fill="#ddb4fa" d="
  M 858.30 921.51
  Q 861.69 925.14 859.96 930.00
  Q 857.21 937.75 848.74 936.17
  C 842.88 935.08 842.51 927.47 844.18 922.86
  Q 845.12 920.29 846.57 919.41
  C 849.72 917.51 855.47 917.52 857.94 921.06
  A 3.39 3.28 7.2 0 0 858.30 921.51
  Z"
/>
<ellipse fill="#ddb4fa" cx="0.00" cy="0.00" transform="translate(891.22,927.21) rotate(-84.1)" rx="9.27" ry="8.74"/>
<path fill="#ddb4fa" d="
  M 975.42 934.08
  A 3.35 3.27 -75.3 0 1 974.24 934.79
  Q 966.20 937.58 961.89 929.61
  C 959.58 925.30 963.06 920.66 966.88 918.93
  C 972.66 916.28 980.61 920.45 979.14 927.38
  Q 978.29 931.40 975.42 934.08
  Z"
/>
<path fill="#ddb4fa" d="
  M 1003.48 920.20
  C 1008.99 916.26 1014.79 918.33 1018.35 923.73
  C 1019.86 926.03 1019.60 929.71 1017.84 931.67
  C 1014.16 935.74 1007.21 937.08 1003.02 932.60
  C 1000.28 929.66 1000.82 924.48 1002.63 921.16
  A 2.89 2.76 -4.9 0 1 1003.48 920.20
  Z"
/>
<path fill="#ddb4fa" d="
  M 1042.91 933.55
  A 4.31 4.27 4.3 0 1 1042.01 932.52
  Q 1040.32 929.82 1040.83 925.44
  C 1041.99 915.27 1054.42 916.60 1057.55 924.62
  C 1061.34 934.32 1049.79 939.23 1042.91 933.55
  Z"
/>
<ellipse fill="#ddb4fa" cx="0.00" cy="0.00" transform="translate(1088.32,926.98) rotate(-143.6)" rx="9.23" ry="8.76"/>
<ellipse fill="#ddb4fa" cx="0.00" cy="0.00" transform="translate(1205.80,927.05) rotate(-121.0)" rx="9.32" ry="8.68"/>
<circle fill="#ddb4fa" cx="1321.88" cy="926.81" r="8.61"/>
<path fill="#ddb4fa" d="
  M 245.62 924.16
  Q 246.12 922.66 247.34 921.16
  C 251.04 916.59 256.03 917.88 260.01 921.28
  C 262.65 923.54 263.62 926.46 262.51 929.79
  C 261.40 933.12 258.87 934.88 255.40 935.10
  C 250.18 935.44 245.42 933.47 245.19 927.60
  Q 245.12 925.67 245.62 924.16
  Z"
/>
<ellipse fill="#ddb4fa" cx="0.00" cy="0.00" transform="translate(333.03,927.00) rotate(-142.9)" rx="9.25" ry="8.49"/>
<path fill="#ddb4fa" d="
  M 381.19 923.98
  C 382.34 927.03 380.96 931.16 378.87 933.38
  C 375.68 936.78 371.26 936.31 367.55 933.96
  Q 364.92 932.29 364.19 930.34
  Q 363.46 928.37 364.35 925.39
  C 365.60 921.18 368.63 917.92 373.27 918.39
  C 376.30 918.70 380.05 920.91 381.19 923.98
  Z"
/>
<path fill="#ddb4fa" d="
  M 804.75 933.63
  Q 804.12 933.00 803.74 931.86
  C 802.14 927.14 803.98 919.85 809.83 918.58
  Q 816.92 917.05 820.61 922.92
  A 2.81 2.80 24.6 0 1 820.98 923.91
  Q 821.65 928.01 819.24 931.77
  Q 815.55 937.49 808.80 935.78
  Q 806.23 935.13 804.75 933.63
  Z"
/>
<circle fill="#ddb4fa" cx="1127.28" cy="926.94" r="8.75"/>
<path fill="#ddb4fa" d="
  M 1161.71 934.84
  C 1157.29 931.75 1156.79 924.69 1160.47 920.74
  C 1163.73 917.24 1168.17 917.53 1171.97 920.18
  C 1175.75 922.82 1177.54 926.90 1175.38 931.16
  C 1172.94 935.97 1166.13 937.94 1161.71 934.84
  Z"
/>
<path fill="#ddb4fa" d="
  M 1292.47 922.77
  Q 1293.44 924.31 1293.09 926.19
  C 1292.31 930.38 1290.14 934.88 1285.12 935.15
  Q 1278.09 935.53 1274.97 928.21
  A 2.03 1.96 -51.9 0 1 1274.85 927.04
  Q 1276.17 920.12 1282.90 918.39
  Q 1286.79 917.39 1289.63 920.61
  C 1290.64 921.75 1291.61 921.39 1292.47 922.77
  Z"
/>
<path fill="#ddb4fa" d="
  M 500.24 922.46
  A 2.90 2.77 21.6 0 1 500.78 923.63
  C 501.55 927.35 500.58 932.48 497.09 934.52
  C 491.77 937.62 485.47 934.32 483.12 929.34
  C 481.98 926.95 482.80 923.33 484.92 921.56
  C 489.90 917.40 496.08 917.08 500.24 922.46
  Z"
/>
<path fill="#ddb4fa" d="
  M 605.08 932.16
  A 2.89 2.76 18.0 0 1 604.47 931.03
  C 603.46 927.38 604.10 922.21 607.44 919.96
  C 612.54 916.54 619.02 919.42 621.68 924.22
  C 622.96 926.53 622.38 930.18 620.38 932.08
  C 615.69 936.54 609.56 937.25 605.08 932.16
  Z"
/>
<path fill="#ddb4fa" d="
  M 781.41 923.33
  Q 782.53 924.89 781.49 928.27
  C 778.85 936.88 768.51 937.95 764.47 929.89
  A 2.65 2.60 32.8 0 1 764.20 928.69
  C 764.32 922.76 766.28 917.96 773.03 918.52
  Q 778.25 918.95 781.41 923.33
  Z"
/>
<path fill="#ddb4fa" d="
  M 921.84 923.89
  A 2.94 2.94 0.0 0 1 922.54 922.62
  C 927.66 917.10 935.52 916.53 938.92 924.49
  Q 939.09 924.85 939.24 927.98
  C 939.43 931.70 937.99 933.77 934.30 935.07
  C 926.53 937.81 919.93 931.55 921.84 923.89
  Z"
/>
<path fill="#ddb4fa" d="
  M 1251.99 921.41
  C 1254.00 924.97 1254.91 931.27 1250.92 933.91
  C 1243.19 939.05 1233.53 932.31 1236.26 923.22
  Q 1236.61 922.04 1237.42 921.43
  C 1241.42 918.41 1247.28 917.20 1251.32 920.60
  A 2.87 2.80 -85.3 0 1 1251.99 921.41
  Z"
/>
<path fill="#ddb4fa" d="
  M 181.82 920.57
  C 185.14 922.91 185.03 929.09 182.33 931.92
  Q 177.58 936.91 171.18 932.50
  C 168.37 930.58 168.34 926.87 170.10 924.01
  C 172.62 919.90 177.64 917.62 181.82 920.57
  Z"
/>
<ellipse fill="#ddb4fa" cx="0.00" cy="0.00" transform="translate(1359.93,927.04) rotate(-133.0)" rx="7.57" ry="7.25"/>
<circle fill="#ddb4fa" cx="140.34" cy="927.23" r="4.99"/>
<ellipse fill="#ddb4fa" cx="0.00" cy="0.00" transform="translate(1396.33,927.15) rotate(-22.7)" rx="4.89" ry="4.78"/>
<ellipse fill="#ddb4fa" cx="0.00" cy="0.00" transform="translate(102.84,927.50) rotate(-63.9)" rx="1.91" ry="1.70"/>
<ellipse fill="#ddb4fa" cx="0.00" cy="0.00" transform="translate(1433.45,927.51) rotate(-71.7)" rx="1.71" ry="1.45"/>
<ellipse fill="#ddb4fa" cx="0.00" cy="0.00" transform="translate(831.90,945.49) rotate(-146.2)" rx="6.99" ry="6.52"/>
<ellipse fill="#ddb4fa" cx="0.00" cy="0.00" transform="translate(234.19,945.52) rotate(-150.8)" rx="6.95" ry="6.39"/>
<path fill="#ddb4fa" d="
  M 306.27 947.68
  Q 305.70 946.75 305.93 945.54
  Q 306.78 941.13 311.17 939.55
  C 318.59 936.87 321.95 946.16 317.38 950.35
  C 313.85 953.60 308.62 951.53 306.27 947.68
  Z"
/>
<ellipse fill="#ddb4fa" cx="0.00" cy="0.00" transform="translate(672.43,945.41) rotate(-27.3)" rx="6.74" ry="6.42"/>
<ellipse fill="#ddb4fa" cx="0.00" cy="0.00" transform="translate(871.66,945.41) rotate(-152.5)" rx="6.83" ry="6.48"/>
<circle fill="#ddb4fa" cx="273.54" cy="945.95" r="6.69"/>
<ellipse fill="#ddb4fa" cx="0.00" cy="0.00" transform="translate(352.68,945.71) rotate(-26.7)" rx="7.30" ry="6.30"/>
<ellipse fill="#ddb4fa" cx="0.00" cy="0.00" transform="translate(431.54,945.48) rotate(-3.3)" rx="6.93" ry="6.21"/>
<path fill="#ddb4fa" d="
  M 464.63 945.82
  C 464.73 941.38 468.91 939.04 473.07 939.39
  C 475.97 939.64 478.55 941.57 478.45 944.52
  Q 478.23 951.26 472.30 952.01
  C 468.94 952.44 464.56 949.34 464.63 945.82
  Z"
/>
<ellipse fill="#ddb4fa" cx="0.00" cy="0.00" transform="translate(512.15,945.76) rotate(-21.0)" rx="7.23" ry="6.39"/>
<circle fill="#ddb4fa" cx="712.56" cy="945.86" r="6.66"/>
<ellipse fill="#ddb4fa" cx="0.00" cy="0.00" transform="translate(950.27,945.83) rotate(-27.3)" rx="6.92" ry="6.45"/>
<rect fill="#ddb4fa" x="983.47" y="939.38" width="13.22" height="12.50" rx="5.70"/>
<ellipse fill="#ddb4fa" cx="0.00" cy="0.00" transform="translate(1107.93,945.67) rotate(-23.5)" rx="7.04" ry="6.32"/>
<ellipse fill="#ddb4fa" cx="0.00" cy="0.00" transform="translate(1146.77,945.86) rotate(-38.6)" rx="6.86" ry="6.54"/>
<path fill="#ddb4fa" d="
  M 1231.62 945.26
  C 1231.86 949.80 1228.17 952.68 1223.84 951.72
  Q 1220.24 950.92 1218.19 947.65
  A 1.83 1.82 -62.6 0 1 1217.91 946.78
  Q 1217.89 946.41 1217.87 945.99
  Q 1217.85 945.57 1217.83 945.20
  A 1.83 1.82 56.6 0 1 1218.01 944.30
  Q 1219.70 940.83 1223.20 939.66
  C 1227.40 938.24 1231.38 940.71 1231.62 945.26
  Z"
/>
<ellipse fill="#ddb4fa" cx="0.00" cy="0.00" transform="translate(1264.18,945.60) rotate(-26.4)" rx="7.09" ry="6.27"/>
<ellipse fill="#ddb4fa" cx="0.00" cy="0.00" transform="translate(1303.14,945.58) rotate(-32.7)" rx="6.87" ry="6.23"/>
<ellipse fill="#ddb4fa" cx="0.00" cy="0.00" transform="translate(392.32,945.91) rotate(-17.7)" rx="6.62" ry="6.30"/>
<ellipse fill="#ddb4fa" cx="0.00" cy="0.00" transform="translate(552.27,945.65) rotate(-5.2)" rx="6.48" ry="6.12"/>
<ellipse fill="#ddb4fa" cx="0.00" cy="0.00" transform="translate(592.74,945.80) rotate(-163.1)" rx="6.72" ry="6.33"/>
<ellipse fill="#ddb4fa" cx="0.00" cy="0.00" transform="translate(632.46,945.84) rotate(-12.2)" rx="6.77" ry="6.34"/>
<ellipse fill="#ddb4fa" cx="0.00" cy="0.00" transform="translate(752.57,945.61) rotate(-155.5)" rx="6.91" ry="6.25"/>
<ellipse fill="#ddb4fa" cx="0.00" cy="0.00" transform="translate(792.30,945.71) rotate(-146.2)" rx="6.43" ry="6.23"/>
<ellipse fill="#ddb4fa" cx="0.00" cy="0.00" transform="translate(910.83,945.68) rotate(-167.8)" rx="6.88" ry="6.26"/>
<circle fill="#ddb4fa" cx="1029.77" cy="945.90" r="6.53"/>
<ellipse fill="#ddb4fa" cx="0.00" cy="0.00" transform="translate(1068.79,945.59) rotate(-9.5)" rx="6.46" ry="6.20"/>
<ellipse fill="#ddb4fa" cx="0.00" cy="0.00" transform="translate(1185.95,946.00) rotate(-27.1)" rx="6.71" ry="6.46"/>
<ellipse fill="#ddb4fa" cx="0.00" cy="0.00" transform="translate(195.57,945.71) rotate(-0.5)" rx="6.04" ry="5.78"/>
<ellipse fill="#ddb4fa" cx="0.00" cy="0.00" transform="translate(1341.03,945.84) rotate(-131.0)" rx="5.43" ry="5.24"/>
<circle fill="#ddb4fa" cx="1378.12" cy="945.91" r="3.96"/>
<circle fill="#ddb4fa" cx="158.48" cy="945.95" r="3.70"/>
<ellipse fill="#ddb4fa" cx="0.00" cy="0.00" transform="translate(121.87,945.99) rotate(-78.7)" rx="1.58" ry="1.42"/>
<circle fill="#ddb4fa" cx="1414.37" cy="946.01" r="1.56"/>
<ellipse fill="#ddb4fa" cx="0.00" cy="0.00" transform="translate(372.35,964.12) rotate(-5.8)" rx="4.32" ry="4.10"/>
<circle fill="#ddb4fa" cx="253.60" cy="964.31" r="4.09"/>
<ellipse fill="#ddb4fa" cx="0.00" cy="0.00" transform="translate(332.79,964.29) rotate(-55.5)" rx="4.08" ry="3.90"/>
<circle fill="#ddb4fa" cx="692.46" cy="964.43" r="4.24"/>
<circle fill="#ddb4fa" cx="930.38" cy="964.58" r="4.28"/>
<ellipse fill="#ddb4fa" cx="0.00" cy="0.00" transform="translate(1127.32,964.13) rotate(-1.5)" rx="4.22" ry="3.94"/>
<ellipse fill="#ddb4fa" cx="0.00" cy="0.00" transform="translate(1166.17,964.23) rotate(-17.2)" rx="4.18" ry="3.93"/>
<circle fill="#ddb4fa" cx="411.71" cy="964.30" r="3.83"/>
<ellipse fill="#ddb4fa" cx="0.00" cy="0.00" transform="translate(532.33,964.44) rotate(-8.9)" rx="4.43" ry="4.04"/>
<ellipse fill="#ddb4fa" cx="0.00" cy="0.00" transform="translate(652.08,964.51) rotate(-43.5)" rx="4.10" ry="3.93"/>
<circle fill="#ddb4fa" cx="732.46" cy="964.65" r="4.10"/>
<circle fill="#ddb4fa" cx="891.08" cy="964.68" r="4.07"/>
<ellipse fill="#ddb4fa" cx="0.00" cy="0.00" transform="translate(1010.03,964.47) rotate(-174.0)" rx="4.09" ry="3.89"/>
<ellipse fill="#ddb4fa" cx="0.00" cy="0.00" transform="translate(1049.15,964.32) rotate(-11.4)" rx="4.06" ry="3.96"/>
<ellipse fill="#ddb4fa" cx="0.00" cy="0.00" transform="translate(1088.42,964.39) rotate(-22.9)" rx="4.21" ry="3.90"/>
<ellipse fill="#ddb4fa" cx="0.00" cy="0.00" transform="translate(1205.80,964.38) rotate(-173.8)" rx="4.05" ry="3.76"/>
<ellipse fill="#ddb4fa" cx="0.00" cy="0.00" transform="translate(1244.82,964.55) rotate(-30.4)" rx="4.19" ry="3.94"/>
<ellipse fill="#ddb4fa" cx="0.00" cy="0.00" transform="translate(214.98,964.65) rotate(-8.6)" rx="3.96" ry="3.76"/>
<ellipse fill="#ddb4fa" cx="0.00" cy="0.00" transform="translate(293.25,964.36) rotate(-173.5)" rx="4.00" ry="3.78"/>
<circle fill="#ddb4fa" cx="492.08" cy="964.53" r="3.79"/>
<ellipse fill="#ddb4fa" cx="0.00" cy="0.00" transform="translate(572.41,964.70) rotate(-19.4)" rx="3.95" ry="3.81"/>
<ellipse fill="#ddb4fa" cx="0.00" cy="0.00" transform="translate(612.67,964.66) rotate(-18.8)" rx="4.13" ry="3.90"/>
<ellipse fill="#ddb4fa" cx="0.00" cy="0.00" transform="translate(812.14,964.74) rotate(-25.4)" rx="4.20" ry="3.97"/>
<circle fill="#ddb4fa" cx="851.58" cy="964.75" r="4.03"/>
<circle fill="#ddb4fa" cx="970.08" cy="964.69" r="4.02"/>
<ellipse fill="#ddb4fa" cx="0.00" cy="0.00" transform="translate(1283.62,964.44) rotate(-27.1)" rx="3.87" ry="3.73"/>
<ellipse fill="#ddb4fa" cx="0.00" cy="0.00" transform="translate(452.04,964.60) rotate(-3.7)" rx="3.97" ry="3.62"/>
<ellipse fill="#ddb4fa" cx="0.00" cy="0.00" transform="translate(772.63,964.74) rotate(-5.9)" rx="4.09" ry="3.81"/>
<circle fill="#ddb4fa" cx="177.02" cy="964.03" r="2.76"/>
<ellipse fill="#ddb4fa" cx="0.00" cy="0.00" transform="translate(1322.07,964.65) rotate(-41.4)" rx="3.55" ry="3.29"/>
<ellipse fill="#ddb4fa" cx="0.00" cy="0.00" transform="translate(1359.68,964.06) rotate(-83.2)" rx="2.39" ry="2.16"/>
<ellipse fill="#ddb4fa" cx="0.00" cy="0.00" transform="translate(140.76,963.82) rotate(-62.1)" rx="1.05" ry="0.89"/>
<circle fill="#ddb4fa" cx="1396.12" cy="963.76" r="0.96"/>
<ellipse fill="#ddb4fa" cx="0.00" cy="0.00" transform="translate(831.81,983.35) rotate(-77.1)" rx="2.17" ry="2.01"/>
<circle fill="#ddb4fa" cx="273.36" cy="983.51" r="1.93"/>
<circle fill="#ddb4fa" cx="312.97" cy="983.47" r="1.92"/>
<circle fill="#ddb4fa" cx="392.08" cy="983.41" r="1.85"/>
<circle fill="#ddb4fa" cx="431.61" cy="983.43" r="1.83"/>
<circle fill="#ddb4fa" cx="471.63" cy="983.43" r="1.81"/>
<ellipse fill="#ddb4fa" cx="0.00" cy="0.00" transform="translate(512.15,983.45) rotate(-63.9)" rx="1.97" ry="1.80"/>
<circle fill="#ddb4fa" cx="592.44" cy="983.50" r="1.93"/>
<circle fill="#ddb4fa" cx="632.40" cy="983.36" r="1.77"/>
<ellipse fill="#ddb4fa" cx="0.00" cy="0.00" transform="translate(672.36,983.46) rotate(-39.8)" rx="2.02" ry="1.83"/>
<circle fill="#ddb4fa" cx="792.28" cy="983.40" r="1.89"/>
<circle fill="#ddb4fa" cx="871.32" cy="983.31" r="1.84"/>
<circle fill="#ddb4fa" cx="910.55" cy="983.49" r="1.86"/>
<circle fill="#ddb4fa" cx="950.38" cy="983.39" r="1.88"/>
<ellipse fill="#ddb4fa" cx="0.00" cy="0.00" transform="translate(989.82,983.50) rotate(-73.8)" rx="1.97" ry="1.77"/>
<circle fill="#ddb4fa" cx="1029.68" cy="983.47" r="1.99"/>
<circle fill="#ddb4fa" cx="1107.83" cy="983.47" r="1.89"/>
<circle fill="#ddb4fa" cx="1225.20" cy="983.46" r="1.95"/>
<circle fill="#ddb4fa" cx="1264.30" cy="983.45" r="1.91"/>
<path fill="#ddb4fa" d="
  M 196.75 982.09
  A 1.00 0.92 -79.7 0 1 195.24 983.24
  Q 195.00 982.97 195.22 982.11
  A 0.59 0.59 0.0 0 1 195.61 981.69
  Q 196.47 981.43 196.75 982.09
  Z"
/>
<circle fill="#ddb4fa" cx="352.56" cy="983.55" r="1.83"/>
<circle fill="#ddb4fa" cx="552.30" cy="983.41" r="1.71"/>
<circle fill="#ddb4fa" cx="712.54" cy="983.45" r="1.68"/>
<ellipse fill="#ddb4fa" cx="0.00" cy="0.00" transform="translate(752.51,983.49) rotate(-50.9)" rx="1.81" ry="1.63"/>
<circle fill="#ddb4fa" cx="1068.67" cy="983.52" r="1.84"/>
<circle fill="#ddb4fa" cx="1146.63" cy="983.50" r="1.85"/>
<circle fill="#ddb4fa" cx="1186.17" cy="983.48" r="1.82"/>
<circle fill="#ddb4fa" cx="1302.74" cy="983.39" r="1.57"/>
<path fill="#ddb4fa" d="
  M 1342.04 982.62
  Q 1341.90 983.02 1341.57 983.23
  A 0.91 0.84 -19.3 0 1 1340.18 982.63
  Q 1340.14 982.09 1340.57 981.81
  Q 1341.09 981.47 1341.64 981.73
  Q 1342.25 982.01 1342.04 982.62
  Z"
/>
<circle fill="#ddb4fa" cx="234.12" cy="983.48" r="1.63"/>
</svg>
