<?xml version="1.0" encoding="UTF-8" standalone="no"?>
<!DOCTYPE svg PUBLIC "-//W3C//DTD SVG 1.1//EN" "http://www.w3.org/Graphics/SVG/1.1/DTD/svg11.dtd">
<svg xmlns="http://www.w3.org/2000/svg" version="1.1" viewBox="0.00 0.00 1024.00 1536.00">
<path fill="#bde896" d="
  M 258.61 174.61
  C 325.76 125.38 367.07 95.05 416.37 58.80
  C 444.79 37.90 479.02 26.29 514.20 26.88
  C 542.12 27.34 567.61 34.93 591.83 48.57
  Q 599.40 52.84 613.97 63.42
  Q 756.81 167.12 867.55 247.70
  C 878.24 255.48 889.07 265.46 897.46 276.13
  C 915.30 298.81 927.20 326.14 930.11 354.81
  Q 930.85 362.09 930.84 378.73
  Q 930.83 1027.81 930.84 1355.49
  Q 930.84 1375.43 921.97 1396.23
  C 903.60 1439.31 862.23 1467.53 815.26 1467.56
  Q 666.10 1467.66 228.76 1467.61
  Q 215.97 1467.61 208.01 1467.49
  Q 187.32 1467.19 167.52 1458.74
  C 133.87 1444.37 108.55 1415.39 98.27 1380.76
  Q 93.04 1363.13 93.04 1342.50
  Q 93.10 447.90 92.99 399.75
  C 92.97 388.20 92.53 370.03 94.05 357.46
  Q 98.79 318.12 121.80 285.29
  Q 126.66 278.36 136.33 267.58
  Q 139.99 263.51 148.91 255.79
  Q 154.36 251.08 162.47 245.18
  Q 206.80 212.92 251.68 179.70
  Q 252.01 179.45 258.61 174.61
  Z
  M 575.95 194.79
  A 64.07 64.07 0.0 0 0 511.88 130.72
  A 64.07 64.07 0.0 0 0 447.81 194.79
  A 64.07 64.07 0.0 0 0 511.88 258.86
  A 64.07 64.07 0.0 0 0 575.95 194.79
  Z"
/>
</svg>
