<?xml version="1.0" encoding="UTF-8" standalone="no"?>
<!DOCTYPE svg PUBLIC "-//W3C//DTD SVG 1.1//EN" "http://www.w3.org/Graphics/SVG/1.1/DTD/svg11.dtd">
<svg xmlns="http://www.w3.org/2000/svg" version="1.1" viewBox="0.00 0.00 1254.00 1254.00">
<path fill="#fca8bd" d="
  M 1193.19 484.62
  A 1.54 1.53 59.4 0 1 1192.69 486.60
  L 1177.39 496.88
  A 0.99 0.98 58.2 0 1 1175.97 496.54
  C 1173.50 492.07 1171.43 487.06 1168.67 481.75
  Q 1135.38 417.85 1130.06 407.70
  C 1121.43 391.23 1115.13 377.36 1106.67 363.26
  Q 1103.70 358.30 1098.62 356.15
  Q 1095.28 354.74 1087.78 354.74
  Q 658.82 354.69 192.75 354.73
  Q 171.40 354.73 161.19 354.91
  Q 154.81 355.03 150.18 358.75
  Q 147.50 360.91 144.70 366.36
  Q 109.60 434.82 95.51 462.12
  Q 88.60 475.50 86.43 479.42
  Q 80.35 490.40 77.65 496.75
  A 0.97 0.97 0.0 0 1 76.12 497.09
  C 72.03 493.42 68.16 491.36 61.36 487.34
  A 2.21 2.20 29.8 0 1 60.55 484.39
  Q 66.81 472.91 75.47 455.27
  C 82.16 441.65 88.14 430.38 94.55 418.08
  C 101.75 404.26 109.29 388.76 115.34 376.70
  Q 119.45 368.50 122.47 364.81
  Q 127.97 358.05 132.34 354.98
  Q 144.21 346.64 161.95 334.81
  Q 176.38 325.18 191.60 314.60
  Q 282.35 251.51 364.12 195.62
  Q 383.44 182.41 385.32 181.21
  C 392.25 176.74 397.79 172.64 407.06 166.32
  Q 535.65 78.67 560.25 62.00
  C 570.09 55.33 574.79 52.35 580.43 48.33
  C 603.77 31.70 635.45 29.51 661.30 40.60
  Q 667.80 43.39 681.72 52.90
  Q 777.23 118.16 897.57 201.01
  Q 904.76 205.96 916.62 214.33
  C 925.03 220.27 934.12 226.26 942.17 231.85
  Q 981.41 259.07 1074.50 323.66
  C 1083.13 329.64 1093.64 336.56 1103.20 343.30
  Q 1106.24 345.44 1113.77 350.20
  Q 1123.27 356.20 1130.64 364.86
  Q 1132.97 367.60 1137.20 375.96
  Q 1149.98 401.20 1162.85 426.06
  Q 1173.80 447.22 1193.19 484.62
  Z"
/>
<path fill="#fca8bd" d="
  M 1196.27 1143.20
  C 1191.67 1139.87 1187.00 1135.72 1182.45 1130.47
  C 1178.17 1125.53 1173.14 1122.32 1167.94 1117.44
  Q 1141.22 1092.28 1114.17 1068.57
  Q 1113.88 1068.32 1111.44 1066.07
  Q 1096.05 1051.86 1060.77 1019.89
  C 1050.35 1010.45 1042.08 1003.52 1033.25 994.97
  C 1031.21 992.99 1027.19 990.04 1024.72 987.67
  C 1016.96 980.25 1010.62 975.13 1003.36 968.25
  Q 1000.39 965.43 993.84 959.55
  C 981.94 948.84 959.59 929.12 943.13 914.10
  Q 930.88 902.93 922.88 896.31
  C 917.39 891.77 906.76 881.56 897.12 873.71
  C 894.74 871.77 889.26 866.46 885.18 863.18
  C 878.12 857.51 871.68 851.25 863.66 844.65
  Q 859.96 841.61 858.04 839.82
  C 852.56 834.72 846.74 830.37 841.39 825.23
  C 837.86 821.83 834.24 819.79 830.91 816.60
  C 827.23 813.07 824.66 810.29 821.07 807.94
  C 816.56 804.98 813.68 801.78 808.98 796.99
  A 7.32 7.00 -4.0 0 0 807.86 796.06
  Q 801.67 791.98 797.85 788.81
  Q 796.44 787.64 795.76 786.79
  A 1.68 1.67 51.5 0 1 796.03 784.41
  C 799.52 781.67 803.60 779.94 807.16 777.23
  Q 811.65 773.82 814.45 771.93
  Q 822.44 766.52 862.03 738.29
  Q 919.02 697.65 932.18 688.20
  Q 947.78 677.00 1005.90 635.66
  C 1018.92 626.39 1045.71 606.68 1066.05 592.49
  Q 1077.05 584.82 1079.40 583.07
  Q 1090.16 575.11 1092.57 573.41
  Q 1133.99 543.97 1163.99 522.48
  Q 1176.88 513.26 1176.93 513.21
  Q 1180.07 510.53 1186.36 506.69
  Q 1189.80 504.60 1195.72 499.98
  A 0.77 0.76 70.4 0 1 1196.95 500.57
  C 1197.25 514.61 1196.90 526.40 1196.93 542.28
  Q 1197.01 593.00 1196.96 1118.50
  C 1196.96 1123.46 1198.22 1128.61 1197.72 1133.75
  Q 1197.29 1138.09 1197.02 1142.85
  A 0.47 0.47 0.0 0 1 1196.27 1143.20
  Z"
/>
<path fill="#fca8bd" d="
  M 57.56 500.03
  Q 57.62 500.02 57.66 500.00
  A 0.25 0.16 -40.3 0 1 57.88 499.97
  L 459.22 784.39
  A 0.86 0.86 0.0 0 1 459.33 785.70
  C 454.49 790.59 449.71 793.48 444.90 798.11
  Q 440.23 802.61 433.58 807.69
  Q 429.13 811.09 426.42 813.85
  C 423.52 816.81 419.98 818.83 416.69 821.90
  C 410.84 827.35 404.89 831.95 399.59 836.87
  Q 396.21 840.02 384.29 850.04
  Q 363.15 867.81 308.04 917.04
  Q 247.13 971.46 210.30 1005.06
  Q 185.05 1028.10 169.79 1041.79
  Q 133.17 1074.61 88.19 1115.85
  C 79.91 1123.45 72.20 1129.63 65.86 1136.92
  A 2.65 2.28 -83.0 0 1 65.42 1137.32
  L 58.01 1142.80
  A 0.59 0.58 65.8 0 1 57.09 1142.45
  Q 56.56 1139.99 56.65 1135.75
  Q 56.99 1118.67 57.00 1106.25
  Q 57.01 1037.84 57.03 531.83
  C 57.03 520.88 56.65 510.39 57.30 500.28
  A 0.26 0.26 0.0 0 1 57.56 500.03
  Z"
/>
<path fill="#fca8bd" d="
  M 783.52 794.38
  Q 786.14 793.96 788.52 796.06
  Q 795.38 802.11 798.86 805.85
  A 11.82 11.49 85.1 0 0 800.80 807.53
  Q 807.76 812.29 814.32 819.31
  A 7.90 7.49 -1.5 0 0 815.30 820.19
  Q 821.29 824.73 824.47 827.77
  C 829.72 832.79 835.61 837.21 840.14 841.19
  Q 869.36 866.89 898.23 891.76
  Q 905.43 897.95 908.66 900.93
  Q 913.80 905.66 919.19 910.08
  Q 920.03 910.77 925.31 915.42
  Q 950.97 938.03 975.40 960.10
  Q 994.78 977.62 1067.12 1043.14
  Q 1106.14 1078.48 1148.92 1117.02
  C 1158.77 1125.90 1166.15 1133.30 1174.01 1139.81
  Q 1178.80 1143.78 1183.66 1149.11
  C 1191.67 1157.92 1198.45 1164.42 1196.69 1176.76
  Q 1193.71 1197.58 1177.03 1208.70
  Q 1167.34 1215.16 1155.75 1215.16
  Q 156.02 1215.23 97.25 1215.07
  C 94.81 1215.07 92.12 1214.80 89.80 1214.20
  Q 68.94 1208.81 60.41 1188.84
  Q 56.29 1179.19 57.25 1170.49
  C 57.89 1164.63 62.11 1157.42 67.17 1152.59
  Q 69.22 1150.62 73.60 1145.87
  C 76.77 1142.43 82.10 1138.44 84.74 1135.99
  C 102.00 1119.99 119.39 1104.82 136.68 1088.93
  Q 156.41 1070.78 176.99 1052.23
  Q 181.29 1048.36 181.58 1048.09
  Q 204.19 1027.90 224.88 1009.13
  Q 283.32 956.13 288.53 951.53
  C 305.66 936.42 320.96 922.40 339.89 905.88
  Q 380.10 870.79 419.78 836.33
  C 423.63 832.99 427.19 830.83 430.20 827.58
  C 433.78 823.71 439.04 820.26 442.46 817.35
  A 7.73 6.82 -3.6 0 0 443.37 816.44
  Q 448.57 810.31 455.79 805.88
  A 5.40 5.27 -82.6 0 0 456.78 805.10
  Q 462.05 799.91 466.41 796.11
  C 470.24 792.77 475.22 794.88 478.90 797.64
  C 486.01 802.97 494.52 807.95 500.67 812.75
  C 504.66 815.86 509.63 818.82 514.24 821.98
  Q 564.13 856.19 578.90 866.46
  Q 589.57 873.87 596.52 876.86
  C 623.56 888.49 654.60 885.58 678.55 868.04
  C 693.23 857.30 730.10 832.25 758.32 811.66
  Q 769.27 803.67 782.64 794.73
  A 2.38 2.21 -64.6 0 1 783.52 794.38
  Z"
/>
</svg>
