<?xml version="1.0" encoding="UTF-8" standalone="no"?>
<!DOCTYPE svg PUBLIC "-//W3C//DTD SVG 1.1//EN" "http://www.w3.org/Graphics/SVG/1.1/DTD/svg11.dtd">
<svg xmlns="http://www.w3.org/2000/svg" version="1.1" viewBox="0.00 0.00 1402.00 1122.00">
<path fill="#9960cf" d="
  M 1163.95 728.67
  Q 1160.33 760.32 1145.23 788.22
  Q 1117.41 839.62 1063.12 861.63
  C 1033.14 873.78 1000.44 876.87 968.87 872.29
  Q 927.07 866.23 892.43 840.54
  A 0.54 0.53 38.4 0 0 891.71 840.62
  C 842.35 896.21 764.95 920.08 692.38 907.23
  C 645.02 898.84 600.53 874.56 569.52 837.43
  A 1.07 1.07 0.0 0 0 568.05 837.25
  C 552.52 848.78 534.21 857.41 515.91 862.62
  C 445.20 882.77 368.24 861.86 322.56 802.96
  Q 308.19 784.43 299.79 761.39
  A 0.57 0.56 -12.9 0 0 299.19 761.02
  Q 215.88 771.33 149.84 724.66
  Q 118.77 702.69 97.37 668.38
  Q 71.52 626.93 70.16 577.24
  C 68.58 519.41 96.82 461.93 142.13 426.08
  A 1.43 1.42 -29.4 0 0 142.58 424.48
  C 135.47 404.91 131.89 381.47 133.89 361.13
  C 138.35 315.68 164.55 274.97 201.63 248.75
  Q 243.84 218.91 296.22 212.68
  Q 318.37 210.04 340.79 212.75
  A 0.52 0.51 9.4 0 0 341.35 212.35
  Q 352.33 163.12 386.56 125.49
  C 427.16 80.85 486.05 54.95 546.35 55.02
  C 599.78 55.09 650.77 74.85 690.60 110.90
  Q 697.38 117.04 701.75 122.18
  A 0.58 0.57 -43.4 0 0 702.60 122.20
  Q 707.12 117.39 712.49 112.76
  C 751.97 78.79 803.51 61.57 855.46 63.22
  Q 921.60 65.31 973.70 104.27
  Q 1009.06 130.72 1028.98 170.50
  Q 1033.03 178.58 1035.89 186.95
  A 1.06 1.05 75.1 0 0 1037.07 187.64
  C 1099.43 176.13 1163.62 195.29 1208.49 240.04
  Q 1229.44 260.94 1241.43 288.34
  Q 1256.08 321.81 1253.72 357.99
  Q 1252.46 377.29 1246.40 396.01
  A 0.68 0.67 24.9 0 0 1246.69 396.80
  Q 1250.33 399.01 1254.01 401.74
  C 1293.00 430.64 1319.88 473.88 1326.58 522.08
  C 1334.19 576.83 1315.13 631.86 1276.55 671.55
  Q 1236.88 712.36 1180.96 725.47
  Q 1172.71 727.41 1164.50 728.13
  A 0.60 0.60 0.0 0 0 1163.95 728.67
  Z
  M 1207.67 413.56
  Q 1203.74 408.74 1205.84 403.98
  Q 1213.19 387.26 1215.99 373.74
  C 1220.84 350.33 1219.00 325.96 1209.24 304.08
  Q 1199.63 282.51 1184.44 266.79
  Q 1158.85 240.32 1121.58 227.63
  C 1095.13 218.62 1066.00 217.39 1038.47 222.43
  Q 1027.42 224.46 1024.83 225.22
  C 1017.97 227.24 1012.23 226.17 1010.54 218.50
  C 1005.51 195.66 993.28 173.75 977.91 156.54
  Q 952.58 128.17 917.38 112.89
  Q 876.29 95.05 831.73 99.32
  C 791.18 103.20 751.76 121.75 723.26 150.99
  Q 715.00 159.46 710.21 165.65
  Q 707.67 168.93 706.05 169.56
  C 701.65 171.28 696.30 170.36 693.56 166.72
  Q 673.70 140.33 646.69 121.61
  Q 641.32 117.88 626.43 109.85
  Q 619.17 105.94 610.28 102.77
  Q 596.85 97.99 593.53 97.16
  Q 540.75 83.94 490.56 99.94
  C 427.00 120.21 380.48 172.14 370.17 238.47
  Q 369.26 244.33 367.77 246.14
  Q 364.48 250.14 358.97 249.22
  Q 336.87 245.54 317.01 246.07
  Q 276.62 247.16 240.83 265.77
  C 203.85 284.99 175.60 318.48 169.26 360.31
  C 167.33 373.07 168.44 387.29 171.51 399.96
  Q 175.22 415.26 181.23 427.23
  Q 183.88 432.52 183.76 435.22
  C 183.47 441.55 177.74 444.15 171.02 448.79
  C 121.08 483.26 94.96 546.16 109.04 605.54
  C 123.21 665.32 173.22 711.32 232.95 724.31
  Q 271.70 732.73 312.32 724.19
  Q 317.90 723.02 319.87 723.62
  C 325.87 725.47 327.07 729.22 328.40 735.94
  Q 329.57 741.89 330.45 744.28
  Q 348.47 793.08 393.71 818.31
  C 417.12 831.37 444.94 836.64 471.45 835.13
  Q 524.88 832.09 562.50 796.43
  Q 567.12 792.05 569.40 791.38
  Q 575.71 789.52 580.76 794.44
  A 4.29 4.16 -85.3 0 1 581.36 795.17
  C 583.79 798.77 585.99 802.53 588.85 806.19
  Q 623.70 850.82 676.90 867.70
  C 695.78 873.69 716.32 876.26 736.14 875.83
  C 788.27 874.71 837.65 851.26 871.02 811.25
  Q 874.27 807.35 880.48 798.99
  A 5.46 5.38 -1.9 0 1 881.43 797.99
  Q 886.44 793.80 892.94 795.90
  Q 895.43 796.70 899.89 801.22
  Q 906.30 807.71 916.12 814.65
  C 948.50 837.57 989.13 844.66 1027.67 836.36
  Q 1060.29 829.33 1086.21 806.98
  C 1115.94 781.35 1131.27 746.72 1132.46 706.97
  C 1132.59 702.62 1133.36 699.86 1136.72 697.54
  Q 1138.50 696.31 1144.53 695.89
  Q 1166.87 694.33 1185.56 688.06
  C 1252.32 665.68 1300.62 601.63 1291.73 529.45
  C 1285.88 481.96 1256.19 442.30 1215.26 418.24
  Q 1210.69 415.56 1208.42 414.21
  A 2.82 2.63 -2.0 0 1 1207.67 413.56
  Z"
/>
<path fill="#9960cf" d="
  M 386.8543 918.2328
  A 66.95 65.94 -2.9 0 1 323.3261 987.4756
  A 66.95 65.94 -2.9 0 1 253.1257 925.0072
  A 66.95 65.94 -2.9 0 1 316.6539 855.7644
  A 66.95 65.94 -2.9 0 1 386.8543 918.2328
  Z
  M 280.7493 919.5363
  A 39.35 38.67 -176.6 0 0 317.7366 960.4719
  A 39.35 38.67 -176.6 0 0 359.3107 924.2037
  A 39.35 38.67 -176.6 0 0 322.3234 883.2681
  A 39.35 38.67 -176.6 0 0 280.7493 919.5363
  Z"
/>
<path fill="#9960cf" d="
  M 285.9694 1026.1360
  A 42.79 42.25 -0.3 0 1 243.4012 1068.6094
  A 42.79 42.25 -0.3 0 1 200.3906 1026.5840
  A 42.79 42.25 -0.3 0 1 242.9588 984.1106
  A 42.79 42.25 -0.3 0 1 285.9694 1026.1360
  Z
  M 264.26 1026.41
  A 21.15 21.15 0.0 0 0 243.11 1005.26
  A 21.15 21.15 0.0 0 0 221.96 1026.41
  A 21.15 21.15 0.0 0 0 243.11 1047.56
  A 21.15 21.15 0.0 0 0 264.26 1026.41
  Z"
/>
</svg>
