<?xml version="1.0" encoding="UTF-8" standalone="no"?>
<!DOCTYPE svg PUBLIC "-//W3C//DTD SVG 1.1//EN" "http://www.w3.org/Graphics/SVG/1.1/DTD/svg11.dtd">
<svg xmlns="http://www.w3.org/2000/svg" version="1.1" viewBox="0.00 0.00 1254.00 1254.00">
<path fill="#d8b0fc" d="
  M 594.37 53.45
  Q 584.22 54.16 568.70 55.59
  C 557.32 56.64 552.12 41.97 561.13 35.26
  Q 563.31 33.62 570.24 32.94
  C 579.82 32.00 587.33 31.15 592.78 30.77
  C 598.23 30.38 605.79 30.18 615.41 29.77
  Q 622.36 29.47 624.75 30.78
  C 634.61 36.17 631.51 51.42 620.10 51.98
  Q 604.53 52.73 594.37 53.45
  Z"
/>
<path fill="#d8b0fc" d="
  M 655.21 46.53
  Q 654.65 45.20 654.80 41.25
  C 655.10 33.54 662.91 30.48 669.59 31.17
  Q 678.79 32.12 684.57 32.55
  Q 693.83 33.23 699.53 34.07
  Q 716.08 36.52 721.81 37.92
  Q 725.76 38.88 727.75 43.34
  C 731.00 50.63 725.67 60.07 717.08 59.16
  C 710.90 58.50 699.90 56.51 692.60 55.91
  C 684.16 55.22 674.08 53.70 664.23 53.34
  A 5.32 4.92 -32.5 0 1 662.84 53.09
  Q 657.19 51.20 655.21 46.53
  Z"
/>
<path fill="#d8b0fc" d="
  M 459.69 62.03
  C 462.06 55.85 466.38 53.45 473.13 51.96
  Q 475.97 51.33 485.38 48.60
  Q 490.66 47.06 497.69 45.61
  Q 507.72 43.54 521.67 40.38
  C 523.74 39.91 526.64 41.03 528.33 42.53
  Q 534.68 48.18 531.44 56.39
  Q 529.50 61.30 524.23 62.45
  Q 499.63 67.82 477.25 74.07
  Q 470.00 76.09 467.76 75.46
  C 462.66 74.05 457.58 67.54 459.69 62.03
  Z"
/>
<path fill="#d8b0fc" d="
  M 785.06 75.71
  Q 775.35 72.81 760.38 68.70
  C 749.41 65.68 749.71 50.19 760.46 47.09
  Q 763.07 46.33 769.76 48.13
  C 779.02 50.62 786.32 52.46 791.54 54.01
  C 796.75 55.57 803.86 58.03 812.97 61.02
  Q 819.56 63.19 821.32 65.25
  C 828.62 73.73 820.38 86.85 809.55 83.37
  Q 794.78 78.61 785.06 75.71
  Z"
/>
<path fill="#d8b0fc" d="
  M 435.90 73.69
  Q 440.66 81.70 432.60 88.35
  A 4.74 4.41 -76.1 0 1 431.79 88.88
  C 424.21 92.56 417.07 95.19 409.82 98.43
  Q 386.44 108.89 385.76 109.25
  Q 381.14 111.68 378.31 111.47
  C 373.46 111.12 368.41 108.61 367.71 103.23
  Q 366.93 97.26 370.16 93.04
  Q 371.94 90.71 379.20 87.61
  C 389.61 83.18 398.94 78.19 409.59 74.37
  Q 413.18 73.09 422.40 68.94
  Q 426.09 67.29 430.16 68.58
  Q 433.49 69.65 435.90 73.69
  Z"
/>
<path fill="#d8b0fc" d="
  M 884.71 91.27
  C 889.63 93.71 896.26 97.37 904.80 101.90
  Q 910.96 105.18 912.36 107.53
  C 918.15 117.20 907.72 128.82 897.56 123.50
  Q 883.72 116.24 874.57 111.70
  Q 865.42 107.15 851.27 100.51
  C 840.89 95.63 843.85 80.29 855.05 79.07
  Q 857.77 78.76 864.10 81.69
  C 872.87 85.75 879.80 88.83 884.71 91.27
  Z"
/>
<path fill="#d8b0fc" d="
  M 344.74 113.79
  C 349.36 117.98 349.28 128.17 343.55 131.53
  C 336.97 135.39 333.98 136.82 328.32 140.74
  Q 322.58 144.72 315.77 148.69
  C 309.93 152.10 305.40 156.08 299.20 159.70
  C 288.46 165.97 277.58 153.85 284.89 143.35
  Q 285.91 141.88 290.36 138.94
  Q 300.43 132.29 306.98 127.27
  C 310.34 124.69 313.31 123.33 317.57 121.00
  Q 320.49 119.40 324.94 116.38
  Q 330.77 112.44 332.35 111.89
  Q 339.77 109.28 344.74 113.79
  Z"
/>
<path fill="#d8b0fc" d="
  M 957.33 161.99
  Q 949.14 156.07 936.41 147.29
  C 927.08 140.85 932.46 126.37 943.58 126.99
  Q 946.29 127.13 951.99 131.02
  C 959.89 136.40 966.15 140.53 970.55 143.71
  C 974.94 146.88 980.82 151.53 988.41 157.34
  Q 993.89 161.54 994.88 164.06
  C 998.96 174.43 986.89 184.08 977.85 177.24
  Q 965.52 167.91 957.33 161.99
  Z"
/>
<path fill="#d8b0fc" d="
  M 244.44 204.50
  C 236.94 211.40 230.36 217.83 224.37 223.33
  Q 221.74 225.75 216.73 225.20
  C 209.25 224.38 204.48 215.23 208.47 208.43
  Q 209.07 207.42 212.83 204.00
  C 216.10 201.02 219.45 196.14 222.10 194.10
  Q 226.82 190.45 229.36 188.12
  Q 231.90 185.78 235.92 181.38
  C 238.18 178.91 243.32 175.97 246.56 172.96
  Q 250.28 169.50 251.33 168.98
  C 258.44 165.57 267.16 171.08 267.36 178.61
  Q 267.49 183.64 264.87 186.06
  C 258.89 191.58 251.93 197.60 244.44 204.50
  Z"
/>
<path fill="#d8b0fc" d="
  M 1037.52 232.88
  C 1033.80 229.39 1031.10 225.09 1027.20 221.74
  C 1024.21 219.18 1021.07 216.74 1018.86 213.89
  Q 1015.87 210.02 1010.63 205.13
  C 1009.12 203.72 1008.60 200.32 1009.05 198.28
  Q 1011.50 187.27 1022.69 188.09
  A 5.83 5.80 68.5 0 1 1026.23 189.64
  Q 1034.44 197.26 1051.31 214.26
  Q 1053.70 216.68 1057.37 221.02
  Q 1059.98 224.11 1063.62 227.59
  C 1069.62 233.31 1069.20 242.70 1061.35 246.54
  Q 1056.88 248.73 1052.29 246.40
  C 1049.27 244.86 1047.36 242.02 1045.50 240.30
  Q 1037.81 233.16 1037.52 232.88
  Z"
/>
<path fill="#d8b0fc" d="
  M 144.16 284.07
  Q 153.21 271.17 155.50 268.01
  Q 160.64 260.94 175.53 243.04
  Q 178.82 239.08 181.07 238.20
  C 187.93 235.52 196.20 240.37 196.23 248.07
  C 196.25 252.58 195.20 254.62 191.67 258.41
  C 185.63 264.89 180.64 272.64 176.22 277.95
  Q 170.11 285.30 162.53 295.55
  C 155.24 305.43 139.76 295.78 143.72 284.91
  A 3.42 3.35 -17.9 0 1 144.16 284.07
  Z"
/>
<path fill="#d8b0fc" d="
  M 1096.66 267.56
  Q 1102.40 274.90 1104.34 277.67
  Q 1108.83 284.13 1114.36 291.70
  C 1118.23 297.00 1122.09 304.76 1124.95 308.95
  C 1130.41 316.94 1122.72 326.40 1113.89 325.34
  C 1109.47 324.81 1107.23 322.69 1105.15 318.37
  Q 1103.99 315.96 1100.76 311.76
  Q 1098.94 309.38 1096.35 305.22
  Q 1089.23 293.73 1077.77 279.03
  C 1071.13 270.53 1080.37 257.47 1090.84 262.04
  Q 1093.12 263.04 1096.66 267.56
  Z"
/>
<path fill="#d8b0fc" d="
  M 124.84 354.99
  Q 120.04 363.79 113.00 377.41
  C 107.84 387.39 92.92 383.93 92.14 372.90
  Q 91.94 370.23 95.05 364.13
  C 99.35 355.69 102.62 349.01 105.19 344.29
  C 107.77 339.57 111.60 333.20 116.36 325.01
  Q 119.81 319.09 122.16 317.81
  C 131.85 312.49 142.85 323.14 137.26 332.90
  Q 129.63 346.20 124.84 354.99
  Z"
/>
<path fill="#d8b0fc" d="
  M 1140.99 382.33
  Q 1136.68 373.32 1129.78 359.67
  C 1124.73 349.66 1136.24 339.63 1145.62 345.44
  Q 1147.89 346.84 1151.01 352.92
  C 1155.32 361.33 1158.80 367.87 1161.11 372.71
  C 1163.43 377.55 1166.34 384.37 1170.18 393.00
  Q 1172.95 399.24 1172.61 401.90
  C 1171.25 412.83 1156.21 415.50 1151.59 405.28
  Q 1145.30 391.35 1140.99 382.33
  Z"
/>
<path fill="#d8b0fc" d="
  M 85.02 442.37
  C 83.43 446.88 81.08 451.89 79.85 456.32
  C 79.08 459.09 77.82 466.04 75.82 468.68
  C 72.96 472.44 68.88 474.31 64.05 473.25
  C 57.54 471.83 54.03 466.14 55.99 459.50
  Q 59.42 447.87 63.97 434.95
  Q 68.52 422.03 73.14 410.83
  C 75.77 404.42 82.08 402.19 88.04 405.16
  C 92.47 407.36 94.47 411.38 94.34 416.10
  C 94.25 419.41 90.87 425.61 89.74 428.25
  C 87.92 432.48 86.61 437.86 85.02 442.37
  Z"
/>
<path fill="#d8b0fc" d="
  M 1181.23 433.40
  C 1184.78 433.78 1186.55 435.49 1188.33 438.51
  A 4.65 4.59 -66.9 0 1 1188.87 439.88
  C 1190.43 447.10 1194.41 454.52 1196.31 461.74
  Q 1201.34 480.92 1203.41 490.07
  C 1204.95 496.82 1200.98 502.98 1193.74 503.23
  Q 1186.25 503.50 1183.05 497.83
  C 1181.59 495.25 1180.94 489.28 1179.99 486.27
  Q 1175.93 473.42 1174.06 465.98
  Q 1172.98 461.67 1171.17 457.48
  C 1168.79 451.99 1166.01 445.62 1168.40 440.27
  C 1170.55 435.44 1176.01 432.86 1181.23 433.40
  Z"
/>
<path fill="#d8b0fc" d="
  M 60.41 534.53
  Q 58.72 544.36 56.45 559.45
  C 54.79 570.52 39.62 572.04 35.34 561.91
  Q 34.30 559.45 35.27 552.70
  C 36.62 543.37 37.56 536.03 38.47 530.75
  C 39.38 525.47 40.95 518.24 42.80 508.99
  Q 44.15 502.31 45.95 500.34
  C 53.38 492.23 67.17 498.74 65.03 509.72
  Q 62.11 524.70 60.41 534.53
  Z"
/>
<path fill="#d8b0fc" d="
  M 1212.34 532.41
  Q 1213.67 534.52 1213.90 536.87
  Q 1214.66 544.87 1216.52 556.77
  C 1218.04 566.54 1218.73 575.89 1219.38 583.75
  C 1219.67 587.27 1219.58 591.11 1217.68 593.96
  C 1214.29 599.03 1208.70 600.90 1203.24 597.83
  Q 1197.60 594.66 1197.38 588.27
  Q 1196.65 567.50 1192.16 546.34
  A 12.30 12.16 -51.2 0 1 1191.90 543.83
  Q 1191.89 542.47 1191.68 539.98
  C 1190.67 528.35 1205.74 521.97 1212.34 532.41
  Z"
/>
<path fill="#d8b0fc" d="
  M 53.20 629.30
  Q 53.29 639.28 53.77 654.55
  C 54.11 665.74 39.45 669.95 33.42 660.74
  Q 31.95 658.51 31.70 651.69
  C 31.36 642.26 30.97 634.86 30.92 629.50
  C 30.87 624.15 31.12 616.75 31.30 607.31
  Q 31.42 600.49 32.85 598.23
  C 38.71 588.91 53.44 592.85 53.31 604.05
  Q 53.11 619.32 53.20 629.30
  Z"
/>
<path fill="#d8b0fc" d="
  M 1197.80 659.44
  Q 1198.42 649.58 1199.04 634.48
  C 1199.49 623.40 1214.27 620.29 1219.56 629.81
  Q 1220.85 632.12 1220.62 638.87
  C 1220.29 648.20 1220.14 655.53 1219.81 660.82
  C 1219.48 666.12 1218.71 673.41 1217.87 682.71
  Q 1217.25 689.43 1215.69 691.56
  C 1209.24 700.35 1194.97 695.41 1195.90 684.36
  Q 1197.18 669.30 1197.80 659.44
  Z"
/>
<path fill="#d8b0fc" d="
  M 46.43 755.59
  A 3.40 3.33 -66.0 0 1 46.10 754.71
  Q 42.57 739.44 41.75 735.64
  Q 39.93 727.14 36.58 704.23
  Q 35.84 699.16 36.68 696.91
  C 39.25 690.06 48.34 687.16 54.06 692.25
  C 57.41 695.23 58.22 697.37 58.68 702.50
  C 59.46 711.27 61.88 720.11 62.87 726.91
  Q 64.25 736.32 66.80 748.74
  C 69.27 760.70 51.85 765.74 46.43 755.59
  Z"
/>
<path fill="#d8b0fc" d="
  M 1191.91 789.71
  C 1184.73 792.38 1176.58 787.93 1177.78 779.50
  Q 1178.74 772.71 1182.05 760.84
  Q 1184.24 753.00 1185.77 744.90
  Q 1187.98 733.12 1189.67 727.36
  Q 1190.97 722.96 1196.42 720.92
  C 1202.20 718.76 1208.94 721.83 1210.58 727.87
  Q 1211.08 729.73 1210.22 734.19
  Q 1205.03 761.16 1198.96 782.49
  Q 1197.50 787.64 1191.91 789.71
  Z"
/>
<path fill="#d8b0fc" d="
  M 59.54 803.32
  C 59.06 800.81 57.48 797.40 57.57 794.50
  Q 57.71 790.33 60.92 787.37
  C 65.68 782.97 72.63 782.94 77.16 787.86
  Q 78.70 789.53 79.88 794.15
  Q 81.20 799.31 81.90 800.84
  Q 86.84 811.59 89.65 821.37
  C 91.19 826.77 92.74 829.69 95.64 836.11
  C 96.83 838.74 97.14 842.93 96.12 845.91
  Q 93.54 853.47 84.52 852.90
  C 78.95 852.54 76.79 849.68 74.93 844.09
  Q 73.05 838.42 69.08 830.67
  C 67.45 827.48 65.84 820.11 64.19 816.02
  C 62.52 811.88 60.28 807.19 59.54 803.32
  Z"
/>
<path fill="#d8b0fc" d="
  M 1154.51 843.07
  Q 1158.32 833.91 1163.85 819.76
  C 1167.91 809.39 1182.96 811.27 1184.88 822.05
  Q 1185.35 824.67 1182.92 831.00
  C 1179.55 839.76 1177.01 846.67 1174.96 851.59
  C 1172.91 856.51 1169.79 863.18 1165.95 871.74
  Q 1163.17 877.92 1160.98 879.43
  C 1151.98 885.66 1140.05 876.30 1144.55 866.12
  Q 1150.69 852.23 1154.51 843.07
  Z"
/>
<rect fill="#d8b0fc" x="-11.06" y="-36.03" transform="translate(118.27,906.52) rotate(-29.9)" width="22.12" height="72.06" rx="10.77"/>
<path fill="#d8b0fc" d="
  M 1110.85 927.47
  Q 1116.12 919.10 1123.89 906.12
  C 1129.60 896.60 1144.08 900.93 1144.17 911.84
  Q 1144.20 914.49 1140.77 920.31
  C 1136.01 928.36 1132.37 934.73 1129.54 939.23
  C 1126.72 943.72 1122.55 949.76 1117.35 957.54
  Q 1113.59 963.16 1111.20 964.28
  C 1101.32 968.91 1091.14 957.74 1097.25 948.47
  Q 1105.59 935.84 1110.85 927.47
  Z"
/>
<path fill="#d8b0fc" d="
  M 147.15 970.21
  C 142.92 959.49 158.07 949.47 165.59 959.11
  Q 173.40 969.12 179.68 976.27
  C 184.22 981.44 189.40 989.02 195.58 995.31
  C 199.20 998.98 200.29 1000.99 200.39 1005.48
  C 200.57 1013.14 192.47 1018.19 185.57 1015.70
  Q 183.31 1014.89 179.92 1011.04
  Q 164.63 993.61 159.32 986.71
  Q 156.96 983.63 147.61 971.03
  A 3.40 3.34 16.4 0 1 147.15 970.21
  Z"
/>
<path fill="#d8b0fc" d="
  M 1048.33 1007.61
  C 1052.32 1002.30 1058.32 997.93 1062.73 992.24
  Q 1065.78 988.32 1068.31 985.36
  C 1072.27 980.74 1078.56 978.09 1084.04 981.72
  C 1088.10 984.40 1090.37 988.94 1089.08 993.72
  Q 1088.50 995.90 1085.61 999.23
  Q 1083.30 1001.89 1065.42 1022.51
  Q 1062.89 1025.42 1059.03 1028.95
  Q 1055.77 1031.92 1052.84 1035.58
  C 1048.22 1041.37 1038.43 1039.51 1035.21 1033.45
  C 1032.60 1028.53 1033.58 1023.25 1037.68 1019.44
  Q 1043.51 1014.02 1048.33 1007.61
  Z"
/>
<path fill="#d8b0fc" d="
  M 222.70 1054.16
  Q 217.46 1048.82 213.45 1045.26
  C 210.54 1042.68 210.97 1037.06 212.50 1033.81
  C 215.22 1028.07 224.49 1025.27 229.40 1029.86
  C 232.74 1032.98 235.16 1035.42 239.82 1039.13
  Q 246.07 1044.10 250.34 1048.48
  Q 251.01 1049.16 257.73 1054.14
  Q 265.10 1059.59 269.89 1065.21
  C 274.82 1070.99 271.41 1079.24 264.91 1081.89
  Q 259.65 1084.03 254.96 1080.53
  C 251.15 1077.68 247.29 1074.06 243.62 1071.62
  Q 238.95 1068.51 235.81 1065.35
  C 232.11 1061.61 230.14 1060.24 226.21 1057.30
  Q 224.58 1056.08 222.70 1054.16
  Z"
/>
<path fill="#d8b0fc" d="
  M 983.91 1067.09
  Q 991.75 1060.89 1003.53 1051.15
  C 1012.18 1044.01 1024.50 1053.02 1020.91 1063.45
  Q 1020.05 1065.98 1014.81 1070.36
  C 1007.56 1076.42 1001.95 1081.26 997.74 1084.59
  C 993.53 1087.92 987.53 1092.26 979.96 1097.91
  Q 974.48 1102.00 971.82 1102.25
  C 960.85 1103.34 954.93 1089.26 963.87 1082.50
  Q 976.07 1073.28 983.91 1067.09
  Z"
/>
<path fill="#d8b0fc" d="
  M 325.21 1103.28
  Q 333.72 1108.51 346.91 1116.23
  C 356.59 1121.89 352.36 1136.56 341.34 1136.77
  Q 338.67 1136.83 332.76 1133.42
  C 324.58 1128.70 318.10 1125.09 313.53 1122.28
  C 308.96 1119.47 302.82 1115.32 294.92 1110.16
  Q 289.20 1106.42 288.05 1104.01
  C 283.26 1094.09 294.44 1083.69 303.86 1089.76
  Q 316.70 1098.05 325.21 1103.28
  Z"
/>
<path fill="#d8b0fc" d="
  M 879.68 1149.78
  C 877.58 1148.41 876.83 1144.82 876.91 1142.51
  C 877.10 1136.95 878.33 1133.31 883.65 1130.87
  Q 886.82 1129.41 896.66 1124.25
  C 902.33 1121.28 907.35 1117.95 912.44 1115.53
  C 917.64 1113.06 920.88 1111.05 925.15 1108.38
  C 931.00 1104.74 937.08 1104.56 941.40 1110.82
  C 943.49 1113.85 943.10 1120.00 941.21 1123.22
  Q 940.24 1124.88 936.32 1127.16
  C 927.60 1132.20 921.32 1136.36 911.68 1141.39
  C 907.13 1143.76 900.81 1147.46 894.58 1150.41
  C 888.83 1153.14 884.81 1153.11 879.68 1149.78
  Z"
/>
<path fill="#d8b0fc" d="
  M 375.47 1137.98
  Q 379.62 1135.17 384.05 1136.25
  Q 389.77 1137.65 397.97 1141.96
  A 27.27 26.98 -21.7 0 0 401.97 1143.66
  Q 409.91 1146.30 417.97 1150.22
  Q 421.83 1152.10 425.36 1153.32
  C 431.65 1155.50 437.09 1156.72 439.38 1163.04
  C 442.17 1170.77 434.98 1177.86 427.27 1177.19
  Q 424.52 1176.96 418.25 1174.22
  Q 406.77 1169.20 403.66 1168.22
  C 394.54 1165.32 385.45 1160.41 376.10 1156.51
  Q 375.43 1156.23 373.95 1154.45
  C 370.45 1150.26 371.63 1143.08 374.32 1139.12
  A 4.43 4.34 -89.2 0 1 375.47 1137.98
  Z"
/>
<path fill="#d8b0fc" d="
  M 818.45 1158.85
  Q 827.84 1155.47 842.09 1149.99
  C 852.55 1145.97 861.36 1158.42 854.65 1167.15
  Q 853.03 1169.27 846.68 1171.76
  C 837.89 1175.20 831.03 1178.00 825.99 1179.82
  C 820.95 1181.63 813.88 1183.83 804.91 1186.78
  Q 798.43 1188.91 795.83 1188.31
  C 785.10 1185.85 783.96 1170.64 794.58 1167.08
  Q 809.06 1162.23 818.45 1158.85
  Z"
/>
<path fill="#d8b0fc" d="
  M 499.53 1177.05
  Q 509.24 1179.46 524.20 1182.82
  C 535.16 1185.29 535.58 1200.59 525.12 1204.14
  Q 522.58 1205.01 515.90 1203.55
  C 506.65 1201.52 499.36 1200.05 494.14 1198.75
  C 488.93 1197.46 481.80 1195.36 472.67 1192.83
  Q 466.08 1191.00 464.24 1189.05
  C 456.65 1181.02 464.17 1167.69 475.02 1170.63
  Q 489.81 1174.64 499.53 1177.05
  Z"
/>
<rect fill="#d8b0fc" x="-36.32" y="-11.10" transform="translate(728.80,1194.45) rotate(-10.8)" width="72.64" height="22.20" rx="10.77"/>
<path fill="#d8b0fc" d="
  M 612.85 1193.28
  Q 634.18 1193.88 651.94 1192.96
  Q 659.97 1192.54 662.41 1193.70
  C 672.28 1198.40 670.84 1211.56 660.50 1214.52
  Q 659.37 1214.85 652.96 1215.07
  C 635.74 1215.68 627.00 1215.99 612.22 1215.57
  C 597.43 1215.15 588.73 1214.35 571.57 1212.76
  Q 565.18 1212.18 564.07 1211.78
  C 553.92 1208.24 553.23 1195.02 563.35 1190.89
  Q 565.85 1189.87 573.84 1190.74
  Q 591.52 1192.67 612.85 1193.28
  Z"
/>
</svg>
