<?xml version="1.0" encoding="UTF-8" standalone="no"?>
<!DOCTYPE svg PUBLIC "-//W3C//DTD SVG 1.1//EN" "http://www.w3.org/Graphics/SVG/1.1/DTD/svg11.dtd">
<svg xmlns="http://www.w3.org/2000/svg" version="1.1" viewBox="0.00 0.00 2400.00 1309.00">
<path fill="#ffa1be" d="
  M 978.62 1045.16
  C 955.70 1037.44 929.27 1038.00 906.24 1044.03
  Q 890.05 1048.27 876.38 1053.40
  Q 852.75 1062.28 833.01 1069.52
  Q 806.42 1079.28 780.29 1083.31
  C 760.75 1086.32 741.77 1085.89 722.14 1081.83
  Q 717.79 1080.94 706.19 1077.27
  C 684.83 1070.53 665.06 1059.06 648.99 1043.95
  C 622.79 1019.32 603.10 986.13 595.28 951.00
  C 589.44 924.72 590.45 899.74 596.98 874.19
  C 603.65 848.08 615.91 820.69 624.08 797.33
  C 629.11 782.92 632.80 768.24 633.26 752.97
  Q 634.27 719.45 621.45 688.78
  Q 612.73 667.95 598.27 641.82
  Q 593.78 633.71 587.39 618.48
  Q 568.10 572.47 572.33 523.51
  Q 576.32 477.44 597.62 436.38
  C 611.19 410.24 630.18 387.72 655.11 371.99
  C 669.32 363.02 686.99 356.96 702.62 354.13
  C 727.97 349.55 758.97 347.22 781.49 329.93
  Q 796.18 318.65 804.62 300.36
  C 810.38 287.87 813.54 274.09 817.39 260.88
  Q 820.58 249.94 825.58 239.41
  C 841.11 206.73 871.99 184.43 907.75 179.31
  C 932.97 175.69 958.78 178.38 983.02 183.22
  C 1003.94 187.39 1030.17 193.91 1053.48 195.74
  Q 1093.75 198.91 1128.68 179.97
  C 1143.48 171.94 1155.58 162.53 1170.46 151.96
  Q 1183.56 142.66 1203.17 131.42
  Q 1221.45 120.94 1248.02 111.74
  Q 1311.72 89.69 1378.00 86.01
  Q 1405.12 84.51 1432.43 88.12
  Q 1458.22 91.52 1480.01 100.92
  Q 1529.75 122.37 1543.89 174.61
  Q 1545.58 180.85 1552.20 211.76
  Q 1554.38 221.93 1559.96 232.28
  Q 1572.11 254.86 1597.73 257.82
  C 1603.41 258.48 1611.47 258.25 1619.42 257.73
  Q 1632.59 256.86 1642.48 257.03
  C 1674.52 257.58 1699.59 277.84 1703.53 310.24
  C 1705.43 325.83 1703.52 340.76 1700.34 357.13
  C 1697.31 372.71 1692.88 392.06 1691.64 410.99
  C 1689.54 443.10 1700.28 474.60 1718.80 500.72
  C 1731.29 518.34 1738.70 528.31 1746.86 542.12
  C 1772.21 584.96 1792.57 632.68 1807.91 680.07
  Q 1819.62 716.24 1824.67 746.86
  Q 1828.01 767.14 1828.43 782.36
  C 1829.13 807.96 1825.77 833.81 1815.47 857.48
  Q 1803.56 884.84 1782.02 904.45
  C 1747.64 935.76 1699.79 947.15 1655.81 958.09
  C 1628.52 964.89 1600.93 973.38 1577.10 988.35
  C 1558.11 1000.28 1543.93 1016.73 1532.96 1037.01
  Q 1523.33 1054.83 1516.85 1073.59
  Q 1508.45 1097.89 1497.84 1121.84
  C 1483.92 1153.29 1463.13 1180.31 1433.32 1197.28
  Q 1416.82 1206.67 1396.37 1212.81
  Q 1376.00 1218.92 1355.75 1221.21
  C 1346.20 1222.29 1334.51 1223.21 1324.06 1223.10
  Q 1296.94 1222.82 1270.44 1218.82
  Q 1232.01 1213.03 1195.81 1201.17
  Q 1174.22 1194.10 1155.24 1184.99
  Q 1114.01 1165.21 1082.86 1133.12
  Q 1073.93 1123.91 1060.62 1107.96
  Q 1051.65 1097.22 1039.89 1085.19
  C 1022.68 1067.60 1001.98 1053.02 978.62 1045.16
  Z
  M 1183.12 909.62
  C 1196.77 911.71 1209.86 915.59 1221.78 922.00
  Q 1230.42 926.65 1240.10 933.92
  Q 1261.05 949.66 1272.67 957.64
  Q 1283.18 964.86 1292.68 969.33
  Q 1324.20 984.14 1359.28 976.75
  Q 1411.94 965.66 1451.87 929.40
  Q 1477.78 905.88 1490.98 874.51
  C 1502.53 847.08 1501.31 816.67 1489.49 789.02
  C 1477.15 760.15 1464.92 734.55 1467.81 704.28
  Q 1470.93 671.63 1489.60 645.32
  Q 1500.13 630.48 1506.57 623.05
  Q 1514.41 614.01 1528.37 599.86
  Q 1540.01 588.06 1552.13 573.14
  C 1569.28 552.00 1580.66 527.04 1581.09 499.77
  C 1581.45 477.08 1573.07 453.01 1560.01 434.73
  C 1552.92 424.80 1543.73 417.38 1533.22 411.53
  C 1521.73 405.14 1512.06 402.80 1499.02 402.52
  C 1485.16 402.22 1472.43 404.51 1458.61 409.20
  Q 1444.08 414.13 1439.54 415.76
  Q 1421.62 422.20 1402.52 422.16
  C 1379.49 422.12 1356.36 411.19 1341.95 393.63
  Q 1334.76 384.86 1330.45 377.84
  C 1322.05 364.14 1314.91 352.06 1305.93 341.74
  C 1294.81 328.96 1279.59 319.33 1263.82 312.67
  Q 1255.41 309.12 1244.26 306.98
  C 1202.41 298.93 1161.63 309.93 1132.80 342.04
  C 1122.24 353.80 1113.62 367.36 1104.71 378.46
  C 1093.39 392.55 1076.78 403.98 1058.67 407.66
  Q 1045.92 410.25 1031.27 410.86
  C 1021.03 411.28 1011.99 411.77 1004.01 413.00
  Q 990.76 415.03 978.08 420.58
  C 965.41 426.12 951.40 436.96 944.11 449.93
  C 938.75 459.46 936.09 469.00 933.01 479.55
  Q 926.11 503.21 905.36 516.18
  Q 894.43 523.01 880.70 526.96
  Q 877.45 527.90 854.98 533.97
  C 829.32 540.90 804.81 553.15 785.84 572.10
  Q 775.57 582.36 767.08 596.39
  C 737.43 645.41 739.35 704.57 766.47 754.26
  Q 790.30 797.90 838.35 807.62
  Q 846.55 809.28 864.96 811.32
  C 870.63 811.95 874.75 812.66 880.06 813.41
  C 904.77 816.92 924.73 829.71 935.81 852.48
  Q 940.15 861.40 943.06 870.66
  C 948.22 887.08 954.31 902.98 965.25 916.45
  C 996.95 955.49 1051.02 944.98 1090.87 929.58
  Q 1103.30 924.78 1118.54 918.96
  Q 1135.85 912.36 1146.86 910.38
  Q 1165.79 906.97 1183.12 909.62
  Z"
/>
</svg>
