<?xml version="1.0" encoding="UTF-8" standalone="no"?>
<!DOCTYPE svg PUBLIC "-//W3C//DTD SVG 1.1//EN" "http://www.w3.org/Graphics/SVG/1.1/DTD/svg11.dtd">
<svg xmlns="http://www.w3.org/2000/svg" version="1.1" viewBox="0.00 0.00 1536.00 1024.00">
<path fill="#fdb3c5" d="
  M 767.80 160.86
  C 770.32 160.86 776.22 154.73 777.42 153.38
  Q 778.13 152.58 782.60 149.14
  Q 783.01 148.83 795.15 138.67
  Q 807.66 128.20 822.15 117.89
  Q 836.92 107.39 850.60 99.20
  Q 917.64 59.08 993.44 42.30
  C 1036.90 32.69 1083.75 30.45 1127.74 33.00
  C 1183.99 36.28 1241.36 50.43 1291.43 76.10
  Q 1341.56 101.80 1379.29 142.97
  Q 1407.43 173.69 1424.66 212.31
  Q 1445.17 258.28 1447.65 311.23
  Q 1449.89 358.86 1440.76 403.28
  Q 1429.62 457.48 1404.65 507.70
  Q 1387.21 542.76 1365.31 573.79
  Q 1330.12 623.66 1288.69 666.45
  Q 1247.87 708.61 1202.89 746.39
  Q 1172.13 772.23 1137.23 797.98
  C 1042.13 868.16 939.10 927.76 831.15 976.80
  Q 815.31 983.99 805.61 986.67
  Q 787.12 991.78 767.81 991.78
  Q 748.49 991.78 730.01 986.68
  Q 720.30 983.99 704.46 976.80
  C 596.51 927.76 493.48 868.17 398.38 797.99
  Q 363.48 772.24 332.72 746.40
  Q 287.74 708.62 246.91 666.46
  Q 205.48 623.67 170.29 573.80
  Q 148.39 542.77 130.95 507.72
  Q 105.98 457.50 94.84 403.30
  Q 85.71 358.88 87.95 311.25
  Q 90.43 258.30 110.93 212.33
  Q 128.16 173.71 156.30 142.98
  Q 194.03 101.81 244.16 76.11
  C 294.23 50.44 351.60 36.29 407.85 33.01
  C 451.84 30.46 498.69 32.70 542.15 42.31
  Q 617.95 59.08 684.99 99.20
  Q 698.67 107.39 713.44 117.89
  Q 727.93 128.20 740.44 138.67
  Q 752.58 148.83 752.99 149.14
  Q 757.46 152.58 758.17 153.38
  C 759.37 154.73 765.28 160.86 767.80 160.86
  Z
  M 767.75 905.27
  Q 781.09 905.27 792.22 900.15
  Q 845.81 875.47 909.77 840.97
  Q 966.29 810.49 1023.39 773.81
  C 1082.13 736.08 1137.37 695.30 1189.11 649.36
  Q 1219.19 622.65 1247.43 592.71
  Q 1289.09 548.54 1319.26 499.51
  Q 1337.49 469.90 1349.41 438.64
  Q 1368.19 389.40 1367.36 336.99
  Q 1366.60 289.46 1346.24 247.17
  C 1326.31 205.79 1290.56 171.48 1250.14 149.54
  C 1183.16 113.19 1104.51 105.60 1029.79 117.13
  Q 979.27 124.93 933.57 145.40
  Q 896.75 161.89 865.50 183.78
  Q 843.01 199.54 818.56 221.85
  C 810.93 228.81 802.54 237.86 795.42 244.53
  C 791.71 248.00 789.11 249.74 784.54 251.61
  C 779.04 253.86 773.60 255.49 767.80 255.49
  C 762.00 255.49 756.56 253.86 751.07 251.61
  C 746.50 249.74 743.90 248.00 740.19 244.53
  C 733.07 237.85 724.68 228.80 717.05 221.84
  Q 692.60 199.53 670.12 183.76
  Q 638.87 161.87 602.05 145.37
  Q 556.36 124.89 505.84 117.08
  C 431.12 105.54 352.47 113.12 285.48 149.46
  C 245.06 171.39 209.30 205.69 189.37 247.07
  Q 169.00 289.36 168.23 336.89
  Q 167.39 389.30 186.16 438.54
  Q 198.08 469.80 216.30 499.41
  Q 246.46 548.45 288.12 592.63
  Q 316.35 622.57 346.43 649.29
  C 398.16 695.24 453.39 736.03 512.12 773.77
  Q 569.22 810.46 625.73 840.95
  Q 689.69 875.46 743.27 900.14
  Q 754.41 905.27 767.75 905.27
  Z"
/>
</svg>
