<?xml version="1.0" encoding="UTF-8" standalone="no"?>
<!DOCTYPE svg PUBLIC "-//W3C//DTD SVG 1.1//EN" "http://www.w3.org/Graphics/SVG/1.1/DTD/svg11.dtd">
<svg xmlns="http://www.w3.org/2000/svg" version="1.1" viewBox="0.00 0.00 1536.00 1024.00">
<path fill="#9c69c8" d="
  M 767.65 25.41
  Q 772.54 25.40 777.44 27.90
  C 787.83 33.20 791.83 44.74 791.23 56.26
  C 790.53 69.53 787.39 81.16 782.79 93.59
  Q 776.38 110.90 769.07 127.84
  Q 768.42 129.36 767.67 129.36
  Q 766.92 129.36 766.27 127.84
  Q 758.95 110.90 752.53 93.60
  C 747.93 81.17 744.78 69.54 744.08 56.27
  C 743.47 44.75 747.47 33.21 757.85 27.91
  Q 762.76 25.41 767.65 25.41
  Z"
/>
<path fill="#9c69c8" d="
  M 750.68 133.98
  A 1.77 1.64 33.6 0 1 748.21 134.38
  C 740.31 128.68 733.22 123.41 723.95 120.13
  Q 704.71 113.32 692.79 110.22
  C 681.61 107.31 670.59 99.09 669.53 86.62
  Q 668.78 77.78 675.30 71.44
  C 683.21 63.75 695.03 64.70 704.28 69.05
  C 719.64 76.26 732.82 91.03 740.43 105.64
  Q 744.19 112.85 748.50 124.24
  Q 750.48 129.47 750.78 133.03
  Q 750.84 133.72 750.68 133.98
  Z"
/>
<path fill="#9c69c8" d="
  M 784.74 133.79
  Q 784.58 133.53 784.64 132.84
  Q 784.94 129.29 786.92 124.07
  Q 791.22 112.71 794.97 105.51
  C 802.56 90.94 815.72 76.20 831.04 69.01
  C 840.27 64.67 852.07 63.72 859.96 71.40
  Q 866.46 77.72 865.71 86.54
  C 864.65 98.99 853.66 107.19 842.50 110.09
  Q 830.61 113.18 811.41 119.97
  C 802.16 123.24 795.09 128.50 787.21 134.19
  A 1.77 1.64 -33.6 0 1 784.74 133.79
  Z"
/>
<path fill="#9c69c8" d="
  M 806.33 138.55
  Q 827.25 127.36 850.51 130.06
  Q 859.01 131.04 872.94 134.07
  Q 875.97 134.74 894.00 136.97
  Q 905.48 138.40 915.14 138.66
  Q 938.63 139.29 957.54 137.86
  Q 967.84 137.08 1023.50 132.31
  Q 1064.52 128.79 1111.05 130.77
  C 1173.28 133.42 1235.99 147.12 1292.69 173.53
  Q 1377.95 213.24 1433.04 289.69
  Q 1460.07 327.19 1476.81 368.89
  Q 1482.83 383.91 1488.17 400.63
  Q 1493.48 417.27 1496.84 433.22
  Q 1506.68 479.85 1506.43 523.25
  Q 1506.29 547.04 1502.21 579.99
  Q 1497.63 616.95 1484.29 657.32
  Q 1464.85 716.10 1427.39 766.16
  Q 1398.49 804.78 1360.23 834.99
  Q 1341.20 850.01 1324.29 860.53
  Q 1320.14 863.11 1307.05 870.66
  Q 1297.88 875.95 1289.44 880.15
  Q 1236.44 906.53 1180.37 920.61
  Q 1175.09 921.94 1154.27 926.75
  Q 1149.46 927.87 1118.36 933.08
  Q 1106.21 935.12 1095.69 936.08
  C 1086.80 936.89 1074.17 938.71 1065.40 939.46
  Q 1012.87 944.00 960.50 945.69
  C 884.88 948.12 828.70 947.96 727.68 947.96
  C 684.99 947.95 638.86 947.18 599.25 946.39
  Q 569.98 945.80 521.75 943.39
  Q 486.49 941.63 446.00 937.07
  C 378.79 929.49 314.67 913.69 254.73 885.23
  Q 251.72 883.80 239.53 877.67
  Q 230.64 873.20 224.59 869.67
  Q 200.74 855.76 183.60 842.97
  Q 162.33 827.10 141.97 807.29
  Q 100.95 767.36 73.95 716.07
  Q 59.22 688.10 49.74 660.06
  Q 18.26 566.93 29.69 471.73
  C 37.55 406.27 61.78 343.30 101.26 289.14
  C 128.81 251.34 163.38 219.39 201.65 195.87
  Q 243.52 170.14 289.91 155.21
  C 324.52 144.07 360.42 136.86 397.95 133.40
  C 437.65 129.75 475.18 130.21 516.19 133.31
  Q 537.28 134.91 574.50 138.00
  C 594.92 139.69 617.32 139.93 638.45 137.68
  Q 652.71 136.16 672.51 132.15
  Q 689.29 128.75 702.55 130.20
  Q 711.35 131.16 722.73 135.65
  C 732.63 139.56 739.62 146.70 745.84 154.95
  C 748.80 158.89 749.93 162.08 751.89 167.30
  Q 756.00 178.25 754.43 191.01
  C 752.86 203.80 745.87 215.11 735.43 222.43
  C 720.67 232.78 701.15 232.60 685.77 222.77
  C 675.83 216.42 670.26 204.38 670.12 193.21
  C 670.01 183.83 678.93 177.88 687.59 181.45
  C 692.82 183.61 693.82 187.44 694.86 193.03
  C 696.66 202.67 706.22 206.48 715.22 204.48
  Q 719.20 203.60 723.82 199.57
  C 729.18 194.88 730.97 185.18 729.44 178.83
  Q 725.52 162.57 708.93 157.78
  Q 694.26 153.54 677.59 156.89
  C 668.06 158.81 651.18 162.04 638.03 163.11
  C 604.43 165.84 573.61 163.50 539.36 160.19
  Q 518.00 158.12 488.25 156.52
  Q 457.44 154.86 423.35 156.54
  Q 410.02 157.20 400.70 158.40
  C 390.30 159.74 382.00 160.26 370.62 161.91
  C 305.88 171.35 242.51 194.07 189.76 232.97
  Q 136.68 272.13 102.70 328.20
  Q 68.69 384.34 56.41 448.19
  Q 45.61 504.37 51.56 563.23
  C 53.80 585.47 57.68 607.73 63.92 630.61
  C 66.13 638.72 68.67 645.85 71.46 654.55
  C 73.49 660.93 76.59 667.91 79.51 675.20
  Q 82.07 681.59 82.90 683.43
  Q 119.83 765.24 190.49 819.01
  C 235.88 853.54 289.16 877.32 344.20 892.82
  C 400.54 908.68 459.19 915.10 517.52 918.42
  C 584.88 922.25 658.16 923.09 726.50 923.11
  C 803.59 923.12 877.63 923.36 947.00 921.28
  Q 993.99 919.87 1024.50 917.95
  Q 1041.25 916.90 1065.37 914.80
  C 1095.03 912.22 1121.95 908.00 1149.24 902.71
  Q 1155.98 901.40 1175.64 896.62
  Q 1189.80 893.17 1201.76 889.41
  Q 1232.95 879.61 1261.43 866.93
  Q 1270.62 862.84 1275.77 860.09
  C 1282.01 856.77 1288.43 854.02 1294.70 850.50
  Q 1321.57 835.39 1343.31 818.79
  Q 1400.63 775.06 1435.83 712.09
  C 1466.64 656.99 1482.18 594.06 1483.72 531.23
  C 1485.77 447.94 1461.43 365.97 1411.52 299.11
  Q 1402.87 287.52 1395.54 279.41
  Q 1354.16 233.62 1304.05 206.78
  Q 1263.25 184.93 1222.09 173.74
  Q 1208.30 169.99 1207.98 169.90
  C 1196.91 166.89 1188.66 165.58 1173.43 162.68
  Q 1161.92 160.49 1152.99 159.45
  Q 1110.62 154.51 1071.75 155.13
  C 1036.49 155.70 1001.34 159.45 966.25 162.47
  Q 938.82 164.84 912.94 163.89
  C 892.64 163.15 873.91 159.74 850.99 155.87
  Q 838.79 153.80 825.90 157.67
  Q 810.25 162.37 805.87 178.11
  Q 804.93 181.50 805.69 187.49
  C 806.82 196.32 812.22 202.66 820.93 204.54
  C 828.60 206.20 837.90 203.01 839.74 194.76
  Q 840.94 189.38 840.99 189.24
  Q 844.13 179.55 854.32 180.42
  C 865.05 181.34 866.96 194.51 864.04 202.27
  Q 854.44 227.71 827.99 230.05
  C 818.73 230.87 806.13 227.60 798.58 221.74
  Q 786.15 212.10 782.34 197.65
  Q 776.44 175.29 789.61 154.63
  Q 791.40 151.83 797.20 145.72
  Q 801.61 141.07 806.33 138.55
  Z"
/>
</svg>
