<?xml version="1.0" encoding="UTF-8" standalone="no"?>
<!DOCTYPE svg PUBLIC "-//W3C//DTD SVG 1.1//EN" "http://www.w3.org/Graphics/SVG/1.1/DTD/svg11.dtd">
<svg xmlns="http://www.w3.org/2000/svg" version="1.1" viewBox="0.00 0.00 1024.00 1536.00">
<path fill="#155229" d="
  M 90.75 1466.90
  C 69.52 1466.91 53.38 1454.40 48.85 1433.51
  Q 48.10 1430.02 48.10 1420.20
  Q 48.10 705.02 48.08 502.25
  Q 48.07 473.83 49.83 456.28
  Q 59.58 358.84 104.93 272.17
  Q 129.81 224.60 163.78 183.53
  Q 178.83 165.34 197.42 147.17
  C 268.48 77.74 360.33 33.28 458.99 20.86
  Q 553.01 9.02 644.33 37.71
  Q 738.96 67.43 812.91 133.36
  C 881.90 194.86 931.33 277.66 957.28 366.90
  Q 960.63 378.41 965.51 400.45
  Q 975.92 447.38 975.92 497.25
  Q 975.90 1235.09 975.94 1423.76
  C 975.94 1448.15 958.20 1466.87 933.69 1466.87
  Q 179.93 1466.87 90.75 1466.90
  Z
  M 511.96 1412.25
  Q 901.57 1412.28 906.00 1412.29
  C 908.38 1412.30 912.77 1412.55 915.35 1411.64
  Q 921.74 1409.37 921.74 1402.25
  Q 921.76 1149.41 921.81 496.50
  Q 921.81 465.58 917.14 435.75
  Q 903.13 346.28 856.08 269.57
  Q 833.02 231.98 803.96 201.02
  C 727.91 119.98 623.05 73.04 512.07 73.03
  C 401.10 73.02 296.23 119.95 220.17 200.97
  Q 191.10 231.92 168.03 269.51
  Q 120.97 346.21 106.94 435.68
  Q 102.27 465.51 102.26 496.43
  Q 102.20 1149.34 102.18 1402.18
  Q 102.18 1409.30 108.56 1411.57
  C 111.14 1412.48 115.53 1412.23 117.91 1412.22
  Q 122.34 1412.22 511.96 1412.25
  Z"
/>
</svg>
