<?xml version="1.0" encoding="UTF-8" standalone="no"?>
<!DOCTYPE svg PUBLIC "-//W3C//DTD SVG 1.1//EN" "http://www.w3.org/Graphics/SVG/1.1/DTD/svg11.dtd">
<svg xmlns="http://www.w3.org/2000/svg" version="1.1" viewBox="0.00 0.00 1536.00 1024.00">
<path fill="#164a2e" d="
  M 768.58 87.20
  Q 1321.40 87.23 1338.25 87.21
  Q 1341.01 87.21 1353.91 87.25
  Q 1364.35 87.28 1369.41 88.62
  Q 1382.53 92.08 1390.48 103.77
  Q 1393.31 107.94 1395.62 116.46
  Q 1395.95 117.67 1396.86 127.36
  Q 1398.04 139.95 1404.41 150.67
  Q 1416.03 170.20 1438.75 175.94
  C 1443.28 177.09 1450.11 176.40 1454.41 177.19
  C 1468.79 179.83 1480.32 189.78 1484.29 203.64
  Q 1485.78 208.82 1485.78 223.07
  Q 1485.85 662.74 1485.75 808.78
  Q 1485.73 829.32 1469.16 840.66
  Q 1461.76 845.73 1453.51 846.58
  C 1448.99 847.06 1443.63 846.74 1439.17 847.75
  C 1417.13 852.75 1401.84 869.65 1397.35 891.71
  C 1396.53 895.73 1396.66 899.21 1396.35 902.83
  C 1395.83 908.85 1393.27 916.04 1390.75 919.97
  Q 1383.18 931.76 1370.18 935.72
  Q 1365.31 937.20 1349.10 937.21
  Q 1173.90 937.28 768.54 937.26
  Q 363.18 937.25 187.98 937.15
  Q 171.77 937.14 166.90 935.66
  Q 153.90 931.70 146.33 919.91
  C 143.81 915.98 141.25 908.79 140.74 902.77
  C 140.43 899.15 140.56 895.67 139.74 891.65
  C 135.25 869.59 119.96 852.69 97.92 847.69
  C 93.46 846.68 88.10 847.00 83.58 846.52
  Q 75.33 845.67 67.93 840.60
  Q 51.36 829.25 51.34 808.71
  Q 51.26 662.67 51.37 223.00
  Q 51.37 208.75 52.86 203.57
  C 56.83 189.71 68.36 179.77 82.74 177.13
  C 87.04 176.34 93.87 177.03 98.40 175.88
  Q 121.12 170.14 132.75 150.61
  Q 139.12 139.89 140.30 127.30
  Q 141.21 117.61 141.54 116.40
  Q 143.85 107.88 146.68 103.71
  Q 154.63 92.02 167.75 88.56
  Q 172.81 87.22 183.25 87.20
  Q 196.15 87.16 198.91 87.16
  Q 215.76 87.18 768.58 87.20
  Z
  M 221.54 162.10
  A 25.28 25.28 0.0 0 0 196.26 136.82
  A 25.28 25.28 0.0 0 0 170.98 162.10
  A 25.28 25.28 0.0 0 0 196.26 187.38
  A 25.28 25.28 0.0 0 0 221.54 162.10
  Z
  M 1366.46 163.74
  A 25.34 25.34 0.0 0 0 1341.12 138.40
  A 25.34 25.34 0.0 0 0 1315.78 163.74
  A 25.34 25.34 0.0 0 0 1341.12 189.08
  A 25.34 25.34 0.0 0 0 1366.46 163.74
  Z
  M 197.1711 834.3371
  A 25.41 25.15 -87.9 0 0 171.1069 858.8084
  A 25.41 25.15 -87.9 0 0 195.3089 885.1229
  A 25.41 25.15 -87.9 0 0 221.3731 860.6516
  A 25.41 25.15 -87.9 0 0 197.1711 834.3371
  Z
  M 1366.37 860.96
  A 25.27 25.27 0.0 0 0 1341.10 835.69
  A 25.27 25.27 0.0 0 0 1315.83 860.96
  A 25.27 25.27 0.0 0 0 1341.10 886.23
  A 25.27 25.27 0.0 0 0 1366.37 860.96
  Z"
/>
</svg>
