<?xml version="1.0" encoding="UTF-8" standalone="no"?>
<!DOCTYPE svg PUBLIC "-//W3C//DTD SVG 1.1//EN" "http://www.w3.org/Graphics/SVG/1.1/DTD/svg11.dtd">
<svg xmlns="http://www.w3.org/2000/svg" version="1.1" viewBox="0.00 0.00 1536.00 1024.00">
<path fill="#fecb52" d="
  M 160.63 896.89
  Q 159.14 907.09 157.51 916.06
  A 9.74 9.11 63.3 0 1 156.96 917.93
  Q 155.84 920.71 154.93 924.61
  C 153.77 929.61 147.43 926.88 149.16 922.67
  C 152.28 915.11 153.90 907.43 154.49 897.92
  C 155.23 886.11 155.72 877.29 158.13 866.90
  Q 160.17 858.15 165.49 851.45
  A 1.40 1.40 0.0 0 0 165.51 849.73
  Q 158.40 840.40 165.01 831.78
  C 166.07 830.40 167.90 829.61 168.94 828.23
  A 1.06 1.05 -27.7 0 0 169.16 827.53
  L 168.47 805.93
  A 0.92 0.92 0.0 0 0 167.58 805.03
  L 121.25 803.40
  A 0.92 0.91 2.6 0 0 120.30 804.26
  L 119.06 826.56
  A 1.83 1.83 0.0 0 0 119.89 828.20
  Q 126.08 832.26 126.04 838.03
  Q 126.00 845.07 121.59 849.38
  A 1.12 1.11 -38.7 0 0 121.43 850.78
  C 125.02 856.39 127.50 860.98 128.58 867.68
  Q 129.66 874.42 130.44 881.54
  Q 130.80 884.76 131.19 895.49
  Q 131.68 909.06 133.14 915.95
  Q 133.63 918.28 134.99 922.76
  C 136.10 926.42 129.67 929.58 128.82 924.93
  Q 127.46 917.47 124.63 895.39
  C 124.46 897.66 124.13 899.80 124.29 901.89
  Q 124.99 910.78 125.25 918.78
  C 125.35 921.89 126.25 924.91 126.34 927.87
  A 1.80 1.80 0.0 0 1 126.10 928.84
  C 124.31 932.01 120.83 930.81 120.31 927.47
  Q 118.82 917.95 118.55 909.57
  A 0.15 0.15 0.0 0 0 118.41 909.42
  L 118.40 909.42
  A 0.13 0.13 0.0 0 0 118.27 909.54
  Q 117.08 921.62 116.29 925.78
  Q 116.03 927.17 114.05 930.35
  A 1.87 1.81 3.4 0 1 113.22 931.06
  C 108.62 933.01 107.90 927.21 108.06 924.01
  Q 108.63 912.15 108.63 908.39
  L 108.62 908.39
  Q 106.58 921.70 105.52 925.56
  C 104.83 928.08 103.60 932.49 99.84 930.58
  Q 97.52 929.40 98.38 925.93
  Q 102.00 911.33 102.00 895.92
  A 0.05 0.04 -9.7 0 0 101.94 895.88
  Q 101.93 895.88 101.92 895.89
  A 0.04 0.04 0.0 0 0 101.88 895.92
  Q 99.94 909.11 95.83 924.51
  A 2.87 2.86 -74.4 0 1 92.26 926.52
  L 92.08 926.47
  A 2.95 2.94 16.7 0 1 90.09 922.78
  C 92.00 916.54 93.32 913.08 94.07 906.63
  Q 97.29 878.87 97.74 873.76
  Q 98.10 869.66 102.24 857.99
  C 103.29 855.05 105.10 852.52 107.02 850.21
  A 1.43 1.43 0.0 0 0 107.04 848.40
  Q 101.44 841.47 104.96 833.19
  Q 106.69 829.10 110.73 827.43
  A 0.80 0.79 -13.3 0 0 111.22 826.64
  L 109.67 803.01
  A 0.89 0.87 1.6 0 0 108.88 802.19
  C 94.86 800.76 77.62 801.02 62.50 798.75
  A 0.60 0.60 0.0 0 0 61.81 799.33
  C 61.75 802.57 61.86 807.51 61.20 811.83
  Q 60.27 817.86 60.30 822.90
  A 1.54 1.53 -75.0 0 0 61.04 824.20
  C 68.89 828.94 68.57 839.72 62.36 845.62
  A 1.03 1.03 0.0 0 0 62.22 846.96
  C 74.10 863.95 70.88 883.76 72.53 903.60
  A 1.36 1.14 39.8 0 0 72.57 903.82
  L 76.76 920.35
  A 3.34 3.34 0.0 0 1 74.54 924.35
  L 74.36 924.41
  A 2.79 2.78 -16.9 0 1 70.96 922.60
  C 69.97 919.57 68.38 913.86 67.95 909.83
  Q 66.78 898.96 65.71 890.54
  A 0.07 0.07 0.0 0 0 65.64 890.48
  L 65.63 890.48
  A 0.15 0.14 -87.8 0 0 65.49 890.62
  C 65.14 898.83 65.01 905.42 66.74 913.67
  Q 67.63 917.93 68.10 923.60
  A 3.56 3.56 0.0 0 1 65.41 927.36
  L 65.12 927.43
  A 2.85 2.85 0.0 0 1 61.61 925.12
  L 58.70 907.16
  A 0.29 0.28 11.0 0 0 58.55 906.95
  L 58.53 906.95
  A 0.24 0.24 0.0 0 0 58.30 907.18
  Q 57.79 915.23 57.93 922.21
  Q 57.96 923.73 57.21 925.25
  C 56.42 926.86 53.89 927.79 52.47 926.67
  Q 51.43 925.85 51.05 923.23
  C 50.87 922.02 50.25 920.12 50.18 918.23
  Q 50.01 913.96 49.86 907.69
  A 0.23 0.23 0.0 0 0 49.42 907.60
  Q 48.56 909.44 48.47 910.26
  Q 47.80 916.36 45.88 923.46
  A 2.97 2.96 14.6 0 1 42.29 925.56
  L 42.08 925.51
  A 2.86 2.86 0.0 0 1 39.98 922.12
  Q 43.26 907.48 43.13 893.64
  Q 41.62 906.50 37.15 920.55
  A 2.55 2.54 21.5 0 1 33.52 922.12
  L 33.40 922.06
  A 3.43 3.42 24.2 0 1 31.78 917.82
  Q 36.43 905.58 37.06 894.25
  Q 37.69 882.88 38.08 876.78
  Q 38.42 871.61 41.11 860.79
  Q 43.19 852.43 48.71 846.53
  A 1.02 1.02 0.0 0 0 48.72 845.14
  C 43.03 838.91 43.42 828.22 51.37 823.86
  A 1.20 1.17 -16.1 0 0 51.98 822.78
  L 51.13 796.06
  A 1.45 1.41 -66.7 0 0 50.80 795.20
  Q 46.14 789.71 46.18 781.93
  Q 46.24 766.69 46.17 131.45
  Q 46.17 115.97 47.60 111.20
  C 51.27 98.93 61.79 87.98 74.68 84.79
  Q 78.22 83.92 87.39 83.92
  Q 756.49 83.96 1454.02 83.91
  Q 1462.91 83.91 1472.06 89.74
  Q 1484.57 97.71 1488.42 111.22
  Q 1489.81 116.10 1489.81 126.44
  Q 1489.74 521.91 1489.82 783.26
  Q 1489.83 789.95 1488.97 792.87
  C 1488.35 794.95 1487.02 797.29 1486.32 798.99
  A 3.23 3.20 -34.3 0 0 1486.07 800.28
  C 1486.11 802.31 1486.49 806.15 1486.32 808.91
  Q 1485.54 821.77 1485.44 826.35
  A 1.51 1.51 0.0 0 0 1486.11 827.64
  C 1494.09 832.93 1494.88 841.85 1488.31 848.78
  A 1.07 1.06 -42.6 0 0 1488.25 850.17
  Q 1494.53 858.10 1496.37 867.46
  Q 1498.54 878.52 1498.95 886.51
  Q 1499.78 902.71 1499.80 902.97
  Q 1500.32 911.53 1504.08 923.43
  A 3.39 3.38 -22.7 0 1 1502.43 927.44
  L 1502.30 927.50
  A 2.46 2.45 67.7 0 1 1498.81 926.03
  Q 1495.58 915.22 1495.15 911.26
  Q 1493.97 900.40 1492.89 893.81
  Q 1492.88 893.72 1492.88 893.62
  C 1492.88 905.06 1493.59 915.96 1495.77 927.20
  A 3.23 3.22 -14.3 0 1 1493.58 930.88
  L 1493.37 930.95
  A 2.90 2.90 0.0 0 1 1489.73 929.10
  C 1487.65 922.78 1487.40 916.74 1485.99 910.56
  A 0.20 0.20 0.0 0 0 1485.59 910.60
  Q 1485.57 912.96 1485.58 926.73
  C 1485.58 929.58 1482.36 932.71 1479.81 930.04
  C 1478.49 928.67 1477.51 923.09 1477.42 921.13
  Q 1477.18 915.87 1477.06 910.58
  A 0.26 0.26 0.0 0 0 1476.81 910.33
  L 1476.80 910.33
  A 0.30 0.29 -87.0 0 0 1476.50 910.61
  Q 1475.85 918.67 1473.44 927.42
  A 2.82 2.81 -75.8 0 1 1470.09 929.42
  L 1469.88 929.37
  A 2.83 2.82 -78.8 0 1 1467.74 926.16
  Q 1468.36 922.45 1470.00 909.88
  Q 1470.46 906.29 1470.42 903.12
  Q 1470.33 897.47 1470.55 896.29
  A 0.07 0.04 -39.9 0 0 1470.44 896.31
  Q 1470.43 896.33 1470.41 896.35
  A 0.29 0.09 88.4 0 0 1470.38 896.46
  Q 1469.61 900.18 1468.36 910.98
  C 1467.80 915.86 1466.18 920.41 1464.66 924.77
  A 2.44 2.43 -70.5 0 1 1461.54 926.26
  L 1461.40 926.21
  A 2.80 2.79 -74.9 0 1 1459.59 923.06
  Q 1460.44 918.55 1461.22 915.98
  Q 1464.38 905.56 1464.38 894.37
  Q 1464.39 883.14 1466.03 871.75
  Q 1467.67 860.34 1474.50 850.83
  A 1.67 1.65 -50.0 0 0 1474.32 848.68
  C 1468.07 842.55 1469.34 832.06 1476.58 827.57
  A 2.42 2.41 -18.6 0 0 1477.72 825.29
  L 1475.75 804.58
  A 0.53 0.52 83.7 0 0 1475.16 804.10
  C 1467.18 805.14 1459.10 806.65 1450.93 807.40
  Q 1435.60 808.81 1422.89 810.33
  A 0.79 0.78 88.3 0 0 1422.21 811.06
  Q 1421.99 814.42 1420.79 826.76
  Q 1420.61 828.62 1420.86 831.27
  A 0.99 0.98 11.6 0 0 1421.37 832.04
  Q 1429.41 836.43 1427.22 846.37
  Q 1426.40 850.11 1423.25 853.14
  A 1.12 1.12 0.0 0 0 1423.16 854.67
  Q 1426.57 858.81 1428.51 865.05
  C 1432.18 876.82 1432.75 886.05 1434.41 900.96
  C 1435.05 906.65 1435.10 911.26 1435.57 915.99
  A 18.12 17.95 -56.4 0 0 1436.20 919.19
  Q 1437.27 922.83 1437.77 925.24
  C 1438.37 928.16 1437.38 931.12 1434.02 930.58
  Q 1432.27 930.29 1431.88 927.60
  Q 1429.70 912.67 1427.51 898.19
  A 0.06 0.05 43.7 0 0 1427.40 898.19
  Q 1426.64 914.18 1429.35 930.24
  A 3.06 3.06 0.0 0 1 1426.57 933.80
  L 1426.41 933.82
  A 3.44 3.43 84.3 0 1 1422.68 930.76
  L 1421.00 915.23
  A 0.23 0.23 0.0 0 0 1420.55 915.22
  Q 1419.76 920.11 1419.11 927.81
  Q 1418.99 929.20 1418.15 932.01
  C 1417.23 935.07 1414.80 936.74 1412.23 934.30
  A 1.82 1.81 -75.6 0 1 1411.70 933.40
  Q 1410.97 930.51 1411.00 929.00
  Q 1411.13 922.09 1410.87 914.52
  A 0.06 0.06 0.0 0 0 1410.76 914.51
  L 1407.12 932.53
  A 3.02 3.01 10.1 0 1 1403.70 934.91
  L 1403.48 934.88
  A 2.94 2.94 0.0 0 1 1400.92 931.61
  C 1401.23 929.00 1402.49 924.38 1402.91 920.01
  Q 1403.88 910.02 1404.54 899.70
  A 0.25 0.25 0.0 0 0 1404.31 899.43
  L 1404.30 899.43
  A 0.33 0.33 0.0 0 0 1403.93 899.72
  Q 1402.29 914.53 1398.01 928.98
  A 2.91 2.91 0.0 0 1 1394.45 930.96
  L 1394.30 930.92
  A 2.88 2.88 0.0 0 1 1392.29 927.38
  Q 1395.89 914.32 1397.49 901.50
  Q 1399.16 888.18 1401.56 874.12
  Q 1403.38 863.45 1409.52 854.41
  A 1.02 1.00 42.1 0 0 1409.45 853.19
  C 1403.61 846.23 1403.69 836.74 1412.38 832.06
  A 1.40 1.40 0.0 0 0 1413.10 830.71
  L 1411.27 811.52
  A 0.72 0.72 0.0 0 0 1410.51 810.86
  L 1350.54 813.72
  A 0.63 0.62 1.0 0 0 1349.95 814.28
  L 1348.28 832.88
  A 2.39 2.38 -70.0 0 0 1349.28 835.04
  Q 1357.45 840.75 1354.64 849.94
  C 1354.00 852.05 1352.38 853.98 1350.97 855.79
  A 0.91 0.91 0.0 0 0 1350.88 856.77
  Q 1351.85 858.58 1353.80 862.20
  Q 1357.05 868.23 1358.47 876.02
  C 1361.00 889.90 1362.34 906.51 1363.27 917.63
  Q 1363.54 920.83 1364.20 923.73
  C 1364.94 926.94 1367.06 932.60 1362.34 932.84
  Q 1359.80 932.97 1359.23 929.51
  Q 1356.71 914.24 1354.63 899.39
  C 1354.24 903.97 1354.77 908.18 1354.81 913.07
  C 1354.86 920.18 1355.77 926.19 1356.75 932.96
  A 2.81 2.81 0.0 0 1 1354.26 936.15
  L 1354.08 936.17
  A 3.19 3.18 -9.0 0 1 1350.64 933.68
  Q 1348.99 926.09 1348.82 918.28
  Q 1348.80 917.11 1348.21 915.80
  A 0.15 0.15 0.0 0 0 1347.92 915.85
  C 1347.49 922.66 1347.26 929.16 1345.00 935.30
  Q 1343.71 938.83 1340.00 936.59
  Q 1338.58 935.72 1338.45 932.49
  Q 1338.07 922.44 1338.41 916.72
  A 0.32 0.31 -87.2 0 0 1338.12 916.39
  L 1337.87 916.36
  A 0.03 0.03 0.0 0 0 1337.84 916.39
  L 1334.91 934.07
  A 3.41 3.40 -80.4 0 1 1330.98 936.88
  L 1330.78 936.84
  A 3.25 3.25 0.0 0 1 1328.13 933.19
  C 1328.56 930.08 1329.90 925.55 1330.34 920.90
  Q 1331.12 912.57 1331.67 905.71
  C 1331.82 903.80 1331.64 902.38 1331.63 900.87
  L 1331.63 900.88
  Q 1330.32 907.22 1328.83 916.80
  Q 1328.36 919.85 1325.22 930.68
  A 2.84 2.83 17.2 0 1 1321.61 932.58
  L 1321.49 932.55
  A 3.03 3.03 0.0 0 1 1319.55 928.79
  C 1320.93 924.25 1321.87 921.80 1322.33 918.12
  C 1323.09 912.00 1324.67 905.80 1325.46 898.68
  Q 1327.01 884.64 1328.97 874.74
  Q 1331.03 864.35 1336.87 856.71
  A 1.06 1.05 -46.0 0 0 1336.85 855.39
  C 1331.11 848.53 1331.44 839.35 1339.45 834.49
  A 2.22 2.20 75.3 0 0 1340.50 832.68
  Q 1340.78 824.11 1339.08 814.92
  A 0.68 0.67 83.5 0 0 1338.40 814.37
  L 1280.39 816.23
  A 0.48 0.47 2.0 0 0 1279.92 816.66
  L 1278.25 835.27
  A 1.76 1.74 -73.7 0 0 1279.17 836.97
  C 1288.00 841.66 1286.46 851.66 1280.47 857.74
  A 1.12 1.12 0.0 0 0 1280.40 859.24
  Q 1286.04 866.05 1287.57 874.89
  Q 1289.75 887.45 1289.97 893.52
  C 1290.25 901.29 1289.71 911.84 1291.94 921.12
  Q 1293.26 926.60 1294.61 932.69
  A 2.83 2.82 79.0 0 1 1292.32 936.09
  L 1292.19 936.11
  A 3.01 3.01 0.0 0 1 1288.77 933.86
  Q 1285.64 921.32 1284.98 910.08
  C 1284.83 907.49 1284.03 905.43 1283.96 902.89
  A 0.20 0.20 0.0 0 0 1283.74 902.70
  A 0.14 0.14 0.0 0 0 1283.61 902.86
  Q 1283.94 905.41 1283.93 905.50
  Q 1283.49 912.46 1284.25 922.89
  C 1284.54 926.79 1285.90 931.39 1286.25 935.53
  C 1286.54 938.98 1281.74 941.04 1279.95 937.10
  Q 1278.72 934.41 1278.21 929.52
  Q 1277.38 921.75 1276.62 917.64
  Q 1275.93 924.83 1276.26 932.25
  C 1276.40 935.34 1275.53 940.71 1271.18 939.08
  A 1.61 1.58 86.8 0 1 1270.32 938.30
  C 1267.39 932.23 1267.66 926.76 1267.60 920.30
  A 0.22 0.22 0.0 0 0 1267.16 920.26
  C 1266.08 925.65 1265.84 930.56 1263.70 935.91
  C 1262.68 938.45 1259.25 938.17 1258.37 935.87
  Q 1258.00 934.91 1258.50 932.08
  Q 1259.61 925.72 1260.95 915.49
  Q 1261.67 909.94 1261.38 903.64
  Q 1260.03 909.87 1259.09 918.01
  Q 1258.60 922.19 1255.45 932.48
  A 2.70 2.70 0.0 0 1 1251.97 934.23
  L 1251.76 934.16
  A 2.80 2.80 0.0 0 1 1250.01 930.72
  Q 1251.77 924.81 1253.17 919.71
  Q 1254.40 915.25 1254.90 908.54
  C 1256.23 890.71 1256.17 880.10 1261.42 866.70
  Q 1263.29 861.91 1266.10 858.27
  A 1.21 1.20 -44.8 0 0 1266.11 856.81
  C 1261.07 850.15 1261.86 839.72 1269.88 836.14
  A 1.02 1.01 -14.0 0 0 1270.49 835.14
  L 1269.29 816.85
  A 1.00 0.99 -89.7 0 0 1268.38 815.92
  Q 1266.14 815.74 1264.75 815.77
  Q 1237.41 816.38 1211.79 814.81
  A 0.67 0.66 -86.6 0 0 1211.09 815.44
  L 1210.05 834.22
  A 1.40 1.39 -74.3 0 0 1210.78 835.53
  C 1219.74 840.30 1218.95 849.72 1213.15 856.66
  A 0.78 0.77 -44.0 0 0 1213.13 857.63
  Q 1218.89 865.09 1220.60 874.45
  C 1223.28 889.12 1223.51 903.76 1224.53 917.03
  C 1224.96 922.54 1226.29 926.05 1227.66 930.29
  Q 1228.62 933.24 1226.21 935.14
  A 1.58 1.58 0.0 0 1 1225.23 935.48
  Q 1222.37 935.44 1221.91 932.27
  C 1220.93 925.52 1219.30 919.49 1218.65 912.85
  Q 1218.17 907.90 1217.54 902.61
  A 0.19 0.19 0.0 0 0 1217.35 902.44
  L 1217.09 902.45
  A 0.05 0.05 0.0 0 0 1217.04 902.50
  Q 1217.13 920.71 1217.80 924.77
  Q 1218.39 928.38 1219.79 933.31
  A 4.04 4.03 -21.2 0 1 1217.71 938.02
  L 1217.49 938.14
  A 2.74 2.74 0.0 0 1 1213.64 936.48
  C 1211.68 929.97 1211.78 924.23 1210.63 917.62
  L 1210.63 917.63
  Q 1209.78 924.25 1209.07 930.98
  C 1208.83 933.18 1208.13 937.64 1205.89 938.39
  A 3.31 2.70 58.7 0 1 1202.64 937.24
  Q 1201.16 935.45 1200.94 932.50
  Q 1200.86 931.36 1200.92 917.55
  A 0.12 0.12 0.0 0 0 1200.81 917.43
  A 0.14 0.14 0.0 0 0 1200.65 917.55
  Q 1200.34 919.40 1199.77 924.50
  Q 1199.26 929.12 1197.24 935.34
  A 3.10 3.10 0.0 0 1 1193.53 937.39
  L 1193.37 937.35
  A 3.01 3.00 12.9 0 1 1191.17 933.85
  Q 1194.21 918.56 1194.68 902.64
  A 0.14 0.14 0.0 0 0 1194.55 902.49
  L 1194.54 902.49
  A 0.15 0.15 0.0 0 0 1194.38 902.62
  Q 1192.44 917.20 1188.33 931.47
  A 2.79 2.79 0.0 0 1 1185.00 933.41
  L 1184.91 933.39
  A 2.61 2.61 0.0 0 1 1182.98 930.25
  Q 1187.12 912.75 1188.22 901.98
  Q 1189.47 889.77 1191.35 878.27
  Q 1193.15 867.24 1199.58 858.16
  A 0.89 0.87 -50.0 0 0 1199.49 857.03
  Q 1194.05 851.45 1195.47 843.99
  Q 1196.66 837.79 1201.52 835.81
  A 1.60 1.59 -13.9 0 0 1202.50 834.19
  L 1200.73 815.48
  A 1.39 1.39 0.0 0 0 1199.47 814.23
  L 1147.11 809.53
  A 0.60 0.60 0.0 0 0 1146.45 810.11
  Q 1146.21 816.09 1144.70 828.26
  Q 1144.45 830.32 1145.05 831.65
  A 1.54 1.47 -88.7 0 0 1145.70 832.36
  Q 1149.77 834.66 1150.66 837.15
  Q 1153.91 846.31 1147.39 853.64
  A 1.26 1.26 0.0 0 0 1147.40 855.33
  Q 1151.37 859.73 1153.26 866.35
  Q 1157.13 879.96 1157.35 893.03
  Q 1157.47 900.94 1157.44 906.97
  C 1157.39 914.52 1159.25 920.35 1161.42 928.64
  A 3.19 3.19 0.0 0 1 1159.14 932.54
  L 1159.06 932.56
  A 2.91 2.91 0.0 0 1 1155.47 930.28
  C 1153.22 918.33 1151.48 906.94 1150.63 896.37
  L 1150.63 896.38
  Q 1149.70 914.14 1152.88 931.03
  C 1153.86 936.23 1147.48 937.18 1146.42 932.54
  Q 1144.65 924.78 1143.90 914.73
  A 0.16 0.16 0.0 0 0 1143.58 914.72
  Q 1142.80 920.95 1143.06 928.97
  Q 1143.11 930.38 1142.20 933.12
  C 1141.24 936.06 1137.34 936.83 1136.25 933.52
  Q 1133.62 925.60 1134.37 916.05
  A 0.08 0.07 -78.3 0 0 1134.33 915.98
  L 1134.04 915.76
  A 0.18 0.18 0.0 0 0 1133.76 915.87
  L 1130.88 931.02
  A 3.22 3.22 0.0 0 1 1127.34 933.62
  L 1127.05 933.59
  A 2.72 2.72 0.0 0 1 1124.81 930.37
  Q 1127.81 915.40 1128.13 900.22
  A 0.04 0.04 0.0 0 0 1128.06 900.19
  Q 1127.91 900.32 1127.90 900.41
  Q 1126.89 906.07 1125.59 916.78
  Q 1125.43 918.13 1122.74 927.33
  Q 1122.04 929.72 1121.24 930.25
  C 1118.34 932.20 1115.55 929.47 1116.72 926.18
  Q 1121.57 912.53 1121.94 898.01
  C 1122.33 883.04 1123.78 867.24 1133.12 854.92
  A 1.28 1.28 0.0 0 0 1133.07 853.32
  C 1127.30 846.61 1128.40 836.29 1136.19 831.93
  A 1.26 1.24 79.5 0 0 1136.80 831.03
  Q 1137.29 827.38 1137.00 825.26
  Q 1135.73 816.15 1135.26 810.10
  A 0.78 0.77 0.5 0 0 1134.55 809.39
  C 1117.38 807.96 1098.01 809.57 1082.15 809.79
  A 0.84 0.84 0.0 0 0 1081.32 810.62
  Q 1081.18 820.92 1079.50 831.04
  A 1.71 1.70 18.4 0 0 1080.40 832.83
  Q 1085.26 835.35 1086.39 840.50
  C 1087.28 844.52 1086.24 850.23 1082.85 853.68
  Q 1082.09 854.46 1081.99 854.67
  A 0.93 0.93 0.0 0 0 1082.03 855.57
  Q 1087.75 864.85 1088.94 872.05
  Q 1091.10 885.12 1091.24 891.28
  Q 1091.50 902.92 1091.92 908.84
  Q 1092.50 917.14 1095.62 927.34
  A 3.54 3.54 0.0 0 1 1093.87 931.65
  L 1093.68 931.74
  A 2.53 2.52 66.9 0 1 1090.15 930.31
  C 1089.03 927.05 1088.66 922.16 1087.77 918.00
  Q 1086.22 910.79 1085.69 902.39
  A 0.17 0.17 0.0 0 0 1085.51 902.23
  L 1085.50 902.23
  A 0.19 0.19 0.0 0 0 1085.31 902.41
  Q 1085.01 909.78 1085.60 920.51
  Q 1085.83 924.55 1087.23 930.77
  Q 1088.04 934.35 1084.50 935.17
  C 1081.97 935.76 1080.85 932.50 1080.65 930.52
  Q 1079.53 919.95 1078.92 915.76
  A 0.14 0.14 0.0 0 0 1078.65 915.77
  C 1078.46 918.63 1078.05 939.34 1071.24 935.82
  A 2.06 2.04 87.3 0 1 1070.48 935.12
  Q 1068.70 932.30 1068.80 929.00
  Q 1069.01 922.37 1069.04 915.92
  A 0.29 0.27 -79.2 0 0 1068.88 915.66
  L 1068.87 915.66
  A 0.14 0.14 0.0 0 0 1068.67 915.77
  Q 1067.18 928.17 1065.26 933.27
  C 1063.73 937.30 1058.33 936.27 1059.24 931.52
  Q 1062.10 916.55 1062.77 901.41
  A 0.20 0.20 0.0 0 0 1062.59 901.20
  L 1062.58 901.20
  A 0.13 0.13 0.0 0 0 1062.44 901.31
  Q 1061.41 906.71 1060.07 915.12
  C 1059.28 920.07 1057.61 925.05 1056.25 929.88
  A 2.91 2.91 0.0 0 1 1052.58 931.88
  L 1052.49 931.85
  A 2.75 2.75 0.0 0 1 1050.70 928.30
  C 1053.52 920.34 1054.49 912.80 1055.78 903.42
  C 1057.17 893.24 1057.97 883.13 1059.94 872.74
  Q 1061.82 862.84 1068.10 855.06
  A 1.14 1.12 -42.3 0 0 1068.17 853.72
  Q 1066.33 850.94 1065.14 847.95
  C 1063.06 842.74 1065.27 835.26 1070.74 832.98
  Q 1071.17 832.81 1071.45 832.60
  A 1.16 1.15 71.0 0 0 1071.92 831.63
  L 1071.26 810.82
  A 1.02 1.01 -0.9 0 0 1070.24 809.84
  L 1016.90 809.84
  A 0.96 0.96 0.0 0 0 1015.94 810.71
  L 1014.15 830.73
  A 1.92 1.91 -73.8 0 0 1015.18 832.61
  C 1023.71 837.00 1023.05 847.69 1016.81 853.71
  A 1.08 1.07 53.1 0 0 1016.63 855.02
  Q 1017.23 856.03 1019.12 859.13
  Q 1023.01 865.48 1024.17 873.12
  C 1025.64 882.74 1026.17 890.61 1026.19 900.27
  Q 1026.22 913.73 1030.10 927.54
  A 3.10 3.10 0.0 0 1 1028.03 931.34
  L 1027.72 931.43
  A 2.74 2.73 76.9 0 1 1024.22 929.25
  C 1023.27 923.39 1022.16 919.65 1021.63 914.35
  Q 1020.87 906.65 1019.98 900.47
  Q 1019.95 900.26 1019.90 900.08
  A 0.08 0.08 0.0 0 0 1019.75 900.10
  Q 1019.56 916.11 1021.51 931.22
  A 3.07 3.06 -10.3 0 1 1019.16 934.60
  L 1019.00 934.63
  A 2.69 2.69 0.0 0 1 1015.76 932.54
  Q 1014.01 923.78 1013.87 915.50
  A 0.16 0.16 0.0 0 0 1013.56 915.47
  Q 1012.71 918.99 1012.48 922.75
  Q 1012.09 929.05 1009.62 934.70
  A 2.38 2.34 -75.7 0 1 1007.27 936.12
  C 1005.04 935.92 1003.99 934.12 1003.68 931.98
  C 1002.81 925.94 1003.29 919.16 1003.64 913.51
  A 0.27 0.26 -85.4 0 0 1003.41 913.23
  L 1003.40 913.23
  A 0.20 0.20 0.0 0 0 1003.18 913.38
  Q 1002.24 917.52 1001.90 922.11
  C 1001.59 926.30 1000.46 930.33 999.27 933.53
  C 998.03 936.85 993.59 936.19 993.17 932.73
  A 1.04 0.93 49.8 0 1 993.18 932.36
  Q 995.40 920.31 996.26 912.98
  Q 997.14 905.56 996.88 900.39
  L 996.87 900.39
  Q 994.40 914.16 990.78 929.14
  A 3.23 3.23 0.0 0 1 987.13 931.57
  L 987.00 931.55
  A 2.73 2.72 11.9 0 1 984.79 928.17
  Q 988.15 915.35 989.10 909.12
  Q 991.11 895.93 993.45 878.95
  C 994.55 870.95 997.54 861.22 1002.80 854.55
  A 1.10 1.08 47.7 0 0 1002.85 853.28
  C 1000.80 850.18 998.89 847.37 998.94 843.79
  Q 999.06 835.49 1005.71 832.06
  A 1.15 1.14 79.8 0 0 1006.32 831.17
  Q 1006.78 827.25 1006.38 824.96
  Q 1004.92 816.75 1004.42 810.73
  A 1.38 1.38 0.0 0 0 1003.08 809.47
  Q 982.59 808.82 963.50 808.93
  Q 949.53 809.01 941.68 809.64
  A 0.82 0.82 0.0 0 0 940.93 810.41
  L 939.78 831.03
  A 1.32 1.31 -73.8 0 0 940.44 832.24
  C 948.84 837.15 948.21 846.87 942.42 853.56
  A 0.69 0.69 0.0 0 0 942.37 854.40
  Q 949.53 865.18 951.07 878.00
  Q 953.58 898.87 954.34 911.25
  C 954.70 917.15 955.87 922.41 956.85 928.04
  A 3.04 3.04 0.0 0 1 954.45 931.54
  L 954.19 931.59
  A 2.90 2.90 0.0 0 1 950.80 929.13
  L 946.49 897.50
  A 0.02 0.02 0.0 0 0 946.46 897.48
  A 0.12 0.12 0.0 0 0 946.34 897.59
  Q 945.79 914.15 948.35 931.00
  Q 948.79 933.90 946.53 934.93
  C 943.65 936.25 941.89 933.30 941.52 930.97
  Q 940.38 923.77 940.05 914.89
  A 0.25 0.25 0.0 0 0 939.81 914.64
  L 939.80 914.64
  A 0.23 0.23 0.0 0 0 939.56 914.84
  Q 939.14 917.78 938.61 925.82
  C 938.46 928.02 937.33 934.93 934.72 935.91
  C 931.53 937.11 929.82 933.32 929.84 930.50
  Q 929.91 915.54 929.88 914.64
  L 929.87 914.64
  Q 928.08 921.91 927.27 929.49
  Q 927.23 929.82 926.11 932.85
  C 925.09 935.60 921.42 936.55 919.89 933.65
  Q 919.49 932.90 919.94 930.76
  Q 923.26 914.94 923.13 898.89
  C 921.86 905.63 921.39 913.37 919.76 919.20
  Q 918.40 924.04 917.10 929.16
  A 3.20 3.20 0.0 0 1 913.47 931.52
  L 913.33 931.50
  A 2.58 2.58 0.0 0 1 911.26 928.28
  Q 915.44 912.88 915.81 908.49
  C 917.10 892.92 917.79 881.09 921.01 868.51
  Q 922.79 861.57 928.15 854.39
  A 0.85 0.84 -42.9 0 0 928.19 853.43
  L 925.57 849.24
  A 1.52 1.33 22.9 0 1 925.44 848.97
  Q 921.48 837.52 931.29 831.99
  A 1.02 1.01 73.7 0 0 931.80 831.04
  L 930.46 810.56
  A 1.01 1.01 0.0 0 0 929.40 809.62
  Q 898.72 811.10 869.47 810.80
  A 0.63 0.63 0.0 0 0 868.83 811.39
  L 867.74 831.05
  A 1.25 1.25 0.0 0 0 868.33 832.18
  C 876.92 837.59 875.63 846.21 870.30 853.31
  A 0.66 0.65 45.5 0 0 870.30 854.10
  Q 876.59 862.58 878.51 873.25
  Q 880.53 884.45 880.69 890.76
  C 881.06 906.19 880.77 915.44 885.63 928.05
  A 3.20 3.19 68.9 0 1 883.81 932.18
  L 883.55 932.28
  A 2.72 2.72 0.0 0 1 879.91 930.33
  C 878.51 924.00 876.75 917.85 875.95 910.40
  Q 875.31 904.40 874.63 898.39
  C 874.41 900.84 873.96 903.99 874.22 906.87
  Q 875.06 915.99 875.46 923.00
  Q 875.56 924.64 876.95 930.59
  C 877.49 932.88 877.45 934.43 875.17 935.42
  A 3.09 3.09 0.0 0 1 871.75 934.77
  Q 870.55 933.56 870.16 931.32
  Q 869.21 925.75 867.97 917.50
  A 0.19 0.19 0.0 0 0 867.59 917.50
  Q 866.99 922.34 867.24 928.73
  C 867.36 931.70 865.64 937.55 861.64 935.06
  A 2.15 2.11 3.0 0 1 860.85 934.20
  C 857.90 928.29 858.24 923.14 858.13 916.77
  A 0.30 0.30 0.0 0 0 857.84 916.47
  L 857.82 916.47
  A 0.28 0.28 0.0 0 0 857.53 916.72
  Q 856.77 925.12 855.04 930.98
  C 854.27 933.58 851.82 935.40 849.49 932.89
  Q 848.18 931.49 848.93 928.49
  Q 852.00 916.26 852.12 903.76
  A 0.18 0.18 0.0 0 0 851.77 903.73
  Q 849.94 912.97 848.76 920.20
  Q 847.98 924.96 845.99 929.67
  A 2.65 2.65 0.0 0 1 842.34 931.00
  L 842.24 930.95
  A 3.21 3.19 23.4 0 1 840.68 927.04
  Q 844.31 916.66 844.50 914.98
  Q 845.75 903.61 846.31 893.01
  C 847.04 879.35 848.27 866.16 856.28 855.10
  A 1.68 1.68 0.0 0 0 856.17 852.99
  C 850.78 846.93 850.44 835.88 858.73 831.93
  A 1.48 1.46 -10.2 0 0 859.56 830.75
  C 860.14 824.73 858.63 817.80 857.92 811.73
  A 1.07 1.07 0.0 0 0 856.86 810.78
  L 803.42 810.78
  A 0.57 0.56 -87.2 0 0 802.86 811.29
  L 801.19 829.83
  A 2.79 2.78 21.5 0 0 802.25 832.26
  C 804.66 834.13 805.99 835.06 807.10 837.61
  Q 810.97 846.48 804.27 853.73
  A 1.67 1.67 0.0 0 0 804.09 855.77
  Q 810.62 865.96 812.21 877.85
  Q 814.63 895.82 815.42 907.50
  C 815.68 911.44 816.69 915.41 816.89 919.47
  C 817.04 922.46 818.01 925.57 818.40 927.99
  A 3.16 3.14 78.2 0 1 816.09 931.54
  L 815.88 931.60
  A 2.67 2.67 0.0 0 1 812.59 929.55
  Q 810.64 919.95 810.30 916.49
  Q 809.59 909.35 808.72 902.55
  A 0.34 0.34 0.0 0 0 808.05 902.54
  Q 807.61 905.55 807.80 908.75
  Q 808.49 920.31 809.69 930.56
  C 810.02 933.37 809.43 935.32 806.50 935.39
  A 2.83 2.73 80.1 0 1 803.83 933.44
  C 802.23 928.49 802.14 922.36 801.84 915.34
  A 0.43 0.42 88.6 0 0 801.42 914.93
  L 801.17 914.93
  A 0.01 0.01 0.0 0 0 801.16 914.94
  Q 800.63 921.14 799.92 927.21
  Q 799.50 930.85 798.24 933.97
  C 796.77 937.60 792.52 936.88 791.86 933.36
  Q 791.28 930.23 791.44 925.24
  Q 791.69 917.49 791.97 913.18
  A 0.20 0.19 9.0 0 0 791.82 912.98
  L 791.78 912.97
  A 0.30 0.28 -76.7 0 0 791.44 913.19
  C 791.03 915.03 790.15 918.31 789.89 921.14
  Q 789.34 927.02 787.41 933.16
  C 786.38 936.45 782.19 937.35 781.12 933.89
  A 2.17 2.14 -48.6 0 1 781.06 932.81
  Q 783.63 919.71 784.71 903.99
  Q 784.82 902.31 784.63 899.64
  Q 783.02 908.11 782.25 913.76
  C 781.49 919.32 780.14 922.97 778.27 929.64
  A 3.03 3.02 15.2 0 1 774.46 931.82
  L 774.17 931.72
  A 2.91 2.90 -71.7 0 1 772.33 928.04
  L 773.99 923.06
  A 0.19 0.15 -38.0 0 0 774.01 922.98
  Q 776.70 909.72 777.32 904.86
  Q 780.11 882.67 781.45 875.73
  C 782.95 867.93 784.61 860.55 789.57 854.85
  A 1.25 1.25 0.0 0 0 789.66 853.32
  Q 788.15 851.15 786.98 848.73
  C 783.96 842.47 786.19 836.34 792.00 832.67
  A 2.30 2.28 -16.1 0 0 793.06 830.76
  Q 793.12 820.41 791.70 811.43
  A 0.90 0.90 0.0 0 0 790.83 810.66
  Q 761.06 809.97 736.00 809.76
  Q 732.28 809.73 728.13 810.04
  A 1.11 1.10 1.6 0 0 727.12 810.99
  Q 725.73 820.95 725.89 830.96
  A 1.18 1.18 0.0 0 0 726.44 831.94
  C 734.75 837.19 735.18 845.99 728.91 853.13
  A 1.26 1.26 0.0 0 0 728.89 854.77
  C 734.72 861.80 736.12 868.68 737.83 878.34
  C 740.02 890.67 740.41 900.84 741.47 916.00
  Q 741.66 918.61 743.59 927.74
  A 3.24 3.24 0.0 0 1 741.49 931.61
  L 741.30 931.67
  A 2.51 2.51 0.0 0 1 738.06 929.89
  Q 737.05 925.76 736.64 922.89
  Q 735.56 915.28 733.44 899.33
  A 0.16 0.16 0.0 0 0 733.28 899.19
  L 733.27 899.20
  A 0.16 0.15 -90.0 0 0 733.12 899.36
  Q 732.89 916.50 734.86 932.02
  A 2.58 2.57 86.1 0 1 732.34 934.92
  L 732.05 934.91
  A 3.61 3.60 87.9 0 1 728.54 931.64
  L 727.03 915.73
  A 0.23 0.23 0.0 0 0 726.58 915.71
  Q 726.15 918.12 725.76 924.00
  Q 725.43 929.09 723.29 934.30
  C 721.82 937.87 718.47 937.25 717.34 933.87
  Q 716.24 930.55 716.36 926.75
  Q 716.47 923.35 716.68 915.41
  A 0.25 0.24 54.3 0 0 716.20 915.33
  C 715.77 916.76 715.21 919.80 715.15 921.58
  Q 715.01 926.29 712.58 933.73
  A 3.14 3.14 0.0 0 1 708.67 935.75
  L 708.48 935.69
  A 3.28 3.27 15.0 0 1 706.24 931.82
  Q 709.67 916.97 709.70 901.57
  A 0.14 0.14 0.0 0 0 709.57 901.43
  L 709.56 901.43
  A 0.15 0.15 0.0 0 0 709.40 901.56
  Q 707.44 915.27 703.76 929.89
  A 3.02 3.02 0.0 0 1 700.18 932.11
  L 700.07 932.08
  A 2.78 2.77 13.5 0 1 697.98 928.67
  Q 702.32 911.98 703.60 898.11
  C 705.16 881.36 705.91 868.02 714.47 855.47
  A 1.93 1.93 0.0 0 0 714.28 853.06
  C 708.33 846.76 709.64 836.33 717.07 831.91
  A 1.58 1.57 75.1 0 0 717.84 830.57
  Q 717.93 821.03 715.96 811.03
  A 1.09 1.09 0.0 0 0 714.89 810.15
  L 655.49 810.15
  A 1.07 1.07 0.0 0 0 654.42 811.13
  L 652.67 830.57
  A 2.09 2.06 -73.7 0 0 653.76 832.59
  C 656.42 834.01 658.32 835.97 659.14 839.14
  Q 661.23 847.30 655.19 853.36
  A 1.20 1.20 0.0 0 0 655.02 854.86
  Q 660.95 864.21 662.65 875.54
  C 664.51 887.89 664.33 900.69 665.68 913.62
  C 666.07 917.30 667.42 921.54 668.03 923.98
  C 668.85 927.20 669.67 930.56 666.17 931.64
  A 2.27 2.27 0.0 0 1 663.54 930.60
  Q 662.89 929.45 662.52 927.48
  Q 659.94 913.61 658.41 899.83
  A 0.13 0.13 0.0 0 0 658.28 899.72
  A 0.20 0.19 -1.6 0 0 658.09 899.91
  Q 657.81 916.57 658.97 923.26
  Q 660.25 930.63 660.05 932.13
  A 2.49 2.36 64.7 0 1 659.75 933.04
  Q 659.01 934.34 657.25 934.71
  C 652.09 935.77 652.11 920.11 651.88 915.35
  A 0.16 0.15 -42.8 0 0 651.57 915.34
  Q 650.55 922.62 650.33 925.19
  Q 649.86 930.45 647.95 934.18
  Q 646.34 937.35 643.00 935.06
  Q 641.47 934.01 641.50 930.75
  Q 641.63 914.52 641.63 914.39
  Q 639.80 921.87 638.69 929.54
  Q 638.32 932.08 637.71 933.29
  A 3.44 3.43 -71.8 0 1 634.09 935.13
  C 631.90 934.76 631.51 932.70 631.91 930.58
  Q 634.69 915.71 635.28 899.53
  A 0.14 0.07 19.3 0 0 635.19 899.44
  L 635.15 899.41
  A 0.05 0.03 -74.6 0 0 635.10 899.45
  C 633.77 906.17 633.21 912.42 631.61 918.38
  Q 629.61 925.85 628.65 929.09
  A 2.95 2.95 0.0 0 1 625.10 931.12
  L 624.99 931.10
  A 2.77 2.76 14.6 0 1 622.99 927.70
  Q 626.92 912.98 628.35 902.27
  C 629.86 890.93 630.38 882.73 632.57 873.80
  C 634.63 865.35 635.92 860.31 640.84 854.52
  A 1.61 1.60 48.3 0 0 640.95 852.57
  C 635.97 845.15 635.17 836.47 644.53 831.92
  A 0.42 0.42 0.0 0 0 644.76 831.53
  C 644.46 822.44 644.35 816.49 643.28 810.23
  A 0.56 0.55 85.5 0 0 642.75 809.77
  C 619.65 809.01 597.80 808.18 576.23 809.74
  A 0.98 0.98 0.0 0 0 575.32 810.66
  L 574.18 831.22
  A 1.70 1.69 18.8 0 0 574.92 832.71
  C 583.13 838.20 582.87 846.73 576.75 853.81
  A 0.62 0.61 -43.8 0 0 576.73 854.58
  Q 583.10 862.82 584.88 873.15
  C 586.43 882.17 587.32 888.71 587.55 897.64
  Q 587.72 904.38 588.42 911.88
  C 588.97 917.77 590.64 922.73 591.75 928.33
  A 3.06 3.06 0.0 0 1 589.69 931.85
  L 589.53 931.90
  A 2.55 2.55 0.0 0 1 586.28 930.11
  Q 582.96 917.19 581.48 901.98
  C 581.42 901.34 580.91 900.06 580.88 898.62
  C 580.88 909.09 580.91 920.34 583.43 931.27
  A 3.21 3.20 -13.7 0 1 581.10 935.09
  L 580.83 935.15
  A 3.13 3.13 0.0 0 1 577.05 932.68
  L 573.76 914.98
  A 0.04 0.03 -14.9 0 1 573.78 914.95
  L 573.83 914.92
  A 0.31 0.30 89.0 0 0 573.54 915.23
  Q 573.66 923.54 573.34 929.55
  C 573.23 931.77 572.38 934.55 570.10 935.26
  C 564.38 937.06 564.64 921.44 564.86 918.83
  A 2.36 1.98 -51.3 0 0 564.85 918.36
  L 564.71 916.78
  A 0.18 0.18 0.0 0 0 564.36 916.76
  L 561.51 931.40
  A 3.09 3.08 -79.6 0 1 557.97 933.85
  L 557.78 933.82
  A 2.88 2.87 -80.5 0 1 555.36 930.42
  Q 558.08 916.43 558.61 901.14
  A 0.13 0.12 -85.4 0 0 558.50 901.00
  L 558.49 900.99
  A 0.26 0.25 8.1 0 0 558.20 901.20
  Q 557.56 904.68 557.47 905.45
  Q 556.03 918.62 552.17 929.25
  A 2.40 2.39 -67.4 0 1 548.90 930.60
  L 548.75 930.53
  A 2.87 2.86 -68.5 0 1 547.24 927.05
  Q 550.98 915.52 551.95 905.49
  C 552.89 895.75 552.83 881.78 555.36 871.10
  C 556.76 865.15 559.69 860.03 562.73 854.99
  A 1.44 1.44 0.0 0 0 562.58 853.30
  C 556.91 846.86 557.40 836.81 564.94 832.43
  A 2.58 2.57 74.4 0 0 566.22 830.15
  Q 566.02 820.59 564.33 811.16
  A 0.83 0.83 0.0 0 0 563.46 810.48
  L 511.46 813.88
  A 0.59 0.58 -0.0 0 0 510.92 814.41
  L 509.16 834.02
  A 1.30 1.30 0.0 0 0 509.87 835.30
  C 519.01 839.88 517.92 849.61 511.86 856.10
  A 1.13 1.13 0.0 0 0 511.77 857.54
  C 516.29 863.70 518.30 869.02 519.68 877.32
  Q 522.50 894.32 523.32 909.14
  C 523.73 916.60 525.30 923.11 526.15 930.37
  A 2.82 2.81 -6.5 0 1 523.66 933.49
  L 523.42 933.50
  A 3.19 3.19 0.0 0 1 520.05 930.73
  L 516.11 900.55
  A 0.07 0.06 43.6 0 0 515.98 900.55
  Q 515.35 916.46 517.78 931.99
  Q 518.23 934.89 516.16 936.38
  A 2.82 2.80 48.3 0 1 512.63 936.16
  Q 511.24 934.90 510.91 932.56
  Q 510.50 929.64 509.61 916.44
  A 0.27 0.27 0.0 0 0 509.34 916.19
  L 509.33 916.19
  A 0.28 0.28 0.0 0 0 509.05 916.45
  C 508.48 924.44 508.28 929.89 506.18 935.88
  A 2.12 1.95 -16.0 0 1 505.74 936.60
  Q 503.43 939.09 501.15 936.80
  Q 499.59 935.23 499.54 931.98
  Q 499.36 919.36 499.39 918.22
  A 0.13 0.12 -39.5 0 0 499.14 918.20
  L 495.89 934.30
  A 3.32 3.32 0.0 0 1 492.15 936.92
  L 491.81 936.87
  A 2.85 2.85 0.0 0 1 489.62 933.63
  C 491.47 922.19 492.95 911.62 492.98 901.77
  Q 492.98 901.57 492.87 901.44
  A 0.16 0.16 0.0 0 0 492.60 901.52
  Q 491.69 907.10 489.92 918.19
  Q 489.18 922.80 486.75 930.87
  A 3.24 3.23 -74.5 0 1 482.86 933.08
  L 482.78 933.06
  A 2.92 2.92 0.0 0 1 480.69 929.42
  Q 481.28 927.40 483.75 917.69
  Q 485.19 912.03 485.92 905.84
  Q 487.43 893.05 489.44 879.73
  Q 491.28 867.55 497.59 857.63
  A 1.50 1.49 42.1 0 0 497.50 855.91
  C 492.36 849.40 492.81 838.98 500.58 835.05
  A 2.15 2.15 0.0 0 0 501.76 832.92
  L 500.10 815.40
  A 1.38 1.37 85.5 0 0 498.65 814.16
  Q 472.13 815.78 443.92 815.34
  A 0.88 0.87 -86.8 0 0 443.04 816.13
  L 441.39 834.59
  A 1.12 1.11 16.7 0 0 441.98 835.68
  C 450.23 840.06 450.18 850.97 443.66 856.61
  A 0.95 0.95 0.0 0 0 443.52 857.90
  Q 449.64 866.16 451.35 876.40
  C 453.34 888.29 453.40 896.76 453.50 910.29
  Q 453.52 912.80 453.86 914.57
  C 454.59 918.37 454.59 921.06 455.82 925.08
  Q 456.80 928.29 457.26 931.28
  A 2.88 2.87 78.9 0 1 455.09 934.52
  L 454.97 934.55
  A 2.68 2.67 -12.6 0 1 451.74 932.51
  Q 448.82 918.93 448.54 915.96
  Q 447.73 907.16 446.66 901.06
  Q 446.63 900.89 446.63 900.87
  C 446.63 912.61 446.70 922.15 448.91 931.55
  Q 449.20 932.78 448.91 934.85
  C 448.53 937.53 445.66 938.26 443.71 936.85
  A 1.95 1.90 -84.6 0 1 443.09 936.08
  Q 442.29 934.25 441.95 932.02
  Q 440.99 925.74 439.84 916.92
  A 0.07 0.07 0.0 0 0 439.70 916.92
  Q 438.93 924.20 439.05 932.24
  C 439.08 934.61 437.64 939.89 433.94 937.66
  Q 433.02 937.11 432.35 935.19
  C 430.32 929.36 430.27 923.80 430.68 917.76
  A 0.34 0.33 6.7 0 0 430.40 917.41
  L 430.13 917.36
  A 0.18 0.17 -78.6 0 0 429.94 917.49
  Q 429.58 919.02 429.11 923.87
  Q 428.67 928.47 426.73 934.20
  A 2.75 2.74 20.0 0 1 423.13 935.87
  L 423.02 935.82
  A 3.22 3.21 17.4 0 1 421.07 932.10
  Q 424.59 916.84 424.64 902.45
  A 0.06 0.06 0.0 0 0 424.53 902.44
  Q 421.62 918.79 421.38 920.23
  Q 420.46 925.69 418.78 930.53
  C 418.19 932.25 416.27 933.98 414.46 932.75
  C 411.74 930.91 413.62 926.67 414.79 924.08
  Q 416.17 921.02 417.09 912.68
  Q 418.94 895.97 419.76 886.25
  Q 420.91 872.76 426.82 861.57
  Q 427.98 859.39 430.01 857.23
  A 0.76 0.75 -42.8 0 0 430.05 856.24
  C 424.37 849.24 424.64 839.59 433.35 835.34
  A 1.09 1.09 0.0 0 0 433.97 834.28
  L 432.83 816.92
  A 1.29 1.28 88.1 0 0 431.55 815.72
  L 375.21 815.72
  A 0.29 0.28 -86.6 0 0 374.93 815.98
  C 373.98 824.86 372.96 830.54 373.39 835.26
  A 1.26 1.26 0.0 0 0 374.28 836.36
  Q 374.85 836.53 376.54 838.09
  C 382.58 843.69 380.93 852.03 375.69 857.26
  A 1.26 1.25 -41.3 0 0 375.58 858.91
  Q 380.82 865.66 382.37 874.13
  Q 385.65 892.06 385.80 911.99
  Q 385.86 921.12 389.78 929.99
  Q 390.72 932.13 388.51 934.13
  A 1.71 1.68 -66.5 0 1 387.44 934.56
  Q 384.61 934.66 384.07 931.89
  Q 383.97 931.39 381.72 920.51
  Q 380.77 915.95 380.00 907.73
  Q 379.91 906.71 379.18 904.56
  Q 379.00 904.05 379.10 903.95
  Q 379.59 903.48 379.39 903.41
  A 0.37 0.37 0.0 0 0 378.90 903.81
  Q 378.96 904.16 379.28 916.50
  Q 379.47 923.59 381.23 930.52
  C 381.86 932.98 382.62 937.93 378.07 937.56
  C 375.53 937.36 374.59 933.68 374.46 931.99
  Q 373.93 925.21 373.10 919.41
  A 0.27 0.27 0.0 0 0 372.57 919.42
  Q 371.96 925.27 371.72 930.44
  C 371.61 932.92 370.26 938.73 367.12 938.70
  C 363.28 938.65 363.21 933.27 363.24 930.24
  Q 363.25 928.97 363.01 919.11
  A 0.29 0.29 0.0 0 0 362.73 918.83
  L 362.72 918.83
  A 0.07 0.06 4.7 0 0 362.65 918.88
  L 359.86 934.71
  A 3.56 3.56 0.0 0 1 355.99 937.63
  L 355.81 937.61
  A 2.81 2.81 0.0 0 1 353.49 934.38
  Q 356.20 918.20 356.63 902.64
  Q 355.40 908.75 355.39 908.82
  Q 354.60 914.73 353.63 920.65
  C 352.95 924.76 351.52 927.92 350.58 932.07
  A 3.08 2.98 -86.6 0 1 347.99 934.45
  Q 345.57 934.73 344.90 932.12
  A 1.83 1.76 47.8 0 1 344.93 931.12
  Q 345.10 930.60 347.94 919.18
  Q 349.41 913.25 349.83 907.19
  Q 350.63 895.71 351.51 888.51
  C 352.81 877.82 354.77 866.21 361.75 858.16
  A 1.16 1.15 45.2 0 0 361.75 856.65
  C 356.30 850.37 356.70 839.77 364.65 835.68
  A 1.01 1.00 80.3 0 0 365.18 834.92
  C 365.94 829.43 364.62 823.24 363.77 816.48
  A 0.80 0.80 0.0 0 0 363.00 815.77
  L 307.21 813.80
  A 0.75 0.74 2.4 0 0 306.44 814.50
  L 305.41 832.98
  A 2.07 2.07 0.0 0 0 306.51 834.92
  C 314.68 839.23 314.22 848.97 309.07 855.29
  A 1.22 1.20 -43.5 0 0 309.02 856.75
  Q 314.64 864.55 316.63 874.40
  C 318.08 881.56 319.14 891.87 319.08 900.51
  C 319.04 907.31 319.03 914.84 320.70 920.34
  Q 322.64 926.68 323.72 930.75
  A 2.99 2.98 76.2 0 1 321.50 934.43
  L 321.46 934.43
  A 3.08 3.08 0.0 0 1 317.80 932.19
  C 316.16 925.81 314.31 918.35 313.69 910.65
  C 313.47 907.83 312.86 904.70 312.63 901.37
  L 312.63 901.38
  C 311.96 907.29 312.43 912.87 313.28 923.02
  C 313.59 926.73 314.75 929.87 315.40 933.52
  A 3.39 3.38 -13.7 0 1 313.07 937.34
  L 312.86 937.40
  A 2.81 2.81 0.0 0 1 309.31 935.46
  Q 306.87 926.65 306.51 918.71
  A 0.30 0.30 0.0 0 0 306.21 918.42
  L 305.93 918.42
  A 0.10 0.10 0.0 0 0 305.83 918.54
  Q 305.93 919.22 305.14 931.44
  C 305.03 933.21 304.58 936.70 302.49 937.32
  Q 299.35 938.25 298.40 934.83
  C 296.82 929.17 296.88 924.93 296.90 917.07
  A 0.14 0.14 0.0 0 0 296.77 916.92
  A 0.18 0.18 0.0 0 0 296.58 917.07
  C 295.83 922.82 295.23 929.02 293.09 934.20
  A 3.06 2.60 -71.8 0 1 289.98 936.10
  C 287.05 935.47 287.13 933.34 287.73 930.61
  C 289.69 921.56 290.63 912.26 290.63 902.89
  Q 290.62 902.94 290.62 902.98
  Q 289.14 911.29 287.76 919.60
  C 287.15 923.29 286.01 927.18 284.88 930.92
  A 2.65 2.65 0.0 0 1 281.36 932.62
  L 281.25 932.58
  A 3.07 3.06 -70.7 0 1 279.45 928.84
  Q 282.51 918.82 283.10 914.37
  C 284.86 901.27 285.60 887.29 287.66 875.48
  Q 289.46 865.21 295.61 856.76
  A 0.47 0.47 0.0 0 0 295.57 856.16
  C 289.46 849.67 288.10 839.23 297.36 834.64
  A 0.86 0.86 0.0 0 0 297.84 833.78
  L 295.94 813.73
  A 0.83 0.83 0.0 0 0 295.16 812.98
  L 244.38 810.15
  A 0.83 0.82 -86.0 0 0 243.52 810.91
  L 241.83 829.72
  A 2.07 2.07 0.0 0 0 242.86 831.70
  C 250.95 836.32 250.48 846.30 244.90 852.61
  A 1.60 1.60 0.0 0 0 244.80 854.61
  Q 251.09 863.32 252.64 873.29
  Q 254.96 888.32 255.02 894.50
  C 255.06 899.63 254.90 909.73 256.55 916.75
  Q 257.75 921.83 259.27 927.84
  A 3.12 3.11 74.7 0 1 257.14 931.59
  L 256.95 931.65
  A 2.77 2.77 0.0 0 1 253.47 929.64
  C 250.83 918.59 249.92 909.00 248.76 898.68
  A 0.25 0.25 0.0 0 0 248.50 898.46
  L 248.49 898.46
  A 0.21 0.20 -89.9 0 0 248.30 898.66
  Q 247.96 912.82 250.17 927.37
  C 250.73 931.05 251.72 934.36 247.32 934.84
  A 2.45 2.44 -13.0 0 1 244.74 933.24
  C 242.78 927.79 242.54 922.32 241.84 914.33
  A 0.22 0.22 0.0 0 0 241.62 914.13
  L 241.61 914.13
  A 0.24 0.24 0.0 0 0 241.37 914.36
  C 241.30 916.00 240.85 917.53 240.87 919.23
  Q 240.96 926.43 240.20 931.21
  C 239.66 934.57 235.49 936.22 233.92 932.59
  C 231.48 926.95 231.97 920.08 232.14 913.44
  A 0.26 0.26 0.0 0 0 231.89 913.17
  L 231.86 913.16
  A 0.11 0.10 -82.8 0 0 231.76 913.25
  L 229.20 928.97
  A 4.09 4.09 0.0 0 1 225.27 932.41
  L 224.96 932.41
  A 2.55 2.55 0.0 0 1 222.51 929.34
  Q 225.45 915.31 225.39 901.20
  A 0.11 0.11 0.0 0 0 225.17 901.18
  Q 224.24 906.15 223.77 911.99
  Q 223.42 916.22 220.28 926.65
  C 219.59 928.95 218.03 930.94 215.60 929.60
  A 2.69 2.48 24.2 0 1 214.29 926.52
  Q 218.69 913.98 219.42 899.11
  Q 219.64 894.79 220.15 888.39
  Q 220.50 884.03 220.56 883.23
  Q 221.46 870.81 226.64 859.36
  C 227.70 857.01 229.11 855.27 230.54 853.15
  A 0.92 0.92 0.0 0 0 230.48 852.04
  C 228.16 849.30 226.18 845.77 226.54 842.00
  Q 227.28 834.33 233.28 831.36
  A 1.48 1.47 80.5 0 0 234.08 830.23
  Q 234.56 826.41 234.36 825.26
  Q 232.82 816.53 232.34 810.21
  A 0.85 0.85 0.0 0 0 231.61 809.44
  Q 226.65 808.78 223.75 808.58
  Q 198.53 806.77 180.47 806.11
  A 1.52 1.51 2.5 0 0 178.90 807.54
  L 177.78 827.60
  A 2.16 2.15 19.9 0 0 178.65 829.44
  C 186.03 834.90 186.07 844.09 180.03 850.56
  A 1.33 1.33 0.0 0 0 179.88 852.20
  C 186.99 863.20 188.74 875.76 189.13 889.01
  Q 189.36 896.60 190.27 909.91
  C 190.64 915.42 192.51 920.36 193.77 925.79
  A 2.89 2.88 76.7 0 1 191.64 929.25
  L 191.52 929.28
  A 2.78 2.78 0.0 0 1 188.15 927.21
  Q 184.60 911.88 183.50 898.36
  A 0.20 0.20 0.0 0 0 183.29 898.17
  L 183.28 898.17
  A 0.23 0.22 -1.4 0 0 183.06 898.39
  Q 183.08 914.53 183.62 917.48
  Q 184.81 924.03 185.35 929.26
  A 2.68 2.68 0.0 0 1 184.05 931.83
  Q 181.07 933.61 179.54 930.47
  C 177.20 925.64 177.23 919.67 176.63 914.07
  A 0.32 0.32 0.0 0 0 176.01 914.00
  C 174.67 917.83 176.81 923.98 174.77 929.57
  C 173.83 932.14 170.85 933.56 168.97 930.88
  Q 167.60 928.93 167.46 924.68
  Q 167.24 918.44 166.63 912.25
  Q 166.63 912.20 166.63 912.14
  Q 165.43 919.02 163.77 927.15
  A 4.17 4.16 -86.1 0 1 159.95 930.49
  L 159.89 930.50
  A 2.41 2.41 0.0 0 1 157.36 927.66
  Q 159.49 916.24 160.47 905.74
  Q 160.82 901.98 160.63 896.89
  Z"
/>
</svg>
