<?xml version="1.0" encoding="UTF-8" standalone="no"?>
<!DOCTYPE svg PUBLIC "-//W3C//DTD SVG 1.1//EN" "http://www.w3.org/Graphics/SVG/1.1/DTD/svg11.dtd">
<svg xmlns="http://www.w3.org/2000/svg" version="1.1" viewBox="0.00 0.00 1536.00 1024.00">
<path fill="#dab4fb" d="
  M 890.98 920.82
  Q 869.35 932.41 850.30 939.20
  Q 843.09 941.77 828.13 945.42
  Q 816.71 948.19 805.42 949.51
  Q 774.06 953.18 745.65 949.50
  Q 718.36 945.96 688.21 933.43
  Q 682.09 930.89 676.49 927.78
  Q 671.43 924.98 664.90 921.53
  Q 658.80 918.31 650.84 912.27
  A 0.99 0.99 0.0 0 0 649.69 912.23
  C 596.39 947.86 528.84 959.29 466.83 945.84
  Q 455.09 943.29 438.73 937.44
  Q 425.12 932.59 411.87 925.50
  Q 394.52 916.24 382.14 907.08
  Q 372.05 899.62 360.76 888.98
  Q 355.35 883.89 351.32 878.65
  A 1.95 1.95 0.0 0 0 349.30 877.95
  C 339.84 880.28 335.48 881.57 327.69 882.90
  Q 293.89 888.68 258.54 885.98
  Q 240.94 884.64 222.73 880.50
  Q 202.57 875.92 187.97 870.26
  Q 175.02 865.25 155.38 854.97
  C 149.68 851.98 144.51 848.16 139.08 844.96
  Q 136.27 843.31 132.70 840.73
  Q 95.69 813.89 70.67 778.11
  Q 69.11 775.88 62.54 765.39
  C 55.18 753.66 49.93 742.20 44.56 729.22
  C 38.76 715.23 34.80 699.23 32.49 686.00
  Q 22.41 628.34 42.13 573.86
  C 45.97 563.25 50.93 551.44 56.86 541.17
  Q 67.16 523.35 79.36 508.24
  Q 84.02 502.47 90.37 495.97
  C 95.43 490.81 100.68 485.25 106.12 480.60
  Q 112.01 475.55 125.38 465.53
  C 131.31 461.09 138.08 457.81 143.36 454.23
  C 148.85 450.51 156.67 447.61 162.59 444.74
  C 167.96 442.13 171.33 441.06 178.40 438.47
  A 1.31 1.31 0.0 0 0 179.24 437.01
  Q 177.45 426.53 176.50 414.47
  Q 173.22 372.52 189.90 333.09
  Q 200.69 307.59 216.85 286.59
  Q 221.74 280.24 231.90 268.92
  Q 237.36 262.84 252.76 249.80
  Q 262.79 241.31 284.37 228.36
  Q 286.03 227.36 298.12 221.73
  C 317.51 212.70 338.77 207.01 359.30 204.37
  C 380.63 201.64 403.50 202.14 425.07 206.67
  Q 436.50 209.07 437.18 209.16
  A 1.01 0.99 24.8 0 0 438.05 208.85
  Q 438.18 208.71 442.62 198.09
  Q 448.72 183.49 457.67 168.93
  C 461.36 162.93 465.79 157.33 469.66 151.67
  C 471.05 149.64 474.12 146.70 476.08 144.10
  Q 479.35 139.78 487.05 131.79
  Q 516.26 101.49 554.01 83.04
  Q 559.81 80.20 570.45 75.83
  Q 579.53 72.11 587.34 69.73
  Q 619.73 59.84 650.26 58.68
  Q 675.85 57.71 705.94 63.04
  Q 709.57 63.69 723.26 67.45
  Q 733.30 70.20 740.30 72.86
  Q 796.36 94.14 836.92 138.17
  A 1.39 1.38 -40.9 0 0 838.81 138.30
  C 843.89 134.16 847.36 132.32 852.44 128.22
  Q 853.99 126.97 859.69 123.42
  Q 891.85 103.40 927.61 95.49
  C 1001.43 79.16 1078.51 103.71 1129.08 160.17
  C 1152.41 186.22 1167.96 218.20 1174.75 252.65
  A 0.71 0.71 0.0 0 0 1175.54 253.22
  Q 1189.33 251.30 1202.75 251.44
  Q 1237.92 251.79 1269.25 262.27
  Q 1298.08 271.91 1323.67 290.31
  Q 1366.37 321.01 1388.81 368.67
  Q 1390.44 372.11 1394.23 381.84
  C 1410.28 423.08 1410.58 469.42 1397.34 511.46
  A 0.35 0.34 23.6 0 0 1397.51 511.87
  C 1425.99 526.90 1451.47 548.49 1470.22 574.55
  Q 1476.51 583.29 1484.17 597.32
  C 1512.37 648.98 1513.56 713.13 1491.30 767.16
  Q 1477.78 799.99 1453.49 827.20
  C 1416.63 868.52 1364.75 894.19 1310.07 900.69
  Q 1273.85 904.99 1238.03 899.88
  Q 1223.92 897.86 1202.93 892.41
  Q 1197.04 890.88 1192.67 889.30
  C 1187.36 887.38 1183.75 886.60 1179.25 884.60
  Q 1175.16 882.79 1165.91 878.97
  A 1.53 1.52 -58.0 0 0 1164.19 879.37
  Q 1154.72 890.13 1143.33 899.17
  Q 1086.30 944.43 1014.08 948.33
  Q 968.85 950.77 925.06 935.52
  C 919.06 933.44 912.82 929.97 907.69 928.08
  C 902.67 926.23 899.02 923.79 893.36 920.81
  A 2.57 2.54 44.4 0 0 890.98 920.82
  Z
  M 1334.11 536.30
  C 1333.54 532.16 1338.30 527.95 1339.79 524.16
  C 1341.74 519.21 1344.39 514.96 1346.48 509.22
  Q 1350.60 497.91 1350.92 496.90
  C 1358.74 472.29 1360.65 446.01 1355.06 421.09
  C 1351.62 405.76 1347.05 392.39 1339.56 378.95
  Q 1332.94 367.08 1323.22 355.71
  Q 1294.12 321.66 1250.63 307.59
  C 1221.51 298.17 1190.29 298.01 1160.70 304.97
  Q 1148.94 307.74 1137.02 311.76
  C 1132.88 313.16 1132.13 310.37 1132.14 306.88
  Q 1132.22 277.27 1123.54 248.46
  Q 1116.12 223.82 1101.02 203.51
  C 1097.32 198.53 1091.82 191.76 1086.99 186.94
  Q 1066.01 166.02 1038.97 153.67
  C 1032.93 150.91 1026.47 148.71 1020.06 146.73
  C 975.19 132.89 927.39 139.77 886.74 163.44
  Q 866.52 175.21 850.37 192.12
  Q 842.80 200.04 834.02 211.26
  C 831.15 214.92 828.85 212.63 827.03 209.58
  Q 820.79 199.09 819.75 197.09
  Q 816.51 190.88 811.86 185.12
  Q 803.00 174.13 797.10 167.80
  C 793.69 164.14 788.19 159.45 785.56 157.01
  Q 781.01 152.78 776.54 149.44
  Q 766.36 141.84 763.92 140.23
  Q 757.23 135.79 743.61 128.25
  Q 738.86 125.62 726.17 120.81
  Q 699.67 110.78 672.36 108.80
  C 638.20 106.33 602.64 114.48 572.14 129.71
  C 540.41 145.55 513.33 170.73 495.68 201.43
  Q 479.19 230.11 473.37 263.45
  Q 472.90 266.17 471.92 270.07
  C 470.80 274.50 466.18 272.17 462.89 270.86
  C 457.93 268.89 451.38 265.07 445.16 263.26
  Q 431.08 259.18 428.28 258.38
  Q 389.87 247.50 349.89 256.55
  Q 300.76 267.67 266.47 303.17
  Q 244.77 325.64 233.75 354.99
  Q 219.48 392.99 228.30 432.75
  Q 230.06 440.68 233.38 451.39
  Q 233.97 453.32 238.35 463.89
  C 239.68 467.09 241.87 471.24 236.71 471.96
  Q 213.54 475.19 190.26 484.58
  Q 152.12 499.97 124.15 529.94
  C 102.24 553.42 86.79 584.48 80.59 615.82
  C 74.05 648.84 77.88 683.19 90.90 714.39
  C 100.29 736.89 113.63 758.01 130.76 775.36
  Q 138.65 783.36 141.63 785.93
  Q 189.67 827.44 251.40 835.79
  C 281.21 839.82 312.13 837.66 341.60 829.15
  Q 352.04 826.13 362.77 822.03
  Q 365.70 820.91 368.44 822.54
  A 1.95 1.84 0.3 0 1 369.07 823.14
  Q 380.42 840.51 390.64 850.67
  C 402.30 862.25 414.65 872.39 429.16 880.56
  Q 464.70 900.55 504.93 903.33
  C 515.12 904.03 527.79 903.81 537.23 903.01
  Q 557.65 901.27 577.95 894.42
  C 590.38 890.22 603.99 884.28 615.48 877.34
  C 621.66 873.60 626.82 869.35 632.42 865.63
  Q 635.13 863.83 640.48 859.21
  Q 643.54 856.57 648.50 852.69
  Q 651.25 850.54 654.28 853.00
  C 659.97 857.61 664.68 863.20 670.86 867.87
  Q 684.29 878.03 688.65 880.60
  Q 713.30 895.12 740.84 900.87
  Q 746.76 902.11 750.13 902.43
  C 758.61 903.25 765.99 904.36 773.55 904.37
  Q 795.14 904.39 813.14 900.82
  Q 844.26 894.64 872.93 876.41
  Q 876.34 874.23 879.16 872.02
  C 882.74 869.20 884.33 868.10 888.49 865.26
  Q 891.66 863.10 894.55 864.83
  Q 897.98 866.87 902.77 870.69
  C 908.02 874.87 914.05 877.73 919.59 881.28
  Q 922.48 883.12 928.28 885.72
  Q 945.50 893.43 959.79 896.87
  Q 1000.13 906.59 1042.43 897.53
  Q 1048.71 896.18 1057.78 893.24
  Q 1068.09 889.89 1072.69 887.66
  C 1080.68 883.77 1086.72 881.12 1092.85 877.36
  Q 1122.35 859.27 1143.14 831.13
  Q 1146.25 826.93 1148.63 823.08
  C 1150.76 819.64 1154.97 820.88 1157.98 822.53
  Q 1184.70 837.20 1213.24 845.48
  C 1259.63 858.94 1311.39 858.97 1355.59 839.53
  Q 1371.94 832.34 1384.90 823.89
  Q 1402.37 812.48 1417.32 796.56
  C 1422.88 790.63 1427.38 783.49 1432.17 777.62
  C 1433.36 776.17 1434.37 774.24 1435.63 772.36
  Q 1437.03 770.24 1437.93 768.25
  C 1440.14 763.32 1443.44 758.13 1445.84 752.77
  Q 1460.34 720.39 1459.17 684.50
  C 1457.73 640.57 1436.32 600.76 1402.64 572.60
  Q 1392.07 563.75 1385.82 559.93
  Q 1371.06 550.88 1355.61 544.91
  Q 1351.88 543.46 1341.76 540.01
  Q 1338.63 538.93 1336.29 538.64
  A 2.77 2.50 89.0 0 1 1334.11 536.30
  Z"
/>
</svg>
