<?xml version="1.0" encoding="UTF-8" standalone="no"?>
<!DOCTYPE svg PUBLIC "-//W3C//DTD SVG 1.1//EN" "http://www.w3.org/Graphics/SVG/1.1/DTD/svg11.dtd">
<svg xmlns="http://www.w3.org/2000/svg" version="1.1" viewBox="0.00 0.00 1536.00 1024.00">
<path fill="#9e6dc8" d="
  M 842.11 911.46
  C 837.27 909.77 836.12 905.98 836.03 900.65
  Q 835.85 891.25 832.22 881.97
  Q 822.18 856.37 799.27 844.20
  C 791.81 840.24 780.66 836.96 771.18 837.04
  C 762.92 837.12 758.63 837.01 752.05 838.74
  Q 724.51 845.97 709.87 870.57
  Q 701.86 884.02 700.78 898.26
  C 700.31 904.52 700.43 909.75 694.25 911.60
  A 2.16 1.87 -49.1 0 1 693.69 911.68
  Q 675.93 911.66 209.75 911.66
  C 192.30 911.66 178.48 912.23 165.48 910.39
  C 128.18 905.12 96.68 879.19 81.94 844.79
  C 75.55 829.88 73.35 815.49 73.39 799.44
  Q 73.51 738.62 73.28 677.75
  Q 73.25 670.72 73.64 667.83
  C 74.23 663.40 77.25 661.02 81.88 659.29
  C 88.03 657.01 92.06 654.87 96.90 650.65
  Q 101.98 646.21 104.30 643.53
  C 110.84 635.96 114.62 624.37 112.20 614.27
  C 109.89 604.59 106.07 599.84 98.36 592.80
  Q 91.23 586.29 82.93 583.67
  Q 77.47 581.94 76.82 581.12
  C 74.58 578.27 73.21 576.54 73.42 572.71
  Q 73.50 571.09 73.34 551.01
  C 73.29 543.71 78.62 542.10 84.25 539.75
  Q 99.15 533.52 108.09 520.65
  C 117.91 506.49 115.26 489.07 103.19 477.35
  Q 95.12 469.53 87.38 465.63
  Q 86.35 465.11 82.05 463.78
  C 76.49 462.07 73.21 458.75 73.36 452.88
  Q 73.46 449.24 73.38 433.71
  Q 73.35 428.56 74.28 426.93
  C 75.95 424.01 77.68 422.50 81.23 421.17
  Q 89.63 418.01 98.88 409.88
  C 107.25 402.50 113.51 391.62 111.22 380.04
  C 109.38 370.71 104.37 364.86 97.03 358.84
  Q 88.89 352.16 78.96 348.96
  Q 75.54 347.85 74.15 344.40
  Q 73.39 342.49 73.38 337.84
  Q 73.26 257.95 73.47 217.75
  C 73.57 199.15 77.98 179.53 88.14 162.89
  C 104.95 135.38 131.53 116.76 163.33 111.28
  Q 172.89 109.63 195.26 109.60
  Q 450.84 109.32 688.79 109.25
  C 694.23 109.25 697.03 109.47 699.30 113.91
  Q 699.92 115.10 700.17 118.72
  Q 700.85 128.63 702.26 133.23
  Q 708.71 154.38 724.34 167.40
  Q 740.47 180.84 761.74 183.07
  Q 782.27 185.23 801.43 174.94
  Q 804.16 173.48 809.60 169.50
  C 824.33 158.73 833.59 141.15 836.04 123.37
  C 837.15 115.34 835.97 109.03 846.33 108.87
  Q 857.68 108.71 858.00 108.71
  Q 914.58 108.61 1353.25 108.73
  Q 1363.75 108.73 1365.76 108.83
  Q 1390.07 110.01 1410.78 122.73
  C 1429.22 134.05 1444.34 150.36 1453.17 170.35
  Q 1462.75 192.03 1462.96 215.49
  Q 1463.17 238.51 1462.68 296.58
  C 1462.57 310.31 1462.94 323.12 1462.80 340.26
  C 1462.76 344.55 1460.01 347.00 1455.68 348.87
  Q 1447.65 352.32 1439.53 359.57
  C 1432.72 365.65 1428.86 372.73 1427.24 381.25
  C 1425.77 388.96 1429.93 398.33 1434.54 404.43
  Q 1438.30 409.39 1447.36 416.11
  C 1450.85 418.69 1455.82 420.44 1459.11 422.24
  A 3.33 3.31 82.0 0 1 1459.90 422.84
  Q 1462.89 425.90 1462.90 428.33
  Q 1462.95 444.96 1462.94 453.57
  C 1462.94 457.15 1461.94 459.46 1459.42 461.61
  A 3.06 3.05 14.6 0 1 1458.48 462.16
  Q 1453.12 464.13 1451.27 465.00
  C 1432.42 473.89 1417.58 492.61 1426.09 514.35
  C 1431.09 527.11 1445.13 537.47 1457.78 541.45
  C 1462.00 542.78 1463.00 547.29 1462.91 551.82
  Q 1462.80 556.71 1462.96 574.14
  Q 1462.98 577.28 1461.23 579.64
  C 1458.86 582.82 1454.50 582.99 1450.83 585.10
  Q 1439.38 591.67 1433.70 599.71
  Q 1419.07 620.41 1432.98 641.24
  Q 1440.93 653.16 1455.99 659.32
  Q 1459.80 660.88 1460.90 662.11
  Q 1462.97 664.43 1462.97 667.25
  Q 1462.98 768.25 1462.97 805.24
  C 1462.95 857.32 1423.07 903.43 1371.43 910.72
  Q 1364.39 911.71 1336.05 911.71
  Q 1080.49 911.67 843.30 911.67
  A 3.55 3.44 54.1 0 1 842.11 911.46
  Z
  M 1410.85 440.58
  C 1398.24 428.55 1388.12 411.94 1385.78 394.98
  C 1381.74 365.69 1394.48 341.47 1416.76 322.67
  C 1419.51 320.35 1420.62 318.54 1420.64 315.01
  Q 1420.95 267.29 1420.70 218.26
  Q 1420.64 204.54 1416.19 193.58
  C 1408.36 174.28 1390.99 158.46 1369.69 154.56
  Q 1364.53 153.61 1354.65 153.64
  Q 1177.58 154.06 940.50 153.86
  Q 900.15 153.82 872.16 154.01
  A 1.06 1.06 0.0 0 0 871.19 154.68
  C 854.98 197.06 816.02 224.44 769.60 224.12
  Q 759.65 224.05 756.22 223.63
  Q 724.08 219.70 700.80 201.93
  Q 677.39 184.05 666.19 156.61
  Q 665.05 153.81 661.53 153.82
  Q 521.85 154.07 192.28 153.49
  Q 173.57 153.46 166.86 154.93
  C 141.84 160.42 122.49 179.87 116.90 205.04
  Q 115.29 212.26 115.41 231.08
  Q 115.67 271.98 115.40 310.38
  Q 115.37 314.17 116.05 318.11
  A 4.86 4.83 -76.4 0 0 117.91 321.18
  C 129.99 330.33 140.25 340.48 147.18 354.30
  Q 157.81 375.52 152.86 399.39
  C 149.69 414.65 139.45 430.44 127.59 440.84
  A 0.96 0.95 43.6 0 0 127.63 442.30
  Q 133.25 446.77 137.33 451.92
  C 140.46 455.89 145.25 462.08 147.98 467.41
  C 165.02 500.60 155.32 537.78 128.08 561.79
  A 0.65 0.65 0.0 0 0 128.10 562.78
  C 134.14 567.86 138.39 573.41 143.00 580.40
  C 156.75 601.26 159.14 626.16 149.79 649.27
  C 143.67 664.39 132.85 677.92 119.26 687.27
  C 116.76 688.99 115.51 690.89 115.50 693.76
  Q 115.46 706.04 115.17 789.09
  Q 115.10 808.64 116.73 815.79
  Q 121.06 834.82 134.77 848.21
  Q 154.17 867.17 181.75 867.20
  C 307.24 867.33 422.94 867.10 652.50 866.92
  Q 656.85 866.92 664.63 866.78
  A 1.39 1.39 0.0 0 0 665.91 865.89
  Q 670.16 854.90 677.79 843.54
  C 695.82 816.69 725.12 798.93 757.74 795.97
  Q 766.64 795.16 769.94 795.24
  Q 812.51 796.31 843.55 825.16
  Q 856.58 837.27 864.58 852.60
  Q 866.45 856.18 870.91 865.99
  A 1.43 1.42 84.3 0 0 871.88 866.79
  Q 873.58 867.17 876.72 867.17
  Q 1251.66 867.34 1351.25 867.30
  Q 1359.60 867.30 1366.24 866.45
  C 1381.95 864.43 1396.43 855.18 1406.41 842.99
  Q 1415.74 831.59 1419.19 816.62
  Q 1420.71 809.99 1420.62 794.28
  Q 1420.37 749.96 1420.42 694.00
  C 1420.42 690.95 1419.82 688.98 1417.41 687.10
  C 1408.39 680.03 1400.10 670.29 1394.65 660.63
  C 1380.24 635.04 1380.54 604.25 1396.63 579.39
  Q 1402.02 571.06 1409.68 563.04
  A 0.83 0.83 0.0 0 0 1409.63 561.84
  C 1389.66 544.03 1378.92 519.44 1382.09 492.55
  C 1383.41 481.41 1388.09 468.36 1395.26 458.64
  Q 1400.36 451.71 1402.82 448.78
  Q 1405.53 445.55 1410.84 441.05
  A 0.31 0.31 0.0 0 0 1410.85 440.58
  Z"
/>
<rect fill="#9e6dc8" x="-7.50" y="-19.34" transform="translate(767.92,267.54) rotate(0.1)" width="15.00" height="38.68" rx="7.20"/>
<rect fill="#9e6dc8" x="760.41" y="315.52" width="15.08" height="38.28" rx="7.23"/>
<rect fill="#9e6dc8" x="-7.56" y="-19.16" transform="translate(767.96,400.48) rotate(0.1)" width="15.12" height="38.32" rx="7.24"/>
<rect fill="#9e6dc8" x="-7.51" y="-19.19" transform="translate(767.95,466.43) rotate(-0.1)" width="15.02" height="38.38" rx="7.20"/>
<rect fill="#9e6dc8" x="-7.50" y="-19.28" transform="translate(767.97,532.11) rotate(0.2)" width="15.00" height="38.56" rx="7.19"/>
<rect fill="#9e6dc8" x="-7.54" y="-19.32" transform="translate(767.95,600.41) rotate(0.2)" width="15.08" height="38.64" rx="7.23"/>
<rect fill="#9e6dc8" x="760.41" y="650.41" width="15.08" height="38.42" rx="7.23"/>
<rect fill="#9e6dc8" x="-7.54" y="-19.41" transform="translate(767.94,739.42) rotate(0.1)" width="15.08" height="38.82" rx="7.24"/>
</svg>
