<?xml version="1.0" encoding="UTF-8" standalone="no"?>
<!DOCTYPE svg PUBLIC "-//W3C//DTD SVG 1.1//EN" "http://www.w3.org/Graphics/SVG/1.1/DTD/svg11.dtd">
<svg xmlns="http://www.w3.org/2000/svg" version="1.1" viewBox="0.00 0.00 1536.00 1024.00">
<path fill="#ffacbd" d="
  M 766.64 912.09
  A 1.88 1.87 44.3 0 0 764.60 912.11
  Q 758.98 915.78 754.53 918.00
  Q 732.04 929.28 707.07 933.86
  Q 672.59 940.19 639.26 937.78
  Q 612.34 935.84 593.50 932.46
  Q 593.39 932.44 575.05 929.36
  Q 546.95 924.65 534.76 923.06
  C 505.58 919.24 478.33 916.36 452.50 916.99
  Q 417.57 917.85 382.12 923.16
  Q 368.14 925.25 356.74 926.73
  C 350.70 927.52 343.03 929.30 338.37 929.88
  C 327.27 931.27 315.63 933.45 304.45 934.80
  Q 299.42 935.40 289.26 936.65
  Q 264.45 939.69 235.00 938.49
  Q 223.42 938.02 211.73 936.04
  Q 191.67 932.64 189.16 931.89
  Q 176.19 928.00 170.89 925.82
  Q 169.37 925.20 159.27 920.45
  C 152.15 917.11 145.57 912.14 138.96 908.41
  Q 138.11 907.93 131.12 901.50
  Q 126.24 897.01 124.97 895.91
  C 119.19 890.89 115.68 885.95 111.08 879.36
  C 102.94 867.68 97.12 854.31 93.60 840.95
  C 91.98 834.82 90.03 827.55 89.31 821.51
  Q 86.40 796.74 86.52 781.24
  Q 86.82 743.87 90.40 709.28
  Q 91.28 700.81 94.25 674.25
  C 95.74 660.97 97.38 645.13 96.96 630.55
  Q 96.43 612.07 93.86 597.53
  C 87.98 564.18 79.72 526.97 104.88 498.55
  A 1.52 1.51 52.3 0 0 105.09 496.86
  Q 99.42 485.95 97.26 474.73
  Q 93.62 455.81 94.62 439.11
  Q 95.39 426.27 97.26 406.00
  Q 100.03 376.02 95.22 347.00
  Q 92.17 328.58 86.53 303.90
  C 79.97 275.27 76.13 250.85 76.96 223.53
  Q 78.14 184.67 95.91 151.25
  C 102.14 139.54 110.19 129.35 118.90 119.90
  Q 124.33 114.01 133.68 107.22
  Q 159.34 88.60 189.37 81.68
  Q 212.85 76.28 236.00 75.54
  Q 254.68 74.94 275.18 75.88
  Q 310.78 77.51 340.74 81.31
  Q 361.11 83.90 406.26 90.92
  C 416.16 92.46 423.13 93.26 434.32 94.73
  Q 460.62 98.19 492.25 98.86
  C 510.19 99.24 526.99 98.01 546.10 96.76
  Q 554.51 96.21 565.38 94.99
  Q 593.05 91.89 621.62 86.78
  Q 635.51 84.29 639.28 83.79
  C 646.85 82.79 654.30 81.28 662.95 80.51
  Q 679.24 79.07 686.25 78.70
  Q 709.16 77.52 732.21 81.85
  C 738.95 83.11 745.39 84.70 752.13 88.07
  Q 762.07 93.05 763.25 93.79
  Q 768.47 97.05 773.97 102.17
  A 3.07 3.07 0.0 0 0 777.06 102.82
  C 781.98 101.11 787.87 98.20 793.01 96.99
  C 798.45 95.70 806.47 92.25 813.27 90.84
  Q 830.13 87.35 837.28 86.54
  Q 866.17 83.26 896.75 85.58
  Q 924.55 87.70 954.01 91.77
  Q 995.78 97.53 1040.24 100.79
  Q 1077.84 103.54 1112.03 101.42
  Q 1119.31 100.98 1124.43 100.28
  C 1134.73 98.88 1143.73 98.22 1152.60 96.32
  C 1159.88 94.76 1167.02 93.07 1173.52 92.10
  C 1184.59 90.44 1196.22 86.71 1208.46 84.54
  Q 1223.95 81.78 1224.82 81.64
  Q 1243.35 78.51 1269.00 76.80
  Q 1290.05 75.39 1317.02 77.62
  Q 1325.02 78.29 1331.65 79.60
  C 1343.65 81.97 1355.82 84.48 1365.93 88.62
  C 1374.30 92.05 1379.85 93.99 1386.32 97.77
  Q 1397.54 104.31 1399.76 105.98
  C 1406.94 111.34 1414.51 117.83 1420.37 125.65
  C 1423.77 130.20 1427.93 134.78 1430.80 140.42
  C 1434.88 148.47 1438.30 154.11 1440.44 161.24
  C 1441.76 165.66 1443.69 170.23 1444.87 175.05
  Q 1451.76 203.24 1452.59 233.26
  C 1452.98 247.53 1453.16 262.91 1452.31 276.92
  Q 1450.52 306.74 1445.27 336.80
  C 1441.33 359.34 1438.01 381.99 1435.94 404.50
  Q 1435.34 411.02 1434.80 432.86
  Q 1434.58 441.66 1434.16 445.67
  C 1433.52 451.76 1433.69 457.30 1432.72 462.75
  C 1430.20 476.98 1426.44 488.87 1418.63 499.77
  A 1.35 1.34 43.8 0 0 1418.67 501.39
  Q 1424.09 508.19 1428.32 517.67
  Q 1432.29 526.58 1434.14 531.33
  C 1437.14 539.05 1437.74 543.95 1439.77 554.26
  Q 1441.23 561.68 1441.45 566.28
  C 1441.81 573.57 1442.84 582.51 1442.72 590.58
  Q 1442.60 597.85 1442.85 614.74
  Q 1443.25 641.69 1447.95 667.78
  Q 1451.31 686.39 1453.10 696.85
  Q 1457.22 720.96 1459.38 747.25
  Q 1462.31 782.84 1456.93 818.21
  Q 1452.21 849.25 1437.32 874.62
  Q 1423.39 898.35 1400.58 913.04
  Q 1379.44 926.66 1354.31 933.51
  C 1311.28 945.23 1265.13 941.99 1221.13 934.84
  Q 1205.31 932.26 1200.37 931.59
  Q 1193.48 930.65 1188.72 929.50
  C 1183.86 928.32 1178.89 928.08 1173.10 927.14
  Q 1147.52 922.98 1117.85 919.93
  C 1093.71 917.44 1068.09 916.07 1043.75 917.46
  C 1007.05 919.55 977.14 924.58 935.11 931.87
  C 931.26 932.53 926.31 932.94 922.14 933.64
  Q 903.32 936.78 882.75 937.87
  C 861.34 939.01 839.04 937.59 817.85 932.67
  Q 806.83 930.11 803.72 929.33
  C 797.49 927.76 791.40 924.38 785.83 922.17
  Q 777.04 918.68 766.64 912.09
  Z
  M 756.77 113.15
  A 0.50 0.49 -54.3 0 0 756.66 112.45
  Q 750.68 108.18 743.18 104.93
  Q 736.89 102.20 728.37 100.85
  Q 699.84 96.32 671.97 99.38
  Q 653.42 101.41 624.47 106.85
  Q 604.01 110.70 573.37 114.35
  Q 503.11 122.73 433.75 114.93
  C 425.24 113.97 416.21 112.89 409.11 111.77
  Q 375.85 106.51 361.93 104.40
  Q 330.07 99.57 292.55 96.23
  Q 264.35 93.71 242.25 94.28
  C 218.97 94.89 196.95 97.84 175.21 105.67
  Q 161.26 110.69 146.55 121.01
  Q 140.67 125.15 135.57 130.14
  Q 127.22 138.34 125.56 140.31
  Q 121.66 144.96 113.92 157.50
  C 111.04 162.17 109.43 166.96 107.15 171.87
  Q 104.75 177.02 102.92 182.99
  C 98.60 197.14 95.78 212.50 95.82 227.25
  Q 95.85 240.13 95.88 240.76
  Q 95.99 243.66 97.24 256.55
  C 98.85 273.25 102.17 289.79 106.08 306.47
  C 109.68 321.81 112.81 337.31 114.57 348.64
  Q 118.82 375.95 116.41 403.75
  Q 116.08 407.66 113.93 430.81
  Q 113.06 440.16 113.69 458.48
  C 114.02 468.03 117.21 475.96 120.05 485.55
  A 0.85 0.85 0.0 0 0 121.26 486.06
  Q 127.23 482.83 132.29 480.40
  C 139.31 477.03 146.75 477.07 154.31 477.81
  C 158.94 478.27 163.35 478.63 167.03 480.23
  Q 181.18 486.37 185.61 499.79
  C 189.35 511.13 186.23 522.55 176.67 529.88
  Q 171.61 533.77 162.96 534.95
  C 158.41 535.58 151.06 535.63 147.18 534.08
  Q 137.95 530.38 136.29 529.71
  C 131.29 527.69 127.63 525.19 123.35 520.78
  Q 120.37 517.70 117.04 515.05
  A 1.05 1.04 -51.2 0 0 115.57 515.22
  C 107.14 525.68 106.72 538.65 106.57 552.51
  Q 106.50 558.81 107.65 565.23
  Q 109.23 574.01 109.39 575.33
  C 110.96 588.63 113.87 602.74 115.24 614.76
  Q 117.47 634.27 115.43 655.75
  C 112.91 682.29 109.49 709.12 107.59 734.00
  Q 106.74 745.09 105.97 765.49
  Q 104.82 796.31 109.42 823.86
  Q 111.54 836.58 117.77 852.05
  C 119.50 856.35 121.99 859.87 124.36 864.48
  C 127.94 871.42 133.97 877.29 139.57 883.42
  C 143.74 887.98 147.62 890.20 154.22 894.97
  C 163.33 901.54 174.30 905.99 184.45 909.78
  Q 192.70 912.86 205.43 915.26
  Q 221.33 918.25 228.56 918.86
  Q 254.88 921.06 285.80 918.06
  Q 301.79 916.51 338.76 910.87
  C 348.18 909.43 355.43 908.67 361.70 907.54
  Q 371.26 905.82 378.89 905.10
  C 387.47 904.30 398.86 902.31 408.72 901.47
  Q 429.01 899.74 435.50 899.47
  Q 460.87 898.41 485.50 899.71
  C 498.80 900.41 513.36 902.04 527.31 903.43
  C 535.49 904.25 547.32 906.71 557.27 907.97
  Q 566.91 909.19 579.04 911.40
  C 590.99 913.58 602.15 915.00 611.49 916.65
  C 616.69 917.57 622.12 917.60 626.61 918.23
  Q 633.79 919.23 637.93 919.42
  Q 654.75 920.20 664.72 920.08
  C 673.60 919.96 683.09 918.44 690.74 917.73
  Q 697.48 917.10 705.05 915.63
  Q 714.94 913.70 719.11 912.31
  C 725.70 910.12 731.36 908.57 737.19 905.87
  Q 747.87 900.92 749.21 900.15
  A 1.33 1.33 0.0 0 0 749.46 898.03
  L 742.19 891.13
  A 5.32 5.22 5.2 0 1 741.40 890.20
  Q 734.54 879.70 733.48 877.76
  C 730.10 871.59 728.18 860.88 729.42 853.85
  C 731.03 844.71 735.60 836.85 743.14 831.47
  C 749.05 827.24 753.84 825.04 760.97 824.65
  C 767.11 824.31 771.34 823.94 776.63 825.15
  C 784.28 826.90 794.77 835.17 797.77 842.47
  Q 798.67 844.65 799.51 848.00
  C 800.56 852.18 801.77 856.92 801.15 861.50
  Q 799.31 875.03 791.46 886.90
  C 788.67 891.11 784.76 894.23 781.34 898.14
  A 1.10 1.10 0.0 0 0 781.68 899.84
  C 786.99 902.50 790.92 904.95 795.89 906.80
  Q 809.00 911.70 811.85 912.40
  Q 822.06 914.88 842.78 918.15
  C 854.09 919.94 861.70 919.74 876.00 919.60
  Q 888.48 919.48 895.11 918.35
  C 899.51 917.60 905.23 917.83 910.23 917.05
  Q 922.52 915.11 934.16 913.63
  C 940.31 912.84 947.14 911.37 955.48 909.81
  Q 961.95 908.60 971.53 907.37
  C 981.01 906.15 990.26 904.31 999.91 903.29
  Q 1003.57 902.90 1012.76 901.88
  C 1049.54 897.77 1086.97 898.42 1123.68 902.17
  Q 1153.39 905.20 1186.01 910.51
  Q 1215.04 915.24 1237.25 918.50
  Q 1262.44 922.19 1287.82 922.80
  C 1295.83 923.00 1305.05 922.19 1311.52 921.97
  Q 1320.37 921.68 1329.16 920.05
  Q 1346.70 916.80 1360.38 912.39
  Q 1362.27 911.78 1371.94 907.70
  Q 1378.69 904.86 1383.05 902.03
  C 1387.73 899.00 1393.44 896.36 1397.92 892.30
  C 1403.21 887.51 1408.32 883.56 1412.91 877.82
  Q 1427.70 859.28 1433.95 836.72
  Q 1438.20 821.36 1439.80 809.52
  C 1444.39 775.69 1442.06 739.91 1435.97 706.00
  C 1429.62 670.67 1425.08 650.69 1424.13 622.69
  Q 1423.84 614.19 1423.66 588.97
  Q 1423.55 574.19 1422.64 566.07
  Q 1421.51 555.95 1418.73 543.47
  Q 1417.07 536.05 1413.59 529.04
  Q 1408.15 518.08 1406.12 515.25
  A 1.39 1.38 -37.5 0 0 1404.12 514.99
  C 1395.98 521.65 1386.70 526.84 1376.10 528.28
  C 1369.75 529.14 1364.01 529.81 1359.03 528.45
  C 1356.28 527.70 1351.21 526.44 1347.65 524.29
  Q 1340.99 520.27 1337.93 514.40
  Q 1331.17 501.46 1336.46 486.55
  C 1337.47 483.71 1340.67 480.34 1341.99 478.59
  Q 1345.03 474.61 1349.34 472.62
  Q 1356.23 469.44 1360.13 468.90
  C 1368.04 467.80 1375.90 469.51 1383.89 472.41
  C 1390.09 474.65 1393.78 476.76 1398.40 480.84
  Q 1401.08 483.19 1404.59 486.24
  A 0.99 0.99 0.0 0 0 1406.17 485.85
  Q 1408.06 480.92 1410.96 473.77
  Q 1412.78 469.26 1414.05 460.75
  Q 1414.67 456.59 1415.59 439.06
  Q 1415.73 436.44 1416.70 408.50
  C 1417.17 395.07 1419.43 376.43 1422.33 359.09
  Q 1425.92 337.67 1429.70 311.75
  Q 1437.22 260.14 1432.00 208.75
  Q 1430.12 190.33 1425.07 173.14
  Q 1420.16 156.45 1409.88 141.85
  C 1405.34 135.40 1398.41 128.28 1392.45 123.81
  Q 1379.02 113.73 1362.32 107.19
  Q 1353.89 103.88 1340.18 100.32
  Q 1331.60 98.09 1320.74 96.96
  Q 1306.03 95.44 1301.03 95.25
  Q 1283.79 94.60 1271.75 95.49
  Q 1247.73 97.25 1218.43 102.80
  Q 1207.71 104.83 1183.17 110.72
  Q 1163.69 115.40 1147.73 117.84
  Q 1118.00 122.37 1085.99 122.29
  Q 1063.22 122.23 1050.50 121.49
  Q 1031.08 120.36 994.27 116.41
  C 972.91 114.12 956.41 111.37 931.27 107.92
  Q 924.47 106.98 893.75 104.03
  Q 862.55 101.03 834.25 105.77
  Q 820.22 108.12 804.67 112.46
  C 798.62 114.15 795.80 115.49 788.88 118.19
  A 0.85 0.85 0.0 0 0 788.40 119.29
  C 790.44 124.34 793.90 128.54 795.61 133.89
  Q 797.88 141.02 799.04 147.02
  C 799.80 150.95 799.18 156.00 799.14 159.03
  C 799.06 166.94 794.86 176.53 790.53 182.27
  Q 783.97 190.99 771.63 195.39
  C 765.03 197.74 756.03 196.80 748.72 195.31
  C 741.04 193.75 736.43 189.71 731.34 183.58
  Q 727.30 178.72 726.23 175.05
  Q 723.71 166.41 723.91 161.53
  Q 724.51 146.54 733.49 134.93
  Q 736.77 130.68 741.99 125.12
  Q 745.26 121.64 752.12 117.12
  Q 755.47 114.90 756.77 113.15
  Z
  M 770.48 127.38
  Q 767.71 128.39 765.40 130.17
  Q 760.96 133.58 753.24 139.50
  A 11.44 11.38 0.1 0 0 751.31 141.41
  Q 745.13 149.22 742.77 157.65
  Q 740.97 164.07 745.24 171.02
  Q 748.65 176.56 755.48 177.54
  C 759.98 178.18 766.99 178.77 770.81 175.54
  C 774.14 172.74 779.17 167.60 779.81 163.29
  Q 781.87 149.32 776.81 136.46
  Q 775.04 131.96 771.73 127.74
  A 1.12 1.11 60.8 0 0 770.48 127.38
  Z
  M 1390.16 504.28
  L 1392.98 501.31
  A 1.49 1.48 46.0 0 0 1393.01 499.29
  Q 1390.17 496.14 1386.32 494.17
  Q 1375.61 488.67 1373.42 487.60
  C 1369.38 485.62 1364.69 486.56 1360.43 487.58
  C 1356.26 488.58 1354.55 490.64 1352.97 494.50
  Q 1349.69 502.52 1356.52 507.51
  C 1362.09 511.59 1366.95 511.19 1373.79 510.20
  C 1380.09 509.28 1384.79 506.81 1389.75 504.57
  A 1.49 1.48 9.6 0 0 1390.16 504.28
  Z
  M 130.28 500.93
  A 0.88 0.87 -34.3 0 0 130.03 502.23
  C 132.61 505.55 135.15 508.18 138.97 510.43
  Q 145.59 514.34 146.48 514.79
  Q 152.64 517.97 161.93 516.59
  Q 167.19 515.81 168.62 510.42
  C 170.89 501.86 163.29 497.67 156.19 496.33
  Q 142.64 493.78 130.28 500.93
  Z
  M 765.18 887.85
  A 1.21 1.19 -52.3 0 0 766.51 887.67
  Q 777.46 877.97 781.64 864.01
  Q 784.68 853.82 777.52 846.10
  Q 775.25 843.66 772.37 843.12
  C 765.57 841.83 757.08 841.86 752.29 847.77
  C 748.87 851.99 746.48 855.99 747.73 861.53
  Q 749.07 867.44 751.03 872.01
  A 11.27 11.04 13.3 0 0 752.91 874.98
  C 758.19 880.96 762.33 886.43 765.18 887.85
  Z"
/>
</svg>
