<?xml version="1.0" encoding="UTF-8" standalone="no"?>
<!DOCTYPE svg PUBLIC "-//W3C//DTD SVG 1.1//EN" "http://www.w3.org/Graphics/SVG/1.1/DTD/svg11.dtd">
<svg xmlns="http://www.w3.org/2000/svg" version="1.1" viewBox="0.00 0.00 1774.00 887.00">
<path fill="#bfe991" d="
  M 923.58 355.69
  Q 930.44 349.30 941.44 340.47
  Q 960.62 325.06 984.21 311.98
  Q 1012.26 296.43 1041.79 290.33
  Q 1047.12 289.23 1058.00 288.29
  C 1069.43 287.31 1082.91 288.24 1093.45 293.52
  C 1105.93 299.79 1112.96 311.11 1115.83 324.43
  C 1118.91 338.77 1119.28 353.89 1119.41 368.50
  Q 1119.55 384.74 1119.19 407.50
  Q 1118.88 427.87 1116.44 442.99
  C 1115.10 451.33 1110.98 462.16 1104.62 468.12
  C 1092.32 479.65 1075.36 482.04 1058.44 480.86
  Q 1042.53 479.75 1032.27 477.75
  Q 1026.20 476.56 1005.79 470.39
  Q 1003.80 469.79 999.11 467.74
  C 994.01 465.51 989.11 464.16 983.90 462.01
  Q 979.66 460.27 975.56 458.68
  C 970.32 456.64 965.57 453.33 960.37 450.92
  Q 957.49 449.58 946.60 444.12
  Q 941.09 441.35 937.64 438.96
  Q 933.26 435.91 928.86 433.60
  A 1.22 1.20 14.7 0 1 928.22 432.52
  C 928.51 417.79 928.92 411.26 928.46 397.84
  Q 928.25 391.90 928.68 378.50
  C 928.95 370.07 928.51 362.67 923.52 356.72
  A 0.75 0.75 0.0 0 1 923.58 355.69
  Z
  M 945.12 394.23
  A 0.61 0.60 -76.2 0 0 945.53 394.91
  Q 958.54 399.17 966.19 401.82
  Q 978.27 406.01 985.32 407.93
  C 1006.27 413.64 1027.52 418.46 1048.50 419.12
  Q 1055.51 419.34 1059.47 418.27
  Q 1074.26 414.28 1076.80 399.00
  Q 1077.66 393.79 1077.50 382.51
  C 1077.35 372.42 1075.01 359.62 1065.77 354.98
  Q 1058.48 351.31 1049.03 351.75
  Q 1036.19 352.34 1020.13 357.24
  Q 999.48 363.53 977.26 375.33
  Q 956.79 386.20 945.63 393.63
  Q 945.18 393.93 945.12 394.23
  Z"
/>
<path fill="#bfe991" d="
  M 845.87 432.18
  A 1.48 1.48 0.0 0 1 845.06 433.56
  C 839.21 436.54 834.61 440.16 829.12 442.82
  C 820.30 447.11 806.68 455.09 795.79 459.62
  Q 788.05 462.83 775.58 467.51
  Q 766.92 470.75 760.52 472.27
  C 754.12 473.78 747.30 476.23 740.10 477.63
  C 724.36 480.67 708.67 482.15 692.97 479.79
  C 679.58 477.78 667.10 469.23 661.56 456.44
  C 655.67 442.84 655.04 427.67 654.68 411.01
  Q 654.23 390.34 654.59 367.50
  Q 654.86 350.20 655.96 338.52
  C 656.63 331.40 658.34 322.19 660.95 315.83
  Q 671.58 289.88 701.76 288.21
  C 721.36 287.13 741.15 291.30 759.68 298.32
  Q 783.27 307.26 804.48 320.79
  C 819.30 330.25 832.74 340.60 846.79 352.23
  Q 848.78 353.88 850.22 355.31
  A 0.85 0.84 -50.1 0 1 850.31 356.40
  Q 845.43 363.26 845.40 372.24
  C 845.37 382.92 845.65 391.64 845.45 401.91
  Q 845.21 413.90 845.87 432.18
  Z
  M 828.72 394.07
  Q 828.66 393.77 828.21 393.47
  Q 817.04 386.06 796.56 375.24
  Q 774.34 363.50 753.69 357.25
  Q 737.63 352.39 724.80 351.82
  Q 715.36 351.40 708.08 355.09
  C 698.85 359.74 696.54 372.54 696.41 382.62
  Q 696.27 393.89 697.14 399.09
  Q 699.71 414.36 714.50 418.32
  Q 718.46 419.38 725.46 419.14
  C 746.43 418.44 767.65 413.58 788.57 407.84
  Q 795.61 405.90 807.68 401.69
  Q 815.32 399.03 828.31 394.75
  A 0.61 0.60 76.1 0 0 828.72 394.07
  Z"
/>
<path fill="#bfe991" d="
  M 646.60 382.23
  A 0.63 0.63 0.0 0 1 647.30 382.83
  C 647.60 389.63 647.13 396.91 647.28 403.04
  Q 647.72 422.00 648.72 433.27
  Q 649.30 439.82 651.70 450.75
  C 653.27 457.91 657.95 465.79 661.74 470.95
  A 0.67 0.67 0.0 0 1 661.43 471.97
  Q 652.07 475.40 637.47 479.40
  C 592.85 491.62 546.74 494.65 500.49 492.09
  C 447.16 489.14 407.54 483.41 342.41 474.65
  Q 320.14 471.66 282.02 467.57
  Q 239.12 462.97 197.75 462.44
  Q 131.68 461.59 67.07 474.55
  C 58.11 476.35 48.35 479.31 40.53 480.40
  Q 39.97 480.48 39.78 480.33
  A 0.94 0.94 0.0 0 1 39.58 478.99
  C 47.41 468.78 51.36 463.00 58.14 454.64
  Q 63.03 448.60 84.48 421.01
  C 87.53 417.08 92.66 411.21 96.88 406.19
  A 0.51 0.50 40.5 0 0 96.82 405.48
  L 39.84 356.94
  A 0.90 0.90 0.0 0 1 40.19 355.38
  C 117.71 334.85 198.64 332.65 278.42 342.16
  C 326.61 347.90 373.94 355.88 423.18 364.58
  Q 442.73 368.03 499.04 376.18
  C 507.38 377.39 515.13 377.93 522.95 379.02
  C 533.33 380.47 546.24 381.41 556.25 382.22
  C 579.54 384.10 604.19 384.91 628.20 383.40
  Q 646.34 382.26 646.60 382.23
  Z"
/>
<path fill="#bfe991" d="
  M 1126.90 382.83
  A 0.68 0.67 1.7 0 1 1127.61 382.17
  C 1136.23 382.52 1146.85 383.86 1156.47 383.84
  C 1163.68 383.83 1176.76 384.22 1186.50 383.80
  Q 1219.05 382.39 1246.24 379.24
  Q 1283.63 374.92 1322.75 368.50
  Q 1345.79 364.71 1355.78 363.10
  C 1396.41 356.54 1432.35 350.02 1472.93 344.48
  C 1517.40 338.41 1562.91 335.54 1609.08 337.42
  Q 1650.23 339.10 1686.26 345.24
  Q 1708.04 348.96 1732.92 355.23
  A 0.93 0.93 0.0 0 1 1733.30 356.84
  L 1677.07 405.13
  A 0.81 0.81 0.0 0 0 1676.96 406.24
  Q 1710.39 448.62 1727.76 471.50
  Q 1732.08 477.19 1733.59 479.58
  A 0.41 0.41 0.0 0 1 1733.42 480.17
  Q 1733.09 480.33 1732.52 480.24
  C 1720.12 478.13 1708.54 474.66 1696.87 472.67
  Q 1680.44 469.86 1663.25 467.52
  Q 1634.31 463.58 1599.82 462.71
  Q 1555.31 461.58 1510.50 465.51
  Q 1498.25 466.58 1469.53 469.77
  C 1433.89 473.72 1409.01 477.35 1364.50 483.25
  Q 1314.06 489.94 1267.50 492.28
  Q 1228.81 494.23 1188.65 489.97
  C 1164.34 487.39 1140.94 481.72 1117.90 474.82
  Q 1114.83 473.90 1111.34 472.39
  A 0.84 0.84 0.0 0 1 1111.05 471.05
  Q 1118.33 463.15 1121.84 452.36
  Q 1122.23 451.15 1123.97 443.00
  Q 1124.91 438.61 1125.30 433.50
  Q 1126.78 414.20 1126.71 405.77
  Q 1126.62 395.68 1126.90 382.83
  Z"
/>
<rect fill="#bfe991" x="-34.25" y="-45.33" transform="translate(887.01,399.66) rotate(-0.1)" width="68.50" height="90.66" rx="15.50"/>
<path fill="#bfe991" d="
  M 664.07 573.69
  A 1.10 1.10 0.0 0 1 663.48 572.17
  Q 664.12 570.88 665.49 569.98
  C 674.65 563.95 682.79 557.68 692.12 550.84
  Q 714.29 534.61 736.33 515.78
  Q 740.78 511.98 744.40 508.44
  C 750.30 502.66 754.48 499.34 758.97 493.88
  Q 761.78 490.48 765.64 486.86
  C 769.41 483.33 773.00 479.02 775.88 475.40
  A 6.22 6.21 10.2 0 1 778.88 473.32
  Q 788.11 470.37 794.95 467.63
  C 802.95 464.43 812.40 459.25 820.84 455.33
  Q 829.39 451.36 837.39 446.16
  Q 841.34 443.59 847.11 440.66
  A 1.33 1.33 0.0 0 1 848.83 441.13
  Q 852.87 447.37 860.22 450.55
  A 0.83 0.83 0.0 0 1 860.69 451.54
  Q 860.03 453.87 859.31 455.59
  Q 839.32 503.24 814.32 547.69
  C 809.32 556.58 802.80 566.88 797.99 574.24
  Q 780.88 600.44 755.32 628.96
  C 753.12 631.42 749.76 634.16 747.69 636.73
  C 744.89 640.21 741.26 642.96 737.60 646.51
  A 1.01 1.01 0.0 0 1 735.90 645.93
  L 726.21 582.21
  A 1.24 1.22 88.1 0 0 725.12 581.17
  Q 709.59 579.59 703.42 578.70
  C 690.95 576.91 678.87 576.11 665.69 574.07
  Q 664.64 573.91 664.07 573.69
  Z"
/>
<path fill="#bfe991" d="
  M 1033.41 646.18
  A 0.72 0.72 0.0 0 1 1032.30 646.66
  Q 1030.24 645.25 1027.13 642.12
  Q 986.04 600.66 958.82 551.20
  Q 939.41 515.95 924.30 480.20
  C 918.28 465.96 914.44 457.64 912.66 451.59
  A 1.12 1.11 -17.0 0 1 913.40 450.21
  Q 920.86 447.89 924.85 441.07
  A 1.05 1.04 -63.6 0 1 926.14 440.63
  C 934.76 444.21 941.94 450.16 950.53 454.40
  Q 958.50 458.33 975.81 466.51
  C 981.99 469.43 988.25 471.12 994.77 473.70
  A 5.79 5.75 81.0 0 1 997.11 475.41
  C 1001.46 480.72 1004.05 484.25 1007.81 487.91
  C 1011.57 491.56 1014.97 496.03 1019.12 500.22
  Q 1041.52 522.81 1068.27 543.29
  Q 1089.30 559.39 1105.41 570.83
  Q 1106.20 571.39 1106.78 572.17
  A 1.07 1.07 0.0 0 1 1106.11 573.85
  C 1101.70 574.69 1093.12 576.13 1086.93 576.82
  Q 1065.26 579.22 1044.94 581.78
  A 1.24 1.23 -88.7 0 0 1043.87 582.81
  L 1033.41 646.18
  Z"
/>
</svg>
