<?xml version="1.0" encoding="UTF-8" standalone="no"?>
<!DOCTYPE svg PUBLIC "-//W3C//DTD SVG 1.1//EN" "http://www.w3.org/Graphics/SVG/1.1/DTD/svg11.dtd">
<svg xmlns="http://www.w3.org/2000/svg" version="1.1" viewBox="0.00 0.00 2400.00 1309.00">
<g stroke-width="2.00" fill="none" stroke-linecap="butt">
<path stroke="#edd9f2" vector-effect="non-scaling-stroke" d="
  M 1432.46 164.48
  L 1529.89 227.89"
/>
<path stroke="#edd9f2" vector-effect="non-scaling-stroke" d="
  M 1550.87 376.37
  L 1486.87 335.42"
/>
<path stroke="#edd9f2" vector-effect="non-scaling-stroke" d="
  M 1341.63 241.74
  L 1270.79 195.46
  A 0.86 0.86 0.0 0 1 1270.86 193.98
  L 1284.80 186.47"
/>
</g>
<path fill="#e1c0fd" d="
  M 1432.46 164.48
  L 1529.89 227.89
  L 1655.78 309.06
  A 0.52 0.52 0.0 0 1 1655.73 309.96
  Q 1647.92 313.77 1641.64 317.13
  C 1640.26 317.87 1639.07 319.87 1638.55 321.60
  Q 1636.12 329.60 1632.04 344.71
  A 2.75 2.73 0.5 0 1 1630.05 346.65
  C 1627.00 347.41 1620.59 348.65 1618.86 351.33
  Q 1617.54 353.37 1615.24 361.97
  Q 1613.35 369.05 1611.88 378.82
  C 1611.19 383.48 1601.14 382.99 1599.32 388.56
  Q 1596.76 396.37 1595.96 404.40
  A 0.63 0.63 0.0 0 1 1594.99 404.87
  L 1550.87 376.37
  L 1486.87 335.42
  C 1480.88 331.30 1473.56 327.10 1468.48 323.75
  C 1440.80 305.48 1428.09 297.03 1412.88 287.48
  C 1399.99 279.38 1391.15 273.85 1377.40 264.47
  Q 1359.79 252.47 1341.63 241.74
  L 1270.79 195.46
  A 0.86 0.86 0.0 0 1 1270.86 193.98
  L 1284.80 186.47
  L 1287.80 184.57
  A 3.28 3.28 0.0 0 0 1289.34 181.60
  C 1289.03 176.20 1288.54 170.52 1290.60 165.82
  C 1293.27 159.70 1303.75 161.96 1304.62 154.63
  C 1305.38 148.22 1305.17 144.65 1307.38 140.67
  Q 1311.44 133.38 1313.10 126.42
  A 8.57 8.51 76.9 0 1 1315.90 121.89
  Q 1325.36 113.98 1326.58 112.87
  C 1329.20 110.48 1329.91 103.89 1330.01 100.35
  A 0.99 0.99 0.0 0 1 1331.53 99.55
  L 1432.46 164.48
  Z"
/>
<path fill="#f8f2e7" d="
  M 1529.89 227.89
  L 1432.46 164.48
  Q 1436.38 162.97 1439.54 162.49
  C 1478.60 156.64 1499.16 153.44 1518.59 150.89
  A 0.69 0.68 -7.6 0 1 1519.36 151.47
  Q 1523.99 184.19 1529.41 218.66
  Q 1529.94 222.02 1529.89 227.89
  Z"
/>
<path fill="#f8f2e7" d="
  M 1284.80 186.47
  L 1270.86 193.98
  A 0.86 0.86 0.0 0 0 1270.79 195.46
  L 1341.63 241.74
  L 813.45 319.80
  A 0.37 0.36 7.2 0 0 813.17 320.01
  Q 812.63 321.23 812.95 323.29
  Q 815.34 338.71 827.18 420.57
  Q 859.02 640.80 888.31 844.25
  Q 902.14 940.32 906.15 966.15
  Q 907.43 974.38 911.14 1001.22
  A 0.81 0.81 0.0 0 0 912.06 1001.91
  L 1566.63 903.54
  A 1.00 1.00 0.0 0 0 1567.47 902.41
  Q 1553.13 803.63 1550.63 785.91
  Q 1545.58 750.09 1541.44 722.13
  Q 1538.35 701.24 1513.84 529.51
  C 1508.90 494.90 1503.73 459.54 1498.46 422.85
  C 1494.56 395.69 1490.32 370.28 1487.19 341.64
  Q 1486.86 338.60 1486.87 335.42
  L 1550.87 376.37
  Q 1549.50 376.65 1550.09 377.90
  Q 1550.89 379.59 1551.16 380.06
  A 7.85 7.70 23.4 0 1 1551.94 381.98
  Q 1554.38 391.44 1554.84 394.65
  C 1572.43 516.58 1587.59 620.32 1603.55 732.55
  Q 1630.48 921.91 1655.81 1093.14
  A 1.33 1.33 0.0 0 1 1654.70 1094.65
  L 881.26 1210.88
  A 0.92 0.92 0.0 0 1 880.21 1210.11
  L 743.96 266.77
  A 1.12 1.12 0.0 0 1 744.90 265.50
  Q 980.02 230.65 1211.84 196.10
  C 1229.75 193.43 1255.08 190.05 1276.62 186.11
  Q 1280.77 185.36 1284.80 186.47
  Z"
/>
</svg>
