<?xml version="1.0" encoding="UTF-8" standalone="no"?>
<!DOCTYPE svg PUBLIC "-//W3C//DTD SVG 1.1//EN" "http://www.w3.org/Graphics/SVG/1.1/DTD/svg11.dtd">
<svg xmlns="http://www.w3.org/2000/svg" version="1.1" viewBox="0.00 0.00 2400.00 1309.00">
<path fill="#ffcb5d" d="
  M 1638.08 125.00
  A 1.02 1.02 0.0 0 1 1639.19 125.95
  C 1646.56 223.24 1659.35 375.75 1669.44 505.06
  Q 1684.68 700.26 1701.23 898.75
  Q 1701.46 901.45 1699.83 903.32
  Q 1679.52 926.62 1669.34 938.84
  C 1649.56 962.61 1632.18 982.37 1614.53 1003.68
  C 1601.30 1019.65 1588.99 1033.40 1575.11 1050.03
  Q 1567.86 1058.71 1514.46 1121.54
  A 2.46 2.44 -72.2 0 1 1512.82 1122.39
  L 763.32 1185.78
  A 0.95 0.95 0.0 0 1 762.29 1184.91
  Q 762.20 1183.90 761.42 1174.49
  Q 730.92 802.46 730.82 801.25
  Q 725.58 737.91 721.78 689.00
  Q 704.21 462.91 682.93 206.50
  A 0.71 0.71 0.0 0 1 683.58 205.74
  L 1638.08 125.00
  Z"
/>
</svg>
