<?xml version="1.0" encoding="UTF-8" standalone="no"?>
<!DOCTYPE svg PUBLIC "-//W3C//DTD SVG 1.1//EN" "http://www.w3.org/Graphics/SVG/1.1/DTD/svg11.dtd">
<svg xmlns="http://www.w3.org/2000/svg" version="1.1" viewBox="0.00 0.00 1536.00 1024.00">
<path fill="#ffd057" d="
  M 951.90 967.59
  Q 898.77 968.81 847.08 958.11
  C 809.76 950.38 772.01 938.70 734.05 926.55
  Q 725.01 923.66 715.26 920.88
  C 692.21 914.33 667.94 907.92 643.48 904.60
  Q 593.30 897.79 544.01 905.52
  C 513.10 910.37 483.74 917.80 450.86 926.08
  C 422.98 933.11 395.07 939.07 366.75 942.96
  Q 326.76 948.45 287.51 945.78
  Q 260.92 943.98 232.28 936.98
  Q 174.31 922.81 127.72 886.31
  Q 124.89 884.09 120.90 880.35
  Q 117.09 876.78 114.21 874.02
  Q 70.27 831.96 54.05 775.75
  Q 41.15 731.02 45.41 684.89
  Q 48.23 654.30 56.05 626.07
  C 60.40 610.38 65.98 593.32 72.56 575.51
  Q 75.77 566.79 81.54 550.06
  Q 81.91 548.99 85.54 536.26
  C 91.75 514.45 95.18 492.74 93.76 471.00
  Q 92.28 448.32 85.49 425.74
  Q 79.42 405.59 70.40 381.61
  Q 69.13 378.24 63.55 359.97
  Q 57.77 341.07 54.47 321.07
  Q 50.92 299.55 51.47 281.28
  C 53.45 215.82 80.87 156.39 132.38 115.48
  C 146.20 104.50 162.53 95.35 178.72 87.97
  Q 189.22 83.19 199.49 79.96
  Q 233.70 69.20 268.51 66.55
  C 274.40 66.10 282.17 65.33 287.51 65.35
  Q 319.75 65.48 341.62 68.45
  Q 383.57 74.14 410.80 81.25
  C 422.58 84.33 455.92 92.84 485.38 100.77
  Q 524.02 111.17 562.77 115.32
  Q 595.77 118.85 627.75 115.74
  C 667.96 111.83 703.69 101.06 745.84 86.34
  Q 753.38 83.71 783.22 74.89
  C 812.99 66.10 840.87 59.86 870.02 55.30
  Q 888.28 52.45 904.26 51.26
  C 914.63 50.49 934.43 49.20 949.60 49.60
  Q 983.07 50.48 1003.75 52.98
  Q 1043.01 57.72 1082.73 64.83
  Q 1105.63 68.93 1112.00 70.01
  Q 1139.56 74.69 1174.71 78.13
  Q 1190.30 79.66 1222.86 81.21
  Q 1248.14 82.41 1270.99 84.47
  Q 1281.17 85.38 1295.43 88.10
  Q 1322.90 93.33 1340.05 100.48
  Q 1355.79 107.04 1368.86 115.15
  Q 1374.71 118.77 1382.64 124.89
  Q 1406.85 143.55 1421.52 167.49
  C 1432.87 186.04 1441.24 207.17 1445.00 228.98
  Q 1451.89 268.88 1443.28 308.02
  C 1438.51 329.75 1433.05 345.34 1424.59 371.58
  Q 1421.39 381.51 1418.99 397.50
  C 1414.65 426.46 1421.37 454.70 1435.57 480.17
  Q 1442.16 492.01 1448.04 501.12
  C 1453.85 510.14 1458.91 519.32 1464.27 528.16
  C 1468.32 534.83 1470.77 540.28 1475.07 549.18
  Q 1497.59 595.83 1501.85 647.44
  C 1506.43 702.81 1495.79 759.53 1469.03 808.23
  C 1440.71 859.76 1396.25 897.13 1340.44 916.16
  Q 1310.54 926.35 1279.11 930.36
  C 1251.59 933.87 1230.40 934.61 1196.60 936.27
  C 1159.36 938.09 1122.47 942.91 1085.39 949.90
  Q 1055.90 955.46 1038.31 958.49
  C 1009.54 963.44 979.81 966.95 951.90 967.59
  Z"
/>
</svg>
