<?xml version="1.0" encoding="UTF-8" standalone="no"?>
<!DOCTYPE svg PUBLIC "-//W3C//DTD SVG 1.1//EN" "http://www.w3.org/Graphics/SVG/1.1/DTD/svg11.dtd">
<svg xmlns="http://www.w3.org/2000/svg" version="1.1" viewBox="0.00 0.00 1536.00 1024.00">
<path stroke="#a5c57c" stroke-width="2.00" fill="none" stroke-linecap="butt" vector-effect="non-scaling-stroke" d="
  M 1218.05 50.07
  Q 1218.16 50.30 1218.28 50.52
  A 2.05 1.99 -60.5 0 1 1218.49 51.33
  Q 1218.74 56.87 1218.04 62.75
  C 1217.70 65.58 1218.23 69.18 1218.23 71.76
  Q 1218.25 134.36 1218.19 256.01
  Q 1218.19 258.46 1218.32 270.44
  C 1218.41 279.45 1219.85 289.19 1223.63 295.94
  Q 1235.39 316.93 1257.32 322.11
  Q 1263.70 323.61 1279.93 323.62
  Q 1361.49 323.63 1442.75 323.48
  Q 1466.76 323.43 1477.75 324.07
  Q 1482.47 324.34 1490.46 323.22"
/>
<path fill="#c6e8a2" d="
  M 1218.05 50.07
  Q 1218.16 50.30 1218.28 50.52
  A 2.05 1.99 -60.5 0 1 1218.49 51.33
  Q 1218.74 56.87 1218.04 62.75
  C 1217.70 65.58 1218.23 69.18 1218.23 71.76
  Q 1218.25 134.36 1218.19 256.01
  Q 1218.19 258.46 1218.32 270.44
  C 1218.41 279.45 1219.85 289.19 1223.63 295.94
  Q 1235.39 316.93 1257.32 322.11
  Q 1263.70 323.61 1279.93 323.62
  Q 1361.49 323.63 1442.75 323.48
  Q 1466.76 323.43 1477.75 324.07
  Q 1482.47 324.34 1490.46 323.22
  Q 1491.12 323.81 1491.12 324.96
  Q 1491.05 638.44 1491.12 914.00
  Q 1491.12 931.18 1489.68 936.86
  C 1484.37 957.87 1465.05 973.97 1442.75 973.97
  Q 1292.69 974.01 94.00 973.96
  Q 74.87 973.96 61.17 961.53
  Q 49.94 951.36 46.45 937.36
  Q 44.94 931.33 44.94 914.52
  Q 44.92 570.60 44.93 98.52
  Q 44.93 80.07 58.13 64.66
  Q 60.86 61.48 70.67 55.44
  C 79.46 50.03 88.52 49.48 100.14 49.48
  Q 751.20 49.46 1178.37 49.54
  Q 1178.47 49.54 1195.13 49.28
  Q 1207.30 49.09 1218.05 50.07
  Z"
/>
<path fill="#84a156" d="
  M 1218.05 50.07
  Q 1243.35 79.16 1263.66 99.84
  Q 1279.36 115.84 1315.81 151.94
  Q 1391.30 226.73 1443.63 278.37
  Q 1453.68 288.28 1473.37 307.06
  C 1477.71 311.19 1484.97 317.55 1490.46 323.22
  Q 1482.47 324.34 1477.75 324.07
  Q 1466.76 323.43 1442.75 323.48
  Q 1361.49 323.63 1279.93 323.62
  Q 1263.70 323.61 1257.32 322.11
  Q 1235.39 316.93 1223.63 295.94
  C 1219.85 289.19 1218.41 279.45 1218.32 270.44
  Q 1218.19 258.46 1218.19 256.01
  Q 1218.25 134.36 1218.23 71.76
  C 1218.23 69.18 1217.70 65.58 1218.04 62.75
  Q 1218.74 56.87 1218.49 51.33
  A 2.05 1.99 -60.5 0 0 1218.28 50.52
  Q 1218.16 50.30 1218.05 50.07
  Z"
/>
</svg>
