<?xml version="1.0" encoding="UTF-8" standalone="no"?>
<!DOCTYPE svg PUBLIC "-//W3C//DTD SVG 1.1//EN" "http://www.w3.org/Graphics/SVG/1.1/DTD/svg11.dtd">
<svg xmlns="http://www.w3.org/2000/svg" version="1.1" viewBox="0.00 0.00 2400.00 1309.00">
<path fill="#d9a6fb" d="
  M 328.46 1043.32
  Q 316.21 1022.51 314.94 998.25
  Q 314.68 993.41 314.65 980.25
  Q 314.60 955.55 314.47 772.37
  Q 314.36 624.62 314.40 490.50
  Q 314.44 346.44 314.53 312.00
  C 314.56 301.35 316.04 289.87 319.58 279.64
  Q 334.53 236.45 377.58 219.59
  Q 386.71 216.01 396.82 214.69
  Q 402.84 213.91 416.72 213.91
  Q 662.00 213.92 1988.50 213.90
  C 2031.29 213.90 2067.03 239.64 2080.58 280.45
  Q 2081.18 282.27 2082.77 288.12
  C 2085.02 296.43 2085.20 304.57 2085.16 314.50
  Q 2085.00 358.69 2085.00 372.76
  Q 2085.02 611.25 2084.93 993.51
  Q 2084.92 1003.97 2084.33 1007.52
  C 2077.48 1048.70 2048.94 1080.52 2008.85 1091.61
  Q 1999.34 1094.24 1988.00 1094.29
  Q 1930.74 1094.53 476.25 1094.47
  Q 447.81 1094.47 415.68 1094.50
  C 405.69 1094.50 396.95 1093.37 387.92 1090.54
  Q 369.45 1084.75 354.01 1072.76
  Q 338.86 1061.00 328.46 1043.32
  Z"
/>
</svg>
